{
  "header": {
    "keySignatures": [],
    "meta": [],
    "name": "",
    "ppq": 43,
    "tempos": [
      {
        "bpm": 120,
        "ticks": 0
      }
    ],
    "timeSignatures": []
  },
  "tracks": [
    {
      "channel": 0,
      "controlChanges": {},
      "pitchBends": [],
      "instrument": {
        "family": "piano",
        "number": 0,
        "name": "acoustic grand piano"
      },
      "name": "",
      "notes": [
        {
          "duration": 0.3953488372093023,
          "durationTicks": 34,
          "midi": 58,
          "name": "A#3",
          "ticks": 0,
          "time": 0,
          "velocity": 0.31496062992125984
        },
        {
          "duration": 0.38372093023255816,
          "durationTicks": 33,
          "midi": 67,
          "name": "G4",
          "ticks": 0,
          "time": 0,
          "velocity": 0.41732283464566927
        },
        {
          "duration": 0.4186046511627907,
          "durationTicks": 36,
          "midi": 70,
          "name": "A#4",
          "ticks": 0,
          "time": 0,
          "velocity": 0.47244094488188976
        },
        {
          "duration": 0.9186046511627907,
          "durationTicks": 79,
          "midi": 74,
          "name": "D5",
          "ticks": 0,
          "time": 0,
          "velocity": 0.44881889763779526
        },
        {
          "duration": 0.37209302325581395,
          "durationTicks": 32,
          "midi": 79,
          "name": "G5",
          "ticks": 0,
          "time": 0,
          "velocity": 0.5039370078740157
        },
        {
          "duration": 0.23255813953488372,
          "durationTicks": 20,
          "midi": 81,
          "name": "A5",
          "ticks": 1,
          "time": 0.011627906976744186,
          "velocity": 0.13385826771653545
        },
        {
          "duration": 0.08139534883720931,
          "durationTicks": 7,
          "midi": 89,
          "name": "F6",
          "ticks": 1,
          "time": 0.011627906976744186,
          "velocity": 0.16535433070866143
        },
        {
          "duration": 0.046511627906976744,
          "durationTicks": 4,
          "midi": 92,
          "name": "G#6",
          "ticks": 1,
          "time": 0.011627906976744186,
          "velocity": 0.10236220472440945
        },
        {
          "duration": 0.11627906976744187,
          "durationTicks": 10,
          "midi": 93,
          "name": "A6",
          "ticks": 1,
          "time": 0.011627906976744186,
          "velocity": 0.15748031496062992
        },
        {
          "duration": 0.03488372093023256,
          "durationTicks": 3,
          "midi": 53,
          "name": "F3",
          "ticks": 2,
          "time": 0.023255813953488372,
          "velocity": 0.14173228346456693
        },
        {
          "duration": 0.3023255813953489,
          "durationTicks": 26,
          "midi": 62,
          "name": "D4",
          "ticks": 2,
          "time": 0.023255813953488372,
          "velocity": 0.3228346456692913
        },
        {
          "duration": 0.06976744186046512,
          "durationTicks": 6,
          "midi": 95,
          "name": "B6",
          "ticks": 2,
          "time": 0.023255813953488372,
          "velocity": 0.08661417322834646
        },
        {
          "duration": 0.034883720930232565,
          "durationTicks": 3,
          "midi": 53,
          "name": "F3",
          "ticks": 6,
          "time": 0.06976744186046512,
          "velocity": 0.11023622047244094
        },
        {
          "duration": 0.046511627906976744,
          "durationTicks": 4,
          "midi": 92,
          "name": "G#6",
          "ticks": 12,
          "time": 0.13953488372093023,
          "velocity": 0.08661417322834646
        },
        {
          "duration": 0.09302325581395346,
          "durationTicks": 8,
          "midi": 46,
          "name": "A#2",
          "ticks": 15,
          "time": 0.1744186046511628,
          "velocity": 0.13385826771653545
        },
        {
          "duration": 0.034883720930232565,
          "durationTicks": 3,
          "midi": 53,
          "name": "F3",
          "ticks": 21,
          "time": 0.2441860465116279,
          "velocity": 0.07086614173228346
        },
        {
          "duration": 0.023255813953488413,
          "durationTicks": 2,
          "midi": 63,
          "name": "D#4",
          "ticks": 39,
          "time": 0.45348837209302323,
          "velocity": 0.30708661417322836
        },
        {
          "duration": 0.4186046511627907,
          "durationTicks": 36,
          "midi": 70,
          "name": "A#4",
          "ticks": 39,
          "time": 0.45348837209302323,
          "velocity": 0.47244094488188976
        },
        {
          "duration": 0.4069767441860465,
          "durationTicks": 35,
          "midi": 79,
          "name": "G5",
          "ticks": 39,
          "time": 0.45348837209302323,
          "velocity": 0.4881889763779528
        },
        {
          "duration": 0.3953488372093023,
          "durationTicks": 34,
          "midi": 58,
          "name": "A#3",
          "ticks": 40,
          "time": 0.46511627906976744,
          "velocity": 0.30708661417322836
        },
        {
          "duration": 0.372093023255814,
          "durationTicks": 32,
          "midi": 67,
          "name": "G4",
          "ticks": 40,
          "time": 0.46511627906976744,
          "velocity": 0.41732283464566927
        },
        {
          "duration": 0.034883720930232565,
          "durationTicks": 3,
          "midi": 77,
          "name": "F5",
          "ticks": 40,
          "time": 0.46511627906976744,
          "velocity": 0.10236220472440945
        },
        {
          "duration": 0.09302325581395349,
          "durationTicks": 8,
          "midi": 89,
          "name": "F6",
          "ticks": 40,
          "time": 0.46511627906976744,
          "velocity": 0.14960629921259844
        },
        {
          "duration": 0.1162790697674419,
          "durationTicks": 10,
          "midi": 93,
          "name": "A6",
          "ticks": 40,
          "time": 0.46511627906976744,
          "velocity": 0.14960629921259844
        },
        {
          "duration": 0.06976744186046507,
          "durationTicks": 6,
          "midi": 98,
          "name": "D7",
          "ticks": 40,
          "time": 0.46511627906976744,
          "velocity": 0.14173228346456693
        },
        {
          "duration": 0.3023255813953489,
          "durationTicks": 26,
          "midi": 62,
          "name": "D4",
          "ticks": 41,
          "time": 0.47674418604651164,
          "velocity": 0.31496062992125984
        },
        {
          "duration": 0.04651162790697677,
          "durationTicks": 4,
          "midi": 92,
          "name": "G#6",
          "ticks": 41,
          "time": 0.47674418604651164,
          "velocity": 0.11811023622047244
        },
        {
          "duration": 0.05813953488372087,
          "durationTicks": 5,
          "midi": 95,
          "name": "B6",
          "ticks": 41,
          "time": 0.47674418604651164,
          "velocity": 0.10236220472440945
        },
        {
          "duration": 0.06976744186046513,
          "durationTicks": 6,
          "midi": 53,
          "name": "F3",
          "ticks": 42,
          "time": 0.4883720930232558,
          "velocity": 0.14173228346456693
        },
        {
          "duration": 0.17441860465116277,
          "durationTicks": 15,
          "midi": 81,
          "name": "A5",
          "ticks": 44,
          "time": 0.5116279069767442,
          "velocity": 0.13385826771653545
        },
        {
          "duration": 0.046511627906976716,
          "durationTicks": 4,
          "midi": 46,
          "name": "A#2",
          "ticks": 45,
          "time": 0.5232558139534884,
          "velocity": 0.14960629921259844
        },
        {
          "duration": 0.05813953488372092,
          "durationTicks": 5,
          "midi": 92,
          "name": "G#6",
          "ticks": 51,
          "time": 0.5930232558139535,
          "velocity": 0.09448818897637795
        },
        {
          "duration": 0.09302325581395343,
          "durationTicks": 8,
          "midi": 46,
          "name": "A#2",
          "ticks": 54,
          "time": 0.627906976744186,
          "velocity": 0.14960629921259844
        },
        {
          "duration": 0.023255813953488413,
          "durationTicks": 2,
          "midi": 46,
          "name": "A#2",
          "ticks": 78,
          "time": 0.9069767441860465,
          "velocity": 0.3228346456692913
        },
        {
          "duration": 0.3953488372093025,
          "durationTicks": 34,
          "midi": 61,
          "name": "C#4",
          "ticks": 78,
          "time": 0.9069767441860465,
          "velocity": 0.4094488188976378
        },
        {
          "duration": 0.023255813953488413,
          "durationTicks": 2,
          "midi": 70,
          "name": "A#4",
          "ticks": 78,
          "time": 0.9069767441860465,
          "velocity": 0.31496062992125984
        },
        {
          "duration": 0.2906976744186046,
          "durationTicks": 25,
          "midi": 81,
          "name": "A5",
          "ticks": 78,
          "time": 0.9069767441860465,
          "velocity": 0.3464566929133858
        },
        {
          "duration": 0.39534883720930225,
          "durationTicks": 34,
          "midi": 73,
          "name": "C#5",
          "ticks": 79,
          "time": 0.9186046511627907,
          "velocity": 0.5511811023622047
        },
        {
          "duration": 0.41860465116279066,
          "durationTicks": 36,
          "midi": 76,
          "name": "E5",
          "ticks": 79,
          "time": 0.9186046511627907,
          "velocity": 0.3464566929133858
        },
        {
          "duration": 0.16279069767441856,
          "durationTicks": 14,
          "midi": 83,
          "name": "B5",
          "ticks": 79,
          "time": 0.9186046511627907,
          "velocity": 0.2992125984251969
        },
        {
          "duration": 0.13953488372093037,
          "durationTicks": 12,
          "midi": 90,
          "name": "F#6",
          "ticks": 79,
          "time": 0.9186046511627907,
          "velocity": 0.11811023622047244
        },
        {
          "duration": 0.06976744186046513,
          "durationTicks": 6,
          "midi": 92,
          "name": "G#6",
          "ticks": 79,
          "time": 0.9186046511627907,
          "velocity": 0.11811023622047244
        },
        {
          "duration": 0.2558139534883722,
          "durationTicks": 22,
          "midi": 45,
          "name": "A2",
          "ticks": 80,
          "time": 0.9302325581395349,
          "velocity": 0.47244094488188976
        },
        {
          "duration": 0.08139534883720934,
          "durationTicks": 7,
          "midi": 52,
          "name": "E3",
          "ticks": 80,
          "time": 0.9302325581395349,
          "velocity": 0.28346456692913385
        },
        {
          "duration": 0.39534883720930225,
          "durationTicks": 34,
          "midi": 69,
          "name": "A4",
          "ticks": 80,
          "time": 0.9302325581395349,
          "velocity": 0.3858267716535433
        },
        {
          "duration": 0.023255813953488413,
          "durationTicks": 2,
          "midi": 71,
          "name": "B4",
          "ticks": 80,
          "time": 0.9302325581395349,
          "velocity": 0.2677165354330709
        },
        {
          "duration": 0.05813953488372092,
          "durationTicks": 5,
          "midi": 86,
          "name": "D6",
          "ticks": 80,
          "time": 0.9302325581395349,
          "velocity": 0.1889763779527559
        },
        {
          "duration": 0.18604651162790697,
          "durationTicks": 16,
          "midi": 89,
          "name": "F6",
          "ticks": 80,
          "time": 0.9302325581395349,
          "velocity": 0.13385826771653545
        },
        {
          "duration": 0.255813953488372,
          "durationTicks": 22,
          "midi": 64,
          "name": "E4",
          "ticks": 82,
          "time": 0.9534883720930233,
          "velocity": 0.4015748031496063
        },
        {
          "duration": 0.10465116279069753,
          "durationTicks": 9,
          "midi": 71,
          "name": "B4",
          "ticks": 83,
          "time": 0.9651162790697675,
          "velocity": 0.25984251968503935
        },
        {
          "duration": 0.05813953488372092,
          "durationTicks": 5,
          "midi": 87,
          "name": "D#6",
          "ticks": 83,
          "time": 0.9651162790697675,
          "velocity": 0.13385826771653545
        },
        {
          "duration": 0.058139534883721034,
          "durationTicks": 5,
          "midi": 79,
          "name": "G5",
          "ticks": 86,
          "time": 1,
          "velocity": 0.11023622047244094
        },
        {
          "duration": 0.03488372093023262,
          "durationTicks": 3,
          "midi": 97,
          "name": "C#7",
          "ticks": 87,
          "time": 1.0116279069767442,
          "velocity": 0.09448818897637795
        },
        {
          "duration": 0.11627906976744184,
          "durationTicks": 10,
          "midi": 52,
          "name": "E3",
          "ticks": 88,
          "time": 1.0232558139534884,
          "velocity": 0.2677165354330709
        },
        {
          "duration": 0.06976744186046502,
          "durationTicks": 6,
          "midi": 86,
          "name": "D6",
          "ticks": 88,
          "time": 1.0232558139534884,
          "velocity": 0.15748031496062992
        },
        {
          "duration": 0.046511627906976605,
          "durationTicks": 4,
          "midi": 87,
          "name": "D#6",
          "ticks": 91,
          "time": 1.058139534883721,
          "velocity": 0.12598425196850394
        },
        {
          "duration": 0.08139534883720945,
          "durationTicks": 7,
          "midi": 90,
          "name": "F#6",
          "ticks": 93,
          "time": 1.0813953488372092,
          "velocity": 0.11023622047244094
        },
        {
          "duration": 0.04651162790697683,
          "durationTicks": 4,
          "midi": 83,
          "name": "B5",
          "ticks": 95,
          "time": 1.1046511627906976,
          "velocity": 0.11811023622047244
        },
        {
          "duration": 0.10465116279069764,
          "durationTicks": 9,
          "midi": 71,
          "name": "B4",
          "ticks": 96,
          "time": 1.1162790697674418,
          "velocity": 0.1968503937007874
        },
        {
          "duration": 0.08139534883720922,
          "durationTicks": 7,
          "midi": 52,
          "name": "E3",
          "ticks": 99,
          "time": 1.1511627906976745,
          "velocity": 0.13385826771653545
        },
        {
          "duration": 0.046511627906976605,
          "durationTicks": 4,
          "midi": 79,
          "name": "G5",
          "ticks": 99,
          "time": 1.1511627906976745,
          "velocity": 0.09448818897637795
        },
        {
          "duration": 0.058139534883721034,
          "durationTicks": 5,
          "midi": 45,
          "name": "A2",
          "ticks": 103,
          "time": 1.197674418604651,
          "velocity": 0.25984251968503935
        },
        {
          "duration": 0.2325581395348837,
          "durationTicks": 20,
          "midi": 61,
          "name": "C#4",
          "ticks": 117,
          "time": 1.3604651162790697,
          "velocity": 0.4094488188976378
        },
        {
          "duration": 0.6627906976744187,
          "durationTicks": 57,
          "midi": 69,
          "name": "A4",
          "ticks": 117,
          "time": 1.3604651162790697,
          "velocity": 0.4015748031496063
        },
        {
          "duration": 0.2441860465116279,
          "durationTicks": 21,
          "midi": 73,
          "name": "C#5",
          "ticks": 117,
          "time": 1.3604651162790697,
          "velocity": 0.5511811023622047
        },
        {
          "duration": 0.023255813953488413,
          "durationTicks": 2,
          "midi": 65,
          "name": "F4",
          "ticks": 118,
          "time": 1.372093023255814,
          "velocity": 0.30708661417322836
        },
        {
          "duration": 0.20930232558139528,
          "durationTicks": 18,
          "midi": 76,
          "name": "E5",
          "ticks": 118,
          "time": 1.372093023255814,
          "velocity": 0.3464566929133858
        },
        {
          "duration": 0.16279069767441867,
          "durationTicks": 14,
          "midi": 83,
          "name": "B5",
          "ticks": 118,
          "time": 1.372093023255814,
          "velocity": 0.31496062992125984
        },
        {
          "duration": 0.06976744186046502,
          "durationTicks": 6,
          "midi": 86,
          "name": "D6",
          "ticks": 118,
          "time": 1.372093023255814,
          "velocity": 0.1968503937007874
        },
        {
          "duration": 0.04651162790697683,
          "durationTicks": 4,
          "midi": 91,
          "name": "G6",
          "ticks": 118,
          "time": 1.372093023255814,
          "velocity": 0.12598425196850394
        },
        {
          "duration": 0.10465116279069764,
          "durationTicks": 9,
          "midi": 92,
          "name": "G#6",
          "ticks": 118,
          "time": 1.372093023255814,
          "velocity": 0.11023622047244094
        },
        {
          "duration": 0.20930232558139528,
          "durationTicks": 18,
          "midi": 45,
          "name": "A2",
          "ticks": 119,
          "time": 1.3837209302325582,
          "velocity": 0.4645669291338583
        },
        {
          "duration": 0.08139534883720922,
          "durationTicks": 7,
          "midi": 52,
          "name": "E3",
          "ticks": 119,
          "time": 1.3837209302325582,
          "velocity": 0.29133858267716534
        },
        {
          "duration": 0.09302325581395343,
          "durationTicks": 8,
          "midi": 71,
          "name": "B4",
          "ticks": 119,
          "time": 1.3837209302325582,
          "velocity": 0.2755905511811024
        },
        {
          "duration": 0.12790697674418605,
          "durationTicks": 11,
          "midi": 90,
          "name": "F#6",
          "ticks": 119,
          "time": 1.3837209302325582,
          "velocity": 0.11811023622047244
        },
        {
          "duration": 0.04651162790697683,
          "durationTicks": 4,
          "midi": 97,
          "name": "C#7",
          "ticks": 119,
          "time": 1.3837209302325582,
          "velocity": 0.12598425196850394
        },
        {
          "duration": 0.11627906976744184,
          "durationTicks": 10,
          "midi": 89,
          "name": "F6",
          "ticks": 120,
          "time": 1.3953488372093024,
          "velocity": 0.12598425196850394
        },
        {
          "duration": 0.18604651162790686,
          "durationTicks": 16,
          "midi": 64,
          "name": "E4",
          "ticks": 121,
          "time": 1.4069767441860466,
          "velocity": 0.3937007874015748
        },
        {
          "duration": 0.08139534883720922,
          "durationTicks": 7,
          "midi": 79,
          "name": "G5",
          "ticks": 121,
          "time": 1.4069767441860466,
          "velocity": 0.10236220472440945
        },
        {
          "duration": 0.046511627906976605,
          "durationTicks": 4,
          "midi": 87,
          "name": "D#6",
          "ticks": 123,
          "time": 1.430232558139535,
          "velocity": 0.12598425196850394
        },
        {
          "duration": 0.058139534883721034,
          "durationTicks": 5,
          "midi": 52,
          "name": "E3",
          "ticks": 127,
          "time": 1.4767441860465116,
          "velocity": 0.2677165354330709
        },
        {
          "duration": 0.06976744186046524,
          "durationTicks": 6,
          "midi": 86,
          "name": "D6",
          "ticks": 127,
          "time": 1.4767441860465116,
          "velocity": 0.11811023622047244
        },
        {
          "duration": 0.023255813953488413,
          "durationTicks": 2,
          "midi": 44,
          "name": "G#2",
          "ticks": 137,
          "time": 1.5930232558139534,
          "velocity": 0.28346456692913385
        },
        {
          "duration": 0.30232558139534893,
          "durationTicks": 26,
          "midi": 62,
          "name": "D4",
          "ticks": 137,
          "time": 1.5930232558139534,
          "velocity": 0.30708661417322836
        },
        {
          "duration": 0.30232558139534893,
          "durationTicks": 26,
          "midi": 65,
          "name": "F4",
          "ticks": 137,
          "time": 1.5930232558139534,
          "velocity": 0.3779527559055118
        },
        {
          "duration": 0.2674418604651163,
          "durationTicks": 23,
          "midi": 77,
          "name": "F5",
          "ticks": 137,
          "time": 1.5930232558139534,
          "velocity": 0.4094488188976378
        },
        {
          "duration": 0.2441860465116279,
          "durationTicks": 21,
          "midi": 86,
          "name": "D6",
          "ticks": 137,
          "time": 1.5930232558139534,
          "velocity": 0.3779527559055118
        },
        {
          "duration": 0.03488372093023262,
          "durationTicks": 3,
          "midi": 51,
          "name": "D#3",
          "ticks": 138,
          "time": 1.6046511627906976,
          "velocity": 0.2440944881889764
        },
        {
          "duration": 0.4651162790697676,
          "durationTicks": 40,
          "midi": 74,
          "name": "D5",
          "ticks": 138,
          "time": 1.6046511627906976,
          "velocity": 0.4251968503937008
        },
        {
          "duration": 0.04651162790697683,
          "durationTicks": 4,
          "midi": 80,
          "name": "G#5",
          "ticks": 138,
          "time": 1.6046511627906976,
          "velocity": 0.2125984251968504
        },
        {
          "duration": 0.2441860465116279,
          "durationTicks": 21,
          "midi": 84,
          "name": "C6",
          "ticks": 138,
          "time": 1.6046511627906976,
          "velocity": 0.2047244094488189
        },
        {
          "duration": 0.058139534883721034,
          "durationTicks": 5,
          "midi": 85,
          "name": "C#6",
          "ticks": 138,
          "time": 1.6046511627906976,
          "velocity": 0.1968503937007874
        },
        {
          "duration": 0.03488372093023262,
          "durationTicks": 3,
          "midi": 100,
          "name": "E7",
          "ticks": 139,
          "time": 1.6162790697674418,
          "velocity": 0.11811023622047244
        },
        {
          "duration": 0.023255813953488413,
          "durationTicks": 2,
          "midi": 39,
          "name": "D#2",
          "ticks": 140,
          "time": 1.627906976744186,
          "velocity": 0.36220472440944884
        },
        {
          "duration": 0.2441860465116279,
          "durationTicks": 21,
          "midi": 88,
          "name": "E6",
          "ticks": 141,
          "time": 1.6395348837209303,
          "velocity": 0.18110236220472442
        },
        {
          "duration": 0.046511627906976605,
          "durationTicks": 4,
          "midi": 38,
          "name": "D2",
          "ticks": 143,
          "time": 1.6627906976744187,
          "velocity": 0.33858267716535434
        },
        {
          "duration": 0.06976744186046502,
          "durationTicks": 6,
          "midi": 57,
          "name": "A3",
          "ticks": 145,
          "time": 1.686046511627907,
          "velocity": 0.1968503937007874
        },
        {
          "duration": 0.12790697674418583,
          "durationTicks": 11,
          "midi": 95,
          "name": "B6",
          "ticks": 145,
          "time": 1.686046511627907,
          "velocity": 0.09448818897637795
        },
        {
          "duration": 0.04651162790697683,
          "durationTicks": 4,
          "midi": 85,
          "name": "C#6",
          "ticks": 147,
          "time": 1.7093023255813953,
          "velocity": 0.11023622047244094
        },
        {
          "duration": 0.11627906976744184,
          "durationTicks": 10,
          "midi": 72,
          "name": "C5",
          "ticks": 148,
          "time": 1.7209302325581395,
          "velocity": 0.16535433070866143
        },
        {
          "duration": 0.023255813953488413,
          "durationTicks": 2,
          "midi": 50,
          "name": "D3",
          "ticks": 149,
          "time": 1.7325581395348837,
          "velocity": 0.25196850393700787
        },
        {
          "duration": 0.03488372093023262,
          "durationTicks": 3,
          "midi": 38,
          "name": "D2",
          "ticks": 150,
          "time": 1.744186046511628,
          "velocity": 0.33070866141732286
        },
        {
          "duration": 0.046511627906976605,
          "durationTicks": 4,
          "midi": 57,
          "name": "A3",
          "ticks": 152,
          "time": 1.7674418604651163,
          "velocity": 0.11811023622047244
        },
        {
          "duration": 0.02325581395348819,
          "durationTicks": 2,
          "midi": 38,
          "name": "D2",
          "ticks": 154,
          "time": 1.7906976744186047,
          "velocity": 0.29133858267716534
        },
        {
          "duration": 0.0348837209302324,
          "durationTicks": 3,
          "midi": 85,
          "name": "C#6",
          "ticks": 154,
          "time": 1.7906976744186047,
          "velocity": 0.08661417322834646
        },
        {
          "duration": 0.11627906976744184,
          "durationTicks": 10,
          "midi": 45,
          "name": "A2",
          "ticks": 159,
          "time": 1.8488372093023255,
          "velocity": 0.29133858267716534
        },
        {
          "duration": 0.36046511627906974,
          "durationTicks": 31,
          "midi": 72,
          "name": "C5",
          "ticks": 163,
          "time": 1.8953488372093024,
          "velocity": 0.33070866141732286
        },
        {
          "duration": 0.06976744186046524,
          "durationTicks": 6,
          "midi": 45,
          "name": "A2",
          "ticks": 170,
          "time": 1.9767441860465116,
          "velocity": 0.2283464566929134
        },
        {
          "duration": 0.2790697674418605,
          "durationTicks": 24,
          "midi": 65,
          "name": "F4",
          "ticks": 174,
          "time": 2.0232558139534884,
          "velocity": 0.33858267716535434
        },
        {
          "duration": 0.2325581395348837,
          "durationTicks": 20,
          "midi": 60,
          "name": "C4",
          "ticks": 177,
          "time": 2.058139534883721,
          "velocity": 0.3543307086614173
        },
        {
          "duration": 0.16279069767441845,
          "durationTicks": 14,
          "midi": 81,
          "name": "A5",
          "ticks": 178,
          "time": 2.0697674418604652,
          "velocity": 0.12598425196850394
        },
        {
          "duration": 0.12790697674418627,
          "durationTicks": 11,
          "midi": 38,
          "name": "D2",
          "ticks": 187,
          "time": 2.1744186046511627,
          "velocity": 0.14960629921259844
        },
        {
          "duration": 0.09302325581395365,
          "durationTicks": 8,
          "midi": 69,
          "name": "A4",
          "ticks": 188,
          "time": 2.186046511627907,
          "velocity": 0.07086614173228346
        },
        {
          "duration": 0.023255813953488413,
          "durationTicks": 2,
          "midi": 58,
          "name": "A#3",
          "ticks": 197,
          "time": 2.2906976744186047,
          "velocity": 0.25196850393700787
        },
        {
          "duration": 0.20930232558139528,
          "durationTicks": 18,
          "midi": 71,
          "name": "B4",
          "ticks": 197,
          "time": 2.2906976744186047,
          "velocity": 0.2440944881889764
        },
        {
          "duration": 0.2906976744186047,
          "durationTicks": 25,
          "midi": 74,
          "name": "D5",
          "ticks": 197,
          "time": 2.2906976744186047,
          "velocity": 0.16535433070866143
        },
        {
          "duration": 0.2325581395348837,
          "durationTicks": 20,
          "midi": 76,
          "name": "E5",
          "ticks": 197,
          "time": 2.2906976744186047,
          "velocity": 0.2204724409448819
        },
        {
          "duration": 0.20930232558139528,
          "durationTicks": 18,
          "midi": 64,
          "name": "E4",
          "ticks": 198,
          "time": 2.302325581395349,
          "velocity": 0.3464566929133858
        },
        {
          "duration": 0.19767441860465107,
          "durationTicks": 17,
          "midi": 67,
          "name": "G4",
          "ticks": 198,
          "time": 2.302325581395349,
          "velocity": 0.25196850393700787
        },
        {
          "duration": 0.19767441860465107,
          "durationTicks": 17,
          "midi": 59,
          "name": "B3",
          "ticks": 199,
          "time": 2.313953488372093,
          "velocity": 0.31496062992125984
        },
        {
          "duration": 0.06976744186046524,
          "durationTicks": 6,
          "midi": 55,
          "name": "G3",
          "ticks": 205,
          "time": 2.383720930232558,
          "velocity": 0.09448818897637795
        },
        {
          "duration": 0.20930232558139528,
          "durationTicks": 18,
          "midi": 72,
          "name": "C5",
          "ticks": 215,
          "time": 2.5,
          "velocity": 0.3543307086614173
        },
        {
          "duration": 0.2674418604651163,
          "durationTicks": 23,
          "midi": 60,
          "name": "C4",
          "ticks": 216,
          "time": 2.511627906976744,
          "velocity": 0.33858267716535434
        },
        {
          "duration": 0.30232558139534893,
          "durationTicks": 26,
          "midi": 65,
          "name": "F4",
          "ticks": 216,
          "time": 2.511627906976744,
          "velocity": 0.33070866141732286
        },
        {
          "duration": 0.20930232558139528,
          "durationTicks": 18,
          "midi": 69,
          "name": "A4",
          "ticks": 217,
          "time": 2.5232558139534884,
          "velocity": 0.15748031496062992
        },
        {
          "duration": 0.558139534883721,
          "durationTicks": 48,
          "midi": 81,
          "name": "A5",
          "ticks": 217,
          "time": 2.5232558139534884,
          "velocity": 0.33070866141732286
        },
        {
          "duration": 0.04651162790697683,
          "durationTicks": 4,
          "midi": 85,
          "name": "C#6",
          "ticks": 217,
          "time": 2.5232558139534884,
          "velocity": 0.11023622047244094
        },
        {
          "duration": 0.03488372093023262,
          "durationTicks": 3,
          "midi": 50,
          "name": "D3",
          "ticks": 218,
          "time": 2.5348837209302326,
          "velocity": 0.12598425196850394
        },
        {
          "duration": 0.18604651162790686,
          "durationTicks": 16,
          "midi": 38,
          "name": "D2",
          "ticks": 220,
          "time": 2.558139534883721,
          "velocity": 0.18110236220472442
        },
        {
          "duration": 0.04651162790697638,
          "durationTicks": 4,
          "midi": 88,
          "name": "E6",
          "ticks": 223,
          "time": 2.5930232558139537,
          "velocity": 0.09448818897637795
        },
        {
          "duration": 0.04651162790697683,
          "durationTicks": 4,
          "midi": 45,
          "name": "A2",
          "ticks": 236,
          "time": 2.744186046511628,
          "velocity": 0.1889763779527559
        },
        {
          "duration": 0.4651162790697674,
          "durationTicks": 40,
          "midi": 69,
          "name": "A4",
          "ticks": 236,
          "time": 2.744186046511628,
          "velocity": 0.33070866141732286
        },
        {
          "duration": 0.11627906976744162,
          "durationTicks": 10,
          "midi": 72,
          "name": "C5",
          "ticks": 240,
          "time": 2.7906976744186047,
          "velocity": 0.2047244094488189
        },
        {
          "duration": 0.06976744186046524,
          "durationTicks": 6,
          "midi": 45,
          "name": "A2",
          "ticks": 241,
          "time": 2.802325581395349,
          "velocity": 0.2283464566929134
        },
        {
          "duration": 0.15116279069767424,
          "durationTicks": 13,
          "midi": 60,
          "name": "C4",
          "ticks": 242,
          "time": 2.813953488372093,
          "velocity": 0.1732283464566929
        },
        {
          "duration": 0.04651162790697683,
          "durationTicks": 4,
          "midi": 45,
          "name": "A2",
          "ticks": 248,
          "time": 2.883720930232558,
          "velocity": 0.2204724409448819
        },
        {
          "duration": 0.2441860465116279,
          "durationTicks": 21,
          "midi": 72,
          "name": "C5",
          "ticks": 254,
          "time": 2.953488372093023,
          "velocity": 0.4330708661417323
        },
        {
          "duration": 0.023255813953488413,
          "durationTicks": 2,
          "midi": 39,
          "name": "D#2",
          "ticks": 255,
          "time": 2.9651162790697674,
          "velocity": 0.2283464566929134
        },
        {
          "duration": 1.383720930232558,
          "durationTicks": 119,
          "midi": 74,
          "name": "D5",
          "ticks": 255,
          "time": 2.9651162790697674,
          "velocity": 0.49606299212598426
        },
        {
          "duration": 0.22093023255813948,
          "durationTicks": 19,
          "midi": 77,
          "name": "F5",
          "ticks": 255,
          "time": 2.9651162790697674,
          "velocity": 0.18110236220472442
        },
        {
          "duration": 0.22093023255813948,
          "durationTicks": 19,
          "midi": 62,
          "name": "D4",
          "ticks": 256,
          "time": 2.9767441860465116,
          "velocity": 0.2992125984251969
        },
        {
          "duration": 0.2325581395348837,
          "durationTicks": 20,
          "midi": 65,
          "name": "F4",
          "ticks": 256,
          "time": 2.9767441860465116,
          "velocity": 0.3543307086614173
        },
        {
          "duration": 0.04651162790697683,
          "durationTicks": 4,
          "midi": 85,
          "name": "C#6",
          "ticks": 256,
          "time": 2.9767441860465116,
          "velocity": 0.12598425196850394
        },
        {
          "duration": 0.20930232558139528,
          "durationTicks": 18,
          "midi": 87,
          "name": "D#6",
          "ticks": 257,
          "time": 2.988372093023256,
          "velocity": 0.07874015748031496
        },
        {
          "duration": 0.11627906976744207,
          "durationTicks": 10,
          "midi": 91,
          "name": "G6",
          "ticks": 257,
          "time": 2.988372093023256,
          "velocity": 0.11811023622047244
        },
        {
          "duration": 0.058139534883721034,
          "durationTicks": 5,
          "midi": 38,
          "name": "D2",
          "ticks": 259,
          "time": 3.011627906976744,
          "velocity": 0.15748031496062992
        },
        {
          "duration": 0.18604651162790686,
          "durationTicks": 16,
          "midi": 53,
          "name": "F3",
          "ticks": 259,
          "time": 3.011627906976744,
          "velocity": 0.2755905511811024
        },
        {
          "duration": 0.12790697674418583,
          "durationTicks": 11,
          "midi": 38,
          "name": "D2",
          "ticks": 265,
          "time": 3.0813953488372094,
          "velocity": 0.14960629921259844
        },
        {
          "duration": 0.22093023255813948,
          "durationTicks": 19,
          "midi": 59,
          "name": "B3",
          "ticks": 275,
          "time": 3.197674418604651,
          "velocity": 0.2755905511811024
        },
        {
          "duration": 0.11627906976744207,
          "durationTicks": 10,
          "midi": 76,
          "name": "E5",
          "ticks": 275,
          "time": 3.197674418604651,
          "velocity": 0.2047244094488189
        },
        {
          "duration": 0.2790697674418605,
          "durationTicks": 24,
          "midi": 79,
          "name": "G5",
          "ticks": 275,
          "time": 3.197674418604651,
          "velocity": 0.3779527559055118
        },
        {
          "duration": 0.10465116279069786,
          "durationTicks": 9,
          "midi": 64,
          "name": "E4",
          "ticks": 276,
          "time": 3.2093023255813953,
          "velocity": 0.3464566929133858
        },
        {
          "duration": 0.09302325581395365,
          "durationTicks": 8,
          "midi": 67,
          "name": "G4",
          "ticks": 276,
          "time": 3.2093023255813953,
          "velocity": 0.31496062992125984
        },
        {
          "duration": 0.04651162790697683,
          "durationTicks": 4,
          "midi": 55,
          "name": "G3",
          "ticks": 282,
          "time": 3.2790697674418605,
          "velocity": 0.08661417322834646
        },
        {
          "duration": 0.18604651162790686,
          "durationTicks": 16,
          "midi": 77,
          "name": "F5",
          "ticks": 284,
          "time": 3.302325581395349,
          "velocity": 0.3700787401574803
        },
        {
          "duration": 0.17441860465116266,
          "durationTicks": 15,
          "midi": 65,
          "name": "F4",
          "ticks": 285,
          "time": 3.313953488372093,
          "velocity": 0.3700787401574803
        },
        {
          "duration": 0.10465116279069742,
          "durationTicks": 9,
          "midi": 84,
          "name": "C6",
          "ticks": 286,
          "time": 3.3255813953488373,
          "velocity": 0.12598425196850394
        },
        {
          "duration": 0.22093023255813948,
          "durationTicks": 19,
          "midi": 62,
          "name": "D4",
          "ticks": 295,
          "time": 3.4302325581395348,
          "velocity": 0.29133858267716534
        },
        {
          "duration": 0.058139534883721034,
          "durationTicks": 5,
          "midi": 93,
          "name": "A6",
          "ticks": 295,
          "time": 3.4302325581395348,
          "velocity": 0.13385826771653545
        },
        {
          "duration": 0.03488372093023262,
          "durationTicks": 3,
          "midi": 50,
          "name": "D3",
          "ticks": 297,
          "time": 3.453488372093023,
          "velocity": 0.12598425196850394
        },
        {
          "duration": 0.18604651162790686,
          "durationTicks": 16,
          "midi": 38,
          "name": "D2",
          "ticks": 298,
          "time": 3.4651162790697674,
          "velocity": 0.1732283464566929
        },
        {
          "duration": 0.11627906976744207,
          "durationTicks": 10,
          "midi": 72,
          "name": "C5",
          "ticks": 299,
          "time": 3.4767441860465116,
          "velocity": 0.1732283464566929
        },
        {
          "duration": 0.13953488372093004,
          "durationTicks": 12,
          "midi": 57,
          "name": "A3",
          "ticks": 301,
          "time": 3.5,
          "velocity": 0.08661417322834646
        },
        {
          "duration": 0.48837209302325624,
          "durationTicks": 42,
          "midi": 77,
          "name": "F5",
          "ticks": 313,
          "time": 3.63953488372093,
          "velocity": 0.47244094488188976
        },
        {
          "duration": 0.2325581395348837,
          "durationTicks": 20,
          "midi": 60,
          "name": "C4",
          "ticks": 314,
          "time": 3.6511627906976742,
          "velocity": 0.3543307086614173
        },
        {
          "duration": 0.2325581395348837,
          "durationTicks": 20,
          "midi": 65,
          "name": "F4",
          "ticks": 314,
          "time": 3.6511627906976742,
          "velocity": 0.23622047244094488
        },
        {
          "duration": 0.31395348837209314,
          "durationTicks": 27,
          "midi": 81,
          "name": "A5",
          "ticks": 314,
          "time": 3.6511627906976742,
          "velocity": 0.14960629921259844
        },
        {
          "duration": 0.13953488372093048,
          "durationTicks": 12,
          "midi": 69,
          "name": "A4",
          "ticks": 315,
          "time": 3.6627906976744184,
          "velocity": 0.11023622047244094
        },
        {
          "duration": 0.03488372093023262,
          "durationTicks": 3,
          "midi": 88,
          "name": "E6",
          "ticks": 315,
          "time": 3.6627906976744184,
          "velocity": 0.10236220472440945
        },
        {
          "duration": 0.03488372093023262,
          "durationTicks": 3,
          "midi": 45,
          "name": "A2",
          "ticks": 316,
          "time": 3.6744186046511627,
          "velocity": 0.1732283464566929
        },
        {
          "duration": 0.16279069767441845,
          "durationTicks": 14,
          "midi": 45,
          "name": "A2",
          "ticks": 320,
          "time": 3.7209302325581395,
          "velocity": 0.23622047244094488
        },
        {
          "duration": 0.11627906976744162,
          "durationTicks": 10,
          "midi": 69,
          "name": "A4",
          "ticks": 333,
          "time": 3.872093023255814,
          "velocity": 0.14173228346456693
        },
        {
          "duration": 0.04651162790697683,
          "durationTicks": 4,
          "midi": 88,
          "name": "E6",
          "ticks": 334,
          "time": 3.883720930232558,
          "velocity": 0.14960629921259844
        },
        {
          "duration": 0.058139534883721034,
          "durationTicks": 5,
          "midi": 60,
          "name": "C4",
          "ticks": 335,
          "time": 3.895348837209302,
          "velocity": 0.3858267716535433
        },
        {
          "duration": 0.20930232558139572,
          "durationTicks": 18,
          "midi": 65,
          "name": "F4",
          "ticks": 335,
          "time": 3.895348837209302,
          "velocity": 0.31496062992125984
        },
        {
          "duration": 0.03488372093023262,
          "durationTicks": 3,
          "midi": 85,
          "name": "C#6",
          "ticks": 335,
          "time": 3.895348837209302,
          "velocity": 0.09448818897637795
        },
        {
          "duration": 0.1627906976744189,
          "durationTicks": 14,
          "midi": 38,
          "name": "D2",
          "ticks": 341,
          "time": 3.9651162790697674,
          "velocity": 0.14960629921259844
        },
        {
          "duration": 0.023255813953488413,
          "durationTicks": 2,
          "midi": 60,
          "name": "C4",
          "ticks": 341,
          "time": 3.9651162790697674,
          "velocity": 0.31496062992125984
        },
        {
          "duration": 0.11627906976744207,
          "durationTicks": 10,
          "midi": 88,
          "name": "E6",
          "ticks": 341,
          "time": 3.9651162790697674,
          "velocity": 0.07874015748031496
        },
        {
          "duration": 0.08139534883720945,
          "durationTicks": 7,
          "midi": 72,
          "name": "C5",
          "ticks": 343,
          "time": 3.988372093023256,
          "velocity": 0.23622047244094488
        },
        {
          "duration": 0.023255813953488413,
          "durationTicks": 2,
          "midi": 60,
          "name": "C4",
          "ticks": 344,
          "time": 4,
          "velocity": 0.2440944881889764
        },
        {
          "duration": 0.023255813953488413,
          "durationTicks": 2,
          "midi": 62,
          "name": "D4",
          "ticks": 344,
          "time": 4,
          "velocity": 0.2677165354330709
        },
        {
          "duration": 0.04651162790697683,
          "durationTicks": 4,
          "midi": 62,
          "name": "D4",
          "ticks": 347,
          "time": 4.034883720930233,
          "velocity": 0.28346456692913385
        },
        {
          "duration": 0.023255813953488413,
          "durationTicks": 2,
          "midi": 60,
          "name": "C4",
          "ticks": 349,
          "time": 4.058139534883721,
          "velocity": 0.25196850393700787
        },
        {
          "duration": 0.04651162790697683,
          "durationTicks": 4,
          "midi": 72,
          "name": "C5",
          "ticks": 351,
          "time": 4.0813953488372094,
          "velocity": 0.2283464566929134
        },
        {
          "duration": 0.24418604651162745,
          "durationTicks": 21,
          "midi": 59,
          "name": "B3",
          "ticks": 353,
          "time": 4.104651162790698,
          "velocity": 0.3464566929133858
        },
        {
          "duration": 0.20930232558139483,
          "durationTicks": 18,
          "midi": 64,
          "name": "E4",
          "ticks": 354,
          "time": 4.116279069767442,
          "velocity": 0.3543307086614173
        },
        {
          "duration": 0.08139534883720945,
          "durationTicks": 7,
          "midi": 83,
          "name": "B5",
          "ticks": 354,
          "time": 4.116279069767442,
          "velocity": 0.2047244094488189
        },
        {
          "duration": 0.18604651162790642,
          "durationTicks": 16,
          "midi": 67,
          "name": "G4",
          "ticks": 356,
          "time": 4.1395348837209305,
          "velocity": 0.25196850393700787
        },
        {
          "duration": 0.04651162790697683,
          "durationTicks": 4,
          "midi": 55,
          "name": "G3",
          "ticks": 360,
          "time": 4.186046511627907,
          "velocity": 0.09448818897637795
        },
        {
          "duration": 0.08139534883720856,
          "durationTicks": 7,
          "midi": 55,
          "name": "G3",
          "ticks": 365,
          "time": 4.244186046511628,
          "velocity": 0.09448818897637795
        },
        {
          "duration": 0.3023255813953494,
          "durationTicks": 26,
          "midi": 65,
          "name": "F4",
          "ticks": 372,
          "time": 4.325581395348837,
          "velocity": 0.33070866141732286
        },
        {
          "duration": 0.19767441860465151,
          "durationTicks": 17,
          "midi": 72,
          "name": "C5",
          "ticks": 372,
          "time": 4.325581395348837,
          "velocity": 0.33070866141732286
        },
        {
          "duration": 0.23255813953488413,
          "durationTicks": 20,
          "midi": 81,
          "name": "A5",
          "ticks": 373,
          "time": 4.337209302325581,
          "velocity": 0.08661417322834646
        },
        {
          "duration": 0.03488372093023262,
          "durationTicks": 3,
          "midi": 88,
          "name": "E6",
          "ticks": 373,
          "time": 4.337209302325581,
          "velocity": 0.10236220472440945
        },
        {
          "duration": 0.3139534883720936,
          "durationTicks": 27,
          "midi": 60,
          "name": "C4",
          "ticks": 374,
          "time": 4.348837209302325,
          "velocity": 0.3700787401574803
        },
        {
          "duration": 0.24418604651162834,
          "durationTicks": 21,
          "midi": 69,
          "name": "A4",
          "ticks": 374,
          "time": 4.348837209302325,
          "velocity": 0.16535433070866143
        },
        {
          "duration": 0.04651162790697683,
          "durationTicks": 4,
          "midi": 50,
          "name": "D3",
          "ticks": 375,
          "time": 4.3604651162790695,
          "velocity": 0.11811023622047244
        },
        {
          "duration": 0.04651162790697683,
          "durationTicks": 4,
          "midi": 85,
          "name": "C#6",
          "ticks": 376,
          "time": 4.372093023255814,
          "velocity": 0.10236220472440945
        },
        {
          "duration": 0.1860465116279073,
          "durationTicks": 16,
          "midi": 38,
          "name": "D2",
          "ticks": 377,
          "time": 4.383720930232558,
          "velocity": 0.18110236220472442
        },
        {
          "duration": 0.04651162790697683,
          "durationTicks": 4,
          "midi": 88,
          "name": "E6",
          "ticks": 380,
          "time": 4.4186046511627906,
          "velocity": 0.08661417322834646
        },
        {
          "duration": 0.03488372093023262,
          "durationTicks": 3,
          "midi": 45,
          "name": "A2",
          "ticks": 393,
          "time": 4.569767441860465,
          "velocity": 0.18110236220472442
        },
        {
          "duration": 0.06976744186046524,
          "durationTicks": 6,
          "midi": 45,
          "name": "A2",
          "ticks": 398,
          "time": 4.627906976744186,
          "velocity": 0.2283464566929134
        },
        {
          "duration": 0.04651162790697594,
          "durationTicks": 4,
          "midi": 60,
          "name": "C4",
          "ticks": 407,
          "time": 4.732558139534884,
          "velocity": 0.14173228346456693
        },
        {
          "duration": 0.03488372093023173,
          "durationTicks": 3,
          "midi": 45,
          "name": "A2",
          "ticks": 408,
          "time": 4.744186046511628,
          "velocity": 0.2047244094488189
        },
        {
          "duration": 0.5,
          "durationTicks": 43,
          "midi": 74,
          "name": "D5",
          "ticks": 411,
          "time": 4.77906976744186,
          "velocity": 0.29133858267716534
        },
        {
          "duration": 0.1511627906976747,
          "durationTicks": 13,
          "midi": 69,
          "name": "A4",
          "ticks": 412,
          "time": 4.790697674418604,
          "velocity": 0.13385826771653545
        },
        {
          "duration": 0.03488372093023262,
          "durationTicks": 3,
          "midi": 81,
          "name": "A5",
          "ticks": 412,
          "time": 4.790697674418604,
          "velocity": 0.13385826771653545
        },
        {
          "duration": 0.04651162790697683,
          "durationTicks": 4,
          "midi": 85,
          "name": "C#6",
          "ticks": 412,
          "time": 4.790697674418604,
          "velocity": 0.12598425196850394
        },
        {
          "duration": 0.20930232558139572,
          "durationTicks": 18,
          "midi": 62,
          "name": "D4",
          "ticks": 413,
          "time": 4.8023255813953485,
          "velocity": 0.30708661417322836
        },
        {
          "duration": 0.22093023255813993,
          "durationTicks": 19,
          "midi": 65,
          "name": "F4",
          "ticks": 413,
          "time": 4.8023255813953485,
          "velocity": 0.2992125984251969
        },
        {
          "duration": 0.1511627906976747,
          "durationTicks": 13,
          "midi": 72,
          "name": "C5",
          "ticks": 413,
          "time": 4.8023255813953485,
          "velocity": 0.1889763779527559
        },
        {
          "duration": 0.19767441860465151,
          "durationTicks": 17,
          "midi": 53,
          "name": "F3",
          "ticks": 414,
          "time": 4.813953488372093,
          "velocity": 0.25196850393700787
        },
        {
          "duration": 0.1860465116279073,
          "durationTicks": 16,
          "midi": 87,
          "name": "D#6",
          "ticks": 414,
          "time": 4.813953488372093,
          "velocity": 0.08661417322834646
        },
        {
          "duration": 0.13953488372093048,
          "durationTicks": 12,
          "midi": 38,
          "name": "D2",
          "ticks": 418,
          "time": 4.8604651162790695,
          "velocity": 0.14173228346456693
        },
        {
          "duration": 0.25581395348837166,
          "durationTicks": 22,
          "midi": 76,
          "name": "E5",
          "ticks": 431,
          "time": 5.011627906976744,
          "velocity": 0.2047244094488189
        },
        {
          "duration": 0.24418604651162745,
          "durationTicks": 21,
          "midi": 59,
          "name": "B3",
          "ticks": 432,
          "time": 5.023255813953488,
          "velocity": 0.2992125984251969
        },
        {
          "duration": 0.26744186046511587,
          "durationTicks": 23,
          "midi": 64,
          "name": "E4",
          "ticks": 432,
          "time": 5.023255813953488,
          "velocity": 0.3543307086614173
        },
        {
          "duration": 0.23255813953488325,
          "durationTicks": 20,
          "midi": 67,
          "name": "G4",
          "ticks": 434,
          "time": 5.046511627906977,
          "velocity": 0.2283464566929134
        },
        {
          "duration": 0.04651162790697683,
          "durationTicks": 4,
          "midi": 47,
          "name": "B2",
          "ticks": 437,
          "time": 5.0813953488372094,
          "velocity": 0.16535433070866143
        },
        {
          "duration": 0.03488372093023262,
          "durationTicks": 3,
          "midi": 47,
          "name": "B2",
          "ticks": 442,
          "time": 5.1395348837209305,
          "velocity": 0.13385826771653545
        },
        {
          "duration": 0.04651162790697683,
          "durationTicks": 4,
          "midi": 55,
          "name": "G3",
          "ticks": 445,
          "time": 5.174418604651163,
          "velocity": 0.15748031496062992
        },
        {
          "duration": 0.03488372093023262,
          "durationTicks": 3,
          "midi": 47,
          "name": "B2",
          "ticks": 446,
          "time": 5.186046511627907,
          "velocity": 0.14960629921259844
        },
        {
          "duration": 0.03488372093023173,
          "durationTicks": 3,
          "midi": 47,
          "name": "B2",
          "ticks": 450,
          "time": 5.232558139534884,
          "velocity": 0.18110236220472442
        },
        {
          "duration": 0.03488372093023262,
          "durationTicks": 3,
          "midi": 41,
          "name": "F2",
          "ticks": 452,
          "time": 5.255813953488372,
          "velocity": 0.1968503937007874
        },
        {
          "duration": 0.10465116279069786,
          "durationTicks": 9,
          "midi": 72,
          "name": "C5",
          "ticks": 452,
          "time": 5.255813953488372,
          "velocity": 0.1968503937007874
        },
        {
          "duration": 0.03488372093023262,
          "durationTicks": 3,
          "midi": 83,
          "name": "B5",
          "ticks": 453,
          "time": 5.267441860465116,
          "velocity": 0.16535433070866143
        },
        {
          "duration": 0.03488372093023262,
          "durationTicks": 3,
          "midi": 83,
          "name": "B5",
          "ticks": 458,
          "time": 5.325581395348837,
          "velocity": 0.11811023622047244
        },
        {
          "duration": 0.08139534883720945,
          "durationTicks": 7,
          "midi": 41,
          "name": "F2",
          "ticks": 463,
          "time": 5.383720930232558,
          "velocity": 0.11811023622047244
        },
        {
          "duration": 0.03488372093023262,
          "durationTicks": 3,
          "midi": 83,
          "name": "B5",
          "ticks": 463,
          "time": 5.383720930232558,
          "velocity": 0.10236220472440945
        },
        {
          "duration": 0.023255813953488413,
          "durationTicks": 2,
          "midi": 63,
          "name": "D#4",
          "ticks": 470,
          "time": 5.465116279069767,
          "velocity": 0.28346456692913385
        },
        {
          "duration": 0.6860465116279073,
          "durationTicks": 59,
          "midi": 74,
          "name": "D5",
          "ticks": 470,
          "time": 5.465116279069767,
          "velocity": 0.3464566929133858
        },
        {
          "duration": 0.03488372093023262,
          "durationTicks": 3,
          "midi": 76,
          "name": "E5",
          "ticks": 470,
          "time": 5.465116279069767,
          "velocity": 0.14173228346456693
        },
        {
          "duration": 0.03488372093023262,
          "durationTicks": 3,
          "midi": 83,
          "name": "B5",
          "ticks": 471,
          "time": 5.476744186046512,
          "velocity": 0.11023622047244094
        },
        {
          "duration": 0.03488372093023262,
          "durationTicks": 3,
          "midi": 53,
          "name": "F3",
          "ticks": 472,
          "time": 5.488372093023256,
          "velocity": 0.2755905511811024
        },
        {
          "duration": 0.2790697674418601,
          "durationTicks": 24,
          "midi": 62,
          "name": "D4",
          "ticks": 472,
          "time": 5.488372093023256,
          "velocity": 0.30708661417322836
        },
        {
          "duration": 1.0116279069767442,
          "durationTicks": 87,
          "midi": 65,
          "name": "F4",
          "ticks": 472,
          "time": 5.488372093023256,
          "velocity": 0.33858267716535434
        },
        {
          "duration": 0.04651162790697683,
          "durationTicks": 4,
          "midi": 69,
          "name": "A4",
          "ticks": 473,
          "time": 5.5,
          "velocity": 0.2204724409448819
        },
        {
          "duration": 0.43023255813953476,
          "durationTicks": 37,
          "midi": 87,
          "name": "D#6",
          "ticks": 473,
          "time": 5.5,
          "velocity": 0.09448818897637795
        },
        {
          "duration": 0.058139534883721034,
          "durationTicks": 5,
          "midi": 82,
          "name": "A#5",
          "ticks": 474,
          "time": 5.511627906976744,
          "velocity": 0.13385826771653545
        },
        {
          "duration": 0.03488372093023262,
          "durationTicks": 3,
          "midi": 43,
          "name": "G2",
          "ticks": 475,
          "time": 5.523255813953488,
          "velocity": 0.2677165354330709
        },
        {
          "duration": 0.03488372093023262,
          "durationTicks": 3,
          "midi": 58,
          "name": "A#3",
          "ticks": 476,
          "time": 5.534883720930233,
          "velocity": 0.28346456692913385
        },
        {
          "duration": 0.04651162790697683,
          "durationTicks": 4,
          "midi": 83,
          "name": "B5",
          "ticks": 476,
          "time": 5.534883720930233,
          "velocity": 0.14173228346456693
        },
        {
          "duration": 0.08139534883720945,
          "durationTicks": 7,
          "midi": 53,
          "name": "F3",
          "ticks": 477,
          "time": 5.546511627906977,
          "velocity": 0.2755905511811024
        },
        {
          "duration": 0.19767441860465063,
          "durationTicks": 17,
          "midi": 43,
          "name": "G2",
          "ticks": 479,
          "time": 5.569767441860465,
          "velocity": 0.1889763779527559
        },
        {
          "duration": 0.04651162790697683,
          "durationTicks": 4,
          "midi": 91,
          "name": "G6",
          "ticks": 479,
          "time": 5.569767441860465,
          "velocity": 0.07874015748031496
        },
        {
          "duration": 0.04651162790697683,
          "durationTicks": 4,
          "midi": 57,
          "name": "A3",
          "ticks": 481,
          "time": 5.593023255813954,
          "velocity": 0.2677165354330709
        },
        {
          "duration": 0.058139534883721034,
          "durationTicks": 5,
          "midi": 83,
          "name": "B5",
          "ticks": 482,
          "time": 5.604651162790698,
          "velocity": 0.14960629921259844
        },
        {
          "duration": 0.04651162790697683,
          "durationTicks": 4,
          "midi": 82,
          "name": "A#5",
          "ticks": 483,
          "time": 5.616279069767442,
          "velocity": 0.07874015748031496
        },
        {
          "duration": 0.25581395348837166,
          "durationTicks": 22,
          "midi": 85,
          "name": "C#6",
          "ticks": 484,
          "time": 5.627906976744186,
          "velocity": 0.11811023622047244
        },
        {
          "duration": 0.04651162790697683,
          "durationTicks": 4,
          "midi": 83,
          "name": "B5",
          "ticks": 489,
          "time": 5.686046511627907,
          "velocity": 0.13385826771653545
        },
        {
          "duration": 0.04651162790697683,
          "durationTicks": 4,
          "midi": 69,
          "name": "A4",
          "ticks": 496,
          "time": 5.767441860465116,
          "velocity": 0.14960629921259844
        },
        {
          "duration": 0.03488372093023262,
          "durationTicks": 3,
          "midi": 83,
          "name": "B5",
          "ticks": 496,
          "time": 5.767441860465116,
          "velocity": 0.11023622047244094
        },
        {
          "duration": 0.08139534883720945,
          "durationTicks": 7,
          "midi": 43,
          "name": "G2",
          "ticks": 497,
          "time": 5.77906976744186,
          "velocity": 0.11023622047244094
        },
        {
          "duration": 0.04651162790697683,
          "durationTicks": 4,
          "midi": 53,
          "name": "F3",
          "ticks": 498,
          "time": 5.790697674418604,
          "velocity": 0.18110236220472442
        },
        {
          "duration": 0.08139534883720945,
          "durationTicks": 7,
          "midi": 62,
          "name": "D4",
          "ticks": 500,
          "time": 5.813953488372093,
          "velocity": 0.11811023622047244
        },
        {
          "duration": 0.03488372093023262,
          "durationTicks": 3,
          "midi": 70,
          "name": "A#4",
          "ticks": 500,
          "time": 5.813953488372093,
          "velocity": 0.08661417322834646
        },
        {
          "duration": 0.023255813953488413,
          "durationTicks": 2,
          "midi": 58,
          "name": "A#3",
          "ticks": 501,
          "time": 5.825581395348837,
          "velocity": 0.23622047244094488
        },
        {
          "duration": 0.04651162790697683,
          "durationTicks": 4,
          "midi": 58,
          "name": "A#3",
          "ticks": 508,
          "time": 5.906976744186046,
          "velocity": 0.2283464566929134
        },
        {
          "duration": 0.058139534883721034,
          "durationTicks": 5,
          "midi": 62,
          "name": "D4",
          "ticks": 511,
          "time": 5.941860465116279,
          "velocity": 0.09448818897637795
        },
        {
          "duration": 0.04651162790697683,
          "durationTicks": 4,
          "midi": 58,
          "name": "A#3",
          "ticks": 515,
          "time": 5.988372093023256,
          "velocity": 0.2125984251968504
        },
        {
          "duration": 0.04651162790697683,
          "durationTicks": 4,
          "midi": 58,
          "name": "A#3",
          "ticks": 522,
          "time": 6.069767441860465,
          "velocity": 0.1968503937007874
        },
        {
          "duration": 0.04651162790697683,
          "durationTicks": 4,
          "midi": 57,
          "name": "A3",
          "ticks": 528,
          "time": 6.1395348837209305,
          "velocity": 0.16535433070866143
        },
        {
          "duration": 0.04651162790697683,
          "durationTicks": 4,
          "midi": 44,
          "name": "G#2",
          "ticks": 529,
          "time": 6.151162790697675,
          "velocity": 0.3228346456692913
        },
        {
          "duration": 0.1744186046511622,
          "durationTicks": 15,
          "midi": 62,
          "name": "D4",
          "ticks": 529,
          "time": 6.151162790697675,
          "velocity": 0.14173228346456693
        },
        {
          "duration": 0.03488372093023262,
          "durationTicks": 3,
          "midi": 83,
          "name": "B5",
          "ticks": 531,
          "time": 6.174418604651163,
          "velocity": 0.11811023622047244
        },
        {
          "duration": 0.06976744186046435,
          "durationTicks": 6,
          "midi": 75,
          "name": "D#5",
          "ticks": 532,
          "time": 6.186046511627907,
          "velocity": 0.07874015748031496
        },
        {
          "duration": 0.18604651162790642,
          "durationTicks": 16,
          "midi": 43,
          "name": "G2",
          "ticks": 533,
          "time": 6.1976744186046515,
          "velocity": 0.31496062992125984
        },
        {
          "duration": 0.04651162790697594,
          "durationTicks": 4,
          "midi": 58,
          "name": "A#3",
          "ticks": 534,
          "time": 6.209302325581396,
          "velocity": 0.2204724409448819
        },
        {
          "duration": 0.04651162790697594,
          "durationTicks": 4,
          "midi": 83,
          "name": "B5",
          "ticks": 536,
          "time": 6.232558139534884,
          "velocity": 0.14173228346456693
        },
        {
          "duration": 0.04651162790697594,
          "durationTicks": 4,
          "midi": 50,
          "name": "D3",
          "ticks": 537,
          "time": 6.244186046511628,
          "velocity": 0.12598425196850394
        },
        {
          "duration": 0.03488372093023262,
          "durationTicks": 3,
          "midi": 58,
          "name": "A#3",
          "ticks": 541,
          "time": 6.290697674418604,
          "velocity": 0.1968503937007874
        },
        {
          "duration": 0.03488372093023262,
          "durationTicks": 3,
          "midi": 83,
          "name": "B5",
          "ticks": 543,
          "time": 6.313953488372093,
          "velocity": 0.07086614173228346
        },
        {
          "duration": 0.03488372093023262,
          "durationTicks": 3,
          "midi": 58,
          "name": "A#3",
          "ticks": 548,
          "time": 6.372093023255814,
          "velocity": 0.2283464566929134
        },
        {
          "duration": 0.26744186046511675,
          "durationTicks": 23,
          "midi": 81,
          "name": "A5",
          "ticks": 548,
          "time": 6.372093023255814,
          "velocity": 0.3228346456692913
        },
        {
          "duration": 0.023255813953488413,
          "durationTicks": 2,
          "midi": 42,
          "name": "F#2",
          "ticks": 549,
          "time": 6.383720930232558,
          "velocity": 0.23622047244094488
        },
        {
          "duration": 0.3488372093023262,
          "durationTicks": 30,
          "midi": 69,
          "name": "A4",
          "ticks": 549,
          "time": 6.383720930232558,
          "velocity": 0.33070866141732286
        },
        {
          "duration": 0.03488372093023262,
          "durationTicks": 3,
          "midi": 83,
          "name": "B5",
          "ticks": 549,
          "time": 6.383720930232558,
          "velocity": 0.13385826771653545
        },
        {
          "duration": 0.22093023255813993,
          "durationTicks": 19,
          "midi": 43,
          "name": "G2",
          "ticks": 551,
          "time": 6.406976744186046,
          "velocity": 0.25984251968503935
        },
        {
          "duration": 0.04651162790697683,
          "durationTicks": 4,
          "midi": 83,
          "name": "B5",
          "ticks": 554,
          "time": 6.441860465116279,
          "velocity": 0.15748031496062992
        },
        {
          "duration": 0.03488372093023262,
          "durationTicks": 3,
          "midi": 58,
          "name": "A#3",
          "ticks": 555,
          "time": 6.453488372093023,
          "velocity": 0.2283464566929134
        },
        {
          "duration": 0.03488372093023262,
          "durationTicks": 3,
          "midi": 50,
          "name": "D3",
          "ticks": 556,
          "time": 6.465116279069767,
          "velocity": 0.11023622047244094
        },
        {
          "duration": 0.04651162790697683,
          "durationTicks": 4,
          "midi": 83,
          "name": "B5",
          "ticks": 560,
          "time": 6.511627906976744,
          "velocity": 0.14960629921259844
        },
        {
          "duration": 0.03488372093023262,
          "durationTicks": 3,
          "midi": 58,
          "name": "A#3",
          "ticks": 562,
          "time": 6.534883720930233,
          "velocity": 0.2047244094488189
        },
        {
          "duration": 0.09302325581395365,
          "durationTicks": 8,
          "midi": 65,
          "name": "F4",
          "ticks": 563,
          "time": 6.546511627906977,
          "velocity": 0.14173228346456693
        },
        {
          "duration": 0.03488372093023262,
          "durationTicks": 3,
          "midi": 74,
          "name": "D5",
          "ticks": 565,
          "time": 6.569767441860465,
          "velocity": 0.11811023622047244
        },
        {
          "duration": 0.23255813953488325,
          "durationTicks": 20,
          "midi": 72,
          "name": "C5",
          "ticks": 568,
          "time": 6.604651162790698,
          "velocity": 0.4251968503937008
        },
        {
          "duration": 0.12790697674418627,
          "durationTicks": 11,
          "midi": 50,
          "name": "D3",
          "ticks": 569,
          "time": 6.616279069767442,
          "velocity": 0.09448818897637795
        },
        {
          "duration": 0.03488372093023262,
          "durationTicks": 3,
          "midi": 58,
          "name": "A#3",
          "ticks": 569,
          "time": 6.616279069767442,
          "velocity": 0.1968503937007874
        },
        {
          "duration": 0.10465116279069786,
          "durationTicks": 9,
          "midi": 74,
          "name": "D5",
          "ticks": 569,
          "time": 6.616279069767442,
          "velocity": 0.08661417322834646
        },
        {
          "duration": 0.03488372093023262,
          "durationTicks": 3,
          "midi": 91,
          "name": "G6",
          "ticks": 569,
          "time": 6.616279069767442,
          "velocity": 0.08661417322834646
        },
        {
          "duration": 0.03488372093023262,
          "durationTicks": 3,
          "midi": 43,
          "name": "G2",
          "ticks": 571,
          "time": 6.6395348837209305,
          "velocity": 0.12598425196850394
        },
        {
          "duration": 0.04651162790697683,
          "durationTicks": 4,
          "midi": 83,
          "name": "B5",
          "ticks": 573,
          "time": 6.662790697674419,
          "velocity": 0.12598425196850394
        },
        {
          "duration": 0.03488372093023262,
          "durationTicks": 3,
          "midi": 57,
          "name": "A3",
          "ticks": 574,
          "time": 6.674418604651163,
          "velocity": 0.14173228346456693
        },
        {
          "duration": 0.06976744186046435,
          "durationTicks": 6,
          "midi": 43,
          "name": "G2",
          "ticks": 576,
          "time": 6.6976744186046515,
          "velocity": 0.13385826771653545
        },
        {
          "duration": 0.06976744186046435,
          "durationTicks": 6,
          "midi": 65,
          "name": "F4",
          "ticks": 576,
          "time": 6.6976744186046515,
          "velocity": 0.09448818897637795
        },
        {
          "duration": 0.3139534883720936,
          "durationTicks": 27,
          "midi": 69,
          "name": "A4",
          "ticks": 587,
          "time": 6.825581395348837,
          "velocity": 0.3464566929133858
        },
        {
          "duration": 0.23255813953488413,
          "durationTicks": 20,
          "midi": 74,
          "name": "D5",
          "ticks": 587,
          "time": 6.825581395348837,
          "velocity": 0.5196850393700787
        },
        {
          "duration": 0.06976744186046524,
          "durationTicks": 6,
          "midi": 77,
          "name": "F5",
          "ticks": 587,
          "time": 6.825581395348837,
          "velocity": 0.41732283464566927
        },
        {
          "duration": 0.7325581395348841,
          "durationTicks": 63,
          "midi": 81,
          "name": "A5",
          "ticks": 587,
          "time": 6.825581395348837,
          "velocity": 0.3858267716535433
        },
        {
          "duration": 0.04651162790697683,
          "durationTicks": 4,
          "midi": 76,
          "name": "E5",
          "ticks": 593,
          "time": 6.895348837209302,
          "velocity": 0.4330708661417323
        },
        {
          "duration": 0.08139534883720945,
          "durationTicks": 7,
          "midi": 87,
          "name": "D#6",
          "ticks": 596,
          "time": 6.930232558139535,
          "velocity": 0.13385826771653545
        },
        {
          "duration": 0.03488372093023262,
          "durationTicks": 3,
          "midi": 72,
          "name": "C5",
          "ticks": 600,
          "time": 6.976744186046512,
          "velocity": 0.10236220472440945
        },
        {
          "duration": 0.03488372093023262,
          "durationTicks": 3,
          "midi": 58,
          "name": "A#3",
          "ticks": 601,
          "time": 6.988372093023256,
          "velocity": 0.08661417322834646
        },
        {
          "duration": 0.03488372093023262,
          "durationTicks": 3,
          "midi": 44,
          "name": "G#2",
          "ticks": 607,
          "time": 7.058139534883721,
          "velocity": 0.2992125984251969
        },
        {
          "duration": 0.023255813953488413,
          "durationTicks": 2,
          "midi": 73,
          "name": "C#5",
          "ticks": 607,
          "time": 7.058139534883721,
          "velocity": 0.4566929133858268
        },
        {
          "duration": 0.03488372093023262,
          "durationTicks": 3,
          "midi": 58,
          "name": "A#3",
          "ticks": 608,
          "time": 7.069767441860465,
          "velocity": 0.1889763779527559
        },
        {
          "duration": 0.023255813953488413,
          "durationTicks": 2,
          "midi": 74,
          "name": "D5",
          "ticks": 609,
          "time": 7.0813953488372094,
          "velocity": 0.41732283464566927
        },
        {
          "duration": 0.11627906976744207,
          "durationTicks": 10,
          "midi": 83,
          "name": "B5",
          "ticks": 609,
          "time": 7.0813953488372094,
          "velocity": 0.14960629921259844
        },
        {
          "duration": 0.03488372093023262,
          "durationTicks": 3,
          "midi": 91,
          "name": "G6",
          "ticks": 609,
          "time": 7.0813953488372094,
          "velocity": 0.07086614173228346
        },
        {
          "duration": 0.09302325581395365,
          "durationTicks": 8,
          "midi": 43,
          "name": "G2",
          "ticks": 610,
          "time": 7.093023255813954,
          "velocity": 0.3228346456692913
        },
        {
          "duration": 0.11627906976744207,
          "durationTicks": 10,
          "midi": 62,
          "name": "D4",
          "ticks": 611,
          "time": 7.104651162790698,
          "velocity": 0.08661417322834646
        },
        {
          "duration": 0.058139534883721034,
          "durationTicks": 5,
          "midi": 71,
          "name": "B4",
          "ticks": 612,
          "time": 7.116279069767442,
          "velocity": 0.44881889763779526
        },
        {
          "duration": 0.03488372093023262,
          "durationTicks": 3,
          "midi": 58,
          "name": "A#3",
          "ticks": 615,
          "time": 7.151162790697675,
          "velocity": 0.13385826771653545
        },
        {
          "duration": 0.5930232558139537,
          "durationTicks": 51,
          "midi": 74,
          "name": "D5",
          "ticks": 615,
          "time": 7.151162790697675,
          "velocity": 0.5511811023622047
        },
        {
          "duration": 0.04651162790697683,
          "durationTicks": 4,
          "midi": 70,
          "name": "A#4",
          "ticks": 617,
          "time": 7.174418604651163,
          "velocity": 0.4566929133858268
        },
        {
          "duration": 0.03488372093023262,
          "durationTicks": 3,
          "midi": 43,
          "name": "G2",
          "ticks": 619,
          "time": 7.1976744186046515,
          "velocity": 0.11811023622047244
        },
        {
          "duration": 0.11627906976744118,
          "durationTicks": 10,
          "midi": 69,
          "name": "A4",
          "ticks": 621,
          "time": 7.22093023255814,
          "velocity": 0.5275590551181102
        },
        {
          "duration": 0.03488372093023173,
          "durationTicks": 3,
          "midi": 42,
          "name": "F#2",
          "ticks": 622,
          "time": 7.232558139534884,
          "velocity": 0.10236220472440945
        },
        {
          "duration": 0.04651162790697594,
          "durationTicks": 4,
          "midi": 80,
          "name": "G#5",
          "ticks": 623,
          "time": 7.244186046511628,
          "velocity": 0.2047244094488189
        },
        {
          "duration": 0.023255813953488413,
          "durationTicks": 2,
          "midi": 63,
          "name": "D#4",
          "ticks": 626,
          "time": 7.27906976744186,
          "velocity": 0.28346456692913385
        },
        {
          "duration": 0.3720930232558146,
          "durationTicks": 32,
          "midi": 79,
          "name": "G5",
          "ticks": 626,
          "time": 7.27906976744186,
          "velocity": 0.4881889763779528
        },
        {
          "duration": 0.3837209302325588,
          "durationTicks": 33,
          "midi": 58,
          "name": "A#3",
          "ticks": 627,
          "time": 7.290697674418604,
          "velocity": 0.31496062992125984
        },
        {
          "duration": 0.058139534883721034,
          "durationTicks": 5,
          "midi": 77,
          "name": "F5",
          "ticks": 627,
          "time": 7.290697674418604,
          "velocity": 0.13385826771653545
        },
        {
          "duration": 0.29069767441860517,
          "durationTicks": 25,
          "midi": 62,
          "name": "D4",
          "ticks": 628,
          "time": 7.3023255813953485,
          "velocity": 0.3228346456692913
        },
        {
          "duration": 0.08139534883720945,
          "durationTicks": 7,
          "midi": 89,
          "name": "F6",
          "ticks": 628,
          "time": 7.3023255813953485,
          "velocity": 0.14960629921259844
        },
        {
          "duration": 0.04651162790697683,
          "durationTicks": 4,
          "midi": 95,
          "name": "B6",
          "ticks": 628,
          "time": 7.3023255813953485,
          "velocity": 0.07874015748031496
        },
        {
          "duration": 0.058139534883721034,
          "durationTicks": 5,
          "midi": 53,
          "name": "F3",
          "ticks": 629,
          "time": 7.313953488372093,
          "velocity": 0.13385826771653545
        },
        {
          "duration": 0.13953488372093048,
          "durationTicks": 12,
          "midi": 94,
          "name": "A#6",
          "ticks": 629,
          "time": 7.313953488372093,
          "velocity": 0.12598425196850394
        },
        {
          "duration": 0.03488372093023262,
          "durationTicks": 3,
          "midi": 100,
          "name": "E7",
          "ticks": 629,
          "time": 7.313953488372093,
          "velocity": 0.08661417322834646
        },
        {
          "duration": 0.03488372093023262,
          "durationTicks": 3,
          "midi": 67,
          "name": "G4",
          "ticks": 630,
          "time": 7.325581395348837,
          "velocity": 0.4409448818897638
        },
        {
          "duration": 0.03488372093023262,
          "durationTicks": 3,
          "midi": 70,
          "name": "A#4",
          "ticks": 632,
          "time": 7.348837209302325,
          "velocity": 0.5275590551181102
        },
        {
          "duration": 0.03488372093023262,
          "durationTicks": 3,
          "midi": 69,
          "name": "A4",
          "ticks": 633,
          "time": 7.3604651162790695,
          "velocity": 0.5118110236220472
        },
        {
          "duration": 0.03488372093023262,
          "durationTicks": 3,
          "midi": 84,
          "name": "C6",
          "ticks": 633,
          "time": 7.3604651162790695,
          "velocity": 0.09448818897637795
        },
        {
          "duration": 0.06976744186046524,
          "durationTicks": 6,
          "midi": 67,
          "name": "G4",
          "ticks": 634,
          "time": 7.372093023255814,
          "velocity": 0.4251968503937008
        },
        {
          "duration": 0.023255813953488413,
          "durationTicks": 2,
          "midi": 70,
          "name": "A#4",
          "ticks": 636,
          "time": 7.395348837209302,
          "velocity": 0.47244094488188976
        },
        {
          "duration": 0.023255813953488413,
          "durationTicks": 2,
          "midi": 69,
          "name": "A4",
          "ticks": 637,
          "time": 7.406976744186046,
          "velocity": 0.47244094488188976
        },
        {
          "duration": 0.058139534883721034,
          "durationTicks": 5,
          "midi": 92,
          "name": "G#6",
          "ticks": 638,
          "time": 7.4186046511627906,
          "velocity": 0.08661417322834646
        },
        {
          "duration": 0.023255813953488413,
          "durationTicks": 2,
          "midi": 70,
          "name": "A#4",
          "ticks": 639,
          "time": 7.430232558139535,
          "velocity": 0.47244094488188976
        },
        {
          "duration": 0.09302325581395365,
          "durationTicks": 8,
          "midi": 67,
          "name": "G4",
          "ticks": 641,
          "time": 7.453488372093023,
          "velocity": 0.33858267716535434
        },
        {
          "duration": 0.09302325581395365,
          "durationTicks": 8,
          "midi": 46,
          "name": "A#2",
          "ticks": 642,
          "time": 7.465116279069767,
          "velocity": 0.15748031496062992
        },
        {
          "duration": 0.10465116279069786,
          "durationTicks": 9,
          "midi": 70,
          "name": "A#4",
          "ticks": 642,
          "time": 7.465116279069767,
          "velocity": 0.4881889763779528
        },
        {
          "duration": 0.03488372093023262,
          "durationTicks": 3,
          "midi": 53,
          "name": "F3",
          "ticks": 643,
          "time": 7.476744186046512,
          "velocity": 0.07086614173228346
        },
        {
          "duration": 0.023255813953488413,
          "durationTicks": 2,
          "midi": 69,
          "name": "A4",
          "ticks": 643,
          "time": 7.476744186046512,
          "velocity": 0.3543307086614173
        },
        {
          "duration": 0.023255813953488413,
          "durationTicks": 2,
          "midi": 70,
          "name": "A#4",
          "ticks": 652,
          "time": 7.5813953488372094,
          "velocity": 0.31496062992125984
        },
        {
          "duration": 0.40697674418604635,
          "durationTicks": 35,
          "midi": 70,
          "name": "A#4",
          "ticks": 665,
          "time": 7.732558139534884,
          "velocity": 0.48031496062992124
        },
        {
          "duration": 0.3720930232558137,
          "durationTicks": 32,
          "midi": 67,
          "name": "G4",
          "ticks": 666,
          "time": 7.744186046511628,
          "velocity": 0.4251968503937008
        },
        {
          "duration": 0.03488372093023173,
          "durationTicks": 3,
          "midi": 77,
          "name": "F5",
          "ticks": 666,
          "time": 7.744186046511628,
          "velocity": 0.14173228346456693
        },
        {
          "duration": 0.39534883720930214,
          "durationTicks": 34,
          "midi": 79,
          "name": "G5",
          "ticks": 666,
          "time": 7.744186046511628,
          "velocity": 0.48031496062992124
        },
        {
          "duration": 0.058139534883720145,
          "durationTicks": 5,
          "midi": 86,
          "name": "D6",
          "ticks": 666,
          "time": 7.744186046511628,
          "velocity": 0.2047244094488189
        },
        {
          "duration": 0.03488372093023262,
          "durationTicks": 3,
          "midi": 45,
          "name": "A2",
          "ticks": 667,
          "time": 7.755813953488372,
          "velocity": 0.41732283464566927
        },
        {
          "duration": 0.3139534883720936,
          "durationTicks": 27,
          "midi": 62,
          "name": "D4",
          "ticks": 667,
          "time": 7.755813953488372,
          "velocity": 0.3228346456692913
        },
        {
          "duration": 0.44186046511627897,
          "durationTicks": 38,
          "midi": 74,
          "name": "D5",
          "ticks": 667,
          "time": 7.755813953488372,
          "velocity": 0.4015748031496063
        },
        {
          "duration": 0.24418604651162834,
          "durationTicks": 21,
          "midi": 81,
          "name": "A5",
          "ticks": 667,
          "time": 7.755813953488372,
          "velocity": 0.13385826771653545
        },
        {
          "duration": 0.1511627906976747,
          "durationTicks": 13,
          "midi": 89,
          "name": "F6",
          "ticks": 667,
          "time": 7.755813953488372,
          "velocity": 0.1889763779527559
        },
        {
          "duration": 0.06976744186046524,
          "durationTicks": 6,
          "midi": 95,
          "name": "B6",
          "ticks": 667,
          "time": 7.755813953488372,
          "velocity": 0.07874015748031496
        },
        {
          "duration": 0.24418604651162745,
          "durationTicks": 21,
          "midi": 46,
          "name": "A#2",
          "ticks": 670,
          "time": 7.790697674418604,
          "velocity": 0.3779527559055118
        },
        {
          "duration": 0.04651162790697683,
          "durationTicks": 4,
          "midi": 53,
          "name": "F3",
          "ticks": 671,
          "time": 7.8023255813953485,
          "velocity": 0.14960629921259844
        },
        {
          "duration": 0.03488372093023173,
          "durationTicks": 3,
          "midi": 80,
          "name": "G#5",
          "ticks": 704,
          "time": 8.186046511627907,
          "velocity": 0.1889763779527559
        },
        {
          "duration": 0.3023255813953494,
          "durationTicks": 26,
          "midi": 81,
          "name": "A5",
          "ticks": 704,
          "time": 8.186046511627907,
          "velocity": 0.3543307086614173
        },
        {
          "duration": 0.39534883720930303,
          "durationTicks": 34,
          "midi": 61,
          "name": "C#4",
          "ticks": 705,
          "time": 8.19767441860465,
          "velocity": 0.4330708661417323
        },
        {
          "duration": 0.03488372093023351,
          "durationTicks": 3,
          "midi": 65,
          "name": "F4",
          "ticks": 705,
          "time": 8.19767441860465,
          "velocity": 0.3858267716535433
        },
        {
          "duration": 0.38372093023255793,
          "durationTicks": 33,
          "midi": 73,
          "name": "C#5",
          "ticks": 705,
          "time": 8.19767441860465,
          "velocity": 0.5039370078740157
        },
        {
          "duration": 0.27906976744186096,
          "durationTicks": 24,
          "midi": 77,
          "name": "F5",
          "ticks": 705,
          "time": 8.19767441860465,
          "velocity": 0.4251968503937008
        },
        {
          "duration": 0.1627906976744189,
          "durationTicks": 14,
          "midi": 83,
          "name": "B5",
          "ticks": 705,
          "time": 8.19767441860465,
          "velocity": 0.31496062992125984
        },
        {
          "duration": 0.04651162790697683,
          "durationTicks": 4,
          "midi": 88,
          "name": "E6",
          "ticks": 705,
          "time": 8.19767441860465,
          "velocity": 0.16535433070866143
        },
        {
          "duration": 0.04651162790697683,
          "durationTicks": 4,
          "midi": 91,
          "name": "G6",
          "ticks": 705,
          "time": 8.19767441860465,
          "velocity": 0.11023622047244094
        },
        {
          "duration": 0.22093023255813904,
          "durationTicks": 19,
          "midi": 45,
          "name": "A2",
          "ticks": 706,
          "time": 8.209302325581396,
          "velocity": 0.4645669291338583
        },
        {
          "duration": 0.40697674418604635,
          "durationTicks": 35,
          "midi": 69,
          "name": "A4",
          "ticks": 706,
          "time": 8.209302325581396,
          "velocity": 0.3779527559055118
        },
        {
          "duration": 0.20930232558139572,
          "durationTicks": 18,
          "midi": 84,
          "name": "C6",
          "ticks": 706,
          "time": 8.209302325581396,
          "velocity": 0.2047244094488189
        },
        {
          "duration": 0.19767441860465063,
          "durationTicks": 17,
          "midi": 90,
          "name": "F#6",
          "ticks": 706,
          "time": 8.209302325581396,
          "velocity": 0.14960629921259844
        },
        {
          "duration": 0.023255813953488413,
          "durationTicks": 2,
          "midi": 64,
          "name": "E4",
          "ticks": 707,
          "time": 8.220930232558139,
          "velocity": 0.3937007874015748
        },
        {
          "duration": 0.06976744186046524,
          "durationTicks": 6,
          "midi": 71,
          "name": "B4",
          "ticks": 707,
          "time": 8.220930232558139,
          "velocity": 0.2677165354330709
        },
        {
          "duration": 0.10465116279069697,
          "durationTicks": 9,
          "midi": 52,
          "name": "E3",
          "ticks": 708,
          "time": 8.232558139534884,
          "velocity": 0.3228346456692913
        },
        {
          "duration": 0.023255813953488413,
          "durationTicks": 2,
          "midi": 65,
          "name": "F4",
          "ticks": 709,
          "time": 8.244186046511627,
          "velocity": 0.48031496062992124
        },
        {
          "duration": 0.09302325581395365,
          "durationTicks": 8,
          "midi": 79,
          "name": "G5",
          "ticks": 709,
          "time": 8.244186046511627,
          "velocity": 0.11023622047244094
        },
        {
          "duration": 0.05813953488372192,
          "durationTicks": 5,
          "midi": 86,
          "name": "D6",
          "ticks": 709,
          "time": 8.244186046511627,
          "velocity": 0.1968503937007874
        },
        {
          "duration": 0.04651162790697683,
          "durationTicks": 4,
          "midi": 87,
          "name": "D#6",
          "ticks": 710,
          "time": 8.255813953488373,
          "velocity": 0.14173228346456693
        },
        {
          "duration": 0.13953488372093048,
          "durationTicks": 12,
          "midi": 92,
          "name": "G#6",
          "ticks": 710,
          "time": 8.255813953488373,
          "velocity": 0.1968503937007874
        },
        {
          "duration": 0.03488372093023351,
          "durationTicks": 3,
          "midi": 64,
          "name": "E4",
          "ticks": 711,
          "time": 8.267441860465116,
          "velocity": 0.4409448818897638
        },
        {
          "duration": 0.04651162790697683,
          "durationTicks": 4,
          "midi": 80,
          "name": "G#5",
          "ticks": 711,
          "time": 8.267441860465116,
          "velocity": 0.11811023622047244
        },
        {
          "duration": 0.20930232558139572,
          "durationTicks": 18,
          "midi": 88,
          "name": "E6",
          "ticks": 711,
          "time": 8.267441860465116,
          "velocity": 0.2204724409448819
        },
        {
          "duration": 0.023255813953488413,
          "durationTicks": 2,
          "midi": 65,
          "name": "F4",
          "ticks": 714,
          "time": 8.30232558139535,
          "velocity": 0.4251968503937008
        },
        {
          "duration": 0.023255813953488413,
          "durationTicks": 2,
          "midi": 65,
          "name": "F4",
          "ticks": 717,
          "time": 8.337209302325581,
          "velocity": 0.41732283464566927
        },
        {
          "duration": 0.04651162790697683,
          "durationTicks": 4,
          "midi": 87,
          "name": "D#6",
          "ticks": 717,
          "time": 8.337209302325581,
          "velocity": 0.14173228346456693
        },
        {
          "duration": 0.08139534883721034,
          "durationTicks": 7,
          "midi": 91,
          "name": "G6",
          "ticks": 717,
          "time": 8.337209302325581,
          "velocity": 0.07086614173228346
        },
        {
          "duration": 0.023255813953488413,
          "durationTicks": 2,
          "midi": 64,
          "name": "E4",
          "ticks": 719,
          "time": 8.36046511627907,
          "velocity": 0.33858267716535434
        },
        {
          "duration": 0.058139534883720145,
          "durationTicks": 5,
          "midi": 65,
          "name": "F4",
          "ticks": 720,
          "time": 8.372093023255815,
          "velocity": 0.41732283464566927
        },
        {
          "duration": 0.04651162790697683,
          "durationTicks": 4,
          "midi": 83,
          "name": "B5",
          "ticks": 721,
          "time": 8.383720930232558,
          "velocity": 0.13385826771653545
        },
        {
          "duration": 0.04651162790697683,
          "durationTicks": 4,
          "midi": 86,
          "name": "D6",
          "ticks": 721,
          "time": 8.383720930232558,
          "velocity": 0.14173228346456693
        },
        {
          "duration": 0.058139534883720145,
          "durationTicks": 5,
          "midi": 52,
          "name": "E3",
          "ticks": 722,
          "time": 8.395348837209303,
          "velocity": 0.16535433070866143
        },
        {
          "duration": 0.04651162790697683,
          "durationTicks": 4,
          "midi": 79,
          "name": "G5",
          "ticks": 725,
          "time": 8.430232558139535,
          "velocity": 0.09448818897637795
        },
        {
          "duration": 0.12790697674418539,
          "durationTicks": 11,
          "midi": 45,
          "name": "A2",
          "ticks": 726,
          "time": 8.44186046511628,
          "velocity": 0.36220472440944884
        },
        {
          "duration": 0.023255813953488413,
          "durationTicks": 2,
          "midi": 65,
          "name": "F4",
          "ticks": 726,
          "time": 8.44186046511628,
          "velocity": 0.33858267716535434
        },
        {
          "duration": 0.04651162790697505,
          "durationTicks": 4,
          "midi": 77,
          "name": "F5",
          "ticks": 730,
          "time": 8.488372093023257,
          "velocity": 0.08661417322834646
        },
        {
          "duration": 0.03488372093023351,
          "durationTicks": 3,
          "midi": 65,
          "name": "F4",
          "ticks": 734,
          "time": 8.534883720930232,
          "velocity": 0.12598425196850394
        },
        {
          "duration": 0.23255813953488413,
          "durationTicks": 20,
          "midi": 61,
          "name": "C#4",
          "ticks": 743,
          "time": 8.63953488372093,
          "velocity": 0.41732283464566927
        },
        {
          "duration": 0.03488372093023173,
          "durationTicks": 3,
          "midi": 65,
          "name": "F4",
          "ticks": 743,
          "time": 8.63953488372093,
          "velocity": 0.33070866141732286
        },
        {
          "duration": 0.8604651162790695,
          "durationTicks": 74,
          "midi": 69,
          "name": "A4",
          "ticks": 743,
          "time": 8.63953488372093,
          "velocity": 0.4094488188976378
        },
        {
          "duration": 0.23255813953488413,
          "durationTicks": 20,
          "midi": 73,
          "name": "C#5",
          "ticks": 744,
          "time": 8.651162790697674,
          "velocity": 0.49606299212598426
        },
        {
          "duration": 0.1627906976744189,
          "durationTicks": 14,
          "midi": 83,
          "name": "B5",
          "ticks": 744,
          "time": 8.651162790697674,
          "velocity": 0.31496062992125984
        },
        {
          "duration": 0.05813953488372192,
          "durationTicks": 5,
          "midi": 88,
          "name": "E6",
          "ticks": 744,
          "time": 8.651162790697674,
          "velocity": 0.14960629921259844
        },
        {
          "duration": 0.05813953488372192,
          "durationTicks": 5,
          "midi": 91,
          "name": "G6",
          "ticks": 744,
          "time": 8.651162790697674,
          "velocity": 0.10236220472440945
        },
        {
          "duration": 0.08139534883720856,
          "durationTicks": 7,
          "midi": 52,
          "name": "E3",
          "ticks": 745,
          "time": 8.662790697674419,
          "velocity": 0.29133858267716534
        },
        {
          "duration": 0.19767441860465063,
          "durationTicks": 17,
          "midi": 76,
          "name": "E5",
          "ticks": 745,
          "time": 8.662790697674419,
          "velocity": 0.3464566929133858
        },
        {
          "duration": 0.03488372093023173,
          "durationTicks": 3,
          "midi": 86,
          "name": "D6",
          "ticks": 745,
          "time": 8.662790697674419,
          "velocity": 0.18110236220472442
        },
        {
          "duration": 0.10465116279069697,
          "durationTicks": 9,
          "midi": 87,
          "name": "D#6",
          "ticks": 745,
          "time": 8.662790697674419,
          "velocity": 0.13385826771653545
        },
        {
          "duration": 0.12790697674418539,
          "durationTicks": 11,
          "midi": 90,
          "name": "F#6",
          "ticks": 745,
          "time": 8.662790697674419,
          "velocity": 0.11811023622047244
        },
        {
          "duration": 0.13953488372093048,
          "durationTicks": 12,
          "midi": 92,
          "name": "G#6",
          "ticks": 745,
          "time": 8.662790697674419,
          "velocity": 0.14173228346456693
        },
        {
          "duration": 0.1976744186046524,
          "durationTicks": 17,
          "midi": 45,
          "name": "A2",
          "ticks": 746,
          "time": 8.674418604651162,
          "velocity": 0.4645669291338583
        },
        {
          "duration": 0.20930232558139572,
          "durationTicks": 18,
          "midi": 64,
          "name": "E4",
          "ticks": 746,
          "time": 8.674418604651162,
          "velocity": 0.4094488188976378
        },
        {
          "duration": 0.05813953488372192,
          "durationTicks": 5,
          "midi": 71,
          "name": "B4",
          "ticks": 746,
          "time": 8.674418604651162,
          "velocity": 0.2755905511811024
        },
        {
          "duration": 0.11627906976744207,
          "durationTicks": 10,
          "midi": 89,
          "name": "F6",
          "ticks": 746,
          "time": 8.674418604651162,
          "velocity": 0.11811023622047244
        },
        {
          "duration": 0.08139534883721034,
          "durationTicks": 7,
          "midi": 79,
          "name": "G5",
          "ticks": 748,
          "time": 8.69767441860465,
          "velocity": 0.10236220472440945
        },
        {
          "duration": 0.10465116279069875,
          "durationTicks": 9,
          "midi": 71,
          "name": "B4",
          "ticks": 752,
          "time": 8.744186046511627,
          "velocity": 0.2440944881889764
        },
        {
          "duration": 0.04651162790697683,
          "durationTicks": 4,
          "midi": 52,
          "name": "E3",
          "ticks": 753,
          "time": 8.755813953488373,
          "velocity": 0.2677165354330709
        },
        {
          "duration": 0.04651162790697683,
          "durationTicks": 4,
          "midi": 86,
          "name": "D6",
          "ticks": 755,
          "time": 8.779069767441861,
          "velocity": 0.07874015748031496
        },
        {
          "duration": 0.023255813953488413,
          "durationTicks": 2,
          "midi": 44,
          "name": "G#2",
          "ticks": 763,
          "time": 8.872093023255815,
          "velocity": 0.28346456692913385
        },
        {
          "duration": 0.12790697674418539,
          "durationTicks": 11,
          "midi": 62,
          "name": "D4",
          "ticks": 763,
          "time": 8.872093023255815,
          "velocity": 0.2992125984251969
        },
        {
          "duration": 1.2790697674418592,
          "durationTicks": 110,
          "midi": 74,
          "name": "D5",
          "ticks": 763,
          "time": 8.872093023255815,
          "velocity": 0.5118110236220472
        },
        {
          "duration": 0.2906976744186043,
          "durationTicks": 25,
          "midi": 65,
          "name": "F4",
          "ticks": 764,
          "time": 8.883720930232558,
          "velocity": 0.3779527559055118
        },
        {
          "duration": 0.26744186046511587,
          "durationTicks": 23,
          "midi": 77,
          "name": "F5",
          "ticks": 764,
          "time": 8.883720930232558,
          "velocity": 0.4094488188976378
        },
        {
          "duration": 0.04651162790697683,
          "durationTicks": 4,
          "midi": 80,
          "name": "G#5",
          "ticks": 764,
          "time": 8.883720930232558,
          "velocity": 0.18110236220472442
        },
        {
          "duration": 0.25581395348837255,
          "durationTicks": 22,
          "midi": 84,
          "name": "C6",
          "ticks": 764,
          "time": 8.883720930232558,
          "velocity": 0.2283464566929134
        },
        {
          "duration": 0.04651162790697683,
          "durationTicks": 4,
          "midi": 72,
          "name": "C5",
          "ticks": 765,
          "time": 8.895348837209303,
          "velocity": 0.2047244094488189
        },
        {
          "duration": 0.03488372093023173,
          "durationTicks": 3,
          "midi": 97,
          "name": "C#7",
          "ticks": 765,
          "time": 8.895348837209303,
          "velocity": 0.08661417322834646
        },
        {
          "duration": 0.03488372093023351,
          "durationTicks": 3,
          "midi": 100,
          "name": "E7",
          "ticks": 766,
          "time": 8.906976744186046,
          "velocity": 0.09448818897637795
        },
        {
          "duration": 0.23255813953488413,
          "durationTicks": 20,
          "midi": 88,
          "name": "E6",
          "ticks": 768,
          "time": 8.930232558139535,
          "velocity": 0.1732283464566929
        },
        {
          "duration": 0.04651162790697683,
          "durationTicks": 4,
          "midi": 38,
          "name": "D2",
          "ticks": 769,
          "time": 8.94186046511628,
          "velocity": 0.3228346456692913
        },
        {
          "duration": 0.06976744186046346,
          "durationTicks": 6,
          "midi": 57,
          "name": "A3",
          "ticks": 771,
          "time": 8.965116279069768,
          "velocity": 0.1968503937007874
        },
        {
          "duration": 0.058139534883720145,
          "durationTicks": 5,
          "midi": 85,
          "name": "C#6",
          "ticks": 772,
          "time": 8.976744186046512,
          "velocity": 0.11023622047244094
        },
        {
          "duration": 0.11627906976744207,
          "durationTicks": 10,
          "midi": 95,
          "name": "B6",
          "ticks": 772,
          "time": 8.976744186046512,
          "velocity": 0.11023622047244094
        },
        {
          "duration": 0.12790697674418539,
          "durationTicks": 11,
          "midi": 72,
          "name": "C5",
          "ticks": 774,
          "time": 9,
          "velocity": 0.15748031496062992
        },
        {
          "duration": 0.10465116279069875,
          "durationTicks": 9,
          "midi": 62,
          "name": "D4",
          "ticks": 775,
          "time": 9.011627906976743,
          "velocity": 0.25196850393700787
        },
        {
          "duration": 0.023255813953488413,
          "durationTicks": 2,
          "midi": 38,
          "name": "D2",
          "ticks": 778,
          "time": 9.046511627906977,
          "velocity": 0.30708661417322836
        },
        {
          "duration": 0.13953488372093048,
          "durationTicks": 12,
          "midi": 50,
          "name": "D3",
          "ticks": 780,
          "time": 9.069767441860465,
          "velocity": 0.29133858267716534
        },
        {
          "duration": 0.04651162790697683,
          "durationTicks": 4,
          "midi": 85,
          "name": "C#6",
          "ticks": 780,
          "time": 9.069767441860465,
          "velocity": 0.10236220472440945
        },
        {
          "duration": 0.023255813953488413,
          "durationTicks": 2,
          "midi": 38,
          "name": "D2",
          "ticks": 783,
          "time": 9.104651162790697,
          "velocity": 0.25984251968503935
        },
        {
          "duration": 0.023255813953488413,
          "durationTicks": 2,
          "midi": 39,
          "name": "D#2",
          "ticks": 785,
          "time": 9.127906976744185,
          "velocity": 0.28346456692913385
        },
        {
          "duration": 0.03488372093023351,
          "durationTicks": 3,
          "midi": 60,
          "name": "C4",
          "ticks": 785,
          "time": 9.127906976744185,
          "velocity": 0.11811023622047244
        },
        {
          "duration": 0.04651162790697683,
          "durationTicks": 4,
          "midi": 38,
          "name": "D2",
          "ticks": 787,
          "time": 9.151162790697674,
          "velocity": 0.29133858267716534
        },
        {
          "duration": 0.1627906976744189,
          "durationTicks": 14,
          "midi": 72,
          "name": "C5",
          "ticks": 788,
          "time": 9.162790697674419,
          "velocity": 0.1889763779527559
        },
        {
          "duration": 0.058139534883720145,
          "durationTicks": 5,
          "midi": 91,
          "name": "G6",
          "ticks": 788,
          "time": 9.162790697674419,
          "velocity": 0.11023622047244094
        },
        {
          "duration": 0.04651162790697683,
          "durationTicks": 4,
          "midi": 60,
          "name": "C4",
          "ticks": 789,
          "time": 9.174418604651162,
          "velocity": 0.13385826771653545
        },
        {
          "duration": 0.03488372093023173,
          "durationTicks": 3,
          "midi": 38,
          "name": "D2",
          "ticks": 792,
          "time": 9.209302325581396,
          "velocity": 0.2992125984251969
        },
        {
          "duration": 0.09302325581395365,
          "durationTicks": 8,
          "midi": 60,
          "name": "C4",
          "ticks": 794,
          "time": 9.232558139534884,
          "velocity": 0.11023622047244094
        },
        {
          "duration": 0.023255813953488413,
          "durationTicks": 2,
          "midi": 50,
          "name": "D3",
          "ticks": 795,
          "time": 9.244186046511627,
          "velocity": 0.25196850393700787
        },
        {
          "duration": 0.023255813953488413,
          "durationTicks": 2,
          "midi": 38,
          "name": "D2",
          "ticks": 796,
          "time": 9.255813953488373,
          "velocity": 0.23622047244094488
        },
        {
          "duration": 0.03488372093023173,
          "durationTicks": 3,
          "midi": 45,
          "name": "A2",
          "ticks": 802,
          "time": 9.325581395348838,
          "velocity": 0.28346456692913385
        },
        {
          "duration": 0.023255813953488413,
          "durationTicks": 2,
          "midi": 61,
          "name": "C#4",
          "ticks": 802,
          "time": 9.325581395348838,
          "velocity": 0.28346456692913385
        },
        {
          "duration": 0.12790697674418716,
          "durationTicks": 11,
          "midi": 77,
          "name": "F5",
          "ticks": 803,
          "time": 9.337209302325581,
          "velocity": 0.4094488188976378
        },
        {
          "duration": 0.04651162790697683,
          "durationTicks": 4,
          "midi": 80,
          "name": "G#5",
          "ticks": 803,
          "time": 9.337209302325581,
          "velocity": 0.14173228346456693
        },
        {
          "duration": 0.24418604651162745,
          "durationTicks": 21,
          "midi": 84,
          "name": "C6",
          "ticks": 803,
          "time": 9.337209302325581,
          "velocity": 0.2204724409448819
        },
        {
          "duration": 0.05813953488372192,
          "durationTicks": 5,
          "midi": 85,
          "name": "C#6",
          "ticks": 803,
          "time": 9.337209302325581,
          "velocity": 0.15748031496062992
        },
        {
          "duration": 0.1860465116279073,
          "durationTicks": 16,
          "midi": 93,
          "name": "A6",
          "ticks": 803,
          "time": 9.337209302325581,
          "velocity": 0.23622047244094488
        },
        {
          "duration": 0.22093023255813904,
          "durationTicks": 19,
          "midi": 60,
          "name": "C4",
          "ticks": 804,
          "time": 9.348837209302326,
          "velocity": 0.4094488188976378
        },
        {
          "duration": 0.1511627906976738,
          "durationTicks": 13,
          "midi": 65,
          "name": "F4",
          "ticks": 804,
          "time": 9.348837209302326,
          "velocity": 0.3779527559055118
        },
        {
          "duration": 0.058139534883720145,
          "durationTicks": 5,
          "midi": 88,
          "name": "E6",
          "ticks": 804,
          "time": 9.348837209302326,
          "velocity": 0.18110236220472442
        },
        {
          "duration": 0.06976744186046524,
          "durationTicks": 6,
          "midi": 91,
          "name": "G6",
          "ticks": 804,
          "time": 9.348837209302326,
          "velocity": 0.08661417322834646
        },
        {
          "duration": 0.04651162790697683,
          "durationTicks": 4,
          "midi": 50,
          "name": "D3",
          "ticks": 807,
          "time": 9.383720930232558,
          "velocity": 0.2440944881889764
        },
        {
          "duration": 0.18604651162790553,
          "durationTicks": 16,
          "midi": 38,
          "name": "D2",
          "ticks": 808,
          "time": 9.395348837209303,
          "velocity": 0.25196850393700787
        },
        {
          "duration": 0.11627906976744207,
          "durationTicks": 10,
          "midi": 88,
          "name": "E6",
          "ticks": 811,
          "time": 9.430232558139535,
          "velocity": 0.2204724409448819
        },
        {
          "duration": 0.22093023255813904,
          "durationTicks": 19,
          "midi": 72,
          "name": "C5",
          "ticks": 812,
          "time": 9.44186046511628,
          "velocity": 0.5039370078740157
        },
        {
          "duration": 0.06976744186046346,
          "durationTicks": 6,
          "midi": 95,
          "name": "B6",
          "ticks": 812,
          "time": 9.44186046511628,
          "velocity": 0.11811023622047244
        },
        {
          "duration": 0.25581395348837255,
          "durationTicks": 22,
          "midi": 79,
          "name": "G5",
          "ticks": 813,
          "time": 9.453488372093023,
          "velocity": 0.2283464566929134
        },
        {
          "duration": 0.20930232558139394,
          "durationTicks": 18,
          "midi": 76,
          "name": "E5",
          "ticks": 814,
          "time": 9.465116279069768,
          "velocity": 0.4645669291338583
        },
        {
          "duration": 0.24418604651162745,
          "durationTicks": 21,
          "midi": 67,
          "name": "G4",
          "ticks": 815,
          "time": 9.476744186046512,
          "velocity": 0.4251968503937008
        },
        {
          "duration": 0.03488372093023351,
          "durationTicks": 3,
          "midi": 85,
          "name": "C#6",
          "ticks": 820,
          "time": 9.534883720930232,
          "velocity": 0.07086614173228346
        },
        {
          "duration": 0.03488372093023351,
          "durationTicks": 3,
          "midi": 81,
          "name": "A5",
          "ticks": 822,
          "time": 9.55813953488372,
          "velocity": 0.12598425196850394
        },
        {
          "duration": 0.27906976744186096,
          "durationTicks": 24,
          "midi": 83,
          "name": "B5",
          "ticks": 823,
          "time": 9.569767441860465,
          "velocity": 0.25196850393700787
        },
        {
          "duration": 0.03488372093023173,
          "durationTicks": 3,
          "midi": 48,
          "name": "C3",
          "ticks": 825,
          "time": 9.593023255813954,
          "velocity": 0.2283464566929134
        },
        {
          "duration": 0.023255813953488413,
          "durationTicks": 2,
          "midi": 59,
          "name": "B3",
          "ticks": 825,
          "time": 9.593023255813954,
          "velocity": 0.3937007874015748
        },
        {
          "duration": 0.1860465116279073,
          "durationTicks": 16,
          "midi": 64,
          "name": "E4",
          "ticks": 825,
          "time": 9.593023255813954,
          "velocity": 0.3464566929133858
        },
        {
          "duration": 0.06976744186046524,
          "durationTicks": 6,
          "midi": 82,
          "name": "A#5",
          "ticks": 826,
          "time": 9.604651162790697,
          "velocity": 0.12598425196850394
        },
        {
          "duration": 0.1627906976744189,
          "durationTicks": 14,
          "midi": 89,
          "name": "F6",
          "ticks": 828,
          "time": 9.627906976744185,
          "velocity": 0.2283464566929134
        },
        {
          "duration": 0.13953488372093048,
          "durationTicks": 12,
          "midi": 59,
          "name": "B3",
          "ticks": 830,
          "time": 9.651162790697674,
          "velocity": 0.2992125984251969
        },
        {
          "duration": 0.03488372093023173,
          "durationTicks": 3,
          "midi": 55,
          "name": "G3",
          "ticks": 831,
          "time": 9.662790697674419,
          "velocity": 0.16535433070866143
        },
        {
          "duration": 0.15116279069767558,
          "durationTicks": 13,
          "midi": 69,
          "name": "A4",
          "ticks": 832,
          "time": 9.674418604651162,
          "velocity": 0.3937007874015748
        },
        {
          "duration": 0.15116279069767558,
          "durationTicks": 13,
          "midi": 77,
          "name": "F5",
          "ticks": 832,
          "time": 9.674418604651162,
          "velocity": 0.47244094488188976
        },
        {
          "duration": 0.06976744186046524,
          "durationTicks": 6,
          "midi": 55,
          "name": "G3",
          "ticks": 835,
          "time": 9.709302325581396,
          "velocity": 0.11023622047244094
        },
        {
          "duration": 0.09302325581395365,
          "durationTicks": 8,
          "midi": 48,
          "name": "C3",
          "ticks": 836,
          "time": 9.720930232558139,
          "velocity": 0.2283464566929134
        },
        {
          "duration": 0.3488372093023244,
          "durationTicks": 30,
          "midi": 60,
          "name": "C4",
          "ticks": 841,
          "time": 9.779069767441861,
          "velocity": 0.3779527559055118
        },
        {
          "duration": 0.03488372093023351,
          "durationTicks": 3,
          "midi": 65,
          "name": "F4",
          "ticks": 842,
          "time": 9.790697674418604,
          "velocity": 0.3464566929133858
        },
        {
          "duration": 0.23255813953488413,
          "durationTicks": 20,
          "midi": 72,
          "name": "C5",
          "ticks": 842,
          "time": 9.790697674418604,
          "velocity": 0.4409448818897638
        },
        {
          "duration": 0.05813953488372192,
          "durationTicks": 5,
          "midi": 85,
          "name": "C#6",
          "ticks": 842,
          "time": 9.790697674418604,
          "velocity": 0.16535433070866143
        },
        {
          "duration": 0.1860465116279073,
          "durationTicks": 16,
          "midi": 91,
          "name": "G6",
          "ticks": 842,
          "time": 9.790697674418604,
          "velocity": 0.1889763779527559
        },
        {
          "duration": 0.25581395348837077,
          "durationTicks": 22,
          "midi": 79,
          "name": "G5",
          "ticks": 843,
          "time": 9.80232558139535,
          "velocity": 0.23622047244094488
        },
        {
          "duration": 0.26744186046511587,
          "durationTicks": 23,
          "midi": 76,
          "name": "E5",
          "ticks": 844,
          "time": 9.813953488372093,
          "velocity": 0.48031496062992124
        },
        {
          "duration": 0.23255813953488236,
          "durationTicks": 20,
          "midi": 67,
          "name": "G4",
          "ticks": 845,
          "time": 9.825581395348838,
          "velocity": 0.4251968503937008
        },
        {
          "duration": 0.09302325581395365,
          "durationTicks": 8,
          "midi": 89,
          "name": "F6",
          "ticks": 845,
          "time": 9.825581395348838,
          "velocity": 0.11023622047244094
        },
        {
          "duration": 0.19767441860465063,
          "durationTicks": 17,
          "midi": 38,
          "name": "D2",
          "ticks": 846,
          "time": 9.837209302325581,
          "velocity": 0.2283464566929134
        },
        {
          "duration": 0.04651162790697683,
          "durationTicks": 4,
          "midi": 85,
          "name": "C#6",
          "ticks": 850,
          "time": 9.883720930232558,
          "velocity": 0.08661417322834646
        },
        {
          "duration": 0.06976744186046524,
          "durationTicks": 6,
          "midi": 65,
          "name": "F4",
          "ticks": 862,
          "time": 10.023255813953488,
          "velocity": 0.23622047244094488
        },
        {
          "duration": 0.03488372093023351,
          "durationTicks": 3,
          "midi": 45,
          "name": "A2",
          "ticks": 863,
          "time": 10.034883720930232,
          "velocity": 0.2283464566929134
        },
        {
          "duration": 0.023255813953488413,
          "durationTicks": 2,
          "midi": 44,
          "name": "G#2",
          "ticks": 866,
          "time": 10.069767441860465,
          "velocity": 0.25196850393700787
        },
        {
          "duration": 0.04651162790697683,
          "durationTicks": 4,
          "midi": 67,
          "name": "G4",
          "ticks": 867,
          "time": 10.081395348837209,
          "velocity": 0.1732283464566929
        },
        {
          "duration": 0.06976744186046524,
          "durationTicks": 6,
          "midi": 45,
          "name": "A2",
          "ticks": 868,
          "time": 10.093023255813954,
          "velocity": 0.28346456692913385
        },
        {
          "duration": 1.2674418604651176,
          "durationTicks": 109,
          "midi": 77,
          "name": "F5",
          "ticks": 871,
          "time": 10.127906976744185,
          "velocity": 0.47244094488188976
        },
        {
          "duration": 0.023255813953488413,
          "durationTicks": 2,
          "midi": 45,
          "name": "A2",
          "ticks": 875,
          "time": 10.174418604651162,
          "velocity": 0.25984251968503935
        },
        {
          "duration": 0.058139534883720145,
          "durationTicks": 5,
          "midi": 60,
          "name": "C4",
          "ticks": 876,
          "time": 10.186046511627907,
          "velocity": 0.1889763779527559
        },
        {
          "duration": 0.03488372093023173,
          "durationTicks": 3,
          "midi": 45,
          "name": "A2",
          "ticks": 878,
          "time": 10.209302325581396,
          "velocity": 0.2440944881889764
        },
        {
          "duration": 0.12790697674418716,
          "durationTicks": 11,
          "midi": 81,
          "name": "A5",
          "ticks": 881,
          "time": 10.244186046511627,
          "velocity": 0.30708661417322836
        },
        {
          "duration": 0.6511627906976756,
          "durationTicks": 56,
          "midi": 84,
          "name": "C6",
          "ticks": 881,
          "time": 10.244186046511627,
          "velocity": 0.4330708661417323
        },
        {
          "duration": 0.3255813953488378,
          "durationTicks": 28,
          "midi": 93,
          "name": "A6",
          "ticks": 881,
          "time": 10.244186046511627,
          "velocity": 0.30708661417322836
        },
        {
          "duration": 0.22093023255813904,
          "durationTicks": 19,
          "midi": 53,
          "name": "F3",
          "ticks": 882,
          "time": 10.255813953488373,
          "velocity": 0.31496062992125984
        },
        {
          "duration": 0.24418604651162745,
          "durationTicks": 21,
          "midi": 65,
          "name": "F4",
          "ticks": 882,
          "time": 10.255813953488373,
          "velocity": 0.4094488188976378
        },
        {
          "duration": 0.058139534883720145,
          "durationTicks": 5,
          "midi": 69,
          "name": "A4",
          "ticks": 882,
          "time": 10.255813953488373,
          "velocity": 0.10236220472440945
        },
        {
          "duration": 0.023255813953488413,
          "durationTicks": 2,
          "midi": 72,
          "name": "C5",
          "ticks": 882,
          "time": 10.255813953488373,
          "velocity": 0.23622047244094488
        },
        {
          "duration": 1.2325581395348841,
          "durationTicks": 106,
          "midi": 74,
          "name": "D5",
          "ticks": 882,
          "time": 10.255813953488373,
          "velocity": 0.5118110236220472
        },
        {
          "duration": 0.058139534883720145,
          "durationTicks": 5,
          "midi": 80,
          "name": "G#5",
          "ticks": 882,
          "time": 10.255813953488373,
          "velocity": 0.12598425196850394
        },
        {
          "duration": 0.10465116279069697,
          "durationTicks": 9,
          "midi": 87,
          "name": "D#6",
          "ticks": 882,
          "time": 10.255813953488373,
          "velocity": 0.14960629921259844
        },
        {
          "duration": 0.06976744186046524,
          "durationTicks": 6,
          "midi": 91,
          "name": "G6",
          "ticks": 882,
          "time": 10.255813953488373,
          "velocity": 0.10236220472440945
        },
        {
          "duration": 0.03488372093023173,
          "durationTicks": 3,
          "midi": 98,
          "name": "D7",
          "ticks": 882,
          "time": 10.255813953488373,
          "velocity": 0.09448818897637795
        },
        {
          "duration": 0.20930232558139572,
          "durationTicks": 18,
          "midi": 62,
          "name": "D4",
          "ticks": 883,
          "time": 10.267441860465116,
          "velocity": 0.3543307086614173
        },
        {
          "duration": 0.023255813953488413,
          "durationTicks": 2,
          "midi": 44,
          "name": "G#2",
          "ticks": 884,
          "time": 10.279069767441861,
          "velocity": 0.2283464566929134
        },
        {
          "duration": 0.09302325581395365,
          "durationTicks": 8,
          "midi": 72,
          "name": "C5",
          "ticks": 886,
          "time": 10.30232558139535,
          "velocity": 0.2677165354330709
        },
        {
          "duration": 0.10465116279069875,
          "durationTicks": 9,
          "midi": 95,
          "name": "B6",
          "ticks": 887,
          "time": 10.313953488372093,
          "velocity": 0.07874015748031496
        },
        {
          "duration": 0.03488372093023351,
          "durationTicks": 3,
          "midi": 69,
          "name": "A4",
          "ticks": 891,
          "time": 10.36046511627907,
          "velocity": 0.09448818897637795
        },
        {
          "duration": 0.06976744186046524,
          "durationTicks": 6,
          "midi": 98,
          "name": "D7",
          "ticks": 891,
          "time": 10.36046511627907,
          "velocity": 0.10236220472440945
        },
        {
          "duration": 0.09302325581395365,
          "durationTicks": 8,
          "midi": 38,
          "name": "D2",
          "ticks": 892,
          "time": 10.372093023255815,
          "velocity": 0.1732283464566929
        },
        {
          "duration": 0.06976744186046524,
          "durationTicks": 6,
          "midi": 100,
          "name": "E7",
          "ticks": 892,
          "time": 10.372093023255815,
          "velocity": 0.07874015748031496
        },
        {
          "duration": 0.03488372093023351,
          "durationTicks": 3,
          "midi": 57,
          "name": "A3",
          "ticks": 893,
          "time": 10.383720930232558,
          "velocity": 0.12598425196850394
        },
        {
          "duration": 0.20930232558139572,
          "durationTicks": 18,
          "midi": 81,
          "name": "A5",
          "ticks": 893,
          "time": 10.383720930232558,
          "velocity": 0.28346456692913385
        },
        {
          "duration": 0.09302325581395365,
          "durationTicks": 8,
          "midi": 87,
          "name": "D#6",
          "ticks": 893,
          "time": 10.383720930232558,
          "velocity": 0.11023622047244094
        },
        {
          "duration": 0.04651162790697683,
          "durationTicks": 4,
          "midi": 72,
          "name": "C5",
          "ticks": 897,
          "time": 10.430232558139535,
          "velocity": 0.14960629921259844
        },
        {
          "duration": 0.23255813953488413,
          "durationTicks": 20,
          "midi": 71,
          "name": "B4",
          "ticks": 901,
          "time": 10.476744186046512,
          "velocity": 0.2677165354330709
        },
        {
          "duration": 0.08139534883720856,
          "durationTicks": 7,
          "midi": 59,
          "name": "B3",
          "ticks": 902,
          "time": 10.488372093023257,
          "velocity": 0.33070866141732286
        },
        {
          "duration": 0.04651162790697505,
          "durationTicks": 4,
          "midi": 87,
          "name": "D#6",
          "ticks": 902,
          "time": 10.488372093023257,
          "velocity": 0.15748031496062992
        },
        {
          "duration": 0.20930232558139572,
          "durationTicks": 18,
          "midi": 64,
          "name": "E4",
          "ticks": 903,
          "time": 10.5,
          "velocity": 0.3543307086614173
        },
        {
          "duration": 0.20930232558139572,
          "durationTicks": 18,
          "midi": 67,
          "name": "G4",
          "ticks": 903,
          "time": 10.5,
          "velocity": 0.2992125984251969
        },
        {
          "duration": 0.03488372093023173,
          "durationTicks": 3,
          "midi": 47,
          "name": "B2",
          "ticks": 909,
          "time": 10.569767441860465,
          "velocity": 0.18110236220472442
        },
        {
          "duration": 0.10465116279069875,
          "durationTicks": 9,
          "midi": 59,
          "name": "B3",
          "ticks": 910,
          "time": 10.581395348837209,
          "velocity": 0.2283464566929134
        },
        {
          "duration": 0.03488372093023173,
          "durationTicks": 3,
          "midi": 40,
          "name": "E2",
          "ticks": 911,
          "time": 10.593023255813954,
          "velocity": 0.1968503937007874
        },
        {
          "duration": 0.3023255813953494,
          "durationTicks": 26,
          "midi": 93,
          "name": "A6",
          "ticks": 911,
          "time": 10.593023255813954,
          "velocity": 0.2992125984251969
        },
        {
          "duration": 0.10465116279069875,
          "durationTicks": 9,
          "midi": 81,
          "name": "A5",
          "ticks": 912,
          "time": 10.604651162790697,
          "velocity": 0.2992125984251969
        },
        {
          "duration": 0.03488372093023351,
          "durationTicks": 3,
          "midi": 47,
          "name": "B2",
          "ticks": 918,
          "time": 10.674418604651162,
          "velocity": 0.1968503937007874
        },
        {
          "duration": 0.04651162790697683,
          "durationTicks": 4,
          "midi": 55,
          "name": "G3",
          "ticks": 918,
          "time": 10.674418604651162,
          "velocity": 0.1968503937007874
        },
        {
          "duration": 0.22093023255813904,
          "durationTicks": 19,
          "midi": 62,
          "name": "D4",
          "ticks": 921,
          "time": 10.709302325581396,
          "velocity": 0.30708661417322836
        },
        {
          "duration": 0.22093023255813904,
          "durationTicks": 19,
          "midi": 65,
          "name": "F4",
          "ticks": 921,
          "time": 10.709302325581396,
          "velocity": 0.3858267716535433
        },
        {
          "duration": 0.03488372093023173,
          "durationTicks": 3,
          "midi": 88,
          "name": "E6",
          "ticks": 921,
          "time": 10.709302325581396,
          "velocity": 0.08661417322834646
        },
        {
          "duration": 0.06976744186046524,
          "durationTicks": 6,
          "midi": 91,
          "name": "G6",
          "ticks": 921,
          "time": 10.709302325581396,
          "velocity": 0.09448818897637795
        },
        {
          "duration": 0.03488372093023351,
          "durationTicks": 3,
          "midi": 41,
          "name": "F2",
          "ticks": 922,
          "time": 10.720930232558139,
          "velocity": 0.2047244094488189
        },
        {
          "duration": 0.03488372093023351,
          "durationTicks": 3,
          "midi": 71,
          "name": "B4",
          "ticks": 922,
          "time": 10.720930232558139,
          "velocity": 0.10236220472440945
        },
        {
          "duration": 1.2325581395348841,
          "durationTicks": 106,
          "midi": 81,
          "name": "A5",
          "ticks": 922,
          "time": 10.720930232558139,
          "velocity": 0.33070866141732286
        },
        {
          "duration": 0.03488372093023351,
          "durationTicks": 3,
          "midi": 47,
          "name": "B2",
          "ticks": 924,
          "time": 10.744186046511627,
          "velocity": 0.15748031496062992
        },
        {
          "duration": 0.3604651162790695,
          "durationTicks": 31,
          "midi": 69,
          "name": "A4",
          "ticks": 924,
          "time": 10.744186046511627,
          "velocity": 0.2283464566929134
        },
        {
          "duration": 0.04651162790697683,
          "durationTicks": 4,
          "midi": 83,
          "name": "B5",
          "ticks": 924,
          "time": 10.744186046511627,
          "velocity": 0.11023622047244094
        },
        {
          "duration": 0.1627906976744189,
          "durationTicks": 14,
          "midi": 57,
          "name": "A3",
          "ticks": 927,
          "time": 10.779069767441861,
          "velocity": 0.2204724409448819
        },
        {
          "duration": 0.1744186046511622,
          "durationTicks": 15,
          "midi": 72,
          "name": "C5",
          "ticks": 940,
          "time": 10.930232558139535,
          "velocity": 0.33858267716535434
        },
        {
          "duration": 0.1627906976744189,
          "durationTicks": 14,
          "midi": 85,
          "name": "C#6",
          "ticks": 940,
          "time": 10.930232558139535,
          "velocity": 0.13385826771653545
        },
        {
          "duration": 0.04651162790697683,
          "durationTicks": 4,
          "midi": 45,
          "name": "A2",
          "ticks": 941,
          "time": 10.94186046511628,
          "velocity": 0.25984251968503935
        },
        {
          "duration": 0.22093023255813904,
          "durationTicks": 19,
          "midi": 60,
          "name": "C4",
          "ticks": 941,
          "time": 10.94186046511628,
          "velocity": 0.4094488188976378
        },
        {
          "duration": 0.20930232558139394,
          "durationTicks": 18,
          "midi": 88,
          "name": "E6",
          "ticks": 941,
          "time": 10.94186046511628,
          "velocity": 0.15748031496062992
        },
        {
          "duration": 0.19767441860465063,
          "durationTicks": 17,
          "midi": 65,
          "name": "F4",
          "ticks": 942,
          "time": 10.953488372093023,
          "velocity": 0.3464566929133858
        },
        {
          "duration": 0.023255813953488413,
          "durationTicks": 2,
          "midi": 45,
          "name": "A2",
          "ticks": 946,
          "time": 11,
          "velocity": 0.2755905511811024
        },
        {
          "duration": 0.05813953488372192,
          "durationTicks": 5,
          "midi": 91,
          "name": "G6",
          "ticks": 947,
          "time": 11.011627906976743,
          "velocity": 0.10236220472440945
        },
        {
          "duration": 0.03488372093023351,
          "durationTicks": 3,
          "midi": 45,
          "name": "A2",
          "ticks": 949,
          "time": 11.034883720930232,
          "velocity": 0.28346456692913385
        },
        {
          "duration": 0.08139534883721034,
          "durationTicks": 7,
          "midi": 45,
          "name": "A2",
          "ticks": 953,
          "time": 11.081395348837209,
          "velocity": 0.25984251968503935
        },
        {
          "duration": 0.023255813953488413,
          "durationTicks": 2,
          "midi": 64,
          "name": "E4",
          "ticks": 959,
          "time": 11.151162790697674,
          "velocity": 0.2440944881889764
        },
        {
          "duration": 0.023255813953488413,
          "durationTicks": 2,
          "midi": 66,
          "name": "F#4",
          "ticks": 959,
          "time": 11.151162790697674,
          "velocity": 0.23622047244094488
        },
        {
          "duration": 0.25581395348837255,
          "durationTicks": 22,
          "midi": 69,
          "name": "A4",
          "ticks": 959,
          "time": 11.151162790697674,
          "velocity": 0.4645669291338583
        },
        {
          "duration": 0.20930232558139572,
          "durationTicks": 18,
          "midi": 60,
          "name": "C4",
          "ticks": 961,
          "time": 11.174418604651162,
          "velocity": 0.4015748031496063
        },
        {
          "duration": 0.23255813953488413,
          "durationTicks": 20,
          "midi": 65,
          "name": "F4",
          "ticks": 961,
          "time": 11.174418604651162,
          "velocity": 0.3779527559055118
        },
        {
          "duration": 0.12790697674418716,
          "durationTicks": 11,
          "midi": 85,
          "name": "C#6",
          "ticks": 961,
          "time": 11.174418604651162,
          "velocity": 0.14173228346456693
        },
        {
          "duration": 0.03488372093023173,
          "durationTicks": 3,
          "midi": 79,
          "name": "G5",
          "ticks": 962,
          "time": 11.186046511627907,
          "velocity": 0.07874015748031496
        },
        {
          "duration": 0.04651162790697683,
          "durationTicks": 4,
          "midi": 50,
          "name": "D3",
          "ticks": 963,
          "time": 11.19767441860465,
          "velocity": 0.1968503937007874
        },
        {
          "duration": 0.04651162790697683,
          "durationTicks": 4,
          "midi": 38,
          "name": "D2",
          "ticks": 967,
          "time": 11.244186046511627,
          "velocity": 0.1968503937007874
        },
        {
          "duration": 0.10465116279069875,
          "durationTicks": 9,
          "midi": 88,
          "name": "E6",
          "ticks": 967,
          "time": 11.244186046511627,
          "velocity": 0.14960629921259844
        },
        {
          "duration": 0.06976744186046524,
          "durationTicks": 6,
          "midi": 95,
          "name": "B6",
          "ticks": 969,
          "time": 11.267441860465116,
          "velocity": 0.07874015748031496
        },
        {
          "duration": 0.03488372093023173,
          "durationTicks": 3,
          "midi": 98,
          "name": "D7",
          "ticks": 970,
          "time": 11.279069767441861,
          "velocity": 0.10236220472440945
        },
        {
          "duration": 0.06976744186046524,
          "durationTicks": 6,
          "midi": 38,
          "name": "D2",
          "ticks": 972,
          "time": 11.30232558139535,
          "velocity": 0.16535433070866143
        },
        {
          "duration": 0.04651162790697683,
          "durationTicks": 4,
          "midi": 85,
          "name": "C#6",
          "ticks": 976,
          "time": 11.348837209302326,
          "velocity": 0.09448818897637795
        },
        {
          "duration": 0.1395348837209287,
          "durationTicks": 12,
          "midi": 72,
          "name": "C5",
          "ticks": 978,
          "time": 11.372093023255815,
          "velocity": 0.49606299212598426
        },
        {
          "duration": 0.16279069767441712,
          "durationTicks": 14,
          "midi": 88,
          "name": "E6",
          "ticks": 978,
          "time": 11.372093023255815,
          "velocity": 0.1732283464566929
        },
        {
          "duration": 0.023255813953488413,
          "durationTicks": 2,
          "midi": 59,
          "name": "B3",
          "ticks": 979,
          "time": 11.383720930232558,
          "velocity": 0.23622047244094488
        },
        {
          "duration": 0.12790697674418539,
          "durationTicks": 11,
          "midi": 76,
          "name": "E5",
          "ticks": 979,
          "time": 11.383720930232558,
          "velocity": 0.41732283464566927
        },
        {
          "duration": 0.05813953488372192,
          "durationTicks": 5,
          "midi": 83,
          "name": "B5",
          "ticks": 979,
          "time": 11.383720930232558,
          "velocity": 0.2440944881889764
        },
        {
          "duration": 0.03488372093023173,
          "durationTicks": 3,
          "midi": 47,
          "name": "B2",
          "ticks": 980,
          "time": 11.395348837209303,
          "velocity": 0.31496062992125984
        },
        {
          "duration": 0.19767441860465063,
          "durationTicks": 17,
          "midi": 67,
          "name": "G4",
          "ticks": 980,
          "time": 11.395348837209303,
          "velocity": 0.48031496062992124
        },
        {
          "duration": 0.03488372093023351,
          "durationTicks": 3,
          "midi": 92,
          "name": "G#6",
          "ticks": 981,
          "time": 11.406976744186046,
          "velocity": 0.10236220472440945
        },
        {
          "duration": 0.04651162790697683,
          "durationTicks": 4,
          "midi": 59,
          "name": "B3",
          "ticks": 982,
          "time": 11.418604651162791,
          "velocity": 0.36220472440944884
        },
        {
          "duration": 0.1860465116279073,
          "durationTicks": 16,
          "midi": 64,
          "name": "E4",
          "ticks": 983,
          "time": 11.430232558139535,
          "velocity": 0.3228346456692913
        },
        {
          "duration": 0.03488372093023173,
          "durationTicks": 3,
          "midi": 85,
          "name": "C#6",
          "ticks": 984,
          "time": 11.44186046511628,
          "velocity": 0.11023622047244094
        },
        {
          "duration": 0.16279069767441712,
          "durationTicks": 14,
          "midi": 89,
          "name": "F6",
          "ticks": 984,
          "time": 11.44186046511628,
          "velocity": 0.2283464566929134
        },
        {
          "duration": 0.03488372093023173,
          "durationTicks": 3,
          "midi": 48,
          "name": "C3",
          "ticks": 986,
          "time": 11.465116279069768,
          "velocity": 0.28346456692913385
        },
        {
          "duration": 0.09302325581395188,
          "durationTicks": 8,
          "midi": 55,
          "name": "G3",
          "ticks": 986,
          "time": 11.465116279069768,
          "velocity": 0.2283464566929134
        },
        {
          "duration": 0.04651162790697505,
          "durationTicks": 4,
          "midi": 82,
          "name": "A#5",
          "ticks": 986,
          "time": 11.465116279069768,
          "velocity": 0.11023622047244094
        },
        {
          "duration": 0.2790697674418592,
          "durationTicks": 24,
          "midi": 83,
          "name": "B5",
          "ticks": 986,
          "time": 11.465116279069768,
          "velocity": 0.25196850393700787
        },
        {
          "duration": 0.03488372093023173,
          "durationTicks": 3,
          "midi": 59,
          "name": "B3",
          "ticks": 988,
          "time": 11.488372093023257,
          "velocity": 0.30708661417322836
        },
        {
          "duration": 0.22093023255813904,
          "durationTicks": 19,
          "midi": 74,
          "name": "D5",
          "ticks": 989,
          "time": 11.5,
          "velocity": 0.5039370078740157
        },
        {
          "duration": 0.13953488372093048,
          "durationTicks": 12,
          "midi": 77,
          "name": "F5",
          "ticks": 989,
          "time": 11.5,
          "velocity": 0.4645669291338583
        },
        {
          "duration": 0.11627906976744207,
          "durationTicks": 10,
          "midi": 69,
          "name": "A4",
          "ticks": 991,
          "time": 11.523255813953488,
          "velocity": 0.41732283464566927
        },
        {
          "duration": 0.03488372093023351,
          "durationTicks": 3,
          "midi": 48,
          "name": "C3",
          "ticks": 992,
          "time": 11.534883720930232,
          "velocity": 0.2125984251968504
        },
        {
          "duration": 0.04651162790697683,
          "durationTicks": 4,
          "midi": 71,
          "name": "B4",
          "ticks": 992,
          "time": 11.534883720930232,
          "velocity": 0.23622047244094488
        },
        {
          "duration": 0.04651162790697683,
          "durationTicks": 4,
          "midi": 59,
          "name": "B3",
          "ticks": 994,
          "time": 11.55813953488372,
          "velocity": 0.29133858267716534
        },
        {
          "duration": 0.03488372093023173,
          "durationTicks": 3,
          "midi": 48,
          "name": "C3",
          "ticks": 997,
          "time": 11.593023255813954,
          "velocity": 0.2204724409448819
        },
        {
          "duration": 0.23255813953488413,
          "durationTicks": 20,
          "midi": 60,
          "name": "C4",
          "ticks": 998,
          "time": 11.604651162790697,
          "velocity": 0.4251968503937008
        },
        {
          "duration": 0.22093023255814082,
          "durationTicks": 19,
          "midi": 72,
          "name": "C5",
          "ticks": 998,
          "time": 11.604651162790697,
          "velocity": 0.5196850393700787
        },
        {
          "duration": 0.08139534883721034,
          "durationTicks": 7,
          "midi": 88,
          "name": "E6",
          "ticks": 998,
          "time": 11.604651162790697,
          "velocity": 0.28346456692913385
        },
        {
          "duration": 0.12790697674418716,
          "durationTicks": 11,
          "midi": 91,
          "name": "G6",
          "ticks": 998,
          "time": 11.604651162790697,
          "velocity": 0.1889763779527559
        },
        {
          "duration": 0.04651162790697683,
          "durationTicks": 4,
          "midi": 65,
          "name": "F4",
          "ticks": 999,
          "time": 11.616279069767442,
          "velocity": 0.36220472440944884
        },
        {
          "duration": 0.1860465116279073,
          "durationTicks": 16,
          "midi": 79,
          "name": "G5",
          "ticks": 999,
          "time": 11.616279069767442,
          "velocity": 0.2204724409448819
        },
        {
          "duration": 0.11627906976744207,
          "durationTicks": 10,
          "midi": 67,
          "name": "G4",
          "ticks": 1000,
          "time": 11.627906976744185,
          "velocity": 0.41732283464566927
        },
        {
          "duration": 0.11627906976744207,
          "durationTicks": 10,
          "midi": 76,
          "name": "E5",
          "ticks": 1000,
          "time": 11.627906976744185,
          "velocity": 0.47244094488188976
        },
        {
          "duration": 0.3604651162790695,
          "durationTicks": 31,
          "midi": 89,
          "name": "F6",
          "ticks": 1001,
          "time": 11.63953488372093,
          "velocity": 0.2125984251968504
        },
        {
          "duration": 0.3139534883720927,
          "durationTicks": 27,
          "midi": 65,
          "name": "F4",
          "ticks": 1006,
          "time": 11.69767441860465,
          "velocity": 0.3858267716535433
        },
        {
          "duration": 0.24418604651162745,
          "durationTicks": 21,
          "midi": 69,
          "name": "A4",
          "ticks": 1009,
          "time": 11.732558139534884,
          "velocity": 0.41732283464566927
        },
        {
          "duration": 2.6860465116279073,
          "durationTicks": 231,
          "midi": 74,
          "name": "D5",
          "ticks": 1009,
          "time": 11.732558139534884,
          "velocity": 0.5275590551181102
        },
        {
          "duration": 0.3139534883720927,
          "durationTicks": 27,
          "midi": 77,
          "name": "F5",
          "ticks": 1009,
          "time": 11.732558139534884,
          "velocity": 0.48031496062992124
        },
        {
          "duration": 0.023255813953488413,
          "durationTicks": 2,
          "midi": 57,
          "name": "A3",
          "ticks": 1018,
          "time": 11.837209302325581,
          "velocity": 0.2440944881889764
        },
        {
          "duration": 0.12790697674418539,
          "durationTicks": 11,
          "midi": 53,
          "name": "F3",
          "ticks": 1019,
          "time": 11.848837209302326,
          "velocity": 0.33070866141732286
        },
        {
          "duration": 0.023255813953488413,
          "durationTicks": 2,
          "midi": 62,
          "name": "D4",
          "ticks": 1019,
          "time": 11.848837209302326,
          "velocity": 0.3543307086614173
        },
        {
          "duration": 0.03488372093023173,
          "durationTicks": 3,
          "midi": 72,
          "name": "C5",
          "ticks": 1019,
          "time": 11.848837209302326,
          "velocity": 0.2440944881889764
        },
        {
          "duration": 0.4534883720930232,
          "durationTicks": 39,
          "midi": 87,
          "name": "D#6",
          "ticks": 1019,
          "time": 11.848837209302326,
          "velocity": 0.15748031496062992
        },
        {
          "duration": 0.19767441860465063,
          "durationTicks": 17,
          "midi": 91,
          "name": "G6",
          "ticks": 1019,
          "time": 11.848837209302326,
          "velocity": 0.2204724409448819
        },
        {
          "duration": 0.04651162790697683,
          "durationTicks": 4,
          "midi": 85,
          "name": "C#6",
          "ticks": 1020,
          "time": 11.86046511627907,
          "velocity": 0.15748031496062992
        },
        {
          "duration": 0.04651162790697683,
          "durationTicks": 4,
          "midi": 88,
          "name": "E6",
          "ticks": 1020,
          "time": 11.86046511627907,
          "velocity": 0.07874015748031496
        },
        {
          "duration": 0.13953488372093048,
          "durationTicks": 12,
          "midi": 62,
          "name": "D4",
          "ticks": 1022,
          "time": 11.883720930232558,
          "velocity": 0.3464566929133858
        },
        {
          "duration": 0.03488372093023173,
          "durationTicks": 3,
          "midi": 57,
          "name": "A3",
          "ticks": 1023,
          "time": 11.895348837209303,
          "velocity": 0.1968503937007874
        },
        {
          "duration": 0.10465116279069697,
          "durationTicks": 9,
          "midi": 95,
          "name": "B6",
          "ticks": 1025,
          "time": 11.918604651162791,
          "velocity": 0.07874015748031496
        },
        {
          "duration": 0.3023255813953476,
          "durationTicks": 26,
          "midi": 79,
          "name": "G5",
          "ticks": 1027,
          "time": 11.94186046511628,
          "velocity": 0.48031496062992124
        },
        {
          "duration": 0.023255813953488413,
          "durationTicks": 2,
          "midi": 38,
          "name": "D2",
          "ticks": 1028,
          "time": 11.953488372093023,
          "velocity": 0.31496062992125984
        },
        {
          "duration": 0.3604651162790695,
          "durationTicks": 31,
          "midi": 72,
          "name": "C5",
          "ticks": 1028,
          "time": 11.953488372093023,
          "velocity": 0.4881889763779528
        },
        {
          "duration": 0.1395348837209287,
          "durationTicks": 12,
          "midi": 67,
          "name": "G4",
          "ticks": 1029,
          "time": 11.965116279069768,
          "velocity": 0.4251968503937008
        },
        {
          "duration": 0.023255813953488413,
          "durationTicks": 2,
          "midi": 53,
          "name": "F3",
          "ticks": 1034,
          "time": 12.023255813953488,
          "velocity": 0.23622047244094488
        },
        {
          "duration": 0.058139534883720145,
          "durationTicks": 5,
          "midi": 65,
          "name": "F4",
          "ticks": 1034,
          "time": 12.023255813953488,
          "velocity": 0.36220472440944884
        },
        {
          "duration": 0.023255813953488413,
          "durationTicks": 2,
          "midi": 38,
          "name": "D2",
          "ticks": 1035,
          "time": 12.034883720930232,
          "velocity": 0.29133858267716534
        },
        {
          "duration": 0.06976744186046524,
          "durationTicks": 6,
          "midi": 62,
          "name": "D4",
          "ticks": 1035,
          "time": 12.034883720930232,
          "velocity": 0.2677165354330709
        },
        {
          "duration": 0.27906976744186096,
          "durationTicks": 24,
          "midi": 81,
          "name": "A5",
          "ticks": 1035,
          "time": 12.034883720930232,
          "velocity": 0.3543307086614173
        },
        {
          "duration": 0.05813953488372192,
          "durationTicks": 5,
          "midi": 85,
          "name": "C#6",
          "ticks": 1035,
          "time": 12.034883720930232,
          "velocity": 0.12598425196850394
        },
        {
          "duration": 0.23255813953488413,
          "durationTicks": 20,
          "midi": 69,
          "name": "A4",
          "ticks": 1039,
          "time": 12.081395348837209,
          "velocity": 0.3937007874015748
        },
        {
          "duration": 0.20930232558139572,
          "durationTicks": 18,
          "midi": 65,
          "name": "F4",
          "ticks": 1040,
          "time": 12.093023255813954,
          "velocity": 0.4094488188976378
        },
        {
          "duration": 0.058139534883720145,
          "durationTicks": 5,
          "midi": 53,
          "name": "F3",
          "ticks": 1042,
          "time": 12.116279069767442,
          "velocity": 0.1889763779527559
        },
        {
          "duration": 0.13953488372093048,
          "durationTicks": 12,
          "midi": 62,
          "name": "D4",
          "ticks": 1046,
          "time": 12.162790697674419,
          "velocity": 0.36220472440944884
        },
        {
          "duration": 0.11627906976744207,
          "durationTicks": 10,
          "midi": 53,
          "name": "F3",
          "ticks": 1049,
          "time": 12.19767441860465,
          "velocity": 0.2992125984251969
        },
        {
          "duration": 0.03488372093023173,
          "durationTicks": 3,
          "midi": 40,
          "name": "E2",
          "ticks": 1058,
          "time": 12.30232558139535,
          "velocity": 0.2755905511811024
        },
        {
          "duration": 0.22093023255813904,
          "durationTicks": 19,
          "midi": 64,
          "name": "E4",
          "ticks": 1058,
          "time": 12.30232558139535,
          "velocity": 0.4094488188976378
        },
        {
          "duration": 0.03488372093023173,
          "durationTicks": 3,
          "midi": 80,
          "name": "G#5",
          "ticks": 1058,
          "time": 12.30232558139535,
          "velocity": 0.11023622047244094
        },
        {
          "duration": 0.04651162790697683,
          "durationTicks": 4,
          "midi": 83,
          "name": "B5",
          "ticks": 1058,
          "time": 12.30232558139535,
          "velocity": 0.28346456692913385
        },
        {
          "duration": 0.19767441860465063,
          "durationTicks": 17,
          "midi": 59,
          "name": "B3",
          "ticks": 1059,
          "time": 12.313953488372093,
          "velocity": 0.3464566929133858
        },
        {
          "duration": 0.023255813953488413,
          "durationTicks": 2,
          "midi": 67,
          "name": "G4",
          "ticks": 1059,
          "time": 12.313953488372093,
          "velocity": 0.29133858267716534
        },
        {
          "duration": 0.22093023255813904,
          "durationTicks": 19,
          "midi": 76,
          "name": "E5",
          "ticks": 1059,
          "time": 12.313953488372093,
          "velocity": 0.44881889763779526
        },
        {
          "duration": 0.08139534883721034,
          "durationTicks": 7,
          "midi": 82,
          "name": "A#5",
          "ticks": 1059,
          "time": 12.313953488372093,
          "velocity": 0.16535433070866143
        },
        {
          "duration": 0.023255813953488413,
          "durationTicks": 2,
          "midi": 53,
          "name": "F3",
          "ticks": 1061,
          "time": 12.337209302325581,
          "velocity": 0.2283464566929134
        },
        {
          "duration": 0.11627906976744207,
          "durationTicks": 10,
          "midi": 87,
          "name": "D#6",
          "ticks": 1061,
          "time": 12.337209302325581,
          "velocity": 0.14960629921259844
        },
        {
          "duration": 0.08139534883720856,
          "durationTicks": 7,
          "midi": 40,
          "name": "E2",
          "ticks": 1062,
          "time": 12.348837209302326,
          "velocity": 0.2755905511811024
        },
        {
          "duration": 0.1744186046511622,
          "durationTicks": 15,
          "midi": 67,
          "name": "G4",
          "ticks": 1062,
          "time": 12.348837209302326,
          "velocity": 0.31496062992125984
        },
        {
          "duration": 0.04651162790697683,
          "durationTicks": 4,
          "midi": 55,
          "name": "G3",
          "ticks": 1065,
          "time": 12.383720930232558,
          "velocity": 0.2283464566929134
        },
        {
          "duration": 0.06976744186046524,
          "durationTicks": 6,
          "midi": 78,
          "name": "F#5",
          "ticks": 1067,
          "time": 12.406976744186046,
          "velocity": 0.07086614173228346
        },
        {
          "duration": 0.08139534883720856,
          "durationTicks": 7,
          "midi": 40,
          "name": "E2",
          "ticks": 1070,
          "time": 12.44186046511628,
          "velocity": 0.28346456692913385
        },
        {
          "duration": 0.04651162790697683,
          "durationTicks": 4,
          "midi": 82,
          "name": "A#5",
          "ticks": 1073,
          "time": 12.476744186046512,
          "velocity": 0.13385826771653545
        },
        {
          "duration": 0.04651162790697505,
          "durationTicks": 4,
          "midi": 87,
          "name": "D#6",
          "ticks": 1074,
          "time": 12.488372093023257,
          "velocity": 0.11811023622047244
        },
        {
          "duration": 0.13953488372093048,
          "durationTicks": 12,
          "midi": 89,
          "name": "F6",
          "ticks": 1076,
          "time": 12.511627906976743,
          "velocity": 0.5039370078740157
        },
        {
          "duration": 0.24418604651162745,
          "durationTicks": 21,
          "midi": 65,
          "name": "F4",
          "ticks": 1077,
          "time": 12.523255813953488,
          "velocity": 0.3700787401574803
        },
        {
          "duration": 0.09302325581395365,
          "durationTicks": 8,
          "midi": 81,
          "name": "A5",
          "ticks": 1077,
          "time": 12.523255813953488,
          "velocity": 0.13385826771653545
        },
        {
          "duration": 0.03488372093023351,
          "durationTicks": 3,
          "midi": 40,
          "name": "E2",
          "ticks": 1078,
          "time": 12.534883720930232,
          "velocity": 0.29133858267716534
        },
        {
          "duration": 0.20930232558139572,
          "durationTicks": 18,
          "midi": 62,
          "name": "D4",
          "ticks": 1078,
          "time": 12.534883720930232,
          "velocity": 0.33070866141732286
        },
        {
          "duration": 0.22093023255814082,
          "durationTicks": 19,
          "midi": 77,
          "name": "F5",
          "ticks": 1078,
          "time": 12.534883720930232,
          "velocity": 0.4015748031496063
        },
        {
          "duration": 0.22093023255814082,
          "durationTicks": 19,
          "midi": 84,
          "name": "C6",
          "ticks": 1078,
          "time": 12.534883720930232,
          "velocity": 0.1889763779527559
        },
        {
          "duration": 0.12790697674418716,
          "durationTicks": 11,
          "midi": 85,
          "name": "C#6",
          "ticks": 1078,
          "time": 12.534883720930232,
          "velocity": 0.13385826771653545
        },
        {
          "duration": 0.1860465116279073,
          "durationTicks": 16,
          "midi": 69,
          "name": "A4",
          "ticks": 1081,
          "time": 12.569767441860465,
          "velocity": 0.1889763779527559
        },
        {
          "duration": 0.04651162790697683,
          "durationTicks": 4,
          "midi": 40,
          "name": "E2",
          "ticks": 1082,
          "time": 12.581395348837209,
          "velocity": 0.2204724409448819
        },
        {
          "duration": 0.174418604651164,
          "durationTicks": 15,
          "midi": 57,
          "name": "A3",
          "ticks": 1082,
          "time": 12.581395348837209,
          "velocity": 0.25984251968503935
        },
        {
          "duration": 0.08139534883721034,
          "durationTicks": 7,
          "midi": 72,
          "name": "C5",
          "ticks": 1082,
          "time": 12.581395348837209,
          "velocity": 0.18110236220472442
        },
        {
          "duration": 0.4767441860465116,
          "durationTicks": 41,
          "midi": 79,
          "name": "G5",
          "ticks": 1086,
          "time": 12.627906976744185,
          "velocity": 0.44881889763779526
        },
        {
          "duration": 0.03488372093023351,
          "durationTicks": 3,
          "midi": 76,
          "name": "E5",
          "ticks": 1092,
          "time": 12.69767441860465,
          "velocity": 0.09448818897637795
        },
        {
          "duration": 0.023255813953488413,
          "durationTicks": 2,
          "midi": 61,
          "name": "C#4",
          "ticks": 1096,
          "time": 12.744186046511627,
          "velocity": 0.28346456692913385
        },
        {
          "duration": 1.0348837209302335,
          "durationTicks": 89,
          "midi": 81,
          "name": "A5",
          "ticks": 1096,
          "time": 12.744186046511627,
          "velocity": 0.28346456692913385
        },
        {
          "duration": 0.6976744186046524,
          "durationTicks": 60,
          "midi": 93,
          "name": "A6",
          "ticks": 1096,
          "time": 12.744186046511627,
          "velocity": 0.48031496062992124
        },
        {
          "duration": 0.23255813953488413,
          "durationTicks": 20,
          "midi": 67,
          "name": "G4",
          "ticks": 1097,
          "time": 12.755813953488373,
          "velocity": 0.4251968503937008
        },
        {
          "duration": 0.20930232558139572,
          "durationTicks": 18,
          "midi": 70,
          "name": "A#4",
          "ticks": 1097,
          "time": 12.755813953488373,
          "velocity": 0.2283464566929134
        },
        {
          "duration": 0.25581395348837077,
          "durationTicks": 22,
          "midi": 83,
          "name": "B5",
          "ticks": 1097,
          "time": 12.755813953488373,
          "velocity": 0.16535433070866143
        },
        {
          "duration": 0.06976744186046524,
          "durationTicks": 6,
          "midi": 92,
          "name": "G#6",
          "ticks": 1097,
          "time": 12.755813953488373,
          "velocity": 0.08661417322834646
        },
        {
          "duration": 0.20930232558139572,
          "durationTicks": 18,
          "midi": 62,
          "name": "D4",
          "ticks": 1098,
          "time": 12.767441860465116,
          "velocity": 0.3228346456692913
        },
        {
          "duration": 0.40697674418604635,
          "durationTicks": 35,
          "midi": 43,
          "name": "G2",
          "ticks": 1101,
          "time": 12.80232558139535,
          "velocity": 0.31496062992125984
        },
        {
          "duration": 0.1744186046511622,
          "durationTicks": 15,
          "midi": 85,
          "name": "C#6",
          "ticks": 1101,
          "time": 12.80232558139535,
          "velocity": 0.14173228346456693
        },
        {
          "duration": 0.08139534883721034,
          "durationTicks": 7,
          "midi": 58,
          "name": "A#3",
          "ticks": 1102,
          "time": 12.813953488372093,
          "velocity": 0.2755905511811024
        },
        {
          "duration": 0.11627906976744207,
          "durationTicks": 10,
          "midi": 50,
          "name": "D3",
          "ticks": 1104,
          "time": 12.837209302325581,
          "velocity": 0.16535433070866143
        },
        {
          "duration": 0.06976744186046524,
          "durationTicks": 6,
          "midi": 58,
          "name": "A#3",
          "ticks": 1110,
          "time": 12.906976744186046,
          "velocity": 0.28346456692913385
        },
        {
          "duration": 0.12790697674418539,
          "durationTicks": 11,
          "midi": 77,
          "name": "F5",
          "ticks": 1116,
          "time": 12.976744186046512,
          "velocity": 0.41732283464566927
        },
        {
          "duration": 0.22093023255813904,
          "durationTicks": 19,
          "midi": 84,
          "name": "C6",
          "ticks": 1116,
          "time": 12.976744186046512,
          "velocity": 0.2283464566929134
        },
        {
          "duration": 0.1395348837209287,
          "durationTicks": 12,
          "midi": 60,
          "name": "C4",
          "ticks": 1117,
          "time": 12.988372093023257,
          "velocity": 0.41732283464566927
        },
        {
          "duration": 0.1395348837209287,
          "durationTicks": 12,
          "midi": 65,
          "name": "F4",
          "ticks": 1117,
          "time": 12.988372093023257,
          "velocity": 0.3700787401574803
        },
        {
          "duration": 0.1511627906976738,
          "durationTicks": 13,
          "midi": 69,
          "name": "A4",
          "ticks": 1117,
          "time": 12.988372093023257,
          "velocity": 0.4251968503937008
        },
        {
          "duration": 0.19767441860465063,
          "durationTicks": 17,
          "midi": 88,
          "name": "E6",
          "ticks": 1117,
          "time": 12.988372093023257,
          "velocity": 0.23622047244094488
        },
        {
          "duration": 0.31395348837209447,
          "durationTicks": 27,
          "midi": 72,
          "name": "C5",
          "ticks": 1119,
          "time": 13.011627906976743,
          "velocity": 0.49606299212598426
        },
        {
          "duration": 0.03488372093023351,
          "durationTicks": 3,
          "midi": 97,
          "name": "C#7",
          "ticks": 1119,
          "time": 13.011627906976743,
          "velocity": 0.08661417322834646
        },
        {
          "duration": 0.06976744186046524,
          "durationTicks": 6,
          "midi": 83,
          "name": "B5",
          "ticks": 1122,
          "time": 13.046511627906977,
          "velocity": 0.10236220472440945
        },
        {
          "duration": 0.174418604651164,
          "durationTicks": 15,
          "midi": 85,
          "name": "C#6",
          "ticks": 1125,
          "time": 13.081395348837209,
          "velocity": 0.10236220472440945
        },
        {
          "duration": 0.023255813953488413,
          "durationTicks": 2,
          "midi": 56,
          "name": "G#3",
          "ticks": 1126,
          "time": 13.093023255813954,
          "velocity": 0.25196850393700787
        },
        {
          "duration": 0.23255813953488413,
          "durationTicks": 20,
          "midi": 76,
          "name": "E5",
          "ticks": 1126,
          "time": 13.093023255813954,
          "velocity": 0.4566929133858268
        },
        {
          "duration": 0.04651162790697683,
          "durationTicks": 4,
          "midi": 95,
          "name": "B6",
          "ticks": 1127,
          "time": 13.104651162790697,
          "velocity": 0.13385826771653545
        },
        {
          "duration": 0.3023255813953494,
          "durationTicks": 26,
          "midi": 67,
          "name": "G4",
          "ticks": 1128,
          "time": 13.116279069767442,
          "velocity": 0.4566929133858268
        },
        {
          "duration": 0.19767441860465063,
          "durationTicks": 17,
          "midi": 83,
          "name": "B5",
          "ticks": 1130,
          "time": 13.13953488372093,
          "velocity": 0.2440944881889764
        },
        {
          "duration": 0.04651162790697683,
          "durationTicks": 4,
          "midi": 60,
          "name": "C4",
          "ticks": 1131,
          "time": 13.151162790697674,
          "velocity": 0.33858267716535434
        },
        {
          "duration": 0.22093023255814082,
          "durationTicks": 19,
          "midi": 64,
          "name": "E4",
          "ticks": 1137,
          "time": 13.220930232558139,
          "velocity": 0.4015748031496063
        },
        {
          "duration": 0.04651162790697683,
          "durationTicks": 4,
          "midi": 89,
          "name": "F6",
          "ticks": 1137,
          "time": 13.220930232558139,
          "velocity": 0.07086614173228346
        },
        {
          "duration": 0.03488372093023351,
          "durationTicks": 3,
          "midi": 59,
          "name": "B3",
          "ticks": 1139,
          "time": 13.244186046511627,
          "velocity": 0.3779527559055118
        },
        {
          "duration": 0.08139534883720856,
          "durationTicks": 7,
          "midi": 41,
          "name": "F2",
          "ticks": 1140,
          "time": 13.255813953488373,
          "velocity": 0.1732283464566929
        },
        {
          "duration": 0.03488372093023351,
          "durationTicks": 3,
          "midi": 53,
          "name": "F3",
          "ticks": 1143,
          "time": 13.290697674418604,
          "velocity": 0.25984251968503935
        },
        {
          "duration": 0.15116279069767558,
          "durationTicks": 13,
          "midi": 77,
          "name": "F5",
          "ticks": 1145,
          "time": 13.313953488372093,
          "velocity": 0.47244094488188976
        },
        {
          "duration": 0.023255813953488413,
          "durationTicks": 2,
          "midi": 59,
          "name": "B3",
          "ticks": 1146,
          "time": 13.325581395348838,
          "velocity": 0.31496062992125984
        },
        {
          "duration": 0.12790697674418716,
          "durationTicks": 11,
          "midi": 69,
          "name": "A4",
          "ticks": 1147,
          "time": 13.337209302325581,
          "velocity": 0.3937007874015748
        },
        {
          "duration": 0.08139534883720856,
          "durationTicks": 7,
          "midi": 41,
          "name": "F2",
          "ticks": 1148,
          "time": 13.348837209302326,
          "velocity": 0.15748031496062992
        },
        {
          "duration": 0.023255813953488413,
          "durationTicks": 2,
          "midi": 59,
          "name": "B3",
          "ticks": 1152,
          "time": 13.395348837209303,
          "velocity": 0.2992125984251969
        },
        {
          "duration": 0.023255813953488413,
          "durationTicks": 2,
          "midi": 58,
          "name": "A#3",
          "ticks": 1154,
          "time": 13.418604651162791,
          "velocity": 0.29133858267716534
        },
        {
          "duration": 0.12790697674418539,
          "durationTicks": 11,
          "midi": 88,
          "name": "E6",
          "ticks": 1154,
          "time": 13.418604651162791,
          "velocity": 0.2992125984251969
        },
        {
          "duration": 0.3372093023255811,
          "durationTicks": 29,
          "midi": 67,
          "name": "G4",
          "ticks": 1155,
          "time": 13.430232558139535,
          "velocity": 0.4645669291338583
        },
        {
          "duration": 0.25581395348837255,
          "durationTicks": 22,
          "midi": 72,
          "name": "C5",
          "ticks": 1155,
          "time": 13.430232558139535,
          "velocity": 0.5118110236220472
        },
        {
          "duration": 0.03488372093023173,
          "durationTicks": 3,
          "midi": 44,
          "name": "G#2",
          "ticks": 1156,
          "time": 13.44186046511628,
          "velocity": 0.25984251968503935
        },
        {
          "duration": 0.23255813953488413,
          "durationTicks": 20,
          "midi": 60,
          "name": "C4",
          "ticks": 1157,
          "time": 13.453488372093023,
          "velocity": 0.41732283464566927
        },
        {
          "duration": 0.19767441860465063,
          "durationTicks": 17,
          "midi": 76,
          "name": "E5",
          "ticks": 1157,
          "time": 13.453488372093023,
          "velocity": 0.4645669291338583
        },
        {
          "duration": 0.10465116279069697,
          "durationTicks": 9,
          "midi": 85,
          "name": "C#6",
          "ticks": 1157,
          "time": 13.453488372093023,
          "velocity": 0.11811023622047244
        },
        {
          "duration": 0.03488372093023351,
          "durationTicks": 3,
          "midi": 95,
          "name": "B6",
          "ticks": 1157,
          "time": 13.453488372093023,
          "velocity": 0.14960629921259844
        },
        {
          "duration": 0.04651162790697683,
          "durationTicks": 4,
          "midi": 43,
          "name": "G2",
          "ticks": 1159,
          "time": 13.476744186046512,
          "velocity": 0.2677165354330709
        },
        {
          "duration": 0.04651162790697683,
          "durationTicks": 4,
          "midi": 43,
          "name": "G2",
          "ticks": 1164,
          "time": 13.534883720930232,
          "velocity": 0.1732283464566929
        },
        {
          "duration": 0.03488372093023351,
          "durationTicks": 3,
          "midi": 95,
          "name": "B6",
          "ticks": 1164,
          "time": 13.534883720930232,
          "velocity": 0.09448818897637795
        },
        {
          "duration": 0.08139534883720856,
          "durationTicks": 7,
          "midi": 43,
          "name": "G2",
          "ticks": 1169,
          "time": 13.593023255813954,
          "velocity": 0.16535433070866143
        },
        {
          "duration": 0.4883720930232567,
          "durationTicks": 42,
          "midi": 77,
          "name": "F5",
          "ticks": 1174,
          "time": 13.651162790697674,
          "velocity": 0.4881889763779528
        },
        {
          "duration": 0.03488372093023351,
          "durationTicks": 3,
          "midi": 85,
          "name": "C#6",
          "ticks": 1174,
          "time": 13.651162790697674,
          "velocity": 0.15748031496062992
        },
        {
          "duration": 0.03488372093023173,
          "durationTicks": 3,
          "midi": 65,
          "name": "F4",
          "ticks": 1175,
          "time": 13.662790697674419,
          "velocity": 0.2677165354330709
        },
        {
          "duration": 0.2906976744186043,
          "durationTicks": 25,
          "midi": 93,
          "name": "A6",
          "ticks": 1175,
          "time": 13.662790697674419,
          "velocity": 0.30708661417322836
        },
        {
          "duration": 0.03488372093023173,
          "durationTicks": 3,
          "midi": 58,
          "name": "A#3",
          "ticks": 1177,
          "time": 13.686046511627907,
          "velocity": 0.2677165354330709
        },
        {
          "duration": 0.04651162790697683,
          "durationTicks": 4,
          "midi": 83,
          "name": "B5",
          "ticks": 1177,
          "time": 13.686046511627907,
          "velocity": 0.1732283464566929
        },
        {
          "duration": 0.15116279069767558,
          "durationTicks": 13,
          "midi": 43,
          "name": "G2",
          "ticks": 1178,
          "time": 13.69767441860465,
          "velocity": 0.2677165354330709
        },
        {
          "duration": 0.03488372093023351,
          "durationTicks": 3,
          "midi": 69,
          "name": "A4",
          "ticks": 1178,
          "time": 13.69767441860465,
          "velocity": 0.12598425196850394
        },
        {
          "duration": 0.023255813953488413,
          "durationTicks": 2,
          "midi": 59,
          "name": "B3",
          "ticks": 1180,
          "time": 13.720930232558139,
          "velocity": 0.25984251968503935
        },
        {
          "duration": 0.12790697674418539,
          "durationTicks": 11,
          "midi": 50,
          "name": "D3",
          "ticks": 1181,
          "time": 13.732558139534884,
          "velocity": 0.16535433070866143
        },
        {
          "duration": 0.10465116279069697,
          "durationTicks": 9,
          "midi": 65,
          "name": "F4",
          "ticks": 1181,
          "time": 13.732558139534884,
          "velocity": 0.16535433070866143
        },
        {
          "duration": 0.04651162790697683,
          "durationTicks": 4,
          "midi": 72,
          "name": "C5",
          "ticks": 1181,
          "time": 13.732558139534884,
          "velocity": 0.14173228346456693
        },
        {
          "duration": 0.058139534883720145,
          "durationTicks": 5,
          "midi": 69,
          "name": "A4",
          "ticks": 1185,
          "time": 13.779069767441861,
          "velocity": 0.10236220472440945
        },
        {
          "duration": 0.03488372093023173,
          "durationTicks": 3,
          "midi": 98,
          "name": "D7",
          "ticks": 1185,
          "time": 13.779069767441861,
          "velocity": 0.09448818897637795
        },
        {
          "duration": 0.023255813953488413,
          "durationTicks": 2,
          "midi": 59,
          "name": "B3",
          "ticks": 1186,
          "time": 13.790697674418604,
          "velocity": 0.23622047244094488
        },
        {
          "duration": 0.12790697674418716,
          "durationTicks": 11,
          "midi": 72,
          "name": "C5",
          "ticks": 1186,
          "time": 13.790697674418604,
          "velocity": 0.23622047244094488
        },
        {
          "duration": 0.23255813953488413,
          "durationTicks": 20,
          "midi": 81,
          "name": "A5",
          "ticks": 1186,
          "time": 13.790697674418604,
          "velocity": 0.30708661417322836
        },
        {
          "duration": 0.08139534883720856,
          "durationTicks": 7,
          "midi": 85,
          "name": "C#6",
          "ticks": 1193,
          "time": 13.872093023255815,
          "velocity": 0.12598425196850394
        },
        {
          "duration": 0.23255813953488413,
          "durationTicks": 20,
          "midi": 62,
          "name": "D4",
          "ticks": 1194,
          "time": 13.883720930232558,
          "velocity": 0.3543307086614173
        },
        {
          "duration": 0.023255813953488413,
          "durationTicks": 2,
          "midi": 49,
          "name": "C#3",
          "ticks": 1195,
          "time": 13.895348837209303,
          "velocity": 0.2440944881889764
        },
        {
          "duration": 0.22093023255813904,
          "durationTicks": 19,
          "midi": 65,
          "name": "F4",
          "ticks": 1195,
          "time": 13.895348837209303,
          "velocity": 0.3464566929133858
        },
        {
          "duration": 0.1511627906976738,
          "durationTicks": 13,
          "midi": 69,
          "name": "A4",
          "ticks": 1195,
          "time": 13.895348837209303,
          "velocity": 0.16535433070866143
        },
        {
          "duration": 0.04651162790697683,
          "durationTicks": 4,
          "midi": 83,
          "name": "B5",
          "ticks": 1195,
          "time": 13.895348837209303,
          "velocity": 0.11023622047244094
        },
        {
          "duration": 0.22093023255813904,
          "durationTicks": 19,
          "midi": 87,
          "name": "D#6",
          "ticks": 1195,
          "time": 13.895348837209303,
          "velocity": 0.14960629921259844
        },
        {
          "duration": 0.18604651162790553,
          "durationTicks": 16,
          "midi": 53,
          "name": "F3",
          "ticks": 1197,
          "time": 13.918604651162791,
          "velocity": 0.30708661417322836
        },
        {
          "duration": 0.08139534883720856,
          "durationTicks": 7,
          "midi": 91,
          "name": "G6",
          "ticks": 1197,
          "time": 13.918604651162791,
          "velocity": 0.11023622047244094
        },
        {
          "duration": 0.09302325581395188,
          "durationTicks": 8,
          "midi": 72,
          "name": "C5",
          "ticks": 1199,
          "time": 13.94186046511628,
          "velocity": 0.28346456692913385
        },
        {
          "duration": 0.04651162790697505,
          "durationTicks": 4,
          "midi": 38,
          "name": "D2",
          "ticks": 1201,
          "time": 13.965116279069768,
          "velocity": 0.2125984251968504
        },
        {
          "duration": 0.10465116279069697,
          "durationTicks": 9,
          "midi": 95,
          "name": "B6",
          "ticks": 1201,
          "time": 13.965116279069768,
          "velocity": 0.07874015748031496
        },
        {
          "duration": 0.04651162790697505,
          "durationTicks": 4,
          "midi": 85,
          "name": "C#6",
          "ticks": 1203,
          "time": 13.988372093023257,
          "velocity": 0.09448818897637795
        },
        {
          "duration": 0.09302325581395365,
          "durationTicks": 8,
          "midi": 38,
          "name": "D2",
          "ticks": 1206,
          "time": 14.023255813953488,
          "velocity": 0.2125984251968504
        },
        {
          "duration": 0.03488372093023351,
          "durationTicks": 3,
          "midi": 58,
          "name": "A#3",
          "ticks": 1209,
          "time": 14.05813953488372,
          "velocity": 0.14960629921259844
        },
        {
          "duration": 0.06976744186046524,
          "durationTicks": 6,
          "midi": 72,
          "name": "C5",
          "ticks": 1209,
          "time": 14.05813953488372,
          "velocity": 0.16535433070866143
        },
        {
          "duration": 0.1976744186046524,
          "durationTicks": 17,
          "midi": 85,
          "name": "C#6",
          "ticks": 1211,
          "time": 14.081395348837209,
          "velocity": 0.4015748031496063
        },
        {
          "duration": 0.26744186046511587,
          "durationTicks": 23,
          "midi": 64,
          "name": "E4",
          "ticks": 1214,
          "time": 14.116279069767442,
          "velocity": 0.3543307086614173
        },
        {
          "duration": 0.19767441860465063,
          "durationTicks": 17,
          "midi": 83,
          "name": "B5",
          "ticks": 1214,
          "time": 14.116279069767442,
          "velocity": 0.3937007874015748
        },
        {
          "duration": 0.20930232558139572,
          "durationTicks": 18,
          "midi": 88,
          "name": "E6",
          "ticks": 1214,
          "time": 14.116279069767442,
          "velocity": 0.18110236220472442
        },
        {
          "duration": 0.023255813953488413,
          "durationTicks": 2,
          "midi": 53,
          "name": "F3",
          "ticks": 1215,
          "time": 14.127906976744185,
          "velocity": 0.2283464566929134
        },
        {
          "duration": 0.22093023255814082,
          "durationTicks": 19,
          "midi": 59,
          "name": "B3",
          "ticks": 1215,
          "time": 14.127906976744185,
          "velocity": 0.33858267716535434
        },
        {
          "duration": 0.26744186046511764,
          "durationTicks": 23,
          "midi": 67,
          "name": "G4",
          "ticks": 1215,
          "time": 14.127906976744185,
          "velocity": 0.2992125984251969
        },
        {
          "duration": 0.03488372093023173,
          "durationTicks": 3,
          "midi": 40,
          "name": "E2",
          "ticks": 1216,
          "time": 14.13953488372093,
          "velocity": 0.1968503937007874
        },
        {
          "duration": 0.03488372093023351,
          "durationTicks": 3,
          "midi": 41,
          "name": "F2",
          "ticks": 1219,
          "time": 14.174418604651162,
          "velocity": 0.14960629921259844
        },
        {
          "duration": 0.15116279069767558,
          "durationTicks": 13,
          "midi": 84,
          "name": "C6",
          "ticks": 1219,
          "time": 14.174418604651162,
          "velocity": 0.36220472440944884
        },
        {
          "duration": 0.03488372093023173,
          "durationTicks": 3,
          "midi": 53,
          "name": "F3",
          "ticks": 1222,
          "time": 14.209302325581396,
          "velocity": 0.2440944881889764
        },
        {
          "duration": 0.03488372093023173,
          "durationTicks": 3,
          "midi": 41,
          "name": "F2",
          "ticks": 1224,
          "time": 14.232558139534884,
          "velocity": 0.2047244094488189
        },
        {
          "duration": 0.1511627906976738,
          "durationTicks": 13,
          "midi": 82,
          "name": "A#5",
          "ticks": 1224,
          "time": 14.232558139534884,
          "velocity": 0.3779527559055118
        },
        {
          "duration": 0.09302325581395365,
          "durationTicks": 8,
          "midi": 93,
          "name": "A6",
          "ticks": 1225,
          "time": 14.244186046511627,
          "velocity": 0.2204724409448819
        },
        {
          "duration": 0.03488372093023351,
          "durationTicks": 3,
          "midi": 80,
          "name": "G#5",
          "ticks": 1227,
          "time": 14.267441860465116,
          "velocity": 0.1968503937007874
        },
        {
          "duration": 0.058139534883720145,
          "durationTicks": 5,
          "midi": 41,
          "name": "F2",
          "ticks": 1228,
          "time": 14.279069767441861,
          "velocity": 0.1732283464566929
        },
        {
          "duration": 0.08139534883720856,
          "durationTicks": 7,
          "midi": 92,
          "name": "G#6",
          "ticks": 1228,
          "time": 14.279069767441861,
          "velocity": 0.2125984251968504
        },
        {
          "duration": 0.06976744186046524,
          "durationTicks": 6,
          "midi": 79,
          "name": "G5",
          "ticks": 1229,
          "time": 14.290697674418604,
          "velocity": 0.4330708661417323
        },
        {
          "duration": 0.04651162790697683,
          "durationTicks": 4,
          "midi": 87,
          "name": "D#6",
          "ticks": 1229,
          "time": 14.290697674418604,
          "velocity": 0.10236220472440945
        },
        {
          "duration": 0.04651162790697683,
          "durationTicks": 4,
          "midi": 44,
          "name": "G#2",
          "ticks": 1234,
          "time": 14.348837209302326,
          "velocity": 0.2755905511811024
        },
        {
          "duration": 0.03488372093023173,
          "durationTicks": 3,
          "midi": 58,
          "name": "A#3",
          "ticks": 1234,
          "time": 14.348837209302326,
          "velocity": 0.2047244094488189
        },
        {
          "duration": 0.03488372093023173,
          "durationTicks": 3,
          "midi": 78,
          "name": "F#5",
          "ticks": 1234,
          "time": 14.348837209302326,
          "velocity": 0.44881889763779526
        },
        {
          "duration": 0.05813953488372192,
          "durationTicks": 5,
          "midi": 89,
          "name": "F6",
          "ticks": 1235,
          "time": 14.36046511627907,
          "velocity": 0.18110236220472442
        },
        {
          "duration": 0.04651162790697683,
          "durationTicks": 4,
          "midi": 77,
          "name": "F5",
          "ticks": 1236,
          "time": 14.372093023255815,
          "velocity": 0.48031496062992124
        },
        {
          "duration": 0.08139534883721034,
          "durationTicks": 7,
          "midi": 88,
          "name": "E6",
          "ticks": 1237,
          "time": 14.383720930232558,
          "velocity": 0.16535433070866143
        },
        {
          "duration": 0.09302325581395365,
          "durationTicks": 8,
          "midi": 43,
          "name": "G2",
          "ticks": 1238,
          "time": 14.395348837209303,
          "velocity": 0.2755905511811024
        },
        {
          "duration": 0.05813953488372192,
          "durationTicks": 5,
          "midi": 76,
          "name": "E5",
          "ticks": 1239,
          "time": 14.406976744186046,
          "velocity": 0.44881889763779526
        },
        {
          "duration": 0.5581395348837201,
          "durationTicks": 48,
          "midi": 79,
          "name": "G5",
          "ticks": 1240,
          "time": 14.418604651162791,
          "velocity": 0.4645669291338583
        },
        {
          "duration": 0.08139534883720856,
          "durationTicks": 7,
          "midi": 87,
          "name": "D#6",
          "ticks": 1240,
          "time": 14.418604651162791,
          "velocity": 0.18110236220472442
        },
        {
          "duration": 0.03488372093023351,
          "durationTicks": 3,
          "midi": 85,
          "name": "C#6",
          "ticks": 1241,
          "time": 14.430232558139535,
          "velocity": 0.07874015748031496
        },
        {
          "duration": 0.03488372093023173,
          "durationTicks": 3,
          "midi": 74,
          "name": "D5",
          "ticks": 1242,
          "time": 14.44186046511628,
          "velocity": 0.5354330708661418
        },
        {
          "duration": 0.04651162790697683,
          "durationTicks": 4,
          "midi": 93,
          "name": "A6",
          "ticks": 1242,
          "time": 14.44186046511628,
          "velocity": 0.09448818897637795
        },
        {
          "duration": 0.10465116279069697,
          "durationTicks": 9,
          "midi": 62,
          "name": "D4",
          "ticks": 1244,
          "time": 14.465116279069768,
          "velocity": 0.12598425196850394
        },
        {
          "duration": 0.04651162790697505,
          "durationTicks": 4,
          "midi": 92,
          "name": "G#6",
          "ticks": 1244,
          "time": 14.465116279069768,
          "velocity": 0.08661417322834646
        },
        {
          "duration": 0.023255813953488413,
          "durationTicks": 2,
          "midi": 73,
          "name": "C#5",
          "ticks": 1245,
          "time": 14.476744186046512,
          "velocity": 0.4645669291338583
        },
        {
          "duration": 0.03488372093023173,
          "durationTicks": 3,
          "midi": 42,
          "name": "F#2",
          "ticks": 1246,
          "time": 14.488372093023257,
          "velocity": 0.18110236220472442
        },
        {
          "duration": 0.023255813953486637,
          "durationTicks": 2,
          "midi": 74,
          "name": "D5",
          "ticks": 1246,
          "time": 14.488372093023257,
          "velocity": 0.47244094488188976
        },
        {
          "duration": 0.09302325581395365,
          "durationTicks": 8,
          "midi": 83,
          "name": "B5",
          "ticks": 1247,
          "time": 14.5,
          "velocity": 0.18110236220472442
        },
        {
          "duration": 0.03488372093023173,
          "durationTicks": 3,
          "midi": 96,
          "name": "C7",
          "ticks": 1247,
          "time": 14.5,
          "velocity": 0.07086614173228346
        },
        {
          "duration": 0.04651162790697683,
          "durationTicks": 4,
          "midi": 43,
          "name": "G2",
          "ticks": 1249,
          "time": 14.523255813953488,
          "velocity": 0.2204724409448819
        },
        {
          "duration": 0.011627906976743319,
          "durationTicks": 1,
          "midi": 72,
          "name": "C5",
          "ticks": 1249,
          "time": 14.523255813953488,
          "velocity": 0.5118110236220472
        },
        {
          "duration": 0.023255813953488413,
          "durationTicks": 2,
          "midi": 71,
          "name": "B4",
          "ticks": 1250,
          "time": 14.534883720930232,
          "velocity": 0.5275590551181102
        },
        {
          "duration": 0.04651162790697683,
          "durationTicks": 4,
          "midi": 73,
          "name": "C#5",
          "ticks": 1250,
          "time": 14.534883720930232,
          "velocity": 0.4251968503937008
        },
        {
          "duration": 0.31395348837209447,
          "durationTicks": 27,
          "midi": 81,
          "name": "A5",
          "ticks": 1250,
          "time": 14.534883720930232,
          "velocity": 0.3700787401574803
        },
        {
          "duration": 0.04651162790697683,
          "durationTicks": 4,
          "midi": 94,
          "name": "A#6",
          "ticks": 1251,
          "time": 14.546511627906977,
          "velocity": 0.16535433070866143
        },
        {
          "duration": 0.15116279069767558,
          "durationTicks": 13,
          "midi": 70,
          "name": "A#4",
          "ticks": 1252,
          "time": 14.55813953488372,
          "velocity": 0.5275590551181102
        },
        {
          "duration": 0.1627906976744189,
          "durationTicks": 14,
          "midi": 77,
          "name": "F5",
          "ticks": 1252,
          "time": 14.55813953488372,
          "velocity": 0.1732283464566929
        },
        {
          "duration": 0.023255813953488413,
          "durationTicks": 2,
          "midi": 57,
          "name": "A3",
          "ticks": 1253,
          "time": 14.569767441860465,
          "velocity": 0.2440944881889764
        },
        {
          "duration": 0.9186046511627914,
          "durationTicks": 79,
          "midi": 74,
          "name": "D5",
          "ticks": 1253,
          "time": 14.569767441860465,
          "velocity": 0.4409448818897638
        },
        {
          "duration": 0.10465116279069697,
          "durationTicks": 9,
          "midi": 89,
          "name": "F6",
          "ticks": 1253,
          "time": 14.569767441860465,
          "velocity": 0.18110236220472442
        },
        {
          "duration": 0.06976744186046524,
          "durationTicks": 6,
          "midi": 98,
          "name": "D7",
          "ticks": 1253,
          "time": 14.569767441860465,
          "velocity": 0.16535433070866143
        },
        {
          "duration": 0.3023255813953494,
          "durationTicks": 26,
          "midi": 62,
          "name": "D4",
          "ticks": 1254,
          "time": 14.581395348837209,
          "velocity": 0.31496062992125984
        },
        {
          "duration": 0.3720930232558146,
          "durationTicks": 32,
          "midi": 58,
          "name": "A#3",
          "ticks": 1255,
          "time": 14.593023255813954,
          "velocity": 0.33070866141732286
        },
        {
          "duration": 0.19767441860465063,
          "durationTicks": 17,
          "midi": 67,
          "name": "G4",
          "ticks": 1255,
          "time": 14.593023255813954,
          "velocity": 0.4330708661417323
        },
        {
          "duration": 0.03488372093023173,
          "durationTicks": 3,
          "midi": 84,
          "name": "C6",
          "ticks": 1259,
          "time": 14.63953488372093,
          "velocity": 0.10236220472440945
        },
        {
          "duration": 0.023255813953488413,
          "durationTicks": 2,
          "midi": 69,
          "name": "A4",
          "ticks": 1262,
          "time": 14.674418604651162,
          "velocity": 0.3700787401574803
        },
        {
          "duration": 0.09302325581395365,
          "durationTicks": 8,
          "midi": 53,
          "name": "F3",
          "ticks": 1264,
          "time": 14.69767441860465,
          "velocity": 0.07874015748031496
        },
        {
          "duration": 0.058139534883720145,
          "durationTicks": 5,
          "midi": 69,
          "name": "A4",
          "ticks": 1265,
          "time": 14.709302325581396,
          "velocity": 0.44881889763779526
        },
        {
          "duration": 0.04651162790697683,
          "durationTicks": 4,
          "midi": 92,
          "name": "G#6",
          "ticks": 1265,
          "time": 14.709302325581396,
          "velocity": 0.08661417322834646
        },
        {
          "duration": 0.08139534883721034,
          "durationTicks": 7,
          "midi": 46,
          "name": "A#2",
          "ticks": 1270,
          "time": 14.767441860465116,
          "velocity": 0.16535433070866143
        },
        {
          "duration": 0.023255813953488413,
          "durationTicks": 2,
          "midi": 69,
          "name": "A4",
          "ticks": 1271,
          "time": 14.779069767441861,
          "velocity": 0.4409448818897638
        },
        {
          "duration": 0.10465116279069697,
          "durationTicks": 9,
          "midi": 77,
          "name": "F5",
          "ticks": 1271,
          "time": 14.779069767441861,
          "velocity": 0.07086614173228346
        },
        {
          "duration": 0.03488372093023173,
          "durationTicks": 3,
          "midi": 53,
          "name": "F3",
          "ticks": 1273,
          "time": 14.80232558139535,
          "velocity": 0.11023622047244094
        },
        {
          "duration": 0.04651162790697683,
          "durationTicks": 4,
          "midi": 67,
          "name": "G4",
          "ticks": 1273,
          "time": 14.80232558139535,
          "velocity": 0.28346456692913385
        },
        {
          "duration": 0.06976744186046524,
          "durationTicks": 6,
          "midi": 69,
          "name": "A4",
          "ticks": 1274,
          "time": 14.813953488372093,
          "velocity": 0.4094488188976378
        },
        {
          "duration": 0.08139534883720856,
          "durationTicks": 7,
          "midi": 69,
          "name": "A4",
          "ticks": 1281,
          "time": 14.895348837209303,
          "velocity": 0.25984251968503935
        },
        {
          "duration": 0.4069767441860481,
          "durationTicks": 35,
          "midi": 70,
          "name": "A#4",
          "ticks": 1291,
          "time": 15.011627906976743,
          "velocity": 0.4645669291338583
        },
        {
          "duration": 0.023255813953488413,
          "durationTicks": 2,
          "midi": 63,
          "name": "D#4",
          "ticks": 1292,
          "time": 15.023255813953488,
          "velocity": 0.30708661417322836
        },
        {
          "duration": 0.04651162790697683,
          "durationTicks": 4,
          "midi": 77,
          "name": "F5",
          "ticks": 1292,
          "time": 15.023255813953488,
          "velocity": 0.13385826771653545
        },
        {
          "duration": 0.38372093023255793,
          "durationTicks": 33,
          "midi": 79,
          "name": "G5",
          "ticks": 1292,
          "time": 15.023255813953488,
          "velocity": 0.48031496062992124
        },
        {
          "duration": 0.39534883720930303,
          "durationTicks": 34,
          "midi": 58,
          "name": "A#3",
          "ticks": 1293,
          "time": 15.034883720930232,
          "velocity": 0.31496062992125984
        },
        {
          "duration": 0.3604651162790713,
          "durationTicks": 31,
          "midi": 67,
          "name": "G4",
          "ticks": 1293,
          "time": 15.034883720930232,
          "velocity": 0.4251968503937008
        },
        {
          "duration": 0.23255813953488413,
          "durationTicks": 20,
          "midi": 81,
          "name": "A5",
          "ticks": 1293,
          "time": 15.034883720930232,
          "velocity": 0.14173228346456693
        },
        {
          "duration": 0.09302325581395365,
          "durationTicks": 8,
          "midi": 89,
          "name": "F6",
          "ticks": 1293,
          "time": 15.034883720930232,
          "velocity": 0.16535433070866143
        },
        {
          "duration": 0.05813953488372192,
          "durationTicks": 5,
          "midi": 92,
          "name": "G#6",
          "ticks": 1293,
          "time": 15.034883720930232,
          "velocity": 0.12598425196850394
        },
        {
          "duration": 0.11627906976744207,
          "durationTicks": 10,
          "midi": 93,
          "name": "A6",
          "ticks": 1293,
          "time": 15.034883720930232,
          "velocity": 0.15748031496062992
        },
        {
          "duration": 0.06976744186046524,
          "durationTicks": 6,
          "midi": 95,
          "name": "B6",
          "ticks": 1293,
          "time": 15.034883720930232,
          "velocity": 0.10236220472440945
        },
        {
          "duration": 0.05813953488372192,
          "durationTicks": 5,
          "midi": 98,
          "name": "D7",
          "ticks": 1293,
          "time": 15.034883720930232,
          "velocity": 0.12598425196850394
        },
        {
          "duration": 0.08139534883720856,
          "durationTicks": 7,
          "midi": 53,
          "name": "F3",
          "ticks": 1294,
          "time": 15.046511627906977,
          "velocity": 0.16535433070866143
        },
        {
          "duration": 0.3023255813953494,
          "durationTicks": 26,
          "midi": 62,
          "name": "D4",
          "ticks": 1294,
          "time": 15.046511627906977,
          "velocity": 0.31496062992125984
        },
        {
          "duration": 0.04651162790697683,
          "durationTicks": 4,
          "midi": 92,
          "name": "G#6",
          "ticks": 1304,
          "time": 15.162790697674419,
          "velocity": 0.09448818897637795
        },
        {
          "duration": 0.09302325581395365,
          "durationTicks": 8,
          "midi": 46,
          "name": "A#2",
          "ticks": 1307,
          "time": 15.19767441860465,
          "velocity": 0.14960629921259844
        },
        {
          "duration": 0.08139534883721034,
          "durationTicks": 7,
          "midi": 53,
          "name": "F3",
          "ticks": 1309,
          "time": 15.220930232558139,
          "velocity": 0.07874015748031496
        },
        {
          "duration": 0.06976744186046524,
          "durationTicks": 6,
          "midi": 65,
          "name": "F4",
          "ticks": 1331,
          "time": 15.476744186046512,
          "velocity": 0.47244094488188976
        },
        {
          "duration": 0.2906976744186043,
          "durationTicks": 25,
          "midi": 81,
          "name": "A5",
          "ticks": 1331,
          "time": 15.476744186046512,
          "velocity": 0.3464566929133858
        },
        {
          "duration": 0.1744186046511622,
          "durationTicks": 15,
          "midi": 83,
          "name": "B5",
          "ticks": 1331,
          "time": 15.476744186046512,
          "velocity": 0.2992125984251969
        },
        {
          "duration": 0.058139534883720145,
          "durationTicks": 5,
          "midi": 91,
          "name": "G6",
          "ticks": 1331,
          "time": 15.476744186046512,
          "velocity": 0.11023622047244094
        },
        {
          "duration": 0.37209302325581284,
          "durationTicks": 32,
          "midi": 45,
          "name": "A2",
          "ticks": 1332,
          "time": 15.488372093023257,
          "velocity": 0.47244094488188976
        },
        {
          "duration": 0.38372093023255793,
          "durationTicks": 33,
          "midi": 61,
          "name": "C#4",
          "ticks": 1332,
          "time": 15.488372093023257,
          "velocity": 0.41732283464566927
        },
        {
          "duration": 0.40697674418604635,
          "durationTicks": 35,
          "midi": 69,
          "name": "A4",
          "ticks": 1332,
          "time": 15.488372093023257,
          "velocity": 0.3779527559055118
        },
        {
          "duration": 0.39534883720930125,
          "durationTicks": 34,
          "midi": 73,
          "name": "C#5",
          "ticks": 1332,
          "time": 15.488372093023257,
          "velocity": 0.5590551181102362
        },
        {
          "duration": 0.058139534883720145,
          "durationTicks": 5,
          "midi": 86,
          "name": "D6",
          "ticks": 1332,
          "time": 15.488372093023257,
          "velocity": 0.2047244094488189
        },
        {
          "duration": 0.10465116279069697,
          "durationTicks": 9,
          "midi": 87,
          "name": "D#6",
          "ticks": 1332,
          "time": 15.488372093023257,
          "velocity": 0.13385826771653545
        },
        {
          "duration": 0.03488372093023173,
          "durationTicks": 3,
          "midi": 88,
          "name": "E6",
          "ticks": 1332,
          "time": 15.488372093023257,
          "velocity": 0.15748031496062992
        },
        {
          "duration": 0.1395348837209287,
          "durationTicks": 12,
          "midi": 90,
          "name": "F#6",
          "ticks": 1332,
          "time": 15.488372093023257,
          "velocity": 0.12598425196850394
        },
        {
          "duration": 0.10465116279069697,
          "durationTicks": 9,
          "midi": 92,
          "name": "G#6",
          "ticks": 1332,
          "time": 15.488372093023257,
          "velocity": 0.11023622047244094
        },
        {
          "duration": 0.08139534883720856,
          "durationTicks": 7,
          "midi": 52,
          "name": "E3",
          "ticks": 1333,
          "time": 15.5,
          "velocity": 0.28346456692913385
        },
        {
          "duration": 0.023255813953488413,
          "durationTicks": 2,
          "midi": 71,
          "name": "B4",
          "ticks": 1333,
          "time": 15.5,
          "velocity": 0.2440944881889764
        },
        {
          "duration": 0.04651162790697683,
          "durationTicks": 4,
          "midi": 97,
          "name": "C#7",
          "ticks": 1333,
          "time": 15.5,
          "velocity": 0.12598425196850394
        },
        {
          "duration": 0.10465116279069697,
          "durationTicks": 9,
          "midi": 79,
          "name": "G5",
          "ticks": 1335,
          "time": 15.523255813953488,
          "velocity": 0.13385826771653545
        },
        {
          "duration": 0.023255813953488413,
          "durationTicks": 2,
          "midi": 71,
          "name": "B4",
          "ticks": 1336,
          "time": 15.534883720930232,
          "velocity": 0.28346456692913385
        },
        {
          "duration": 0.023255813953488413,
          "durationTicks": 2,
          "midi": 64,
          "name": "E4",
          "ticks": 1337,
          "time": 15.546511627906977,
          "velocity": 0.3858267716535433
        },
        {
          "duration": 0.10465116279069875,
          "durationTicks": 9,
          "midi": 65,
          "name": "F4",
          "ticks": 1338,
          "time": 15.55813953488372,
          "velocity": 0.4330708661417323
        },
        {
          "duration": 0.15116279069767558,
          "durationTicks": 13,
          "midi": 84,
          "name": "C6",
          "ticks": 1338,
          "time": 15.55813953488372,
          "velocity": 0.16535433070866143
        },
        {
          "duration": 0.174418604651164,
          "durationTicks": 15,
          "midi": 88,
          "name": "E6",
          "ticks": 1338,
          "time": 15.55813953488372,
          "velocity": 0.2204724409448819
        },
        {
          "duration": 0.10465116279069697,
          "durationTicks": 9,
          "midi": 71,
          "name": "B4",
          "ticks": 1339,
          "time": 15.569767441860465,
          "velocity": 0.2677165354330709
        },
        {
          "duration": 0.03488372093023351,
          "durationTicks": 3,
          "midi": 97,
          "name": "C#7",
          "ticks": 1340,
          "time": 15.581395348837209,
          "velocity": 0.07874015748031496
        },
        {
          "duration": 0.11627906976744207,
          "durationTicks": 10,
          "midi": 52,
          "name": "E3",
          "ticks": 1341,
          "time": 15.593023255813954,
          "velocity": 0.25984251968503935
        },
        {
          "duration": 0.09302325581395365,
          "durationTicks": 8,
          "midi": 86,
          "name": "D6",
          "ticks": 1341,
          "time": 15.593023255813954,
          "velocity": 0.14960629921259844
        },
        {
          "duration": 0.04651162790697683,
          "durationTicks": 4,
          "midi": 87,
          "name": "D#6",
          "ticks": 1344,
          "time": 15.627906976744185,
          "velocity": 0.13385826771653545
        },
        {
          "duration": 0.05813953488372192,
          "durationTicks": 5,
          "midi": 91,
          "name": "G6",
          "ticks": 1344,
          "time": 15.627906976744185,
          "velocity": 0.07086614173228346
        },
        {
          "duration": 0.023255813953488413,
          "durationTicks": 2,
          "midi": 64,
          "name": "E4",
          "ticks": 1346,
          "time": 15.651162790697674,
          "velocity": 0.2992125984251969
        },
        {
          "duration": 0.06976744186046524,
          "durationTicks": 6,
          "midi": 90,
          "name": "F#6",
          "ticks": 1346,
          "time": 15.651162790697674,
          "velocity": 0.09448818897637795
        },
        {
          "duration": 0.023255813953488413,
          "durationTicks": 2,
          "midi": 65,
          "name": "F4",
          "ticks": 1348,
          "time": 15.674418604651162,
          "velocity": 0.3937007874015748
        },
        {
          "duration": 0.04651162790697683,
          "durationTicks": 4,
          "midi": 83,
          "name": "B5",
          "ticks": 1348,
          "time": 15.674418604651162,
          "velocity": 0.11811023622047244
        },
        {
          "duration": 0.13953488372093048,
          "durationTicks": 12,
          "midi": 71,
          "name": "B4",
          "ticks": 1349,
          "time": 15.686046511627907,
          "velocity": 0.2204724409448819
        },
        {
          "duration": 0.09302325581395365,
          "durationTicks": 8,
          "midi": 65,
          "name": "F4",
          "ticks": 1351,
          "time": 15.709302325581396,
          "velocity": 0.31496062992125984
        },
        {
          "duration": 0.08139534883721034,
          "durationTicks": 7,
          "midi": 52,
          "name": "E3",
          "ticks": 1352,
          "time": 15.720930232558139,
          "velocity": 0.13385826771653545
        },
        {
          "duration": 0.03488372093023351,
          "durationTicks": 3,
          "midi": 79,
          "name": "G5",
          "ticks": 1352,
          "time": 15.720930232558139,
          "velocity": 0.09448818897637795
        },
        {
          "duration": 0.09302325581395365,
          "durationTicks": 8,
          "midi": 76,
          "name": "E5",
          "ticks": 1359,
          "time": 15.80232558139535,
          "velocity": 0.09448818897637795
        },
        {
          "duration": 0.03488372093023173,
          "durationTicks": 3,
          "midi": 65,
          "name": "F4",
          "ticks": 1361,
          "time": 15.825581395348838,
          "velocity": 0.09448818897637795
        },
        {
          "duration": 0.03488372093023173,
          "durationTicks": 3,
          "midi": 65,
          "name": "F4",
          "ticks": 1365,
          "time": 15.872093023255815,
          "velocity": 0.10236220472440945
        },
        {
          "duration": 0.24418604651162745,
          "durationTicks": 21,
          "midi": 61,
          "name": "C#4",
          "ticks": 1370,
          "time": 15.930232558139535,
          "velocity": 0.41732283464566927
        },
        {
          "duration": 0.03488372093023351,
          "durationTicks": 3,
          "midi": 65,
          "name": "F4",
          "ticks": 1370,
          "time": 15.930232558139535,
          "velocity": 0.33858267716535434
        },
        {
          "duration": 0.9302325581395348,
          "durationTicks": 80,
          "midi": 69,
          "name": "A4",
          "ticks": 1370,
          "time": 15.930232558139535,
          "velocity": 0.4330708661417323
        },
        {
          "duration": 0.1627906976744189,
          "durationTicks": 14,
          "midi": 83,
          "name": "B5",
          "ticks": 1370,
          "time": 15.930232558139535,
          "velocity": 0.30708661417322836
        },
        {
          "duration": 0.23255813953488236,
          "durationTicks": 20,
          "midi": 73,
          "name": "C#5",
          "ticks": 1371,
          "time": 15.94186046511628,
          "velocity": 0.5433070866141733
        },
        {
          "duration": 0.20930232558139572,
          "durationTicks": 18,
          "midi": 76,
          "name": "E5",
          "ticks": 1371,
          "time": 15.94186046511628,
          "velocity": 0.33858267716535434
        },
        {
          "duration": 0.06976744186046524,
          "durationTicks": 6,
          "midi": 86,
          "name": "D6",
          "ticks": 1371,
          "time": 15.94186046511628,
          "velocity": 0.2047244094488189
        },
        {
          "duration": 0.10465116279069697,
          "durationTicks": 9,
          "midi": 87,
          "name": "D#6",
          "ticks": 1371,
          "time": 15.94186046511628,
          "velocity": 0.13385826771653545
        },
        {
          "duration": 0.1395348837209287,
          "durationTicks": 12,
          "midi": 90,
          "name": "F#6",
          "ticks": 1371,
          "time": 15.94186046511628,
          "velocity": 0.12598425196850394
        },
        {
          "duration": 0.20930232558139394,
          "durationTicks": 18,
          "midi": 45,
          "name": "A2",
          "ticks": 1372,
          "time": 15.953488372093023,
          "velocity": 0.4645669291338583
        },
        {
          "duration": 0.08139534883720856,
          "durationTicks": 7,
          "midi": 52,
          "name": "E3",
          "ticks": 1372,
          "time": 15.953488372093023,
          "velocity": 0.2755905511811024
        },
        {
          "duration": 0.023255813953488413,
          "durationTicks": 2,
          "midi": 71,
          "name": "B4",
          "ticks": 1372,
          "time": 15.953488372093023,
          "velocity": 0.25196850393700787
        },
        {
          "duration": 0.03488372093023351,
          "durationTicks": 3,
          "midi": 91,
          "name": "G6",
          "ticks": 1372,
          "time": 15.953488372093023,
          "velocity": 0.10236220472440945
        },
        {
          "duration": 0.09302325581395365,
          "durationTicks": 8,
          "midi": 92,
          "name": "G#6",
          "ticks": 1372,
          "time": 15.953488372093023,
          "velocity": 0.09448818897637795
        },
        {
          "duration": 0.19767441860464885,
          "durationTicks": 17,
          "midi": 64,
          "name": "E4",
          "ticks": 1373,
          "time": 15.965116279069768,
          "velocity": 0.4015748031496063
        },
        {
          "duration": 0.11627906976744029,
          "durationTicks": 10,
          "midi": 89,
          "name": "F6",
          "ticks": 1373,
          "time": 15.965116279069768,
          "velocity": 0.11023622047244094
        },
        {
          "duration": 0.08139534883721034,
          "durationTicks": 7,
          "midi": 79,
          "name": "G5",
          "ticks": 1374,
          "time": 15.976744186046512,
          "velocity": 0.08661417322834646
        },
        {
          "duration": 0.058139534883720145,
          "durationTicks": 5,
          "midi": 71,
          "name": "B4",
          "ticks": 1375,
          "time": 15.988372093023257,
          "velocity": 0.25196850393700787
        },
        {
          "duration": 0.05813953488372192,
          "durationTicks": 5,
          "midi": 52,
          "name": "E3",
          "ticks": 1380,
          "time": 16.046511627906977,
          "velocity": 0.25984251968503935
        },
        {
          "duration": 0.03488372093023173,
          "durationTicks": 3,
          "midi": 71,
          "name": "B4",
          "ticks": 1381,
          "time": 16.058139534883722,
          "velocity": 0.1968503937007874
        },
        {
          "duration": 0.04651162790697683,
          "durationTicks": 4,
          "midi": 86,
          "name": "D6",
          "ticks": 1381,
          "time": 16.058139534883722,
          "velocity": 0.10236220472440945
        },
        {
          "duration": 0.22093023255813904,
          "durationTicks": 19,
          "midi": 86,
          "name": "D6",
          "ticks": 1389,
          "time": 16.151162790697676,
          "velocity": 0.3937007874015748
        },
        {
          "duration": 0.7209302325581426,
          "durationTicks": 62,
          "midi": 65,
          "name": "F4",
          "ticks": 1390,
          "time": 16.162790697674417,
          "velocity": 0.3858267716535433
        },
        {
          "duration": 0.7093023255813975,
          "durationTicks": 61,
          "midi": 77,
          "name": "F5",
          "ticks": 1390,
          "time": 16.162790697674417,
          "velocity": 0.4566929133858268
        },
        {
          "duration": 0.1860465116279073,
          "durationTicks": 16,
          "midi": 84,
          "name": "C6",
          "ticks": 1390,
          "time": 16.162790697674417,
          "velocity": 0.2440944881889764
        },
        {
          "duration": 1.2325581395348841,
          "durationTicks": 106,
          "midi": 74,
          "name": "D5",
          "ticks": 1391,
          "time": 16.174418604651162,
          "velocity": 0.4330708661417323
        },
        {
          "duration": 0.23255813953488413,
          "durationTicks": 20,
          "midi": 88,
          "name": "E6",
          "ticks": 1391,
          "time": 16.174418604651162,
          "velocity": 0.18110236220472442
        },
        {
          "duration": 0.10465116279069875,
          "durationTicks": 9,
          "midi": 97,
          "name": "C#7",
          "ticks": 1391,
          "time": 16.174418604651162,
          "velocity": 0.08661417322834646
        },
        {
          "duration": 0.23255813953488413,
          "durationTicks": 20,
          "midi": 57,
          "name": "A3",
          "ticks": 1392,
          "time": 16.186046511627907,
          "velocity": 0.30708661417322836
        },
        {
          "duration": 0.20930232558139394,
          "durationTicks": 18,
          "midi": 62,
          "name": "D4",
          "ticks": 1392,
          "time": 16.186046511627907,
          "velocity": 0.2992125984251969
        },
        {
          "duration": 0.03488372093023173,
          "durationTicks": 3,
          "midi": 50,
          "name": "D3",
          "ticks": 1393,
          "time": 16.197674418604652,
          "velocity": 0.2677165354330709
        },
        {
          "duration": 0.13953488372093048,
          "durationTicks": 12,
          "midi": 72,
          "name": "C5",
          "ticks": 1398,
          "time": 16.25581395348837,
          "velocity": 0.1889763779527559
        },
        {
          "duration": 0.023255813953486637,
          "durationTicks": 2,
          "midi": 37,
          "name": "C#2",
          "ticks": 1400,
          "time": 16.27906976744186,
          "velocity": 0.2992125984251969
        },
        {
          "duration": 0.10465116279069875,
          "durationTicks": 9,
          "midi": 95,
          "name": "B6",
          "ticks": 1400,
          "time": 16.27906976744186,
          "velocity": 0.08661417322834646
        },
        {
          "duration": 0.04651162790697683,
          "durationTicks": 4,
          "midi": 85,
          "name": "C#6",
          "ticks": 1401,
          "time": 16.290697674418606,
          "velocity": 0.11811023622047244
        },
        {
          "duration": 0.02325581395349019,
          "durationTicks": 2,
          "midi": 38,
          "name": "D2",
          "ticks": 1402,
          "time": 16.302325581395348,
          "velocity": 0.2677165354330709
        },
        {
          "duration": 0.04651162790697683,
          "durationTicks": 4,
          "midi": 50,
          "name": "D3",
          "ticks": 1402,
          "time": 16.302325581395348,
          "velocity": 0.2992125984251969
        },
        {
          "duration": 0.20930232558139394,
          "durationTicks": 18,
          "midi": 84,
          "name": "C6",
          "ticks": 1407,
          "time": 16.36046511627907,
          "velocity": 0.2283464566929134
        },
        {
          "duration": 0.03488372093023173,
          "durationTicks": 3,
          "midi": 97,
          "name": "C#7",
          "ticks": 1411,
          "time": 16.406976744186046,
          "velocity": 0.07086614173228346
        },
        {
          "duration": 0.03488372093023173,
          "durationTicks": 3,
          "midi": 60,
          "name": "C4",
          "ticks": 1413,
          "time": 16.430232558139537,
          "velocity": 0.14173228346456693
        },
        {
          "duration": 0.09302325581395365,
          "durationTicks": 8,
          "midi": 45,
          "name": "A2",
          "ticks": 1414,
          "time": 16.441860465116278,
          "velocity": 0.30708661417322836
        },
        {
          "duration": 0.15116279069767202,
          "durationTicks": 13,
          "midi": 72,
          "name": "C5",
          "ticks": 1416,
          "time": 16.46511627906977,
          "velocity": 0.16535433070866143
        },
        {
          "duration": 0.10465116279069875,
          "durationTicks": 9,
          "midi": 88,
          "name": "E6",
          "ticks": 1425,
          "time": 16.569767441860463,
          "velocity": 0.12598425196850394
        },
        {
          "duration": 0.03488372093023173,
          "durationTicks": 3,
          "midi": 45,
          "name": "A2",
          "ticks": 1426,
          "time": 16.58139534883721,
          "velocity": 0.2440944881889764
        },
        {
          "duration": 0.02325581395349019,
          "durationTicks": 2,
          "midi": 50,
          "name": "D3",
          "ticks": 1426,
          "time": 16.58139534883721,
          "velocity": 0.23622047244094488
        },
        {
          "duration": 0.04651162790697683,
          "durationTicks": 4,
          "midi": 80,
          "name": "G#5",
          "ticks": 1430,
          "time": 16.627906976744185,
          "velocity": 0.14960629921259844
        },
        {
          "duration": 0.08139534883720856,
          "durationTicks": 7,
          "midi": 60,
          "name": "C4",
          "ticks": 1431,
          "time": 16.63953488372093,
          "velocity": 0.33858267716535434
        },
        {
          "duration": 0.03488372093023173,
          "durationTicks": 3,
          "midi": 85,
          "name": "C#6",
          "ticks": 1431,
          "time": 16.63953488372093,
          "velocity": 0.10236220472440945
        },
        {
          "duration": 0.13953488372093048,
          "durationTicks": 12,
          "midi": 84,
          "name": "C6",
          "ticks": 1432,
          "time": 16.651162790697676,
          "velocity": 0.2047244094488189
        },
        {
          "duration": 0.04651162790697683,
          "durationTicks": 4,
          "midi": 38,
          "name": "D2",
          "ticks": 1437,
          "time": 16.709302325581394,
          "velocity": 0.1732283464566929
        },
        {
          "duration": 0.348837209302328,
          "durationTicks": 30,
          "midi": 88,
          "name": "E6",
          "ticks": 1437,
          "time": 16.709302325581394,
          "velocity": 0.1968503937007874
        },
        {
          "duration": 0.023255813953486637,
          "durationTicks": 2,
          "midi": 60,
          "name": "C4",
          "ticks": 1439,
          "time": 16.732558139534884,
          "velocity": 0.29133858267716534
        },
        {
          "duration": 0.08139534883720856,
          "durationTicks": 7,
          "midi": 38,
          "name": "D2",
          "ticks": 1442,
          "time": 16.767441860465116,
          "velocity": 0.16535433070866143
        },
        {
          "duration": 0.06976744186046702,
          "durationTicks": 6,
          "midi": 60,
          "name": "C4",
          "ticks": 1442,
          "time": 16.767441860465116,
          "velocity": 0.25984251968503935
        },
        {
          "duration": 0.05813953488372192,
          "durationTicks": 5,
          "midi": 83,
          "name": "B5",
          "ticks": 1449,
          "time": 16.848837209302324,
          "velocity": 0.2125984251968504
        },
        {
          "duration": 0.02325581395349019,
          "durationTicks": 2,
          "midi": 60,
          "name": "C4",
          "ticks": 1450,
          "time": 16.86046511627907,
          "velocity": 0.3543307086614173
        },
        {
          "duration": 0.23255813953488413,
          "durationTicks": 20,
          "midi": 76,
          "name": "E5",
          "ticks": 1450,
          "time": 16.86046511627907,
          "velocity": 0.2677165354330709
        },
        {
          "duration": 0.22093023255813904,
          "durationTicks": 19,
          "midi": 67,
          "name": "G4",
          "ticks": 1451,
          "time": 16.872093023255815,
          "velocity": 0.2992125984251969
        },
        {
          "duration": 0.05813953488372192,
          "durationTicks": 5,
          "midi": 89,
          "name": "F6",
          "ticks": 1451,
          "time": 16.872093023255815,
          "velocity": 0.09448818897637795
        },
        {
          "duration": 0.18604651162790375,
          "durationTicks": 16,
          "midi": 64,
          "name": "E4",
          "ticks": 1452,
          "time": 16.88372093023256,
          "velocity": 0.28346456692913385
        },
        {
          "duration": 0.08139534883721211,
          "durationTicks": 7,
          "midi": 82,
          "name": "A#5",
          "ticks": 1453,
          "time": 16.8953488372093,
          "velocity": 0.11023622047244094
        },
        {
          "duration": 0.04651162790697683,
          "durationTicks": 4,
          "midi": 60,
          "name": "C4",
          "ticks": 1455,
          "time": 16.91860465116279,
          "velocity": 0.3464566929133858
        },
        {
          "duration": 0.19767441860464885,
          "durationTicks": 17,
          "midi": 83,
          "name": "B5",
          "ticks": 1456,
          "time": 16.930232558139537,
          "velocity": 0.1732283464566929
        },
        {
          "duration": 0.12790697674418539,
          "durationTicks": 11,
          "midi": 48,
          "name": "C3",
          "ticks": 1457,
          "time": 16.941860465116278,
          "velocity": 0.25196850393700787
        },
        {
          "duration": 0.08139534883720856,
          "durationTicks": 7,
          "midi": 55,
          "name": "G3",
          "ticks": 1457,
          "time": 16.941860465116278,
          "velocity": 0.11023622047244094
        },
        {
          "duration": 0.05813953488371837,
          "durationTicks": 5,
          "midi": 71,
          "name": "B4",
          "ticks": 1463,
          "time": 17.011627906976745,
          "velocity": 0.1968503937007874
        },
        {
          "duration": 0.03488372093023173,
          "durationTicks": 3,
          "midi": 60,
          "name": "C4",
          "ticks": 1465,
          "time": 17.03488372093023,
          "velocity": 0.29133858267716534
        },
        {
          "duration": 0.02325581395349019,
          "durationTicks": 2,
          "midi": 49,
          "name": "C#3",
          "ticks": 1468,
          "time": 17.069767441860463,
          "velocity": 0.2677165354330709
        },
        {
          "duration": 0.02325581395349019,
          "durationTicks": 2,
          "midi": 59,
          "name": "B3",
          "ticks": 1468,
          "time": 17.069767441860463,
          "velocity": 0.23622047244094488
        },
        {
          "duration": 0.30232558139535115,
          "durationTicks": 26,
          "midi": 65,
          "name": "F4",
          "ticks": 1469,
          "time": 17.08139534883721,
          "velocity": 0.3228346456692913
        },
        {
          "duration": 0.5930232558139537,
          "durationTicks": 51,
          "midi": 77,
          "name": "F5",
          "ticks": 1469,
          "time": 17.08139534883721,
          "velocity": 0.4330708661417323
        },
        {
          "duration": 0.04651162790697683,
          "durationTicks": 4,
          "midi": 91,
          "name": "G6",
          "ticks": 1469,
          "time": 17.08139534883721,
          "velocity": 0.09448818897637795
        },
        {
          "duration": 0.12790697674418539,
          "durationTicks": 11,
          "midi": 60,
          "name": "C4",
          "ticks": 1470,
          "time": 17.093023255813954,
          "velocity": 0.33858267716535434
        },
        {
          "duration": 0.06976744186046346,
          "durationTicks": 6,
          "midi": 81,
          "name": "A5",
          "ticks": 1470,
          "time": 17.093023255813954,
          "velocity": 0.09448818897637795
        },
        {
          "duration": 0.03488372093023173,
          "durationTicks": 3,
          "midi": 85,
          "name": "C#6",
          "ticks": 1470,
          "time": 17.093023255813954,
          "velocity": 0.10236220472440945
        },
        {
          "duration": 0.05813953488371837,
          "durationTicks": 5,
          "midi": 88,
          "name": "E6",
          "ticks": 1471,
          "time": 17.1046511627907,
          "velocity": 0.15748031496062992
        },
        {
          "duration": 0.03488372093023173,
          "durationTicks": 3,
          "midi": 38,
          "name": "D2",
          "ticks": 1473,
          "time": 17.127906976744185,
          "velocity": 0.1732283464566929
        },
        {
          "duration": 0.22093023255813904,
          "durationTicks": 19,
          "midi": 50,
          "name": "D3",
          "ticks": 1473,
          "time": 17.127906976744185,
          "velocity": 0.2125984251968504
        },
        {
          "duration": 0.13953488372093048,
          "durationTicks": 12,
          "midi": 38,
          "name": "D2",
          "ticks": 1477,
          "time": 17.174418604651162,
          "velocity": 0.18110236220472442
        },
        {
          "duration": 0.1744186046511622,
          "durationTicks": 15,
          "midi": 88,
          "name": "E6",
          "ticks": 1477,
          "time": 17.174418604651162,
          "velocity": 0.1889763779527559
        },
        {
          "duration": 0.04651162790697683,
          "durationTicks": 4,
          "midi": 60,
          "name": "C4",
          "ticks": 1482,
          "time": 17.232558139534884,
          "velocity": 0.25984251968503935
        },
        {
          "duration": 0.04651162790697683,
          "durationTicks": 4,
          "midi": 60,
          "name": "C4",
          "ticks": 1487,
          "time": 17.290697674418606,
          "velocity": 0.2283464566929134
        },
        {
          "duration": 0.04651162790697683,
          "durationTicks": 4,
          "midi": 84,
          "name": "C6",
          "ticks": 1487,
          "time": 17.290697674418606,
          "velocity": 0.14173228346456693
        },
        {
          "duration": 0.46511627906976827,
          "durationTicks": 40,
          "midi": 81,
          "name": "A5",
          "ticks": 1488,
          "time": 17.302325581395348,
          "velocity": 0.2204724409448819
        },
        {
          "duration": 0.03488372093023173,
          "durationTicks": 3,
          "midi": 45,
          "name": "A2",
          "ticks": 1490,
          "time": 17.325581395348838,
          "velocity": 0.23622047244094488
        },
        {
          "duration": 0.023255813953486637,
          "durationTicks": 2,
          "midi": 45,
          "name": "A2",
          "ticks": 1494,
          "time": 17.372093023255815,
          "velocity": 0.2283464566929134
        },
        {
          "duration": 0.16279069767441712,
          "durationTicks": 14,
          "midi": 72,
          "name": "C5",
          "ticks": 1494,
          "time": 17.372093023255815,
          "velocity": 0.16535433070866143
        },
        {
          "duration": 0.11627906976744029,
          "durationTicks": 10,
          "midi": 60,
          "name": "C4",
          "ticks": 1495,
          "time": 17.38372093023256,
          "velocity": 0.15748031496062992
        },
        {
          "duration": 0.03488372093023173,
          "durationTicks": 3,
          "midi": 45,
          "name": "A2",
          "ticks": 1497,
          "time": 17.406976744186046,
          "velocity": 0.23622047244094488
        },
        {
          "duration": 0.034883720930235285,
          "durationTicks": 3,
          "midi": 51,
          "name": "D#3",
          "ticks": 1507,
          "time": 17.523255813953487,
          "velocity": 0.18110236220472442
        },
        {
          "duration": 0.2558139534883743,
          "durationTicks": 22,
          "midi": 65,
          "name": "F4",
          "ticks": 1507,
          "time": 17.523255813953487,
          "velocity": 0.33858267716535434
        },
        {
          "duration": 0.6046511627906987,
          "durationTicks": 52,
          "midi": 74,
          "name": "D5",
          "ticks": 1507,
          "time": 17.523255813953487,
          "velocity": 0.33070866141732286
        },
        {
          "duration": 0.24418604651162923,
          "durationTicks": 21,
          "midi": 69,
          "name": "A4",
          "ticks": 1508,
          "time": 17.53488372093023,
          "velocity": 0.2755905511811024
        },
        {
          "duration": 0.03488372093023173,
          "durationTicks": 3,
          "midi": 85,
          "name": "C#6",
          "ticks": 1508,
          "time": 17.53488372093023,
          "velocity": 0.08661417322834646
        },
        {
          "duration": 0.11627906976744029,
          "durationTicks": 10,
          "midi": 62,
          "name": "D4",
          "ticks": 1509,
          "time": 17.546511627906977,
          "velocity": 0.23622047244094488
        },
        {
          "duration": 0.11627906976744029,
          "durationTicks": 10,
          "midi": 53,
          "name": "F3",
          "ticks": 1510,
          "time": 17.558139534883722,
          "velocity": 0.2677165354330709
        },
        {
          "duration": 0.06976744186046346,
          "durationTicks": 6,
          "midi": 72,
          "name": "C5",
          "ticks": 1510,
          "time": 17.558139534883722,
          "velocity": 0.2125984251968504
        },
        {
          "duration": 0.2906976744186025,
          "durationTicks": 25,
          "midi": 87,
          "name": "D#6",
          "ticks": 1510,
          "time": 17.558139534883722,
          "velocity": 0.10236220472440945
        },
        {
          "duration": 0.1744186046511622,
          "durationTicks": 15,
          "midi": 88,
          "name": "E6",
          "ticks": 1512,
          "time": 17.58139534883721,
          "velocity": 0.11811023622047244
        },
        {
          "duration": 0.05813953488371837,
          "durationTicks": 5,
          "midi": 38,
          "name": "D2",
          "ticks": 1514,
          "time": 17.6046511627907,
          "velocity": 0.16535433070866143
        },
        {
          "duration": 0.08139534883720856,
          "durationTicks": 7,
          "midi": 38,
          "name": "D2",
          "ticks": 1520,
          "time": 17.674418604651162,
          "velocity": 0.15748031496062992
        },
        {
          "duration": 0.09302325581395365,
          "durationTicks": 8,
          "midi": 57,
          "name": "A3",
          "ticks": 1520,
          "time": 17.674418604651162,
          "velocity": 0.2047244094488189
        },
        {
          "duration": 0.08139534883720856,
          "durationTicks": 7,
          "midi": 62,
          "name": "D4",
          "ticks": 1520,
          "time": 17.674418604651162,
          "velocity": 0.18110236220472442
        },
        {
          "duration": 0.04651162790697683,
          "durationTicks": 4,
          "midi": 72,
          "name": "C5",
          "ticks": 1520,
          "time": 17.674418604651162,
          "velocity": 0.10236220472440945
        },
        {
          "duration": 0.02325581395349019,
          "durationTicks": 2,
          "midi": 50,
          "name": "D3",
          "ticks": 1527,
          "time": 17.75581395348837,
          "velocity": 0.2283464566929134
        },
        {
          "duration": 0.05813953488372192,
          "durationTicks": 5,
          "midi": 83,
          "name": "B5",
          "ticks": 1527,
          "time": 17.75581395348837,
          "velocity": 0.2204724409448819
        },
        {
          "duration": 0.3023255813953476,
          "durationTicks": 26,
          "midi": 71,
          "name": "B4",
          "ticks": 1528,
          "time": 17.767441860465116,
          "velocity": 0.25984251968503935
        },
        {
          "duration": 0.24418604651162923,
          "durationTicks": 21,
          "midi": 76,
          "name": "E5",
          "ticks": 1528,
          "time": 17.767441860465116,
          "velocity": 0.2440944881889764
        },
        {
          "duration": 0.22093023255813904,
          "durationTicks": 19,
          "midi": 82,
          "name": "A#5",
          "ticks": 1528,
          "time": 17.767441860465116,
          "velocity": 0.15748031496062992
        },
        {
          "duration": 0.1860465116279073,
          "durationTicks": 16,
          "midi": 59,
          "name": "B3",
          "ticks": 1529,
          "time": 17.77906976744186,
          "velocity": 0.2992125984251969
        },
        {
          "duration": 0.25581395348837077,
          "durationTicks": 22,
          "midi": 64,
          "name": "E4",
          "ticks": 1529,
          "time": 17.77906976744186,
          "velocity": 0.33858267716535434
        },
        {
          "duration": 0.25581395348837077,
          "durationTicks": 22,
          "midi": 67,
          "name": "G4",
          "ticks": 1529,
          "time": 17.77906976744186,
          "velocity": 0.25196850393700787
        },
        {
          "duration": 0.03488372093023173,
          "durationTicks": 3,
          "midi": 39,
          "name": "D#2",
          "ticks": 1530,
          "time": 17.790697674418606,
          "velocity": 0.25984251968503935
        },
        {
          "duration": 0.023255813953486637,
          "durationTicks": 2,
          "midi": 40,
          "name": "E2",
          "ticks": 1533,
          "time": 17.825581395348838,
          "velocity": 0.2283464566929134
        },
        {
          "duration": 0.15116279069767558,
          "durationTicks": 13,
          "midi": 40,
          "name": "E2",
          "ticks": 1536,
          "time": 17.86046511627907,
          "velocity": 0.23622047244094488
        },
        {
          "duration": 0.03488372093023173,
          "durationTicks": 3,
          "midi": 87,
          "name": "D#6",
          "ticks": 1545,
          "time": 17.96511627906977,
          "velocity": 0.12598425196850394
        },
        {
          "duration": 0.23255813953488413,
          "durationTicks": 20,
          "midi": 81,
          "name": "A5",
          "ticks": 1547,
          "time": 17.988372093023255,
          "velocity": 0.2204724409448819
        },
        {
          "duration": 0.23255813953488413,
          "durationTicks": 20,
          "midi": 86,
          "name": "D6",
          "ticks": 1547,
          "time": 17.988372093023255,
          "velocity": 0.3464566929133858
        },
        {
          "duration": 0.3255813953488378,
          "durationTicks": 28,
          "midi": 89,
          "name": "F6",
          "ticks": 1547,
          "time": 17.988372093023255,
          "velocity": 0.11811023622047244
        },
        {
          "duration": 0.6976744186046524,
          "durationTicks": 60,
          "midi": 77,
          "name": "F5",
          "ticks": 1548,
          "time": 18,
          "velocity": 0.4015748031496063
        },
        {
          "duration": 0.10465116279069875,
          "durationTicks": 9,
          "midi": 40,
          "name": "E2",
          "ticks": 1550,
          "time": 18.023255813953487,
          "velocity": 0.18110236220472442
        },
        {
          "duration": 0.04651162790697683,
          "durationTicks": 4,
          "midi": 45,
          "name": "A2",
          "ticks": 1567,
          "time": 18.22093023255814,
          "velocity": 0.1968503937007874
        },
        {
          "duration": 0.22093023255813904,
          "durationTicks": 19,
          "midi": 60,
          "name": "C4",
          "ticks": 1567,
          "time": 18.22093023255814,
          "velocity": 0.3543307086614173
        },
        {
          "duration": 0.22093023255813904,
          "durationTicks": 19,
          "midi": 65,
          "name": "F4",
          "ticks": 1567,
          "time": 18.22093023255814,
          "velocity": 0.33858267716535434
        },
        {
          "duration": 0.15116279069767558,
          "durationTicks": 13,
          "midi": 69,
          "name": "A4",
          "ticks": 1567,
          "time": 18.22093023255814,
          "velocity": 0.13385826771653545
        },
        {
          "duration": 0.04651162790697683,
          "durationTicks": 4,
          "midi": 88,
          "name": "E6",
          "ticks": 1567,
          "time": 18.22093023255814,
          "velocity": 0.11023622047244094
        },
        {
          "duration": 0.03488372093023173,
          "durationTicks": 3,
          "midi": 85,
          "name": "C#6",
          "ticks": 1569,
          "time": 18.24418604651163,
          "velocity": 0.08661417322834646
        },
        {
          "duration": 0.06976744186046346,
          "durationTicks": 6,
          "midi": 45,
          "name": "A2",
          "ticks": 1572,
          "time": 18.27906976744186,
          "velocity": 0.2283464566929134
        },
        {
          "duration": 0.04651162790697683,
          "durationTicks": 4,
          "midi": 45,
          "name": "A2",
          "ticks": 1579,
          "time": 18.36046511627907,
          "velocity": 0.2204724409448819
        },
        {
          "duration": 0.29069767441860606,
          "durationTicks": 25,
          "midi": 81,
          "name": "A5",
          "ticks": 1583,
          "time": 18.406976744186046,
          "velocity": 0.11811023622047244
        },
        {
          "duration": 0.11627906976744384,
          "durationTicks": 10,
          "midi": 69,
          "name": "A4",
          "ticks": 1586,
          "time": 18.441860465116278,
          "velocity": 0.12598425196850394
        },
        {
          "duration": 0.04651162790697683,
          "durationTicks": 4,
          "midi": 50,
          "name": "D3",
          "ticks": 1587,
          "time": 18.453488372093023,
          "velocity": 0.15748031496062992
        },
        {
          "duration": 0.24418604651162923,
          "durationTicks": 21,
          "midi": 60,
          "name": "C4",
          "ticks": 1587,
          "time": 18.453488372093023,
          "velocity": 0.3858267716535433
        },
        {
          "duration": 0.1976744186046524,
          "durationTicks": 17,
          "midi": 88,
          "name": "E6",
          "ticks": 1587,
          "time": 18.453488372093023,
          "velocity": 0.14960629921259844
        },
        {
          "duration": 0.23255813953488413,
          "durationTicks": 20,
          "midi": 65,
          "name": "F4",
          "ticks": 1588,
          "time": 18.46511627906977,
          "velocity": 0.3779527559055118
        },
        {
          "duration": 0.03488372093023173,
          "durationTicks": 3,
          "midi": 91,
          "name": "G6",
          "ticks": 1588,
          "time": 18.46511627906977,
          "velocity": 0.07086614173228346
        },
        {
          "duration": 0.05813953488371837,
          "durationTicks": 5,
          "midi": 85,
          "name": "C#6",
          "ticks": 1589,
          "time": 18.476744186046513,
          "velocity": 0.11811023622047244
        },
        {
          "duration": 0.11627906976744029,
          "durationTicks": 10,
          "midi": 38,
          "name": "D2",
          "ticks": 1596,
          "time": 18.558139534883722,
          "velocity": 0.15748031496062992
        },
        {
          "duration": 0.03488372093023173,
          "durationTicks": 3,
          "midi": 47,
          "name": "B2",
          "ticks": 1606,
          "time": 18.674418604651162,
          "velocity": 0.25984251968503935
        },
        {
          "duration": 0.3255813953488378,
          "durationTicks": 28,
          "midi": 74,
          "name": "D5",
          "ticks": 1607,
          "time": 18.686046511627907,
          "velocity": 0.18110236220472442
        },
        {
          "duration": 0.1976744186046524,
          "durationTicks": 17,
          "midi": 76,
          "name": "E5",
          "ticks": 1607,
          "time": 18.686046511627907,
          "velocity": 0.23622047244094488
        },
        {
          "duration": 0.1744186046511622,
          "durationTicks": 15,
          "midi": 59,
          "name": "B3",
          "ticks": 1608,
          "time": 18.697674418604652,
          "velocity": 0.36220472440944884
        },
        {
          "duration": 0.20930232558139394,
          "durationTicks": 18,
          "midi": 64,
          "name": "E4",
          "ticks": 1608,
          "time": 18.697674418604652,
          "velocity": 0.3464566929133858
        },
        {
          "duration": 0.20930232558139394,
          "durationTicks": 18,
          "midi": 67,
          "name": "G4",
          "ticks": 1608,
          "time": 18.697674418604652,
          "velocity": 0.28346456692913385
        },
        {
          "duration": 0.04651162790697683,
          "durationTicks": 4,
          "midi": 48,
          "name": "C3",
          "ticks": 1612,
          "time": 18.74418604651163,
          "velocity": 0.2125984251968504
        },
        {
          "duration": 0.05813953488372192,
          "durationTicks": 5,
          "midi": 48,
          "name": "C3",
          "ticks": 1619,
          "time": 18.825581395348838,
          "velocity": 0.2047244094488189
        },
        {
          "duration": 0.25581395348837077,
          "durationTicks": 22,
          "midi": 60,
          "name": "C4",
          "ticks": 1626,
          "time": 18.906976744186046,
          "velocity": 0.3543307086614173
        },
        {
          "duration": 0.3023255813953476,
          "durationTicks": 26,
          "midi": 65,
          "name": "F4",
          "ticks": 1626,
          "time": 18.906976744186046,
          "velocity": 0.3464566929133858
        },
        {
          "duration": 0.46511627906976827,
          "durationTicks": 40,
          "midi": 77,
          "name": "F5",
          "ticks": 1626,
          "time": 18.906976744186046,
          "velocity": 0.4330708661417323
        },
        {
          "duration": 0.04651162790697683,
          "durationTicks": 4,
          "midi": 88,
          "name": "E6",
          "ticks": 1626,
          "time": 18.906976744186046,
          "velocity": 0.13385826771653545
        },
        {
          "duration": 0.5581395348837219,
          "durationTicks": 48,
          "midi": 81,
          "name": "A5",
          "ticks": 1627,
          "time": 18.91860465116279,
          "velocity": 0.2204724409448819
        },
        {
          "duration": 0.43023255813953654,
          "durationTicks": 37,
          "midi": 69,
          "name": "A4",
          "ticks": 1629,
          "time": 18.941860465116278,
          "velocity": 0.3464566929133858
        },
        {
          "duration": 0.04651162790697683,
          "durationTicks": 4,
          "midi": 88,
          "name": "E6",
          "ticks": 1633,
          "time": 18.988372093023255,
          "velocity": 0.09448818897637795
        },
        {
          "duration": 1.8837209302325597,
          "durationTicks": 162,
          "midi": 74,
          "name": "D5",
          "ticks": 1644,
          "time": 19.11627906976744,
          "velocity": 0.5039370078740157
        },
        {
          "duration": 0.1046511627906952,
          "durationTicks": 9,
          "midi": 60,
          "name": "C4",
          "ticks": 1651,
          "time": 19.197674418604652,
          "velocity": 0.15748031496062992
        },
        {
          "duration": 0.02325581395349019,
          "durationTicks": 2,
          "midi": 38,
          "name": "D2",
          "ticks": 1652,
          "time": 19.209302325581394,
          "velocity": 0.25984251968503935
        },
        {
          "duration": 0.023255813953486637,
          "durationTicks": 2,
          "midi": 38,
          "name": "D2",
          "ticks": 1659,
          "time": 19.290697674418606,
          "velocity": 0.25196850393700787
        },
        {
          "duration": 0.03488372093023173,
          "durationTicks": 3,
          "midi": 38,
          "name": "D2",
          "ticks": 1662,
          "time": 19.325581395348838,
          "velocity": 0.25984251968503935
        },
        {
          "duration": 0.03488372093023173,
          "durationTicks": 3,
          "midi": 84,
          "name": "C6",
          "ticks": 1663,
          "time": 19.337209302325583,
          "velocity": 0.10236220472440945
        },
        {
          "duration": 0.23255813953488413,
          "durationTicks": 20,
          "midi": 62,
          "name": "D4",
          "ticks": 1664,
          "time": 19.348837209302324,
          "velocity": 0.28346456692913385
        },
        {
          "duration": 0.22093023255813904,
          "durationTicks": 19,
          "midi": 67,
          "name": "G4",
          "ticks": 1665,
          "time": 19.36046511627907,
          "velocity": 0.3700787401574803
        },
        {
          "duration": 0.22093023255813904,
          "durationTicks": 19,
          "midi": 72,
          "name": "C5",
          "ticks": 1665,
          "time": 19.36046511627907,
          "velocity": 0.4409448818897638
        },
        {
          "duration": 0.3139534883720927,
          "durationTicks": 27,
          "midi": 76,
          "name": "E5",
          "ticks": 1665,
          "time": 19.36046511627907,
          "velocity": 0.4251968503937008
        },
        {
          "duration": 0.10465116279069875,
          "durationTicks": 9,
          "midi": 91,
          "name": "G6",
          "ticks": 1665,
          "time": 19.36046511627907,
          "velocity": 0.18110236220472442
        },
        {
          "duration": 0.20930232558139394,
          "durationTicks": 18,
          "midi": 87,
          "name": "D#6",
          "ticks": 1667,
          "time": 19.38372093023256,
          "velocity": 0.07874015748031496
        },
        {
          "duration": 0.1860465116279073,
          "durationTicks": 16,
          "midi": 53,
          "name": "F3",
          "ticks": 1668,
          "time": 19.3953488372093,
          "velocity": 0.25984251968503935
        },
        {
          "duration": 0.08139534883720856,
          "durationTicks": 7,
          "midi": 57,
          "name": "A3",
          "ticks": 1677,
          "time": 19.5,
          "velocity": 0.11023622047244094
        },
        {
          "duration": 0.03488372093023173,
          "durationTicks": 3,
          "midi": 65,
          "name": "F4",
          "ticks": 1677,
          "time": 19.5,
          "velocity": 0.25984251968503935
        },
        {
          "duration": 0.27906976744186096,
          "durationTicks": 24,
          "midi": 69,
          "name": "A4",
          "ticks": 1682,
          "time": 19.558139534883722,
          "velocity": 0.3700787401574803
        },
        {
          "duration": 0.05813953488372192,
          "durationTicks": 5,
          "midi": 65,
          "name": "F4",
          "ticks": 1683,
          "time": 19.569767441860463,
          "velocity": 0.44881889763779526
        },
        {
          "duration": 0.03488372093023173,
          "durationTicks": 3,
          "midi": 40,
          "name": "E2",
          "ticks": 1684,
          "time": 19.58139534883721,
          "velocity": 0.2125984251968504
        },
        {
          "duration": 0.04651162790697683,
          "durationTicks": 4,
          "midi": 83,
          "name": "B5",
          "ticks": 1684,
          "time": 19.58139534883721,
          "velocity": 0.2125984251968504
        },
        {
          "duration": 0.1976744186046524,
          "durationTicks": 17,
          "midi": 59,
          "name": "B3",
          "ticks": 1685,
          "time": 19.593023255813954,
          "velocity": 0.30708661417322836
        },
        {
          "duration": 0.2209302325581426,
          "durationTicks": 19,
          "midi": 84,
          "name": "C6",
          "ticks": 1687,
          "time": 19.61627906976744,
          "velocity": 0.13385826771653545
        },
        {
          "duration": 0.11627906976744384,
          "durationTicks": 10,
          "midi": 87,
          "name": "D#6",
          "ticks": 1687,
          "time": 19.61627906976744,
          "velocity": 0.11023622047244094
        },
        {
          "duration": 0.06976744186046346,
          "durationTicks": 6,
          "midi": 40,
          "name": "E2",
          "ticks": 1689,
          "time": 19.63953488372093,
          "velocity": 0.2204724409448819
        },
        {
          "duration": 0.03488372093023173,
          "durationTicks": 3,
          "midi": 65,
          "name": "F4",
          "ticks": 1689,
          "time": 19.63953488372093,
          "velocity": 0.4251968503937008
        },
        {
          "duration": 0.03488372093023173,
          "durationTicks": 3,
          "midi": 65,
          "name": "F4",
          "ticks": 1693,
          "time": 19.686046511627907,
          "velocity": 0.3543307086614173
        },
        {
          "duration": 0.3604651162790695,
          "durationTicks": 31,
          "midi": 76,
          "name": "E5",
          "ticks": 1693,
          "time": 19.686046511627907,
          "velocity": 0.4251968503937008
        },
        {
          "duration": 0.13953488372093048,
          "durationTicks": 12,
          "midi": 40,
          "name": "E2",
          "ticks": 1696,
          "time": 19.72093023255814,
          "velocity": 0.23622047244094488
        },
        {
          "duration": 0.03488372093023173,
          "durationTicks": 3,
          "midi": 65,
          "name": "F4",
          "ticks": 1697,
          "time": 19.732558139534884,
          "velocity": 0.33858267716535434
        },
        {
          "duration": 0.04651162790697683,
          "durationTicks": 4,
          "midi": 65,
          "name": "F4",
          "ticks": 1702,
          "time": 19.790697674418606,
          "velocity": 0.33070866141732286
        },
        {
          "duration": 0.6744186046511658,
          "durationTicks": 58,
          "midi": 72,
          "name": "C5",
          "ticks": 1703,
          "time": 19.802325581395348,
          "velocity": 0.4566929133858268
        },
        {
          "duration": 0.06976744186046702,
          "durationTicks": 6,
          "midi": 91,
          "name": "G6",
          "ticks": 1704,
          "time": 19.813953488372093,
          "velocity": 0.11811023622047244
        },
        {
          "duration": 0.6744186046511622,
          "durationTicks": 58,
          "midi": 67,
          "name": "G4",
          "ticks": 1705,
          "time": 19.825581395348838,
          "velocity": 0.4094488188976378
        },
        {
          "duration": 0.05813953488372192,
          "durationTicks": 5,
          "midi": 40,
          "name": "E2",
          "ticks": 1709,
          "time": 19.872093023255815,
          "velocity": 0.13385826771653545
        },
        {
          "duration": 0.08139534883720856,
          "durationTicks": 7,
          "midi": 77,
          "name": "F5",
          "ticks": 1723,
          "time": 20.03488372093023,
          "velocity": 0.41732283464566927
        },
        {
          "duration": 0.1860465116279073,
          "durationTicks": 16,
          "midi": 83,
          "name": "B5",
          "ticks": 1723,
          "time": 20.03488372093023,
          "velocity": 0.2204724409448819
        },
        {
          "duration": 0.12790697674418539,
          "durationTicks": 11,
          "midi": 43,
          "name": "G2",
          "ticks": 1725,
          "time": 20.058139534883722,
          "velocity": 0.33070866141732286
        },
        {
          "duration": 0.1860465116279073,
          "durationTicks": 16,
          "midi": 62,
          "name": "D4",
          "ticks": 1726,
          "time": 20.069767441860463,
          "velocity": 0.08661417322834646
        },
        {
          "duration": 0.1744186046511622,
          "durationTicks": 15,
          "midi": 76,
          "name": "E5",
          "ticks": 1729,
          "time": 20.1046511627907,
          "velocity": 0.4409448818897638
        },
        {
          "duration": 0.04651162790697683,
          "durationTicks": 4,
          "midi": 50,
          "name": "D3",
          "ticks": 1733,
          "time": 20.151162790697676,
          "velocity": 0.11023622047244094
        },
        {
          "duration": 0.08139534883720856,
          "durationTicks": 7,
          "midi": 85,
          "name": "C#6",
          "ticks": 1735,
          "time": 20.174418604651162,
          "velocity": 0.07086614173228346
        },
        {
          "duration": 0.12790697674418539,
          "durationTicks": 11,
          "midi": 43,
          "name": "G2",
          "ticks": 1737,
          "time": 20.197674418604652,
          "velocity": 0.28346456692913385
        },
        {
          "duration": 0.05813953488371837,
          "durationTicks": 5,
          "midi": 83,
          "name": "B5",
          "ticks": 1741,
          "time": 20.24418604651163,
          "velocity": 0.2204724409448819
        },
        {
          "duration": 1.1395348837209305,
          "durationTicks": 98,
          "midi": 77,
          "name": "F5",
          "ticks": 1743,
          "time": 20.267441860465116,
          "velocity": 0.4330708661417323
        },
        {
          "duration": 0.24418604651162923,
          "durationTicks": 21,
          "midi": 82,
          "name": "A#5",
          "ticks": 1743,
          "time": 20.267441860465116,
          "velocity": 0.41732283464566927
        },
        {
          "duration": 0.20930232558139394,
          "durationTicks": 18,
          "midi": 62,
          "name": "D4",
          "ticks": 1744,
          "time": 20.27906976744186,
          "velocity": 0.25984251968503935
        },
        {
          "duration": 0.720930232558139,
          "durationTicks": 62,
          "midi": 70,
          "name": "A#4",
          "ticks": 1744,
          "time": 20.27906976744186,
          "velocity": 0.4330708661417323
        },
        {
          "duration": 0.11627906976744029,
          "durationTicks": 10,
          "midi": 58,
          "name": "A#3",
          "ticks": 1748,
          "time": 20.325581395348838,
          "velocity": 0.2047244094488189
        },
        {
          "duration": 0.12790697674418539,
          "durationTicks": 11,
          "midi": 43,
          "name": "G2",
          "ticks": 1751,
          "time": 20.36046511627907,
          "velocity": 0.1889763779527559
        },
        {
          "duration": 0.03488372093023173,
          "durationTicks": 3,
          "midi": 58,
          "name": "A#3",
          "ticks": 1759,
          "time": 20.453488372093023,
          "velocity": 0.18110236220472442
        },
        {
          "duration": 0.046511627906973274,
          "durationTicks": 4,
          "midi": 83,
          "name": "B5",
          "ticks": 1761,
          "time": 20.476744186046513,
          "velocity": 0.15748031496062992
        },
        {
          "duration": 0.23255813953488413,
          "durationTicks": 20,
          "midi": 53,
          "name": "F3",
          "ticks": 1762,
          "time": 20.488372093023255,
          "velocity": 0.28346456692913385
        },
        {
          "duration": 0.3255813953488378,
          "durationTicks": 28,
          "midi": 84,
          "name": "C6",
          "ticks": 1762,
          "time": 20.488372093023255,
          "velocity": 0.2755905511811024
        },
        {
          "duration": 0.06976744186046702,
          "durationTicks": 6,
          "midi": 88,
          "name": "E6",
          "ticks": 1762,
          "time": 20.488372093023255,
          "velocity": 0.1732283464566929
        },
        {
          "duration": 0.22093023255813904,
          "durationTicks": 19,
          "midi": 60,
          "name": "C4",
          "ticks": 1763,
          "time": 20.5,
          "velocity": 0.3700787401574803
        },
        {
          "duration": 0.03488372093023173,
          "durationTicks": 3,
          "midi": 93,
          "name": "A6",
          "ticks": 1763,
          "time": 20.5,
          "velocity": 0.08661417322834646
        },
        {
          "duration": 0.5116279069767415,
          "durationTicks": 44,
          "midi": 65,
          "name": "F4",
          "ticks": 1764,
          "time": 20.511627906976745,
          "velocity": 0.4409448818897638
        },
        {
          "duration": 0.05813953488371837,
          "durationTicks": 5,
          "midi": 87,
          "name": "D#6",
          "ticks": 1764,
          "time": 20.511627906976745,
          "velocity": 0.14173228346456693
        },
        {
          "duration": 0.04651162790697683,
          "durationTicks": 4,
          "midi": 94,
          "name": "A#6",
          "ticks": 1764,
          "time": 20.511627906976745,
          "velocity": 0.08661417322834646
        },
        {
          "duration": 0.03488372093023173,
          "durationTicks": 3,
          "midi": 41,
          "name": "F2",
          "ticks": 1767,
          "time": 20.546511627906977,
          "velocity": 0.14173228346456693
        },
        {
          "duration": 0.04651162790697683,
          "durationTicks": 4,
          "midi": 83,
          "name": "B5",
          "ticks": 1767,
          "time": 20.546511627906977,
          "velocity": 0.13385826771653545
        },
        {
          "duration": 0.3720930232558146,
          "durationTicks": 32,
          "midi": 81,
          "name": "A5",
          "ticks": 1768,
          "time": 20.558139534883722,
          "velocity": 0.14960629921259844
        },
        {
          "duration": 0.03488372093023173,
          "durationTicks": 3,
          "midi": 42,
          "name": "F#2",
          "ticks": 1770,
          "time": 20.58139534883721,
          "velocity": 0.13385826771653545
        },
        {
          "duration": 0.04651162790697683,
          "durationTicks": 4,
          "midi": 88,
          "name": "E6",
          "ticks": 1771,
          "time": 20.593023255813954,
          "velocity": 0.11811023622047244
        },
        {
          "duration": 0.06976744186046702,
          "durationTicks": 6,
          "midi": 87,
          "name": "D#6",
          "ticks": 1773,
          "time": 20.61627906976744,
          "velocity": 0.12598425196850394
        },
        {
          "duration": 0.06976744186046346,
          "durationTicks": 6,
          "midi": 41,
          "name": "F2",
          "ticks": 1776,
          "time": 20.651162790697676,
          "velocity": 0.12598425196850394
        },
        {
          "duration": 0.04651162790697683,
          "durationTicks": 4,
          "midi": 88,
          "name": "E6",
          "ticks": 1778,
          "time": 20.674418604651162,
          "velocity": 0.10236220472440945
        },
        {
          "duration": 0.04651162790697683,
          "durationTicks": 4,
          "midi": 44,
          "name": "G#2",
          "ticks": 1782,
          "time": 20.72093023255814,
          "velocity": 0.2125984251968504
        },
        {
          "duration": 0.22093023255813904,
          "durationTicks": 19,
          "midi": 83,
          "name": "B5",
          "ticks": 1782,
          "time": 20.72093023255814,
          "velocity": 0.16535433070866143
        },
        {
          "duration": 0.4418604651162781,
          "durationTicks": 38,
          "midi": 62,
          "name": "D4",
          "ticks": 1783,
          "time": 20.732558139534884,
          "velocity": 0.33070866141732286
        },
        {
          "duration": 0.1976744186046524,
          "durationTicks": 17,
          "midi": 67,
          "name": "G4",
          "ticks": 1783,
          "time": 20.732558139534884,
          "velocity": 0.33858267716535434
        },
        {
          "duration": 0.02325581395349019,
          "durationTicks": 2,
          "midi": 42,
          "name": "F#2",
          "ticks": 1786,
          "time": 20.767441860465116,
          "velocity": 0.23622047244094488
        },
        {
          "duration": 0.05813953488372192,
          "durationTicks": 5,
          "midi": 58,
          "name": "A#3",
          "ticks": 1786,
          "time": 20.767441860465116,
          "velocity": 0.2204724409448819
        },
        {
          "duration": 0.15116279069767202,
          "durationTicks": 13,
          "midi": 43,
          "name": "G2",
          "ticks": 1788,
          "time": 20.790697674418606,
          "velocity": 0.1732283464566929
        },
        {
          "duration": 0.05813953488371837,
          "durationTicks": 5,
          "midi": 58,
          "name": "A#3",
          "ticks": 1792,
          "time": 20.837209302325583,
          "velocity": 0.2125984251968504
        },
        {
          "duration": 0.03488372093023173,
          "durationTicks": 3,
          "midi": 55,
          "name": "G3",
          "ticks": 1799,
          "time": 20.91860465116279,
          "velocity": 0.18110236220472442
        },
        {
          "duration": 0.046511627906973274,
          "durationTicks": 4,
          "midi": 50,
          "name": "D3",
          "ticks": 1804,
          "time": 20.976744186046513,
          "velocity": 0.13385826771653545
        },
        {
          "duration": 0.05813953488372192,
          "durationTicks": 5,
          "midi": 83,
          "name": "B5",
          "ticks": 1808,
          "time": 21.023255813953487,
          "velocity": 0.16535433070866143
        },
        {
          "duration": 0.11627906976744029,
          "durationTicks": 10,
          "midi": 55,
          "name": "G3",
          "ticks": 1810,
          "time": 21.046511627906977,
          "velocity": 0.12598425196850394
        },
        {
          "duration": 0.08139534883720856,
          "durationTicks": 7,
          "midi": 65,
          "name": "F4",
          "ticks": 1810,
          "time": 21.046511627906977,
          "velocity": 0.11811023622047244
        },
        {
          "duration": 0.1046511627906952,
          "durationTicks": 9,
          "midi": 50,
          "name": "D3",
          "ticks": 1811,
          "time": 21.058139534883722,
          "velocity": 0.12598425196850394
        },
        {
          "duration": 0.04651162790697683,
          "durationTicks": 4,
          "midi": 83,
          "name": "B5",
          "ticks": 1815,
          "time": 21.1046511627907,
          "velocity": 0.14960629921259844
        },
        {
          "duration": 0.03488372093023173,
          "durationTicks": 3,
          "midi": 75,
          "name": "D#5",
          "ticks": 1819,
          "time": 21.151162790697676,
          "velocity": 0.16535433070866143
        },
        {
          "duration": 0.24418604651162923,
          "durationTicks": 21,
          "midi": 65,
          "name": "F4",
          "ticks": 1821,
          "time": 21.174418604651162,
          "velocity": 0.36220472440944884
        },
        {
          "duration": 0.08139534883720856,
          "durationTicks": 7,
          "midi": 81,
          "name": "A5",
          "ticks": 1821,
          "time": 21.174418604651162,
          "velocity": 0.11023622047244094
        },
        {
          "duration": 0.04651162790697683,
          "durationTicks": 4,
          "midi": 83,
          "name": "B5",
          "ticks": 1821,
          "time": 21.174418604651162,
          "velocity": 0.14173228346456693
        },
        {
          "duration": 0.05813953488372192,
          "durationTicks": 5,
          "midi": 85,
          "name": "C#6",
          "ticks": 1821,
          "time": 21.174418604651162,
          "velocity": 0.16535433070866143
        },
        {
          "duration": 0.05813953488372192,
          "durationTicks": 5,
          "midi": 53,
          "name": "F3",
          "ticks": 1822,
          "time": 21.186046511627907,
          "velocity": 0.25984251968503935
        },
        {
          "duration": 0.20930232558139394,
          "durationTicks": 18,
          "midi": 62,
          "name": "D4",
          "ticks": 1822,
          "time": 21.186046511627907,
          "velocity": 0.2047244094488189
        },
        {
          "duration": 0.05813953488372192,
          "durationTicks": 5,
          "midi": 72,
          "name": "C5",
          "ticks": 1822,
          "time": 21.186046511627907,
          "velocity": 0.1889763779527559
        },
        {
          "duration": 1.4534883720930232,
          "durationTicks": 125,
          "midi": 74,
          "name": "D5",
          "ticks": 1822,
          "time": 21.186046511627907,
          "velocity": 0.4094488188976378
        },
        {
          "duration": 0.3837209302325597,
          "durationTicks": 33,
          "midi": 87,
          "name": "D#6",
          "ticks": 1824,
          "time": 21.209302325581394,
          "velocity": 0.1968503937007874
        },
        {
          "duration": 0.22093023255813904,
          "durationTicks": 19,
          "midi": 88,
          "name": "E6",
          "ticks": 1825,
          "time": 21.22093023255814,
          "velocity": 0.11811023622047244
        },
        {
          "duration": 0.16279069767441712,
          "durationTicks": 14,
          "midi": 38,
          "name": "D2",
          "ticks": 1826,
          "time": 21.232558139534884,
          "velocity": 0.1968503937007874
        },
        {
          "duration": 0.02325581395349019,
          "durationTicks": 2,
          "midi": 53,
          "name": "F3",
          "ticks": 1828,
          "time": 21.25581395348837,
          "velocity": 0.2755905511811024
        },
        {
          "duration": 0.08139534883720856,
          "durationTicks": 7,
          "midi": 72,
          "name": "C5",
          "ticks": 1829,
          "time": 21.267441860465116,
          "velocity": 0.15748031496062992
        },
        {
          "duration": 0.10465116279069875,
          "durationTicks": 9,
          "midi": 69,
          "name": "A4",
          "ticks": 1834,
          "time": 21.325581395348838,
          "velocity": 0.13385826771653545
        },
        {
          "duration": 0.03488372093023173,
          "durationTicks": 3,
          "midi": 84,
          "name": "C6",
          "ticks": 1837,
          "time": 21.36046511627907,
          "velocity": 0.07086614173228346
        },
        {
          "duration": 0.05813953488372192,
          "durationTicks": 5,
          "midi": 72,
          "name": "C5",
          "ticks": 1838,
          "time": 21.372093023255815,
          "velocity": 0.25196850393700787
        },
        {
          "duration": 0.1744186046511622,
          "durationTicks": 15,
          "midi": 83,
          "name": "B5",
          "ticks": 1840,
          "time": 21.3953488372093,
          "velocity": 0.2283464566929134
        },
        {
          "duration": 0.20930232558139394,
          "durationTicks": 18,
          "midi": 59,
          "name": "B3",
          "ticks": 1841,
          "time": 21.406976744186046,
          "velocity": 0.29133858267716534
        },
        {
          "duration": 0.25581395348837077,
          "durationTicks": 22,
          "midi": 76,
          "name": "E5",
          "ticks": 1841,
          "time": 21.406976744186046,
          "velocity": 0.23622047244094488
        },
        {
          "duration": 0.023255813953486637,
          "durationTicks": 2,
          "midi": 54,
          "name": "F#3",
          "ticks": 1842,
          "time": 21.41860465116279,
          "velocity": 0.31496062992125984
        },
        {
          "duration": 0.06976744186046346,
          "durationTicks": 6,
          "midi": 64,
          "name": "E4",
          "ticks": 1842,
          "time": 21.41860465116279,
          "velocity": 0.4094488188976378
        },
        {
          "duration": 0.16279069767441712,
          "durationTicks": 14,
          "midi": 67,
          "name": "G4",
          "ticks": 1842,
          "time": 21.41860465116279,
          "velocity": 0.2677165354330709
        },
        {
          "duration": 0.23255813953488058,
          "durationTicks": 20,
          "midi": 71,
          "name": "B4",
          "ticks": 1843,
          "time": 21.430232558139537,
          "velocity": 0.29133858267716534
        },
        {
          "duration": 0.12790697674418539,
          "durationTicks": 11,
          "midi": 53,
          "name": "F3",
          "ticks": 1846,
          "time": 21.46511627906977,
          "velocity": 0.3228346456692913
        },
        {
          "duration": 0.13953488372093048,
          "durationTicks": 12,
          "midi": 41,
          "name": "F2",
          "ticks": 1849,
          "time": 21.5,
          "velocity": 0.15748031496062992
        },
        {
          "duration": 0.26744186046511587,
          "durationTicks": 23,
          "midi": 67,
          "name": "G4",
          "ticks": 1857,
          "time": 21.593023255813954,
          "velocity": 0.23622047244094488
        },
        {
          "duration": 0.04651162790697683,
          "durationTicks": 4,
          "midi": 53,
          "name": "F3",
          "ticks": 1858,
          "time": 21.6046511627907,
          "velocity": 0.2047244094488189
        },
        {
          "duration": 0.03488372093023173,
          "durationTicks": 3,
          "midi": 65,
          "name": "F4",
          "ticks": 1860,
          "time": 21.627906976744185,
          "velocity": 0.2677165354330709
        },
        {
          "duration": 0.03488372093023173,
          "durationTicks": 3,
          "midi": 53,
          "name": "F3",
          "ticks": 1864,
          "time": 21.674418604651162,
          "velocity": 0.18110236220472442
        },
        {
          "duration": 0.03488372093023173,
          "durationTicks": 3,
          "midi": 43,
          "name": "G2",
          "ticks": 1865,
          "time": 21.686046511627907,
          "velocity": 0.2047244094488189
        },
        {
          "duration": 0.11627906976744029,
          "durationTicks": 10,
          "midi": 43,
          "name": "G2",
          "ticks": 1869,
          "time": 21.732558139534884,
          "velocity": 0.14173228346456693
        },
        {
          "duration": 0.09302325581395365,
          "durationTicks": 8,
          "midi": 55,
          "name": "G3",
          "ticks": 1871,
          "time": 21.75581395348837,
          "velocity": 0.14960629921259844
        },
        {
          "duration": 0.30232558139535115,
          "durationTicks": 26,
          "midi": 62,
          "name": "D4",
          "ticks": 1879,
          "time": 21.848837209302324,
          "velocity": 0.28346456692913385
        },
        {
          "duration": 0.3604651162790695,
          "durationTicks": 31,
          "midi": 82,
          "name": "A#5",
          "ticks": 1879,
          "time": 21.848837209302324,
          "velocity": 0.4015748031496063
        },
        {
          "duration": 0.1744186046511622,
          "durationTicks": 15,
          "midi": 93,
          "name": "A6",
          "ticks": 1879,
          "time": 21.848837209302324,
          "velocity": 0.1732283464566929
        },
        {
          "duration": 0.02325581395349019,
          "durationTicks": 2,
          "midi": 65,
          "name": "F4",
          "ticks": 1880,
          "time": 21.86046511627907,
          "velocity": 0.2992125984251969
        },
        {
          "duration": 0.12790697674418539,
          "durationTicks": 11,
          "midi": 70,
          "name": "A#4",
          "ticks": 1880,
          "time": 21.86046511627907,
          "velocity": 0.4645669291338583
        },
        {
          "duration": 0.5116279069767451,
          "durationTicks": 44,
          "midi": 77,
          "name": "F5",
          "ticks": 1880,
          "time": 21.86046511627907,
          "velocity": 0.3543307086614173
        },
        {
          "duration": 0.3604651162790695,
          "durationTicks": 31,
          "midi": 79,
          "name": "G5",
          "ticks": 1881,
          "time": 21.872093023255815,
          "velocity": 0.2125984251968504
        },
        {
          "duration": 0.1976744186046524,
          "durationTicks": 17,
          "midi": 67,
          "name": "G4",
          "ticks": 1883,
          "time": 21.8953488372093,
          "velocity": 0.3779527559055118
        },
        {
          "duration": 0.034883720930235285,
          "durationTicks": 3,
          "midi": 84,
          "name": "C6",
          "ticks": 1883,
          "time": 21.8953488372093,
          "velocity": 0.13385826771653545
        },
        {
          "duration": 0.27906976744186096,
          "durationTicks": 24,
          "midi": 58,
          "name": "A#3",
          "ticks": 1884,
          "time": 21.906976744186046,
          "velocity": 0.2125984251968504
        },
        {
          "duration": 0.04651162790697683,
          "durationTicks": 4,
          "midi": 84,
          "name": "C6",
          "ticks": 1888,
          "time": 21.953488372093023,
          "velocity": 0.11023622047244094
        },
        {
          "duration": 0.046511627906973274,
          "durationTicks": 4,
          "midi": 69,
          "name": "A4",
          "ticks": 1890,
          "time": 21.976744186046513,
          "velocity": 0.4094488188976378
        },
        {
          "duration": 0.11627906976744384,
          "durationTicks": 10,
          "midi": 65,
          "name": "F4",
          "ticks": 1891,
          "time": 21.988372093023255,
          "velocity": 0.25984251968503935
        },
        {
          "duration": 0.04651162790697683,
          "durationTicks": 4,
          "midi": 84,
          "name": "C6",
          "ticks": 1894,
          "time": 22.023255813953487,
          "velocity": 0.11023622047244094
        },
        {
          "duration": 0.06976744186046702,
          "durationTicks": 6,
          "midi": 69,
          "name": "A4",
          "ticks": 1895,
          "time": 22.03488372093023,
          "velocity": 0.4094488188976378
        },
        {
          "duration": 0.023255813953486637,
          "durationTicks": 2,
          "midi": 70,
          "name": "A#4",
          "ticks": 1896,
          "time": 22.046511627906977,
          "velocity": 0.30708661417322836
        },
        {
          "duration": 0.034883720930235285,
          "durationTicks": 3,
          "midi": 46,
          "name": "A#2",
          "ticks": 1898,
          "time": 22.069767441860463,
          "velocity": 0.07086614173228346
        },
        {
          "duration": 0.04651162790697683,
          "durationTicks": 4,
          "midi": 70,
          "name": "A#4",
          "ticks": 1900,
          "time": 22.093023255813954,
          "velocity": 0.36220472440944884
        },
        {
          "duration": 0.5697674418604635,
          "durationTicks": 49,
          "midi": 67,
          "name": "G4",
          "ticks": 1901,
          "time": 22.1046511627907,
          "velocity": 0.3858267716535433
        },
        {
          "duration": 0.1744186046511622,
          "durationTicks": 15,
          "midi": 70,
          "name": "A#4",
          "ticks": 1905,
          "time": 22.151162790697676,
          "velocity": 0.31496062992125984
        },
        {
          "duration": 0.25581395348837077,
          "durationTicks": 22,
          "midi": 62,
          "name": "D4",
          "ticks": 1920,
          "time": 22.325581395348838,
          "velocity": 0.2755905511811024
        },
        {
          "duration": 0.23255813953488413,
          "durationTicks": 20,
          "midi": 81,
          "name": "A5",
          "ticks": 1920,
          "time": 22.325581395348838,
          "velocity": 0.1968503937007874
        },
        {
          "duration": 0.03488372093023173,
          "durationTicks": 3,
          "midi": 85,
          "name": "C#6",
          "ticks": 1921,
          "time": 22.337209302325583,
          "velocity": 0.07086614173228346
        },
        {
          "duration": 0.04651162790697683,
          "durationTicks": 4,
          "midi": 53,
          "name": "F3",
          "ticks": 1922,
          "time": 22.348837209302324,
          "velocity": 0.13385826771653545
        },
        {
          "duration": 0.03488372093023173,
          "durationTicks": 3,
          "midi": 58,
          "name": "A#3",
          "ticks": 1924,
          "time": 22.372093023255815,
          "velocity": 0.1968503937007874
        },
        {
          "duration": 0.023255813953486637,
          "durationTicks": 2,
          "midi": 57,
          "name": "A3",
          "ticks": 1929,
          "time": 22.430232558139537,
          "velocity": 0.25196850393700787
        },
        {
          "duration": 0.10465116279069875,
          "durationTicks": 9,
          "midi": 58,
          "name": "A#3",
          "ticks": 1931,
          "time": 22.453488372093023,
          "velocity": 0.2440944881889764
        },
        {
          "duration": 0.1046511627906952,
          "durationTicks": 9,
          "midi": 46,
          "name": "A#2",
          "ticks": 1932,
          "time": 22.46511627906977,
          "velocity": 0.07874015748031496
        },
        {
          "duration": 0.03488372093023173,
          "durationTicks": 3,
          "midi": 58,
          "name": "A#3",
          "ticks": 1943,
          "time": 22.593023255813954,
          "velocity": 0.07086614173228346
        },
        {
          "duration": 0.48837209302325846,
          "durationTicks": 42,
          "midi": 73,
          "name": "C#5",
          "ticks": 1957,
          "time": 22.75581395348837,
          "velocity": 0.47244094488188976
        },
        {
          "duration": 0.5581395348837219,
          "durationTicks": 48,
          "midi": 81,
          "name": "A5",
          "ticks": 1957,
          "time": 22.75581395348837,
          "velocity": 0.2992125984251969
        },
        {
          "duration": 0.3255813953488378,
          "durationTicks": 28,
          "midi": 65,
          "name": "F4",
          "ticks": 1958,
          "time": 22.767441860465116,
          "velocity": 0.33070866141732286
        },
        {
          "duration": 0.6046511627906987,
          "durationTicks": 52,
          "midi": 77,
          "name": "F5",
          "ticks": 1958,
          "time": 22.767441860465116,
          "velocity": 0.3700787401574803
        },
        {
          "duration": 0.47674418604651336,
          "durationTicks": 41,
          "midi": 79,
          "name": "G5",
          "ticks": 1958,
          "time": 22.767441860465116,
          "velocity": 0.3937007874015748
        },
        {
          "duration": 0.04651162790697683,
          "durationTicks": 4,
          "midi": 52,
          "name": "E3",
          "ticks": 1959,
          "time": 22.77906976744186,
          "velocity": 0.1732283464566929
        },
        {
          "duration": 0.24418604651162568,
          "durationTicks": 21,
          "midi": 62,
          "name": "D4",
          "ticks": 1959,
          "time": 22.77906976744186,
          "velocity": 0.30708661417322836
        },
        {
          "duration": 0.5465116279069768,
          "durationTicks": 47,
          "midi": 69,
          "name": "A4",
          "ticks": 1959,
          "time": 22.77906976744186,
          "velocity": 0.3464566929133858
        },
        {
          "duration": 0.24418604651162568,
          "durationTicks": 21,
          "midi": 57,
          "name": "A3",
          "ticks": 1960,
          "time": 22.790697674418606,
          "velocity": 0.2755905511811024
        },
        {
          "duration": 0.19767441860464885,
          "durationTicks": 17,
          "midi": 84,
          "name": "C6",
          "ticks": 1960,
          "time": 22.790697674418606,
          "velocity": 0.12598425196850394
        },
        {
          "duration": 0.3372093023255829,
          "durationTicks": 29,
          "midi": 45,
          "name": "A2",
          "ticks": 1961,
          "time": 22.802325581395348,
          "velocity": 0.30708661417322836
        },
        {
          "duration": 0.04651162790697683,
          "durationTicks": 4,
          "midi": 83,
          "name": "B5",
          "ticks": 1962,
          "time": 22.813953488372093,
          "velocity": 0.10236220472440945
        },
        {
          "duration": 0.13953488372093048,
          "durationTicks": 12,
          "midi": 88,
          "name": "E6",
          "ticks": 1964,
          "time": 22.837209302325583,
          "velocity": 0.07086614173228346
        },
        {
          "duration": 0.22093023255813904,
          "durationTicks": 19,
          "midi": 45,
          "name": "A2",
          "ticks": 1998,
          "time": 23.232558139534884,
          "velocity": 0.4015748031496063
        },
        {
          "duration": 0.03488372093023173,
          "durationTicks": 3,
          "midi": 65,
          "name": "F4",
          "ticks": 1998,
          "time": 23.232558139534884,
          "velocity": 0.33858267716535434
        },
        {
          "duration": 0.5232558139534866,
          "durationTicks": 45,
          "midi": 74,
          "name": "D5",
          "ticks": 1998,
          "time": 23.232558139534884,
          "velocity": 0.31496062992125984
        },
        {
          "duration": 0.04651162790697683,
          "durationTicks": 4,
          "midi": 88,
          "name": "E6",
          "ticks": 1998,
          "time": 23.232558139534884,
          "velocity": 0.11023622047244094
        },
        {
          "duration": 0.17441860465116577,
          "durationTicks": 15,
          "midi": 53,
          "name": "F3",
          "ticks": 2000,
          "time": 23.25581395348837,
          "velocity": 0.25984251968503935
        },
        {
          "duration": 0.13953488372093048,
          "durationTicks": 12,
          "midi": 62,
          "name": "D4",
          "ticks": 2000,
          "time": 23.25581395348837,
          "velocity": 0.2992125984251969
        },
        {
          "duration": 0.10465116279069875,
          "durationTicks": 9,
          "midi": 87,
          "name": "D#6",
          "ticks": 2000,
          "time": 23.25581395348837,
          "velocity": 0.10236220472440945
        },
        {
          "duration": 0.08139534883720856,
          "durationTicks": 7,
          "midi": 85,
          "name": "C#6",
          "ticks": 2001,
          "time": 23.267441860465116,
          "velocity": 0.07874015748031496
        },
        {
          "duration": 0.13953488372093048,
          "durationTicks": 12,
          "midi": 65,
          "name": "F4",
          "ticks": 2002,
          "time": 23.27906976744186,
          "velocity": 0.2755905511811024
        },
        {
          "duration": 0.03488372093023173,
          "durationTicks": 3,
          "midi": 83,
          "name": "B5",
          "ticks": 2002,
          "time": 23.27906976744186,
          "velocity": 0.07874015748031496
        },
        {
          "duration": 0.24418604651162923,
          "durationTicks": 21,
          "midi": 62,
          "name": "D4",
          "ticks": 2016,
          "time": 23.441860465116278,
          "velocity": 0.2677165354330709
        },
        {
          "duration": 0.20930232558139394,
          "durationTicks": 18,
          "midi": 69,
          "name": "A4",
          "ticks": 2017,
          "time": 23.453488372093023,
          "velocity": 0.14960629921259844
        },
        {
          "duration": 0.04651162790697683,
          "durationTicks": 4,
          "midi": 84,
          "name": "C6",
          "ticks": 2018,
          "time": 23.46511627906977,
          "velocity": 0.12598425196850394
        },
        {
          "duration": 0.05813953488371837,
          "durationTicks": 5,
          "midi": 50,
          "name": "D3",
          "ticks": 2019,
          "time": 23.476744186046513,
          "velocity": 0.2755905511811024
        },
        {
          "duration": 0.6511627906976756,
          "durationTicks": 56,
          "midi": 88,
          "name": "E6",
          "ticks": 2021,
          "time": 23.5,
          "velocity": 0.25196850393700787
        },
        {
          "duration": 0.023255813953486637,
          "durationTicks": 2,
          "midi": 50,
          "name": "D3",
          "ticks": 2025,
          "time": 23.546511627906977,
          "velocity": 0.25984251968503935
        },
        {
          "duration": 0.06976744186046702,
          "durationTicks": 6,
          "midi": 50,
          "name": "D3",
          "ticks": 2028,
          "time": 23.58139534883721,
          "velocity": 0.2677165354330709
        },
        {
          "duration": 0.10465116279069875,
          "durationTicks": 9,
          "midi": 72,
          "name": "C5",
          "ticks": 2028,
          "time": 23.58139534883721,
          "velocity": 0.14960629921259844
        },
        {
          "duration": 0.03488372093023173,
          "durationTicks": 3,
          "midi": 38,
          "name": "D2",
          "ticks": 2029,
          "time": 23.593023255813954,
          "velocity": 0.25196850393700787
        },
        {
          "duration": 0.3720930232558146,
          "durationTicks": 32,
          "midi": 77,
          "name": "F5",
          "ticks": 2036,
          "time": 23.674418604651162,
          "velocity": 0.48031496062992124
        },
        {
          "duration": 0.03488372093023173,
          "durationTicks": 3,
          "midi": 80,
          "name": "G#5",
          "ticks": 2036,
          "time": 23.674418604651162,
          "velocity": 0.16535433070866143
        },
        {
          "duration": 0.4883720930232549,
          "durationTicks": 42,
          "midi": 81,
          "name": "A5",
          "ticks": 2036,
          "time": 23.674418604651162,
          "velocity": 0.2755905511811024
        },
        {
          "duration": 0.26744186046511587,
          "durationTicks": 23,
          "midi": 86,
          "name": "D6",
          "ticks": 2036,
          "time": 23.674418604651162,
          "velocity": 0.3779527559055118
        },
        {
          "duration": 0.15116279069767558,
          "durationTicks": 13,
          "midi": 89,
          "name": "F6",
          "ticks": 2036,
          "time": 23.674418604651162,
          "velocity": 0.5039370078740157
        },
        {
          "duration": 0.03488372093023173,
          "durationTicks": 3,
          "midi": 59,
          "name": "B3",
          "ticks": 2038,
          "time": 23.697674418604652,
          "velocity": 0.15748031496062992
        },
        {
          "duration": 0.20930232558139394,
          "durationTicks": 18,
          "midi": 69,
          "name": "A4",
          "ticks": 2038,
          "time": 23.697674418604652,
          "velocity": 0.18110236220472442
        },
        {
          "duration": 0.05813953488372192,
          "durationTicks": 5,
          "midi": 45,
          "name": "A2",
          "ticks": 2039,
          "time": 23.709302325581394,
          "velocity": 0.3228346456692913
        },
        {
          "duration": 0.04651162790697683,
          "durationTicks": 4,
          "midi": 60,
          "name": "C4",
          "ticks": 2041,
          "time": 23.732558139534884,
          "velocity": 0.14960629921259844
        },
        {
          "duration": 0.16279069767441712,
          "durationTicks": 14,
          "midi": 72,
          "name": "C5",
          "ticks": 2041,
          "time": 23.732558139534884,
          "velocity": 0.18110236220472442
        },
        {
          "duration": 0.08139534883720856,
          "durationTicks": 7,
          "midi": 45,
          "name": "A2",
          "ticks": 2045,
          "time": 23.77906976744186,
          "velocity": 0.31496062992125984
        },
        {
          "duration": 0.034883720930235285,
          "durationTicks": 3,
          "midi": 60,
          "name": "C4",
          "ticks": 2051,
          "time": 23.848837209302324,
          "velocity": 0.12598425196850394
        },
        {
          "duration": 0.03488372093023173,
          "durationTicks": 3,
          "midi": 59,
          "name": "B3",
          "ticks": 2054,
          "time": 23.88372093023256,
          "velocity": 0.29133858267716534
        },
        {
          "duration": 0.02325581395349019,
          "durationTicks": 2,
          "midi": 45,
          "name": "A2",
          "ticks": 2055,
          "time": 23.8953488372093,
          "velocity": 0.23622047244094488
        },
        {
          "duration": 0.15116279069767558,
          "durationTicks": 13,
          "midi": 65,
          "name": "F4",
          "ticks": 2055,
          "time": 23.8953488372093,
          "velocity": 0.3700787401574803
        },
        {
          "duration": 0.779069767441861,
          "durationTicks": 67,
          "midi": 74,
          "name": "D5",
          "ticks": 2055,
          "time": 23.8953488372093,
          "velocity": 0.5039370078740157
        },
        {
          "duration": 0.3255813953488378,
          "durationTicks": 28,
          "midi": 84,
          "name": "C6",
          "ticks": 2055,
          "time": 23.8953488372093,
          "velocity": 0.2677165354330709
        },
        {
          "duration": 0.034883720930235285,
          "durationTicks": 3,
          "midi": 90,
          "name": "F#6",
          "ticks": 2055,
          "time": 23.8953488372093,
          "velocity": 0.11023622047244094
        },
        {
          "duration": 0.04651162790697683,
          "durationTicks": 4,
          "midi": 80,
          "name": "G#5",
          "ticks": 2056,
          "time": 23.906976744186046,
          "velocity": 0.11811023622047244
        },
        {
          "duration": 0.023255813953486637,
          "durationTicks": 2,
          "midi": 41,
          "name": "F2",
          "ticks": 2057,
          "time": 23.91860465116279,
          "velocity": 0.28346456692913385
        },
        {
          "duration": 0.023255813953486637,
          "durationTicks": 2,
          "midi": 50,
          "name": "D3",
          "ticks": 2057,
          "time": 23.91860465116279,
          "velocity": 0.25984251968503935
        },
        {
          "duration": 0.22093023255813904,
          "durationTicks": 19,
          "midi": 60,
          "name": "C4",
          "ticks": 2057,
          "time": 23.91860465116279,
          "velocity": 0.4015748031496063
        },
        {
          "duration": 0.13953488372093048,
          "durationTicks": 12,
          "midi": 69,
          "name": "A4",
          "ticks": 2057,
          "time": 23.91860465116279,
          "velocity": 0.3543307086614173
        },
        {
          "duration": 0.05813953488371837,
          "durationTicks": 5,
          "midi": 85,
          "name": "C#6",
          "ticks": 2058,
          "time": 23.930232558139537,
          "velocity": 0.14173228346456693
        },
        {
          "duration": 0.02325581395349019,
          "durationTicks": 2,
          "midi": 39,
          "name": "D#2",
          "ticks": 2059,
          "time": 23.941860465116278,
          "velocity": 0.23622047244094488
        },
        {
          "duration": 0.12790697674418539,
          "durationTicks": 11,
          "midi": 38,
          "name": "D2",
          "ticks": 2061,
          "time": 23.96511627906977,
          "velocity": 0.2283464566929134
        },
        {
          "duration": 0.1976744186046524,
          "durationTicks": 17,
          "midi": 72,
          "name": "C5",
          "ticks": 2063,
          "time": 23.988372093023255,
          "velocity": 0.5275590551181102
        },
        {
          "duration": 0.12790697674418539,
          "durationTicks": 11,
          "midi": 50,
          "name": "D3",
          "ticks": 2065,
          "time": 24.011627906976745,
          "velocity": 0.29133858267716534
        },
        {
          "duration": 0.1046511627906952,
          "durationTicks": 9,
          "midi": 95,
          "name": "B6",
          "ticks": 2065,
          "time": 24.011627906976745,
          "velocity": 0.09448818897637795
        },
        {
          "duration": 0.2093023255813975,
          "durationTicks": 18,
          "midi": 79,
          "name": "G5",
          "ticks": 2066,
          "time": 24.023255813953487,
          "velocity": 0.1968503937007874
        },
        {
          "duration": 0.04651162790697683,
          "durationTicks": 4,
          "midi": 85,
          "name": "C#6",
          "ticks": 2066,
          "time": 24.023255813953487,
          "velocity": 0.11811023622047244
        },
        {
          "duration": 0.13953488372093048,
          "durationTicks": 12,
          "midi": 91,
          "name": "G6",
          "ticks": 2066,
          "time": 24.023255813953487,
          "velocity": 0.2047244094488189
        },
        {
          "duration": 0.2558139534883743,
          "durationTicks": 22,
          "midi": 67,
          "name": "G4",
          "ticks": 2067,
          "time": 24.03488372093023,
          "velocity": 0.44881889763779526
        },
        {
          "duration": 0.1976744186046524,
          "durationTicks": 17,
          "midi": 76,
          "name": "E5",
          "ticks": 2067,
          "time": 24.03488372093023,
          "velocity": 0.4645669291338583
        },
        {
          "duration": 0.02325581395349019,
          "durationTicks": 2,
          "midi": 65,
          "name": "F4",
          "ticks": 2070,
          "time": 24.069767441860463,
          "velocity": 0.2992125984251969
        },
        {
          "duration": 0.04651162790697683,
          "durationTicks": 4,
          "midi": 65,
          "name": "F4",
          "ticks": 2073,
          "time": 24.1046511627907,
          "velocity": 0.36220472440944884
        },
        {
          "duration": 0.20930232558139394,
          "durationTicks": 18,
          "midi": 59,
          "name": "B3",
          "ticks": 2076,
          "time": 24.13953488372093,
          "velocity": 0.33858267716535434
        },
        {
          "duration": 0.27906976744186096,
          "durationTicks": 24,
          "midi": 83,
          "name": "B5",
          "ticks": 2076,
          "time": 24.13953488372093,
          "velocity": 0.25984251968503935
        },
        {
          "duration": 0.023255813953486637,
          "durationTicks": 2,
          "midi": 48,
          "name": "C3",
          "ticks": 2077,
          "time": 24.151162790697676,
          "velocity": 0.4094488188976378
        },
        {
          "duration": 0.20930232558139394,
          "durationTicks": 18,
          "midi": 64,
          "name": "E4",
          "ticks": 2077,
          "time": 24.151162790697676,
          "velocity": 0.33858267716535434
        },
        {
          "duration": 0.20930232558139394,
          "durationTicks": 18,
          "midi": 89,
          "name": "F6",
          "ticks": 2077,
          "time": 24.151162790697676,
          "velocity": 0.1889763779527559
        },
        {
          "duration": 0.03488372093023173,
          "durationTicks": 3,
          "midi": 48,
          "name": "C3",
          "ticks": 2080,
          "time": 24.186046511627907,
          "velocity": 0.33858267716535434
        },
        {
          "duration": 0.06976744186046346,
          "durationTicks": 6,
          "midi": 82,
          "name": "A#5",
          "ticks": 2080,
          "time": 24.186046511627907,
          "velocity": 0.10236220472440945
        },
        {
          "duration": 0.1744186046511622,
          "durationTicks": 15,
          "midi": 77,
          "name": "F5",
          "ticks": 2083,
          "time": 24.22093023255814,
          "velocity": 0.4881889763779528
        },
        {
          "duration": 0.03488372093023173,
          "durationTicks": 3,
          "midi": 55,
          "name": "G3",
          "ticks": 2084,
          "time": 24.232558139534884,
          "velocity": 0.16535433070866143
        },
        {
          "duration": 0.39534883720930125,
          "durationTicks": 34,
          "midi": 81,
          "name": "A5",
          "ticks": 2085,
          "time": 24.24418604651163,
          "velocity": 0.25984251968503935
        },
        {
          "duration": 0.1860465116279073,
          "durationTicks": 16,
          "midi": 93,
          "name": "A6",
          "ticks": 2085,
          "time": 24.24418604651163,
          "velocity": 0.25984251968503935
        },
        {
          "duration": 0.12790697674418894,
          "durationTicks": 11,
          "midi": 69,
          "name": "A4",
          "ticks": 2086,
          "time": 24.25581395348837,
          "velocity": 0.3700787401574803
        },
        {
          "duration": 0.03488372093023173,
          "durationTicks": 3,
          "midi": 48,
          "name": "C3",
          "ticks": 2087,
          "time": 24.267441860465116,
          "velocity": 0.29133858267716534
        },
        {
          "duration": 0.30232558139535115,
          "durationTicks": 26,
          "midi": 67,
          "name": "G4",
          "ticks": 2090,
          "time": 24.302325581395348,
          "velocity": 0.4566929133858268
        },
        {
          "duration": 0.04651162790697683,
          "durationTicks": 4,
          "midi": 48,
          "name": "C3",
          "ticks": 2091,
          "time": 24.313953488372093,
          "velocity": 0.2755905511811024
        },
        {
          "duration": 0.23255813953488413,
          "durationTicks": 20,
          "midi": 72,
          "name": "C5",
          "ticks": 2095,
          "time": 24.36046511627907,
          "velocity": 0.4251968503937008
        },
        {
          "duration": 0.22093023255813904,
          "durationTicks": 19,
          "midi": 60,
          "name": "C4",
          "ticks": 2096,
          "time": 24.372093023255815,
          "velocity": 0.3858267716535433
        },
        {
          "duration": 0.23255813953488413,
          "durationTicks": 20,
          "midi": 88,
          "name": "E6",
          "ticks": 2096,
          "time": 24.372093023255815,
          "velocity": 0.2755905511811024
        },
        {
          "duration": 0.023255813953486637,
          "durationTicks": 2,
          "midi": 49,
          "name": "C#3",
          "ticks": 2097,
          "time": 24.38372093023256,
          "velocity": 0.23622047244094488
        },
        {
          "duration": 0.26744186046511587,
          "durationTicks": 23,
          "midi": 76,
          "name": "E5",
          "ticks": 2097,
          "time": 24.38372093023256,
          "velocity": 0.4881889763779528
        },
        {
          "duration": 0.1744186046511622,
          "durationTicks": 15,
          "midi": 38,
          "name": "D2",
          "ticks": 2100,
          "time": 24.41860465116279,
          "velocity": 0.23622047244094488
        },
        {
          "duration": 0.15116279069767202,
          "durationTicks": 13,
          "midi": 50,
          "name": "D3",
          "ticks": 2101,
          "time": 24.430232558139537,
          "velocity": 0.2440944881889764
        },
        {
          "duration": 0.034883720930235285,
          "durationTicks": 3,
          "midi": 85,
          "name": "C#6",
          "ticks": 2102,
          "time": 24.441860465116278,
          "velocity": 0.08661417322834646
        },
        {
          "duration": 0.11627906976744029,
          "durationTicks": 10,
          "midi": 95,
          "name": "B6",
          "ticks": 2103,
          "time": 24.453488372093023,
          "velocity": 0.11023622047244094
        },
        {
          "duration": 0.03488372093023173,
          "durationTicks": 3,
          "midi": 57,
          "name": "A3",
          "ticks": 2105,
          "time": 24.476744186046513,
          "velocity": 0.25984251968503935
        },
        {
          "duration": 0.034883720930235285,
          "durationTicks": 3,
          "midi": 65,
          "name": "F4",
          "ticks": 2109,
          "time": 24.523255813953487,
          "velocity": 0.31496062992125984
        },
        {
          "duration": 0.10465116279069875,
          "durationTicks": 9,
          "midi": 65,
          "name": "F4",
          "ticks": 2113,
          "time": 24.569767441860463,
          "velocity": 0.30708661417322836
        },
        {
          "duration": 0.2558139534883743,
          "durationTicks": 22,
          "midi": 69,
          "name": "A4",
          "ticks": 2113,
          "time": 24.569767441860463,
          "velocity": 0.33070866141732286
        },
        {
          "duration": 0.02325581395349019,
          "durationTicks": 2,
          "midi": 49,
          "name": "C#3",
          "ticks": 2114,
          "time": 24.58139534883721,
          "velocity": 0.25984251968503935
        },
        {
          "duration": 0.05813953488371837,
          "durationTicks": 5,
          "midi": 50,
          "name": "D3",
          "ticks": 2116,
          "time": 24.6046511627907,
          "velocity": 0.29133858267716534
        },
        {
          "duration": 0.023255813953486637,
          "durationTicks": 2,
          "midi": 44,
          "name": "G#2",
          "ticks": 2119,
          "time": 24.63953488372093,
          "velocity": 0.25196850393700787
        },
        {
          "duration": 0.04651162790697683,
          "durationTicks": 4,
          "midi": 57,
          "name": "A3",
          "ticks": 2119,
          "time": 24.63953488372093,
          "velocity": 0.15748031496062992
        },
        {
          "duration": 0.13953488372093048,
          "durationTicks": 12,
          "midi": 72,
          "name": "C5",
          "ticks": 2119,
          "time": 24.63953488372093,
          "velocity": 0.25984251968503935
        },
        {
          "duration": 0.04651162790697683,
          "durationTicks": 4,
          "midi": 60,
          "name": "C4",
          "ticks": 2122,
          "time": 24.674418604651162,
          "velocity": 0.2204724409448819
        },
        {
          "duration": 1.3139534883720927,
          "durationTicks": 113,
          "midi": 77,
          "name": "F5",
          "ticks": 2122,
          "time": 24.674418604651162,
          "velocity": 0.48031496062992124
        },
        {
          "duration": 1.3139534883720927,
          "durationTicks": 113,
          "midi": 84,
          "name": "C6",
          "ticks": 2122,
          "time": 24.674418604651162,
          "velocity": 0.4330708661417323
        },
        {
          "duration": 0.04651162790697683,
          "durationTicks": 4,
          "midi": 45,
          "name": "A2",
          "ticks": 2124,
          "time": 24.697674418604652,
          "velocity": 0.28346456692913385
        },
        {
          "duration": 0.02325581395349019,
          "durationTicks": 2,
          "midi": 50,
          "name": "D3",
          "ticks": 2126,
          "time": 24.72093023255814,
          "velocity": 0.25196850393700787
        },
        {
          "duration": 0.08139534883720856,
          "durationTicks": 7,
          "midi": 60,
          "name": "C4",
          "ticks": 2127,
          "time": 24.732558139534884,
          "velocity": 0.1968503937007874
        },
        {
          "duration": 0.023255813953486637,
          "durationTicks": 2,
          "midi": 50,
          "name": "D3",
          "ticks": 2131,
          "time": 24.77906976744186,
          "velocity": 0.2755905511811024
        },
        {
          "duration": 0.02325581395349019,
          "durationTicks": 2,
          "midi": 39,
          "name": "D#2",
          "ticks": 2134,
          "time": 24.813953488372093,
          "velocity": 0.28346456692913385
        },
        {
          "duration": 1.2441860465116292,
          "durationTicks": 107,
          "midi": 74,
          "name": "D5",
          "ticks": 2134,
          "time": 24.813953488372093,
          "velocity": 0.5590551181102362
        },
        {
          "duration": 0.3837209302325597,
          "durationTicks": 33,
          "midi": 87,
          "name": "D#6",
          "ticks": 2134,
          "time": 24.813953488372093,
          "velocity": 0.15748031496062992
        },
        {
          "duration": 0.08139534883720856,
          "durationTicks": 7,
          "midi": 91,
          "name": "G6",
          "ticks": 2134,
          "time": 24.813953488372093,
          "velocity": 0.11023622047244094
        },
        {
          "duration": 0.3255813953488378,
          "durationTicks": 28,
          "midi": 93,
          "name": "A6",
          "ticks": 2134,
          "time": 24.813953488372093,
          "velocity": 0.2992125984251969
        },
        {
          "duration": 0.023255813953486637,
          "durationTicks": 2,
          "midi": 51,
          "name": "D#3",
          "ticks": 2135,
          "time": 24.825581395348838,
          "velocity": 0.33858267716535434
        },
        {
          "duration": 0.22093023255813904,
          "durationTicks": 19,
          "midi": 62,
          "name": "D4",
          "ticks": 2135,
          "time": 24.825581395348838,
          "velocity": 0.3779527559055118
        },
        {
          "duration": 0.23255813953488413,
          "durationTicks": 20,
          "midi": 65,
          "name": "F4",
          "ticks": 2135,
          "time": 24.825581395348838,
          "velocity": 0.4015748031496063
        },
        {
          "duration": 0.023255813953486637,
          "durationTicks": 2,
          "midi": 72,
          "name": "C5",
          "ticks": 2135,
          "time": 24.825581395348838,
          "velocity": 0.25196850393700787
        },
        {
          "duration": 0.03488372093023173,
          "durationTicks": 3,
          "midi": 80,
          "name": "G#5",
          "ticks": 2135,
          "time": 24.825581395348838,
          "velocity": 0.16535433070866143
        },
        {
          "duration": 0.23255813953488058,
          "durationTicks": 20,
          "midi": 69,
          "name": "A4",
          "ticks": 2136,
          "time": 24.837209302325583,
          "velocity": 0.23622047244094488
        },
        {
          "duration": 0.02325581395349019,
          "durationTicks": 2,
          "midi": 50,
          "name": "D3",
          "ticks": 2138,
          "time": 24.86046511627907,
          "velocity": 0.3779527559055118
        },
        {
          "duration": 0.10465116279069875,
          "durationTicks": 9,
          "midi": 72,
          "name": "C5",
          "ticks": 2138,
          "time": 24.86046511627907,
          "velocity": 0.25196850393700787
        },
        {
          "duration": 0.12790697674418539,
          "durationTicks": 11,
          "midi": 95,
          "name": "B6",
          "ticks": 2139,
          "time": 24.872093023255815,
          "velocity": 0.12598425196850394
        },
        {
          "duration": 0.04651162790697683,
          "durationTicks": 4,
          "midi": 91,
          "name": "G6",
          "ticks": 2142,
          "time": 24.906976744186046,
          "velocity": 0.08661417322834646
        },
        {
          "duration": 0.023255813953486637,
          "durationTicks": 2,
          "midi": 51,
          "name": "D#3",
          "ticks": 2144,
          "time": 24.930232558139537,
          "velocity": 0.3779527559055118
        },
        {
          "duration": 0.034883720930235285,
          "durationTicks": 3,
          "midi": 38,
          "name": "D2",
          "ticks": 2145,
          "time": 24.941860465116278,
          "velocity": 0.1889763779527559
        },
        {
          "duration": 0.13953488372093048,
          "durationTicks": 12,
          "midi": 81,
          "name": "A5",
          "ticks": 2145,
          "time": 24.941860465116278,
          "velocity": 0.28346456692913385
        },
        {
          "duration": 0.04651162790697683,
          "durationTicks": 4,
          "midi": 38,
          "name": "D2",
          "ticks": 2149,
          "time": 24.988372093023255,
          "velocity": 0.16535433070866143
        },
        {
          "duration": 0.02325581395349019,
          "durationTicks": 2,
          "midi": 50,
          "name": "D3",
          "ticks": 2149,
          "time": 24.988372093023255,
          "velocity": 0.30708661417322836
        },
        {
          "duration": 0.06976744186046702,
          "durationTicks": 6,
          "midi": 72,
          "name": "C5",
          "ticks": 2149,
          "time": 24.988372093023255,
          "velocity": 0.2047244094488189
        },
        {
          "duration": 0.023255813953486637,
          "durationTicks": 2,
          "midi": 50,
          "name": "D3",
          "ticks": 2154,
          "time": 25.046511627906977,
          "velocity": 0.23622047244094488
        },
        {
          "duration": 0.03488372093023173,
          "durationTicks": 3,
          "midi": 80,
          "name": "G#5",
          "ticks": 2154,
          "time": 25.046511627906977,
          "velocity": 0.09448818897637795
        },
        {
          "duration": 0.04651162790697683,
          "durationTicks": 4,
          "midi": 83,
          "name": "B5",
          "ticks": 2154,
          "time": 25.046511627906977,
          "velocity": 0.2755905511811024
        },
        {
          "duration": 0.20930232558139394,
          "durationTicks": 18,
          "midi": 59,
          "name": "B3",
          "ticks": 2155,
          "time": 25.058139534883722,
          "velocity": 0.3543307086614173
        },
        {
          "duration": 0.20930232558139394,
          "durationTicks": 18,
          "midi": 64,
          "name": "E4",
          "ticks": 2155,
          "time": 25.058139534883722,
          "velocity": 0.41732283464566927
        },
        {
          "duration": 0.22093023255813904,
          "durationTicks": 19,
          "midi": 67,
          "name": "G4",
          "ticks": 2155,
          "time": 25.058139534883722,
          "velocity": 0.2992125984251969
        },
        {
          "duration": 0.02325581395349019,
          "durationTicks": 2,
          "midi": 51,
          "name": "D#3",
          "ticks": 2156,
          "time": 25.069767441860463,
          "velocity": 0.2440944881889764
        },
        {
          "duration": 0.02325581395349019,
          "durationTicks": 2,
          "midi": 39,
          "name": "D#2",
          "ticks": 2157,
          "time": 25.08139534883721,
          "velocity": 0.2992125984251969
        },
        {
          "duration": 0.023255813953486637,
          "durationTicks": 2,
          "midi": 49,
          "name": "C#3",
          "ticks": 2158,
          "time": 25.093023255813954,
          "velocity": 0.25984251968503935
        },
        {
          "duration": 0.05813953488371837,
          "durationTicks": 5,
          "midi": 40,
          "name": "E2",
          "ticks": 2159,
          "time": 25.1046511627907,
          "velocity": 0.2992125984251969
        },
        {
          "duration": 0.06976744186046346,
          "durationTicks": 6,
          "midi": 82,
          "name": "A#5",
          "ticks": 2159,
          "time": 25.1046511627907,
          "velocity": 0.2125984251968504
        },
        {
          "duration": 0.02325581395349019,
          "durationTicks": 2,
          "midi": 51,
          "name": "D#3",
          "ticks": 2160,
          "time": 25.11627906976744,
          "velocity": 0.28346456692913385
        },
        {
          "duration": 0.09302325581395365,
          "durationTicks": 8,
          "midi": 93,
          "name": "A6",
          "ticks": 2163,
          "time": 25.151162790697676,
          "velocity": 0.1968503937007874
        },
        {
          "duration": 0.8255813953488378,
          "durationTicks": 71,
          "midi": 81,
          "name": "A5",
          "ticks": 2165,
          "time": 25.174418604651162,
          "velocity": 0.3228346456692913
        },
        {
          "duration": 0.023255813953486637,
          "durationTicks": 2,
          "midi": 40,
          "name": "E2",
          "ticks": 2167,
          "time": 25.197674418604652,
          "velocity": 0.28346456692913385
        },
        {
          "duration": 0.03488372093023173,
          "durationTicks": 3,
          "midi": 40,
          "name": "E2",
          "ticks": 2170,
          "time": 25.232558139534884,
          "velocity": 0.2755905511811024
        },
        {
          "duration": 0.02325581395349019,
          "durationTicks": 2,
          "midi": 39,
          "name": "D#2",
          "ticks": 2173,
          "time": 25.267441860465116,
          "velocity": 0.2677165354330709
        },
        {
          "duration": 0.23255813953488413,
          "durationTicks": 20,
          "midi": 65,
          "name": "F4",
          "ticks": 2173,
          "time": 25.267441860465116,
          "velocity": 0.4015748031496063
        },
        {
          "duration": 0.023255813953486637,
          "durationTicks": 2,
          "midi": 62,
          "name": "D4",
          "ticks": 2174,
          "time": 25.27906976744186,
          "velocity": 0.30708661417322836
        },
        {
          "duration": 0.20930232558139394,
          "durationTicks": 18,
          "midi": 69,
          "name": "A4",
          "ticks": 2174,
          "time": 25.27906976744186,
          "velocity": 0.18110236220472442
        },
        {
          "duration": 0.03488372093023173,
          "durationTicks": 3,
          "midi": 88,
          "name": "E6",
          "ticks": 2174,
          "time": 25.27906976744186,
          "velocity": 0.12598425196850394
        },
        {
          "duration": 0.03488372093023173,
          "durationTicks": 3,
          "midi": 40,
          "name": "E2",
          "ticks": 2175,
          "time": 25.290697674418606,
          "velocity": 0.29133858267716534
        },
        {
          "duration": 0.06976744186046346,
          "durationTicks": 6,
          "midi": 83,
          "name": "B5",
          "ticks": 2175,
          "time": 25.290697674418606,
          "velocity": 0.14960629921259844
        },
        {
          "duration": 0.04651162790697683,
          "durationTicks": 4,
          "midi": 91,
          "name": "G6",
          "ticks": 2175,
          "time": 25.290697674418606,
          "velocity": 0.09448818897637795
        },
        {
          "duration": 0.1744186046511622,
          "durationTicks": 15,
          "midi": 62,
          "name": "D4",
          "ticks": 2178,
          "time": 25.325581395348838,
          "velocity": 0.3228346456692913
        },
        {
          "duration": 0.04651162790697683,
          "durationTicks": 4,
          "midi": 71,
          "name": "B4",
          "ticks": 2178,
          "time": 25.325581395348838,
          "velocity": 0.09448818897637795
        },
        {
          "duration": 0.03488372093023173,
          "durationTicks": 3,
          "midi": 40,
          "name": "E2",
          "ticks": 2179,
          "time": 25.337209302325583,
          "velocity": 0.18110236220472442
        },
        {
          "duration": 0.12790697674418539,
          "durationTicks": 11,
          "midi": 57,
          "name": "A3",
          "ticks": 2181,
          "time": 25.36046511627907,
          "velocity": 0.2047244094488189
        },
        {
          "duration": 0.22093023255813904,
          "durationTicks": 19,
          "midi": 60,
          "name": "C4",
          "ticks": 2193,
          "time": 25.5,
          "velocity": 0.41732283464566927
        },
        {
          "duration": 0.1976744186046524,
          "durationTicks": 17,
          "midi": 69,
          "name": "A4",
          "ticks": 2193,
          "time": 25.5,
          "velocity": 0.23622047244094488
        },
        {
          "duration": 0.43023255813953654,
          "durationTicks": 37,
          "midi": 65,
          "name": "F4",
          "ticks": 2195,
          "time": 25.523255813953487,
          "velocity": 0.41732283464566927
        },
        {
          "duration": 0.03488372093023173,
          "durationTicks": 3,
          "midi": 91,
          "name": "G6",
          "ticks": 2197,
          "time": 25.546511627906977,
          "velocity": 0.09448818897637795
        },
        {
          "duration": 0.6976744186046488,
          "durationTicks": 60,
          "midi": 88,
          "name": "E6",
          "ticks": 2198,
          "time": 25.558139534883722,
          "velocity": 0.29133858267716534
        },
        {
          "duration": 0.03488372093023173,
          "durationTicks": 3,
          "midi": 45,
          "name": "A2",
          "ticks": 2202,
          "time": 25.6046511627907,
          "velocity": 0.28346456692913385
        },
        {
          "duration": 0.023255813953486637,
          "durationTicks": 2,
          "midi": 45,
          "name": "A2",
          "ticks": 2206,
          "time": 25.651162790697676,
          "velocity": 0.25984251968503935
        },
        {
          "duration": 0.04651162790697683,
          "durationTicks": 4,
          "midi": 45,
          "name": "A2",
          "ticks": 2209,
          "time": 25.686046511627907,
          "velocity": 0.25196850393700787
        },
        {
          "duration": 0.02325581395349019,
          "durationTicks": 2,
          "midi": 59,
          "name": "B3",
          "ticks": 2212,
          "time": 25.72093023255814,
          "velocity": 0.3779527559055118
        },
        {
          "duration": 0.27906976744186096,
          "durationTicks": 24,
          "midi": 69,
          "name": "A4",
          "ticks": 2212,
          "time": 25.72093023255814,
          "velocity": 0.4094488188976378
        },
        {
          "duration": 0.04651162790697683,
          "durationTicks": 4,
          "midi": 80,
          "name": "G#5",
          "ticks": 2212,
          "time": 25.72093023255814,
          "velocity": 0.1732283464566929
        },
        {
          "duration": 0.1860465116279073,
          "durationTicks": 16,
          "midi": 72,
          "name": "C5",
          "ticks": 2213,
          "time": 25.732558139534884,
          "velocity": 0.3779527559055118
        },
        {
          "duration": 0.06976744186046346,
          "durationTicks": 6,
          "midi": 85,
          "name": "C#6",
          "ticks": 2213,
          "time": 25.732558139534884,
          "velocity": 0.1732283464566929
        },
        {
          "duration": 0.06976744186046346,
          "durationTicks": 6,
          "midi": 91,
          "name": "G6",
          "ticks": 2213,
          "time": 25.732558139534884,
          "velocity": 0.08661417322834646
        },
        {
          "duration": 0.20930232558139394,
          "durationTicks": 18,
          "midi": 60,
          "name": "C4",
          "ticks": 2214,
          "time": 25.74418604651163,
          "velocity": 0.4251968503937008
        },
        {
          "duration": 0.04651162790697683,
          "durationTicks": 4,
          "midi": 38,
          "name": "D2",
          "ticks": 2220,
          "time": 25.813953488372093,
          "velocity": 0.1889763779527559
        },
        {
          "duration": 0.04651162790697683,
          "durationTicks": 4,
          "midi": 85,
          "name": "C#6",
          "ticks": 2220,
          "time": 25.813953488372093,
          "velocity": 0.13385826771653545
        },
        {
          "duration": 0.06976744186046346,
          "durationTicks": 6,
          "midi": 38,
          "name": "D2",
          "ticks": 2225,
          "time": 25.872093023255815,
          "velocity": 0.1732283464566929
        },
        {
          "duration": 0.03488372093023173,
          "durationTicks": 3,
          "midi": 85,
          "name": "C#6",
          "ticks": 2228,
          "time": 25.906976744186046,
          "velocity": 0.07874015748031496
        },
        {
          "duration": 0.15116279069767558,
          "durationTicks": 13,
          "midi": 72,
          "name": "C5",
          "ticks": 2231,
          "time": 25.941860465116278,
          "velocity": 0.5039370078740157
        },
        {
          "duration": 0.1860465116279073,
          "durationTicks": 16,
          "midi": 79,
          "name": "G5",
          "ticks": 2231,
          "time": 25.941860465116278,
          "velocity": 0.2440944881889764
        },
        {
          "duration": 0.23255813953488413,
          "durationTicks": 20,
          "midi": 64,
          "name": "E4",
          "ticks": 2232,
          "time": 25.953488372093023,
          "velocity": 0.3228346456692913
        },
        {
          "duration": 0.15116279069767558,
          "durationTicks": 13,
          "midi": 67,
          "name": "G4",
          "ticks": 2232,
          "time": 25.953488372093023,
          "velocity": 0.4094488188976378
        },
        {
          "duration": 0.3604651162790695,
          "durationTicks": 31,
          "midi": 83,
          "name": "B5",
          "ticks": 2232,
          "time": 25.953488372093023,
          "velocity": 0.2440944881889764
        },
        {
          "duration": 0.023255813953486637,
          "durationTicks": 2,
          "midi": 47,
          "name": "B2",
          "ticks": 2234,
          "time": 25.976744186046513,
          "velocity": 0.31496062992125984
        },
        {
          "duration": 0.05813953488371837,
          "durationTicks": 5,
          "midi": 59,
          "name": "B3",
          "ticks": 2234,
          "time": 25.976744186046513,
          "velocity": 0.3543307086614173
        },
        {
          "duration": 0.1046511627906952,
          "durationTicks": 9,
          "midi": 76,
          "name": "E5",
          "ticks": 2234,
          "time": 25.976744186046513,
          "velocity": 0.41732283464566927
        },
        {
          "duration": 0.06976744186046346,
          "durationTicks": 6,
          "midi": 82,
          "name": "A#5",
          "ticks": 2236,
          "time": 26,
          "velocity": 0.11023622047244094
        },
        {
          "duration": 0.023255813953486637,
          "durationTicks": 2,
          "midi": 47,
          "name": "B2",
          "ticks": 2237,
          "time": 26.011627906976745,
          "velocity": 0.29133858267716534
        },
        {
          "duration": 0.03488372093023173,
          "durationTicks": 3,
          "midi": 85,
          "name": "C#6",
          "ticks": 2237,
          "time": 26.011627906976745,
          "velocity": 0.11023622047244094
        },
        {
          "duration": 0.16279069767441712,
          "durationTicks": 14,
          "midi": 89,
          "name": "F6",
          "ticks": 2237,
          "time": 26.011627906976745,
          "velocity": 0.2204724409448819
        },
        {
          "duration": 0.04651162790697683,
          "durationTicks": 4,
          "midi": 48,
          "name": "C3",
          "ticks": 2239,
          "time": 26.03488372093023,
          "velocity": 0.28346456692913385
        },
        {
          "duration": 0.13953488372093048,
          "durationTicks": 12,
          "midi": 59,
          "name": "B3",
          "ticks": 2240,
          "time": 26.046511627906977,
          "velocity": 0.30708661417322836
        },
        {
          "duration": 0.9534883720930232,
          "durationTicks": 82,
          "midi": 81,
          "name": "A5",
          "ticks": 2240,
          "time": 26.046511627906977,
          "velocity": 0.3700787401574803
        },
        {
          "duration": 0.06976744186046346,
          "durationTicks": 6,
          "midi": 55,
          "name": "G3",
          "ticks": 2241,
          "time": 26.058139534883722,
          "velocity": 0.2204724409448819
        },
        {
          "duration": 0.2209302325581426,
          "durationTicks": 19,
          "midi": 74,
          "name": "D5",
          "ticks": 2242,
          "time": 26.069767441860463,
          "velocity": 0.49606299212598426
        },
        {
          "duration": 0.13953488372093048,
          "durationTicks": 12,
          "midi": 77,
          "name": "F5",
          "ticks": 2242,
          "time": 26.069767441860463,
          "velocity": 0.4566929133858268
        },
        {
          "duration": 0.10465116279069875,
          "durationTicks": 9,
          "midi": 69,
          "name": "A4",
          "ticks": 2244,
          "time": 26.093023255813954,
          "velocity": 0.3779527559055118
        },
        {
          "duration": 0.04651162790697683,
          "durationTicks": 4,
          "midi": 48,
          "name": "C3",
          "ticks": 2245,
          "time": 26.1046511627907,
          "velocity": 0.25196850393700787
        },
        {
          "duration": 0.04651162790697683,
          "durationTicks": 4,
          "midi": 67,
          "name": "G4",
          "ticks": 2246,
          "time": 26.11627906976744,
          "velocity": 0.2677165354330709
        },
        {
          "duration": 0.034883720930235285,
          "durationTicks": 3,
          "midi": 48,
          "name": "C3",
          "ticks": 2250,
          "time": 26.162790697674417,
          "velocity": 0.25196850393700787
        },
        {
          "duration": 0.1860465116279073,
          "durationTicks": 16,
          "midi": 91,
          "name": "G6",
          "ticks": 2251,
          "time": 26.174418604651162,
          "velocity": 0.2125984251968504
        },
        {
          "duration": 0.23255813953488413,
          "durationTicks": 20,
          "midi": 60,
          "name": "C4",
          "ticks": 2252,
          "time": 26.186046511627907,
          "velocity": 0.3858267716535433
        },
        {
          "duration": 0.03488372093023173,
          "durationTicks": 3,
          "midi": 65,
          "name": "F4",
          "ticks": 2252,
          "time": 26.186046511627907,
          "velocity": 0.3700787401574803
        },
        {
          "duration": 0.15116279069767558,
          "durationTicks": 13,
          "midi": 72,
          "name": "C5",
          "ticks": 2252,
          "time": 26.186046511627907,
          "velocity": 0.48031496062992124
        },
        {
          "duration": 0.11627906976744029,
          "durationTicks": 10,
          "midi": 76,
          "name": "E5",
          "ticks": 2253,
          "time": 26.197674418604652,
          "velocity": 0.4645669291338583
        },
        {
          "duration": 0.13953488372093048,
          "durationTicks": 12,
          "midi": 79,
          "name": "G5",
          "ticks": 2253,
          "time": 26.197674418604652,
          "velocity": 0.1889763779527559
        },
        {
          "duration": 0.08139534883720856,
          "durationTicks": 7,
          "midi": 85,
          "name": "C#6",
          "ticks": 2253,
          "time": 26.197674418604652,
          "velocity": 0.12598425196850394
        },
        {
          "duration": 0.11627906976744384,
          "durationTicks": 10,
          "midi": 67,
          "name": "G4",
          "ticks": 2254,
          "time": 26.209302325581394,
          "velocity": 0.4409448818897638
        },
        {
          "duration": 0.4534883720930232,
          "durationTicks": 39,
          "midi": 89,
          "name": "F6",
          "ticks": 2254,
          "time": 26.209302325581394,
          "velocity": 0.4645669291338583
        },
        {
          "duration": 0.023255813953486637,
          "durationTicks": 2,
          "midi": 65,
          "name": "F4",
          "ticks": 2260,
          "time": 26.27906976744186,
          "velocity": 0.33070866141732286
        },
        {
          "duration": 0.25581395348837077,
          "durationTicks": 22,
          "midi": 69,
          "name": "A4",
          "ticks": 2261,
          "time": 26.290697674418606,
          "velocity": 0.4094488188976378
        },
        {
          "duration": 1.8837209302325597,
          "durationTicks": 162,
          "midi": 74,
          "name": "D5",
          "ticks": 2262,
          "time": 26.302325581395348,
          "velocity": 0.5511811023622047
        },
        {
          "duration": 0.2558139534883743,
          "durationTicks": 22,
          "midi": 77,
          "name": "F5",
          "ticks": 2262,
          "time": 26.302325581395348,
          "velocity": 0.48031496062992124
        },
        {
          "duration": 0.24418604651162923,
          "durationTicks": 21,
          "midi": 65,
          "name": "F4",
          "ticks": 2263,
          "time": 26.313953488372093,
          "velocity": 0.4015748031496063
        },
        {
          "duration": 0.24418604651162923,
          "durationTicks": 21,
          "midi": 88,
          "name": "E6",
          "ticks": 2266,
          "time": 26.348837209302324,
          "velocity": 0.1732283464566929
        },
        {
          "duration": 0.05813953488372192,
          "durationTicks": 5,
          "midi": 80,
          "name": "G#5",
          "ticks": 2271,
          "time": 26.406976744186046,
          "velocity": 0.18110236220472442
        },
        {
          "duration": 0.22093023255813904,
          "durationTicks": 19,
          "midi": 85,
          "name": "C#6",
          "ticks": 2271,
          "time": 26.406976744186046,
          "velocity": 0.23622047244094488
        },
        {
          "duration": 0.13953488372093048,
          "durationTicks": 12,
          "midi": 53,
          "name": "F3",
          "ticks": 2272,
          "time": 26.41860465116279,
          "velocity": 0.31496062992125984
        },
        {
          "duration": 0.26744186046511587,
          "durationTicks": 23,
          "midi": 62,
          "name": "D4",
          "ticks": 2272,
          "time": 26.41860465116279,
          "velocity": 0.3543307086614173
        },
        {
          "duration": 0.05813953488372192,
          "durationTicks": 5,
          "midi": 91,
          "name": "G6",
          "ticks": 2275,
          "time": 26.453488372093023,
          "velocity": 0.11811023622047244
        },
        {
          "duration": 0.023255813953486637,
          "durationTicks": 2,
          "midi": 38,
          "name": "D2",
          "ticks": 2276,
          "time": 26.46511627906977,
          "velocity": 0.29133858267716534
        },
        {
          "duration": 0.10465116279069875,
          "durationTicks": 9,
          "midi": 95,
          "name": "B6",
          "ticks": 2278,
          "time": 26.488372093023255,
          "velocity": 0.08661417322834646
        },
        {
          "duration": 0.03488372093023173,
          "durationTicks": 3,
          "midi": 38,
          "name": "D2",
          "ticks": 2279,
          "time": 26.5,
          "velocity": 0.33858267716535434
        },
        {
          "duration": 0.05813953488372192,
          "durationTicks": 5,
          "midi": 87,
          "name": "D#6",
          "ticks": 2279,
          "time": 26.5,
          "velocity": 0.14173228346456693
        },
        {
          "duration": 0.09302325581395365,
          "durationTicks": 8,
          "midi": 72,
          "name": "C5",
          "ticks": 2282,
          "time": 26.53488372093023,
          "velocity": 0.2283464566929134
        },
        {
          "duration": 0.44186046511628163,
          "durationTicks": 38,
          "midi": 79,
          "name": "G5",
          "ticks": 2282,
          "time": 26.53488372093023,
          "velocity": 0.4094488188976378
        },
        {
          "duration": 0.023255813953486637,
          "durationTicks": 2,
          "midi": 38,
          "name": "D2",
          "ticks": 2283,
          "time": 26.546511627906977,
          "velocity": 0.33070866141732286
        },
        {
          "duration": 0.08139534883720856,
          "durationTicks": 7,
          "midi": 67,
          "name": "G4",
          "ticks": 2283,
          "time": 26.546511627906977,
          "velocity": 0.4330708661417323
        },
        {
          "duration": 0.03488372093023173,
          "durationTicks": 3,
          "midi": 38,
          "name": "D2",
          "ticks": 2286,
          "time": 26.58139534883721,
          "velocity": 0.30708661417322836
        },
        {
          "duration": 0.023255813953486637,
          "durationTicks": 2,
          "midi": 53,
          "name": "F3",
          "ticks": 2287,
          "time": 26.593023255813954,
          "velocity": 0.25196850393700787
        },
        {
          "duration": 0.4186046511627879,
          "durationTicks": 36,
          "midi": 77,
          "name": "F5",
          "ticks": 2288,
          "time": 26.6046511627907,
          "velocity": 0.4566929133858268
        },
        {
          "duration": 0.2674418604651194,
          "durationTicks": 23,
          "midi": 65,
          "name": "F4",
          "ticks": 2289,
          "time": 26.61627906976744,
          "velocity": 0.4015748031496063
        },
        {
          "duration": 0.02325581395349019,
          "durationTicks": 2,
          "midi": 38,
          "name": "D2",
          "ticks": 2290,
          "time": 26.627906976744185,
          "velocity": 0.28346456692913385
        },
        {
          "duration": 0.23255813953488413,
          "durationTicks": 20,
          "midi": 69,
          "name": "A4",
          "ticks": 2291,
          "time": 26.63953488372093,
          "velocity": 0.4251968503937008
        },
        {
          "duration": 0.23255813953488413,
          "durationTicks": 20,
          "midi": 88,
          "name": "E6",
          "ticks": 2291,
          "time": 26.63953488372093,
          "velocity": 0.3937007874015748
        },
        {
          "duration": 0.20930232558139394,
          "durationTicks": 18,
          "midi": 72,
          "name": "C5",
          "ticks": 2295,
          "time": 26.686046511627907,
          "velocity": 0.4645669291338583
        },
        {
          "duration": 0.06976744186046346,
          "durationTicks": 6,
          "midi": 87,
          "name": "D#6",
          "ticks": 2295,
          "time": 26.686046511627907,
          "velocity": 0.09448818897637795
        },
        {
          "duration": 0.04651162790697683,
          "durationTicks": 4,
          "midi": 53,
          "name": "F3",
          "ticks": 2296,
          "time": 26.697674418604652,
          "velocity": 0.1732283464566929
        },
        {
          "duration": 0.05813953488371837,
          "durationTicks": 5,
          "midi": 62,
          "name": "D4",
          "ticks": 2296,
          "time": 26.697674418604652,
          "velocity": 0.1889763779527559
        },
        {
          "duration": 0.10465116279069875,
          "durationTicks": 9,
          "midi": 62,
          "name": "D4",
          "ticks": 2302,
          "time": 26.767441860465116,
          "velocity": 0.33070866141732286
        },
        {
          "duration": 0.12790697674418539,
          "durationTicks": 11,
          "midi": 85,
          "name": "C#6",
          "ticks": 2302,
          "time": 26.767441860465116,
          "velocity": 0.1732283464566929
        },
        {
          "duration": 0.13953488372093048,
          "durationTicks": 12,
          "midi": 53,
          "name": "F3",
          "ticks": 2303,
          "time": 26.77906976744186,
          "velocity": 0.29133858267716534
        },
        {
          "duration": 0.03488372093023173,
          "durationTicks": 3,
          "midi": 90,
          "name": "F#6",
          "ticks": 2310,
          "time": 26.86046511627907,
          "velocity": 0.07874015748031496
        },
        {
          "duration": 0.03488372093023173,
          "durationTicks": 3,
          "midi": 67,
          "name": "G4",
          "ticks": 2311,
          "time": 26.872093023255815,
          "velocity": 0.31496062992125984
        },
        {
          "duration": 0.22093023255813904,
          "durationTicks": 19,
          "midi": 83,
          "name": "B5",
          "ticks": 2311,
          "time": 26.872093023255815,
          "velocity": 0.29133858267716534
        },
        {
          "duration": 0.11627906976744029,
          "durationTicks": 10,
          "midi": 40,
          "name": "E2",
          "ticks": 2312,
          "time": 26.88372093023256,
          "velocity": 0.2992125984251969
        },
        {
          "duration": 0.19767441860464885,
          "durationTicks": 17,
          "midi": 59,
          "name": "B3",
          "ticks": 2312,
          "time": 26.88372093023256,
          "velocity": 0.3228346456692913
        },
        {
          "duration": 0.24418604651162923,
          "durationTicks": 21,
          "midi": 71,
          "name": "B4",
          "ticks": 2313,
          "time": 26.8953488372093,
          "velocity": 0.3228346456692913
        },
        {
          "duration": 0.12790697674418539,
          "durationTicks": 11,
          "midi": 87,
          "name": "D#6",
          "ticks": 2313,
          "time": 26.8953488372093,
          "velocity": 0.14173228346456693
        },
        {
          "duration": 0.06976744186046702,
          "durationTicks": 6,
          "midi": 64,
          "name": "E4",
          "ticks": 2314,
          "time": 26.906976744186046,
          "velocity": 0.4094488188976378
        },
        {
          "duration": 0.1744186046511622,
          "durationTicks": 15,
          "midi": 67,
          "name": "G4",
          "ticks": 2315,
          "time": 26.91860465116279,
          "velocity": 0.33070866141732286
        },
        {
          "duration": 0.023255813953486637,
          "durationTicks": 2,
          "midi": 55,
          "name": "G3",
          "ticks": 2319,
          "time": 26.96511627906977,
          "velocity": 0.25984251968503935
        },
        {
          "duration": 0.4651162790697647,
          "durationTicks": 40,
          "midi": 88,
          "name": "E6",
          "ticks": 2320,
          "time": 26.976744186046513,
          "velocity": 0.3543307086614173
        },
        {
          "duration": 0.09302325581395365,
          "durationTicks": 8,
          "midi": 64,
          "name": "E4",
          "ticks": 2321,
          "time": 26.988372093023255,
          "velocity": 0.29133858267716534
        },
        {
          "duration": 0.03488372093023173,
          "durationTicks": 3,
          "midi": 40,
          "name": "E2",
          "ticks": 2323,
          "time": 27.011627906976745,
          "velocity": 0.2755905511811024
        },
        {
          "duration": 0.08139534883720856,
          "durationTicks": 7,
          "midi": 76,
          "name": "E5",
          "ticks": 2323,
          "time": 27.011627906976745,
          "velocity": 0.41732283464566927
        },
        {
          "duration": 0.09302325581395365,
          "durationTicks": 8,
          "midi": 81,
          "name": "A5",
          "ticks": 2323,
          "time": 27.011627906976745,
          "velocity": 0.18110236220472442
        },
        {
          "duration": 0.05813953488371837,
          "durationTicks": 5,
          "midi": 40,
          "name": "E2",
          "ticks": 2327,
          "time": 27.058139534883722,
          "velocity": 0.28346456692913385
        },
        {
          "duration": 0.05813953488371837,
          "durationTicks": 5,
          "midi": 87,
          "name": "D#6",
          "ticks": 2327,
          "time": 27.058139534883722,
          "velocity": 0.11811023622047244
        },
        {
          "duration": 0.5930232558139537,
          "durationTicks": 51,
          "midi": 77,
          "name": "F5",
          "ticks": 2329,
          "time": 27.08139534883721,
          "velocity": 0.5196850393700787
        },
        {
          "duration": 0.23255813953488413,
          "durationTicks": 20,
          "midi": 84,
          "name": "C6",
          "ticks": 2329,
          "time": 27.08139534883721,
          "velocity": 0.3700787401574803
        },
        {
          "duration": 0.23255813953488413,
          "durationTicks": 20,
          "midi": 69,
          "name": "A4",
          "ticks": 2330,
          "time": 27.093023255813954,
          "velocity": 0.2283464566929134
        },
        {
          "duration": 0.3255813953488378,
          "durationTicks": 28,
          "midi": 79,
          "name": "G5",
          "ticks": 2330,
          "time": 27.093023255813954,
          "velocity": 0.47244094488188976
        },
        {
          "duration": 0.22093023255813904,
          "durationTicks": 19,
          "midi": 62,
          "name": "D4",
          "ticks": 2331,
          "time": 27.1046511627907,
          "velocity": 0.3700787401574803
        },
        {
          "duration": 0.24418604651162568,
          "durationTicks": 21,
          "midi": 65,
          "name": "F4",
          "ticks": 2331,
          "time": 27.1046511627907,
          "velocity": 0.4094488188976378
        },
        {
          "duration": 0.09302325581395365,
          "durationTicks": 8,
          "midi": 40,
          "name": "E2",
          "ticks": 2333,
          "time": 27.127906976744185,
          "velocity": 0.2283464566929134
        },
        {
          "duration": 0.03488372093023173,
          "durationTicks": 3,
          "midi": 72,
          "name": "C5",
          "ticks": 2333,
          "time": 27.127906976744185,
          "velocity": 0.1889763779527559
        },
        {
          "duration": 0.05813953488372192,
          "durationTicks": 5,
          "midi": 72,
          "name": "C5",
          "ticks": 2337,
          "time": 27.174418604651162,
          "velocity": 0.11811023622047244
        },
        {
          "duration": 0.13953488372093048,
          "durationTicks": 12,
          "midi": 57,
          "name": "A3",
          "ticks": 2338,
          "time": 27.186046511627907,
          "velocity": 0.23622047244094488
        },
        {
          "duration": 0.04651162790697683,
          "durationTicks": 4,
          "midi": 85,
          "name": "C#6",
          "ticks": 2339,
          "time": 27.197674418604652,
          "velocity": 0.07874015748031496
        },
        {
          "duration": 0.24418604651162923,
          "durationTicks": 21,
          "midi": 82,
          "name": "A#5",
          "ticks": 2349,
          "time": 27.313953488372093,
          "velocity": 0.4566929133858268
        },
        {
          "duration": 0.22093023255813904,
          "durationTicks": 19,
          "midi": 67,
          "name": "G4",
          "ticks": 2350,
          "time": 27.325581395348838,
          "velocity": 0.4094488188976378
        },
        {
          "duration": 0.23255813953488413,
          "durationTicks": 20,
          "midi": 70,
          "name": "A#4",
          "ticks": 2350,
          "time": 27.325581395348838,
          "velocity": 0.3543307086614173
        },
        {
          "duration": 0.20930232558139394,
          "durationTicks": 18,
          "midi": 62,
          "name": "D4",
          "ticks": 2351,
          "time": 27.337209302325583,
          "velocity": 0.3464566929133858
        },
        {
          "duration": 0.06976744186046346,
          "durationTicks": 6,
          "midi": 92,
          "name": "G#6",
          "ticks": 2351,
          "time": 27.337209302325583,
          "velocity": 0.07874015748031496
        },
        {
          "duration": 0.03488372093023173,
          "durationTicks": 3,
          "midi": 95,
          "name": "B6",
          "ticks": 2351,
          "time": 27.337209302325583,
          "velocity": 0.07874015748031496
        },
        {
          "duration": 0.02325581395349019,
          "durationTicks": 2,
          "midi": 43,
          "name": "G2",
          "ticks": 2353,
          "time": 27.36046511627907,
          "velocity": 0.30708661417322836
        },
        {
          "duration": 0.08139534883720856,
          "durationTicks": 7,
          "midi": 90,
          "name": "F#6",
          "ticks": 2354,
          "time": 27.372093023255815,
          "velocity": 0.07874015748031496
        },
        {
          "duration": 0.023255813953486637,
          "durationTicks": 2,
          "midi": 44,
          "name": "G#2",
          "ticks": 2355,
          "time": 27.38372093023256,
          "velocity": 0.29133858267716534
        },
        {
          "duration": 0.06976744186046346,
          "durationTicks": 6,
          "midi": 58,
          "name": "A#3",
          "ticks": 2355,
          "time": 27.38372093023256,
          "velocity": 0.29133858267716534
        },
        {
          "duration": 0.06976744186046346,
          "durationTicks": 6,
          "midi": 83,
          "name": "B5",
          "ticks": 2355,
          "time": 27.38372093023256,
          "velocity": 0.2204724409448819
        },
        {
          "duration": 0.1744186046511622,
          "durationTicks": 15,
          "midi": 85,
          "name": "C#6",
          "ticks": 2355,
          "time": 27.38372093023256,
          "velocity": 0.14173228346456693
        },
        {
          "duration": 0.04651162790697683,
          "durationTicks": 4,
          "midi": 50,
          "name": "D3",
          "ticks": 2357,
          "time": 27.406976744186046,
          "velocity": 0.1889763779527559
        },
        {
          "duration": 0.05813953488372192,
          "durationTicks": 5,
          "midi": 43,
          "name": "G2",
          "ticks": 2360,
          "time": 27.441860465116278,
          "velocity": 0.1889763779527559
        },
        {
          "duration": 0.06976744186046346,
          "durationTicks": 6,
          "midi": 50,
          "name": "D3",
          "ticks": 2362,
          "time": 27.46511627906977,
          "velocity": 0.14960629921259844
        },
        {
          "duration": 0.08139534883720856,
          "durationTicks": 7,
          "midi": 58,
          "name": "A#3",
          "ticks": 2362,
          "time": 27.46511627906977,
          "velocity": 0.2755905511811024
        },
        {
          "duration": 0.04651162790697683,
          "durationTicks": 4,
          "midi": 83,
          "name": "B5",
          "ticks": 2364,
          "time": 27.488372093023255,
          "velocity": 0.2283464566929134
        },
        {
          "duration": 0.02325581395349019,
          "durationTicks": 2,
          "midi": 43,
          "name": "G2",
          "ticks": 2368,
          "time": 27.53488372093023,
          "velocity": 0.2677165354330709
        },
        {
          "duration": 0.03488372093023173,
          "durationTicks": 3,
          "midi": 53,
          "name": "F3",
          "ticks": 2368,
          "time": 27.53488372093023,
          "velocity": 0.13385826771653545
        },
        {
          "duration": 0.15116279069767558,
          "durationTicks": 13,
          "midi": 60,
          "name": "C4",
          "ticks": 2369,
          "time": 27.546511627906977,
          "velocity": 0.4251968503937008
        },
        {
          "duration": 0.12790697674418539,
          "durationTicks": 11,
          "midi": 65,
          "name": "F4",
          "ticks": 2369,
          "time": 27.546511627906977,
          "velocity": 0.33070866141732286
        },
        {
          "duration": 0.6627906976744171,
          "durationTicks": 57,
          "midi": 81,
          "name": "A5",
          "ticks": 2369,
          "time": 27.546511627906977,
          "velocity": 0.30708661417322836
        },
        {
          "duration": 0.20930232558139394,
          "durationTicks": 18,
          "midi": 88,
          "name": "E6",
          "ticks": 2369,
          "time": 27.546511627906977,
          "velocity": 0.2440944881889764
        },
        {
          "duration": 0.13953488372093048,
          "durationTicks": 12,
          "midi": 69,
          "name": "A4",
          "ticks": 2370,
          "time": 27.558139534883722,
          "velocity": 0.41732283464566927
        },
        {
          "duration": 0.11627906976744384,
          "durationTicks": 10,
          "midi": 43,
          "name": "G2",
          "ticks": 2371,
          "time": 27.569767441860463,
          "velocity": 0.31496062992125984
        },
        {
          "duration": 0.3372093023255829,
          "durationTicks": 29,
          "midi": 72,
          "name": "C5",
          "ticks": 2371,
          "time": 27.569767441860463,
          "velocity": 0.44881889763779526
        },
        {
          "duration": 0.03488372093023173,
          "durationTicks": 3,
          "midi": 97,
          "name": "C#7",
          "ticks": 2372,
          "time": 27.58139534883721,
          "velocity": 0.07086614173228346
        },
        {
          "duration": 0.04651162790697683,
          "durationTicks": 4,
          "midi": 83,
          "name": "B5",
          "ticks": 2374,
          "time": 27.6046511627907,
          "velocity": 0.12598425196850394
        },
        {
          "duration": 0.06976744186046702,
          "durationTicks": 6,
          "midi": 91,
          "name": "G6",
          "ticks": 2379,
          "time": 27.662790697674417,
          "velocity": 0.2047244094488189
        },
        {
          "duration": 0.1976744186046524,
          "durationTicks": 17,
          "midi": 76,
          "name": "E5",
          "ticks": 2380,
          "time": 27.674418604651162,
          "velocity": 0.4645669291338583
        },
        {
          "duration": 0.22093023255813904,
          "durationTicks": 19,
          "midi": 79,
          "name": "G5",
          "ticks": 2380,
          "time": 27.674418604651162,
          "velocity": 0.2125984251968504
        },
        {
          "duration": 0.05813953488372192,
          "durationTicks": 5,
          "midi": 83,
          "name": "B5",
          "ticks": 2380,
          "time": 27.674418604651162,
          "velocity": 0.10236220472440945
        },
        {
          "duration": 0.13953488372093048,
          "durationTicks": 12,
          "midi": 96,
          "name": "C7",
          "ticks": 2380,
          "time": 27.674418604651162,
          "velocity": 0.07874015748031496
        },
        {
          "duration": 0.22093023255813904,
          "durationTicks": 19,
          "midi": 67,
          "name": "G4",
          "ticks": 2381,
          "time": 27.686046511627907,
          "velocity": 0.4330708661417323
        },
        {
          "duration": 0.03488372093023173,
          "durationTicks": 3,
          "midi": 43,
          "name": "G2",
          "ticks": 2382,
          "time": 27.697674418604652,
          "velocity": 0.14960629921259844
        },
        {
          "duration": 0.06976744186046702,
          "durationTicks": 6,
          "midi": 60,
          "name": "C4",
          "ticks": 2383,
          "time": 27.709302325581394,
          "velocity": 0.3464566929133858
        },
        {
          "duration": 0.04651162790697683,
          "durationTicks": 4,
          "midi": 55,
          "name": "G3",
          "ticks": 2384,
          "time": 27.72093023255814,
          "velocity": 0.2204724409448819
        },
        {
          "duration": 0.03488372093023173,
          "durationTicks": 3,
          "midi": 43,
          "name": "G2",
          "ticks": 2386,
          "time": 27.74418604651163,
          "velocity": 0.1889763779527559
        },
        {
          "duration": 0.06976744186046702,
          "durationTicks": 6,
          "midi": 85,
          "name": "C#6",
          "ticks": 2387,
          "time": 27.75581395348837,
          "velocity": 0.10236220472440945
        },
        {
          "duration": 0.03488372093023173,
          "durationTicks": 3,
          "midi": 83,
          "name": "B5",
          "ticks": 2389,
          "time": 27.77906976744186,
          "velocity": 0.28346456692913385
        },
        {
          "duration": 0.1976744186046524,
          "durationTicks": 17,
          "midi": 87,
          "name": "D#6",
          "ticks": 2389,
          "time": 27.77906976744186,
          "velocity": 0.1968503937007874
        },
        {
          "duration": 0.16279069767441712,
          "durationTicks": 14,
          "midi": 53,
          "name": "F3",
          "ticks": 2390,
          "time": 27.790697674418606,
          "velocity": 0.36220472440944884
        },
        {
          "duration": 0.06976744186046346,
          "durationTicks": 6,
          "midi": 64,
          "name": "E4",
          "ticks": 2390,
          "time": 27.790697674418606,
          "velocity": 0.4330708661417323
        },
        {
          "duration": 0.04651162790697683,
          "durationTicks": 4,
          "midi": 59,
          "name": "B3",
          "ticks": 2391,
          "time": 27.802325581395348,
          "velocity": 0.36220472440944884
        },
        {
          "duration": 0.1046511627906952,
          "durationTicks": 9,
          "midi": 83,
          "name": "B5",
          "ticks": 2394,
          "time": 27.837209302325583,
          "velocity": 0.25984251968503935
        },
        {
          "duration": 0.04651162790697683,
          "durationTicks": 4,
          "midi": 41,
          "name": "F2",
          "ticks": 2395,
          "time": 27.848837209302324,
          "velocity": 0.16535433070866143
        },
        {
          "duration": 0.1744186046511622,
          "durationTicks": 15,
          "midi": 77,
          "name": "F5",
          "ticks": 2396,
          "time": 27.86046511627907,
          "velocity": 0.49606299212598426
        },
        {
          "duration": 0.023255813953486637,
          "durationTicks": 2,
          "midi": 58,
          "name": "A#3",
          "ticks": 2397,
          "time": 27.872093023255815,
          "velocity": 0.2755905511811024
        },
        {
          "duration": 0.034883720930235285,
          "durationTicks": 3,
          "midi": 59,
          "name": "B3",
          "ticks": 2399,
          "time": 27.8953488372093,
          "velocity": 0.31496062992125984
        },
        {
          "duration": 0.034883720930235285,
          "durationTicks": 3,
          "midi": 65,
          "name": "F4",
          "ticks": 2399,
          "time": 27.8953488372093,
          "velocity": 0.36220472440944884
        },
        {
          "duration": 0.15116279069767558,
          "durationTicks": 13,
          "midi": 69,
          "name": "A4",
          "ticks": 2399,
          "time": 27.8953488372093,
          "velocity": 0.3858267716535433
        },
        {
          "duration": 0.034883720930235285,
          "durationTicks": 3,
          "midi": 98,
          "name": "D7",
          "ticks": 2399,
          "time": 27.8953488372093,
          "velocity": 0.07086614173228346
        },
        {
          "duration": 0.03488372093023173,
          "durationTicks": 3,
          "midi": 41,
          "name": "F2",
          "ticks": 2400,
          "time": 27.906976744186046,
          "velocity": 0.16535433070866143
        },
        {
          "duration": 0.03488372093023173,
          "durationTicks": 3,
          "midi": 79,
          "name": "G5",
          "ticks": 2401,
          "time": 27.91860465116279,
          "velocity": 0.08661417322834646
        },
        {
          "duration": 0.02325581395349019,
          "durationTicks": 2,
          "midi": 67,
          "name": "G4",
          "ticks": 2403,
          "time": 27.941860465116278,
          "velocity": 0.25196850393700787
        },
        {
          "duration": 0.04651162790697683,
          "durationTicks": 4,
          "midi": 41,
          "name": "F2",
          "ticks": 2404,
          "time": 27.953488372093023,
          "velocity": 0.16535433070866143
        },
        {
          "duration": 0.05813953488372192,
          "durationTicks": 5,
          "midi": 59,
          "name": "B3",
          "ticks": 2404,
          "time": 27.953488372093023,
          "velocity": 0.2992125984251969
        },
        {
          "duration": 0.03488372093023173,
          "durationTicks": 3,
          "midi": 72,
          "name": "C5",
          "ticks": 2404,
          "time": 27.953488372093023,
          "velocity": 0.29133858267716534
        },
        {
          "duration": 0.03488372093023173,
          "durationTicks": 3,
          "midi": 53,
          "name": "F3",
          "ticks": 2405,
          "time": 27.96511627906977,
          "velocity": 0.25196850393700787
        },
        {
          "duration": 0.38372093023255616,
          "durationTicks": 33,
          "midi": 83,
          "name": "B5",
          "ticks": 2405,
          "time": 27.96511627906977,
          "velocity": 0.28346456692913385
        },
        {
          "duration": 0.6046511627906987,
          "durationTicks": 52,
          "midi": 72,
          "name": "C5",
          "ticks": 2408,
          "time": 28,
          "velocity": 0.4881889763779528
        },
        {
          "duration": 0.27906976744186096,
          "durationTicks": 24,
          "midi": 79,
          "name": "G5",
          "ticks": 2408,
          "time": 28,
          "velocity": 0.28346456692913385
        },
        {
          "duration": 0.05813953488372192,
          "durationTicks": 5,
          "midi": 87,
          "name": "D#6",
          "ticks": 2408,
          "time": 28,
          "velocity": 0.13385826771653545
        },
        {
          "duration": 0.09302325581395365,
          "durationTicks": 8,
          "midi": 88,
          "name": "E6",
          "ticks": 2408,
          "time": 28,
          "velocity": 0.29133858267716534
        },
        {
          "duration": 0.03488372093023173,
          "durationTicks": 3,
          "midi": 44,
          "name": "G#2",
          "ticks": 2409,
          "time": 28.011627906976745,
          "velocity": 0.2440944881889764
        },
        {
          "duration": 0.25581395348837077,
          "durationTicks": 22,
          "midi": 60,
          "name": "C4",
          "ticks": 2409,
          "time": 28.011627906976745,
          "velocity": 0.3937007874015748
        },
        {
          "duration": 0.06976744186046346,
          "durationTicks": 6,
          "midi": 85,
          "name": "C#6",
          "ticks": 2409,
          "time": 28.011627906976745,
          "velocity": 0.11811023622047244
        },
        {
          "duration": 0.20930232558139394,
          "durationTicks": 18,
          "midi": 90,
          "name": "F#6",
          "ticks": 2409,
          "time": 28.011627906976745,
          "velocity": 0.14960629921259844
        },
        {
          "duration": 0.1976744186046524,
          "durationTicks": 17,
          "midi": 76,
          "name": "E5",
          "ticks": 2410,
          "time": 28.023255813953487,
          "velocity": 0.47244094488188976
        },
        {
          "duration": 0.06976744186046702,
          "durationTicks": 6,
          "midi": 67,
          "name": "G4",
          "ticks": 2411,
          "time": 28.03488372093023,
          "velocity": 0.4015748031496063
        },
        {
          "duration": 0.023255813953486637,
          "durationTicks": 2,
          "midi": 42,
          "name": "F#2",
          "ticks": 2412,
          "time": 28.046511627906977,
          "velocity": 0.2677165354330709
        },
        {
          "duration": 0.08139534883720856,
          "durationTicks": 7,
          "midi": 89,
          "name": "F6",
          "ticks": 2412,
          "time": 28.046511627906977,
          "velocity": 0.11023622047244094
        },
        {
          "duration": 0.02325581395349019,
          "durationTicks": 2,
          "midi": 43,
          "name": "G2",
          "ticks": 2414,
          "time": 28.069767441860463,
          "velocity": 0.2283464566929134
        },
        {
          "duration": 0.23255813953488413,
          "durationTicks": 20,
          "midi": 69,
          "name": "A4",
          "ticks": 2415,
          "time": 28.08139534883721,
          "velocity": 0.29133858267716534
        },
        {
          "duration": 0.1744186046511622,
          "durationTicks": 15,
          "midi": 65,
          "name": "F4",
          "ticks": 2416,
          "time": 28.093023255813954,
          "velocity": 0.3228346456692913
        },
        {
          "duration": 0.12790697674418539,
          "durationTicks": 11,
          "midi": 43,
          "name": "G2",
          "ticks": 2417,
          "time": 28.1046511627907,
          "velocity": 0.1889763779527559
        },
        {
          "duration": 0.7558139534883743,
          "durationTicks": 65,
          "midi": 74,
          "name": "D5",
          "ticks": 2427,
          "time": 28.22093023255814,
          "velocity": 0.5039370078740157
        },
        {
          "duration": 0.47674418604651336,
          "durationTicks": 41,
          "midi": 77,
          "name": "F5",
          "ticks": 2427,
          "time": 28.22093023255814,
          "velocity": 0.49606299212598426
        },
        {
          "duration": 0.2906976744186025,
          "durationTicks": 25,
          "midi": 93,
          "name": "A6",
          "ticks": 2428,
          "time": 28.232558139534884,
          "velocity": 0.2992125984251969
        },
        {
          "duration": 0.13953488372093048,
          "durationTicks": 12,
          "midi": 43,
          "name": "G2",
          "ticks": 2429,
          "time": 28.24418604651163,
          "velocity": 0.3858267716535433
        },
        {
          "duration": 0.1046511627906952,
          "durationTicks": 9,
          "midi": 81,
          "name": "A5",
          "ticks": 2429,
          "time": 28.24418604651163,
          "velocity": 0.29133858267716534
        },
        {
          "duration": 0.26744186046511587,
          "durationTicks": 23,
          "midi": 85,
          "name": "C#6",
          "ticks": 2430,
          "time": 28.25581395348837,
          "velocity": 0.14960629921259844
        },
        {
          "duration": 0.034883720930235285,
          "durationTicks": 3,
          "midi": 90,
          "name": "F#6",
          "ticks": 2430,
          "time": 28.25581395348837,
          "velocity": 0.08661417322834646
        },
        {
          "duration": 0.09302325581395365,
          "durationTicks": 8,
          "midi": 65,
          "name": "F4",
          "ticks": 2435,
          "time": 28.313953488372093,
          "velocity": 0.18110236220472442
        },
        {
          "duration": 0.034883720930235285,
          "durationTicks": 3,
          "midi": 62,
          "name": "D4",
          "ticks": 2438,
          "time": 28.348837209302324,
          "velocity": 0.11811023622047244
        },
        {
          "duration": 0.04651162790697683,
          "durationTicks": 4,
          "midi": 90,
          "name": "F#6",
          "ticks": 2438,
          "time": 28.348837209302324,
          "velocity": 0.10236220472440945
        },
        {
          "duration": 0.04651162790697683,
          "durationTicks": 4,
          "midi": 96,
          "name": "C7",
          "ticks": 2438,
          "time": 28.348837209302324,
          "velocity": 0.11023622047244094
        },
        {
          "duration": 0.03488372093023173,
          "durationTicks": 3,
          "midi": 50,
          "name": "D3",
          "ticks": 2439,
          "time": 28.36046511627907,
          "velocity": 0.14173228346456693
        },
        {
          "duration": 0.3604651162790695,
          "durationTicks": 31,
          "midi": 81,
          "name": "A5",
          "ticks": 2439,
          "time": 28.36046511627907,
          "velocity": 0.29133858267716534
        },
        {
          "duration": 0.06976744186046702,
          "durationTicks": 6,
          "midi": 91,
          "name": "G6",
          "ticks": 2439,
          "time": 28.36046511627907,
          "velocity": 0.14173228346456693
        },
        {
          "duration": 0.023255813953486637,
          "durationTicks": 2,
          "midi": 59,
          "name": "B3",
          "ticks": 2440,
          "time": 28.372093023255815,
          "velocity": 0.23622047244094488
        },
        {
          "duration": 0.05813953488372192,
          "durationTicks": 5,
          "midi": 83,
          "name": "B5",
          "ticks": 2440,
          "time": 28.372093023255815,
          "velocity": 0.2125984251968504
        },
        {
          "duration": 0.04651162790697683,
          "durationTicks": 4,
          "midi": 43,
          "name": "G2",
          "ticks": 2442,
          "time": 28.3953488372093,
          "velocity": 0.2992125984251969
        },
        {
          "duration": 0.04651162790697683,
          "durationTicks": 4,
          "midi": 62,
          "name": "D4",
          "ticks": 2442,
          "time": 28.3953488372093,
          "velocity": 0.13385826771653545
        },
        {
          "duration": 0.04651162790697683,
          "durationTicks": 4,
          "midi": 50,
          "name": "D3",
          "ticks": 2446,
          "time": 28.441860465116278,
          "velocity": 0.2992125984251969
        },
        {
          "duration": 0.04651162790697683,
          "durationTicks": 4,
          "midi": 83,
          "name": "B5",
          "ticks": 2446,
          "time": 28.441860465116278,
          "velocity": 0.1889763779527559
        },
        {
          "duration": 0.05813953488372192,
          "durationTicks": 5,
          "midi": 91,
          "name": "G6",
          "ticks": 2447,
          "time": 28.453488372093023,
          "velocity": 0.16535433070866143
        },
        {
          "duration": 0.023255813953486637,
          "durationTicks": 2,
          "midi": 44,
          "name": "G#2",
          "ticks": 2448,
          "time": 28.46511627906977,
          "velocity": 0.29133858267716534
        },
        {
          "duration": 0.24418604651162568,
          "durationTicks": 21,
          "midi": 65,
          "name": "F4",
          "ticks": 2448,
          "time": 28.46511627906977,
          "velocity": 0.44881889763779526
        },
        {
          "duration": 0.22093023255813904,
          "durationTicks": 19,
          "midi": 87,
          "name": "D#6",
          "ticks": 2448,
          "time": 28.46511627906977,
          "velocity": 0.14173228346456693
        },
        {
          "duration": 0.20930232558139394,
          "durationTicks": 18,
          "midi": 62,
          "name": "D4",
          "ticks": 2449,
          "time": 28.476744186046513,
          "velocity": 0.2992125984251969
        },
        {
          "duration": 0.06976744186046346,
          "durationTicks": 6,
          "midi": 90,
          "name": "F#6",
          "ticks": 2449,
          "time": 28.476744186046513,
          "velocity": 0.07086614173228346
        },
        {
          "duration": 0.02325581395349019,
          "durationTicks": 2,
          "midi": 52,
          "name": "E3",
          "ticks": 2450,
          "time": 28.488372093023255,
          "velocity": 0.2677165354330709
        },
        {
          "duration": 0.22093023255813904,
          "durationTicks": 19,
          "midi": 69,
          "name": "A4",
          "ticks": 2450,
          "time": 28.488372093023255,
          "velocity": 0.1732283464566929
        },
        {
          "duration": 0.023255813953486637,
          "durationTicks": 2,
          "midi": 53,
          "name": "F3",
          "ticks": 2451,
          "time": 28.5,
          "velocity": 0.2992125984251969
        },
        {
          "duration": 0.1976744186046524,
          "durationTicks": 17,
          "midi": 88,
          "name": "E6",
          "ticks": 2451,
          "time": 28.5,
          "velocity": 0.1732283464566929
        },
        {
          "duration": 0.04651162790697683,
          "durationTicks": 4,
          "midi": 85,
          "name": "C#6",
          "ticks": 2456,
          "time": 28.558139534883722,
          "velocity": 0.11023622047244094
        },
        {
          "duration": 0.1046511627906952,
          "durationTicks": 9,
          "midi": 95,
          "name": "B6",
          "ticks": 2456,
          "time": 28.558139534883722,
          "velocity": 0.10236220472440945
        },
        {
          "duration": 0.02325581395349019,
          "durationTicks": 2,
          "midi": 50,
          "name": "D3",
          "ticks": 2461,
          "time": 28.61627906976744,
          "velocity": 0.29133858267716534
        },
        {
          "duration": 0.06976744186046702,
          "durationTicks": 6,
          "midi": 72,
          "name": "C5",
          "ticks": 2461,
          "time": 28.61627906976744,
          "velocity": 0.18110236220472442
        },
        {
          "duration": 0.05813953488372192,
          "durationTicks": 5,
          "midi": 38,
          "name": "D2",
          "ticks": 2462,
          "time": 28.627906976744185,
          "velocity": 0.1968503937007874
        },
        {
          "duration": 0.03488372093023173,
          "durationTicks": 3,
          "midi": 58,
          "name": "A#3",
          "ticks": 2462,
          "time": 28.627906976744185,
          "velocity": 0.13385826771653545
        },
        {
          "duration": 0.05813953488371837,
          "durationTicks": 5,
          "midi": 50,
          "name": "D3",
          "ticks": 2464,
          "time": 28.651162790697676,
          "velocity": 0.2755905511811024
        },
        {
          "duration": 0.24418604651162568,
          "durationTicks": 21,
          "midi": 85,
          "name": "C#6",
          "ticks": 2464,
          "time": 28.651162790697676,
          "velocity": 0.3937007874015748
        },
        {
          "duration": 0.02325581395349019,
          "durationTicks": 2,
          "midi": 58,
          "name": "A#3",
          "ticks": 2466,
          "time": 28.674418604651162,
          "velocity": 0.25196850393700787
        },
        {
          "duration": 0.04651162790697683,
          "durationTicks": 4,
          "midi": 91,
          "name": "G6",
          "ticks": 2466,
          "time": 28.674418604651162,
          "velocity": 0.08661417322834646
        },
        {
          "duration": 0.26744186046511587,
          "durationTicks": 23,
          "midi": 71,
          "name": "B4",
          "ticks": 2467,
          "time": 28.686046511627907,
          "velocity": 0.30708661417322836
        },
        {
          "duration": 0.15116279069767558,
          "durationTicks": 13,
          "midi": 83,
          "name": "B5",
          "ticks": 2467,
          "time": 28.686046511627907,
          "velocity": 0.4330708661417323
        },
        {
          "duration": 0.03488372093023173,
          "durationTicks": 3,
          "midi": 59,
          "name": "B3",
          "ticks": 2468,
          "time": 28.697674418604652,
          "velocity": 0.3543307086614173
        },
        {
          "duration": 0.22093023255813904,
          "durationTicks": 19,
          "midi": 76,
          "name": "E5",
          "ticks": 2468,
          "time": 28.697674418604652,
          "velocity": 0.25984251968503935
        },
        {
          "duration": 0.05813953488372192,
          "durationTicks": 5,
          "midi": 64,
          "name": "E4",
          "ticks": 2469,
          "time": 28.709302325581394,
          "velocity": 0.44881889763779526
        },
        {
          "duration": 0.03488372093023173,
          "durationTicks": 3,
          "midi": 67,
          "name": "G4",
          "ticks": 2470,
          "time": 28.72093023255814,
          "velocity": 0.2677165354330709
        },
        {
          "duration": 0.023255813953486637,
          "durationTicks": 2,
          "midi": 53,
          "name": "F3",
          "ticks": 2471,
          "time": 28.732558139534884,
          "velocity": 0.29133858267716534
        },
        {
          "duration": 0.023255813953486637,
          "durationTicks": 2,
          "midi": 60,
          "name": "C4",
          "ticks": 2471,
          "time": 28.732558139534884,
          "velocity": 0.29133858267716534
        },
        {
          "duration": 0.13953488372093048,
          "durationTicks": 12,
          "midi": 84,
          "name": "C6",
          "ticks": 2471,
          "time": 28.732558139534884,
          "velocity": 0.4015748031496063
        },
        {
          "duration": 0.034883720930235285,
          "durationTicks": 3,
          "midi": 41,
          "name": "F2",
          "ticks": 2473,
          "time": 28.75581395348837,
          "velocity": 0.1889763779527559
        },
        {
          "duration": 0.02325581395349019,
          "durationTicks": 2,
          "midi": 52,
          "name": "E3",
          "ticks": 2473,
          "time": 28.75581395348837,
          "velocity": 0.3228346456692913
        },
        {
          "duration": 0.05813953488372192,
          "durationTicks": 5,
          "midi": 59,
          "name": "B3",
          "ticks": 2473,
          "time": 28.75581395348837,
          "velocity": 0.25984251968503935
        },
        {
          "duration": 0.02325581395349019,
          "durationTicks": 2,
          "midi": 65,
          "name": "F4",
          "ticks": 2474,
          "time": 28.767441860465116,
          "velocity": 0.3700787401574803
        },
        {
          "duration": 0.023255813953486637,
          "durationTicks": 2,
          "midi": 53,
          "name": "F3",
          "ticks": 2475,
          "time": 28.77906976744186,
          "velocity": 0.2755905511811024
        },
        {
          "duration": 0.09302325581395365,
          "durationTicks": 8,
          "midi": 87,
          "name": "D#6",
          "ticks": 2475,
          "time": 28.77906976744186,
          "velocity": 0.16535433070866143
        },
        {
          "duration": 0.15116279069767202,
          "durationTicks": 13,
          "midi": 82,
          "name": "A#5",
          "ticks": 2476,
          "time": 28.790697674418606,
          "velocity": 0.4015748031496063
        },
        {
          "duration": 0.15116279069767202,
          "durationTicks": 13,
          "midi": 91,
          "name": "G6",
          "ticks": 2476,
          "time": 28.790697674418606,
          "velocity": 0.11811023622047244
        },
        {
          "duration": 0.04651162790697683,
          "durationTicks": 4,
          "midi": 65,
          "name": "F4",
          "ticks": 2477,
          "time": 28.802325581395348,
          "velocity": 0.3700787401574803
        },
        {
          "duration": 0.034883720930235285,
          "durationTicks": 3,
          "midi": 81,
          "name": "A5",
          "ticks": 2477,
          "time": 28.802325581395348,
          "velocity": 0.1889763779527559
        },
        {
          "duration": 0.10465116279069875,
          "durationTicks": 9,
          "midi": 59,
          "name": "B3",
          "ticks": 2479,
          "time": 28.825581395348838,
          "velocity": 0.29133858267716534
        },
        {
          "duration": 0.06976744186046346,
          "durationTicks": 6,
          "midi": 41,
          "name": "F2",
          "ticks": 2480,
          "time": 28.837209302325583,
          "velocity": 0.14960629921259844
        },
        {
          "duration": 0.03488372093023173,
          "durationTicks": 3,
          "midi": 67,
          "name": "G4",
          "ticks": 2480,
          "time": 28.837209302325583,
          "velocity": 0.28346456692913385
        },
        {
          "duration": 0.02325581395349019,
          "durationTicks": 2,
          "midi": 81,
          "name": "A5",
          "ticks": 2481,
          "time": 28.848837209302324,
          "velocity": 0.28346456692913385
        },
        {
          "duration": 0.10465116279069875,
          "durationTicks": 9,
          "midi": 92,
          "name": "G#6",
          "ticks": 2481,
          "time": 28.848837209302324,
          "velocity": 0.16535433070866143
        },
        {
          "duration": 0.03488372093023173,
          "durationTicks": 3,
          "midi": 65,
          "name": "F4",
          "ticks": 2482,
          "time": 28.86046511627907,
          "velocity": 0.3464566929133858
        },
        {
          "duration": 0.02325581395349019,
          "durationTicks": 2,
          "midi": 78,
          "name": "F#5",
          "ticks": 2482,
          "time": 28.86046511627907,
          "velocity": 0.33858267716535434
        },
        {
          "duration": 0.03488372093023173,
          "durationTicks": 3,
          "midi": 67,
          "name": "G4",
          "ticks": 2484,
          "time": 28.88372093023256,
          "velocity": 0.25984251968503935
        },
        {
          "duration": 0.03488372093023173,
          "durationTicks": 3,
          "midi": 79,
          "name": "G5",
          "ticks": 2484,
          "time": 28.88372093023256,
          "velocity": 0.4330708661417323
        },
        {
          "duration": 0.03488372093023173,
          "durationTicks": 3,
          "midi": 65,
          "name": "F4",
          "ticks": 2486,
          "time": 28.906976744186046,
          "velocity": 0.33070866141732286
        },
        {
          "duration": 0.04651162790697683,
          "durationTicks": 4,
          "midi": 78,
          "name": "F#5",
          "ticks": 2486,
          "time": 28.906976744186046,
          "velocity": 0.47244094488188976
        },
        {
          "duration": 0.05813953488372192,
          "durationTicks": 5,
          "midi": 87,
          "name": "D#6",
          "ticks": 2486,
          "time": 28.906976744186046,
          "velocity": 0.11023622047244094
        },
        {
          "duration": 0.19767441860464885,
          "durationTicks": 17,
          "midi": 67,
          "name": "G4",
          "ticks": 2488,
          "time": 28.930232558139537,
          "velocity": 0.31496062992125984
        },
        {
          "duration": 0.04651162790697683,
          "durationTicks": 4,
          "midi": 89,
          "name": "F6",
          "ticks": 2488,
          "time": 28.930232558139537,
          "velocity": 0.2125984251968504
        },
        {
          "duration": 0.02325581395349019,
          "durationTicks": 2,
          "midi": 43,
          "name": "G2",
          "ticks": 2489,
          "time": 28.941860465116278,
          "velocity": 0.2992125984251969
        },
        {
          "duration": 0.034883720930235285,
          "durationTicks": 3,
          "midi": 77,
          "name": "F5",
          "ticks": 2489,
          "time": 28.941860465116278,
          "velocity": 0.4645669291338583
        },
        {
          "duration": 0.08139534883720856,
          "durationTicks": 7,
          "midi": 88,
          "name": "E6",
          "ticks": 2490,
          "time": 28.953488372093023,
          "velocity": 0.1732283464566929
        },
        {
          "duration": 0.03488372093023173,
          "durationTicks": 3,
          "midi": 76,
          "name": "E5",
          "ticks": 2491,
          "time": 28.96511627906977,
          "velocity": 0.4409448818897638
        },
        {
          "duration": 0.046511627906973274,
          "durationTicks": 4,
          "midi": 43,
          "name": "G2",
          "ticks": 2492,
          "time": 28.976744186046513,
          "velocity": 0.2125984251968504
        },
        {
          "duration": 0.0930232558139501,
          "durationTicks": 8,
          "midi": 87,
          "name": "D#6",
          "ticks": 2492,
          "time": 28.976744186046513,
          "velocity": 0.15748031496062992
        },
        {
          "duration": 0.04651162790697683,
          "durationTicks": 4,
          "midi": 75,
          "name": "D#5",
          "ticks": 2493,
          "time": 28.988372093023255,
          "velocity": 0.48031496062992124
        },
        {
          "duration": 0.03488372093023173,
          "durationTicks": 3,
          "midi": 89,
          "name": "F6",
          "ticks": 2493,
          "time": 28.988372093023255,
          "velocity": 0.09448818897637795
        },
        {
          "duration": 0.05813953488372192,
          "durationTicks": 5,
          "midi": 62,
          "name": "D4",
          "ticks": 2494,
          "time": 29,
          "velocity": 0.11811023622047244
        },
        {
          "duration": 0.05813953488372192,
          "durationTicks": 5,
          "midi": 93,
          "name": "A6",
          "ticks": 2494,
          "time": 29,
          "velocity": 0.16535433070866143
        },
        {
          "duration": 0.03488372093023173,
          "durationTicks": 3,
          "midi": 85,
          "name": "C#6",
          "ticks": 2495,
          "time": 29.011627906976745,
          "velocity": 0.09448818897637795
        },
        {
          "duration": 0.03488372093023173,
          "durationTicks": 3,
          "midi": 73,
          "name": "C#5",
          "ticks": 2497,
          "time": 29.03488372093023,
          "velocity": 0.4409448818897638
        },
        {
          "duration": 0.23255813953488413,
          "durationTicks": 20,
          "midi": 77,
          "name": "F5",
          "ticks": 2498,
          "time": 29.046511627906977,
          "velocity": 0.2125984251968504
        },
        {
          "duration": 0.03488372093023173,
          "durationTicks": 3,
          "midi": 92,
          "name": "G#6",
          "ticks": 2498,
          "time": 29.046511627906977,
          "velocity": 0.11811023622047244
        },
        {
          "duration": 0.04651162790697683,
          "durationTicks": 4,
          "midi": 72,
          "name": "C5",
          "ticks": 2499,
          "time": 29.058139534883722,
          "velocity": 0.4409448818897638
        },
        {
          "duration": 0.04651162790697683,
          "durationTicks": 4,
          "midi": 91,
          "name": "G6",
          "ticks": 2499,
          "time": 29.058139534883722,
          "velocity": 0.11023622047244094
        },
        {
          "duration": 0.02325581395349019,
          "durationTicks": 2,
          "midi": 73,
          "name": "C#5",
          "ticks": 2501,
          "time": 29.08139534883721,
          "velocity": 0.4881889763779528
        },
        {
          "duration": 0.41860465116279144,
          "durationTicks": 36,
          "midi": 79,
          "name": "G5",
          "ticks": 2501,
          "time": 29.08139534883721,
          "velocity": 0.4645669291338583
        },
        {
          "duration": 0.034883720930235285,
          "durationTicks": 3,
          "midi": 70,
          "name": "A#4",
          "ticks": 2504,
          "time": 29.11627906976744,
          "velocity": 0.4330708661417323
        },
        {
          "duration": 0.02325581395349019,
          "durationTicks": 2,
          "midi": 73,
          "name": "C#5",
          "ticks": 2504,
          "time": 29.11627906976744,
          "velocity": 0.4015748031496063
        },
        {
          "duration": 0.08139534883721211,
          "durationTicks": 7,
          "midi": 94,
          "name": "A#6",
          "ticks": 2504,
          "time": 29.11627906976744,
          "velocity": 0.14960629921259844
        },
        {
          "duration": 0.3255813953488378,
          "durationTicks": 28,
          "midi": 81,
          "name": "A5",
          "ticks": 2505,
          "time": 29.127906976744185,
          "velocity": 0.3937007874015748
        },
        {
          "duration": 0.39534883720930125,
          "durationTicks": 34,
          "midi": 58,
          "name": "A#3",
          "ticks": 2506,
          "time": 29.13953488372093,
          "velocity": 0.33070866141732286
        },
        {
          "duration": 0.3139534883720927,
          "durationTicks": 27,
          "midi": 86,
          "name": "D6",
          "ticks": 2506,
          "time": 29.13953488372093,
          "velocity": 0.1889763779527559
        },
        {
          "duration": 0.03488372093023173,
          "durationTicks": 3,
          "midi": 53,
          "name": "F3",
          "ticks": 2507,
          "time": 29.151162790697676,
          "velocity": 0.2440944881889764
        },
        {
          "duration": 0.3139534883720927,
          "durationTicks": 27,
          "midi": 62,
          "name": "D4",
          "ticks": 2507,
          "time": 29.151162790697676,
          "velocity": 0.3228346456692913
        },
        {
          "duration": 0.4418604651162781,
          "durationTicks": 38,
          "midi": 74,
          "name": "D5",
          "ticks": 2507,
          "time": 29.151162790697676,
          "velocity": 0.4330708661417323
        },
        {
          "duration": 0.04651162790697683,
          "durationTicks": 4,
          "midi": 92,
          "name": "G#6",
          "ticks": 2507,
          "time": 29.151162790697676,
          "velocity": 0.11023622047244094
        },
        {
          "duration": 0.05813953488372192,
          "durationTicks": 5,
          "midi": 69,
          "name": "A4",
          "ticks": 2508,
          "time": 29.162790697674417,
          "velocity": 0.48031496062992124
        },
        {
          "duration": 0.10465116279069875,
          "durationTicks": 9,
          "midi": 95,
          "name": "B6",
          "ticks": 2509,
          "time": 29.174418604651162,
          "velocity": 0.10236220472440945
        },
        {
          "duration": 0.03488372093023173,
          "durationTicks": 3,
          "midi": 100,
          "name": "E7",
          "ticks": 2509,
          "time": 29.174418604651162,
          "velocity": 0.07086614173228346
        },
        {
          "duration": 0.023255813953486637,
          "durationTicks": 2,
          "midi": 70,
          "name": "A#4",
          "ticks": 2510,
          "time": 29.186046511627907,
          "velocity": 0.3779527559055118
        },
        {
          "duration": 0.11627906976744029,
          "durationTicks": 10,
          "midi": 67,
          "name": "G4",
          "ticks": 2511,
          "time": 29.197674418604652,
          "velocity": 0.3858267716535433
        },
        {
          "duration": 0.02325581395349019,
          "durationTicks": 2,
          "midi": 70,
          "name": "A#4",
          "ticks": 2513,
          "time": 29.22093023255814,
          "velocity": 0.4094488188976378
        },
        {
          "duration": 0.05813953488372192,
          "durationTicks": 5,
          "midi": 69,
          "name": "A4",
          "ticks": 2514,
          "time": 29.232558139534884,
          "velocity": 0.47244094488188976
        },
        {
          "duration": 0.04651162790697683,
          "durationTicks": 4,
          "midi": 92,
          "name": "G#6",
          "ticks": 2518,
          "time": 29.27906976744186,
          "velocity": 0.07874015748031496
        },
        {
          "duration": 0.023255813953486637,
          "durationTicks": 2,
          "midi": 70,
          "name": "A#4",
          "ticks": 2519,
          "time": 29.290697674418606,
          "velocity": 0.4645669291338583
        },
        {
          "duration": 0.034883720930235285,
          "durationTicks": 3,
          "midi": 45,
          "name": "A2",
          "ticks": 2520,
          "time": 29.302325581395348,
          "velocity": 0.14173228346456693
        },
        {
          "duration": 0.06976744186046346,
          "durationTicks": 6,
          "midi": 67,
          "name": "G4",
          "ticks": 2522,
          "time": 29.325581395348838,
          "velocity": 0.29133858267716534
        },
        {
          "duration": 0.10465116279069875,
          "durationTicks": 9,
          "midi": 70,
          "name": "A#4",
          "ticks": 2522,
          "time": 29.325581395348838,
          "velocity": 0.4645669291338583
        },
        {
          "duration": 0.08139534883720856,
          "durationTicks": 7,
          "midi": 46,
          "name": "A#2",
          "ticks": 2523,
          "time": 29.337209302325583,
          "velocity": 0.14960629921259844
        },
        {
          "duration": 0.023255813953486637,
          "durationTicks": 2,
          "midi": 69,
          "name": "A4",
          "ticks": 2523,
          "time": 29.337209302325583,
          "velocity": 0.33858267716535434
        },
        {
          "duration": 0.04651162790697683,
          "durationTicks": 4,
          "midi": 77,
          "name": "F5",
          "ticks": 2529,
          "time": 29.406976744186046,
          "velocity": 0.07086614173228346
        },
        {
          "duration": 0.11627906976744384,
          "durationTicks": 10,
          "midi": 69,
          "name": "A4",
          "ticks": 2532,
          "time": 29.441860465116278,
          "velocity": 0.30708661417322836
        },
        {
          "duration": 0.41860465116279144,
          "durationTicks": 36,
          "midi": 79,
          "name": "G5",
          "ticks": 2544,
          "time": 29.58139534883721,
          "velocity": 0.48031496062992124
        },
        {
          "duration": 0.40697674418604635,
          "durationTicks": 35,
          "midi": 70,
          "name": "A#4",
          "ticks": 2545,
          "time": 29.593023255813954,
          "velocity": 0.47244094488188976
        },
        {
          "duration": 0.05813953488372192,
          "durationTicks": 5,
          "midi": 77,
          "name": "F5",
          "ticks": 2545,
          "time": 29.593023255813954,
          "velocity": 0.13385826771653545
        },
        {
          "duration": 0.16279069767441712,
          "durationTicks": 14,
          "midi": 86,
          "name": "D6",
          "ticks": 2545,
          "time": 29.593023255813954,
          "velocity": 0.14173228346456693
        },
        {
          "duration": 0.39534883720930125,
          "durationTicks": 34,
          "midi": 58,
          "name": "A#3",
          "ticks": 2546,
          "time": 29.6046511627907,
          "velocity": 0.30708661417322836
        },
        {
          "duration": 0.3139534883720927,
          "durationTicks": 27,
          "midi": 62,
          "name": "D4",
          "ticks": 2546,
          "time": 29.6046511627907,
          "velocity": 0.3228346456692913
        },
        {
          "duration": 0.3720930232558146,
          "durationTicks": 32,
          "midi": 67,
          "name": "G4",
          "ticks": 2546,
          "time": 29.6046511627907,
          "velocity": 0.4251968503937008
        },
        {
          "duration": 0.4534883720930232,
          "durationTicks": 39,
          "midi": 74,
          "name": "D5",
          "ticks": 2546,
          "time": 29.6046511627907,
          "velocity": 0.4330708661417323
        },
        {
          "duration": 0.08139534883720856,
          "durationTicks": 7,
          "midi": 89,
          "name": "F6",
          "ticks": 2546,
          "time": 29.6046511627907,
          "velocity": 0.1732283464566929
        },
        {
          "duration": 0.11627906976744029,
          "durationTicks": 10,
          "midi": 93,
          "name": "A6",
          "ticks": 2546,
          "time": 29.6046511627907,
          "velocity": 0.14173228346456693
        },
        {
          "duration": 0.05813953488371837,
          "durationTicks": 5,
          "midi": 98,
          "name": "D7",
          "ticks": 2546,
          "time": 29.6046511627907,
          "velocity": 0.14173228346456693
        },
        {
          "duration": 0.08139534883721211,
          "durationTicks": 7,
          "midi": 53,
          "name": "F3",
          "ticks": 2547,
          "time": 29.61627906976744,
          "velocity": 0.1732283464566929
        },
        {
          "duration": 0.24418604651162923,
          "durationTicks": 21,
          "midi": 81,
          "name": "A5",
          "ticks": 2547,
          "time": 29.61627906976744,
          "velocity": 0.14960629921259844
        },
        {
          "duration": 0.034883720930235285,
          "durationTicks": 3,
          "midi": 92,
          "name": "G#6",
          "ticks": 2547,
          "time": 29.61627906976744,
          "velocity": 0.11023622047244094
        },
        {
          "duration": 0.06976744186046702,
          "durationTicks": 6,
          "midi": 95,
          "name": "B6",
          "ticks": 2547,
          "time": 29.61627906976744,
          "velocity": 0.07086614173228346
        },
        {
          "duration": 0.03488372093023173,
          "durationTicks": 3,
          "midi": 46,
          "name": "A#2",
          "ticks": 2550,
          "time": 29.651162790697676,
          "velocity": 0.15748031496062992
        },
        {
          "duration": 0.04651162790697683,
          "durationTicks": 4,
          "midi": 92,
          "name": "G#6",
          "ticks": 2557,
          "time": 29.732558139534884,
          "velocity": 0.09448818897637795
        },
        {
          "duration": 0.09302325581395365,
          "durationTicks": 8,
          "midi": 46,
          "name": "A#2",
          "ticks": 2560,
          "time": 29.767441860465116,
          "velocity": 0.14173228346456693
        },
        {
          "duration": 0.03488372093023173,
          "durationTicks": 3,
          "midi": 65,
          "name": "F4",
          "ticks": 2584,
          "time": 30.046511627906977,
          "velocity": 0.3779527559055118
        },
        {
          "duration": 0.39534883720930125,
          "durationTicks": 34,
          "midi": 69,
          "name": "A4",
          "ticks": 2584,
          "time": 30.046511627906977,
          "velocity": 0.3464566929133858
        },
        {
          "duration": 0.26744186046511587,
          "durationTicks": 23,
          "midi": 77,
          "name": "F5",
          "ticks": 2584,
          "time": 30.046511627906977,
          "velocity": 0.4409448818897638
        },
        {
          "duration": 0.1744186046511622,
          "durationTicks": 15,
          "midi": 83,
          "name": "B5",
          "ticks": 2584,
          "time": 30.046511627906977,
          "velocity": 0.2992125984251969
        },
        {
          "duration": 0.22093023255813904,
          "durationTicks": 19,
          "midi": 45,
          "name": "A2",
          "ticks": 2585,
          "time": 30.058139534883722,
          "velocity": 0.47244094488188976
        },
        {
          "duration": 0.13953488372093048,
          "durationTicks": 12,
          "midi": 52,
          "name": "E3",
          "ticks": 2585,
          "time": 30.058139534883722,
          "velocity": 0.29133858267716534
        },
        {
          "duration": 0.38372093023255616,
          "durationTicks": 33,
          "midi": 61,
          "name": "C#4",
          "ticks": 2585,
          "time": 30.058139534883722,
          "velocity": 0.41732283464566927
        },
        {
          "duration": 0.3720930232558146,
          "durationTicks": 32,
          "midi": 73,
          "name": "C#5",
          "ticks": 2585,
          "time": 30.058139534883722,
          "velocity": 0.5039370078740157
        },
        {
          "duration": 0.05813953488371837,
          "durationTicks": 5,
          "midi": 86,
          "name": "D6",
          "ticks": 2585,
          "time": 30.058139534883722,
          "velocity": 0.1889763779527559
        },
        {
          "duration": 0.1046511627906952,
          "durationTicks": 9,
          "midi": 87,
          "name": "D#6",
          "ticks": 2585,
          "time": 30.058139534883722,
          "velocity": 0.14173228346456693
        },
        {
          "duration": 0.13953488372093048,
          "durationTicks": 12,
          "midi": 90,
          "name": "F#6",
          "ticks": 2585,
          "time": 30.058139534883722,
          "velocity": 0.11811023622047244
        },
        {
          "duration": 0.15116279069767202,
          "durationTicks": 13,
          "midi": 92,
          "name": "G#6",
          "ticks": 2585,
          "time": 30.058139534883722,
          "velocity": 0.12598425196850394
        },
        {
          "duration": 0.03488372093023173,
          "durationTicks": 3,
          "midi": 96,
          "name": "C7",
          "ticks": 2585,
          "time": 30.058139534883722,
          "velocity": 0.07086614173228346
        },
        {
          "duration": 0.05813953488371837,
          "durationTicks": 5,
          "midi": 100,
          "name": "E7",
          "ticks": 2585,
          "time": 30.058139534883722,
          "velocity": 0.12598425196850394
        },
        {
          "duration": 0.02325581395349019,
          "durationTicks": 2,
          "midi": 71,
          "name": "B4",
          "ticks": 2586,
          "time": 30.069767441860463,
          "velocity": 0.2755905511811024
        },
        {
          "duration": 0.04651162790697683,
          "durationTicks": 4,
          "midi": 84,
          "name": "C6",
          "ticks": 2586,
          "time": 30.069767441860463,
          "velocity": 0.2125984251968504
        },
        {
          "duration": 0.1976744186046524,
          "durationTicks": 17,
          "midi": 88,
          "name": "E6",
          "ticks": 2586,
          "time": 30.069767441860463,
          "velocity": 0.2677165354330709
        },
        {
          "duration": 0.023255813953486637,
          "durationTicks": 2,
          "midi": 65,
          "name": "F4",
          "ticks": 2588,
          "time": 30.093023255813954,
          "velocity": 0.4645669291338583
        },
        {
          "duration": 0.09302325581395365,
          "durationTicks": 8,
          "midi": 79,
          "name": "G5",
          "ticks": 2588,
          "time": 30.093023255813954,
          "velocity": 0.11811023622047244
        },
        {
          "duration": 0.023255813953486637,
          "durationTicks": 2,
          "midi": 71,
          "name": "B4",
          "ticks": 2589,
          "time": 30.1046511627907,
          "velocity": 0.2677165354330709
        },
        {
          "duration": 0.02325581395349019,
          "durationTicks": 2,
          "midi": 64,
          "name": "E4",
          "ticks": 2590,
          "time": 30.11627906976744,
          "velocity": 0.3779527559055118
        },
        {
          "duration": 0.10465116279069875,
          "durationTicks": 9,
          "midi": 65,
          "name": "F4",
          "ticks": 2591,
          "time": 30.127906976744185,
          "velocity": 0.4251968503937008
        },
        {
          "duration": 0.15116279069767558,
          "durationTicks": 13,
          "midi": 84,
          "name": "C6",
          "ticks": 2591,
          "time": 30.127906976744185,
          "velocity": 0.1732283464566929
        },
        {
          "duration": 0.25581395348837077,
          "durationTicks": 22,
          "midi": 71,
          "name": "B4",
          "ticks": 2592,
          "time": 30.13953488372093,
          "velocity": 0.25984251968503935
        },
        {
          "duration": 0.06976744186046702,
          "durationTicks": 6,
          "midi": 86,
          "name": "D6",
          "ticks": 2594,
          "time": 30.162790697674417,
          "velocity": 0.16535433070866143
        },
        {
          "duration": 0.04651162790697683,
          "durationTicks": 4,
          "midi": 87,
          "name": "D#6",
          "ticks": 2596,
          "time": 30.186046511627907,
          "velocity": 0.12598425196850394
        },
        {
          "duration": 0.06976744186046702,
          "durationTicks": 6,
          "midi": 52,
          "name": "E3",
          "ticks": 2598,
          "time": 30.209302325581394,
          "velocity": 0.1968503937007874
        },
        {
          "duration": 0.06976744186046702,
          "durationTicks": 6,
          "midi": 90,
          "name": "F#6",
          "ticks": 2599,
          "time": 30.22093023255814,
          "velocity": 0.10236220472440945
        },
        {
          "duration": 0.03488372093023173,
          "durationTicks": 3,
          "midi": 65,
          "name": "F4",
          "ticks": 2601,
          "time": 30.24418604651163,
          "velocity": 0.4015748031496063
        },
        {
          "duration": 0.13953488372093048,
          "durationTicks": 12,
          "midi": 45,
          "name": "A2",
          "ticks": 2605,
          "time": 30.290697674418606,
          "velocity": 0.36220472440944884
        },
        {
          "duration": 0.08139534883720856,
          "durationTicks": 7,
          "midi": 52,
          "name": "E3",
          "ticks": 2605,
          "time": 30.290697674418606,
          "velocity": 0.13385826771653545
        },
        {
          "duration": 0.08139534883720856,
          "durationTicks": 7,
          "midi": 65,
          "name": "F4",
          "ticks": 2605,
          "time": 30.290697674418606,
          "velocity": 0.3228346456692913
        },
        {
          "duration": 0.03488372093023173,
          "durationTicks": 3,
          "midi": 79,
          "name": "G5",
          "ticks": 2605,
          "time": 30.290697674418606,
          "velocity": 0.08661417322834646
        },
        {
          "duration": 0.1744186046511622,
          "durationTicks": 15,
          "midi": 76,
          "name": "E5",
          "ticks": 2607,
          "time": 30.313953488372093,
          "velocity": 0.10236220472440945
        },
        {
          "duration": 0.034883720930235285,
          "durationTicks": 3,
          "midi": 65,
          "name": "F4",
          "ticks": 2618,
          "time": 30.441860465116278,
          "velocity": 0.09448818897637795
        },
        {
          "duration": 0.23255813953488413,
          "durationTicks": 20,
          "midi": 61,
          "name": "C#4",
          "ticks": 2623,
          "time": 30.5,
          "velocity": 0.41732283464566927
        },
        {
          "duration": 1,
          "durationTicks": 86,
          "midi": 69,
          "name": "A4",
          "ticks": 2623,
          "time": 30.5,
          "velocity": 0.41732283464566927
        },
        {
          "duration": 0.1744186046511622,
          "durationTicks": 15,
          "midi": 88,
          "name": "E6",
          "ticks": 2623,
          "time": 30.5,
          "velocity": 0.2440944881889764
        },
        {
          "duration": 0.03488372093023173,
          "durationTicks": 3,
          "midi": 57,
          "name": "A3",
          "ticks": 2624,
          "time": 30.511627906976745,
          "velocity": 0.2204724409448819
        },
        {
          "duration": 0.09302325581395365,
          "durationTicks": 8,
          "midi": 64,
          "name": "E4",
          "ticks": 2624,
          "time": 30.511627906976745,
          "velocity": 0.41732283464566927
        },
        {
          "duration": 0.23255813953488413,
          "durationTicks": 20,
          "midi": 73,
          "name": "C#5",
          "ticks": 2624,
          "time": 30.511627906976745,
          "velocity": 0.5354330708661418
        },
        {
          "duration": 0.09302325581395365,
          "durationTicks": 8,
          "midi": 83,
          "name": "B5",
          "ticks": 2624,
          "time": 30.511627906976745,
          "velocity": 0.2047244094488189
        },
        {
          "duration": 0.05813953488371837,
          "durationTicks": 5,
          "midi": 86,
          "name": "D6",
          "ticks": 2624,
          "time": 30.511627906976745,
          "velocity": 0.1968503937007874
        },
        {
          "duration": 0.1046511627906952,
          "durationTicks": 9,
          "midi": 87,
          "name": "D#6",
          "ticks": 2624,
          "time": 30.511627906976745,
          "velocity": 0.14173228346456693
        },
        {
          "duration": 0.12790697674418539,
          "durationTicks": 11,
          "midi": 90,
          "name": "F#6",
          "ticks": 2624,
          "time": 30.511627906976745,
          "velocity": 0.13385826771653545
        },
        {
          "duration": 0.2093023255813975,
          "durationTicks": 18,
          "midi": 45,
          "name": "A2",
          "ticks": 2625,
          "time": 30.523255813953487,
          "velocity": 0.47244094488188976
        },
        {
          "duration": 0.15116279069767558,
          "durationTicks": 13,
          "midi": 52,
          "name": "E3",
          "ticks": 2625,
          "time": 30.523255813953487,
          "velocity": 0.2677165354330709
        },
        {
          "duration": 0.02325581395349019,
          "durationTicks": 2,
          "midi": 71,
          "name": "B4",
          "ticks": 2625,
          "time": 30.523255813953487,
          "velocity": 0.2440944881889764
        },
        {
          "duration": 0.034883720930235285,
          "durationTicks": 3,
          "midi": 91,
          "name": "G6",
          "ticks": 2625,
          "time": 30.523255813953487,
          "velocity": 0.07086614173228346
        },
        {
          "duration": 0.10465116279069875,
          "durationTicks": 9,
          "midi": 92,
          "name": "G#6",
          "ticks": 2625,
          "time": 30.523255813953487,
          "velocity": 0.12598425196850394
        },
        {
          "duration": 0.11627906976744384,
          "durationTicks": 10,
          "midi": 89,
          "name": "F6",
          "ticks": 2626,
          "time": 30.53488372093023,
          "velocity": 0.12598425196850394
        },
        {
          "duration": 0.08139534883720856,
          "durationTicks": 7,
          "midi": 79,
          "name": "G5",
          "ticks": 2627,
          "time": 30.546511627906977,
          "velocity": 0.11023622047244094
        },
        {
          "duration": 0.023255813953486637,
          "durationTicks": 2,
          "midi": 71,
          "name": "B4",
          "ticks": 2628,
          "time": 30.558139534883722,
          "velocity": 0.2440944881889764
        },
        {
          "duration": 0.05813953488372192,
          "durationTicks": 5,
          "midi": 80,
          "name": "G#5",
          "ticks": 2629,
          "time": 30.569767441860463,
          "velocity": 0.09448818897637795
        },
        {
          "duration": 0.06976744186046346,
          "durationTicks": 6,
          "midi": 71,
          "name": "B4",
          "ticks": 2631,
          "time": 30.593023255813954,
          "velocity": 0.2440944881889764
        },
        {
          "duration": 0.05813953488372192,
          "durationTicks": 5,
          "midi": 86,
          "name": "D6",
          "ticks": 2633,
          "time": 30.61627906976744,
          "velocity": 0.11023622047244094
        },
        {
          "duration": 0.2558139534883743,
          "durationTicks": 22,
          "midi": 86,
          "name": "D6",
          "ticks": 2642,
          "time": 30.72093023255814,
          "velocity": 0.3779527559055118
        },
        {
          "duration": 0.13953488372093048,
          "durationTicks": 12,
          "midi": 50,
          "name": "D3",
          "ticks": 2643,
          "time": 30.732558139534884,
          "velocity": 0.2992125984251969
        },
        {
          "duration": 0.3023255813953476,
          "durationTicks": 26,
          "midi": 65,
          "name": "F4",
          "ticks": 2643,
          "time": 30.732558139534884,
          "velocity": 0.3779527559055118
        },
        {
          "duration": 0.27906976744186096,
          "durationTicks": 24,
          "midi": 77,
          "name": "F5",
          "ticks": 2643,
          "time": 30.732558139534884,
          "velocity": 0.4094488188976378
        },
        {
          "duration": 0.04651162790697683,
          "durationTicks": 4,
          "midi": 80,
          "name": "G#5",
          "ticks": 2643,
          "time": 30.732558139534884,
          "velocity": 0.18110236220472442
        },
        {
          "duration": 0.1860465116279073,
          "durationTicks": 16,
          "midi": 84,
          "name": "C6",
          "ticks": 2643,
          "time": 30.732558139534884,
          "velocity": 0.2125984251968504
        },
        {
          "duration": 0.023255813953486637,
          "durationTicks": 2,
          "midi": 58,
          "name": "A#3",
          "ticks": 2644,
          "time": 30.74418604651163,
          "velocity": 0.2283464566929134
        },
        {
          "duration": 0.7093023255813939,
          "durationTicks": 61,
          "midi": 74,
          "name": "D5",
          "ticks": 2644,
          "time": 30.74418604651163,
          "velocity": 0.4251968503937008
        },
        {
          "duration": 0.5348837209302317,
          "durationTicks": 46,
          "midi": 88,
          "name": "E6",
          "ticks": 2644,
          "time": 30.74418604651163,
          "velocity": 0.1889763779527559
        },
        {
          "duration": 0.02325581395349019,
          "durationTicks": 2,
          "midi": 40,
          "name": "E2",
          "ticks": 2645,
          "time": 30.75581395348837,
          "velocity": 0.33070866141732286
        },
        {
          "duration": 0.11627906976744384,
          "durationTicks": 10,
          "midi": 62,
          "name": "D4",
          "ticks": 2645,
          "time": 30.75581395348837,
          "velocity": 0.30708661417322836
        },
        {
          "duration": 0.023255813953486637,
          "durationTicks": 2,
          "midi": 39,
          "name": "D#2",
          "ticks": 2647,
          "time": 30.77906976744186,
          "velocity": 0.3228346456692913
        },
        {
          "duration": 0.034883720930235285,
          "durationTicks": 3,
          "midi": 38,
          "name": "D2",
          "ticks": 2649,
          "time": 30.802325581395348,
          "velocity": 0.2992125984251969
        },
        {
          "duration": 0.11627906976744029,
          "durationTicks": 10,
          "midi": 95,
          "name": "B6",
          "ticks": 2651,
          "time": 30.825581395348838,
          "velocity": 0.10236220472440945
        },
        {
          "duration": 0.05813953488371837,
          "durationTicks": 5,
          "midi": 85,
          "name": "C#6",
          "ticks": 2652,
          "time": 30.837209302325583,
          "velocity": 0.11811023622047244
        },
        {
          "duration": 0.11627906976744384,
          "durationTicks": 10,
          "midi": 38,
          "name": "D2",
          "ticks": 2653,
          "time": 30.848837209302324,
          "velocity": 0.31496062992125984
        },
        {
          "duration": 0.11627906976744384,
          "durationTicks": 10,
          "midi": 72,
          "name": "C5",
          "ticks": 2653,
          "time": 30.848837209302324,
          "velocity": 0.15748031496062992
        },
        {
          "duration": 0.03488372093023173,
          "durationTicks": 3,
          "midi": 57,
          "name": "A3",
          "ticks": 2654,
          "time": 30.86046511627907,
          "velocity": 0.07874015748031496
        },
        {
          "duration": 0.1744186046511622,
          "durationTicks": 15,
          "midi": 62,
          "name": "D4",
          "ticks": 2656,
          "time": 30.88372093023256,
          "velocity": 0.25196850393700787
        },
        {
          "duration": 0.16279069767442067,
          "durationTicks": 14,
          "midi": 50,
          "name": "D3",
          "ticks": 2657,
          "time": 30.8953488372093,
          "velocity": 0.33858267716535434
        },
        {
          "duration": 0.06976744186046346,
          "durationTicks": 6,
          "midi": 84,
          "name": "C6",
          "ticks": 2660,
          "time": 30.930232558139537,
          "velocity": 0.1968503937007874
        },
        {
          "duration": 0.03488372093023173,
          "durationTicks": 3,
          "midi": 85,
          "name": "C#6",
          "ticks": 2660,
          "time": 30.930232558139537,
          "velocity": 0.09448818897637795
        },
        {
          "duration": 0.03488372093023173,
          "durationTicks": 3,
          "midi": 84,
          "name": "C6",
          "ticks": 2667,
          "time": 31.011627906976745,
          "velocity": 0.11023622047244094
        },
        {
          "duration": 0.15116279069767558,
          "durationTicks": 13,
          "midi": 72,
          "name": "C5",
          "ticks": 2668,
          "time": 31.023255813953487,
          "velocity": 0.15748031496062992
        },
        {
          "duration": 0.04651162790697683,
          "durationTicks": 4,
          "midi": 57,
          "name": "A3",
          "ticks": 2670,
          "time": 31.046511627906977,
          "velocity": 0.13385826771653545
        },
        {
          "duration": 0.15116279069767558,
          "durationTicks": 13,
          "midi": 50,
          "name": "D3",
          "ticks": 2672,
          "time": 31.069767441860463,
          "velocity": 0.3464566929133858
        },
        {
          "duration": 0.4534883720930232,
          "durationTicks": 39,
          "midi": 76,
          "name": "E5",
          "ticks": 2682,
          "time": 31.186046511627907,
          "velocity": 0.3858267716535433
        },
        {
          "duration": 0.39534883720930125,
          "durationTicks": 34,
          "midi": 72,
          "name": "C5",
          "ticks": 2683,
          "time": 31.197674418604652,
          "velocity": 0.36220472440944884
        },
        {
          "duration": 0.06976744186046702,
          "durationTicks": 6,
          "midi": 65,
          "name": "F4",
          "ticks": 2684,
          "time": 31.209302325581394,
          "velocity": 0.33070866141732286
        },
        {
          "duration": 0.03488372093023173,
          "durationTicks": 3,
          "midi": 38,
          "name": "D2",
          "ticks": 2686,
          "time": 31.232558139534884,
          "velocity": 0.18110236220472442
        },
        {
          "duration": 0.1744186046511622,
          "durationTicks": 15,
          "midi": 57,
          "name": "A3",
          "ticks": 2687,
          "time": 31.24418604651163,
          "velocity": 0.13385826771653545
        },
        {
          "duration": 0.02325581395349019,
          "durationTicks": 2,
          "midi": 51,
          "name": "D#3",
          "ticks": 2688,
          "time": 31.25581395348837,
          "velocity": 0.31496062992125984
        },
        {
          "duration": 0.03488372093023173,
          "durationTicks": 3,
          "midi": 62,
          "name": "D4",
          "ticks": 2689,
          "time": 31.267441860465116,
          "velocity": 0.2677165354330709
        },
        {
          "duration": 0.13953488372093048,
          "durationTicks": 12,
          "midi": 38,
          "name": "D2",
          "ticks": 2690,
          "time": 31.27906976744186,
          "velocity": 0.1968503937007874
        },
        {
          "duration": 0.034883720930235285,
          "durationTicks": 3,
          "midi": 51,
          "name": "D#3",
          "ticks": 2692,
          "time": 31.302325581395348,
          "velocity": 0.2755905511811024
        },
        {
          "duration": 0.09302325581395365,
          "durationTicks": 8,
          "midi": 65,
          "name": "F4",
          "ticks": 2692,
          "time": 31.302325581395348,
          "velocity": 0.29133858267716534
        },
        {
          "duration": 0.03488372093023173,
          "durationTicks": 3,
          "midi": 51,
          "name": "D#3",
          "ticks": 2697,
          "time": 31.36046511627907,
          "velocity": 0.1889763779527559
        },
        {
          "duration": 0.023255813953486637,
          "durationTicks": 2,
          "midi": 64,
          "name": "E4",
          "ticks": 2699,
          "time": 31.38372093023256,
          "velocity": 0.2283464566929134
        },
        {
          "duration": 0.22093023255813904,
          "durationTicks": 19,
          "midi": 64,
          "name": "E4",
          "ticks": 2702,
          "time": 31.41860465116279,
          "velocity": 0.25196850393700787
        },
        {
          "duration": 0.03488372093023173,
          "durationTicks": 3,
          "midi": 72,
          "name": "C5",
          "ticks": 2718,
          "time": 31.6046511627907,
          "velocity": 0.08661417322834646
        },
        {
          "duration": 0.3488372093023244,
          "durationTicks": 30,
          "midi": 69,
          "name": "A4",
          "ticks": 2721,
          "time": 31.63953488372093,
          "velocity": 0.25196850393700787
        },
        {
          "duration": 0.39534883720930125,
          "durationTicks": 34,
          "midi": 77,
          "name": "F5",
          "ticks": 2721,
          "time": 31.63953488372093,
          "velocity": 0.2204724409448819
        },
        {
          "duration": 0.04651162790697683,
          "durationTicks": 4,
          "midi": 54,
          "name": "F#3",
          "ticks": 2722,
          "time": 31.651162790697676,
          "velocity": 0.1889763779527559
        },
        {
          "duration": 0.03488372093023173,
          "durationTicks": 3,
          "midi": 62,
          "name": "D4",
          "ticks": 2722,
          "time": 31.651162790697676,
          "velocity": 0.2440944881889764
        },
        {
          "duration": 0.24418604651162568,
          "durationTicks": 21,
          "midi": 72,
          "name": "C5",
          "ticks": 2722,
          "time": 31.651162790697676,
          "velocity": 0.14173228346456693
        },
        {
          "duration": 0.30232558139535115,
          "durationTicks": 26,
          "midi": 87,
          "name": "D#6",
          "ticks": 2723,
          "time": 31.662790697674417,
          "velocity": 0.08661417322834646
        },
        {
          "duration": 0.1976744186046524,
          "durationTicks": 17,
          "midi": 38,
          "name": "D2",
          "ticks": 2725,
          "time": 31.686046511627907,
          "velocity": 0.1732283464566929
        },
        {
          "duration": 0.5232558139534902,
          "durationTicks": 45,
          "midi": 65,
          "name": "F4",
          "ticks": 2725,
          "time": 31.686046511627907,
          "velocity": 0.33070866141732286
        },
        {
          "duration": 0.19767441860464885,
          "durationTicks": 17,
          "midi": 53,
          "name": "F3",
          "ticks": 2726,
          "time": 31.697674418604652,
          "velocity": 0.25984251968503935
        },
        {
          "duration": 0.08139534883720856,
          "durationTicks": 7,
          "midi": 62,
          "name": "D4",
          "ticks": 2726,
          "time": 31.697674418604652,
          "velocity": 0.2283464566929134
        },
        {
          "duration": 0.03488372093023173,
          "durationTicks": 3,
          "midi": 44,
          "name": "G#2",
          "ticks": 2744,
          "time": 31.906976744186046,
          "velocity": 0.2047244094488189
        },
        {
          "duration": 0.05813953488372192,
          "durationTicks": 5,
          "midi": 53,
          "name": "F3",
          "ticks": 2744,
          "time": 31.906976744186046,
          "velocity": 0.1889763779527559
        },
        {
          "duration": 0.06976744186046346,
          "durationTicks": 6,
          "midi": 74,
          "name": "D5",
          "ticks": 2746,
          "time": 31.930232558139537,
          "velocity": 0.07086614173228346
        },
        {
          "duration": 0.06976744186046346,
          "durationTicks": 6,
          "midi": 45,
          "name": "A2",
          "ticks": 2747,
          "time": 31.941860465116278,
          "velocity": 0.2283464566929134
        },
        {
          "duration": 0.09302325581395365,
          "durationTicks": 8,
          "midi": 72,
          "name": "C5",
          "ticks": 2747,
          "time": 31.941860465116278,
          "velocity": 0.13385826771653545
        },
        {
          "duration": 0.06976744186046346,
          "durationTicks": 6,
          "midi": 45,
          "name": "A2",
          "ticks": 2754,
          "time": 32.02325581395349,
          "velocity": 0.2125984251968504
        },
        {
          "duration": 0.046511627906973274,
          "durationTicks": 4,
          "midi": 60,
          "name": "C4",
          "ticks": 2754,
          "time": 32.02325581395349,
          "velocity": 0.07086614173228346
        },
        {
          "duration": 0.03488372093023173,
          "durationTicks": 3,
          "midi": 60,
          "name": "C4",
          "ticks": 2759,
          "time": 32.08139534883721,
          "velocity": 0.07874015748031496
        },
        {
          "duration": 0.03488372093023173,
          "durationTicks": 3,
          "midi": 72,
          "name": "C5",
          "ticks": 2760,
          "time": 32.093023255813954,
          "velocity": 0.14960629921259844
        },
        {
          "duration": 0.03488372093023173,
          "durationTicks": 3,
          "midi": 87,
          "name": "D#6",
          "ticks": 2760,
          "time": 32.093023255813954,
          "velocity": 0.07086614173228346
        },
        {
          "duration": 0.2325581395348877,
          "durationTicks": 20,
          "midi": 62,
          "name": "D4",
          "ticks": 2761,
          "time": 32.104651162790695,
          "velocity": 0.2125984251968504
        },
        {
          "duration": 0.24418604651162923,
          "durationTicks": 21,
          "midi": 69,
          "name": "A4",
          "ticks": 2761,
          "time": 32.104651162790695,
          "velocity": 0.25196850393700787
        },
        {
          "duration": 0.04651162790698038,
          "durationTicks": 4,
          "midi": 83,
          "name": "B5",
          "ticks": 2761,
          "time": 32.104651162790695,
          "velocity": 0.16535433070866143
        },
        {
          "duration": 0.2093023255813975,
          "durationTicks": 18,
          "midi": 72,
          "name": "C5",
          "ticks": 2764,
          "time": 32.13953488372093,
          "velocity": 0.15748031496062992
        },
        {
          "duration": 0.03488372093023173,
          "durationTicks": 3,
          "midi": 38,
          "name": "D2",
          "ticks": 2767,
          "time": 32.174418604651166,
          "velocity": 0.14960629921259844
        },
        {
          "duration": 0.06976744186046346,
          "durationTicks": 6,
          "midi": 83,
          "name": "B5",
          "ticks": 2767,
          "time": 32.174418604651166,
          "velocity": 0.15748031496062992
        },
        {
          "duration": 0.13953488372092693,
          "durationTicks": 12,
          "midi": 57,
          "name": "A3",
          "ticks": 2768,
          "time": 32.18604651162791,
          "velocity": 0.2677165354330709
        },
        {
          "duration": 0.04651162790698038,
          "durationTicks": 4,
          "midi": 67,
          "name": "G4",
          "ticks": 2769,
          "time": 32.19767441860465,
          "velocity": 0.25196850393700787
        },
        {
          "duration": 0.03488372093023884,
          "durationTicks": 3,
          "midi": 93,
          "name": "A6",
          "ticks": 2772,
          "time": 32.23255813953488,
          "velocity": 0.07874015748031496
        },
        {
          "duration": 0.05813953488372192,
          "durationTicks": 5,
          "midi": 65,
          "name": "F4",
          "ticks": 2773,
          "time": 32.24418604651163,
          "velocity": 0.25196850393700787
        },
        {
          "duration": 0.03488372093023173,
          "durationTicks": 3,
          "midi": 38,
          "name": "D2",
          "ticks": 2774,
          "time": 32.25581395348837,
          "velocity": 0.16535433070866143
        },
        {
          "duration": 0.30232558139534405,
          "durationTicks": 26,
          "midi": 67,
          "name": "G4",
          "ticks": 2775,
          "time": 32.26744186046512,
          "velocity": 0.3228346456692913
        },
        {
          "duration": 0.13953488372092693,
          "durationTicks": 12,
          "midi": 83,
          "name": "B5",
          "ticks": 2775,
          "time": 32.26744186046512,
          "velocity": 0.15748031496062992
        },
        {
          "duration": 0.02325581395349019,
          "durationTicks": 2,
          "midi": 45,
          "name": "A2",
          "ticks": 2779,
          "time": 32.31395348837209,
          "velocity": 0.2283464566929134
        },
        {
          "duration": 0.2325581395348877,
          "durationTicks": 20,
          "midi": 76,
          "name": "E5",
          "ticks": 2780,
          "time": 32.325581395348834,
          "velocity": 0.1889763779527559
        },
        {
          "duration": 0.02325581395349019,
          "durationTicks": 2,
          "midi": 47,
          "name": "B2",
          "ticks": 2781,
          "time": 32.33720930232558,
          "velocity": 0.29133858267716534
        },
        {
          "duration": 0.2093023255813904,
          "durationTicks": 18,
          "midi": 60,
          "name": "C4",
          "ticks": 2781,
          "time": 32.33720930232558,
          "velocity": 0.2283464566929134
        },
        {
          "duration": 0.02325581395349019,
          "durationTicks": 2,
          "midi": 65,
          "name": "F4",
          "ticks": 2781,
          "time": 32.33720930232558,
          "velocity": 0.2755905511811024
        },
        {
          "duration": 0.22093023255813904,
          "durationTicks": 19,
          "midi": 71,
          "name": "B4",
          "ticks": 2782,
          "time": 32.348837209302324,
          "velocity": 0.2125984251968504
        },
        {
          "duration": 0.2093023255813975,
          "durationTicks": 18,
          "midi": 82,
          "name": "A#5",
          "ticks": 2782,
          "time": 32.348837209302324,
          "velocity": 0.13385826771653545
        },
        {
          "duration": 0.1046511627907023,
          "durationTicks": 9,
          "midi": 86,
          "name": "D6",
          "ticks": 2782,
          "time": 32.348837209302324,
          "velocity": 0.12598425196850394
        },
        {
          "duration": 0.1046511627906952,
          "durationTicks": 9,
          "midi": 64,
          "name": "E4",
          "ticks": 2783,
          "time": 32.36046511627907,
          "velocity": 0.2283464566929134
        },
        {
          "duration": 0.05813953488372192,
          "durationTicks": 5,
          "midi": 74,
          "name": "D5",
          "ticks": 2784,
          "time": 32.372093023255815,
          "velocity": 0.14173228346456693
        },
        {
          "duration": 0.05813953488372192,
          "durationTicks": 5,
          "midi": 74,
          "name": "D5",
          "ticks": 2792,
          "time": 32.46511627906977,
          "velocity": 0.12598425196850394
        },
        {
          "duration": 0.06976744186046346,
          "durationTicks": 6,
          "midi": 48,
          "name": "C3",
          "ticks": 2793,
          "time": 32.47674418604651,
          "velocity": 0.2125984251968504
        },
        {
          "duration": 0.08139534883721211,
          "durationTicks": 7,
          "midi": 64,
          "name": "E4",
          "ticks": 2793,
          "time": 32.47674418604651,
          "velocity": 0.1732283464566929
        },
        {
          "duration": 1.1860465116279073,
          "durationTicks": 102,
          "midi": 74,
          "name": "D5",
          "ticks": 2800,
          "time": 32.55813953488372,
          "velocity": 0.3858267716535433
        },
        {
          "duration": 0.25581395348837077,
          "durationTicks": 22,
          "midi": 81,
          "name": "A5",
          "ticks": 2800,
          "time": 32.55813953488372,
          "velocity": 0.2047244094488189
        },
        {
          "duration": 1.197674418604656,
          "durationTicks": 103,
          "midi": 69,
          "name": "A4",
          "ticks": 2801,
          "time": 32.56976744186046,
          "velocity": 0.30708661417322836
        },
        {
          "duration": 0.22093023255813904,
          "durationTicks": 19,
          "midi": 77,
          "name": "F5",
          "ticks": 2801,
          "time": 32.56976744186046,
          "velocity": 0.11811023622047244
        },
        {
          "duration": 0.25581395348837077,
          "durationTicks": 22,
          "midi": 65,
          "name": "F4",
          "ticks": 2802,
          "time": 32.58139534883721,
          "velocity": 0.2440944881889764
        },
        {
          "duration": 0.2093023255813975,
          "durationTicks": 18,
          "midi": 88,
          "name": "E6",
          "ticks": 2804,
          "time": 32.604651162790695,
          "velocity": 0.11023622047244094
        },
        {
          "duration": 0.1860465116279073,
          "durationTicks": 16,
          "midi": 50,
          "name": "D3",
          "ticks": 2805,
          "time": 32.616279069767444,
          "velocity": 0.23622047244094488
        },
        {
          "duration": 0.6279069767441854,
          "durationTicks": 54,
          "midi": 57,
          "name": "A3",
          "ticks": 2805,
          "time": 32.616279069767444,
          "velocity": 0.2047244094488189
        },
        {
          "duration": 0.15116279069767558,
          "durationTicks": 13,
          "midi": 72,
          "name": "C5",
          "ticks": 2824,
          "time": 32.83720930232558,
          "velocity": 0.11811023622047244
        },
        {
          "duration": 0.04651162790698038,
          "durationTicks": 4,
          "midi": 45,
          "name": "A2",
          "ticks": 2825,
          "time": 32.848837209302324,
          "velocity": 0.2125984251968504
        },
        {
          "duration": 0.05813953488372192,
          "durationTicks": 5,
          "midi": 45,
          "name": "A2",
          "ticks": 2830,
          "time": 32.906976744186046,
          "velocity": 0.2283464566929134
        },
        {
          "duration": 0.03488372093023173,
          "durationTicks": 3,
          "midi": 45,
          "name": "A2",
          "ticks": 2836,
          "time": 32.97674418604651,
          "velocity": 0.1968503937007874
        },
        {
          "duration": 0.2674418604651194,
          "durationTicks": 23,
          "midi": 65,
          "name": "F4",
          "ticks": 2839,
          "time": 33.01162790697674,
          "velocity": 0.23622047244094488
        },
        {
          "duration": 0.2674418604651123,
          "durationTicks": 23,
          "midi": 50,
          "name": "D3",
          "ticks": 2840,
          "time": 33.02325581395349,
          "velocity": 0.29133858267716534
        },
        {
          "duration": 0.2093023255813975,
          "durationTicks": 18,
          "midi": 72,
          "name": "C5",
          "ticks": 2841,
          "time": 33.03488372093023,
          "velocity": 0.14173228346456693
        },
        {
          "duration": 0.25581395348837077,
          "durationTicks": 22,
          "midi": 88,
          "name": "E6",
          "ticks": 2843,
          "time": 33.05813953488372,
          "velocity": 0.18110236220472442
        },
        {
          "duration": 0.1860465116279073,
          "durationTicks": 16,
          "midi": 38,
          "name": "D2",
          "ticks": 2844,
          "time": 33.06976744186046,
          "velocity": 0.16535433070866143
        },
        {
          "duration": 0.2558139534883779,
          "durationTicks": 22,
          "midi": 76,
          "name": "E5",
          "ticks": 2858,
          "time": 33.23255813953488,
          "velocity": 0.3228346456692913
        },
        {
          "duration": 0.2093023255813975,
          "durationTicks": 18,
          "midi": 72,
          "name": "C5",
          "ticks": 2860,
          "time": 33.25581395348837,
          "velocity": 0.3779527559055118
        },
        {
          "duration": 0.046511627906973274,
          "durationTicks": 4,
          "midi": 50,
          "name": "D3",
          "ticks": 2864,
          "time": 33.30232558139535,
          "velocity": 0.28346456692913385
        },
        {
          "duration": 0.09302325581395365,
          "durationTicks": 8,
          "midi": 50,
          "name": "D3",
          "ticks": 2869,
          "time": 33.36046511627907,
          "velocity": 0.25984251968503935
        },
        {
          "duration": 0.03488372093023173,
          "durationTicks": 3,
          "midi": 42,
          "name": "F#2",
          "ticks": 2877,
          "time": 33.45348837209303,
          "velocity": 0.09448818897637795
        },
        {
          "duration": 0.05813953488372192,
          "durationTicks": 5,
          "midi": 77,
          "name": "F5",
          "ticks": 2879,
          "time": 33.47674418604651,
          "velocity": 0.25196850393700787
        },
        {
          "duration": 0.30232558139535115,
          "durationTicks": 26,
          "midi": 87,
          "name": "D#6",
          "ticks": 2879,
          "time": 33.47674418604651,
          "velocity": 0.07874015748031496
        },
        {
          "duration": 0.11627906976743674,
          "durationTicks": 10,
          "midi": 62,
          "name": "D4",
          "ticks": 2880,
          "time": 33.48837209302326,
          "velocity": 0.2125984251968504
        },
        {
          "duration": 0.48837209302325846,
          "durationTicks": 42,
          "midi": 65,
          "name": "F4",
          "ticks": 2881,
          "time": 33.5,
          "velocity": 0.33070866141732286
        },
        {
          "duration": 0.13953488372092693,
          "durationTicks": 12,
          "midi": 84,
          "name": "C6",
          "ticks": 2881,
          "time": 33.5,
          "velocity": 0.13385826771653545
        },
        {
          "duration": 0.13953488372093403,
          "durationTicks": 12,
          "midi": 72,
          "name": "C5",
          "ticks": 2882,
          "time": 33.51162790697674,
          "velocity": 0.2283464566929134
        },
        {
          "duration": 0.17441860465115866,
          "durationTicks": 15,
          "midi": 38,
          "name": "D2",
          "ticks": 2883,
          "time": 33.52325581395349,
          "velocity": 0.16535433070866143
        },
        {
          "duration": 0.16279069767441712,
          "durationTicks": 14,
          "midi": 53,
          "name": "F3",
          "ticks": 2884,
          "time": 33.53488372093023,
          "velocity": 0.2677165354330709
        },
        {
          "duration": 0.4418604651162852,
          "durationTicks": 38,
          "midi": 77,
          "name": "F5",
          "ticks": 2885,
          "time": 33.54651162790697,
          "velocity": 0.33858267716535434
        },
        {
          "duration": 0.24418604651162923,
          "durationTicks": 21,
          "midi": 72,
          "name": "C5",
          "ticks": 2898,
          "time": 33.69767441860465,
          "velocity": 0.3464566929133858
        },
        {
          "duration": 0.081395348837205,
          "durationTicks": 7,
          "midi": 53,
          "name": "F3",
          "ticks": 2899,
          "time": 33.7093023255814,
          "velocity": 0.1732283464566929
        },
        {
          "duration": 0.046511627906973274,
          "durationTicks": 4,
          "midi": 60,
          "name": "C4",
          "ticks": 2904,
          "time": 33.76744186046512,
          "velocity": 0.07874015748031496
        },
        {
          "duration": 0.046511627906973274,
          "durationTicks": 4,
          "midi": 38,
          "name": "D2",
          "ticks": 2905,
          "time": 33.77906976744186,
          "velocity": 0.25984251968503935
        },
        {
          "duration": 0.03488372093023173,
          "durationTicks": 3,
          "midi": 60,
          "name": "C4",
          "ticks": 2910,
          "time": 33.83720930232558,
          "velocity": 0.07086614173228346
        },
        {
          "duration": 0.023255813953483084,
          "durationTicks": 2,
          "midi": 38,
          "name": "D2",
          "ticks": 2912,
          "time": 33.86046511627907,
          "velocity": 0.25984251968503935
        },
        {
          "duration": 0.2325581395348877,
          "durationTicks": 20,
          "midi": 69,
          "name": "A4",
          "ticks": 2917,
          "time": 33.91860465116279,
          "velocity": 0.25196850393700787
        },
        {
          "duration": 0.4534883720930267,
          "durationTicks": 39,
          "midi": 74,
          "name": "D5",
          "ticks": 2917,
          "time": 33.91860465116279,
          "velocity": 0.29133858267716534
        },
        {
          "duration": 0.418604651162795,
          "durationTicks": 36,
          "midi": 83,
          "name": "B5",
          "ticks": 2917,
          "time": 33.91860465116279,
          "velocity": 0.16535433070866143
        },
        {
          "duration": 0.03488372093023173,
          "durationTicks": 3,
          "midi": 62,
          "name": "D4",
          "ticks": 2918,
          "time": 33.93023255813954,
          "velocity": 0.1889763779527559
        },
        {
          "duration": 0.02325581395349019,
          "durationTicks": 2,
          "midi": 44,
          "name": "G#2",
          "ticks": 2919,
          "time": 33.94186046511628,
          "velocity": 0.31496062992125984
        },
        {
          "duration": 0.19767441860464885,
          "durationTicks": 17,
          "midi": 45,
          "name": "A2",
          "ticks": 2921,
          "time": 33.96511627906977,
          "velocity": 0.3228346456692913
        },
        {
          "duration": 0.046511627906973274,
          "durationTicks": 4,
          "midi": 72,
          "name": "C5",
          "ticks": 2921,
          "time": 33.96511627906977,
          "velocity": 0.08661417322834646
        },
        {
          "duration": 0.03488372093023173,
          "durationTicks": 3,
          "midi": 62,
          "name": "D4",
          "ticks": 2922,
          "time": 33.97674418604651,
          "velocity": 0.2125984251968504
        },
        {
          "duration": 0.03488372093023173,
          "durationTicks": 3,
          "midi": 65,
          "name": "F4",
          "ticks": 2924,
          "time": 34,
          "velocity": 0.2755905511811024
        },
        {
          "duration": 0.03488372093023173,
          "durationTicks": 3,
          "midi": 67,
          "name": "G4",
          "ticks": 2924,
          "time": 34,
          "velocity": 0.2440944881889764
        },
        {
          "duration": 0.081395348837205,
          "durationTicks": 7,
          "midi": 62,
          "name": "D4",
          "ticks": 2926,
          "time": 34.02325581395349,
          "velocity": 0.1732283464566929
        },
        {
          "duration": 0.03488372093023884,
          "durationTicks": 3,
          "midi": 65,
          "name": "F4",
          "ticks": 2928,
          "time": 34.04651162790697,
          "velocity": 0.2440944881889764
        },
        {
          "duration": 0.05813953488372192,
          "durationTicks": 5,
          "midi": 67,
          "name": "G4",
          "ticks": 2928,
          "time": 34.04651162790697,
          "velocity": 0.23622047244094488
        },
        {
          "duration": 0.03488372093023173,
          "durationTicks": 3,
          "midi": 72,
          "name": "C5",
          "ticks": 2931,
          "time": 34.08139534883721,
          "velocity": 0.07086614173228346
        },
        {
          "duration": 0.08139534883721211,
          "durationTicks": 7,
          "midi": 65,
          "name": "F4",
          "ticks": 2932,
          "time": 34.093023255813954,
          "velocity": 0.23622047244094488
        },
        {
          "duration": 0.23255813953488058,
          "durationTicks": 20,
          "midi": 60,
          "name": "C4",
          "ticks": 2937,
          "time": 34.151162790697676,
          "velocity": 0.30708661417322836
        },
        {
          "duration": 0.23255813953488058,
          "durationTicks": 20,
          "midi": 76,
          "name": "E5",
          "ticks": 2937,
          "time": 34.151162790697676,
          "velocity": 0.14173228346456693
        },
        {
          "duration": 0.27906976744186096,
          "durationTicks": 24,
          "midi": 72,
          "name": "C5",
          "ticks": 2938,
          "time": 34.16279069767442,
          "velocity": 0.3937007874015748
        },
        {
          "duration": 0.023255813953483084,
          "durationTicks": 2,
          "midi": 49,
          "name": "C#3",
          "ticks": 2939,
          "time": 34.174418604651166,
          "velocity": 0.23622047244094488
        },
        {
          "duration": 0.16279069767441712,
          "durationTicks": 14,
          "midi": 67,
          "name": "G4",
          "ticks": 2939,
          "time": 34.174418604651166,
          "velocity": 0.2125984251968504
        },
        {
          "duration": 0.02325581395349019,
          "durationTicks": 2,
          "midi": 47,
          "name": "B2",
          "ticks": 2941,
          "time": 34.19767441860465,
          "velocity": 0.2283464566929134
        },
        {
          "duration": 0.1046511627906952,
          "durationTicks": 9,
          "midi": 82,
          "name": "A#5",
          "ticks": 2943,
          "time": 34.22093023255814,
          "velocity": 0.14960629921259844
        },
        {
          "duration": 0.08139534883721211,
          "durationTicks": 7,
          "midi": 48,
          "name": "C3",
          "ticks": 2949,
          "time": 34.2906976744186,
          "velocity": 0.1968503937007874
        },
        {
          "duration": 0.03488372093023173,
          "durationTicks": 3,
          "midi": 40,
          "name": "E2",
          "ticks": 2950,
          "time": 34.30232558139535,
          "velocity": 0.12598425196850394
        },
        {
          "duration": 0.04651162790698038,
          "durationTicks": 4,
          "midi": 40,
          "name": "E2",
          "ticks": 2954,
          "time": 34.348837209302324,
          "velocity": 0.10236220472440945
        },
        {
          "duration": 0.03488372093023173,
          "durationTicks": 3,
          "midi": 83,
          "name": "B5",
          "ticks": 2955,
          "time": 34.36046511627907,
          "velocity": 0.10236220472440945
        },
        {
          "duration": 0.36046511627906597,
          "durationTicks": 31,
          "midi": 65,
          "name": "F4",
          "ticks": 2956,
          "time": 34.372093023255815,
          "velocity": 0.23622047244094488
        },
        {
          "duration": 0.3953488372093048,
          "durationTicks": 34,
          "midi": 69,
          "name": "A4",
          "ticks": 2956,
          "time": 34.372093023255815,
          "velocity": 0.25196850393700787
        },
        {
          "duration": 0.02325581395349019,
          "durationTicks": 2,
          "midi": 62,
          "name": "D4",
          "ticks": 2957,
          "time": 34.383720930232556,
          "velocity": 0.25196850393700787
        },
        {
          "duration": 0.2093023255813975,
          "durationTicks": 18,
          "midi": 62,
          "name": "D4",
          "ticks": 2960,
          "time": 34.41860465116279,
          "velocity": 0.2755905511811024
        },
        {
          "duration": 0.19767441860464885,
          "durationTicks": 17,
          "midi": 57,
          "name": "A3",
          "ticks": 2962,
          "time": 34.44186046511628,
          "velocity": 0.1732283464566929
        },
        {
          "duration": 0.046511627906973274,
          "durationTicks": 4,
          "midi": 50,
          "name": "D3",
          "ticks": 2963,
          "time": 34.45348837209303,
          "velocity": 0.2125984251968504
        },
        {
          "duration": 0.2674418604651194,
          "durationTicks": 23,
          "midi": 50,
          "name": "D3",
          "ticks": 2968,
          "time": 34.51162790697674,
          "velocity": 0.23622047244094488
        },
        {
          "duration": 0.23255813953488058,
          "durationTicks": 20,
          "midi": 72,
          "name": "C5",
          "ticks": 2975,
          "time": 34.593023255813954,
          "velocity": 0.36220472440944884
        },
        {
          "duration": 0.03488372093023173,
          "durationTicks": 3,
          "midi": 44,
          "name": "G#2",
          "ticks": 2978,
          "time": 34.627906976744185,
          "velocity": 0.2204724409448819
        },
        {
          "duration": 0.08139534883721211,
          "durationTicks": 7,
          "midi": 85,
          "name": "C#6",
          "ticks": 2979,
          "time": 34.63953488372093,
          "velocity": 0.07874015748031496
        },
        {
          "duration": 0.03488372093023173,
          "durationTicks": 3,
          "midi": 57,
          "name": "A3",
          "ticks": 2980,
          "time": 34.651162790697676,
          "velocity": 0.11023622047244094
        },
        {
          "duration": 0.16279069767441712,
          "durationTicks": 14,
          "midi": 43,
          "name": "G2",
          "ticks": 2981,
          "time": 34.66279069767442,
          "velocity": 0.18110236220472442
        },
        {
          "duration": 0.03488372093023173,
          "durationTicks": 3,
          "midi": 50,
          "name": "D3",
          "ticks": 2992,
          "time": 34.7906976744186,
          "velocity": 0.08661417322834646
        },
        {
          "duration": 0.03488372093023173,
          "durationTicks": 3,
          "midi": 65,
          "name": "F4",
          "ticks": 2993,
          "time": 34.80232558139535,
          "velocity": 0.11811023622047244
        },
        {
          "duration": 0.04651162790698038,
          "durationTicks": 4,
          "midi": 51,
          "name": "D#3",
          "ticks": 2995,
          "time": 34.825581395348834,
          "velocity": 0.1889763779527559
        },
        {
          "duration": 0.27906976744186096,
          "durationTicks": 24,
          "midi": 62,
          "name": "D4",
          "ticks": 2995,
          "time": 34.825581395348834,
          "velocity": 0.2992125984251969
        },
        {
          "duration": 0.23255813953488058,
          "durationTicks": 20,
          "midi": 70,
          "name": "A#4",
          "ticks": 2996,
          "time": 34.83720930232558,
          "velocity": 0.3464566929133858
        },
        {
          "duration": 0.03488372093023173,
          "durationTicks": 3,
          "midi": 65,
          "name": "F4",
          "ticks": 2997,
          "time": 34.848837209302324,
          "velocity": 0.23622047244094488
        },
        {
          "duration": 0.22093023255813904,
          "durationTicks": 19,
          "midi": 79,
          "name": "G5",
          "ticks": 2997,
          "time": 34.848837209302324,
          "velocity": 0.09448818897637795
        },
        {
          "duration": 0.23255813953488058,
          "durationTicks": 20,
          "midi": 50,
          "name": "D3",
          "ticks": 2999,
          "time": 34.872093023255815,
          "velocity": 0.1968503937007874
        },
        {
          "duration": 0.19767441860464885,
          "durationTicks": 17,
          "midi": 67,
          "name": "G4",
          "ticks": 2999,
          "time": 34.872093023255815,
          "velocity": 0.2677165354330709
        },
        {
          "duration": 0.08139534883721211,
          "durationTicks": 7,
          "midi": 55,
          "name": "G3",
          "ticks": 3000,
          "time": 34.883720930232556,
          "velocity": 0.16535433070866143
        },
        {
          "duration": 0.03488372093023173,
          "durationTicks": 3,
          "midi": 72,
          "name": "C5",
          "ticks": 3000,
          "time": 34.883720930232556,
          "velocity": 0.1889763779527559
        },
        {
          "duration": 0.418604651162795,
          "durationTicks": 36,
          "midi": 88,
          "name": "E6",
          "ticks": 3000,
          "time": 34.883720930232556,
          "velocity": 0.14173228346456693
        },
        {
          "duration": 0.05813953488372192,
          "durationTicks": 5,
          "midi": 65,
          "name": "F4",
          "ticks": 3007,
          "time": 34.96511627906977,
          "velocity": 0.2047244094488189
        },
        {
          "duration": 0.08139534883721211,
          "durationTicks": 7,
          "midi": 65,
          "name": "F4",
          "ticks": 3013,
          "time": 35.03488372093023,
          "velocity": 0.1732283464566929
        },
        {
          "duration": 0.04651162790698038,
          "durationTicks": 4,
          "midi": 83,
          "name": "B5",
          "ticks": 3016,
          "time": 35.06976744186046,
          "velocity": 0.15748031496062992
        },
        {
          "duration": 0.03488372093023173,
          "durationTicks": 3,
          "midi": 70,
          "name": "A#4",
          "ticks": 3017,
          "time": 35.08139534883721,
          "velocity": 0.2283464566929134
        },
        {
          "duration": 0.06976744186046346,
          "durationTicks": 6,
          "midi": 72,
          "name": "C5",
          "ticks": 3017,
          "time": 35.08139534883721,
          "velocity": 0.10236220472440945
        },
        {
          "duration": 0.03488372093023173,
          "durationTicks": 3,
          "midi": 41,
          "name": "F2",
          "ticks": 3019,
          "time": 35.104651162790695,
          "velocity": 0.15748031496062992
        },
        {
          "duration": 0.16279069767441712,
          "durationTicks": 14,
          "midi": 69,
          "name": "A4",
          "ticks": 3020,
          "time": 35.116279069767444,
          "velocity": 0.13385826771653545
        },
        {
          "duration": 0.04651162790698038,
          "durationTicks": 4,
          "midi": 83,
          "name": "B5",
          "ticks": 3021,
          "time": 35.127906976744185,
          "velocity": 0.12598425196850394
        },
        {
          "duration": 0.12790697674418539,
          "durationTicks": 11,
          "midi": 41,
          "name": "F2",
          "ticks": 3023,
          "time": 35.151162790697676,
          "velocity": 0.11023622047244094
        },
        {
          "duration": 0.03488372093023173,
          "durationTicks": 3,
          "midi": 83,
          "name": "B5",
          "ticks": 3027,
          "time": 35.19767441860465,
          "velocity": 0.08661417322834646
        },
        {
          "duration": 0.03488372093023173,
          "durationTicks": 3,
          "midi": 50,
          "name": "D3",
          "ticks": 3033,
          "time": 35.26744186046512,
          "velocity": 0.2440944881889764
        },
        {
          "duration": 0.3139534883720927,
          "durationTicks": 27,
          "midi": 70,
          "name": "A#4",
          "ticks": 3034,
          "time": 35.27906976744186,
          "velocity": 0.33858267716535434
        },
        {
          "duration": 0.24418604651162923,
          "durationTicks": 21,
          "midi": 74,
          "name": "D5",
          "ticks": 3034,
          "time": 35.27906976744186,
          "velocity": 0.15748031496062992
        },
        {
          "duration": 0.12790697674418539,
          "durationTicks": 11,
          "midi": 67,
          "name": "G4",
          "ticks": 3035,
          "time": 35.2906976744186,
          "velocity": 0.30708661417322836
        },
        {
          "duration": 0.25581395348837077,
          "durationTicks": 22,
          "midi": 77,
          "name": "F5",
          "ticks": 3035,
          "time": 35.2906976744186,
          "velocity": 0.2125984251968504
        },
        {
          "duration": 0.43023255813953654,
          "durationTicks": 37,
          "midi": 87,
          "name": "D#6",
          "ticks": 3035,
          "time": 35.2906976744186,
          "velocity": 0.11023622047244094
        },
        {
          "duration": 0.023255813953483084,
          "durationTicks": 2,
          "midi": 62,
          "name": "D4",
          "ticks": 3036,
          "time": 35.30232558139535,
          "velocity": 0.2283464566929134
        },
        {
          "duration": 0.15116279069767558,
          "durationTicks": 13,
          "midi": 84,
          "name": "C6",
          "ticks": 3036,
          "time": 35.30232558139535,
          "velocity": 0.07874015748031496
        },
        {
          "duration": 0.03488372093023173,
          "durationTicks": 3,
          "midi": 65,
          "name": "F4",
          "ticks": 3037,
          "time": 35.31395348837209,
          "velocity": 0.25196850393700787
        },
        {
          "duration": 0.05813953488372192,
          "durationTicks": 5,
          "midi": 81,
          "name": "A5",
          "ticks": 3038,
          "time": 35.325581395348834,
          "velocity": 0.09448818897637795
        },
        {
          "duration": 0.02325581395349019,
          "durationTicks": 2,
          "midi": 42,
          "name": "F#2",
          "ticks": 3039,
          "time": 35.33720930232558,
          "velocity": 0.23622047244094488
        },
        {
          "duration": 0.17441860465115866,
          "durationTicks": 15,
          "midi": 62,
          "name": "D4",
          "ticks": 3039,
          "time": 35.33720930232558,
          "velocity": 0.25196850393700787
        },
        {
          "duration": 0.02325581395349019,
          "durationTicks": 2,
          "midi": 53,
          "name": "F3",
          "ticks": 3040,
          "time": 35.348837209302324,
          "velocity": 0.2283464566929134
        },
        {
          "duration": 0.081395348837205,
          "durationTicks": 7,
          "midi": 43,
          "name": "G2",
          "ticks": 3041,
          "time": 35.36046511627907,
          "velocity": 0.15748031496062992
        },
        {
          "duration": 0.43023255813952943,
          "durationTicks": 37,
          "midi": 65,
          "name": "F4",
          "ticks": 3041,
          "time": 35.36046511627907,
          "velocity": 0.31496062992125984
        },
        {
          "duration": 0.03488372093023173,
          "durationTicks": 3,
          "midi": 53,
          "name": "F3",
          "ticks": 3043,
          "time": 35.383720930232556,
          "velocity": 0.2283464566929134
        },
        {
          "duration": 0.058139534883714816,
          "durationTicks": 5,
          "midi": 43,
          "name": "G2",
          "ticks": 3049,
          "time": 35.45348837209303,
          "velocity": 0.12598425196850394
        },
        {
          "duration": 0.03488372093023173,
          "durationTicks": 3,
          "midi": 42,
          "name": "F#2",
          "ticks": 3054,
          "time": 35.51162790697674,
          "velocity": 0.18110236220472442
        },
        {
          "duration": 0.1279069767441925,
          "durationTicks": 11,
          "midi": 43,
          "name": "G2",
          "ticks": 3057,
          "time": 35.54651162790697,
          "velocity": 0.2047244094488189
        },
        {
          "duration": 0.03488372093023884,
          "durationTicks": 3,
          "midi": 83,
          "name": "B5",
          "ticks": 3057,
          "time": 35.54651162790697,
          "velocity": 0.11023622047244094
        },
        {
          "duration": 0.12790697674418539,
          "durationTicks": 11,
          "midi": 74,
          "name": "D5",
          "ticks": 3060,
          "time": 35.58139534883721,
          "velocity": 0.07086614173228346
        },
        {
          "duration": 0.11627906976744384,
          "durationTicks": 10,
          "midi": 83,
          "name": "B5",
          "ticks": 3062,
          "time": 35.604651162790695,
          "velocity": 0.10236220472440945
        },
        {
          "duration": 0.11627906976744384,
          "durationTicks": 10,
          "midi": 85,
          "name": "C#6",
          "ticks": 3067,
          "time": 35.66279069767442,
          "velocity": 0.07086614173228346
        },
        {
          "duration": 0.06976744186046346,
          "durationTicks": 6,
          "midi": 43,
          "name": "G2",
          "ticks": 3069,
          "time": 35.68604651162791,
          "velocity": 0.2047244094488189
        },
        {
          "duration": 0.22093023255813904,
          "durationTicks": 19,
          "midi": 70,
          "name": "A#4",
          "ticks": 3074,
          "time": 35.74418604651163,
          "velocity": 0.33070866141732286
        },
        {
          "duration": 0.27906976744186096,
          "durationTicks": 24,
          "midi": 83,
          "name": "B5",
          "ticks": 3074,
          "time": 35.74418604651163,
          "velocity": 0.2204724409448819
        },
        {
          "duration": 0.22093023255813904,
          "durationTicks": 19,
          "midi": 62,
          "name": "D4",
          "ticks": 3075,
          "time": 35.75581395348837,
          "velocity": 0.25196850393700787
        },
        {
          "duration": 0.25581395348837077,
          "durationTicks": 22,
          "midi": 79,
          "name": "G5",
          "ticks": 3075,
          "time": 35.75581395348837,
          "velocity": 0.13385826771653545
        },
        {
          "duration": 0.058139534883714816,
          "durationTicks": 5,
          "midi": 84,
          "name": "C6",
          "ticks": 3076,
          "time": 35.76744186046512,
          "velocity": 0.13385826771653545
        },
        {
          "duration": 0.03488372093023173,
          "durationTicks": 3,
          "midi": 55,
          "name": "G3",
          "ticks": 3077,
          "time": 35.77906976744186,
          "velocity": 0.1889763779527559
        },
        {
          "duration": 0.30232558139535115,
          "durationTicks": 26,
          "midi": 67,
          "name": "G4",
          "ticks": 3077,
          "time": 35.77906976744186,
          "velocity": 0.3700787401574803
        },
        {
          "duration": 0.17441860465116577,
          "durationTicks": 15,
          "midi": 38,
          "name": "D2",
          "ticks": 3078,
          "time": 35.7906976744186,
          "velocity": 0.18110236220472442
        },
        {
          "duration": 0.03488372093023173,
          "durationTicks": 3,
          "midi": 84,
          "name": "C6",
          "ticks": 3084,
          "time": 35.86046511627907,
          "velocity": 0.08661417322834646
        },
        {
          "duration": 0.046511627906973274,
          "durationTicks": 4,
          "midi": 84,
          "name": "C6",
          "ticks": 3092,
          "time": 35.95348837209303,
          "velocity": 0.08661417322834646
        },
        {
          "duration": 0.02325581395349019,
          "durationTicks": 2,
          "midi": 65,
          "name": "F4",
          "ticks": 3094,
          "time": 35.97674418604651,
          "velocity": 0.28346456692913385
        },
        {
          "duration": 0.19767441860465595,
          "durationTicks": 17,
          "midi": 72,
          "name": "C5",
          "ticks": 3094,
          "time": 35.97674418604651,
          "velocity": 0.2992125984251969
        },
        {
          "duration": 0.22093023255813904,
          "durationTicks": 19,
          "midi": 60,
          "name": "C4",
          "ticks": 3095,
          "time": 35.98837209302326,
          "velocity": 0.2440944881889764
        },
        {
          "duration": 0.23255813953488058,
          "durationTicks": 20,
          "midi": 69,
          "name": "A4",
          "ticks": 3095,
          "time": 35.98837209302326,
          "velocity": 0.3700787401574803
        },
        {
          "duration": 0.046511627906973274,
          "durationTicks": 4,
          "midi": 48,
          "name": "C3",
          "ticks": 3096,
          "time": 36,
          "velocity": 0.2125984251968504
        },
        {
          "duration": 0.19767441860464885,
          "durationTicks": 17,
          "midi": 64,
          "name": "E4",
          "ticks": 3096,
          "time": 36,
          "velocity": 0.25984251968503935
        },
        {
          "duration": 0.7674418604651123,
          "durationTicks": 66,
          "midi": 74,
          "name": "D5",
          "ticks": 3098,
          "time": 36.02325581395349,
          "velocity": 0.2992125984251969
        },
        {
          "duration": 0.1046511627906952,
          "durationTicks": 9,
          "midi": 83,
          "name": "B5",
          "ticks": 3099,
          "time": 36.03488372093023,
          "velocity": 0.16535433070866143
        },
        {
          "duration": 0.12790697674418539,
          "durationTicks": 11,
          "midi": 48,
          "name": "C3",
          "ticks": 3102,
          "time": 36.06976744186046,
          "velocity": 0.2047244094488189
        },
        {
          "duration": 0.03488372093023173,
          "durationTicks": 3,
          "midi": 53,
          "name": "F3",
          "ticks": 3104,
          "time": 36.093023255813954,
          "velocity": 0.14960629921259844
        },
        {
          "duration": 0.17441860465116577,
          "durationTicks": 15,
          "midi": 83,
          "name": "B5",
          "ticks": 3110,
          "time": 36.16279069767442,
          "velocity": 0.12598425196850394
        },
        {
          "duration": 0.4418604651162781,
          "durationTicks": 38,
          "midi": 62,
          "name": "D4",
          "ticks": 3114,
          "time": 36.2093023255814,
          "velocity": 0.2125984251968504
        },
        {
          "duration": 0.09302325581395365,
          "durationTicks": 8,
          "midi": 65,
          "name": "F4",
          "ticks": 3114,
          "time": 36.2093023255814,
          "velocity": 0.2204724409448819
        },
        {
          "duration": 0.6860465116279073,
          "durationTicks": 59,
          "midi": 79,
          "name": "G5",
          "ticks": 3114,
          "time": 36.2093023255814,
          "velocity": 0.36220472440944884
        },
        {
          "duration": 0.06976744186046346,
          "durationTicks": 6,
          "midi": 84,
          "name": "C6",
          "ticks": 3114,
          "time": 36.2093023255814,
          "velocity": 0.08661417322834646
        },
        {
          "duration": 0.17441860465116577,
          "durationTicks": 15,
          "midi": 67,
          "name": "G4",
          "ticks": 3115,
          "time": 36.22093023255814,
          "velocity": 0.25984251968503935
        },
        {
          "duration": 0.48837209302325846,
          "durationTicks": 42,
          "midi": 70,
          "name": "A#4",
          "ticks": 3115,
          "time": 36.22093023255814,
          "velocity": 0.3700787401574803
        },
        {
          "duration": 0.02325581395349019,
          "durationTicks": 2,
          "midi": 44,
          "name": "G#2",
          "ticks": 3116,
          "time": 36.23255813953488,
          "velocity": 0.2440944881889764
        },
        {
          "duration": 0.03488372093023884,
          "durationTicks": 3,
          "midi": 85,
          "name": "C#6",
          "ticks": 3116,
          "time": 36.23255813953488,
          "velocity": 0.07874015748031496
        },
        {
          "duration": 0.17441860465115866,
          "durationTicks": 15,
          "midi": 50,
          "name": "D3",
          "ticks": 3119,
          "time": 36.26744186046512,
          "velocity": 0.2204724409448819
        },
        {
          "duration": 0.06976744186046346,
          "durationTicks": 6,
          "midi": 57,
          "name": "A3",
          "ticks": 3119,
          "time": 36.26744186046512,
          "velocity": 0.1889763779527559
        },
        {
          "duration": 0.03488372093023173,
          "durationTicks": 3,
          "midi": 84,
          "name": "C6",
          "ticks": 3122,
          "time": 36.30232558139535,
          "velocity": 0.07874015748031496
        },
        {
          "duration": 0.04651162790698038,
          "durationTicks": 4,
          "midi": 43,
          "name": "G2",
          "ticks": 3123,
          "time": 36.31395348837209,
          "velocity": 0.14960629921259844
        },
        {
          "duration": 0.08139534883721211,
          "durationTicks": 7,
          "midi": 65,
          "name": "F4",
          "ticks": 3123,
          "time": 36.31395348837209,
          "velocity": 0.1968503937007874
        },
        {
          "duration": 0.03488372093023173,
          "durationTicks": 3,
          "midi": 57,
          "name": "A3",
          "ticks": 3126,
          "time": 36.348837209302324,
          "velocity": 0.1968503937007874
        },
        {
          "duration": 0.046511627906973274,
          "durationTicks": 4,
          "midi": 57,
          "name": "A3",
          "ticks": 3130,
          "time": 36.395348837209305,
          "velocity": 0.16535433070866143
        },
        {
          "duration": 0.03488372093023173,
          "durationTicks": 3,
          "midi": 65,
          "name": "F4",
          "ticks": 3131,
          "time": 36.406976744186046,
          "velocity": 0.1968503937007874
        },
        {
          "duration": 0.25581395348837077,
          "durationTicks": 22,
          "midi": 67,
          "name": "G4",
          "ticks": 3133,
          "time": 36.43023255813954,
          "velocity": 0.31496062992125984
        },
        {
          "duration": 0.046511627906973274,
          "durationTicks": 4,
          "midi": 58,
          "name": "A#3",
          "ticks": 3138,
          "time": 36.48837209302326,
          "velocity": 0.23622047244094488
        },
        {
          "duration": 0.06976744186047057,
          "durationTicks": 6,
          "midi": 58,
          "name": "A#3",
          "ticks": 3143,
          "time": 36.54651162790697,
          "velocity": 0.2283464566929134
        },
        {
          "duration": 0.2325581395348877,
          "durationTicks": 20,
          "midi": 60,
          "name": "C4",
          "ticks": 3153,
          "time": 36.66279069767442,
          "velocity": 0.36220472440944884
        },
        {
          "duration": 0.7441860465116292,
          "durationTicks": 64,
          "midi": 74,
          "name": "D5",
          "ticks": 3171,
          "time": 36.872093023255815,
          "velocity": 0.2677165354330709
        },
        {
          "duration": 0.2906976744186096,
          "durationTicks": 25,
          "midi": 70,
          "name": "A#4",
          "ticks": 3172,
          "time": 36.883720930232556,
          "velocity": 0.30708661417322836
        },
        {
          "duration": 0.46511627906976827,
          "durationTicks": 40,
          "midi": 77,
          "name": "F5",
          "ticks": 3172,
          "time": 36.883720930232556,
          "velocity": 0.3228346456692913
        },
        {
          "duration": 0.3604651162790731,
          "durationTicks": 31,
          "midi": 81,
          "name": "A5",
          "ticks": 3172,
          "time": 36.883720930232556,
          "velocity": 0.2047244094488189
        },
        {
          "duration": 0.081395348837205,
          "durationTicks": 7,
          "midi": 53,
          "name": "F3",
          "ticks": 3173,
          "time": 36.895348837209305,
          "velocity": 0.14173228346456693
        },
        {
          "duration": 0.23255813953488058,
          "durationTicks": 20,
          "midi": 67,
          "name": "G4",
          "ticks": 3173,
          "time": 36.895348837209305,
          "velocity": 0.29133858267716534
        },
        {
          "duration": 0.03488372093023173,
          "durationTicks": 3,
          "midi": 58,
          "name": "A#3",
          "ticks": 3176,
          "time": 36.93023255813954,
          "velocity": 0.2125984251968504
        },
        {
          "duration": 0.046511627906973274,
          "durationTicks": 4,
          "midi": 62,
          "name": "D4",
          "ticks": 3176,
          "time": 36.93023255813954,
          "velocity": 0.2204724409448819
        },
        {
          "duration": 0.02325581395349019,
          "durationTicks": 2,
          "midi": 58,
          "name": "A#3",
          "ticks": 3182,
          "time": 37,
          "velocity": 0.2283464566929134
        },
        {
          "duration": 0.09302325581395365,
          "durationTicks": 8,
          "midi": 72,
          "name": "C5",
          "ticks": 3183,
          "time": 37.01162790697674,
          "velocity": 0.13385826771653545
        },
        {
          "duration": 0.09302325581395365,
          "durationTicks": 8,
          "midi": 46,
          "name": "A#2",
          "ticks": 3185,
          "time": 37.03488372093023,
          "velocity": 0.09448818897637795
        },
        {
          "duration": 0.04651162790698038,
          "durationTicks": 4,
          "midi": 58,
          "name": "A#3",
          "ticks": 3188,
          "time": 37.06976744186046,
          "velocity": 0.1968503937007874
        },
        {
          "duration": 0.2906976744186025,
          "durationTicks": 25,
          "midi": 62,
          "name": "D4",
          "ticks": 3189,
          "time": 37.08139534883721,
          "velocity": 0.31496062992125984
        },
        {
          "duration": 0.04651162790698038,
          "durationTicks": 4,
          "midi": 58,
          "name": "A#3",
          "ticks": 3194,
          "time": 37.13953488372093,
          "velocity": 0.10236220472440945
        },
        {
          "duration": 0.48837209302325846,
          "durationTicks": 42,
          "midi": 79,
          "name": "G5",
          "ticks": 3210,
          "time": 37.325581395348834,
          "velocity": 0.30708661417322836
        },
        {
          "duration": 0.23255813953488058,
          "durationTicks": 20,
          "midi": 45,
          "name": "A2",
          "ticks": 3211,
          "time": 37.33720930232558,
          "velocity": 0.41732283464566927
        },
        {
          "duration": 0.11627906976744384,
          "durationTicks": 10,
          "midi": 65,
          "name": "F4",
          "ticks": 3211,
          "time": 37.33720930232558,
          "velocity": 0.30708661417322836
        },
        {
          "duration": 0.32558139534883423,
          "durationTicks": 28,
          "midi": 69,
          "name": "A4",
          "ticks": 3211,
          "time": 37.33720930232558,
          "velocity": 0.2677165354330709
        },
        {
          "duration": 0.23255813953488058,
          "durationTicks": 20,
          "midi": 71,
          "name": "B4",
          "ticks": 3211,
          "time": 37.33720930232558,
          "velocity": 0.2047244094488189
        },
        {
          "duration": 0.03488372093023173,
          "durationTicks": 3,
          "midi": 82,
          "name": "A#5",
          "ticks": 3211,
          "time": 37.33720930232558,
          "velocity": 0.14173228346456693
        },
        {
          "duration": 0.4534883720930267,
          "durationTicks": 39,
          "midi": 76,
          "name": "E5",
          "ticks": 3212,
          "time": 37.348837209302324,
          "velocity": 0.3228346456692913
        },
        {
          "duration": 0.03488372093023173,
          "durationTicks": 3,
          "midi": 87,
          "name": "D#6",
          "ticks": 3216,
          "time": 37.395348837209305,
          "velocity": 0.09448818897637795
        },
        {
          "duration": 0.03488372093023173,
          "durationTicks": 3,
          "midi": 61,
          "name": "C#4",
          "ticks": 3219,
          "time": 37.43023255813954,
          "velocity": 0.1889763779527559
        },
        {
          "duration": 0.12790697674418539,
          "durationTicks": 11,
          "midi": 65,
          "name": "F4",
          "ticks": 3222,
          "time": 37.46511627906977,
          "velocity": 0.25984251968503935
        },
        {
          "duration": 0.03488372093023173,
          "durationTicks": 3,
          "midi": 61,
          "name": "C#4",
          "ticks": 3223,
          "time": 37.47674418604651,
          "velocity": 0.1968503937007874
        },
        {
          "duration": 0.23255813953488058,
          "durationTicks": 20,
          "midi": 60,
          "name": "C4",
          "ticks": 3230,
          "time": 37.55813953488372,
          "velocity": 0.3700787401574803
        },
        {
          "duration": 0.12790697674418539,
          "durationTicks": 11,
          "midi": 45,
          "name": "A2",
          "ticks": 3232,
          "time": 37.58139534883721,
          "velocity": 0.29133858267716534
        },
        {
          "duration": 0.04651162790698038,
          "durationTicks": 4,
          "midi": 65,
          "name": "F4",
          "ticks": 3250,
          "time": 37.7906976744186,
          "velocity": 0.2755905511811024
        },
        {
          "duration": 0.48837209302325846,
          "durationTicks": 42,
          "midi": 69,
          "name": "A4",
          "ticks": 3250,
          "time": 37.7906976744186,
          "velocity": 0.25196850393700787
        },
        {
          "duration": 0.16279069767442422,
          "durationTicks": 14,
          "midi": 71,
          "name": "B4",
          "ticks": 3250,
          "time": 37.7906976744186,
          "velocity": 0.1889763779527559
        },
        {
          "duration": 1.441860465116278,
          "durationTicks": 124,
          "midi": 74,
          "name": "D5",
          "ticks": 3250,
          "time": 37.7906976744186,
          "velocity": 0.3937007874015748
        },
        {
          "duration": 0.06976744186046346,
          "durationTicks": 6,
          "midi": 45,
          "name": "A2",
          "ticks": 3251,
          "time": 37.80232558139535,
          "velocity": 0.4094488188976378
        },
        {
          "duration": 0.023255813953483084,
          "durationTicks": 2,
          "midi": 62,
          "name": "D4",
          "ticks": 3251,
          "time": 37.80232558139535,
          "velocity": 0.2755905511811024
        },
        {
          "duration": 0.4534883720930196,
          "durationTicks": 39,
          "midi": 77,
          "name": "F5",
          "ticks": 3251,
          "time": 37.80232558139535,
          "velocity": 0.3858267716535433
        },
        {
          "duration": 0.12790697674418539,
          "durationTicks": 11,
          "midi": 62,
          "name": "D4",
          "ticks": 3254,
          "time": 37.83720930232558,
          "velocity": 0.31496062992125984
        },
        {
          "duration": 0.03488372093023173,
          "durationTicks": 3,
          "midi": 79,
          "name": "G5",
          "ticks": 3256,
          "time": 37.86046511627907,
          "velocity": 0.07874015748031496
        },
        {
          "duration": 0.08139534883721211,
          "durationTicks": 7,
          "midi": 57,
          "name": "A3",
          "ticks": 3257,
          "time": 37.872093023255815,
          "velocity": 0.13385826771653545
        },
        {
          "duration": 0.12790697674418539,
          "durationTicks": 11,
          "midi": 45,
          "name": "A2",
          "ticks": 3258,
          "time": 37.883720930232556,
          "velocity": 0.3779527559055118
        },
        {
          "duration": 0.03488372093023173,
          "durationTicks": 3,
          "midi": 65,
          "name": "F4",
          "ticks": 3258,
          "time": 37.883720930232556,
          "velocity": 0.2755905511811024
        },
        {
          "duration": 0.13953488372092693,
          "durationTicks": 12,
          "midi": 65,
          "name": "F4",
          "ticks": 3262,
          "time": 37.93023255813954,
          "velocity": 0.2440944881889764
        },
        {
          "duration": 0.06976744186046346,
          "durationTicks": 6,
          "midi": 62,
          "name": "D4",
          "ticks": 3267,
          "time": 37.98837209302326,
          "velocity": 0.1968503937007874
        },
        {
          "duration": 0.02325581395349019,
          "durationTicks": 2,
          "midi": 44,
          "name": "G#2",
          "ticks": 3269,
          "time": 38.01162790697674,
          "velocity": 0.3228346456692913
        },
        {
          "duration": 0.25581395348837077,
          "durationTicks": 22,
          "midi": 57,
          "name": "A3",
          "ticks": 3270,
          "time": 38.02325581395349,
          "velocity": 0.25984251968503935
        },
        {
          "duration": 0.4767441860465098,
          "durationTicks": 41,
          "midi": 88,
          "name": "E6",
          "ticks": 3270,
          "time": 38.02325581395349,
          "velocity": 0.18110236220472442
        },
        {
          "duration": 0.02325581395349019,
          "durationTicks": 2,
          "midi": 45,
          "name": "A2",
          "ticks": 3271,
          "time": 38.03488372093023,
          "velocity": 0.33070866141732286
        },
        {
          "duration": 0.06976744186047057,
          "durationTicks": 6,
          "midi": 84,
          "name": "C6",
          "ticks": 3272,
          "time": 38.04651162790697,
          "velocity": 0.08661417322834646
        },
        {
          "duration": 0.17441860465115866,
          "durationTicks": 15,
          "midi": 72,
          "name": "C5",
          "ticks": 3273,
          "time": 38.05813953488372,
          "velocity": 0.18110236220472442
        },
        {
          "duration": 0.08139534883721211,
          "durationTicks": 7,
          "midi": 45,
          "name": "A2",
          "ticks": 3274,
          "time": 38.06976744186046,
          "velocity": 0.3228346456692913
        },
        {
          "duration": 0.23255813953488058,
          "durationTicks": 20,
          "midi": 62,
          "name": "D4",
          "ticks": 3275,
          "time": 38.08139534883721,
          "velocity": 0.1732283464566929
        },
        {
          "duration": 0.09302325581395365,
          "durationTicks": 8,
          "midi": 45,
          "name": "A2",
          "ticks": 3282,
          "time": 38.16279069767442,
          "velocity": 0.2755905511811024
        },
        {
          "duration": 0.24418604651162923,
          "durationTicks": 21,
          "midi": 72,
          "name": "C5",
          "ticks": 3290,
          "time": 38.25581395348837,
          "velocity": 0.36220472440944884
        },
        {
          "duration": 0.4418604651162781,
          "durationTicks": 38,
          "midi": 76,
          "name": "E5",
          "ticks": 3290,
          "time": 38.25581395348837,
          "velocity": 0.33070866141732286
        },
        {
          "duration": 0.11627906976743674,
          "durationTicks": 10,
          "midi": 45,
          "name": "A2",
          "ticks": 3291,
          "time": 38.26744186046512,
          "velocity": 0.2992125984251969
        },
        {
          "duration": 0.2093023255813904,
          "durationTicks": 18,
          "midi": 67,
          "name": "G4",
          "ticks": 3291,
          "time": 38.26744186046512,
          "velocity": 0.30708661417322836
        },
        {
          "duration": 0.03488372093023884,
          "durationTicks": 3,
          "midi": 62,
          "name": "D4",
          "ticks": 3296,
          "time": 38.325581395348834,
          "velocity": 0.10236220472440945
        },
        {
          "duration": 0.03488372093023173,
          "durationTicks": 3,
          "midi": 62,
          "name": "D4",
          "ticks": 3300,
          "time": 38.372093023255815,
          "velocity": 0.11811023622047244
        },
        {
          "duration": 0.03488372093023173,
          "durationTicks": 3,
          "midi": 60,
          "name": "C4",
          "ticks": 3302,
          "time": 38.395348837209305,
          "velocity": 0.08661417322834646
        },
        {
          "duration": 0.03488372093023173,
          "durationTicks": 3,
          "midi": 45,
          "name": "A2",
          "ticks": 3303,
          "time": 38.406976744186046,
          "velocity": 0.23622047244094488
        },
        {
          "duration": 0.04651162790698038,
          "durationTicks": 4,
          "midi": 50,
          "name": "D3",
          "ticks": 3303,
          "time": 38.406976744186046,
          "velocity": 0.2283464566929134
        },
        {
          "duration": 0.418604651162795,
          "durationTicks": 36,
          "midi": 69,
          "name": "A4",
          "ticks": 3304,
          "time": 38.41860465116279,
          "velocity": 0.28346456692913385
        },
        {
          "duration": 0.023255813953483084,
          "durationTicks": 2,
          "midi": 50,
          "name": "D3",
          "ticks": 3310,
          "time": 38.48837209302326,
          "velocity": 0.3228346456692913
        },
        {
          "duration": 0.23255813953488058,
          "durationTicks": 20,
          "midi": 65,
          "name": "F4",
          "ticks": 3310,
          "time": 38.48837209302326,
          "velocity": 0.3228346456692913
        },
        {
          "duration": 0.03488372093023173,
          "durationTicks": 3,
          "midi": 80,
          "name": "G#5",
          "ticks": 3310,
          "time": 38.48837209302326,
          "velocity": 0.10236220472440945
        },
        {
          "duration": 0.081395348837205,
          "durationTicks": 7,
          "midi": 72,
          "name": "C5",
          "ticks": 3313,
          "time": 38.52325581395349,
          "velocity": 0.1968503937007874
        },
        {
          "duration": 0.03488372093023173,
          "durationTicks": 3,
          "midi": 51,
          "name": "D#3",
          "ticks": 3314,
          "time": 38.53488372093023,
          "velocity": 0.33070866141732286
        },
        {
          "duration": 0.1860465116279073,
          "durationTicks": 16,
          "midi": 57,
          "name": "A3",
          "ticks": 3315,
          "time": 38.54651162790697,
          "velocity": 0.10236220472440945
        },
        {
          "duration": 0.03488372093023884,
          "durationTicks": 3,
          "midi": 82,
          "name": "A#5",
          "ticks": 3315,
          "time": 38.54651162790697,
          "velocity": 0.12598425196850394
        },
        {
          "duration": 0.06976744186046346,
          "durationTicks": 6,
          "midi": 38,
          "name": "D2",
          "ticks": 3316,
          "time": 38.55813953488372,
          "velocity": 0.1968503937007874
        },
        {
          "duration": 0.02325581395349019,
          "durationTicks": 2,
          "midi": 51,
          "name": "D#3",
          "ticks": 3319,
          "time": 38.593023255813954,
          "velocity": 0.25984251968503935
        },
        {
          "duration": 0.05813953488372192,
          "durationTicks": 5,
          "midi": 72,
          "name": "C5",
          "ticks": 3322,
          "time": 38.627906976744185,
          "velocity": 0.1732283464566929
        },
        {
          "duration": 0.06976744186047057,
          "durationTicks": 6,
          "midi": 38,
          "name": "D2",
          "ticks": 3323,
          "time": 38.63953488372093,
          "velocity": 0.15748031496062992
        },
        {
          "duration": 0.03488372093023884,
          "durationTicks": 3,
          "midi": 50,
          "name": "D3",
          "ticks": 3323,
          "time": 38.63953488372093,
          "velocity": 0.16535433070866143
        },
        {
          "duration": 0.03488372093023173,
          "durationTicks": 3,
          "midi": 47,
          "name": "B2",
          "ticks": 3330,
          "time": 38.72093023255814,
          "velocity": 0.16535433070866143
        },
        {
          "duration": 0.15116279069767558,
          "durationTicks": 13,
          "midi": 76,
          "name": "E5",
          "ticks": 3331,
          "time": 38.73255813953488,
          "velocity": 0.14173228346456693
        },
        {
          "duration": 0.1046511627906952,
          "durationTicks": 9,
          "midi": 64,
          "name": "E4",
          "ticks": 3332,
          "time": 38.74418604651163,
          "velocity": 0.14173228346456693
        },
        {
          "duration": 0.3139534883720927,
          "durationTicks": 27,
          "midi": 69,
          "name": "A4",
          "ticks": 3347,
          "time": 38.91860465116279,
          "velocity": 0.25984251968503935
        },
        {
          "duration": 0.40697674418604635,
          "durationTicks": 35,
          "midi": 77,
          "name": "F5",
          "ticks": 3348,
          "time": 38.93023255813954,
          "velocity": 0.2204724409448819
        },
        {
          "duration": 0.03488372093023173,
          "durationTicks": 3,
          "midi": 72,
          "name": "C5",
          "ticks": 3349,
          "time": 38.94186046511628,
          "velocity": 0.14173228346456693
        },
        {
          "duration": 0.6162790697674367,
          "durationTicks": 53,
          "midi": 65,
          "name": "F4",
          "ticks": 3350,
          "time": 38.95348837209303,
          "velocity": 0.33858267716535434
        },
        {
          "duration": 0.2906976744186025,
          "durationTicks": 25,
          "midi": 87,
          "name": "D#6",
          "ticks": 3350,
          "time": 38.95348837209303,
          "velocity": 0.08661417322834646
        },
        {
          "duration": 0.1860465116279073,
          "durationTicks": 16,
          "midi": 38,
          "name": "D2",
          "ticks": 3352,
          "time": 38.97674418604651,
          "velocity": 0.16535433070866143
        },
        {
          "duration": 0.22093023255813904,
          "durationTicks": 19,
          "midi": 53,
          "name": "F3",
          "ticks": 3352,
          "time": 38.97674418604651,
          "velocity": 0.25984251968503935
        },
        {
          "duration": 0.04651162790698038,
          "durationTicks": 4,
          "midi": 62,
          "name": "D4",
          "ticks": 3352,
          "time": 38.97674418604651,
          "velocity": 0.2283464566929134
        },
        {
          "duration": 0.081395348837205,
          "durationTicks": 7,
          "midi": 72,
          "name": "C5",
          "ticks": 3353,
          "time": 38.98837209302326,
          "velocity": 0.14173228346456693
        },
        {
          "duration": 0.04651162790698038,
          "durationTicks": 4,
          "midi": 72,
          "name": "C5",
          "ticks": 3363,
          "time": 39.104651162790695,
          "velocity": 0.08661417322834646
        },
        {
          "duration": 0.03488372093023173,
          "durationTicks": 3,
          "midi": 62,
          "name": "D4",
          "ticks": 3365,
          "time": 39.127906976744185,
          "velocity": 0.11023622047244094
        },
        {
          "duration": 0.15116279069767558,
          "durationTicks": 13,
          "midi": 72,
          "name": "C5",
          "ticks": 3372,
          "time": 39.2093023255814,
          "velocity": 0.16535433070866143
        },
        {
          "duration": 0.04651162790698038,
          "durationTicks": 4,
          "midi": 45,
          "name": "A2",
          "ticks": 3373,
          "time": 39.22093023255814,
          "velocity": 0.2283464566929134
        },
        {
          "duration": 0.06976744186046346,
          "durationTicks": 6,
          "midi": 45,
          "name": "A2",
          "ticks": 3378,
          "time": 39.27906976744186,
          "velocity": 0.2283464566929134
        },
        {
          "duration": 0.046511627906973274,
          "durationTicks": 4,
          "midi": 60,
          "name": "C4",
          "ticks": 3383,
          "time": 39.33720930232558,
          "velocity": 0.09448818897637795
        },
        {
          "duration": 0.24418604651162923,
          "durationTicks": 21,
          "midi": 69,
          "name": "A4",
          "ticks": 3387,
          "time": 39.383720930232556,
          "velocity": 0.2992125984251969
        },
        {
          "duration": 0.081395348837205,
          "durationTicks": 7,
          "midi": 74,
          "name": "D5",
          "ticks": 3388,
          "time": 39.395348837209305,
          "velocity": 0.09448818897637795
        },
        {
          "duration": 0.1860465116279073,
          "durationTicks": 16,
          "midi": 62,
          "name": "D4",
          "ticks": 3389,
          "time": 39.406976744186046,
          "velocity": 0.2125984251968504
        },
        {
          "duration": 0.04651162790698038,
          "durationTicks": 4,
          "midi": 84,
          "name": "C6",
          "ticks": 3390,
          "time": 39.41860465116279,
          "velocity": 0.10236220472440945
        },
        {
          "duration": 0.081395348837205,
          "durationTicks": 7,
          "midi": 72,
          "name": "C5",
          "ticks": 3391,
          "time": 39.43023255813954,
          "velocity": 0.14173228346456693
        },
        {
          "duration": 0.05813953488372192,
          "durationTicks": 5,
          "midi": 83,
          "name": "B5",
          "ticks": 3391,
          "time": 39.43023255813954,
          "velocity": 0.14960629921259844
        },
        {
          "duration": 0.16279069767441712,
          "durationTicks": 14,
          "midi": 45,
          "name": "A2",
          "ticks": 3393,
          "time": 39.45348837209303,
          "velocity": 0.2992125984251969
        },
        {
          "duration": 0.11627906976744384,
          "durationTicks": 10,
          "midi": 67,
          "name": "G4",
          "ticks": 3395,
          "time": 39.47674418604651,
          "velocity": 0.23622047244094488
        },
        {
          "duration": 0.08139534883721211,
          "durationTicks": 7,
          "midi": 83,
          "name": "B5",
          "ticks": 3398,
          "time": 39.51162790697674,
          "velocity": 0.14960629921259844
        },
        {
          "duration": 0.03488372093023173,
          "durationTicks": 3,
          "midi": 65,
          "name": "F4",
          "ticks": 3404,
          "time": 39.58139534883721,
          "velocity": 0.2047244094488189
        },
        {
          "duration": 0.023255813953483084,
          "durationTicks": 2,
          "midi": 72,
          "name": "C5",
          "ticks": 3407,
          "time": 39.616279069767444,
          "velocity": 0.23622047244094488
        },
        {
          "duration": 0.1860465116279073,
          "durationTicks": 16,
          "midi": 83,
          "name": "B5",
          "ticks": 3407,
          "time": 39.616279069767444,
          "velocity": 0.16535433070866143
        },
        {
          "duration": 0.09302325581395365,
          "durationTicks": 8,
          "midi": 86,
          "name": "D6",
          "ticks": 3407,
          "time": 39.616279069767444,
          "velocity": 0.11811023622047244
        },
        {
          "duration": 0.02325581395349019,
          "durationTicks": 2,
          "midi": 41,
          "name": "F2",
          "ticks": 3408,
          "time": 39.627906976744185,
          "velocity": 0.25196850393700787
        },
        {
          "duration": 0.2093023255813975,
          "durationTicks": 18,
          "midi": 60,
          "name": "C4",
          "ticks": 3408,
          "time": 39.627906976744185,
          "velocity": 0.3228346456692913
        },
        {
          "duration": 0.2325581395348877,
          "durationTicks": 20,
          "midi": 67,
          "name": "G4",
          "ticks": 3408,
          "time": 39.627906976744185,
          "velocity": 0.3779527559055118
        },
        {
          "duration": 0.22093023255813904,
          "durationTicks": 19,
          "midi": 76,
          "name": "E5",
          "ticks": 3408,
          "time": 39.627906976744185,
          "velocity": 0.16535433070866143
        },
        {
          "duration": 0.2093023255813975,
          "durationTicks": 18,
          "midi": 82,
          "name": "A#5",
          "ticks": 3408,
          "time": 39.627906976744185,
          "velocity": 0.14960629921259844
        },
        {
          "duration": 0.02325581395349019,
          "durationTicks": 2,
          "midi": 71,
          "name": "B4",
          "ticks": 3409,
          "time": 39.63953488372093,
          "velocity": 0.2440944881889764
        },
        {
          "duration": 0.19767441860464885,
          "durationTicks": 17,
          "midi": 64,
          "name": "E4",
          "ticks": 3410,
          "time": 39.651162790697676,
          "velocity": 0.2677165354330709
        },
        {
          "duration": 0.058139534883714816,
          "durationTicks": 5,
          "midi": 74,
          "name": "D5",
          "ticks": 3412,
          "time": 39.674418604651166,
          "velocity": 0.12598425196850394
        },
        {
          "duration": 0.11627906976744384,
          "durationTicks": 10,
          "midi": 48,
          "name": "C3",
          "ticks": 3416,
          "time": 39.72093023255814,
          "velocity": 0.2047244094488189
        },
        {
          "duration": 0.11627906976744384,
          "durationTicks": 10,
          "midi": 71,
          "name": "B4",
          "ticks": 3418,
          "time": 39.74418604651163,
          "velocity": 0.1732283464566929
        },
        {
          "duration": 0.058139534883714816,
          "durationTicks": 5,
          "midi": 74,
          "name": "D5",
          "ticks": 3420,
          "time": 39.76744186046512,
          "velocity": 0.12598425196850394
        },
        {
          "duration": 0.05813953488372192,
          "durationTicks": 5,
          "midi": 40,
          "name": "E2",
          "ticks": 3421,
          "time": 39.77906976744186,
          "velocity": 0.13385826771653545
        },
        {
          "duration": 0.04651162790698038,
          "durationTicks": 4,
          "midi": 55,
          "name": "G3",
          "ticks": 3422,
          "time": 39.7906976744186,
          "velocity": 0.12598425196850394
        },
        {
          "duration": 0.2906976744186025,
          "durationTicks": 25,
          "midi": 81,
          "name": "A5",
          "ticks": 3426,
          "time": 39.83720930232558,
          "velocity": 0.1968503937007874
        },
        {
          "duration": 0.02325581395349019,
          "durationTicks": 2,
          "midi": 51,
          "name": "D#3",
          "ticks": 3427,
          "time": 39.848837209302324,
          "velocity": 0.25984251968503935
        },
        {
          "duration": 0.02325581395349019,
          "durationTicks": 2,
          "midi": 61,
          "name": "C#4",
          "ticks": 3427,
          "time": 39.848837209302324,
          "velocity": 0.2440944881889764
        },
        {
          "duration": 1.139534883720934,
          "durationTicks": 98,
          "midi": 74,
          "name": "D5",
          "ticks": 3427,
          "time": 39.848837209302324,
          "velocity": 0.3700787401574803
        },
        {
          "duration": 0.25581395348837077,
          "durationTicks": 22,
          "midi": 65,
          "name": "F4",
          "ticks": 3428,
          "time": 39.86046511627907,
          "velocity": 0.25196850393700787
        },
        {
          "duration": 0.36046511627906597,
          "durationTicks": 31,
          "midi": 69,
          "name": "A4",
          "ticks": 3428,
          "time": 39.86046511627907,
          "velocity": 0.25196850393700787
        },
        {
          "duration": 0.03488372093023173,
          "durationTicks": 3,
          "midi": 84,
          "name": "C6",
          "ticks": 3428,
          "time": 39.86046511627907,
          "velocity": 0.13385826771653545
        },
        {
          "duration": 0.02325581395349019,
          "durationTicks": 2,
          "midi": 50,
          "name": "D3",
          "ticks": 3429,
          "time": 39.872093023255815,
          "velocity": 0.25984251968503935
        },
        {
          "duration": 0.22093023255813904,
          "durationTicks": 19,
          "midi": 62,
          "name": "D4",
          "ticks": 3429,
          "time": 39.872093023255815,
          "velocity": 0.25984251968503935
        },
        {
          "duration": 0.05813953488372192,
          "durationTicks": 5,
          "midi": 85,
          "name": "C#6",
          "ticks": 3429,
          "time": 39.872093023255815,
          "velocity": 0.07086614173228346
        },
        {
          "duration": 0.22093023255813904,
          "durationTicks": 19,
          "midi": 88,
          "name": "E6",
          "ticks": 3430,
          "time": 39.883720930232556,
          "velocity": 0.10236220472440945
        },
        {
          "duration": 0.6627906976744171,
          "durationTicks": 57,
          "midi": 57,
          "name": "A3",
          "ticks": 3431,
          "time": 39.895348837209305,
          "velocity": 0.16535433070866143
        },
        {
          "duration": 0.3139534883720927,
          "durationTicks": 27,
          "midi": 50,
          "name": "D3",
          "ticks": 3432,
          "time": 39.906976744186046,
          "velocity": 0.2283464566929134
        },
        {
          "duration": 0.03488372093023884,
          "durationTicks": 3,
          "midi": 84,
          "name": "C6",
          "ticks": 3433,
          "time": 39.91860465116279,
          "velocity": 0.10236220472440945
        },
        {
          "duration": 0.2325581395348877,
          "durationTicks": 20,
          "midi": 72,
          "name": "C5",
          "ticks": 3446,
          "time": 40.06976744186046,
          "velocity": 0.3228346456692913
        },
        {
          "duration": 0.6046511627906952,
          "durationTicks": 52,
          "midi": 77,
          "name": "F5",
          "ticks": 3447,
          "time": 40.08139534883721,
          "velocity": 0.3228346456692913
        },
        {
          "duration": 0.05813953488372192,
          "durationTicks": 5,
          "midi": 50,
          "name": "D3",
          "ticks": 3460,
          "time": 40.23255813953488,
          "velocity": 0.11811023622047244
        },
        {
          "duration": 0.23255813953488058,
          "durationTicks": 20,
          "midi": 50,
          "name": "D3",
          "ticks": 3466,
          "time": 40.30232558139535,
          "velocity": 0.25196850393700787
        },
        {
          "duration": 0.25581395348837077,
          "durationTicks": 22,
          "midi": 65,
          "name": "F4",
          "ticks": 3466,
          "time": 40.30232558139535,
          "velocity": 0.23622047244094488
        },
        {
          "duration": 0.7558139534883708,
          "durationTicks": 65,
          "midi": 69,
          "name": "A4",
          "ticks": 3466,
          "time": 40.30232558139535,
          "velocity": 0.28346456692913385
        },
        {
          "duration": 0.06976744186047057,
          "durationTicks": 6,
          "midi": 72,
          "name": "C5",
          "ticks": 3468,
          "time": 40.325581395348834,
          "velocity": 0.1968503937007874
        },
        {
          "duration": 0.32558139534883423,
          "durationTicks": 28,
          "midi": 88,
          "name": "E6",
          "ticks": 3469,
          "time": 40.33720930232558,
          "velocity": 0.10236220472440945
        },
        {
          "duration": 0.04651162790698038,
          "durationTicks": 4,
          "midi": 38,
          "name": "D2",
          "ticks": 3470,
          "time": 40.348837209302324,
          "velocity": 0.14173228346456693
        },
        {
          "duration": 0.09302325581395365,
          "durationTicks": 8,
          "midi": 38,
          "name": "D2",
          "ticks": 3477,
          "time": 40.43023255813954,
          "velocity": 0.13385826771653545
        },
        {
          "duration": 0.05813953488372192,
          "durationTicks": 5,
          "midi": 72,
          "name": "C5",
          "ticks": 3477,
          "time": 40.43023255813954,
          "velocity": 0.12598425196850394
        },
        {
          "duration": 0.02325581395349019,
          "durationTicks": 2,
          "midi": 51,
          "name": "D#3",
          "ticks": 3488,
          "time": 40.55813953488372,
          "velocity": 0.2755905511811024
        },
        {
          "duration": 0.03488372093023173,
          "durationTicks": 3,
          "midi": 72,
          "name": "C5",
          "ticks": 3490,
          "time": 40.58139534883721,
          "velocity": 0.15748031496062992
        },
        {
          "duration": 0.02325581395349019,
          "durationTicks": 2,
          "midi": 49,
          "name": "C#3",
          "ticks": 3495,
          "time": 40.63953488372093,
          "velocity": 0.2440944881889764
        },
        {
          "duration": 0.03488372093023173,
          "durationTicks": 3,
          "midi": 49,
          "name": "C#3",
          "ticks": 3500,
          "time": 40.69767441860465,
          "velocity": 0.2283464566929134
        },
        {
          "duration": 0.02325581395349019,
          "durationTicks": 2,
          "midi": 51,
          "name": "D#3",
          "ticks": 3503,
          "time": 40.73255813953488,
          "velocity": 0.2283464566929134
        },
        {
          "duration": 0.13953488372092693,
          "durationTicks": 12,
          "midi": 62,
          "name": "D4",
          "ticks": 3504,
          "time": 40.74418604651163,
          "velocity": 0.2204724409448819
        },
        {
          "duration": 0.40697674418604635,
          "durationTicks": 35,
          "midi": 77,
          "name": "F5",
          "ticks": 3504,
          "time": 40.74418604651163,
          "velocity": 0.2283464566929134
        },
        {
          "duration": 0.03488372093023173,
          "durationTicks": 3,
          "midi": 50,
          "name": "D3",
          "ticks": 3505,
          "time": 40.75581395348837,
          "velocity": 0.2755905511811024
        },
        {
          "duration": 0.25581395348837077,
          "durationTicks": 22,
          "midi": 87,
          "name": "D#6",
          "ticks": 3506,
          "time": 40.76744186046512,
          "velocity": 0.10236220472440945
        },
        {
          "duration": 0.5813953488372121,
          "durationTicks": 50,
          "midi": 65,
          "name": "F4",
          "ticks": 3507,
          "time": 40.77906976744186,
          "velocity": 0.33858267716535434
        },
        {
          "duration": 0.06976744186046346,
          "durationTicks": 6,
          "midi": 84,
          "name": "C6",
          "ticks": 3507,
          "time": 40.77906976744186,
          "velocity": 0.13385826771653545
        },
        {
          "duration": 0.19767441860465595,
          "durationTicks": 17,
          "midi": 38,
          "name": "D2",
          "ticks": 3508,
          "time": 40.7906976744186,
          "velocity": 0.18110236220472442
        },
        {
          "duration": 0.023255813953483084,
          "durationTicks": 2,
          "midi": 52,
          "name": "E3",
          "ticks": 3509,
          "time": 40.80232558139535,
          "velocity": 0.28346456692913385
        },
        {
          "duration": 0.081395348837205,
          "durationTicks": 7,
          "midi": 72,
          "name": "C5",
          "ticks": 3509,
          "time": 40.80232558139535,
          "velocity": 0.1968503937007874
        },
        {
          "duration": 0.16279069767442422,
          "durationTicks": 14,
          "midi": 53,
          "name": "F3",
          "ticks": 3511,
          "time": 40.825581395348834,
          "velocity": 0.25984251968503935
        },
        {
          "duration": 0.06976744186046346,
          "durationTicks": 6,
          "midi": 72,
          "name": "C5",
          "ticks": 3518,
          "time": 40.906976744186046,
          "velocity": 0.12598425196850394
        },
        {
          "duration": 0.046511627906973274,
          "durationTicks": 4,
          "midi": 62,
          "name": "D4",
          "ticks": 3520,
          "time": 40.93023255813954,
          "velocity": 0.14960629921259844
        },
        {
          "duration": 0.16279069767441712,
          "durationTicks": 14,
          "midi": 72,
          "name": "C5",
          "ticks": 3526,
          "time": 41,
          "velocity": 0.2125984251968504
        },
        {
          "duration": 0.06976744186047057,
          "durationTicks": 6,
          "midi": 57,
          "name": "A3",
          "ticks": 3527,
          "time": 41.01162790697674,
          "velocity": 0.1732283464566929
        },
        {
          "duration": 0.04651162790698038,
          "durationTicks": 4,
          "midi": 74,
          "name": "D5",
          "ticks": 3529,
          "time": 41.03488372093023,
          "velocity": 0.07086614173228346
        },
        {
          "duration": 0.38372093023255616,
          "durationTicks": 33,
          "midi": 45,
          "name": "A2",
          "ticks": 3533,
          "time": 41.08139534883721,
          "velocity": 0.3700787401574803
        },
        {
          "duration": 0.2674418604651194,
          "durationTicks": 23,
          "midi": 69,
          "name": "A4",
          "ticks": 3543,
          "time": 41.19767441860465,
          "velocity": 0.25196850393700787
        },
        {
          "duration": 0.03488372093023173,
          "durationTicks": 3,
          "midi": 84,
          "name": "C6",
          "ticks": 3543,
          "time": 41.19767441860465,
          "velocity": 0.09448818897637795
        },
        {
          "duration": 0.27906976744186096,
          "durationTicks": 24,
          "midi": 74,
          "name": "D5",
          "ticks": 3544,
          "time": 41.2093023255814,
          "velocity": 0.2755905511811024
        },
        {
          "duration": 0.046511627906973274,
          "durationTicks": 4,
          "midi": 83,
          "name": "B5",
          "ticks": 3544,
          "time": 41.2093023255814,
          "velocity": 0.16535433070866143
        },
        {
          "duration": 0.08139534883721211,
          "durationTicks": 7,
          "midi": 62,
          "name": "D4",
          "ticks": 3548,
          "time": 41.25581395348837,
          "velocity": 0.2283464566929134
        },
        {
          "duration": 0.09302325581395365,
          "durationTicks": 8,
          "midi": 84,
          "name": "C6",
          "ticks": 3548,
          "time": 41.25581395348837,
          "velocity": 0.08661417322834646
        },
        {
          "duration": 0.3488372093023244,
          "durationTicks": 30,
          "midi": 83,
          "name": "B5",
          "ticks": 3550,
          "time": 41.27906976744186,
          "velocity": 0.1732283464566929
        },
        {
          "duration": 0.04651162790698038,
          "durationTicks": 4,
          "midi": 62,
          "name": "D4",
          "ticks": 3556,
          "time": 41.348837209302324,
          "velocity": 0.13385826771653545
        },
        {
          "duration": 0.03488372093023173,
          "durationTicks": 3,
          "midi": 65,
          "name": "F4",
          "ticks": 3558,
          "time": 41.372093023255815,
          "velocity": 0.23622047244094488
        },
        {
          "duration": 0.05813953488372192,
          "durationTicks": 5,
          "midi": 67,
          "name": "G4",
          "ticks": 3559,
          "time": 41.383720930232556,
          "velocity": 0.2204724409448819
        },
        {
          "duration": 0.17441860465115866,
          "durationTicks": 15,
          "midi": 72,
          "name": "C5",
          "ticks": 3563,
          "time": 41.43023255813954,
          "velocity": 0.2677165354330709
        },
        {
          "duration": 0.22093023255813904,
          "durationTicks": 19,
          "midi": 60,
          "name": "C4",
          "ticks": 3564,
          "time": 41.44186046511628,
          "velocity": 0.29133858267716534
        },
        {
          "duration": 0.2093023255813904,
          "durationTicks": 18,
          "midi": 67,
          "name": "G4",
          "ticks": 3565,
          "time": 41.45348837209303,
          "velocity": 0.2755905511811024
        },
        {
          "duration": 0.081395348837205,
          "durationTicks": 7,
          "midi": 64,
          "name": "E4",
          "ticks": 3566,
          "time": 41.46511627906977,
          "velocity": 0.2755905511811024
        },
        {
          "duration": 0.11627906976744384,
          "durationTicks": 10,
          "midi": 82,
          "name": "A#5",
          "ticks": 3569,
          "time": 41.5,
          "velocity": 0.11811023622047244
        },
        {
          "duration": 0.05813953488372192,
          "durationTicks": 5,
          "midi": 74,
          "name": "D5",
          "ticks": 3570,
          "time": 41.51162790697674,
          "velocity": 0.14173228346456693
        },
        {
          "duration": 0.03488372093023173,
          "durationTicks": 3,
          "midi": 48,
          "name": "C3",
          "ticks": 3572,
          "time": 41.53488372093023,
          "velocity": 0.2283464566929134
        },
        {
          "duration": 0.09302325581395365,
          "durationTicks": 8,
          "midi": 64,
          "name": "E4",
          "ticks": 3575,
          "time": 41.56976744186046,
          "velocity": 0.1889763779527559
        },
        {
          "duration": 0.06976744186046346,
          "durationTicks": 6,
          "midi": 48,
          "name": "C3",
          "ticks": 3576,
          "time": 41.58139534883721,
          "velocity": 0.2125984251968504
        },
        {
          "duration": 0.1046511627906952,
          "durationTicks": 9,
          "midi": 71,
          "name": "B4",
          "ticks": 3577,
          "time": 41.593023255813954,
          "velocity": 0.15748031496062992
        },
        {
          "duration": 0.03488372093023173,
          "durationTicks": 3,
          "midi": 86,
          "name": "D6",
          "ticks": 3577,
          "time": 41.593023255813954,
          "velocity": 0.09448818897637795
        },
        {
          "duration": 0.046511627906973274,
          "durationTicks": 4,
          "midi": 74,
          "name": "D5",
          "ticks": 3579,
          "time": 41.616279069767444,
          "velocity": 0.07874015748031496
        },
        {
          "duration": 0.05813953488372192,
          "durationTicks": 5,
          "midi": 40,
          "name": "E2",
          "ticks": 3583,
          "time": 41.66279069767442,
          "velocity": 0.14960629921259844
        },
        {
          "duration": 0.2325581395348877,
          "durationTicks": 20,
          "midi": 62,
          "name": "D4",
          "ticks": 3583,
          "time": 41.66279069767442,
          "velocity": 0.29133858267716534
        },
        {
          "duration": 0.3139534883720927,
          "durationTicks": 27,
          "midi": 65,
          "name": "F4",
          "ticks": 3583,
          "time": 41.66279069767442,
          "velocity": 0.2283464566929134
        },
        {
          "duration": 0.2906976744186096,
          "durationTicks": 25,
          "midi": 81,
          "name": "A5",
          "ticks": 3583,
          "time": 41.66279069767442,
          "velocity": 0.2125984251968504
        },
        {
          "duration": 0.32558139534883423,
          "durationTicks": 28,
          "midi": 69,
          "name": "A4",
          "ticks": 3584,
          "time": 41.674418604651166,
          "velocity": 0.1732283464566929
        },
        {
          "duration": 0.8488372093023244,
          "durationTicks": 73,
          "midi": 77,
          "name": "F5",
          "ticks": 3585,
          "time": 41.68604651162791,
          "velocity": 0.31496062992125984
        },
        {
          "duration": 0.06976744186046346,
          "durationTicks": 6,
          "midi": 85,
          "name": "C#6",
          "ticks": 3585,
          "time": 41.68604651162791,
          "velocity": 0.07086614173228346
        },
        {
          "duration": 0.04651162790698038,
          "durationTicks": 4,
          "midi": 50,
          "name": "D3",
          "ticks": 3588,
          "time": 41.72093023255814,
          "velocity": 0.2047244094488189
        },
        {
          "duration": 0.2093023255813975,
          "durationTicks": 18,
          "midi": 57,
          "name": "A3",
          "ticks": 3588,
          "time": 41.72093023255814,
          "velocity": 0.1732283464566929
        },
        {
          "duration": 0.15116279069767558,
          "durationTicks": 13,
          "midi": 50,
          "name": "D3",
          "ticks": 3593,
          "time": 41.77906976744186,
          "velocity": 0.2283464566929134
        },
        {
          "duration": 0.23255813953488058,
          "durationTicks": 20,
          "midi": 72,
          "name": "C5",
          "ticks": 3603,
          "time": 41.895348837209305,
          "velocity": 0.33070866141732286
        },
        {
          "duration": 0.05813953488372192,
          "durationTicks": 5,
          "midi": 43,
          "name": "G2",
          "ticks": 3607,
          "time": 41.94186046511628,
          "velocity": 0.2047244094488189
        },
        {
          "duration": 0.04651162790698038,
          "durationTicks": 4,
          "midi": 50,
          "name": "D3",
          "ticks": 3607,
          "time": 41.94186046511628,
          "velocity": 0.1968503937007874
        },
        {
          "duration": 0.03488372093023173,
          "durationTicks": 3,
          "midi": 57,
          "name": "A3",
          "ticks": 3607,
          "time": 41.94186046511628,
          "velocity": 0.13385826771653545
        },
        {
          "duration": 0.2093023255813975,
          "durationTicks": 18,
          "midi": 85,
          "name": "C#6",
          "ticks": 3607,
          "time": 41.94186046511628,
          "velocity": 0.11023622047244094
        },
        {
          "duration": 0.046511627906973274,
          "durationTicks": 4,
          "midi": 50,
          "name": "D3",
          "ticks": 3612,
          "time": 42,
          "velocity": 0.14173228346456693
        },
        {
          "duration": 0.1046511627906952,
          "durationTicks": 9,
          "midi": 83,
          "name": "B5",
          "ticks": 3612,
          "time": 42,
          "velocity": 0.07086614173228346
        },
        {
          "duration": 0.1046511627907023,
          "durationTicks": 9,
          "midi": 43,
          "name": "G2",
          "ticks": 3613,
          "time": 42.01162790697674,
          "velocity": 0.14960629921259844
        },
        {
          "duration": 0.03488372093023173,
          "durationTicks": 3,
          "midi": 50,
          "name": "D3",
          "ticks": 3617,
          "time": 42.05813953488372,
          "velocity": 0.09448818897637795
        },
        {
          "duration": 0.2674418604651123,
          "durationTicks": 23,
          "midi": 74,
          "name": "D5",
          "ticks": 3622,
          "time": 42.116279069767444,
          "velocity": 0.18110236220472442
        },
        {
          "duration": 0.22093023255813904,
          "durationTicks": 19,
          "midi": 70,
          "name": "A#4",
          "ticks": 3623,
          "time": 42.127906976744185,
          "velocity": 0.33858267716535434
        },
        {
          "duration": 0.06976744186046346,
          "durationTicks": 6,
          "midi": 84,
          "name": "C6",
          "ticks": 3623,
          "time": 42.127906976744185,
          "velocity": 0.11023622047244094
        },
        {
          "duration": 0.02325581395349019,
          "durationTicks": 2,
          "midi": 44,
          "name": "G#2",
          "ticks": 3624,
          "time": 42.13953488372093,
          "velocity": 0.23622047244094488
        },
        {
          "duration": 0.06976744186047057,
          "durationTicks": 6,
          "midi": 50,
          "name": "D3",
          "ticks": 3624,
          "time": 42.13953488372093,
          "velocity": 0.14960629921259844
        },
        {
          "duration": 0.1279069767441925,
          "durationTicks": 11,
          "midi": 62,
          "name": "D4",
          "ticks": 3624,
          "time": 42.13953488372093,
          "velocity": 0.1889763779527559
        },
        {
          "duration": 0.22093023255814614,
          "durationTicks": 19,
          "midi": 67,
          "name": "G4",
          "ticks": 3624,
          "time": 42.13953488372093,
          "velocity": 0.3228346456692913
        },
        {
          "duration": 0.2325581395348877,
          "durationTicks": 20,
          "midi": 81,
          "name": "A5",
          "ticks": 3624,
          "time": 42.13953488372093,
          "velocity": 0.11811023622047244
        },
        {
          "duration": 0.046511627906973274,
          "durationTicks": 4,
          "midi": 65,
          "name": "F4",
          "ticks": 3625,
          "time": 42.151162790697676,
          "velocity": 0.23622047244094488
        },
        {
          "duration": 0.2906976744186096,
          "durationTicks": 25,
          "midi": 88,
          "name": "E6",
          "ticks": 3626,
          "time": 42.16279069767442,
          "velocity": 0.11811023622047244
        },
        {
          "duration": 0.13953488372093403,
          "durationTicks": 12,
          "midi": 50,
          "name": "D3",
          "ticks": 3631,
          "time": 42.22093023255814,
          "velocity": 0.2283464566929134
        },
        {
          "duration": 0.03488372093023173,
          "durationTicks": 3,
          "midi": 84,
          "name": "C6",
          "ticks": 3631,
          "time": 42.22093023255814,
          "velocity": 0.07874015748031496
        },
        {
          "duration": 0.03488372093023173,
          "durationTicks": 3,
          "midi": 55,
          "name": "G3",
          "ticks": 3635,
          "time": 42.26744186046512,
          "velocity": 0.09448818897637795
        },
        {
          "duration": 0.03488372093023173,
          "durationTicks": 3,
          "midi": 83,
          "name": "B5",
          "ticks": 3641,
          "time": 42.33720930232558,
          "velocity": 0.14960629921259844
        },
        {
          "duration": 0.09302325581395365,
          "durationTicks": 8,
          "midi": 65,
          "name": "F4",
          "ticks": 3642,
          "time": 42.348837209302324,
          "velocity": 0.11023622047244094
        },
        {
          "duration": 0.2325581395348877,
          "durationTicks": 20,
          "midi": 69,
          "name": "A4",
          "ticks": 3642,
          "time": 42.348837209302324,
          "velocity": 0.2204724409448819
        },
        {
          "duration": 0.16279069767441712,
          "durationTicks": 14,
          "midi": 72,
          "name": "C5",
          "ticks": 3642,
          "time": 42.348837209302324,
          "velocity": 0.15748031496062992
        },
        {
          "duration": 0.02325581395349019,
          "durationTicks": 2,
          "midi": 50,
          "name": "D3",
          "ticks": 3644,
          "time": 42.372093023255815,
          "velocity": 0.23622047244094488
        },
        {
          "duration": 0.04651162790698038,
          "durationTicks": 4,
          "midi": 83,
          "name": "B5",
          "ticks": 3645,
          "time": 42.383720930232556,
          "velocity": 0.14960629921259844
        },
        {
          "duration": 0.17441860465115866,
          "durationTicks": 15,
          "midi": 41,
          "name": "F2",
          "ticks": 3646,
          "time": 42.395348837209305,
          "velocity": 0.15748031496062992
        },
        {
          "duration": 0.13953488372092693,
          "durationTicks": 12,
          "midi": 74,
          "name": "D5",
          "ticks": 3646,
          "time": 42.395348837209305,
          "velocity": 0.10236220472440945
        },
        {
          "duration": 0.02325581395349019,
          "durationTicks": 2,
          "midi": 50,
          "name": "D3",
          "ticks": 3649,
          "time": 42.43023255813954,
          "velocity": 0.2283464566929134
        },
        {
          "duration": 0.04651162790698038,
          "durationTicks": 4,
          "midi": 83,
          "name": "B5",
          "ticks": 3650,
          "time": 42.44186046511628,
          "velocity": 0.11023622047244094
        },
        {
          "duration": 0.023255813953483084,
          "durationTicks": 2,
          "midi": 50,
          "name": "D3",
          "ticks": 3654,
          "time": 42.48837209302326,
          "velocity": 0.2440944881889764
        },
        {
          "duration": 0.03488372093023173,
          "durationTicks": 3,
          "midi": 50,
          "name": "D3",
          "ticks": 3660,
          "time": 42.55813953488372,
          "velocity": 0.2283464566929134
        },
        {
          "duration": 0.15116279069767558,
          "durationTicks": 13,
          "midi": 62,
          "name": "D4",
          "ticks": 3661,
          "time": 42.56976744186046,
          "velocity": 0.23622047244094488
        },
        {
          "duration": 0.1046511627907023,
          "durationTicks": 9,
          "midi": 67,
          "name": "G4",
          "ticks": 3661,
          "time": 42.56976744186046,
          "velocity": 0.31496062992125984
        },
        {
          "duration": 0.3139534883720927,
          "durationTicks": 27,
          "midi": 70,
          "name": "A#4",
          "ticks": 3661,
          "time": 42.56976744186046,
          "velocity": 0.33070866141732286
        },
        {
          "duration": 0.697674418604656,
          "durationTicks": 60,
          "midi": 77,
          "name": "F5",
          "ticks": 3661,
          "time": 42.56976744186046,
          "velocity": 0.2440944881889764
        },
        {
          "duration": 0.43023255813952943,
          "durationTicks": 37,
          "midi": 87,
          "name": "D#6",
          "ticks": 3662,
          "time": 42.58139534883721,
          "velocity": 0.08661417322834646
        },
        {
          "duration": 0.03488372093023173,
          "durationTicks": 3,
          "midi": 65,
          "name": "F4",
          "ticks": 3663,
          "time": 42.593023255813954,
          "velocity": 0.25196850393700787
        },
        {
          "duration": 0.15116279069767558,
          "durationTicks": 13,
          "midi": 84,
          "name": "C6",
          "ticks": 3663,
          "time": 42.593023255813954,
          "velocity": 0.07086614173228346
        },
        {
          "duration": 0.02325581395349019,
          "durationTicks": 2,
          "midi": 43,
          "name": "G2",
          "ticks": 3664,
          "time": 42.604651162790695,
          "velocity": 0.23622047244094488
        },
        {
          "duration": 0.09302325581395365,
          "durationTicks": 8,
          "midi": 53,
          "name": "F3",
          "ticks": 3664,
          "time": 42.604651162790695,
          "velocity": 0.25984251968503935
        },
        {
          "duration": 0.046511627906973274,
          "durationTicks": 4,
          "midi": 81,
          "name": "A5",
          "ticks": 3665,
          "time": 42.616279069767444,
          "velocity": 0.09448818897637795
        },
        {
          "duration": 0.03488372093023173,
          "durationTicks": 3,
          "midi": 42,
          "name": "F#2",
          "ticks": 3666,
          "time": 42.627906976744185,
          "velocity": 0.2283464566929134
        },
        {
          "duration": 0.05813953488372192,
          "durationTicks": 5,
          "midi": 43,
          "name": "G2",
          "ticks": 3669,
          "time": 42.66279069767442,
          "velocity": 0.12598425196850394
        },
        {
          "duration": 0.3953488372093048,
          "durationTicks": 34,
          "midi": 65,
          "name": "F4",
          "ticks": 3669,
          "time": 42.66279069767442,
          "velocity": 0.31496062992125984
        },
        {
          "duration": 0.06976744186047057,
          "durationTicks": 6,
          "midi": 43,
          "name": "G2",
          "ticks": 3675,
          "time": 42.73255813953488,
          "velocity": 0.12598425196850394
        },
        {
          "duration": 0.05813953488372192,
          "durationTicks": 5,
          "midi": 62,
          "name": "D4",
          "ticks": 3675,
          "time": 42.73255813953488,
          "velocity": 0.16535433070866143
        },
        {
          "duration": 0.03488372093023173,
          "durationTicks": 3,
          "midi": 42,
          "name": "F#2",
          "ticks": 3681,
          "time": 42.80232558139535,
          "velocity": 0.1889763779527559
        },
        {
          "duration": 0.04651162790698038,
          "durationTicks": 4,
          "midi": 83,
          "name": "B5",
          "ticks": 3683,
          "time": 42.825581395348834,
          "velocity": 0.11811023622047244
        },
        {
          "duration": 0.05813953488372192,
          "durationTicks": 5,
          "midi": 43,
          "name": "G2",
          "ticks": 3684,
          "time": 42.83720930232558,
          "velocity": 0.2047244094488189
        },
        {
          "duration": 0.12790697674418539,
          "durationTicks": 11,
          "midi": 74,
          "name": "D5",
          "ticks": 3686,
          "time": 42.86046511627907,
          "velocity": 0.07086614173228346
        },
        {
          "duration": 0.046511627906973274,
          "durationTicks": 4,
          "midi": 83,
          "name": "B5",
          "ticks": 3689,
          "time": 42.895348837209305,
          "velocity": 0.11811023622047244
        },
        {
          "duration": 0.11627906976744384,
          "durationTicks": 10,
          "midi": 43,
          "name": "G2",
          "ticks": 3690,
          "time": 42.906976744186046,
          "velocity": 0.14173228346456693
        },
        {
          "duration": 0.05813953488372192,
          "durationTicks": 5,
          "midi": 83,
          "name": "B5",
          "ticks": 3695,
          "time": 42.96511627906977,
          "velocity": 0.09448818897637795
        },
        {
          "duration": 0.6744186046511587,
          "durationTicks": 58,
          "midi": 74,
          "name": "D5",
          "ticks": 3700,
          "time": 43.02325581395349,
          "velocity": 0.2440944881889764
        },
        {
          "duration": 0.1046511627906952,
          "durationTicks": 9,
          "midi": 84,
          "name": "C6",
          "ticks": 3700,
          "time": 43.02325581395349,
          "velocity": 0.11023622047244094
        },
        {
          "duration": 0.06976744186046346,
          "durationTicks": 6,
          "midi": 55,
          "name": "G3",
          "ticks": 3701,
          "time": 43.03488372093023,
          "velocity": 0.16535433070866143
        },
        {
          "duration": 0.2325581395348877,
          "durationTicks": 20,
          "midi": 67,
          "name": "G4",
          "ticks": 3701,
          "time": 43.03488372093023,
          "velocity": 0.3858267716535433
        },
        {
          "duration": 0.22093023255813904,
          "durationTicks": 19,
          "midi": 70,
          "name": "A#4",
          "ticks": 3701,
          "time": 43.03488372093023,
          "velocity": 0.3228346456692913
        },
        {
          "duration": 0.24418604651162923,
          "durationTicks": 21,
          "midi": 83,
          "name": "B5",
          "ticks": 3704,
          "time": 43.06976744186046,
          "velocity": 0.1889763779527559
        },
        {
          "duration": 0.17441860465115866,
          "durationTicks": 15,
          "midi": 38,
          "name": "D2",
          "ticks": 3705,
          "time": 43.08139534883721,
          "velocity": 0.16535433070866143
        },
        {
          "duration": 0.17441860465115866,
          "durationTicks": 15,
          "midi": 62,
          "name": "D4",
          "ticks": 3705,
          "time": 43.08139534883721,
          "velocity": 0.2283464566929134
        },
        {
          "duration": 0.05813953488372192,
          "durationTicks": 5,
          "midi": 55,
          "name": "G3",
          "ticks": 3709,
          "time": 43.127906976744185,
          "velocity": 0.14173228346456693
        },
        {
          "duration": 0.03488372093023173,
          "durationTicks": 3,
          "midi": 84,
          "name": "C6",
          "ticks": 3712,
          "time": 43.16279069767442,
          "velocity": 0.07086614173228346
        },
        {
          "duration": 0.2325581395348877,
          "durationTicks": 20,
          "midi": 60,
          "name": "C4",
          "ticks": 3720,
          "time": 43.25581395348837,
          "velocity": 0.25196850393700787
        },
        {
          "duration": 0.02325581395349019,
          "durationTicks": 2,
          "midi": 65,
          "name": "F4",
          "ticks": 3720,
          "time": 43.25581395348837,
          "velocity": 0.2755905511811024
        },
        {
          "duration": 0.2093023255813904,
          "durationTicks": 18,
          "midi": 69,
          "name": "A4",
          "ticks": 3721,
          "time": 43.26744186046512,
          "velocity": 0.29133858267716534
        },
        {
          "duration": 0.1860465116279073,
          "durationTicks": 16,
          "midi": 72,
          "name": "C5",
          "ticks": 3721,
          "time": 43.26744186046512,
          "velocity": 0.2992125984251969
        },
        {
          "duration": 0.23255813953488058,
          "durationTicks": 20,
          "midi": 76,
          "name": "E5",
          "ticks": 3721,
          "time": 43.26744186046512,
          "velocity": 0.14960629921259844
        },
        {
          "duration": 0.2093023255813975,
          "durationTicks": 18,
          "midi": 64,
          "name": "E4",
          "ticks": 3722,
          "time": 43.27906976744186,
          "velocity": 0.23622047244094488
        },
        {
          "duration": 0.03488372093023173,
          "durationTicks": 3,
          "midi": 48,
          "name": "C3",
          "ticks": 3724,
          "time": 43.30232558139535,
          "velocity": 0.18110236220472442
        },
        {
          "duration": 0.05813953488372192,
          "durationTicks": 5,
          "midi": 83,
          "name": "B5",
          "ticks": 3726,
          "time": 43.325581395348834,
          "velocity": 0.18110236220472442
        },
        {
          "duration": 0.12790697674418539,
          "durationTicks": 11,
          "midi": 48,
          "name": "C3",
          "ticks": 3728,
          "time": 43.348837209302324,
          "velocity": 0.1968503937007874
        },
        {
          "duration": 0.03488372093023173,
          "durationTicks": 3,
          "midi": 83,
          "name": "B5",
          "ticks": 3732,
          "time": 43.395348837209305,
          "velocity": 0.14173228346456693
        },
        {
          "duration": 0.03488372093023173,
          "durationTicks": 3,
          "midi": 83,
          "name": "B5",
          "ticks": 3737,
          "time": 43.45348837209303,
          "velocity": 0.13385826771653545
        },
        {
          "duration": 0.4767441860465169,
          "durationTicks": 41,
          "midi": 70,
          "name": "A#4",
          "ticks": 3739,
          "time": 43.47674418604651,
          "velocity": 0.3858267716535433
        },
        {
          "duration": 0.13953488372093403,
          "durationTicks": 12,
          "midi": 81,
          "name": "A5",
          "ticks": 3739,
          "time": 43.47674418604651,
          "velocity": 0.15748031496062992
        },
        {
          "duration": 0.30232558139535115,
          "durationTicks": 26,
          "midi": 62,
          "name": "D4",
          "ticks": 3741,
          "time": 43.5,
          "velocity": 0.25196850393700787
        },
        {
          "duration": 0.2093023255813975,
          "durationTicks": 18,
          "midi": 67,
          "name": "G4",
          "ticks": 3741,
          "time": 43.5,
          "velocity": 0.2992125984251969
        },
        {
          "duration": 0.22093023255813904,
          "durationTicks": 19,
          "midi": 77,
          "name": "F5",
          "ticks": 3742,
          "time": 43.51162790697674,
          "velocity": 0.11811023622047244
        },
        {
          "duration": 0.03488372093023173,
          "durationTicks": 3,
          "midi": 42,
          "name": "F#2",
          "ticks": 3744,
          "time": 43.53488372093023,
          "velocity": 0.2204724409448819
        },
        {
          "duration": 0.17441860465116577,
          "durationTicks": 15,
          "midi": 88,
          "name": "E6",
          "ticks": 3744,
          "time": 43.53488372093023,
          "velocity": 0.11023622047244094
        },
        {
          "duration": 0.16279069767442422,
          "durationTicks": 14,
          "midi": 50,
          "name": "D3",
          "ticks": 3745,
          "time": 43.54651162790697,
          "velocity": 0.2125984251968504
        },
        {
          "duration": 0.03488372093023884,
          "durationTicks": 3,
          "midi": 57,
          "name": "A3",
          "ticks": 3745,
          "time": 43.54651162790697,
          "velocity": 0.14173228346456693
        },
        {
          "duration": 0.03488372093023173,
          "durationTicks": 3,
          "midi": 84,
          "name": "C6",
          "ticks": 3747,
          "time": 43.56976744186046,
          "velocity": 0.07086614173228346
        },
        {
          "duration": 0.04651162790698038,
          "durationTicks": 4,
          "midi": 57,
          "name": "A3",
          "ticks": 3753,
          "time": 43.63953488372093,
          "velocity": 0.2125984251968504
        },
        {
          "duration": 0.03488372093023173,
          "durationTicks": 3,
          "midi": 57,
          "name": "A3",
          "ticks": 3758,
          "time": 43.69767441860465,
          "velocity": 0.25984251968503935
        },
        {
          "duration": 0.9069767441860463,
          "durationTicks": 78,
          "midi": 74,
          "name": "D5",
          "ticks": 3759,
          "time": 43.7093023255814,
          "velocity": 0.3464566929133858
        },
        {
          "duration": 0.13953488372093403,
          "durationTicks": 12,
          "midi": 79,
          "name": "G5",
          "ticks": 3760,
          "time": 43.72093023255814,
          "velocity": 0.15748031496062992
        },
        {
          "duration": 0.23255813953488058,
          "durationTicks": 20,
          "midi": 67,
          "name": "G4",
          "ticks": 3762,
          "time": 43.74418604651163,
          "velocity": 0.2677165354330709
        },
        {
          "duration": 0.06976744186046346,
          "durationTicks": 6,
          "midi": 81,
          "name": "A5",
          "ticks": 3763,
          "time": 43.75581395348837,
          "velocity": 0.07086614173228346
        },
        {
          "duration": 0.13953488372092693,
          "durationTicks": 12,
          "midi": 58,
          "name": "A#3",
          "ticks": 3765,
          "time": 43.77906976744186,
          "velocity": 0.25196850393700787
        },
        {
          "duration": 0.081395348837205,
          "durationTicks": 7,
          "midi": 80,
          "name": "G#5",
          "ticks": 3772,
          "time": 43.86046511627907,
          "velocity": 0.11811023622047244
        },
        {
          "duration": 0.04651162790698038,
          "durationTicks": 4,
          "midi": 46,
          "name": "A#2",
          "ticks": 3777,
          "time": 43.91860465116279,
          "velocity": 0.09448818897637795
        },
        {
          "duration": 0.2674418604651194,
          "durationTicks": 23,
          "midi": 60,
          "name": "C4",
          "ticks": 3779,
          "time": 43.94186046511628,
          "velocity": 0.36220472440944884
        },
        {
          "duration": 0.30232558139535115,
          "durationTicks": 26,
          "midi": 70,
          "name": "A#4",
          "ticks": 3798,
          "time": 44.16279069767442,
          "velocity": 0.33070866141732286
        },
        {
          "duration": 0.25581395348837077,
          "durationTicks": 22,
          "midi": 67,
          "name": "G4",
          "ticks": 3799,
          "time": 44.174418604651166,
          "velocity": 0.31496062992125984
        },
        {
          "duration": 0.08139534883721211,
          "durationTicks": 7,
          "midi": 46,
          "name": "A#2",
          "ticks": 3800,
          "time": 44.18604651162791,
          "velocity": 0.2125984251968504
        },
        {
          "duration": 0.1046511627907023,
          "durationTicks": 9,
          "midi": 53,
          "name": "F3",
          "ticks": 3801,
          "time": 44.19767441860465,
          "velocity": 0.11023622047244094
        },
        {
          "duration": 0.046511627906973274,
          "durationTicks": 4,
          "midi": 80,
          "name": "G#5",
          "ticks": 3805,
          "time": 44.24418604651163,
          "velocity": 0.11811023622047244
        },
        {
          "duration": 0.09302325581395365,
          "durationTicks": 8,
          "midi": 60,
          "name": "C4",
          "ticks": 3807,
          "time": 44.26744186046512,
          "velocity": 0.23622047244094488
        },
        {
          "duration": 0.1046511627907023,
          "durationTicks": 9,
          "midi": 46,
          "name": "A#2",
          "ticks": 3812,
          "time": 44.325581395348834,
          "velocity": 0.14173228346456693
        },
        {
          "duration": 0.24418604651162923,
          "durationTicks": 21,
          "midi": 62,
          "name": "D4",
          "ticks": 3817,
          "time": 44.383720930232556,
          "velocity": 0.31496062992125984
        },
        {
          "duration": 0.17441860465115866,
          "durationTicks": 15,
          "midi": 65,
          "name": "F4",
          "ticks": 3837,
          "time": 44.616279069767444,
          "velocity": 0.30708661417322836
        },
        {
          "duration": 0.32558139534883423,
          "durationTicks": 28,
          "midi": 69,
          "name": "A4",
          "ticks": 3837,
          "time": 44.616279069767444,
          "velocity": 0.25984251968503935
        },
        {
          "duration": 0.3720930232558146,
          "durationTicks": 32,
          "midi": 73,
          "name": "C#5",
          "ticks": 3837,
          "time": 44.616279069767444,
          "velocity": 0.3779527559055118
        },
        {
          "duration": 0.22093023255813904,
          "durationTicks": 19,
          "midi": 45,
          "name": "A2",
          "ticks": 3838,
          "time": 44.627906976744185,
          "velocity": 0.41732283464566927
        },
        {
          "duration": 0.05813953488372192,
          "durationTicks": 5,
          "midi": 71,
          "name": "B4",
          "ticks": 3839,
          "time": 44.63953488372093,
          "velocity": 0.2125984251968504
        },
        {
          "duration": 0.03488372093023173,
          "durationTicks": 3,
          "midi": 61,
          "name": "C#4",
          "ticks": 3845,
          "time": 44.7093023255814,
          "velocity": 0.18110236220472442
        },
        {
          "duration": 0.17441860465115866,
          "durationTicks": 15,
          "midi": 71,
          "name": "B4",
          "ticks": 3845,
          "time": 44.7093023255814,
          "velocity": 0.1732283464566929
        },
        {
          "duration": 0.03488372093023173,
          "durationTicks": 3,
          "midi": 61,
          "name": "C#4",
          "ticks": 3850,
          "time": 44.76744186046512,
          "velocity": 0.2047244094488189
        },
        {
          "duration": 0.03488372093023173,
          "durationTicks": 3,
          "midi": 65,
          "name": "F4",
          "ticks": 3853,
          "time": 44.80232558139535,
          "velocity": 0.25196850393700787
        },
        {
          "duration": 0.03488372093023173,
          "durationTicks": 3,
          "midi": 61,
          "name": "C#4",
          "ticks": 3854,
          "time": 44.81395348837209,
          "velocity": 0.1968503937007874
        },
        {
          "duration": 0.13953488372092693,
          "durationTicks": 12,
          "midi": 45,
          "name": "A2",
          "ticks": 3858,
          "time": 44.86046511627907,
          "velocity": 0.30708661417322836
        },
        {
          "duration": 0.2093023255813904,
          "durationTicks": 18,
          "midi": 65,
          "name": "F4",
          "ticks": 3858,
          "time": 44.86046511627907,
          "velocity": 0.2992125984251969
        },
        {
          "duration": 0.2093023255813904,
          "durationTicks": 18,
          "midi": 84,
          "name": "C6",
          "ticks": 3858,
          "time": 44.86046511627907,
          "velocity": 0.12598425196850394
        },
        {
          "duration": 0.5697674418604635,
          "durationTicks": 49,
          "midi": 69,
          "name": "A4",
          "ticks": 3876,
          "time": 45.06976744186046,
          "velocity": 0.25984251968503935
        },
        {
          "duration": 0.23255813953488058,
          "durationTicks": 20,
          "midi": 45,
          "name": "A2",
          "ticks": 3877,
          "time": 45.08139534883721,
          "velocity": 0.4094488188976378
        },
        {
          "duration": 0.06976744186046346,
          "durationTicks": 6,
          "midi": 71,
          "name": "B4",
          "ticks": 3877,
          "time": 45.08139534883721,
          "velocity": 0.1889763779527559
        },
        {
          "duration": 0.06976744186046346,
          "durationTicks": 6,
          "midi": 74,
          "name": "D5",
          "ticks": 3877,
          "time": 45.08139534883721,
          "velocity": 0.1968503937007874
        },
        {
          "duration": 0.02325581395349019,
          "durationTicks": 2,
          "midi": 65,
          "name": "F4",
          "ticks": 3881,
          "time": 45.127906976744185,
          "velocity": 0.23622047244094488
        },
        {
          "duration": 0.04651162790698038,
          "durationTicks": 4,
          "midi": 82,
          "name": "A#5",
          "ticks": 3881,
          "time": 45.127906976744185,
          "velocity": 0.11023622047244094
        },
        {
          "duration": 0.02325581395349019,
          "durationTicks": 2,
          "midi": 62,
          "name": "D4",
          "ticks": 3884,
          "time": 45.16279069767442,
          "velocity": 0.25196850393700787
        },
        {
          "duration": 0.19767441860465595,
          "durationTicks": 17,
          "midi": 65,
          "name": "F4",
          "ticks": 3884,
          "time": 45.16279069767442,
          "velocity": 0.2677165354330709
        },
        {
          "duration": 0.04651162790698038,
          "durationTicks": 4,
          "midi": 71,
          "name": "B4",
          "ticks": 3884,
          "time": 45.16279069767442,
          "velocity": 0.14173228346456693
        },
        {
          "duration": 0.046511627906973274,
          "durationTicks": 4,
          "midi": 74,
          "name": "D5",
          "ticks": 3886,
          "time": 45.18604651162791,
          "velocity": 0.11811023622047244
        },
        {
          "duration": 0.081395348837205,
          "durationTicks": 7,
          "midi": 62,
          "name": "D4",
          "ticks": 3893,
          "time": 45.26744186046512,
          "velocity": 0.1889763779527559
        },
        {
          "duration": 3.2093023255813975,
          "durationTicks": 276,
          "midi": 74,
          "name": "D5",
          "ticks": 3894,
          "time": 45.27906976744186,
          "velocity": 0.4409448818897638
        },
        {
          "duration": 0.2093023255813975,
          "durationTicks": 18,
          "midi": 72,
          "name": "C5",
          "ticks": 3898,
          "time": 45.325581395348834,
          "velocity": 0.14173228346456693
        },
        {
          "duration": 0.1860465116279073,
          "durationTicks": 16,
          "midi": 45,
          "name": "A2",
          "ticks": 3900,
          "time": 45.348837209302324,
          "velocity": 0.33070866141732286
        },
        {
          "duration": 0.1860465116279002,
          "durationTicks": 16,
          "midi": 62,
          "name": "D4",
          "ticks": 3901,
          "time": 45.36046511627907,
          "velocity": 0.1889763779527559
        },
        {
          "duration": 0.05813953488372192,
          "durationTicks": 5,
          "midi": 44,
          "name": "G#2",
          "ticks": 3916,
          "time": 45.53488372093023,
          "velocity": 0.2283464566929134
        },
        {
          "duration": 0.03488372093023173,
          "durationTicks": 3,
          "midi": 50,
          "name": "D3",
          "ticks": 3918,
          "time": 45.55813953488372,
          "velocity": 0.2125984251968504
        },
        {
          "duration": 0.13953488372093403,
          "durationTicks": 12,
          "midi": 72,
          "name": "C5",
          "ticks": 3922,
          "time": 45.604651162790695,
          "velocity": 0.14173228346456693
        },
        {
          "duration": 0.03488372093023173,
          "durationTicks": 3,
          "midi": 45,
          "name": "A2",
          "ticks": 3929,
          "time": 45.68604651162791,
          "velocity": 0.2125984251968504
        },
        {
          "duration": 0.03488372093023884,
          "durationTicks": 3,
          "midi": 60,
          "name": "C4",
          "ticks": 3933,
          "time": 45.73255813953488,
          "velocity": 0.07874015748031496
        },
        {
          "duration": 0.38372093023255616,
          "durationTicks": 33,
          "midi": 69,
          "name": "A4",
          "ticks": 3934,
          "time": 45.74418604651163,
          "velocity": 0.3543307086614173
        },
        {
          "duration": 0.4534883720930267,
          "durationTicks": 39,
          "midi": 65,
          "name": "F4",
          "ticks": 3935,
          "time": 45.75581395348837,
          "velocity": 0.31496062992125984
        },
        {
          "duration": 0.720930232558139,
          "durationTicks": 62,
          "midi": 77,
          "name": "F5",
          "ticks": 3935,
          "time": 45.75581395348837,
          "velocity": 0.4251968503937008
        },
        {
          "duration": 0.19767441860465595,
          "durationTicks": 17,
          "midi": 84,
          "name": "C6",
          "ticks": 3935,
          "time": 45.75581395348837,
          "velocity": 0.3464566929133858
        },
        {
          "duration": 0.24418604651162923,
          "durationTicks": 21,
          "midi": 93,
          "name": "A6",
          "ticks": 3935,
          "time": 45.75581395348837,
          "velocity": 0.2204724409448819
        },
        {
          "duration": 0.19767441860464885,
          "durationTicks": 17,
          "midi": 72,
          "name": "C5",
          "ticks": 3936,
          "time": 45.76744186046512,
          "velocity": 0.14960629921259844
        },
        {
          "duration": 0.03488372093023173,
          "durationTicks": 3,
          "midi": 50,
          "name": "D3",
          "ticks": 3937,
          "time": 45.77906976744186,
          "velocity": 0.1968503937007874
        },
        {
          "duration": 0.19767441860464885,
          "durationTicks": 17,
          "midi": 57,
          "name": "A3",
          "ticks": 3937,
          "time": 45.77906976744186,
          "velocity": 0.10236220472440945
        },
        {
          "duration": 0.04651162790698038,
          "durationTicks": 4,
          "midi": 38,
          "name": "D2",
          "ticks": 3940,
          "time": 45.81395348837209,
          "velocity": 0.12598425196850394
        },
        {
          "duration": 0.11627906976744384,
          "durationTicks": 10,
          "midi": 38,
          "name": "D2",
          "ticks": 3945,
          "time": 45.872093023255815,
          "velocity": 0.14960629921259844
        },
        {
          "duration": 0.03488372093023173,
          "durationTicks": 3,
          "midi": 48,
          "name": "C3",
          "ticks": 3957,
          "time": 46.01162790697674,
          "velocity": 0.18110236220472442
        },
        {
          "duration": 0.03488372093023173,
          "durationTicks": 3,
          "midi": 48,
          "name": "C3",
          "ticks": 3962,
          "time": 46.06976744186046,
          "velocity": 0.09448818897637795
        },
        {
          "duration": 0.04651162790698038,
          "durationTicks": 4,
          "midi": 48,
          "name": "C3",
          "ticks": 3968,
          "time": 46.13953488372093,
          "velocity": 0.07086614173228346
        },
        {
          "duration": 0.03488372093023173,
          "durationTicks": 3,
          "midi": 48,
          "name": "C3",
          "ticks": 3973,
          "time": 46.19767441860465,
          "velocity": 0.18110236220472442
        },
        {
          "duration": 0.3953488372093048,
          "durationTicks": 34,
          "midi": 69,
          "name": "A4",
          "ticks": 3973,
          "time": 46.19767441860465,
          "velocity": 0.3464566929133858
        },
        {
          "duration": 0.22093023255813904,
          "durationTicks": 19,
          "midi": 72,
          "name": "C5",
          "ticks": 3975,
          "time": 46.22093023255814,
          "velocity": 0.14173228346456693
        },
        {
          "duration": 0.4418604651162852,
          "durationTicks": 38,
          "midi": 64,
          "name": "E4",
          "ticks": 3976,
          "time": 46.23255813953488,
          "velocity": 0.3228346456692913
        },
        {
          "duration": 0.08139534883721211,
          "durationTicks": 7,
          "midi": 83,
          "name": "B5",
          "ticks": 3976,
          "time": 46.23255813953488,
          "velocity": 0.14173228346456693
        },
        {
          "duration": 0.046511627906973274,
          "durationTicks": 4,
          "midi": 50,
          "name": "D3",
          "ticks": 3977,
          "time": 46.24418604651163,
          "velocity": 0.08661417322834646
        },
        {
          "duration": 0.17441860465115866,
          "durationTicks": 15,
          "midi": 38,
          "name": "D2",
          "ticks": 3979,
          "time": 46.26744186046512,
          "velocity": 0.1732283464566929
        },
        {
          "duration": 0.04651162790698038,
          "durationTicks": 4,
          "midi": 80,
          "name": "G#5",
          "ticks": 3994,
          "time": 46.44186046511628,
          "velocity": 0.11811023622047244
        },
        {
          "duration": 0.05813953488372192,
          "durationTicks": 5,
          "midi": 57,
          "name": "A3",
          "ticks": 3996,
          "time": 46.46511627906977,
          "velocity": 0.10236220472440945
        },
        {
          "duration": 0.03488372093023173,
          "durationTicks": 3,
          "midi": 77,
          "name": "F5",
          "ticks": 4000,
          "time": 46.51162790697674,
          "velocity": 0.12598425196850394
        },
        {
          "duration": 0.13953488372092693,
          "durationTicks": 12,
          "midi": 45,
          "name": "A2",
          "ticks": 4001,
          "time": 46.52325581395349,
          "velocity": 0.1732283464566929
        },
        {
          "duration": 0.13953488372092693,
          "durationTicks": 12,
          "midi": 72,
          "name": "C5",
          "ticks": 4001,
          "time": 46.52325581395349,
          "velocity": 0.12598425196850394
        },
        {
          "duration": 0.46511627906976827,
          "durationTicks": 40,
          "midi": 60,
          "name": "C4",
          "ticks": 4013,
          "time": 46.66279069767442,
          "velocity": 0.3464566929133858
        },
        {
          "duration": 0.25581395348837077,
          "durationTicks": 22,
          "midi": 69,
          "name": "A4",
          "ticks": 4013,
          "time": 46.66279069767442,
          "velocity": 0.33858267716535434
        },
        {
          "duration": 0.24418604651162923,
          "durationTicks": 21,
          "midi": 77,
          "name": "F5",
          "ticks": 4013,
          "time": 46.66279069767442,
          "velocity": 0.4094488188976378
        },
        {
          "duration": 0.08139534883721211,
          "durationTicks": 7,
          "midi": 83,
          "name": "B5",
          "ticks": 4015,
          "time": 46.68604651162791,
          "velocity": 0.07874015748031496
        },
        {
          "duration": 0.02325581395349019,
          "durationTicks": 2,
          "midi": 44,
          "name": "G#2",
          "ticks": 4016,
          "time": 46.69767441860465,
          "velocity": 0.23622047244094488
        },
        {
          "duration": 0.05813953488372192,
          "durationTicks": 5,
          "midi": 88,
          "name": "E6",
          "ticks": 4016,
          "time": 46.69767441860465,
          "velocity": 0.14173228346456693
        },
        {
          "duration": 0.08139534883721211,
          "durationTicks": 7,
          "midi": 45,
          "name": "A2",
          "ticks": 4018,
          "time": 46.72093023255814,
          "velocity": 0.2992125984251969
        },
        {
          "duration": 0.046511627906973274,
          "durationTicks": 4,
          "midi": 88,
          "name": "E6",
          "ticks": 4023,
          "time": 46.77906976744186,
          "velocity": 0.14173228346456693
        },
        {
          "duration": 0.1046511627906952,
          "durationTicks": 9,
          "midi": 45,
          "name": "A2",
          "ticks": 4026,
          "time": 46.81395348837209,
          "velocity": 0.31496062992125984
        },
        {
          "duration": 0.03488372093023884,
          "durationTicks": 3,
          "midi": 84,
          "name": "C6",
          "ticks": 4027,
          "time": 46.825581395348834,
          "velocity": 0.08661417322834646
        },
        {
          "duration": 0.081395348837205,
          "durationTicks": 7,
          "midi": 88,
          "name": "E6",
          "ticks": 4030,
          "time": 46.86046511627907,
          "velocity": 0.08661417322834646
        },
        {
          "duration": 0.03488372093023173,
          "durationTicks": 3,
          "midi": 84,
          "name": "C6",
          "ticks": 4033,
          "time": 46.895348837209305,
          "velocity": 0.11811023622047244
        },
        {
          "duration": 0.046511627906973274,
          "durationTicks": 4,
          "midi": 95,
          "name": "B6",
          "ticks": 4033,
          "time": 46.895348837209305,
          "velocity": 0.11811023622047244
        },
        {
          "duration": 0.24418604651162923,
          "durationTicks": 21,
          "midi": 67,
          "name": "G4",
          "ticks": 4034,
          "time": 46.906976744186046,
          "velocity": 0.3700787401574803
        },
        {
          "duration": 0.30232558139535115,
          "durationTicks": 26,
          "midi": 72,
          "name": "C5",
          "ticks": 4034,
          "time": 46.906976744186046,
          "velocity": 0.4409448818897638
        },
        {
          "duration": 0.22093023255813904,
          "durationTicks": 19,
          "midi": 76,
          "name": "E5",
          "ticks": 4034,
          "time": 46.906976744186046,
          "velocity": 0.4015748031496063
        },
        {
          "duration": 0.09302325581395365,
          "durationTicks": 8,
          "midi": 91,
          "name": "G6",
          "ticks": 4034,
          "time": 46.906976744186046,
          "velocity": 0.16535433070866143
        },
        {
          "duration": 0.03488372093023173,
          "durationTicks": 3,
          "midi": 95,
          "name": "B6",
          "ticks": 4039,
          "time": 46.96511627906977,
          "velocity": 0.10236220472440945
        },
        {
          "duration": 0.06976744186046346,
          "durationTicks": 6,
          "midi": 82,
          "name": "A#5",
          "ticks": 4045,
          "time": 47.03488372093023,
          "velocity": 0.10236220472440945
        },
        {
          "duration": 0.06976744186047057,
          "durationTicks": 6,
          "midi": 48,
          "name": "C3",
          "ticks": 4046,
          "time": 47.04651162790697,
          "velocity": 0.1968503937007874
        },
        {
          "duration": 0.09302325581395365,
          "durationTicks": 8,
          "midi": 40,
          "name": "E2",
          "ticks": 4047,
          "time": 47.05813953488372,
          "velocity": 0.1732283464566929
        },
        {
          "duration": 0.7674418604651194,
          "durationTicks": 66,
          "midi": 69,
          "name": "A4",
          "ticks": 4053,
          "time": 47.127906976744185,
          "velocity": 0.33858267716535434
        },
        {
          "duration": 0.38372093023255616,
          "durationTicks": 33,
          "midi": 77,
          "name": "F5",
          "ticks": 4053,
          "time": 47.127906976744185,
          "velocity": 0.4094488188976378
        },
        {
          "duration": 0.03488372093023173,
          "durationTicks": 3,
          "midi": 49,
          "name": "C#3",
          "ticks": 4056,
          "time": 47.16279069767442,
          "velocity": 0.2283464566929134
        },
        {
          "duration": 0.24418604651162923,
          "durationTicks": 21,
          "midi": 88,
          "name": "E6",
          "ticks": 4056,
          "time": 47.16279069767442,
          "velocity": 0.08661417322834646
        },
        {
          "duration": 0.48837209302325135,
          "durationTicks": 42,
          "midi": 57,
          "name": "A3",
          "ticks": 4057,
          "time": 47.174418604651166,
          "velocity": 0.1968503937007874
        },
        {
          "duration": 0.09302325581395365,
          "durationTicks": 8,
          "midi": 62,
          "name": "D4",
          "ticks": 4058,
          "time": 47.18604651162791,
          "velocity": 0.11811023622047244
        },
        {
          "duration": 0.04651162790698038,
          "durationTicks": 4,
          "midi": 50,
          "name": "D3",
          "ticks": 4059,
          "time": 47.19767441860465,
          "velocity": 0.2047244094488189
        },
        {
          "duration": 0.16279069767441712,
          "durationTicks": 14,
          "midi": 50,
          "name": "D3",
          "ticks": 4064,
          "time": 47.25581395348837,
          "velocity": 0.2283464566929134
        },
        {
          "duration": 0.17441860465116577,
          "durationTicks": 15,
          "midi": 72,
          "name": "C5",
          "ticks": 4067,
          "time": 47.2906976744186,
          "velocity": 0.16535433070866143
        },
        {
          "duration": 0.03488372093023173,
          "durationTicks": 3,
          "midi": 50,
          "name": "D3",
          "ticks": 4079,
          "time": 47.43023255813954,
          "velocity": 0.25196850393700787
        },
        {
          "duration": 0.03488372093023173,
          "durationTicks": 3,
          "midi": 45,
          "name": "A2",
          "ticks": 4081,
          "time": 47.45348837209303,
          "velocity": 0.23622047244094488
        },
        {
          "duration": 0.06976744186046346,
          "durationTicks": 6,
          "midi": 72,
          "name": "C5",
          "ticks": 4085,
          "time": 47.5,
          "velocity": 0.10236220472440945
        },
        {
          "duration": 0.03488372093023173,
          "durationTicks": 3,
          "midi": 45,
          "name": "A2",
          "ticks": 4090,
          "time": 47.55813953488372,
          "velocity": 0.1968503937007874
        },
        {
          "duration": 0.48837209302325846,
          "durationTicks": 42,
          "midi": 65,
          "name": "F4",
          "ticks": 4091,
          "time": 47.56976744186046,
          "velocity": 0.33858267716535434
        },
        {
          "duration": 0.32558139534884134,
          "durationTicks": 28,
          "midi": 79,
          "name": "G5",
          "ticks": 4091,
          "time": 47.56976744186046,
          "velocity": 0.3858267716535433
        },
        {
          "duration": 0.24418604651162212,
          "durationTicks": 21,
          "midi": 77,
          "name": "F5",
          "ticks": 4092,
          "time": 47.58139534883721,
          "velocity": 0.36220472440944884
        },
        {
          "duration": 0.2093023255813975,
          "durationTicks": 18,
          "midi": 84,
          "name": "C6",
          "ticks": 4093,
          "time": 47.593023255813954,
          "velocity": 0.11023622047244094
        },
        {
          "duration": 0.05813953488372192,
          "durationTicks": 5,
          "midi": 72,
          "name": "C5",
          "ticks": 4095,
          "time": 47.616279069767444,
          "velocity": 0.13385826771653545
        },
        {
          "duration": 0.05813953488372192,
          "durationTicks": 5,
          "midi": 50,
          "name": "D3",
          "ticks": 4102,
          "time": 47.69767441860465,
          "velocity": 0.07874015748031496
        },
        {
          "duration": 0.03488372093023173,
          "durationTicks": 3,
          "midi": 47,
          "name": "B2",
          "ticks": 4112,
          "time": 47.81395348837209,
          "velocity": 0.28346456692913385
        },
        {
          "duration": 0.02325581395349019,
          "durationTicks": 2,
          "midi": 48,
          "name": "C3",
          "ticks": 4115,
          "time": 47.848837209302324,
          "velocity": 0.25984251968503935
        },
        {
          "duration": 0.04651162790698038,
          "durationTicks": 4,
          "midi": 48,
          "name": "C3",
          "ticks": 4118,
          "time": 47.883720930232556,
          "velocity": 0.23622047244094488
        },
        {
          "duration": 0.04651162790698038,
          "durationTicks": 4,
          "midi": 72,
          "name": "C5",
          "ticks": 4118,
          "time": 47.883720930232556,
          "velocity": 0.11811023622047244
        },
        {
          "duration": 0.04651162790698038,
          "durationTicks": 4,
          "midi": 48,
          "name": "C3",
          "ticks": 4123,
          "time": 47.94186046511628,
          "velocity": 0.1968503937007874
        },
        {
          "duration": 0.06976744186046346,
          "durationTicks": 6,
          "midi": 48,
          "name": "C3",
          "ticks": 4128,
          "time": 48,
          "velocity": 0.2755905511811024
        },
        {
          "duration": 0.36046511627906597,
          "durationTicks": 31,
          "midi": 69,
          "name": "A4",
          "ticks": 4130,
          "time": 48.02325581395349,
          "velocity": 0.3464566929133858
        },
        {
          "duration": 0.7093023255813904,
          "durationTicks": 61,
          "midi": 77,
          "name": "F5",
          "ticks": 4130,
          "time": 48.02325581395349,
          "velocity": 0.4251968503937008
        },
        {
          "duration": 0.03488372093023173,
          "durationTicks": 3,
          "midi": 84,
          "name": "C6",
          "ticks": 4131,
          "time": 48.03488372093023,
          "velocity": 0.07086614173228346
        },
        {
          "duration": 0.09302325581395365,
          "durationTicks": 8,
          "midi": 83,
          "name": "B5",
          "ticks": 4132,
          "time": 48.04651162790697,
          "velocity": 0.13385826771653545
        },
        {
          "duration": 0.05813953488372192,
          "durationTicks": 5,
          "midi": 57,
          "name": "A3",
          "ticks": 4133,
          "time": 48.05813953488372,
          "velocity": 0.09448818897637795
        },
        {
          "duration": 0.4186046511627879,
          "durationTicks": 36,
          "midi": 64,
          "name": "E4",
          "ticks": 4133,
          "time": 48.05813953488372,
          "velocity": 0.31496062992125984
        },
        {
          "duration": 0.03488372093023173,
          "durationTicks": 3,
          "midi": 88,
          "name": "E6",
          "ticks": 4134,
          "time": 48.06976744186046,
          "velocity": 0.08661417322834646
        },
        {
          "duration": 0.17441860465115866,
          "durationTicks": 15,
          "midi": 72,
          "name": "C5",
          "ticks": 4135,
          "time": 48.08139534883721,
          "velocity": 0.16535433070866143
        },
        {
          "duration": 0.16279069767441712,
          "durationTicks": 14,
          "midi": 38,
          "name": "D2",
          "ticks": 4136,
          "time": 48.093023255813954,
          "velocity": 0.15748031496062992
        },
        {
          "duration": 0.05813953488372192,
          "durationTicks": 5,
          "midi": 57,
          "name": "A3",
          "ticks": 4142,
          "time": 48.16279069767442,
          "velocity": 0.07874015748031496
        },
        {
          "duration": 0.046511627906973274,
          "durationTicks": 4,
          "midi": 80,
          "name": "G#5",
          "ticks": 4151,
          "time": 48.26744186046512,
          "velocity": 0.14173228346456693
        },
        {
          "duration": 0.09302325581395365,
          "durationTicks": 8,
          "midi": 57,
          "name": "A3",
          "ticks": 4152,
          "time": 48.27906976744186,
          "velocity": 0.10236220472440945
        },
        {
          "duration": 0.02325581395349019,
          "durationTicks": 2,
          "midi": 38,
          "name": "D2",
          "ticks": 4160,
          "time": 48.372093023255815,
          "velocity": 0.25984251968503935
        },
        {
          "duration": 0.2674418604651194,
          "durationTicks": 23,
          "midi": 72,
          "name": "C5",
          "ticks": 4161,
          "time": 48.383720930232556,
          "velocity": 0.2992125984251969
        },
        {
          "duration": 0.03488372093023173,
          "durationTicks": 3,
          "midi": 38,
          "name": "D2",
          "ticks": 4163,
          "time": 48.406976744186046,
          "velocity": 0.28346456692913385
        },
        {
          "duration": 0.023255813953483084,
          "durationTicks": 2,
          "midi": 38,
          "name": "D2",
          "ticks": 4167,
          "time": 48.45348837209303,
          "velocity": 0.2440944881889764
        },
        {
          "duration": 0.2906976744186025,
          "durationTicks": 25,
          "midi": 60,
          "name": "C4",
          "ticks": 4170,
          "time": 48.48837209302326,
          "velocity": 0.3700787401574803
        },
        {
          "duration": 0.24418604651162212,
          "durationTicks": 21,
          "midi": 69,
          "name": "A4",
          "ticks": 4170,
          "time": 48.48837209302326,
          "velocity": 0.3228346456692913
        },
        {
          "duration": 1.3488372093023244,
          "durationTicks": 116,
          "midi": 74,
          "name": "D5",
          "ticks": 4171,
          "time": 48.5,
          "velocity": 0.4330708661417323
        },
        {
          "duration": 0.09302325581395365,
          "durationTicks": 8,
          "midi": 88,
          "name": "E6",
          "ticks": 4171,
          "time": 48.5,
          "velocity": 0.11023622047244094
        },
        {
          "duration": 0.06976744186047057,
          "durationTicks": 6,
          "midi": 83,
          "name": "B5",
          "ticks": 4172,
          "time": 48.51162790697674,
          "velocity": 0.07086614173228346
        },
        {
          "duration": 0.2093023255813904,
          "durationTicks": 18,
          "midi": 45,
          "name": "A2",
          "ticks": 4173,
          "time": 48.52325581395349,
          "velocity": 0.30708661417322836
        },
        {
          "duration": 0.046511627906973274,
          "durationTicks": 4,
          "midi": 88,
          "name": "E6",
          "ticks": 4181,
          "time": 48.616279069767444,
          "velocity": 0.12598425196850394
        },
        {
          "duration": 0.04651162790698038,
          "durationTicks": 4,
          "midi": 88,
          "name": "E6",
          "ticks": 4188,
          "time": 48.69767441860465,
          "velocity": 0.1732283464566929
        },
        {
          "duration": 0.2325581395348877,
          "durationTicks": 20,
          "midi": 76,
          "name": "E5",
          "ticks": 4190,
          "time": 48.72093023255814,
          "velocity": 0.4094488188976378
        },
        {
          "duration": 0.1046511627906952,
          "durationTicks": 9,
          "midi": 91,
          "name": "G6",
          "ticks": 4190,
          "time": 48.72093023255814,
          "velocity": 0.1732283464566929
        },
        {
          "duration": 0.02325581395349019,
          "durationTicks": 2,
          "midi": 48,
          "name": "C3",
          "ticks": 4191,
          "time": 48.73255813953488,
          "velocity": 0.2283464566929134
        },
        {
          "duration": 0.22093023255814614,
          "durationTicks": 19,
          "midi": 67,
          "name": "G4",
          "ticks": 4191,
          "time": 48.73255813953488,
          "velocity": 0.4251968503937008
        },
        {
          "duration": 0.09302325581395365,
          "durationTicks": 8,
          "midi": 82,
          "name": "A#5",
          "ticks": 4191,
          "time": 48.73255813953488,
          "velocity": 0.15748031496062992
        },
        {
          "duration": 0.05813953488372192,
          "durationTicks": 5,
          "midi": 64,
          "name": "E4",
          "ticks": 4193,
          "time": 48.75581395348837,
          "velocity": 0.09448818897637795
        },
        {
          "duration": 0.15116279069767558,
          "durationTicks": 13,
          "midi": 60,
          "name": "C4",
          "ticks": 4198,
          "time": 48.81395348837209,
          "velocity": 0.2125984251968504
        },
        {
          "duration": 0.06976744186046346,
          "durationTicks": 6,
          "midi": 71,
          "name": "B4",
          "ticks": 4198,
          "time": 48.81395348837209,
          "velocity": 0.18110236220472442
        },
        {
          "duration": 0.1279069767441925,
          "durationTicks": 11,
          "midi": 48,
          "name": "C3",
          "ticks": 4199,
          "time": 48.825581395348834,
          "velocity": 0.2125984251968504
        },
        {
          "duration": 0.058139534883714816,
          "durationTicks": 5,
          "midi": 40,
          "name": "E2",
          "ticks": 4202,
          "time": 48.86046511627907,
          "velocity": 0.14173228346456693
        },
        {
          "duration": 0.06976744186047057,
          "durationTicks": 6,
          "midi": 82,
          "name": "A#5",
          "ticks": 4204,
          "time": 48.883720930232556,
          "velocity": 0.09448818897637795
        },
        {
          "duration": 0.25581395348837077,
          "durationTicks": 22,
          "midi": 81,
          "name": "A5",
          "ticks": 4209,
          "time": 48.94186046511628,
          "velocity": 0.23622047244094488
        },
        {
          "duration": 0.08139534883721211,
          "durationTicks": 7,
          "midi": 89,
          "name": "F6",
          "ticks": 4209,
          "time": 48.94186046511628,
          "velocity": 0.15748031496062992
        },
        {
          "duration": 0.4186046511627879,
          "durationTicks": 36,
          "midi": 69,
          "name": "A4",
          "ticks": 4210,
          "time": 48.95348837209303,
          "velocity": 0.3700787401574803
        },
        {
          "duration": 0.8953488372092977,
          "durationTicks": 77,
          "midi": 77,
          "name": "F5",
          "ticks": 4210,
          "time": 48.95348837209303,
          "velocity": 0.4094488188976378
        },
        {
          "duration": 0.2674418604651123,
          "durationTicks": 23,
          "midi": 88,
          "name": "E6",
          "ticks": 4210,
          "time": 48.95348837209303,
          "velocity": 0.15748031496062992
        },
        {
          "duration": 0.2906976744186025,
          "durationTicks": 25,
          "midi": 72,
          "name": "C5",
          "ticks": 4211,
          "time": 48.96511627906977,
          "velocity": 0.2125984251968504
        },
        {
          "duration": 0.23255813953488058,
          "durationTicks": 20,
          "midi": 58,
          "name": "A#3",
          "ticks": 4213,
          "time": 48.98837209302326,
          "velocity": 0.1889763779527559
        },
        {
          "duration": 0.046511627906973274,
          "durationTicks": 4,
          "midi": 62,
          "name": "D4",
          "ticks": 4214,
          "time": 49,
          "velocity": 0.07874015748031496
        },
        {
          "duration": 0.1279069767441925,
          "durationTicks": 11,
          "midi": 50,
          "name": "D3",
          "ticks": 4218,
          "time": 49.04651162790697,
          "velocity": 0.1968503937007874
        },
        {
          "duration": 0.06976744186046346,
          "durationTicks": 6,
          "midi": 82,
          "name": "A#5",
          "ticks": 4219,
          "time": 49.05813953488372,
          "velocity": 0.07086614173228346
        },
        {
          "duration": 0.09302325581395365,
          "durationTicks": 8,
          "midi": 43,
          "name": "G2",
          "ticks": 4231,
          "time": 49.19767441860465,
          "velocity": 0.2125984251968504
        },
        {
          "duration": 0.40697674418604635,
          "durationTicks": 35,
          "midi": 82,
          "name": "A#5",
          "ticks": 4233,
          "time": 49.22093023255814,
          "velocity": 0.4015748031496063
        },
        {
          "duration": 0.15116279069767558,
          "durationTicks": 13,
          "midi": 58,
          "name": "A#3",
          "ticks": 4234,
          "time": 49.23255813953488,
          "velocity": 0.2204724409448819
        },
        {
          "duration": 0.17441860465115866,
          "durationTicks": 15,
          "midi": 83,
          "name": "B5",
          "ticks": 4235,
          "time": 49.24418604651163,
          "velocity": 0.07874015748031496
        },
        {
          "duration": 0.09302325581395365,
          "durationTicks": 8,
          "midi": 43,
          "name": "G2",
          "ticks": 4241,
          "time": 49.31395348837209,
          "velocity": 0.14960629921259844
        },
        {
          "duration": 0.4418604651162781,
          "durationTicks": 38,
          "midi": 70,
          "name": "A#4",
          "ticks": 4247,
          "time": 49.383720930232556,
          "velocity": 0.4330708661417323
        },
        {
          "duration": 0.03488372093023173,
          "durationTicks": 3,
          "midi": 65,
          "name": "F4",
          "ticks": 4248,
          "time": 49.395348837209305,
          "velocity": 0.3228346456692913
        },
        {
          "duration": 0.05813953488372192,
          "durationTicks": 5,
          "midi": 58,
          "name": "A#3",
          "ticks": 4249,
          "time": 49.406976744186046,
          "velocity": 0.2204724409448819
        },
        {
          "duration": 0.2674418604651194,
          "durationTicks": 23,
          "midi": 79,
          "name": "G5",
          "ticks": 4249,
          "time": 49.406976744186046,
          "velocity": 0.16535433070866143
        },
        {
          "duration": 0.22093023255813904,
          "durationTicks": 19,
          "midi": 84,
          "name": "C6",
          "ticks": 4249,
          "time": 49.406976744186046,
          "velocity": 0.11811023622047244
        },
        {
          "duration": 0.06976744186046346,
          "durationTicks": 6,
          "midi": 93,
          "name": "A6",
          "ticks": 4249,
          "time": 49.406976744186046,
          "velocity": 0.08661417322834646
        },
        {
          "duration": 0.17441860465116577,
          "durationTicks": 15,
          "midi": 67,
          "name": "G4",
          "ticks": 4250,
          "time": 49.41860465116279,
          "velocity": 0.3700787401574803
        },
        {
          "duration": 0.17441860465115866,
          "durationTicks": 15,
          "midi": 55,
          "name": "G3",
          "ticks": 4254,
          "time": 49.46511627906977,
          "velocity": 0.1732283464566929
        },
        {
          "duration": 0.06976744186046346,
          "durationTicks": 6,
          "midi": 43,
          "name": "G2",
          "ticks": 4255,
          "time": 49.47674418604651,
          "velocity": 0.11023622047244094
        },
        {
          "duration": 0.13953488372092693,
          "durationTicks": 12,
          "midi": 65,
          "name": "F4",
          "ticks": 4264,
          "time": 49.58139534883721,
          "velocity": 0.25984251968503935
        },
        {
          "duration": 0.03488372093023173,
          "durationTicks": 3,
          "midi": 67,
          "name": "G4",
          "ticks": 4268,
          "time": 49.627906976744185,
          "velocity": 0.1732283464566929
        },
        {
          "duration": 0.03488372093023173,
          "durationTicks": 3,
          "midi": 81,
          "name": "A5",
          "ticks": 4268,
          "time": 49.627906976744185,
          "velocity": 0.07086614173228346
        },
        {
          "duration": 0.03488372093023173,
          "durationTicks": 3,
          "midi": 83,
          "name": "B5",
          "ticks": 4268,
          "time": 49.627906976744185,
          "velocity": 0.12598425196850394
        },
        {
          "duration": 0.08139534883721211,
          "durationTicks": 7,
          "midi": 72,
          "name": "C5",
          "ticks": 4269,
          "time": 49.63953488372093,
          "velocity": 0.1732283464566929
        },
        {
          "duration": 0.03488372093023173,
          "durationTicks": 3,
          "midi": 53,
          "name": "F3",
          "ticks": 4271,
          "time": 49.66279069767442,
          "velocity": 0.12598425196850394
        },
        {
          "duration": 0.03488372093023173,
          "durationTicks": 3,
          "midi": 40,
          "name": "E2",
          "ticks": 4272,
          "time": 49.674418604651166,
          "velocity": 0.10236220472440945
        },
        {
          "duration": 0.046511627906973274,
          "durationTicks": 4,
          "midi": 83,
          "name": "B5",
          "ticks": 4272,
          "time": 49.674418604651166,
          "velocity": 0.14173228346456693
        },
        {
          "duration": 0.13953488372092693,
          "durationTicks": 12,
          "midi": 53,
          "name": "F3",
          "ticks": 4275,
          "time": 49.7093023255814,
          "velocity": 0.16535433070866143
        },
        {
          "duration": 0.03488372093023884,
          "durationTicks": 3,
          "midi": 83,
          "name": "B5",
          "ticks": 4277,
          "time": 49.73255813953488,
          "velocity": 0.10236220472440945
        },
        {
          "duration": 0.1046511627906952,
          "durationTicks": 9,
          "midi": 41,
          "name": "F2",
          "ticks": 4278,
          "time": 49.74418604651163,
          "velocity": 0.11023622047244094
        },
        {
          "duration": 0.02325581395349019,
          "durationTicks": 2,
          "midi": 66,
          "name": "F#4",
          "ticks": 4287,
          "time": 49.848837209302324,
          "velocity": 0.29133858267716534
        },
        {
          "duration": 0.3953488372093048,
          "durationTicks": 34,
          "midi": 70,
          "name": "A#4",
          "ticks": 4287,
          "time": 49.848837209302324,
          "velocity": 0.4330708661417323
        },
        {
          "duration": 0.046511627906973274,
          "durationTicks": 4,
          "midi": 44,
          "name": "G#2",
          "ticks": 4288,
          "time": 49.86046511627907,
          "velocity": 0.2204724409448819
        },
        {
          "duration": 0.03488372093023173,
          "durationTicks": 3,
          "midi": 58,
          "name": "A#3",
          "ticks": 4288,
          "time": 49.86046511627907,
          "velocity": 0.1732283464566929
        },
        {
          "duration": 2.0465116279069733,
          "durationTicks": 176,
          "midi": 74,
          "name": "D5",
          "ticks": 4288,
          "time": 49.86046511627907,
          "velocity": 0.4409448818897638
        },
        {
          "duration": 0.25581395348837077,
          "durationTicks": 22,
          "midi": 77,
          "name": "F5",
          "ticks": 4288,
          "time": 49.86046511627907,
          "velocity": 0.16535433070866143
        },
        {
          "duration": 0.2674418604651123,
          "durationTicks": 23,
          "midi": 79,
          "name": "G5",
          "ticks": 4288,
          "time": 49.86046511627907,
          "velocity": 0.15748031496062992
        },
        {
          "duration": 0.27906976744186096,
          "durationTicks": 24,
          "midi": 67,
          "name": "G4",
          "ticks": 4289,
          "time": 49.872093023255815,
          "velocity": 0.3858267716535433
        },
        {
          "duration": 0.19767441860464885,
          "durationTicks": 17,
          "midi": 84,
          "name": "C6",
          "ticks": 4289,
          "time": 49.872093023255815,
          "velocity": 0.10236220472440945
        },
        {
          "duration": 0.03488372093023173,
          "durationTicks": 3,
          "midi": 42,
          "name": "F#2",
          "ticks": 4292,
          "time": 49.906976744186046,
          "velocity": 0.25196850393700787
        },
        {
          "duration": 0.2093023255813975,
          "durationTicks": 18,
          "midi": 58,
          "name": "A#3",
          "ticks": 4292,
          "time": 49.906976744186046,
          "velocity": 0.1968503937007874
        },
        {
          "duration": 0.05813953488372192,
          "durationTicks": 5,
          "midi": 43,
          "name": "G2",
          "ticks": 4295,
          "time": 49.94186046511628,
          "velocity": 0.13385826771653545
        },
        {
          "duration": 0.06976744186047057,
          "durationTicks": 6,
          "midi": 43,
          "name": "G2",
          "ticks": 4301,
          "time": 50.01162790697674,
          "velocity": 0.12598425196850394
        },
        {
          "duration": 0.05813953488372192,
          "durationTicks": 5,
          "midi": 65,
          "name": "F4",
          "ticks": 4305,
          "time": 50.05813953488372,
          "velocity": 0.2440944881889764
        },
        {
          "duration": 0.03488372093023173,
          "durationTicks": 3,
          "midi": 42,
          "name": "F#2",
          "ticks": 4307,
          "time": 50.08139534883721,
          "velocity": 0.1889763779527559
        },
        {
          "duration": 0.06976744186046346,
          "durationTicks": 6,
          "midi": 43,
          "name": "G2",
          "ticks": 4310,
          "time": 50.116279069767444,
          "velocity": 0.2125984251968504
        },
        {
          "duration": 0.03488372093023173,
          "durationTicks": 3,
          "midi": 83,
          "name": "B5",
          "ticks": 4310,
          "time": 50.116279069767444,
          "velocity": 0.11023622047244094
        },
        {
          "duration": 0.03488372093023173,
          "durationTicks": 3,
          "midi": 50,
          "name": "D3",
          "ticks": 4311,
          "time": 50.127906976744185,
          "velocity": 0.11811023622047244
        },
        {
          "duration": 0.06976744186047057,
          "durationTicks": 6,
          "midi": 58,
          "name": "A#3",
          "ticks": 4312,
          "time": 50.13953488372093,
          "velocity": 0.2283464566929134
        },
        {
          "duration": 0.12790697674418539,
          "durationTicks": 11,
          "midi": 50,
          "name": "D3",
          "ticks": 4315,
          "time": 50.174418604651166,
          "velocity": 0.10236220472440945
        },
        {
          "duration": 0.081395348837205,
          "durationTicks": 7,
          "midi": 65,
          "name": "F4",
          "ticks": 4315,
          "time": 50.174418604651166,
          "velocity": 0.10236220472440945
        },
        {
          "duration": 0.046511627906973274,
          "durationTicks": 4,
          "midi": 83,
          "name": "B5",
          "ticks": 4315,
          "time": 50.174418604651166,
          "velocity": 0.11023622047244094
        },
        {
          "duration": 0.09302325581395365,
          "durationTicks": 8,
          "midi": 43,
          "name": "G2",
          "ticks": 4318,
          "time": 50.2093023255814,
          "velocity": 0.13385826771653545
        },
        {
          "duration": 0.1046511627907023,
          "durationTicks": 9,
          "midi": 58,
          "name": "A#3",
          "ticks": 4320,
          "time": 50.23255813953488,
          "velocity": 0.2047244094488189
        },
        {
          "duration": 0.06976744186047057,
          "durationTicks": 6,
          "midi": 85,
          "name": "C#6",
          "ticks": 4320,
          "time": 50.23255813953488,
          "velocity": 0.07086614173228346
        },
        {
          "duration": 0.03488372093023173,
          "durationTicks": 3,
          "midi": 83,
          "name": "B5",
          "ticks": 4322,
          "time": 50.25581395348837,
          "velocity": 0.08661417322834646
        },
        {
          "duration": 0.24418604651162212,
          "durationTicks": 21,
          "midi": 70,
          "name": "A#4",
          "ticks": 4326,
          "time": 50.30232558139535,
          "velocity": 0.4094488188976378
        },
        {
          "duration": 0.02325581395349019,
          "durationTicks": 2,
          "midi": 66,
          "name": "F#4",
          "ticks": 4327,
          "time": 50.31395348837209,
          "velocity": 0.2755905511811024
        },
        {
          "duration": 1.639534883720934,
          "durationTicks": 141,
          "midi": 79,
          "name": "G5",
          "ticks": 4327,
          "time": 50.31395348837209,
          "velocity": 0.4330708661417323
        },
        {
          "duration": 0.17441860465116577,
          "durationTicks": 15,
          "midi": 84,
          "name": "C6",
          "ticks": 4327,
          "time": 50.31395348837209,
          "velocity": 0.14960629921259844
        },
        {
          "duration": 0.1046511627906952,
          "durationTicks": 9,
          "midi": 93,
          "name": "A6",
          "ticks": 4327,
          "time": 50.31395348837209,
          "velocity": 0.14960629921259844
        },
        {
          "duration": 0.2093023255813975,
          "durationTicks": 18,
          "midi": 77,
          "name": "F5",
          "ticks": 4328,
          "time": 50.325581395348834,
          "velocity": 0.2283464566929134
        },
        {
          "duration": 0.2558139534883779,
          "durationTicks": 22,
          "midi": 83,
          "name": "B5",
          "ticks": 4328,
          "time": 50.325581395348834,
          "velocity": 0.1968503937007874
        },
        {
          "duration": 0.05813953488372192,
          "durationTicks": 5,
          "midi": 67,
          "name": "G4",
          "ticks": 4329,
          "time": 50.33720930232558,
          "velocity": 0.30708661417322836
        },
        {
          "duration": 0.04651162790698038,
          "durationTicks": 4,
          "midi": 50,
          "name": "D3",
          "ticks": 4330,
          "time": 50.348837209302324,
          "velocity": 0.11023622047244094
        },
        {
          "duration": 0.17441860465116577,
          "durationTicks": 15,
          "midi": 65,
          "name": "F4",
          "ticks": 4333,
          "time": 50.383720930232556,
          "velocity": 0.2677165354330709
        },
        {
          "duration": 0.03488372093023173,
          "durationTicks": 3,
          "midi": 38,
          "name": "D2",
          "ticks": 4334,
          "time": 50.395348837209305,
          "velocity": 0.1732283464566929
        },
        {
          "duration": 0.1046511627906952,
          "durationTicks": 9,
          "midi": 38,
          "name": "D2",
          "ticks": 4338,
          "time": 50.44186046511628,
          "velocity": 0.15748031496062992
        },
        {
          "duration": 0.25581395348837077,
          "durationTicks": 22,
          "midi": 76,
          "name": "E5",
          "ticks": 4346,
          "time": 50.53488372093023,
          "velocity": 0.4094488188976378
        },
        {
          "duration": 0.32558139534884134,
          "durationTicks": 28,
          "midi": 81,
          "name": "A5",
          "ticks": 4346,
          "time": 50.53488372093023,
          "velocity": 0.2440944881889764
        },
        {
          "duration": 0.03488372093023173,
          "durationTicks": 3,
          "midi": 84,
          "name": "C6",
          "ticks": 4346,
          "time": 50.53488372093023,
          "velocity": 0.10236220472440945
        },
        {
          "duration": 0.2325581395348877,
          "durationTicks": 20,
          "midi": 69,
          "name": "A4",
          "ticks": 4347,
          "time": 50.54651162790697,
          "velocity": 0.36220472440944884
        },
        {
          "duration": 0.22093023255814614,
          "durationTicks": 19,
          "midi": 72,
          "name": "C5",
          "ticks": 4347,
          "time": 50.54651162790697,
          "velocity": 0.4094488188976378
        },
        {
          "duration": 0.2093023255813975,
          "durationTicks": 18,
          "midi": 48,
          "name": "C3",
          "ticks": 4348,
          "time": 50.55813953488372,
          "velocity": 0.2440944881889764
        },
        {
          "duration": 0.17441860465115866,
          "durationTicks": 15,
          "midi": 67,
          "name": "G4",
          "ticks": 4348,
          "time": 50.55813953488372,
          "velocity": 0.3464566929133858
        },
        {
          "duration": 0.03488372093023173,
          "durationTicks": 3,
          "midi": 85,
          "name": "C#6",
          "ticks": 4349,
          "time": 50.56976744186046,
          "velocity": 0.07874015748031496
        },
        {
          "duration": 0.03488372093023173,
          "durationTicks": 3,
          "midi": 83,
          "name": "B5",
          "ticks": 4352,
          "time": 50.604651162790695,
          "velocity": 0.1732283464566929
        },
        {
          "duration": 0.03488372093023173,
          "durationTicks": 3,
          "midi": 53,
          "name": "F3",
          "ticks": 4354,
          "time": 50.627906976744185,
          "velocity": 0.1732283464566929
        },
        {
          "duration": 0.1279069767441925,
          "durationTicks": 11,
          "midi": 57,
          "name": "A3",
          "ticks": 4355,
          "time": 50.63953488372093,
          "velocity": 0.16535433070866143
        },
        {
          "duration": 0.03488372093023173,
          "durationTicks": 3,
          "midi": 83,
          "name": "B5",
          "ticks": 4357,
          "time": 50.66279069767442,
          "velocity": 0.11811023622047244
        },
        {
          "duration": 0.5116279069767415,
          "durationTicks": 44,
          "midi": 70,
          "name": "A#4",
          "ticks": 4366,
          "time": 50.76744186046512,
          "velocity": 0.47244094488188976
        },
        {
          "duration": 0.058139534883714816,
          "durationTicks": 5,
          "midi": 95,
          "name": "B6",
          "ticks": 4366,
          "time": 50.76744186046512,
          "velocity": 0.10236220472440945
        },
        {
          "duration": 0.1860465116279073,
          "durationTicks": 16,
          "midi": 67,
          "name": "G4",
          "ticks": 4367,
          "time": 50.77906976744186,
          "velocity": 0.3858267716535433
        },
        {
          "duration": 0.36046511627906597,
          "durationTicks": 31,
          "midi": 77,
          "name": "F5",
          "ticks": 4367,
          "time": 50.77906976744186,
          "velocity": 0.2440944881889764
        },
        {
          "duration": 0.25581395348837077,
          "durationTicks": 22,
          "midi": 84,
          "name": "C6",
          "ticks": 4367,
          "time": 50.77906976744186,
          "velocity": 0.12598425196850394
        },
        {
          "duration": 0.03488372093023173,
          "durationTicks": 3,
          "midi": 50,
          "name": "D3",
          "ticks": 4369,
          "time": 50.80232558139535,
          "velocity": 0.2204724409448819
        },
        {
          "duration": 0.1046511627906952,
          "durationTicks": 9,
          "midi": 58,
          "name": "A#3",
          "ticks": 4370,
          "time": 50.81395348837209,
          "velocity": 0.1889763779527559
        },
        {
          "duration": 0.1860465116279073,
          "durationTicks": 16,
          "midi": 88,
          "name": "E6",
          "ticks": 4372,
          "time": 50.83720930232558,
          "velocity": 0.11023622047244094
        },
        {
          "duration": 0.13953488372093403,
          "durationTicks": 12,
          "midi": 50,
          "name": "D3",
          "ticks": 4373,
          "time": 50.848837209302324,
          "velocity": 0.23622047244094488
        },
        {
          "duration": 0.11627906976744384,
          "durationTicks": 10,
          "midi": 65,
          "name": "F4",
          "ticks": 4373,
          "time": 50.848837209302324,
          "velocity": 0.30708661417322836
        },
        {
          "duration": 0.30232558139534405,
          "durationTicks": 26,
          "midi": 58,
          "name": "A#3",
          "ticks": 4380,
          "time": 50.93023255813954,
          "velocity": 0.23622047244094488
        },
        {
          "duration": 0.03488372093023173,
          "durationTicks": 3,
          "midi": 65,
          "name": "F4",
          "ticks": 4384,
          "time": 50.97674418604651,
          "velocity": 0.2755905511811024
        },
        {
          "duration": 0.38372093023256326,
          "durationTicks": 33,
          "midi": 67,
          "name": "G4",
          "ticks": 4384,
          "time": 50.97674418604651,
          "velocity": 0.4015748031496063
        },
        {
          "duration": 0.02325581395349019,
          "durationTicks": 2,
          "midi": 45,
          "name": "A2",
          "ticks": 4387,
          "time": 51.01162790697674,
          "velocity": 0.33858267716535434
        },
        {
          "duration": 0.04651162790698038,
          "durationTicks": 4,
          "midi": 94,
          "name": "A#6",
          "ticks": 4387,
          "time": 51.01162790697674,
          "velocity": 0.11023622047244094
        },
        {
          "duration": 0.03488372093023173,
          "durationTicks": 3,
          "midi": 95,
          "name": "B6",
          "ticks": 4387,
          "time": 51.01162790697674,
          "velocity": 0.07874015748031496
        },
        {
          "duration": 0.02325581395349019,
          "durationTicks": 2,
          "midi": 46,
          "name": "A#2",
          "ticks": 4389,
          "time": 51.03488372093023,
          "velocity": 0.30708661417322836
        },
        {
          "duration": 0.11627906976744384,
          "durationTicks": 10,
          "midi": 46,
          "name": "A#2",
          "ticks": 4397,
          "time": 51.127906976744185,
          "velocity": 0.2283464566929134
        },
        {
          "duration": 0.27906976744186096,
          "durationTicks": 24,
          "midi": 60,
          "name": "C4",
          "ticks": 4405,
          "time": 51.22093023255814,
          "velocity": 0.36220472440944884
        },
        {
          "duration": 0.30232558139534405,
          "durationTicks": 26,
          "midi": 67,
          "name": "G4",
          "ticks": 4425,
          "time": 51.45348837209303,
          "velocity": 0.3779527559055118
        },
        {
          "duration": 0.3139534883720927,
          "durationTicks": 27,
          "midi": 70,
          "name": "A#4",
          "ticks": 4425,
          "time": 51.45348837209303,
          "velocity": 0.3937007874015748
        },
        {
          "duration": 0.081395348837205,
          "durationTicks": 7,
          "midi": 93,
          "name": "A6",
          "ticks": 4426,
          "time": 51.46511627906977,
          "velocity": 0.07086614173228346
        },
        {
          "duration": 0.09302325581395365,
          "durationTicks": 8,
          "midi": 58,
          "name": "A#3",
          "ticks": 4430,
          "time": 51.51162790697674,
          "velocity": 0.2283464566929134
        },
        {
          "duration": 0.06976744186046346,
          "durationTicks": 6,
          "midi": 46,
          "name": "A#2",
          "ticks": 4439,
          "time": 51.616279069767444,
          "velocity": 0.13385826771653545
        },
        {
          "duration": 0.04651162790698038,
          "durationTicks": 4,
          "midi": 72,
          "name": "C5",
          "ticks": 4441,
          "time": 51.63953488372093,
          "velocity": 0.11811023622047244
        },
        {
          "duration": 0.24418604651162923,
          "durationTicks": 21,
          "midi": 62,
          "name": "D4",
          "ticks": 4443,
          "time": 51.66279069767442,
          "velocity": 0.30708661417322836
        },
        {
          "duration": 0.05813953488372192,
          "durationTicks": 5,
          "midi": 58,
          "name": "A#3",
          "ticks": 4445,
          "time": 51.68604651162791,
          "velocity": 0.13385826771653545
        },
        {
          "duration": 0.081395348837205,
          "durationTicks": 7,
          "midi": 65,
          "name": "F4",
          "ticks": 4463,
          "time": 51.895348837209305,
          "velocity": 0.3543307086614173
        },
        {
          "duration": 0.38372093023255616,
          "durationTicks": 33,
          "midi": 69,
          "name": "A4",
          "ticks": 4463,
          "time": 51.895348837209305,
          "velocity": 0.33858267716535434
        },
        {
          "duration": 0.25581395348837077,
          "durationTicks": 22,
          "midi": 73,
          "name": "C#5",
          "ticks": 4464,
          "time": 51.906976744186046,
          "velocity": 0.4566929133858268
        },
        {
          "duration": 0.06976744186047057,
          "durationTicks": 6,
          "midi": 45,
          "name": "A2",
          "ticks": 4465,
          "time": 51.91860465116279,
          "velocity": 0.41732283464566927
        },
        {
          "duration": 0.05813953488372192,
          "durationTicks": 5,
          "midi": 71,
          "name": "B4",
          "ticks": 4465,
          "time": 51.91860465116279,
          "velocity": 0.2125984251968504
        },
        {
          "duration": 0.9883720930232585,
          "durationTicks": 85,
          "midi": 77,
          "name": "F5",
          "ticks": 4465,
          "time": 51.91860465116279,
          "velocity": 0.4409448818897638
        },
        {
          "duration": 0.04651162790698038,
          "durationTicks": 4,
          "midi": 84,
          "name": "C6",
          "ticks": 4465,
          "time": 51.91860465116279,
          "velocity": 0.14173228346456693
        },
        {
          "duration": 0.03488372093023173,
          "durationTicks": 3,
          "midi": 87,
          "name": "D#6",
          "ticks": 4469,
          "time": 51.96511627906977,
          "velocity": 0.07874015748031496
        },
        {
          "duration": 0.03488372093023173,
          "durationTicks": 3,
          "midi": 79,
          "name": "G5",
          "ticks": 4470,
          "time": 51.97674418604651,
          "velocity": 0.12598425196850394
        },
        {
          "duration": 0.13953488372093403,
          "durationTicks": 12,
          "midi": 84,
          "name": "C6",
          "ticks": 4470,
          "time": 51.97674418604651,
          "velocity": 0.11811023622047244
        },
        {
          "duration": 0.13953488372092693,
          "durationTicks": 12,
          "midi": 57,
          "name": "A3",
          "ticks": 4471,
          "time": 51.98837209302326,
          "velocity": 0.13385826771653545
        },
        {
          "duration": 0.22093023255813904,
          "durationTicks": 19,
          "midi": 65,
          "name": "F4",
          "ticks": 4471,
          "time": 51.98837209302326,
          "velocity": 0.3228346456692913
        },
        {
          "duration": 0.046511627906973274,
          "durationTicks": 4,
          "midi": 71,
          "name": "B4",
          "ticks": 4471,
          "time": 51.98837209302326,
          "velocity": 0.16535433070866143
        },
        {
          "duration": 0.13953488372092693,
          "durationTicks": 12,
          "midi": 45,
          "name": "A2",
          "ticks": 4472,
          "time": 52,
          "velocity": 0.3937007874015748
        },
        {
          "duration": 0.03488372093023173,
          "durationTicks": 3,
          "midi": 61,
          "name": "C#4",
          "ticks": 4472,
          "time": 52,
          "velocity": 0.1889763779527559
        },
        {
          "duration": 0.03488372093023884,
          "durationTicks": 3,
          "midi": 61,
          "name": "C#4",
          "ticks": 4476,
          "time": 52.04651162790697,
          "velocity": 0.1968503937007874
        },
        {
          "duration": 0.2325581395348877,
          "durationTicks": 20,
          "midi": 60,
          "name": "C4",
          "ticks": 4483,
          "time": 52.127906976744185,
          "velocity": 0.3779527559055118
        },
        {
          "duration": 0.04651162790698038,
          "durationTicks": 4,
          "midi": 88,
          "name": "E6",
          "ticks": 4484,
          "time": 52.13953488372093,
          "velocity": 0.07086614173228346
        },
        {
          "duration": 0.03488372093023173,
          "durationTicks": 3,
          "midi": 45,
          "name": "A2",
          "ticks": 4485,
          "time": 52.151162790697676,
          "velocity": 0.28346456692913385
        },
        {
          "duration": 0.03488372093023884,
          "durationTicks": 3,
          "midi": 88,
          "name": "E6",
          "ticks": 4492,
          "time": 52.23255813953488,
          "velocity": 0.09448818897637795
        },
        {
          "duration": 1.6046511627907023,
          "durationTicks": 138,
          "midi": 74,
          "name": "D5",
          "ticks": 4502,
          "time": 52.348837209302324,
          "velocity": 0.4881889763779528
        },
        {
          "duration": 0.5348837209302317,
          "durationTicks": 46,
          "midi": 69,
          "name": "A4",
          "ticks": 4503,
          "time": 52.36046511627907,
          "velocity": 0.33858267716535434
        },
        {
          "duration": 0.15116279069766847,
          "durationTicks": 13,
          "midi": 93,
          "name": "A6",
          "ticks": 4503,
          "time": 52.36046511627907,
          "velocity": 0.25196850393700787
        },
        {
          "duration": 0.08139534883721211,
          "durationTicks": 7,
          "midi": 52,
          "name": "E3",
          "ticks": 4504,
          "time": 52.372093023255815,
          "velocity": 0.1889763779527559
        },
        {
          "duration": 0.02325581395349019,
          "durationTicks": 2,
          "midi": 62,
          "name": "D4",
          "ticks": 4504,
          "time": 52.372093023255815,
          "velocity": 0.30708661417322836
        },
        {
          "duration": 0.27906976744186096,
          "durationTicks": 24,
          "midi": 65,
          "name": "F4",
          "ticks": 4504,
          "time": 52.372093023255815,
          "velocity": 0.3228346456692913
        },
        {
          "duration": 0.06976744186046346,
          "durationTicks": 6,
          "midi": 71,
          "name": "B4",
          "ticks": 4504,
          "time": 52.372093023255815,
          "velocity": 0.2204724409448819
        },
        {
          "duration": 0.2093023255813975,
          "durationTicks": 18,
          "midi": 45,
          "name": "A2",
          "ticks": 4505,
          "time": 52.383720930232556,
          "velocity": 0.4015748031496063
        },
        {
          "duration": 0.04651162790698038,
          "durationTicks": 4,
          "midi": 87,
          "name": "D#6",
          "ticks": 4505,
          "time": 52.383720930232556,
          "velocity": 0.07086614173228346
        },
        {
          "duration": 0.13953488372092693,
          "durationTicks": 12,
          "midi": 62,
          "name": "D4",
          "ticks": 4507,
          "time": 52.406976744186046,
          "velocity": 0.30708661417322836
        },
        {
          "duration": 0.03488372093023173,
          "durationTicks": 3,
          "midi": 79,
          "name": "G5",
          "ticks": 4509,
          "time": 52.43023255813954,
          "velocity": 0.07086614173228346
        },
        {
          "duration": 0.13953488372092693,
          "durationTicks": 12,
          "midi": 84,
          "name": "C6",
          "ticks": 4509,
          "time": 52.43023255813954,
          "velocity": 0.12598425196850394
        },
        {
          "duration": 0.09302325581395365,
          "durationTicks": 8,
          "midi": 52,
          "name": "E3",
          "ticks": 4512,
          "time": 52.46511627906977,
          "velocity": 0.1732283464566929
        },
        {
          "duration": 0.23255813953488058,
          "durationTicks": 20,
          "midi": 62,
          "name": "D4",
          "ticks": 4520,
          "time": 52.55813953488372,
          "velocity": 0.1968503937007874
        },
        {
          "duration": 0.046511627906973274,
          "durationTicks": 4,
          "midi": 80,
          "name": "G#5",
          "ticks": 4522,
          "time": 52.58139534883721,
          "velocity": 0.10236220472440945
        },
        {
          "duration": 0.03488372093023173,
          "durationTicks": 3,
          "midi": 84,
          "name": "C6",
          "ticks": 4523,
          "time": 52.593023255813954,
          "velocity": 0.07874015748031496
        },
        {
          "duration": 0.2093023255813904,
          "durationTicks": 18,
          "midi": 45,
          "name": "A2",
          "ticks": 4525,
          "time": 52.616279069767444,
          "velocity": 0.3543307086614173
        },
        {
          "duration": 0.3953488372092977,
          "durationTicks": 34,
          "midi": 72,
          "name": "C5",
          "ticks": 4525,
          "time": 52.616279069767444,
          "velocity": 0.1732283464566929
        },
        {
          "duration": 0.16279069767442422,
          "durationTicks": 14,
          "midi": 88,
          "name": "E6",
          "ticks": 4527,
          "time": 52.63953488372093,
          "velocity": 0.07874015748031496
        },
        {
          "duration": 0.1046511627907023,
          "durationTicks": 9,
          "midi": 45,
          "name": "A2",
          "ticks": 4545,
          "time": 52.848837209302324,
          "velocity": 0.2283464566929134
        },
        {
          "duration": 0.046511627906973274,
          "durationTicks": 4,
          "midi": 45,
          "name": "A2",
          "ticks": 4555,
          "time": 52.96511627906977,
          "velocity": 0.1968503937007874
        },
        {
          "duration": 0.058139534883714816,
          "durationTicks": 5,
          "midi": 60,
          "name": "C4",
          "ticks": 4557,
          "time": 52.98837209302326,
          "velocity": 0.16535433070866143
        },
        {
          "duration": 0.03488372093023173,
          "durationTicks": 3,
          "midi": 41,
          "name": "F2",
          "ticks": 4561,
          "time": 53.03488372093023,
          "velocity": 0.1889763779527559
        },
        {
          "duration": 0.2906976744186025,
          "durationTicks": 25,
          "midi": 81,
          "name": "A5",
          "ticks": 4561,
          "time": 53.03488372093023,
          "velocity": 0.2440944881889764
        },
        {
          "duration": 0.03488372093023884,
          "durationTicks": 3,
          "midi": 50,
          "name": "D3",
          "ticks": 4562,
          "time": 53.04651162790697,
          "velocity": 0.2125984251968504
        },
        {
          "duration": 0.2325581395348877,
          "durationTicks": 20,
          "midi": 62,
          "name": "D4",
          "ticks": 4562,
          "time": 53.04651162790697,
          "velocity": 0.2755905511811024
        },
        {
          "duration": 0.4534883720930267,
          "durationTicks": 39,
          "midi": 77,
          "name": "F5",
          "ticks": 4562,
          "time": 53.04651162790697,
          "velocity": 0.3543307086614173
        },
        {
          "duration": 0.27906976744186096,
          "durationTicks": 24,
          "midi": 65,
          "name": "F4",
          "ticks": 4563,
          "time": 53.05813953488372,
          "velocity": 0.30708661417322836
        },
        {
          "duration": 0.046511627906973274,
          "durationTicks": 4,
          "midi": 85,
          "name": "C#6",
          "ticks": 4563,
          "time": 53.05813953488372,
          "velocity": 0.11811023622047244
        },
        {
          "duration": 0.2906976744186096,
          "durationTicks": 25,
          "midi": 69,
          "name": "A4",
          "ticks": 4564,
          "time": 53.06976744186046,
          "velocity": 0.18110236220472442
        },
        {
          "duration": 0.13953488372093403,
          "durationTicks": 12,
          "midi": 84,
          "name": "C6",
          "ticks": 4564,
          "time": 53.06976744186046,
          "velocity": 0.18110236220472442
        },
        {
          "duration": 0.17441860465116577,
          "durationTicks": 15,
          "midi": 50,
          "name": "D3",
          "ticks": 4566,
          "time": 53.093023255813954,
          "velocity": 0.2047244094488189
        },
        {
          "duration": 0.2093023255813975,
          "durationTicks": 18,
          "midi": 88,
          "name": "E6",
          "ticks": 4566,
          "time": 53.093023255813954,
          "velocity": 0.10236220472440945
        },
        {
          "duration": 0.04651162790698038,
          "durationTicks": 4,
          "midi": 72,
          "name": "C5",
          "ticks": 4567,
          "time": 53.104651162790695,
          "velocity": 0.09448818897637795
        },
        {
          "duration": 0.03488372093023173,
          "durationTicks": 3,
          "midi": 38,
          "name": "D2",
          "ticks": 4569,
          "time": 53.127906976744185,
          "velocity": 0.14173228346456693
        },
        {
          "duration": 0.08139534883721211,
          "durationTicks": 7,
          "midi": 57,
          "name": "A3",
          "ticks": 4572,
          "time": 53.16279069767442,
          "velocity": 0.07086614173228346
        },
        {
          "duration": 0.09302325581395365,
          "durationTicks": 8,
          "midi": 38,
          "name": "D2",
          "ticks": 4573,
          "time": 53.174418604651166,
          "velocity": 0.15748031496062992
        },
        {
          "duration": 0.09302325581395365,
          "durationTicks": 8,
          "midi": 72,
          "name": "C5",
          "ticks": 4575,
          "time": 53.19767441860465,
          "velocity": 0.08661417322834646
        },
        {
          "duration": 0.03488372093023173,
          "durationTicks": 3,
          "midi": 38,
          "name": "D2",
          "ticks": 4583,
          "time": 53.2906976744186,
          "velocity": 0.09448818897637795
        },
        {
          "duration": 0.03488372093023173,
          "durationTicks": 3,
          "midi": 48,
          "name": "C3",
          "ticks": 4584,
          "time": 53.30232558139535,
          "velocity": 0.2047244094488189
        },
        {
          "duration": 0.05813953488372192,
          "durationTicks": 5,
          "midi": 82,
          "name": "A#5",
          "ticks": 4586,
          "time": 53.325581395348834,
          "velocity": 0.09448818897637795
        },
        {
          "duration": 0.36046511627906597,
          "durationTicks": 31,
          "midi": 72,
          "name": "C5",
          "ticks": 4600,
          "time": 53.48837209302326,
          "velocity": 0.4251968503937008
        },
        {
          "duration": 0.5,
          "durationTicks": 43,
          "midi": 79,
          "name": "G5",
          "ticks": 4600,
          "time": 53.48837209302326,
          "velocity": 0.3858267716535433
        },
        {
          "duration": 0.25581395348837077,
          "durationTicks": 22,
          "midi": 65,
          "name": "F4",
          "ticks": 4601,
          "time": 53.5,
          "velocity": 0.33070866141732286
        },
        {
          "duration": 0.46511627906976827,
          "durationTicks": 40,
          "midi": 76,
          "name": "E5",
          "ticks": 4601,
          "time": 53.5,
          "velocity": 0.41732283464566927
        },
        {
          "duration": 0.11627906976744384,
          "durationTicks": 10,
          "midi": 85,
          "name": "C#6",
          "ticks": 4601,
          "time": 53.5,
          "velocity": 0.14173228346456693
        },
        {
          "duration": 0.046511627906973274,
          "durationTicks": 4,
          "midi": 89,
          "name": "F6",
          "ticks": 4601,
          "time": 53.5,
          "velocity": 0.08661417322834646
        },
        {
          "duration": 0.02325581395349019,
          "durationTicks": 2,
          "midi": 44,
          "name": "G#2",
          "ticks": 4602,
          "time": 53.51162790697674,
          "velocity": 0.33070866141732286
        },
        {
          "duration": 0.04651162790698038,
          "durationTicks": 4,
          "midi": 81,
          "name": "A5",
          "ticks": 4602,
          "time": 53.51162790697674,
          "velocity": 0.08661417322834646
        },
        {
          "duration": 0.08139534883721211,
          "durationTicks": 7,
          "midi": 83,
          "name": "B5",
          "ticks": 4602,
          "time": 53.51162790697674,
          "velocity": 0.14173228346456693
        },
        {
          "duration": 0.03488372093023173,
          "durationTicks": 3,
          "midi": 45,
          "name": "A2",
          "ticks": 4604,
          "time": 53.53488372093023,
          "velocity": 0.33858267716535434
        },
        {
          "duration": 0.06976744186046346,
          "durationTicks": 6,
          "midi": 62,
          "name": "D4",
          "ticks": 4606,
          "time": 53.55813953488372,
          "velocity": 0.1968503937007874
        },
        {
          "duration": 0.1860465116279073,
          "durationTicks": 16,
          "midi": 69,
          "name": "A4",
          "ticks": 4606,
          "time": 53.55813953488372,
          "velocity": 0.10236220472440945
        },
        {
          "duration": 0.13953488372092693,
          "durationTicks": 12,
          "midi": 45,
          "name": "A2",
          "ticks": 4608,
          "time": 53.58139534883721,
          "velocity": 0.2992125984251969
        },
        {
          "duration": 0.046511627906973274,
          "durationTicks": 4,
          "midi": 83,
          "name": "B5",
          "ticks": 4616,
          "time": 53.674418604651166,
          "velocity": 0.11811023622047244
        },
        {
          "duration": 0.081395348837205,
          "durationTicks": 7,
          "midi": 60,
          "name": "C4",
          "ticks": 4622,
          "time": 53.74418604651163,
          "velocity": 0.15748031496062992
        },
        {
          "duration": 0.2093023255813975,
          "durationTicks": 18,
          "midi": 67,
          "name": "G4",
          "ticks": 4622,
          "time": 53.74418604651163,
          "velocity": 0.25984251968503935
        },
        {
          "duration": 0.03488372093023173,
          "durationTicks": 3,
          "midi": 45,
          "name": "A2",
          "ticks": 4625,
          "time": 53.77906976744186,
          "velocity": 0.2992125984251969
        },
        {
          "duration": 0.02325581395349019,
          "durationTicks": 2,
          "midi": 44,
          "name": "G#2",
          "ticks": 4631,
          "time": 53.848837209302324,
          "velocity": 0.25984251968503935
        },
        {
          "duration": 0.09302325581395365,
          "durationTicks": 8,
          "midi": 72,
          "name": "C5",
          "ticks": 4632,
          "time": 53.86046511627907,
          "velocity": 0.2283464566929134
        },
        {
          "duration": 0.023255813953483084,
          "durationTicks": 2,
          "midi": 49,
          "name": "C#3",
          "ticks": 4635,
          "time": 53.895348837209305,
          "velocity": 0.25196850393700787
        },
        {
          "duration": 0.046511627906973274,
          "durationTicks": 4,
          "midi": 60,
          "name": "C4",
          "ticks": 4635,
          "time": 53.895348837209305,
          "velocity": 0.14173228346456693
        },
        {
          "duration": 0.02325581395349019,
          "durationTicks": 2,
          "midi": 46,
          "name": "A#2",
          "ticks": 4637,
          "time": 53.91860465116279,
          "velocity": 0.2677165354330709
        },
        {
          "duration": 0.02325581395349019,
          "durationTicks": 2,
          "midi": 50,
          "name": "D3",
          "ticks": 4639,
          "time": 53.94186046511628,
          "velocity": 0.2677165354330709
        },
        {
          "duration": 0.25581395348837077,
          "durationTicks": 22,
          "midi": 65,
          "name": "F4",
          "ticks": 4640,
          "time": 53.95348837209303,
          "velocity": 0.3700787401574803
        },
        {
          "duration": 0.7906976744186025,
          "durationTicks": 68,
          "midi": 69,
          "name": "A4",
          "ticks": 4640,
          "time": 53.95348837209303,
          "velocity": 0.3937007874015748
        },
        {
          "duration": 1.8023255813953512,
          "durationTicks": 155,
          "midi": 74,
          "name": "D5",
          "ticks": 4641,
          "time": 53.96511627906977,
          "velocity": 0.4094488188976378
        },
        {
          "duration": 0.25581395348837077,
          "durationTicks": 22,
          "midi": 77,
          "name": "F5",
          "ticks": 4641,
          "time": 53.96511627906977,
          "velocity": 0.3700787401574803
        },
        {
          "duration": 0.16279069767441712,
          "durationTicks": 14,
          "midi": 84,
          "name": "C6",
          "ticks": 4641,
          "time": 53.96511627906977,
          "velocity": 0.1968503937007874
        },
        {
          "duration": 0.12790697674418539,
          "durationTicks": 11,
          "midi": 90,
          "name": "F#6",
          "ticks": 4641,
          "time": 53.96511627906977,
          "velocity": 0.08661417322834646
        },
        {
          "duration": 0.03488372093023173,
          "durationTicks": 3,
          "midi": 57,
          "name": "A3",
          "ticks": 4642,
          "time": 53.97674418604651,
          "velocity": 0.11811023622047244
        },
        {
          "duration": 0.11627906976744384,
          "durationTicks": 10,
          "midi": 62,
          "name": "D4",
          "ticks": 4642,
          "time": 53.97674418604651,
          "velocity": 0.28346456692913385
        },
        {
          "duration": 0.22093023255813904,
          "durationTicks": 19,
          "midi": 45,
          "name": "A2",
          "ticks": 4643,
          "time": 53.98837209302326,
          "velocity": 0.31496062992125984
        },
        {
          "duration": 0.06976744186047057,
          "durationTicks": 6,
          "midi": 72,
          "name": "C5",
          "ticks": 4645,
          "time": 54.01162790697674,
          "velocity": 0.14173228346456693
        },
        {
          "duration": 0.3139534883720927,
          "durationTicks": 27,
          "midi": 88,
          "name": "E6",
          "ticks": 4649,
          "time": 54.05813953488372,
          "velocity": 0.2204724409448819
        },
        {
          "duration": 0.03488372093023173,
          "durationTicks": 3,
          "midi": 62,
          "name": "D4",
          "ticks": 4653,
          "time": 54.104651162790695,
          "velocity": 0.1968503937007874
        },
        {
          "duration": 0.05813953488372192,
          "durationTicks": 5,
          "midi": 72,
          "name": "C5",
          "ticks": 4654,
          "time": 54.116279069767444,
          "velocity": 0.10236220472440945
        },
        {
          "duration": 0.23255813953488058,
          "durationTicks": 20,
          "midi": 60,
          "name": "C4",
          "ticks": 4660,
          "time": 54.18604651162791,
          "velocity": 0.33070866141732286
        },
        {
          "duration": 0.09302325581395365,
          "durationTicks": 8,
          "midi": 82,
          "name": "A#5",
          "ticks": 4660,
          "time": 54.18604651162791,
          "velocity": 0.18110236220472442
        },
        {
          "duration": 0.046511627906973274,
          "durationTicks": 4,
          "midi": 83,
          "name": "B5",
          "ticks": 4660,
          "time": 54.18604651162791,
          "velocity": 0.15748031496062992
        },
        {
          "duration": 0.02325581395349019,
          "durationTicks": 2,
          "midi": 67,
          "name": "G4",
          "ticks": 4661,
          "time": 54.19767441860465,
          "velocity": 0.2283464566929134
        },
        {
          "duration": 0.19767441860464885,
          "durationTicks": 17,
          "midi": 64,
          "name": "E4",
          "ticks": 4662,
          "time": 54.2093023255814,
          "velocity": 0.30708661417322836
        },
        {
          "duration": 0.09302325581395365,
          "durationTicks": 8,
          "midi": 80,
          "name": "G#5",
          "ticks": 4662,
          "time": 54.2093023255814,
          "velocity": 0.11023622047244094
        },
        {
          "duration": 0.03488372093023173,
          "durationTicks": 3,
          "midi": 91,
          "name": "G6",
          "ticks": 4662,
          "time": 54.2093023255814,
          "velocity": 0.07086614173228346
        },
        {
          "duration": 0.05813953488372192,
          "durationTicks": 5,
          "midi": 93,
          "name": "A6",
          "ticks": 4663,
          "time": 54.22093023255814,
          "velocity": 0.08661417322834646
        },
        {
          "duration": 0.02325581395349019,
          "durationTicks": 2,
          "midi": 48,
          "name": "C3",
          "ticks": 4664,
          "time": 54.23255813953488,
          "velocity": 0.25984251968503935
        },
        {
          "duration": 0.04651162790698038,
          "durationTicks": 4,
          "midi": 67,
          "name": "G4",
          "ticks": 4664,
          "time": 54.23255813953488,
          "velocity": 0.2755905511811024
        },
        {
          "duration": 0.16279069767442422,
          "durationTicks": 14,
          "midi": 77,
          "name": "F5",
          "ticks": 4664,
          "time": 54.23255813953488,
          "velocity": 0.25196850393700787
        },
        {
          "duration": 0.09302325581395365,
          "durationTicks": 8,
          "midi": 83,
          "name": "B5",
          "ticks": 4666,
          "time": 54.25581395348837,
          "velocity": 0.18110236220472442
        },
        {
          "duration": 0.13953488372093403,
          "durationTicks": 12,
          "midi": 87,
          "name": "D#6",
          "ticks": 4666,
          "time": 54.25581395348837,
          "velocity": 0.07086614173228346
        },
        {
          "duration": 0.02325581395349019,
          "durationTicks": 2,
          "midi": 50,
          "name": "D3",
          "ticks": 4668,
          "time": 54.27906976744186,
          "velocity": 0.30708661417322836
        },
        {
          "duration": 0.06976744186047057,
          "durationTicks": 6,
          "midi": 67,
          "name": "G4",
          "ticks": 4669,
          "time": 54.2906976744186,
          "velocity": 0.25196850393700787
        },
        {
          "duration": 0.046511627906973274,
          "durationTicks": 4,
          "midi": 82,
          "name": "A#5",
          "ticks": 4676,
          "time": 54.372093023255815,
          "velocity": 0.14960629921259844
        },
        {
          "duration": 0.08139534883721211,
          "durationTicks": 7,
          "midi": 83,
          "name": "B5",
          "ticks": 4676,
          "time": 54.372093023255815,
          "velocity": 0.10236220472440945
        },
        {
          "duration": 0.30232558139535115,
          "durationTicks": 26,
          "midi": 65,
          "name": "F4",
          "ticks": 4679,
          "time": 54.406976744186046,
          "velocity": 0.31496062992125984
        },
        {
          "duration": 0.2674418604651194,
          "durationTicks": 23,
          "midi": 77,
          "name": "F5",
          "ticks": 4679,
          "time": 54.406976744186046,
          "velocity": 0.36220472440944884
        },
        {
          "duration": 0.19767441860464885,
          "durationTicks": 17,
          "midi": 84,
          "name": "C6",
          "ticks": 4679,
          "time": 54.406976744186046,
          "velocity": 0.15748031496062992
        },
        {
          "duration": 0.22093023255813904,
          "durationTicks": 19,
          "midi": 93,
          "name": "A6",
          "ticks": 4679,
          "time": 54.406976744186046,
          "velocity": 0.2125984251968504
        },
        {
          "duration": 0.11627906976743674,
          "durationTicks": 10,
          "midi": 62,
          "name": "D4",
          "ticks": 4681,
          "time": 54.43023255813954,
          "velocity": 0.23622047244094488
        },
        {
          "duration": 0.40697674418604635,
          "durationTicks": 35,
          "midi": 88,
          "name": "E6",
          "ticks": 4683,
          "time": 54.45348837209303,
          "velocity": 0.14173228346456693
        },
        {
          "duration": 0.3720930232558146,
          "durationTicks": 32,
          "midi": 72,
          "name": "C5",
          "ticks": 4684,
          "time": 54.46511627906977,
          "velocity": 0.14960629921259844
        },
        {
          "duration": 0.15116279069767558,
          "durationTicks": 13,
          "midi": 57,
          "name": "A3",
          "ticks": 4687,
          "time": 54.5,
          "velocity": 0.1732283464566929
        },
        {
          "duration": 0.02325581395349019,
          "durationTicks": 2,
          "midi": 50,
          "name": "D3",
          "ticks": 4690,
          "time": 54.53488372093023,
          "velocity": 0.25196850393700787
        },
        {
          "duration": 0.02325581395349019,
          "durationTicks": 2,
          "midi": 50,
          "name": "D3",
          "ticks": 4695,
          "time": 54.593023255813954,
          "velocity": 0.25196850393700787
        },
        {
          "duration": 0.03488372093023173,
          "durationTicks": 3,
          "midi": 62,
          "name": "D4",
          "ticks": 4698,
          "time": 54.627906976744185,
          "velocity": 0.1889763779527559
        },
        {
          "duration": 0.081395348837205,
          "durationTicks": 7,
          "midi": 50,
          "name": "D3",
          "ticks": 4700,
          "time": 54.651162790697676,
          "velocity": 0.31496062992125984
        },
        {
          "duration": 0.023255813953483084,
          "durationTicks": 2,
          "midi": 45,
          "name": "A2",
          "ticks": 4705,
          "time": 54.7093023255814,
          "velocity": 0.2283464566929134
        },
        {
          "duration": 0.06976744186046346,
          "durationTicks": 6,
          "midi": 50,
          "name": "D3",
          "ticks": 4708,
          "time": 54.74418604651163,
          "velocity": 0.29133858267716534
        },
        {
          "duration": 0.03488372093023884,
          "durationTicks": 3,
          "midi": 50,
          "name": "D3",
          "ticks": 4715,
          "time": 54.825581395348834,
          "velocity": 0.29133858267716534
        },
        {
          "duration": 0.03488372093023173,
          "durationTicks": 3,
          "midi": 58,
          "name": "A#3",
          "ticks": 4717,
          "time": 54.848837209302324,
          "velocity": 0.14960629921259844
        },
        {
          "duration": 0.04651162790698038,
          "durationTicks": 4,
          "midi": 69,
          "name": "A4",
          "ticks": 4717,
          "time": 54.848837209302324,
          "velocity": 0.11023622047244094
        },
        {
          "duration": 0.27906976744185386,
          "durationTicks": 24,
          "midi": 81,
          "name": "A5",
          "ticks": 4718,
          "time": 54.86046511627907,
          "velocity": 0.25984251968503935
        },
        {
          "duration": 0.2674418604651123,
          "durationTicks": 23,
          "midi": 65,
          "name": "F4",
          "ticks": 4719,
          "time": 54.872093023255815,
          "velocity": 0.33070866141732286
        },
        {
          "duration": 0.4534883720930196,
          "durationTicks": 39,
          "midi": 77,
          "name": "F5",
          "ticks": 4719,
          "time": 54.872093023255815,
          "velocity": 0.3700787401574803
        },
        {
          "duration": 0.06976744186046346,
          "durationTicks": 6,
          "midi": 84,
          "name": "C6",
          "ticks": 4719,
          "time": 54.872093023255815,
          "velocity": 0.18110236220472442
        },
        {
          "duration": 0.08139534883721211,
          "durationTicks": 7,
          "midi": 62,
          "name": "D4",
          "ticks": 4720,
          "time": 54.883720930232556,
          "velocity": 0.2283464566929134
        },
        {
          "duration": 0.19767441860464885,
          "durationTicks": 17,
          "midi": 38,
          "name": "D2",
          "ticks": 4721,
          "time": 54.895348837209305,
          "velocity": 0.2047244094488189
        },
        {
          "duration": 0.23255813953488058,
          "durationTicks": 20,
          "midi": 88,
          "name": "E6",
          "ticks": 4721,
          "time": 54.895348837209305,
          "velocity": 0.13385826771653545
        },
        {
          "duration": 0.09302325581395365,
          "durationTicks": 8,
          "midi": 72,
          "name": "C5",
          "ticks": 4722,
          "time": 54.906976744186046,
          "velocity": 0.10236220472440945
        },
        {
          "duration": 0.12790697674418539,
          "durationTicks": 11,
          "midi": 57,
          "name": "A3",
          "ticks": 4723,
          "time": 54.91860465116279,
          "velocity": 0.11023622047244094
        },
        {
          "duration": 0.03488372093023173,
          "durationTicks": 3,
          "midi": 85,
          "name": "C#6",
          "ticks": 4724,
          "time": 54.93023255813954,
          "velocity": 0.07874015748031496
        },
        {
          "duration": 0.05813953488372192,
          "durationTicks": 5,
          "midi": 84,
          "name": "C6",
          "ticks": 4727,
          "time": 54.96511627906977,
          "velocity": 0.14173228346456693
        },
        {
          "duration": 0.1046511627907023,
          "durationTicks": 9,
          "midi": 62,
          "name": "D4",
          "ticks": 4731,
          "time": 55.01162790697674,
          "velocity": 0.1889763779527559
        },
        {
          "duration": 0.03488372093023173,
          "durationTicks": 3,
          "midi": 84,
          "name": "C6",
          "ticks": 4735,
          "time": 55.05813953488372,
          "velocity": 0.09448818897637795
        },
        {
          "duration": 0.03488372093023173,
          "durationTicks": 3,
          "midi": 48,
          "name": "C3",
          "ticks": 4740,
          "time": 55.116279069767444,
          "velocity": 0.29133858267716534
        },
        {
          "duration": 0.02325581395349019,
          "durationTicks": 2,
          "midi": 47,
          "name": "B2",
          "ticks": 4743,
          "time": 55.151162790697676,
          "velocity": 0.25196850393700787
        },
        {
          "duration": 0.04651162790698038,
          "durationTicks": 4,
          "midi": 65,
          "name": "F4",
          "ticks": 4744,
          "time": 55.16279069767442,
          "velocity": 0.13385826771653545
        },
        {
          "duration": 0.023255813953483084,
          "durationTicks": 2,
          "midi": 48,
          "name": "C3",
          "ticks": 4745,
          "time": 55.174418604651166,
          "velocity": 0.2677165354330709
        },
        {
          "duration": 0.046511627906973274,
          "durationTicks": 4,
          "midi": 57,
          "name": "A3",
          "ticks": 4745,
          "time": 55.174418604651166,
          "velocity": 0.07086614173228346
        },
        {
          "duration": 0.03488372093023173,
          "durationTicks": 3,
          "midi": 64,
          "name": "E4",
          "ticks": 4755,
          "time": 55.2906976744186,
          "velocity": 0.15748031496062992
        },
        {
          "duration": 0.3139534883720927,
          "durationTicks": 27,
          "midi": 72,
          "name": "C5",
          "ticks": 4757,
          "time": 55.31395348837209,
          "velocity": 0.4409448818897638
        },
        {
          "duration": 0.48837209302325846,
          "durationTicks": 42,
          "midi": 79,
          "name": "G5",
          "ticks": 4757,
          "time": 55.31395348837209,
          "velocity": 0.3937007874015748
        },
        {
          "duration": 0.24418604651162923,
          "durationTicks": 21,
          "midi": 88,
          "name": "E6",
          "ticks": 4757,
          "time": 55.31395348837209,
          "velocity": 0.25196850393700787
        },
        {
          "duration": 0.4534883720930267,
          "durationTicks": 39,
          "midi": 76,
          "name": "E5",
          "ticks": 4758,
          "time": 55.325581395348834,
          "velocity": 0.4330708661417323
        },
        {
          "duration": 0.03488372093023884,
          "durationTicks": 3,
          "midi": 83,
          "name": "B5",
          "ticks": 4758,
          "time": 55.325581395348834,
          "velocity": 0.07086614173228346
        },
        {
          "duration": 0.05813953488372192,
          "durationTicks": 5,
          "midi": 85,
          "name": "C#6",
          "ticks": 4758,
          "time": 55.325581395348834,
          "velocity": 0.12598425196850394
        },
        {
          "duration": 0.02325581395349019,
          "durationTicks": 2,
          "midi": 62,
          "name": "D4",
          "ticks": 4759,
          "time": 55.33720930232558,
          "velocity": 0.33858267716535434
        },
        {
          "duration": 0.24418604651162923,
          "durationTicks": 21,
          "midi": 65,
          "name": "F4",
          "ticks": 4759,
          "time": 55.33720930232558,
          "velocity": 0.3543307086614173
        },
        {
          "duration": 0.23255813953488058,
          "durationTicks": 20,
          "midi": 69,
          "name": "A4",
          "ticks": 4759,
          "time": 55.33720930232558,
          "velocity": 0.13385826771653545
        },
        {
          "duration": 0.03488372093023173,
          "durationTicks": 3,
          "midi": 45,
          "name": "A2",
          "ticks": 4762,
          "time": 55.372093023255815,
          "velocity": 0.33070866141732286
        },
        {
          "duration": 0.19767441860464885,
          "durationTicks": 17,
          "midi": 62,
          "name": "D4",
          "ticks": 4762,
          "time": 55.372093023255815,
          "velocity": 0.33858267716535434
        },
        {
          "duration": 0.02325581395349019,
          "durationTicks": 2,
          "midi": 45,
          "name": "A2",
          "ticks": 4766,
          "time": 55.41860465116279,
          "velocity": 0.2992125984251969
        },
        {
          "duration": 0.04651162790698038,
          "durationTicks": 4,
          "midi": 85,
          "name": "C#6",
          "ticks": 4766,
          "time": 55.41860465116279,
          "velocity": 0.08661417322834646
        },
        {
          "duration": 0.023255813953483084,
          "durationTicks": 2,
          "midi": 45,
          "name": "A2",
          "ticks": 4769,
          "time": 55.45348837209303,
          "velocity": 0.25984251968503935
        },
        {
          "duration": 0.02325581395349019,
          "durationTicks": 2,
          "midi": 45,
          "name": "A2",
          "ticks": 4778,
          "time": 55.55813953488372,
          "velocity": 0.33070866141732286
        },
        {
          "duration": 0.19767441860464885,
          "durationTicks": 17,
          "midi": 67,
          "name": "G4",
          "ticks": 4778,
          "time": 55.55813953488372,
          "velocity": 0.1889763779527559
        },
        {
          "duration": 0.058139534883714816,
          "durationTicks": 5,
          "midi": 60,
          "name": "C4",
          "ticks": 4780,
          "time": 55.58139534883721,
          "velocity": 0.11023622047244094
        },
        {
          "duration": 0.02325581395349019,
          "durationTicks": 2,
          "midi": 38,
          "name": "D2",
          "ticks": 4784,
          "time": 55.627906976744185,
          "velocity": 0.25196850393700787
        },
        {
          "duration": 0.02325581395349019,
          "durationTicks": 2,
          "midi": 48,
          "name": "C3",
          "ticks": 4785,
          "time": 55.63953488372093,
          "velocity": 0.2992125984251969
        },
        {
          "duration": 0.16279069767441712,
          "durationTicks": 14,
          "midi": 72,
          "name": "C5",
          "ticks": 4786,
          "time": 55.651162790697676,
          "velocity": 0.2283464566929134
        },
        {
          "duration": 0.06976744186046346,
          "durationTicks": 6,
          "midi": 38,
          "name": "D2",
          "ticks": 4787,
          "time": 55.66279069767442,
          "velocity": 0.28346456692913385
        },
        {
          "duration": 0.08139534883721211,
          "durationTicks": 7,
          "midi": 60,
          "name": "C4",
          "ticks": 4790,
          "time": 55.69767441860465,
          "velocity": 0.1889763779527559
        },
        {
          "duration": 0.023255813953483084,
          "durationTicks": 2,
          "midi": 49,
          "name": "C#3",
          "ticks": 4791,
          "time": 55.7093023255814,
          "velocity": 0.25984251968503935
        },
        {
          "duration": 0.04651162790698038,
          "durationTicks": 4,
          "midi": 57,
          "name": "A3",
          "ticks": 4793,
          "time": 55.73255813953488,
          "velocity": 0.13385826771653545
        },
        {
          "duration": 1.1627906976744171,
          "durationTicks": 100,
          "midi": 77,
          "name": "F5",
          "ticks": 4796,
          "time": 55.76744186046512,
          "velocity": 0.4645669291338583
        },
        {
          "duration": 0.30232558139534405,
          "durationTicks": 26,
          "midi": 81,
          "name": "A5",
          "ticks": 4796,
          "time": 55.76744186046512,
          "velocity": 0.31496062992125984
        },
        {
          "duration": 0.22093023255813904,
          "durationTicks": 19,
          "midi": 62,
          "name": "D4",
          "ticks": 4797,
          "time": 55.77906976744186,
          "velocity": 0.33070866141732286
        },
        {
          "duration": 0.22093023255813904,
          "durationTicks": 19,
          "midi": 65,
          "name": "F4",
          "ticks": 4797,
          "time": 55.77906976744186,
          "velocity": 0.33070866141732286
        },
        {
          "duration": 0.9069767441860463,
          "durationTicks": 78,
          "midi": 69,
          "name": "A4",
          "ticks": 4797,
          "time": 55.77906976744186,
          "velocity": 0.36220472440944884
        },
        {
          "duration": 1.8139534883720927,
          "durationTicks": 156,
          "midi": 74,
          "name": "D5",
          "ticks": 4797,
          "time": 55.77906976744186,
          "velocity": 0.4330708661417323
        },
        {
          "duration": 0.43023255813953654,
          "durationTicks": 37,
          "midi": 88,
          "name": "E6",
          "ticks": 4797,
          "time": 55.77906976744186,
          "velocity": 0.2125984251968504
        },
        {
          "duration": 0.19767441860465595,
          "durationTicks": 17,
          "midi": 57,
          "name": "A3",
          "ticks": 4798,
          "time": 55.7906976744186,
          "velocity": 0.1968503937007874
        },
        {
          "duration": 0.19767441860464885,
          "durationTicks": 17,
          "midi": 85,
          "name": "C#6",
          "ticks": 4799,
          "time": 55.80232558139535,
          "velocity": 0.10236220472440945
        },
        {
          "duration": 0.02325581395349019,
          "durationTicks": 2,
          "midi": 45,
          "name": "A2",
          "ticks": 4800,
          "time": 55.81395348837209,
          "velocity": 0.2992125984251969
        },
        {
          "duration": 0.04651162790698038,
          "durationTicks": 4,
          "midi": 45,
          "name": "A2",
          "ticks": 4803,
          "time": 55.848837209302324,
          "velocity": 0.2755905511811024
        },
        {
          "duration": 0.12790697674418539,
          "durationTicks": 11,
          "midi": 45,
          "name": "A2",
          "ticks": 4808,
          "time": 55.906976744186046,
          "velocity": 0.3228346456692913
        },
        {
          "duration": 0.22093023255813904,
          "durationTicks": 19,
          "midi": 60,
          "name": "C4",
          "ticks": 4817,
          "time": 56.01162790697674,
          "velocity": 0.33858267716535434
        },
        {
          "duration": 0.22093023255813904,
          "durationTicks": 19,
          "midi": 64,
          "name": "E4",
          "ticks": 4817,
          "time": 56.01162790697674,
          "velocity": 0.3543307086614173
        },
        {
          "duration": 0.19767441860465595,
          "durationTicks": 17,
          "midi": 72,
          "name": "C5",
          "ticks": 4817,
          "time": 56.01162790697674,
          "velocity": 0.33858267716535434
        },
        {
          "duration": 0.05813953488372192,
          "durationTicks": 5,
          "midi": 83,
          "name": "B5",
          "ticks": 4817,
          "time": 56.01162790697674,
          "velocity": 0.2283464566929134
        },
        {
          "duration": 0.02325581395349019,
          "durationTicks": 2,
          "midi": 48,
          "name": "C3",
          "ticks": 4821,
          "time": 56.05813953488372,
          "velocity": 0.2677165354330709
        },
        {
          "duration": 0.06976744186046346,
          "durationTicks": 6,
          "midi": 93,
          "name": "A6",
          "ticks": 4823,
          "time": 56.08139534883721,
          "velocity": 0.07874015748031496
        },
        {
          "duration": 0.1046511627906952,
          "durationTicks": 9,
          "midi": 83,
          "name": "B5",
          "ticks": 4824,
          "time": 56.093023255813954,
          "velocity": 0.13385826771653545
        },
        {
          "duration": 0.03488372093023173,
          "durationTicks": 3,
          "midi": 49,
          "name": "C#3",
          "ticks": 4827,
          "time": 56.127906976744185,
          "velocity": 0.23622047244094488
        },
        {
          "duration": 0.06976744186046346,
          "durationTicks": 6,
          "midi": 82,
          "name": "A#5",
          "ticks": 4829,
          "time": 56.151162790697676,
          "velocity": 0.11023622047244094
        },
        {
          "duration": 0.02325581395349019,
          "durationTicks": 2,
          "midi": 49,
          "name": "C#3",
          "ticks": 4832,
          "time": 56.18604651162791,
          "velocity": 0.2677165354330709
        },
        {
          "duration": 0.2558139534883779,
          "durationTicks": 22,
          "midi": 62,
          "name": "D4",
          "ticks": 4836,
          "time": 56.23255813953488,
          "velocity": 0.31496062992125984
        },
        {
          "duration": 0.2674418604651194,
          "durationTicks": 23,
          "midi": 65,
          "name": "F4",
          "ticks": 4836,
          "time": 56.23255813953488,
          "velocity": 0.33858267716535434
        },
        {
          "duration": 0.03488372093023173,
          "durationTicks": 3,
          "midi": 48,
          "name": "C3",
          "ticks": 4837,
          "time": 56.24418604651163,
          "velocity": 0.3228346456692913
        },
        {
          "duration": 0.06976744186046346,
          "durationTicks": 6,
          "midi": 72,
          "name": "C5",
          "ticks": 4837,
          "time": 56.24418604651163,
          "velocity": 0.1732283464566929
        },
        {
          "duration": 0.03488372093023173,
          "durationTicks": 3,
          "midi": 83,
          "name": "B5",
          "ticks": 4837,
          "time": 56.24418604651163,
          "velocity": 0.07086614173228346
        },
        {
          "duration": 0.4534883720930196,
          "durationTicks": 39,
          "midi": 88,
          "name": "E6",
          "ticks": 4837,
          "time": 56.24418604651163,
          "velocity": 0.15748031496062992
        },
        {
          "duration": 0.023255813953483084,
          "durationTicks": 2,
          "midi": 49,
          "name": "C#3",
          "ticks": 4842,
          "time": 56.30232558139535,
          "velocity": 0.2755905511811024
        },
        {
          "duration": 0.13953488372093403,
          "durationTicks": 12,
          "midi": 57,
          "name": "A3",
          "ticks": 4844,
          "time": 56.325581395348834,
          "velocity": 0.16535433070866143
        },
        {
          "duration": 0.13953488372093403,
          "durationTicks": 12,
          "midi": 72,
          "name": "C5",
          "ticks": 4844,
          "time": 56.325581395348834,
          "velocity": 0.11811023622047244
        },
        {
          "duration": 0.02325581395349019,
          "durationTicks": 2,
          "midi": 49,
          "name": "C#3",
          "ticks": 4848,
          "time": 56.372093023255815,
          "velocity": 0.25984251968503935
        },
        {
          "duration": 0.02325581395349019,
          "durationTicks": 2,
          "midi": 49,
          "name": "C#3",
          "ticks": 4853,
          "time": 56.43023255813954,
          "velocity": 0.25984251968503935
        },
        {
          "duration": 0.19767441860465595,
          "durationTicks": 17,
          "midi": 83,
          "name": "B5",
          "ticks": 4857,
          "time": 56.47674418604651,
          "velocity": 0.09448818897637795
        },
        {
          "duration": 0.03488372093023173,
          "durationTicks": 3,
          "midi": 43,
          "name": "G2",
          "ticks": 4861,
          "time": 56.52325581395349,
          "velocity": 0.1968503937007874
        },
        {
          "duration": 0.15116279069767558,
          "durationTicks": 13,
          "midi": 50,
          "name": "D3",
          "ticks": 4863,
          "time": 56.54651162790697,
          "velocity": 0.23622047244094488
        },
        {
          "duration": 0.08139534883721211,
          "durationTicks": 7,
          "midi": 65,
          "name": "F4",
          "ticks": 4863,
          "time": 56.54651162790697,
          "velocity": 0.10236220472440945
        },
        {
          "duration": 0.13953488372093403,
          "durationTicks": 12,
          "midi": 85,
          "name": "C#6",
          "ticks": 4863,
          "time": 56.54651162790697,
          "velocity": 0.08661417322834646
        },
        {
          "duration": 0.25581395348837077,
          "durationTicks": 22,
          "midi": 82,
          "name": "A#5",
          "ticks": 4874,
          "time": 56.674418604651166,
          "velocity": 0.3779527559055118
        },
        {
          "duration": 0.32558139534883423,
          "durationTicks": 28,
          "midi": 70,
          "name": "A#4",
          "ticks": 4875,
          "time": 56.68604651162791,
          "velocity": 0.41732283464566927
        },
        {
          "duration": 0.09302325581395365,
          "durationTicks": 8,
          "midi": 43,
          "name": "G2",
          "ticks": 4876,
          "time": 56.69767441860465,
          "velocity": 0.2677165354330709
        },
        {
          "duration": 0.2093023255813975,
          "durationTicks": 18,
          "midi": 67,
          "name": "G4",
          "ticks": 4876,
          "time": 56.69767441860465,
          "velocity": 0.3779527559055118
        },
        {
          "duration": 0.2558139534883779,
          "durationTicks": 22,
          "midi": 84,
          "name": "C6",
          "ticks": 4876,
          "time": 56.69767441860465,
          "velocity": 0.13385826771653545
        },
        {
          "duration": 0.38372093023255616,
          "durationTicks": 33,
          "midi": 65,
          "name": "F4",
          "ticks": 4882,
          "time": 56.76744186046512,
          "velocity": 0.3228346456692913
        },
        {
          "duration": 0.06976744186046346,
          "durationTicks": 6,
          "midi": 55,
          "name": "G3",
          "ticks": 4888,
          "time": 56.83720930232558,
          "velocity": 0.10236220472440945
        },
        {
          "duration": 0.04651162790698038,
          "durationTicks": 4,
          "midi": 43,
          "name": "G2",
          "ticks": 4889,
          "time": 56.848837209302324,
          "velocity": 0.14173228346456693
        },
        {
          "duration": 0.05813953488372192,
          "durationTicks": 5,
          "midi": 83,
          "name": "B5",
          "ticks": 4894,
          "time": 56.906976744186046,
          "velocity": 0.14960629921259844
        },
        {
          "duration": 0.17441860465116577,
          "durationTicks": 15,
          "midi": 72,
          "name": "C5",
          "ticks": 4895,
          "time": 56.91860465116279,
          "velocity": 0.18110236220472442
        },
        {
          "duration": 0.03488372093023173,
          "durationTicks": 3,
          "midi": 53,
          "name": "F3",
          "ticks": 4897,
          "time": 56.94186046511628,
          "velocity": 0.14173228346456693
        },
        {
          "duration": 0.081395348837205,
          "durationTicks": 7,
          "midi": 41,
          "name": "F2",
          "ticks": 4899,
          "time": 56.96511627906977,
          "velocity": 0.16535433070866143
        },
        {
          "duration": 0.15116279069766847,
          "durationTicks": 13,
          "midi": 53,
          "name": "F3",
          "ticks": 4901,
          "time": 56.98837209302326,
          "velocity": 0.16535433070866143
        },
        {
          "duration": 0.03488372093023173,
          "durationTicks": 3,
          "midi": 83,
          "name": "B5",
          "ticks": 4905,
          "time": 57.03488372093023,
          "velocity": 0.10236220472440945
        },
        {
          "duration": 0.081395348837205,
          "durationTicks": 7,
          "midi": 41,
          "name": "F2",
          "ticks": 4907,
          "time": 57.05813953488372,
          "velocity": 0.11811023622047244
        },
        {
          "duration": 0.32558139534884134,
          "durationTicks": 28,
          "midi": 70,
          "name": "A#4",
          "ticks": 4913,
          "time": 57.127906976744185,
          "velocity": 0.4094488188976378
        },
        {
          "duration": 0.30232558139535115,
          "durationTicks": 26,
          "midi": 77,
          "name": "F5",
          "ticks": 4913,
          "time": 57.127906976744185,
          "velocity": 0.41732283464566927
        },
        {
          "duration": 0.4418604651162781,
          "durationTicks": 38,
          "midi": 64,
          "name": "E4",
          "ticks": 4915,
          "time": 57.151162790697676,
          "velocity": 0.3228346456692913
        },
        {
          "duration": 0.25581395348837077,
          "durationTicks": 22,
          "midi": 67,
          "name": "G4",
          "ticks": 4915,
          "time": 57.151162790697676,
          "velocity": 0.36220472440944884
        },
        {
          "duration": 0.05813953488372192,
          "durationTicks": 5,
          "midi": 83,
          "name": "B5",
          "ticks": 4915,
          "time": 57.151162790697676,
          "velocity": 0.16535433070866143
        },
        {
          "duration": 0.05813953488372192,
          "durationTicks": 5,
          "midi": 93,
          "name": "A6",
          "ticks": 4915,
          "time": 57.151162790697676,
          "velocity": 0.07874015748031496
        },
        {
          "duration": 0.023255813953483084,
          "durationTicks": 2,
          "midi": 43,
          "name": "G2",
          "ticks": 4917,
          "time": 57.174418604651166,
          "velocity": 0.23622047244094488
        },
        {
          "duration": 0.03488372093023173,
          "durationTicks": 3,
          "midi": 42,
          "name": "F#2",
          "ticks": 4919,
          "time": 57.19767441860465,
          "velocity": 0.2204724409448819
        },
        {
          "duration": 0.04651162790698038,
          "durationTicks": 4,
          "midi": 43,
          "name": "G2",
          "ticks": 4922,
          "time": 57.23255813953488,
          "velocity": 0.13385826771653545
        },
        {
          "duration": 0.05813953488372192,
          "durationTicks": 5,
          "midi": 83,
          "name": "B5",
          "ticks": 4926,
          "time": 57.27906976744186,
          "velocity": 0.11023622047244094
        },
        {
          "duration": 0.05813953488372192,
          "durationTicks": 5,
          "midi": 43,
          "name": "G2",
          "ticks": 4928,
          "time": 57.30232558139535,
          "velocity": 0.11023622047244094
        },
        {
          "duration": 0.03488372093023173,
          "durationTicks": 3,
          "midi": 42,
          "name": "F#2",
          "ticks": 4933,
          "time": 57.36046511627907,
          "velocity": 0.1732283464566929
        },
        {
          "duration": 0.2093023255813975,
          "durationTicks": 18,
          "midi": 50,
          "name": "D3",
          "ticks": 4935,
          "time": 57.383720930232556,
          "velocity": 0.11811023622047244
        },
        {
          "duration": 0.05813953488372192,
          "durationTicks": 5,
          "midi": 83,
          "name": "B5",
          "ticks": 4935,
          "time": 57.383720930232556,
          "velocity": 0.15748031496062992
        },
        {
          "duration": 0.19767441860464885,
          "durationTicks": 17,
          "midi": 43,
          "name": "G2",
          "ticks": 4936,
          "time": 57.395348837209305,
          "velocity": 0.1968503937007874
        },
        {
          "duration": 0.1046511627906952,
          "durationTicks": 9,
          "midi": 83,
          "name": "B5",
          "ticks": 4947,
          "time": 57.52325581395349,
          "velocity": 0.11811023622047244
        },
        {
          "duration": 0.05813953488372192,
          "durationTicks": 5,
          "midi": 85,
          "name": "C#6",
          "ticks": 4947,
          "time": 57.52325581395349,
          "velocity": 0.07086614173228346
        },
        {
          "duration": 0.38372093023255616,
          "durationTicks": 33,
          "midi": 67,
          "name": "G4",
          "ticks": 4953,
          "time": 57.593023255813954,
          "velocity": 0.3779527559055118
        },
        {
          "duration": 0.23255813953488058,
          "durationTicks": 20,
          "midi": 70,
          "name": "A#4",
          "ticks": 4953,
          "time": 57.593023255813954,
          "velocity": 0.4015748031496063
        },
        {
          "duration": 0.23255813953488058,
          "durationTicks": 20,
          "midi": 77,
          "name": "F5",
          "ticks": 4953,
          "time": 57.593023255813954,
          "velocity": 0.41732283464566927
        },
        {
          "duration": 0.2906976744186096,
          "durationTicks": 25,
          "midi": 62,
          "name": "D4",
          "ticks": 4954,
          "time": 57.604651162790695,
          "velocity": 0.31496062992125984
        },
        {
          "duration": 0.4418604651162781,
          "durationTicks": 38,
          "midi": 74,
          "name": "D5",
          "ticks": 4954,
          "time": 57.604651162790695,
          "velocity": 0.3779527559055118
        },
        {
          "duration": 1.0348837209302317,
          "durationTicks": 89,
          "midi": 79,
          "name": "G5",
          "ticks": 4954,
          "time": 57.604651162790695,
          "velocity": 0.49606299212598426
        },
        {
          "duration": 0.1046511627907023,
          "durationTicks": 9,
          "midi": 93,
          "name": "A6",
          "ticks": 4954,
          "time": 57.604651162790695,
          "velocity": 0.10236220472440945
        },
        {
          "duration": 0.05813953488372192,
          "durationTicks": 5,
          "midi": 50,
          "name": "D3",
          "ticks": 4956,
          "time": 57.627906976744185,
          "velocity": 0.11811023622047244
        },
        {
          "duration": 0.12790697674418539,
          "durationTicks": 11,
          "midi": 57,
          "name": "A3",
          "ticks": 4960,
          "time": 57.674418604651166,
          "velocity": 0.07086614173228346
        },
        {
          "duration": 0.12790697674418539,
          "durationTicks": 11,
          "midi": 38,
          "name": "D2",
          "ticks": 4961,
          "time": 57.68604651162791,
          "velocity": 0.16535433070866143
        },
        {
          "duration": 0.02325581395349019,
          "durationTicks": 2,
          "midi": 45,
          "name": "A2",
          "ticks": 4973,
          "time": 57.825581395348834,
          "velocity": 0.2440944881889764
        },
        {
          "duration": 0.04651162790698038,
          "durationTicks": 4,
          "midi": 69,
          "name": "A4",
          "ticks": 4973,
          "time": 57.825581395348834,
          "velocity": 0.3779527559055118
        },
        {
          "duration": 0.22093023255813904,
          "durationTicks": 19,
          "midi": 72,
          "name": "C5",
          "ticks": 4973,
          "time": 57.825581395348834,
          "velocity": 0.3543307086614173
        },
        {
          "duration": 0.2325581395348877,
          "durationTicks": 20,
          "midi": 76,
          "name": "E5",
          "ticks": 4973,
          "time": 57.825581395348834,
          "velocity": 0.4251968503937008
        },
        {
          "duration": 0.1860465116279073,
          "durationTicks": 16,
          "midi": 83,
          "name": "B5",
          "ticks": 4973,
          "time": 57.825581395348834,
          "velocity": 0.09448818897637795
        },
        {
          "duration": 0.04651162790698038,
          "durationTicks": 4,
          "midi": 95,
          "name": "B6",
          "ticks": 4975,
          "time": 57.848837209302324,
          "velocity": 0.14173228346456693
        },
        {
          "duration": 0.046511627906973274,
          "durationTicks": 4,
          "midi": 48,
          "name": "C3",
          "ticks": 4976,
          "time": 57.86046511627907,
          "velocity": 0.1889763779527559
        },
        {
          "duration": 0.15116279069767558,
          "durationTicks": 13,
          "midi": 69,
          "name": "A4",
          "ticks": 4980,
          "time": 57.906976744186046,
          "velocity": 0.33858267716535434
        },
        {
          "duration": 0.13953488372093403,
          "durationTicks": 12,
          "midi": 48,
          "name": "C3",
          "ticks": 4981,
          "time": 57.91860465116279,
          "velocity": 0.1968503937007874
        },
        {
          "duration": 0.081395348837205,
          "durationTicks": 7,
          "midi": 41,
          "name": "F2",
          "ticks": 4982,
          "time": 57.93023255813954,
          "velocity": 0.12598425196850394
        },
        {
          "duration": 0.04651162790698038,
          "durationTicks": 4,
          "midi": 62,
          "name": "D4",
          "ticks": 4983,
          "time": 57.94186046511628,
          "velocity": 0.14173228346456693
        },
        {
          "duration": 0.046511627906973274,
          "durationTicks": 4,
          "midi": 62,
          "name": "D4",
          "ticks": 4988,
          "time": 58,
          "velocity": 0.12598425196850394
        },
        {
          "duration": 0.5581395348837219,
          "durationTicks": 48,
          "midi": 67,
          "name": "G4",
          "ticks": 4989,
          "time": 58.01162790697674,
          "velocity": 0.4409448818897638
        },
        {
          "duration": 0.5581395348837219,
          "durationTicks": 48,
          "midi": 70,
          "name": "A#4",
          "ticks": 4992,
          "time": 58.04651162790697,
          "velocity": 0.48031496062992124
        },
        {
          "duration": 0.03488372093023884,
          "durationTicks": 3,
          "midi": 86,
          "name": "D6",
          "ticks": 4992,
          "time": 58.04651162790697,
          "velocity": 0.07874015748031496
        },
        {
          "duration": 1.1279069767441854,
          "durationTicks": 97,
          "midi": 74,
          "name": "D5",
          "ticks": 4993,
          "time": 58.05813953488372,
          "velocity": 0.49606299212598426
        },
        {
          "duration": 0.23255813953488058,
          "durationTicks": 20,
          "midi": 77,
          "name": "F5",
          "ticks": 4993,
          "time": 58.05813953488372,
          "velocity": 0.4251968503937008
        },
        {
          "duration": 0.046511627906973274,
          "durationTicks": 4,
          "midi": 95,
          "name": "B6",
          "ticks": 4993,
          "time": 58.05813953488372,
          "velocity": 0.07086614173228346
        },
        {
          "duration": 0.02325581395349019,
          "durationTicks": 2,
          "midi": 44,
          "name": "G#2",
          "ticks": 4994,
          "time": 58.06976744186046,
          "velocity": 0.25196850393700787
        },
        {
          "duration": 0.2093023255813975,
          "durationTicks": 18,
          "midi": 62,
          "name": "D4",
          "ticks": 4994,
          "time": 58.06976744186046,
          "velocity": 0.2677165354330709
        },
        {
          "duration": 0.046511627906973274,
          "durationTicks": 4,
          "midi": 43,
          "name": "G2",
          "ticks": 4996,
          "time": 58.093023255813954,
          "velocity": 0.2440944881889764
        },
        {
          "duration": 0.2674418604651194,
          "durationTicks": 23,
          "midi": 88,
          "name": "E6",
          "ticks": 4996,
          "time": 58.093023255813954,
          "velocity": 0.11023622047244094
        },
        {
          "duration": 0.16279069767441712,
          "durationTicks": 14,
          "midi": 50,
          "name": "D3",
          "ticks": 4998,
          "time": 58.116279069767444,
          "velocity": 0.2204724409448819
        },
        {
          "duration": 0.03488372093023173,
          "durationTicks": 3,
          "midi": 58,
          "name": "A#3",
          "ticks": 5012,
          "time": 58.27906976744186,
          "velocity": 0.12598425196850394
        },
        {
          "duration": 0.1046511627906952,
          "durationTicks": 9,
          "midi": 64,
          "name": "E4",
          "ticks": 5012,
          "time": 58.27906976744186,
          "velocity": 0.3937007874015748
        },
        {
          "duration": 0.13953488372092693,
          "durationTicks": 12,
          "midi": 93,
          "name": "A6",
          "ticks": 5012,
          "time": 58.27906976744186,
          "velocity": 0.16535433070866143
        },
        {
          "duration": 0.12790697674418539,
          "durationTicks": 11,
          "midi": 95,
          "name": "B6",
          "ticks": 5012,
          "time": 58.27906976744186,
          "velocity": 0.2125984251968504
        },
        {
          "duration": 0.04651162790698038,
          "durationTicks": 4,
          "midi": 83,
          "name": "B5",
          "ticks": 5013,
          "time": 58.2906976744186,
          "velocity": 0.2204724409448819
        },
        {
          "duration": 0.03488372093023173,
          "durationTicks": 3,
          "midi": 45,
          "name": "A2",
          "ticks": 5014,
          "time": 58.30232558139535,
          "velocity": 0.30708661417322836
        },
        {
          "duration": 0.05813953488372192,
          "durationTicks": 5,
          "midi": 46,
          "name": "A#2",
          "ticks": 5017,
          "time": 58.33720930232558,
          "velocity": 0.30708661417322836
        },
        {
          "duration": 0.03488372093023884,
          "durationTicks": 3,
          "midi": 64,
          "name": "E4",
          "ticks": 5024,
          "time": 58.41860465116279,
          "velocity": 0.2992125984251969
        },
        {
          "duration": 0.046511627906973274,
          "durationTicks": 4,
          "midi": 83,
          "name": "B5",
          "ticks": 5025,
          "time": 58.43023255813954,
          "velocity": 0.09448818897637795
        },
        {
          "duration": 0.081395348837205,
          "durationTicks": 7,
          "midi": 89,
          "name": "F6",
          "ticks": 5025,
          "time": 58.43023255813954,
          "velocity": 0.13385826771653545
        },
        {
          "duration": 0.04651162790698038,
          "durationTicks": 4,
          "midi": 53,
          "name": "F3",
          "ticks": 5026,
          "time": 58.44186046511628,
          "velocity": 0.08661417322834646
        },
        {
          "duration": 0.16279069767441712,
          "durationTicks": 14,
          "midi": 64,
          "name": "E4",
          "ticks": 5028,
          "time": 58.46511627906977,
          "velocity": 0.3937007874015748
        },
        {
          "duration": 0.03488372093023173,
          "durationTicks": 3,
          "midi": 53,
          "name": "F3",
          "ticks": 5031,
          "time": 58.5,
          "velocity": 0.11811023622047244
        },
        {
          "duration": 0.11627906976744384,
          "durationTicks": 10,
          "midi": 83,
          "name": "B5",
          "ticks": 5032,
          "time": 58.51162790697674,
          "velocity": 0.2125984251968504
        },
        {
          "duration": 0.058139534883714816,
          "durationTicks": 5,
          "midi": 67,
          "name": "G4",
          "ticks": 5038,
          "time": 58.58139534883721,
          "velocity": 0.10236220472440945
        },
        {
          "duration": 0.1046511627906952,
          "durationTicks": 9,
          "midi": 62,
          "name": "D4",
          "ticks": 5042,
          "time": 58.627906976744185,
          "velocity": 0.33070866141732286
        },
        {
          "duration": 0.30232558139535115,
          "durationTicks": 26,
          "midi": 82,
          "name": "A#5",
          "ticks": 5047,
          "time": 58.68604651162791,
          "velocity": 0.4330708661417323
        },
        {
          "duration": 0.4186046511627879,
          "durationTicks": 36,
          "midi": 79,
          "name": "G5",
          "ticks": 5050,
          "time": 58.72093023255814,
          "velocity": 0.48031496062992124
        },
        {
          "duration": 0.11627906976744384,
          "durationTicks": 10,
          "midi": 58,
          "name": "A#3",
          "ticks": 5051,
          "time": 58.73255813953488,
          "velocity": 0.25984251968503935
        },
        {
          "duration": 0.3604651162790731,
          "durationTicks": 31,
          "midi": 67,
          "name": "G4",
          "ticks": 5051,
          "time": 58.73255813953488,
          "velocity": 0.4251968503937008
        },
        {
          "duration": 0.3604651162790731,
          "durationTicks": 31,
          "midi": 70,
          "name": "A#4",
          "ticks": 5051,
          "time": 58.73255813953488,
          "velocity": 0.44881889763779526
        },
        {
          "duration": 0.13953488372093403,
          "durationTicks": 12,
          "midi": 93,
          "name": "A6",
          "ticks": 5051,
          "time": 58.73255813953488,
          "velocity": 0.2125984251968504
        },
        {
          "duration": 0.11627906976744384,
          "durationTicks": 10,
          "midi": 62,
          "name": "D4",
          "ticks": 5052,
          "time": 58.74418604651163,
          "velocity": 0.3779527559055118
        },
        {
          "duration": 0.046511627906973274,
          "durationTicks": 4,
          "midi": 95,
          "name": "B6",
          "ticks": 5052,
          "time": 58.74418604651163,
          "velocity": 0.08661417322834646
        },
        {
          "duration": 0.02325581395349019,
          "durationTicks": 2,
          "midi": 45,
          "name": "A2",
          "ticks": 5053,
          "time": 58.75581395348837,
          "velocity": 0.3700787401574803
        },
        {
          "duration": 0.1046511627907023,
          "durationTicks": 9,
          "midi": 89,
          "name": "F6",
          "ticks": 5053,
          "time": 58.75581395348837,
          "velocity": 0.13385826771653545
        },
        {
          "duration": 0.05813953488372192,
          "durationTicks": 5,
          "midi": 46,
          "name": "A#2",
          "ticks": 5055,
          "time": 58.77906976744186,
          "velocity": 0.3464566929133858
        },
        {
          "duration": 0.15116279069767558,
          "durationTicks": 13,
          "midi": 72,
          "name": "C5",
          "ticks": 5061,
          "time": 58.848837209302324,
          "velocity": 0.3228346456692913
        },
        {
          "duration": 0.12790697674418539,
          "durationTicks": 11,
          "midi": 46,
          "name": "A#2",
          "ticks": 5062,
          "time": 58.86046511627907,
          "velocity": 0.23622047244094488
        },
        {
          "duration": 0.11627906976743674,
          "durationTicks": 10,
          "midi": 60,
          "name": "C4",
          "ticks": 5062,
          "time": 58.86046511627907,
          "velocity": 0.4015748031496063
        },
        {
          "duration": 0.13953488372092693,
          "durationTicks": 12,
          "midi": 88,
          "name": "E6",
          "ticks": 5062,
          "time": 58.86046511627907,
          "velocity": 0.11023622047244094
        },
        {
          "duration": 0.09302325581395365,
          "durationTicks": 8,
          "midi": 62,
          "name": "D4",
          "ticks": 5072,
          "time": 58.97674418604651,
          "velocity": 0.3464566929133858
        },
        {
          "duration": 0.2093023255813904,
          "durationTicks": 18,
          "midi": 60,
          "name": "C4",
          "ticks": 5081,
          "time": 59.08139534883721,
          "velocity": 0.4015748031496063
        },
        {
          "duration": 0.3488372093023244,
          "durationTicks": 30,
          "midi": 88,
          "name": "E6",
          "ticks": 5081,
          "time": 59.08139534883721,
          "velocity": 0.33858267716535434
        },
        {
          "duration": 0.12790697674418539,
          "durationTicks": 11,
          "midi": 64,
          "name": "E4",
          "ticks": 5090,
          "time": 59.18604651162791,
          "velocity": 0.23622047244094488
        },
        {
          "duration": 0.40697674418604635,
          "durationTicks": 35,
          "midi": 69,
          "name": "A4",
          "ticks": 5090,
          "time": 59.18604651162791,
          "velocity": 0.3937007874015748
        },
        {
          "duration": 0.3372093023255829,
          "durationTicks": 29,
          "midi": 73,
          "name": "C#5",
          "ticks": 5090,
          "time": 59.18604651162791,
          "velocity": 0.5039370078740157
        },
        {
          "duration": 0.30232558139535115,
          "durationTicks": 26,
          "midi": 76,
          "name": "E5",
          "ticks": 5090,
          "time": 59.18604651162791,
          "velocity": 0.44881889763779526
        },
        {
          "duration": 0.12790697674418539,
          "durationTicks": 11,
          "midi": 45,
          "name": "A2",
          "ticks": 5091,
          "time": 59.19767441860465,
          "velocity": 0.48031496062992124
        },
        {
          "duration": 0.5930232558139537,
          "durationTicks": 51,
          "midi": 83,
          "name": "B5",
          "ticks": 5091,
          "time": 59.19767441860465,
          "velocity": 0.31496062992125984
        },
        {
          "duration": 0.09302325581395365,
          "durationTicks": 8,
          "midi": 87,
          "name": "D#6",
          "ticks": 5091,
          "time": 59.19767441860465,
          "velocity": 0.15748031496062992
        },
        {
          "duration": 0.023255813953483084,
          "durationTicks": 2,
          "midi": 71,
          "name": "B4",
          "ticks": 5092,
          "time": 59.2093023255814,
          "velocity": 0.25984251968503935
        },
        {
          "duration": 0.12790697674418539,
          "durationTicks": 11,
          "midi": 92,
          "name": "G#6",
          "ticks": 5092,
          "time": 59.2093023255814,
          "velocity": 0.07086614173228346
        },
        {
          "duration": 0.03488372093023884,
          "durationTicks": 3,
          "midi": 79,
          "name": "G5",
          "ticks": 5094,
          "time": 59.23255813953488,
          "velocity": 0.08661417322834646
        },
        {
          "duration": 0.04651162790698038,
          "durationTicks": 4,
          "midi": 79,
          "name": "G5",
          "ticks": 5099,
          "time": 59.2906976744186,
          "velocity": 0.11023622047244094
        },
        {
          "duration": 0.1046511627906952,
          "durationTicks": 9,
          "midi": 67,
          "name": "G4",
          "ticks": 5101,
          "time": 59.31395348837209,
          "velocity": 0.30708661417322836
        },
        {
          "duration": 0.16279069767442422,
          "durationTicks": 14,
          "midi": 64,
          "name": "E4",
          "ticks": 5102,
          "time": 59.325581395348834,
          "velocity": 0.1968503937007874
        },
        {
          "duration": 0.04651162790698038,
          "durationTicks": 4,
          "midi": 87,
          "name": "D#6",
          "ticks": 5102,
          "time": 59.325581395348834,
          "velocity": 0.12598425196850394
        },
        {
          "duration": 0.081395348837205,
          "durationTicks": 7,
          "midi": 45,
          "name": "A2",
          "ticks": 5103,
          "time": 59.33720930232558,
          "velocity": 0.4330708661417323
        },
        {
          "duration": 0.046511627906973274,
          "durationTicks": 4,
          "midi": 61,
          "name": "C#4",
          "ticks": 5106,
          "time": 59.372093023255815,
          "velocity": 0.16535433070866143
        },
        {
          "duration": 0.06976744186047057,
          "durationTicks": 6,
          "midi": 89,
          "name": "F6",
          "ticks": 5110,
          "time": 59.41860465116279,
          "velocity": 0.11023622047244094
        },
        {
          "duration": 0.02325581395349019,
          "durationTicks": 2,
          "midi": 45,
          "name": "A2",
          "ticks": 5111,
          "time": 59.43023255813954,
          "velocity": 0.3464566929133858
        },
        {
          "duration": 0.05813953488372192,
          "durationTicks": 5,
          "midi": 55,
          "name": "G3",
          "ticks": 5111,
          "time": 59.43023255813954,
          "velocity": 0.16535433070866143
        },
        {
          "duration": 0.03488372093023173,
          "durationTicks": 3,
          "midi": 79,
          "name": "G5",
          "ticks": 5111,
          "time": 59.43023255813954,
          "velocity": 0.11811023622047244
        },
        {
          "duration": 0.19767441860465595,
          "durationTicks": 17,
          "midi": 87,
          "name": "D#6",
          "ticks": 5115,
          "time": 59.47674418604651,
          "velocity": 0.1889763779527559
        },
        {
          "duration": 0.03488372093023173,
          "durationTicks": 3,
          "midi": 45,
          "name": "A2",
          "ticks": 5116,
          "time": 59.48837209302326,
          "velocity": 0.2677165354330709
        },
        {
          "duration": 0.03488372093023173,
          "durationTicks": 3,
          "midi": 60,
          "name": "C4",
          "ticks": 5116,
          "time": 59.48837209302326,
          "velocity": 0.10236220472440945
        },
        {
          "duration": 0.15116279069766847,
          "durationTicks": 13,
          "midi": 65,
          "name": "F4",
          "ticks": 5116,
          "time": 59.48837209302326,
          "velocity": 0.36220472440944884
        },
        {
          "duration": 0.15116279069766847,
          "durationTicks": 13,
          "midi": 91,
          "name": "G6",
          "ticks": 5116,
          "time": 59.48837209302326,
          "velocity": 0.10236220472440945
        },
        {
          "duration": 0.19767441860464885,
          "durationTicks": 17,
          "midi": 53,
          "name": "F3",
          "ticks": 5117,
          "time": 59.5,
          "velocity": 0.2992125984251969
        },
        {
          "duration": 0.12790697674418539,
          "durationTicks": 11,
          "midi": 74,
          "name": "D5",
          "ticks": 5119,
          "time": 59.52325581395349,
          "velocity": 0.33858267716535434
        },
        {
          "duration": 0.05813953488372192,
          "durationTicks": 5,
          "midi": 72,
          "name": "C5",
          "ticks": 5125,
          "time": 59.593023255813954,
          "velocity": 0.33070866141732286
        },
        {
          "duration": 0.9767441860465098,
          "durationTicks": 84,
          "midi": 69,
          "name": "A4",
          "ticks": 5128,
          "time": 59.627906976744185,
          "velocity": 0.4330708661417323
        },
        {
          "duration": 0.1046511627907023,
          "durationTicks": 9,
          "midi": 64,
          "name": "E4",
          "ticks": 5129,
          "time": 59.63953488372093,
          "velocity": 0.44881889763779526
        },
        {
          "duration": 0.22093023255814614,
          "durationTicks": 19,
          "midi": 85,
          "name": "C#6",
          "ticks": 5129,
          "time": 59.63953488372093,
          "velocity": 0.36220472440944884
        },
        {
          "duration": 0.8023255813953512,
          "durationTicks": 69,
          "midi": 88,
          "name": "E6",
          "ticks": 5129,
          "time": 59.63953488372093,
          "velocity": 0.4015748031496063
        },
        {
          "duration": 0.23255813953488058,
          "durationTicks": 20,
          "midi": 45,
          "name": "A2",
          "ticks": 5130,
          "time": 59.651162790697676,
          "velocity": 0.4645669291338583
        },
        {
          "duration": 0.22093023255813904,
          "durationTicks": 19,
          "midi": 73,
          "name": "C#5",
          "ticks": 5130,
          "time": 59.651162790697676,
          "velocity": 0.5039370078740157
        },
        {
          "duration": 0.081395348837205,
          "durationTicks": 7,
          "midi": 92,
          "name": "G#6",
          "ticks": 5130,
          "time": 59.651162790697676,
          "velocity": 0.13385826771653545
        },
        {
          "duration": 0.05813953488372192,
          "durationTicks": 5,
          "midi": 71,
          "name": "B4",
          "ticks": 5131,
          "time": 59.66279069767442,
          "velocity": 0.25984251968503935
        },
        {
          "duration": 0.13953488372092693,
          "durationTicks": 12,
          "midi": 87,
          "name": "D#6",
          "ticks": 5133,
          "time": 59.68604651162791,
          "velocity": 0.1968503937007874
        },
        {
          "duration": 0.03488372093023173,
          "durationTicks": 3,
          "midi": 52,
          "name": "E3",
          "ticks": 5136,
          "time": 59.72093023255814,
          "velocity": 0.25196850393700787
        },
        {
          "duration": 0.12790697674418539,
          "durationTicks": 11,
          "midi": 65,
          "name": "F4",
          "ticks": 5138,
          "time": 59.74418604651163,
          "velocity": 0.3543307086614173
        },
        {
          "duration": 0.12790697674418539,
          "durationTicks": 11,
          "midi": 53,
          "name": "F3",
          "ticks": 5139,
          "time": 59.75581395348837,
          "velocity": 0.1968503937007874
        },
        {
          "duration": 0.046511627906973274,
          "durationTicks": 4,
          "midi": 61,
          "name": "C#4",
          "ticks": 5140,
          "time": 59.76744186046512,
          "velocity": 0.13385826771653545
        },
        {
          "duration": 0.03488372093023173,
          "durationTicks": 3,
          "midi": 71,
          "name": "B4",
          "ticks": 5140,
          "time": 59.76744186046512,
          "velocity": 0.1732283464566929
        },
        {
          "duration": 0.4767441860465098,
          "durationTicks": 41,
          "midi": 77,
          "name": "F5",
          "ticks": 5147,
          "time": 59.848837209302324,
          "velocity": 0.4251968503937008
        },
        {
          "duration": 1.2325581395348806,
          "durationTicks": 106,
          "midi": 74,
          "name": "D5",
          "ticks": 5148,
          "time": 59.86046511627907,
          "velocity": 0.48031496062992124
        },
        {
          "duration": 0.1860465116279002,
          "durationTicks": 16,
          "midi": 93,
          "name": "A6",
          "ticks": 5148,
          "time": 59.86046511627907,
          "velocity": 0.3464566929133858
        },
        {
          "duration": 0.02325581395349019,
          "durationTicks": 2,
          "midi": 66,
          "name": "F#4",
          "ticks": 5149,
          "time": 59.872093023255815,
          "velocity": 0.25196850393700787
        },
        {
          "duration": 0.046511627906973274,
          "durationTicks": 4,
          "midi": 80,
          "name": "G#5",
          "ticks": 5149,
          "time": 59.872093023255815,
          "velocity": 0.16535433070866143
        },
        {
          "duration": 0.2093023255813904,
          "durationTicks": 18,
          "midi": 65,
          "name": "F4",
          "ticks": 5151,
          "time": 59.895348837209305,
          "velocity": 0.25196850393700787
        },
        {
          "duration": 0.13953488372092693,
          "durationTicks": 12,
          "midi": 85,
          "name": "C#6",
          "ticks": 5151,
          "time": 59.895348837209305,
          "velocity": 0.13385826771653545
        },
        {
          "duration": 0.19767441860464885,
          "durationTicks": 17,
          "midi": 57,
          "name": "A3",
          "ticks": 5152,
          "time": 59.906976744186046,
          "velocity": 0.25984251968503935
        },
        {
          "duration": 0.08139534883721211,
          "durationTicks": 7,
          "midi": 72,
          "name": "C5",
          "ticks": 5152,
          "time": 59.906976744186046,
          "velocity": 0.2440944881889764
        },
        {
          "duration": 0.06976744186047057,
          "durationTicks": 6,
          "midi": 45,
          "name": "A2",
          "ticks": 5153,
          "time": 59.91860465116279,
          "velocity": 0.36220472440944884
        },
        {
          "duration": 0.06976744186046346,
          "durationTicks": 6,
          "midi": 83,
          "name": "B5",
          "ticks": 5156,
          "time": 59.95348837209303,
          "velocity": 0.09448818897637795
        },
        {
          "duration": 0.081395348837205,
          "durationTicks": 7,
          "midi": 62,
          "name": "D4",
          "ticks": 5157,
          "time": 59.96511627906977,
          "velocity": 0.2125984251968504
        },
        {
          "duration": 0.1046511627907023,
          "durationTicks": 9,
          "midi": 95,
          "name": "B6",
          "ticks": 5158,
          "time": 59.97674418604651,
          "velocity": 0.11023622047244094
        },
        {
          "duration": 0.02325581395349019,
          "durationTicks": 2,
          "midi": 45,
          "name": "A2",
          "ticks": 5160,
          "time": 60,
          "velocity": 0.33070866141732286
        },
        {
          "duration": 0.08139534883721211,
          "durationTicks": 7,
          "midi": 72,
          "name": "C5",
          "ticks": 5161,
          "time": 60.01162790697674,
          "velocity": 0.16535433070866143
        },
        {
          "duration": 0.046511627906973274,
          "durationTicks": 4,
          "midi": 45,
          "name": "A2",
          "ticks": 5165,
          "time": 60.05813953488372,
          "velocity": 0.29133858267716534
        },
        {
          "duration": 0.046511627906973274,
          "durationTicks": 4,
          "midi": 50,
          "name": "D3",
          "ticks": 5165,
          "time": 60.05813953488372,
          "velocity": 0.2677165354330709
        },
        {
          "duration": 0.046511627906973274,
          "durationTicks": 4,
          "midi": 83,
          "name": "B5",
          "ticks": 5165,
          "time": 60.05813953488372,
          "velocity": 0.07874015748031496
        },
        {
          "duration": 0.2093023255813904,
          "durationTicks": 18,
          "midi": 65,
          "name": "F4",
          "ticks": 5170,
          "time": 60.116279069767444,
          "velocity": 0.2992125984251969
        },
        {
          "duration": 0.02325581395349019,
          "durationTicks": 2,
          "midi": 45,
          "name": "A2",
          "ticks": 5171,
          "time": 60.127906976744185,
          "velocity": 0.28346456692913385
        },
        {
          "duration": 0.02325581395349019,
          "durationTicks": 2,
          "midi": 50,
          "name": "D3",
          "ticks": 5172,
          "time": 60.13953488372093,
          "velocity": 0.2440944881889764
        },
        {
          "duration": 0.09302325581395365,
          "durationTicks": 8,
          "midi": 72,
          "name": "C5",
          "ticks": 5176,
          "time": 60.18604651162791,
          "velocity": 0.08661417322834646
        },
        {
          "duration": 0.1046511627906952,
          "durationTicks": 9,
          "midi": 84,
          "name": "C6",
          "ticks": 5176,
          "time": 60.18604651162791,
          "velocity": 0.16535433070866143
        },
        {
          "duration": 0.04651162790698038,
          "durationTicks": 4,
          "midi": 50,
          "name": "D3",
          "ticks": 5177,
          "time": 60.19767441860465,
          "velocity": 0.2440944881889764
        },
        {
          "duration": 0.02325581395349019,
          "durationTicks": 2,
          "midi": 45,
          "name": "A2",
          "ticks": 5179,
          "time": 60.22093023255814,
          "velocity": 0.23622047244094488
        },
        {
          "duration": 0.03488372093023173,
          "durationTicks": 3,
          "midi": 45,
          "name": "A2",
          "ticks": 5184,
          "time": 60.27906976744186,
          "velocity": 0.1889763779527559
        },
        {
          "duration": 0.08139534883721211,
          "durationTicks": 7,
          "midi": 60,
          "name": "C4",
          "ticks": 5187,
          "time": 60.31395348837209,
          "velocity": 0.3464566929133858
        },
        {
          "duration": 0.05813953488372192,
          "durationTicks": 5,
          "midi": 85,
          "name": "C#6",
          "ticks": 5188,
          "time": 60.325581395348834,
          "velocity": 0.13385826771653545
        },
        {
          "duration": 0.06976744186047057,
          "durationTicks": 6,
          "midi": 89,
          "name": "F6",
          "ticks": 5188,
          "time": 60.325581395348834,
          "velocity": 0.18110236220472442
        },
        {
          "duration": 0.03488372093023173,
          "durationTicks": 3,
          "midi": 50,
          "name": "D3",
          "ticks": 5189,
          "time": 60.33720930232558,
          "velocity": 0.1968503937007874
        },
        {
          "duration": 0.24418604651162923,
          "durationTicks": 21,
          "midi": 77,
          "name": "F5",
          "ticks": 5189,
          "time": 60.33720930232558,
          "velocity": 0.4409448818897638
        },
        {
          "duration": 0.2325581395348877,
          "durationTicks": 20,
          "midi": 65,
          "name": "F4",
          "ticks": 5190,
          "time": 60.348837209302324,
          "velocity": 0.36220472440944884
        },
        {
          "duration": 0.02325581395349019,
          "durationTicks": 2,
          "midi": 62,
          "name": "D4",
          "ticks": 5192,
          "time": 60.372093023255815,
          "velocity": 0.3228346456692913
        },
        {
          "duration": 0.16279069767441712,
          "durationTicks": 14,
          "midi": 50,
          "name": "D3",
          "ticks": 5193,
          "time": 60.383720930232556,
          "velocity": 0.2047244094488189
        },
        {
          "duration": 0.03488372093023173,
          "durationTicks": 3,
          "midi": 38,
          "name": "D2",
          "ticks": 5195,
          "time": 60.406976744186046,
          "velocity": 0.15748031496062992
        },
        {
          "duration": 0.02325581395349019,
          "durationTicks": 2,
          "midi": 60,
          "name": "C4",
          "ticks": 5197,
          "time": 60.43023255813954,
          "velocity": 0.30708661417322836
        },
        {
          "duration": 0.046511627906973274,
          "durationTicks": 4,
          "midi": 88,
          "name": "E6",
          "ticks": 5199,
          "time": 60.45348837209303,
          "velocity": 0.13385826771653545
        },
        {
          "duration": 0.06976744186046346,
          "durationTicks": 6,
          "midi": 38,
          "name": "D2",
          "ticks": 5202,
          "time": 60.48837209302326,
          "velocity": 0.15748031496062992
        },
        {
          "duration": 0.02325581395349019,
          "durationTicks": 2,
          "midi": 62,
          "name": "D4",
          "ticks": 5203,
          "time": 60.5,
          "velocity": 0.28346456692913385
        },
        {
          "duration": 0.023255813953483084,
          "durationTicks": 2,
          "midi": 60,
          "name": "C4",
          "ticks": 5205,
          "time": 60.52325581395349,
          "velocity": 0.25984251968503935
        },
        {
          "duration": 0.046511627906973274,
          "durationTicks": 4,
          "midi": 88,
          "name": "E6",
          "ticks": 5205,
          "time": 60.52325581395349,
          "velocity": 0.14173228346456693
        },
        {
          "duration": 0.02325581395349019,
          "durationTicks": 2,
          "midi": 49,
          "name": "C#3",
          "ticks": 5207,
          "time": 60.54651162790697,
          "velocity": 0.3228346456692913
        },
        {
          "duration": 0.02325581395349019,
          "durationTicks": 2,
          "midi": 59,
          "name": "B3",
          "ticks": 5207,
          "time": 60.54651162790697,
          "velocity": 0.2992125984251969
        },
        {
          "duration": 0.05813953488372192,
          "durationTicks": 5,
          "midi": 72,
          "name": "C5",
          "ticks": 5207,
          "time": 60.54651162790697,
          "velocity": 0.33070866141732286
        },
        {
          "duration": 0.2674418604651123,
          "durationTicks": 23,
          "midi": 83,
          "name": "B5",
          "ticks": 5208,
          "time": 60.55813953488372,
          "velocity": 0.2125984251968504
        },
        {
          "duration": 0.02325581395349019,
          "durationTicks": 2,
          "midi": 61,
          "name": "C#4",
          "ticks": 5209,
          "time": 60.56976744186046,
          "velocity": 0.2677165354330709
        },
        {
          "duration": 0.2093023255813975,
          "durationTicks": 18,
          "midi": 67,
          "name": "G4",
          "ticks": 5209,
          "time": 60.56976744186046,
          "velocity": 0.25984251968503935
        },
        {
          "duration": 0.16279069767441712,
          "durationTicks": 14,
          "midi": 76,
          "name": "E5",
          "ticks": 5209,
          "time": 60.56976744186046,
          "velocity": 0.25984251968503935
        },
        {
          "duration": 0.023255813953483084,
          "durationTicks": 2,
          "midi": 47,
          "name": "B2",
          "ticks": 5210,
          "time": 60.58139534883721,
          "velocity": 0.28346456692913385
        },
        {
          "duration": 0.19767441860464885,
          "durationTicks": 17,
          "midi": 64,
          "name": "E4",
          "ticks": 5210,
          "time": 60.58139534883721,
          "velocity": 0.2992125984251969
        },
        {
          "duration": 0.05813953488372192,
          "durationTicks": 5,
          "midi": 82,
          "name": "A#5",
          "ticks": 5211,
          "time": 60.593023255813954,
          "velocity": 0.11811023622047244
        },
        {
          "duration": 0.11627906976744384,
          "durationTicks": 10,
          "midi": 48,
          "name": "C3",
          "ticks": 5212,
          "time": 60.604651162790695,
          "velocity": 0.2992125984251969
        },
        {
          "duration": 0.02325581395349019,
          "durationTicks": 2,
          "midi": 59,
          "name": "B3",
          "ticks": 5212,
          "time": 60.604651162790695,
          "velocity": 0.3543307086614173
        },
        {
          "duration": 0.03488372093023173,
          "durationTicks": 3,
          "midi": 60,
          "name": "C4",
          "ticks": 5214,
          "time": 60.627906976744185,
          "velocity": 0.33858267716535434
        },
        {
          "duration": 0.046511627906973274,
          "durationTicks": 4,
          "midi": 55,
          "name": "G3",
          "ticks": 5218,
          "time": 60.674418604651166,
          "velocity": 0.14173228346456693
        },
        {
          "duration": 0.1046511627906952,
          "durationTicks": 9,
          "midi": 60,
          "name": "C4",
          "ticks": 5218,
          "time": 60.674418604651166,
          "velocity": 0.3464566929133858
        },
        {
          "duration": 0.5348837209302317,
          "durationTicks": 46,
          "midi": 77,
          "name": "F5",
          "ticks": 5222,
          "time": 60.72093023255814,
          "velocity": 0.3937007874015748
        },
        {
          "duration": 0.03488372093023884,
          "durationTicks": 3,
          "midi": 48,
          "name": "C3",
          "ticks": 5223,
          "time": 60.73255813953488,
          "velocity": 0.2440944881889764
        },
        {
          "duration": 0.03488372093023884,
          "durationTicks": 3,
          "midi": 55,
          "name": "G3",
          "ticks": 5223,
          "time": 60.73255813953488,
          "velocity": 0.08661417322834646
        },
        {
          "duration": 0.02325581395349019,
          "durationTicks": 2,
          "midi": 48,
          "name": "C3",
          "ticks": 5227,
          "time": 60.77906976744186,
          "velocity": 0.29133858267716534
        },
        {
          "duration": 0.02325581395349019,
          "durationTicks": 2,
          "midi": 59,
          "name": "B3",
          "ticks": 5227,
          "time": 60.77906976744186,
          "velocity": 0.25984251968503935
        },
        {
          "duration": 0.3139534883720927,
          "durationTicks": 27,
          "midi": 65,
          "name": "F4",
          "ticks": 5227,
          "time": 60.77906976744186,
          "velocity": 0.33070866141732286
        },
        {
          "duration": 0.06976744186047057,
          "durationTicks": 6,
          "midi": 81,
          "name": "A5",
          "ticks": 5228,
          "time": 60.7906976744186,
          "velocity": 0.09448818897637795
        },
        {
          "duration": 0.03488372093023173,
          "durationTicks": 3,
          "midi": 85,
          "name": "C#6",
          "ticks": 5228,
          "time": 60.7906976744186,
          "velocity": 0.08661417322834646
        },
        {
          "duration": 0.04651162790698038,
          "durationTicks": 4,
          "midi": 91,
          "name": "G6",
          "ticks": 5228,
          "time": 60.7906976744186,
          "velocity": 0.07086614173228346
        },
        {
          "duration": 0.023255813953483084,
          "durationTicks": 2,
          "midi": 49,
          "name": "C#3",
          "ticks": 5229,
          "time": 60.80232558139535,
          "velocity": 0.2283464566929134
        },
        {
          "duration": 0.04651162790698038,
          "durationTicks": 4,
          "midi": 60,
          "name": "C4",
          "ticks": 5230,
          "time": 60.81395348837209,
          "velocity": 0.30708661417322836
        },
        {
          "duration": 0.2093023255813975,
          "durationTicks": 18,
          "midi": 88,
          "name": "E6",
          "ticks": 5230,
          "time": 60.81395348837209,
          "velocity": 0.1889763779527559
        },
        {
          "duration": 0.046511627906973274,
          "durationTicks": 4,
          "midi": 38,
          "name": "D2",
          "ticks": 5232,
          "time": 60.83720930232558,
          "velocity": 0.1889763779527559
        },
        {
          "duration": 0.17441860465116577,
          "durationTicks": 15,
          "midi": 50,
          "name": "D3",
          "ticks": 5233,
          "time": 60.848837209302324,
          "velocity": 0.2047244094488189
        },
        {
          "duration": 0.02325581395349019,
          "durationTicks": 2,
          "midi": 60,
          "name": "C4",
          "ticks": 5235,
          "time": 60.872093023255815,
          "velocity": 0.30708661417322836
        },
        {
          "duration": 0.11627906976743674,
          "durationTicks": 10,
          "midi": 38,
          "name": "D2",
          "ticks": 5237,
          "time": 60.895348837209305,
          "velocity": 0.18110236220472442
        },
        {
          "duration": 0.02325581395349019,
          "durationTicks": 2,
          "midi": 60,
          "name": "C4",
          "ticks": 5240,
          "time": 60.93023255813954,
          "velocity": 0.2283464566929134
        },
        {
          "duration": 0.04651162790698038,
          "durationTicks": 4,
          "midi": 69,
          "name": "A4",
          "ticks": 5241,
          "time": 60.94186046511628,
          "velocity": 0.07086614173228346
        },
        {
          "duration": 0.02325581395349019,
          "durationTicks": 2,
          "midi": 60,
          "name": "C4",
          "ticks": 5243,
          "time": 60.96511627906977,
          "velocity": 0.2283464566929134
        },
        {
          "duration": 0.046511627906973274,
          "durationTicks": 4,
          "midi": 60,
          "name": "C4",
          "ticks": 5246,
          "time": 61,
          "velocity": 0.18110236220472442
        },
        {
          "duration": 0.3139534883720927,
          "durationTicks": 27,
          "midi": 81,
          "name": "A5",
          "ticks": 5246,
          "time": 61,
          "velocity": 0.2204724409448819
        },
        {
          "duration": 0.12790697674418539,
          "durationTicks": 11,
          "midi": 72,
          "name": "C5",
          "ticks": 5253,
          "time": 61.08139534883721,
          "velocity": 0.1889763779527559
        },
        {
          "duration": 0.11627906976744384,
          "durationTicks": 10,
          "midi": 60,
          "name": "C4",
          "ticks": 5254,
          "time": 61.093023255813954,
          "velocity": 0.14960629921259844
        },
        {
          "duration": 0.03488372093023884,
          "durationTicks": 3,
          "midi": 45,
          "name": "A2",
          "ticks": 5258,
          "time": 61.13953488372093,
          "velocity": 0.2283464566929134
        },
        {
          "duration": 0.03488372093023173,
          "durationTicks": 3,
          "midi": 45,
          "name": "A2",
          "ticks": 5263,
          "time": 61.19767441860465,
          "velocity": 0.2125984251968504
        },
        {
          "duration": 0.03488372093023173,
          "durationTicks": 3,
          "midi": 58,
          "name": "A#3",
          "ticks": 5265,
          "time": 61.22093023255814,
          "velocity": 0.07086614173228346
        },
        {
          "duration": 0.5116279069767486,
          "durationTicks": 44,
          "midi": 74,
          "name": "D5",
          "ticks": 5266,
          "time": 61.23255813953488,
          "velocity": 0.2992125984251969
        },
        {
          "duration": 0.23255813953488058,
          "durationTicks": 20,
          "midi": 69,
          "name": "A4",
          "ticks": 5267,
          "time": 61.24418604651163,
          "velocity": 0.07874015748031496
        },
        {
          "duration": 0.046511627906973274,
          "durationTicks": 4,
          "midi": 85,
          "name": "C#6",
          "ticks": 5267,
          "time": 61.24418604651163,
          "velocity": 0.09448818897637795
        },
        {
          "duration": 0.02325581395349019,
          "durationTicks": 2,
          "midi": 41,
          "name": "F2",
          "ticks": 5268,
          "time": 61.25581395348837,
          "velocity": 0.23622047244094488
        },
        {
          "duration": 0.1046511627907023,
          "durationTicks": 9,
          "midi": 62,
          "name": "D4",
          "ticks": 5268,
          "time": 61.25581395348837,
          "velocity": 0.23622047244094488
        },
        {
          "duration": 0.22093023255813904,
          "durationTicks": 19,
          "midi": 65,
          "name": "F4",
          "ticks": 5268,
          "time": 61.25581395348837,
          "velocity": 0.31496062992125984
        },
        {
          "duration": 0.08139534883721211,
          "durationTicks": 7,
          "midi": 84,
          "name": "C6",
          "ticks": 5268,
          "time": 61.25581395348837,
          "velocity": 0.11811023622047244
        },
        {
          "duration": 0.19767441860465595,
          "durationTicks": 17,
          "midi": 87,
          "name": "D#6",
          "ticks": 5268,
          "time": 61.25581395348837,
          "velocity": 0.07874015748031496
        },
        {
          "duration": 0.11627906976743674,
          "durationTicks": 10,
          "midi": 53,
          "name": "F3",
          "ticks": 5269,
          "time": 61.26744186046512,
          "velocity": 0.25984251968503935
        },
        {
          "duration": 0.06976744186046346,
          "durationTicks": 6,
          "midi": 72,
          "name": "C5",
          "ticks": 5269,
          "time": 61.26744186046512,
          "velocity": 0.2125984251968504
        },
        {
          "duration": 0.17441860465116577,
          "durationTicks": 15,
          "midi": 88,
          "name": "E6",
          "ticks": 5271,
          "time": 61.2906976744186,
          "velocity": 0.11811023622047244
        },
        {
          "duration": 0.11627906976744384,
          "durationTicks": 10,
          "midi": 38,
          "name": "D2",
          "ticks": 5275,
          "time": 61.33720930232558,
          "velocity": 0.16535433070866143
        },
        {
          "duration": 0.04651162790698038,
          "durationTicks": 4,
          "midi": 72,
          "name": "C5",
          "ticks": 5279,
          "time": 61.383720930232556,
          "velocity": 0.08661417322834646
        },
        {
          "duration": 0.04651162790698038,
          "durationTicks": 4,
          "midi": 62,
          "name": "D4",
          "ticks": 5281,
          "time": 61.406976744186046,
          "velocity": 0.18110236220472442
        },
        {
          "duration": 0.25581395348837077,
          "durationTicks": 22,
          "midi": 64,
          "name": "E4",
          "ticks": 5286,
          "time": 61.46511627906977,
          "velocity": 0.3464566929133858
        },
        {
          "duration": 0.05813953488372192,
          "durationTicks": 5,
          "midi": 83,
          "name": "B5",
          "ticks": 5286,
          "time": 61.46511627906977,
          "velocity": 0.2125984251968504
        },
        {
          "duration": 0.2093023255813975,
          "durationTicks": 18,
          "midi": 59,
          "name": "B3",
          "ticks": 5287,
          "time": 61.47674418604651,
          "velocity": 0.29133858267716534
        },
        {
          "duration": 0.22093023255813904,
          "durationTicks": 19,
          "midi": 82,
          "name": "A#5",
          "ticks": 5287,
          "time": 61.47674418604651,
          "velocity": 0.14960629921259844
        },
        {
          "duration": 0.03488372093023173,
          "durationTicks": 3,
          "midi": 55,
          "name": "G3",
          "ticks": 5288,
          "time": 61.48837209302326,
          "velocity": 0.1732283464566929
        },
        {
          "duration": 0.23255813953488058,
          "durationTicks": 20,
          "midi": 67,
          "name": "G4",
          "ticks": 5288,
          "time": 61.48837209302326,
          "velocity": 0.25984251968503935
        },
        {
          "duration": 0.03488372093023173,
          "durationTicks": 3,
          "midi": 39,
          "name": "D#2",
          "ticks": 5289,
          "time": 61.5,
          "velocity": 0.2440944881889764
        },
        {
          "duration": 0.06976744186046346,
          "durationTicks": 6,
          "midi": 87,
          "name": "D#6",
          "ticks": 5291,
          "time": 61.52325581395349,
          "velocity": 0.14173228346456693
        },
        {
          "duration": 0.03488372093023173,
          "durationTicks": 3,
          "midi": 40,
          "name": "E2",
          "ticks": 5298,
          "time": 61.604651162790695,
          "velocity": 0.2440944881889764
        },
        {
          "duration": 0.17441860465115866,
          "durationTicks": 15,
          "midi": 40,
          "name": "E2",
          "ticks": 5302,
          "time": 61.651162790697676,
          "velocity": 0.2283464566929134
        },
        {
          "duration": 0.4534883720930196,
          "durationTicks": 39,
          "midi": 77,
          "name": "F5",
          "ticks": 5305,
          "time": 61.68604651162791,
          "velocity": 0.4015748031496063
        },
        {
          "duration": 0.24418604651162923,
          "durationTicks": 21,
          "midi": 86,
          "name": "D6",
          "ticks": 5305,
          "time": 61.68604651162791,
          "velocity": 0.33858267716535434
        },
        {
          "duration": 0.22093023255813904,
          "durationTicks": 19,
          "midi": 81,
          "name": "A5",
          "ticks": 5306,
          "time": 61.69767441860465,
          "velocity": 0.23622047244094488
        },
        {
          "duration": 0.22093023255813904,
          "durationTicks": 19,
          "midi": 60,
          "name": "C4",
          "ticks": 5325,
          "time": 61.91860465116279,
          "velocity": 0.36220472440944884
        },
        {
          "duration": 0.22093023255813904,
          "durationTicks": 19,
          "midi": 65,
          "name": "F4",
          "ticks": 5325,
          "time": 61.91860465116279,
          "velocity": 0.3464566929133858
        },
        {
          "duration": 0.2093023255813975,
          "durationTicks": 18,
          "midi": 69,
          "name": "A4",
          "ticks": 5325,
          "time": 61.91860465116279,
          "velocity": 0.15748031496062992
        },
        {
          "duration": 0.046511627906973274,
          "durationTicks": 4,
          "midi": 45,
          "name": "A2",
          "ticks": 5326,
          "time": 61.93023255813954,
          "velocity": 0.1889763779527559
        },
        {
          "duration": 0.03488372093023173,
          "durationTicks": 3,
          "midi": 88,
          "name": "E6",
          "ticks": 5326,
          "time": 61.93023255813954,
          "velocity": 0.10236220472440945
        },
        {
          "duration": 0.04651162790698038,
          "durationTicks": 4,
          "midi": 45,
          "name": "A2",
          "ticks": 5333,
          "time": 62.01162790697674,
          "velocity": 0.2283464566929134
        },
        {
          "duration": 0.04651162790698038,
          "durationTicks": 4,
          "midi": 45,
          "name": "A2",
          "ticks": 5341,
          "time": 62.104651162790695,
          "velocity": 0.2125984251968504
        },
        {
          "duration": 0.02325581395349019,
          "durationTicks": 2,
          "midi": 59,
          "name": "B3",
          "ticks": 5344,
          "time": 62.13953488372093,
          "velocity": 0.30708661417322836
        },
        {
          "duration": 0.1046511627906952,
          "durationTicks": 9,
          "midi": 69,
          "name": "A4",
          "ticks": 5345,
          "time": 62.151162790697676,
          "velocity": 0.13385826771653545
        },
        {
          "duration": 0.24418604651162923,
          "durationTicks": 21,
          "midi": 88,
          "name": "E6",
          "ticks": 5345,
          "time": 62.151162790697676,
          "velocity": 0.14173228346456693
        },
        {
          "duration": 0.2093023255813975,
          "durationTicks": 18,
          "midi": 60,
          "name": "C4",
          "ticks": 5346,
          "time": 62.16279069767442,
          "velocity": 0.3700787401574803
        },
        {
          "duration": 0.24418604651162923,
          "durationTicks": 21,
          "midi": 65,
          "name": "F4",
          "ticks": 5346,
          "time": 62.16279069767442,
          "velocity": 0.3464566929133858
        },
        {
          "duration": 0.04651162790698038,
          "durationTicks": 4,
          "midi": 85,
          "name": "C#6",
          "ticks": 5346,
          "time": 62.16279069767442,
          "velocity": 0.12598425196850394
        },
        {
          "duration": 0.046511627906973274,
          "durationTicks": 4,
          "midi": 50,
          "name": "D3",
          "ticks": 5348,
          "time": 62.18604651162791,
          "velocity": 0.14173228346456693
        },
        {
          "duration": 0.16279069767441712,
          "durationTicks": 14,
          "midi": 38,
          "name": "D2",
          "ticks": 5350,
          "time": 62.2093023255814,
          "velocity": 0.14960629921259844
        },
        {
          "duration": 0.23255813953488058,
          "durationTicks": 20,
          "midi": 74,
          "name": "D5",
          "ticks": 5364,
          "time": 62.372093023255815,
          "velocity": 0.11811023622047244
        },
        {
          "duration": 0.03488372093023173,
          "durationTicks": 3,
          "midi": 47,
          "name": "B2",
          "ticks": 5365,
          "time": 62.383720930232556,
          "velocity": 0.28346456692913385
        },
        {
          "duration": 0.2093023255813975,
          "durationTicks": 18,
          "midi": 76,
          "name": "E5",
          "ticks": 5365,
          "time": 62.383720930232556,
          "velocity": 0.2440944881889764
        },
        {
          "duration": 0.03488372093023173,
          "durationTicks": 3,
          "midi": 59,
          "name": "B3",
          "ticks": 5366,
          "time": 62.395348837209305,
          "velocity": 0.33070866141732286
        },
        {
          "duration": 0.19767441860464885,
          "durationTicks": 17,
          "midi": 64,
          "name": "E4",
          "ticks": 5367,
          "time": 62.406976744186046,
          "velocity": 0.25984251968503935
        },
        {
          "duration": 0.19767441860464885,
          "durationTicks": 17,
          "midi": 67,
          "name": "G4",
          "ticks": 5367,
          "time": 62.406976744186046,
          "velocity": 0.2677165354330709
        },
        {
          "duration": 0.02325581395349019,
          "durationTicks": 2,
          "midi": 47,
          "name": "B2",
          "ticks": 5369,
          "time": 62.43023255813954,
          "velocity": 0.25196850393700787
        },
        {
          "duration": 0.046511627906973274,
          "durationTicks": 4,
          "midi": 48,
          "name": "C3",
          "ticks": 5371,
          "time": 62.45348837209303,
          "velocity": 0.2440944881889764
        },
        {
          "duration": 0.11627906976744384,
          "durationTicks": 10,
          "midi": 59,
          "name": "B3",
          "ticks": 5372,
          "time": 62.46511627906977,
          "velocity": 0.28346456692913385
        },
        {
          "duration": 0.06976744186046346,
          "durationTicks": 6,
          "midi": 55,
          "name": "G3",
          "ticks": 5373,
          "time": 62.47674418604651,
          "velocity": 0.12598425196850394
        },
        {
          "duration": 0.03488372093023173,
          "durationTicks": 3,
          "midi": 48,
          "name": "C3",
          "ticks": 5377,
          "time": 62.52325581395349,
          "velocity": 0.18110236220472442
        },
        {
          "duration": 0.04651162790698038,
          "durationTicks": 4,
          "midi": 48,
          "name": "C3",
          "ticks": 5381,
          "time": 62.56976744186046,
          "velocity": 0.1968503937007874
        },
        {
          "duration": 0.2558139534883779,
          "durationTicks": 22,
          "midi": 60,
          "name": "C4",
          "ticks": 5384,
          "time": 62.604651162790695,
          "velocity": 0.3543307086614173
        },
        {
          "duration": 0.02325581395349019,
          "durationTicks": 2,
          "midi": 66,
          "name": "F#4",
          "ticks": 5384,
          "time": 62.604651162790695,
          "velocity": 0.25984251968503935
        },
        {
          "duration": 0.5581395348837219,
          "durationTicks": 48,
          "midi": 81,
          "name": "A5",
          "ticks": 5384,
          "time": 62.604651162790695,
          "velocity": 0.1968503937007874
        },
        {
          "duration": 0.22093023255813904,
          "durationTicks": 19,
          "midi": 84,
          "name": "C6",
          "ticks": 5384,
          "time": 62.604651162790695,
          "velocity": 0.15748031496062992
        },
        {
          "duration": 0.2906976744186025,
          "durationTicks": 25,
          "midi": 65,
          "name": "F4",
          "ticks": 5385,
          "time": 62.616279069767444,
          "velocity": 0.3464566929133858
        },
        {
          "duration": 0.4418604651162781,
          "durationTicks": 38,
          "midi": 77,
          "name": "F5",
          "ticks": 5385,
          "time": 62.616279069767444,
          "velocity": 0.4330708661417323
        },
        {
          "duration": 0.046511627906973274,
          "durationTicks": 4,
          "midi": 88,
          "name": "E6",
          "ticks": 5385,
          "time": 62.616279069767444,
          "velocity": 0.08661417322834646
        },
        {
          "duration": 0.4418604651162781,
          "durationTicks": 38,
          "midi": 69,
          "name": "A4",
          "ticks": 5388,
          "time": 62.651162790697676,
          "velocity": 0.3543307086614173
        },
        {
          "duration": 0.03488372093023173,
          "durationTicks": 3,
          "midi": 88,
          "name": "E6",
          "ticks": 5394,
          "time": 62.72093023255814,
          "velocity": 0.07086614173228346
        },
        {
          "duration": 2.023255813953483,
          "durationTicks": 174,
          "midi": 74,
          "name": "D5",
          "ticks": 5402,
          "time": 62.81395348837209,
          "velocity": 0.49606299212598426
        },
        {
          "duration": 0.023255813953483084,
          "durationTicks": 2,
          "midi": 38,
          "name": "D2",
          "ticks": 5406,
          "time": 62.86046511627907,
          "velocity": 0.25196850393700787
        },
        {
          "duration": 0.05813953488372192,
          "durationTicks": 5,
          "midi": 57,
          "name": "A3",
          "ticks": 5407,
          "time": 62.872093023255815,
          "velocity": 0.16535433070866143
        },
        {
          "duration": 0.12790697674418539,
          "durationTicks": 11,
          "midi": 60,
          "name": "C4",
          "ticks": 5410,
          "time": 62.906976744186046,
          "velocity": 0.16535433070866143
        },
        {
          "duration": 0.02325581395349019,
          "durationTicks": 2,
          "midi": 38,
          "name": "D2",
          "ticks": 5413,
          "time": 62.94186046511628,
          "velocity": 0.2677165354330709
        },
        {
          "duration": 0.046511627906973274,
          "durationTicks": 4,
          "midi": 38,
          "name": "D2",
          "ticks": 5420,
          "time": 63.02325581395349,
          "velocity": 0.2440944881889764
        },
        {
          "duration": 0.24418604651162923,
          "durationTicks": 21,
          "midi": 62,
          "name": "D4",
          "ticks": 5422,
          "time": 63.04651162790697,
          "velocity": 0.30708661417322836
        },
        {
          "duration": 0.03488372093023884,
          "durationTicks": 3,
          "midi": 84,
          "name": "C6",
          "ticks": 5422,
          "time": 63.04651162790697,
          "velocity": 0.09448818897637795
        },
        {
          "duration": 0.23255813953488058,
          "durationTicks": 20,
          "midi": 72,
          "name": "C5",
          "ticks": 5423,
          "time": 63.05813953488372,
          "velocity": 0.4409448818897638
        },
        {
          "duration": 0.2674418604651123,
          "durationTicks": 23,
          "midi": 76,
          "name": "E5",
          "ticks": 5423,
          "time": 63.05813953488372,
          "velocity": 0.4251968503937008
        },
        {
          "duration": 0.2093023255813975,
          "durationTicks": 18,
          "midi": 67,
          "name": "G4",
          "ticks": 5424,
          "time": 63.06976744186046,
          "velocity": 0.3779527559055118
        },
        {
          "duration": 0.03488372093023173,
          "durationTicks": 3,
          "midi": 85,
          "name": "C#6",
          "ticks": 5425,
          "time": 63.08139534883721,
          "velocity": 0.07086614173228346
        },
        {
          "duration": 0.22093023255813904,
          "durationTicks": 19,
          "midi": 87,
          "name": "D#6",
          "ticks": 5425,
          "time": 63.08139534883721,
          "velocity": 0.08661417322834646
        },
        {
          "duration": 0.17441860465116577,
          "durationTicks": 15,
          "midi": 53,
          "name": "F3",
          "ticks": 5427,
          "time": 63.104651162790695,
          "velocity": 0.2677165354330709
        },
        {
          "duration": 0.03488372093023173,
          "durationTicks": 3,
          "midi": 65,
          "name": "F4",
          "ticks": 5441,
          "time": 63.26744186046512,
          "velocity": 0.3228346456692913
        },
        {
          "duration": 0.2906976744186025,
          "durationTicks": 25,
          "midi": 81,
          "name": "A5",
          "ticks": 5442,
          "time": 63.27906976744186,
          "velocity": 0.25196850393700787
        },
        {
          "duration": 0.2674418604651194,
          "durationTicks": 23,
          "midi": 69,
          "name": "A4",
          "ticks": 5443,
          "time": 63.2906976744186,
          "velocity": 0.3543307086614173
        },
        {
          "duration": 0.05813953488372192,
          "durationTicks": 5,
          "midi": 83,
          "name": "B5",
          "ticks": 5443,
          "time": 63.2906976744186,
          "velocity": 0.2283464566929134
        },
        {
          "duration": 0.09302325581395365,
          "durationTicks": 8,
          "midi": 40,
          "name": "E2",
          "ticks": 5444,
          "time": 63.30232558139535,
          "velocity": 0.2283464566929134
        },
        {
          "duration": 0.19767441860464885,
          "durationTicks": 17,
          "midi": 59,
          "name": "B3",
          "ticks": 5444,
          "time": 63.30232558139535,
          "velocity": 0.30708661417322836
        },
        {
          "duration": 0.23255813953488058,
          "durationTicks": 20,
          "midi": 84,
          "name": "C6",
          "ticks": 5444,
          "time": 63.30232558139535,
          "velocity": 0.13385826771653545
        },
        {
          "duration": 0.03488372093023884,
          "durationTicks": 3,
          "midi": 65,
          "name": "F4",
          "ticks": 5446,
          "time": 63.325581395348834,
          "velocity": 0.3937007874015748
        },
        {
          "duration": 0.1046511627907023,
          "durationTicks": 9,
          "midi": 87,
          "name": "D#6",
          "ticks": 5446,
          "time": 63.325581395348834,
          "velocity": 0.09448818897637795
        },
        {
          "duration": 0.12790697674418539,
          "durationTicks": 11,
          "midi": 88,
          "name": "E6",
          "ticks": 5447,
          "time": 63.33720930232558,
          "velocity": 0.07086614173228346
        },
        {
          "duration": 0.03488372093023173,
          "durationTicks": 3,
          "midi": 64,
          "name": "E4",
          "ticks": 5448,
          "time": 63.348837209302324,
          "velocity": 0.31496062992125984
        },
        {
          "duration": 0.02325581395349019,
          "durationTicks": 2,
          "midi": 65,
          "name": "F4",
          "ticks": 5451,
          "time": 63.383720930232556,
          "velocity": 0.2992125984251969
        },
        {
          "duration": 0.1046511627906952,
          "durationTicks": 9,
          "midi": 40,
          "name": "E2",
          "ticks": 5453,
          "time": 63.406976744186046,
          "velocity": 0.23622047244094488
        },
        {
          "duration": 0.02325581395349019,
          "durationTicks": 2,
          "midi": 65,
          "name": "F4",
          "ticks": 5454,
          "time": 63.41860465116279,
          "velocity": 0.3228346456692913
        },
        {
          "duration": 0.03488372093023173,
          "durationTicks": 3,
          "midi": 65,
          "name": "F4",
          "ticks": 5458,
          "time": 63.46511627906977,
          "velocity": 0.2992125984251969
        },
        {
          "duration": 0.27906976744186096,
          "durationTicks": 24,
          "midi": 76,
          "name": "E5",
          "ticks": 5458,
          "time": 63.46511627906977,
          "velocity": 0.4330708661417323
        },
        {
          "duration": 0.03488372093023173,
          "durationTicks": 3,
          "midi": 87,
          "name": "D#6",
          "ticks": 5460,
          "time": 63.48837209302326,
          "velocity": 0.07086614173228346
        },
        {
          "duration": 0.6744186046511658,
          "durationTicks": 58,
          "midi": 72,
          "name": "C5",
          "ticks": 5461,
          "time": 63.5,
          "velocity": 0.4409448818897638
        },
        {
          "duration": 0.02325581395349019,
          "durationTicks": 2,
          "midi": 65,
          "name": "F4",
          "ticks": 5462,
          "time": 63.51162790697674,
          "velocity": 0.23622047244094488
        },
        {
          "duration": 0.03488372093023173,
          "durationTicks": 3,
          "midi": 40,
          "name": "E2",
          "ticks": 5463,
          "time": 63.52325581395349,
          "velocity": 0.2204724409448819
        },
        {
          "duration": 0.6744186046511587,
          "durationTicks": 58,
          "midi": 67,
          "name": "G4",
          "ticks": 5463,
          "time": 63.52325581395349,
          "velocity": 0.41732283464566927
        },
        {
          "duration": 0.05813953488372192,
          "durationTicks": 5,
          "midi": 40,
          "name": "E2",
          "ticks": 5467,
          "time": 63.56976744186046,
          "velocity": 0.14960629921259844
        },
        {
          "duration": 0.02325581395349019,
          "durationTicks": 2,
          "midi": 44,
          "name": "G#2",
          "ticks": 5482,
          "time": 63.74418604651163,
          "velocity": 0.28346456692913385
        },
        {
          "duration": 0.081395348837205,
          "durationTicks": 7,
          "midi": 77,
          "name": "F5",
          "ticks": 5482,
          "time": 63.74418604651163,
          "velocity": 0.41732283464566927
        },
        {
          "duration": 0.1860465116279073,
          "durationTicks": 16,
          "midi": 83,
          "name": "B5",
          "ticks": 5482,
          "time": 63.74418604651163,
          "velocity": 0.2204724409448819
        },
        {
          "duration": 0.09302325581395365,
          "durationTicks": 8,
          "midi": 43,
          "name": "G2",
          "ticks": 5486,
          "time": 63.7906976744186,
          "velocity": 0.31496062992125984
        },
        {
          "duration": 0.19767441860465595,
          "durationTicks": 17,
          "midi": 76,
          "name": "E5",
          "ticks": 5486,
          "time": 63.7906976744186,
          "velocity": 0.44881889763779526
        },
        {
          "duration": 0.09302325581395365,
          "durationTicks": 8,
          "midi": 91,
          "name": "G6",
          "ticks": 5488,
          "time": 63.81395348837209,
          "velocity": 0.11811023622047244
        },
        {
          "duration": 0.11627906976744384,
          "durationTicks": 10,
          "midi": 62,
          "name": "D4",
          "ticks": 5491,
          "time": 63.848837209302324,
          "velocity": 0.10236220472440945
        },
        {
          "duration": 0.03488372093023173,
          "durationTicks": 3,
          "midi": 50,
          "name": "D3",
          "ticks": 5494,
          "time": 63.883720930232556,
          "velocity": 0.10236220472440945
        },
        {
          "duration": 0.30232558139534405,
          "durationTicks": 26,
          "midi": 43,
          "name": "G2",
          "ticks": 5495,
          "time": 63.895348837209305,
          "velocity": 0.2755905511811024
        },
        {
          "duration": 0.03488372093023173,
          "durationTicks": 3,
          "midi": 54,
          "name": "F#3",
          "ticks": 5501,
          "time": 63.96511627906977,
          "velocity": 0.1732283464566929
        },
        {
          "duration": 0.2906976744186025,
          "durationTicks": 25,
          "midi": 82,
          "name": "A#5",
          "ticks": 5501,
          "time": 63.96511627906977,
          "velocity": 0.41732283464566927
        },
        {
          "duration": 0.03488372093023173,
          "durationTicks": 3,
          "midi": 62,
          "name": "D4",
          "ticks": 5502,
          "time": 63.97674418604651,
          "velocity": 0.2677165354330709
        },
        {
          "duration": 0.38372093023256326,
          "durationTicks": 33,
          "midi": 77,
          "name": "F5",
          "ticks": 5502,
          "time": 63.97674418604651,
          "velocity": 0.41732283464566927
        },
        {
          "duration": 0.06976744186046346,
          "durationTicks": 6,
          "midi": 58,
          "name": "A#3",
          "ticks": 5504,
          "time": 64,
          "velocity": 0.2047244094488189
        },
        {
          "duration": 0.17441860465116577,
          "durationTicks": 15,
          "midi": 62,
          "name": "D4",
          "ticks": 5506,
          "time": 64.02325581395348,
          "velocity": 0.2440944881889764
        },
        {
          "duration": 0.5930232558139608,
          "durationTicks": 51,
          "midi": 70,
          "name": "A#4",
          "ticks": 5506,
          "time": 64.02325581395348,
          "velocity": 0.4330708661417323
        },
        {
          "duration": 0.06976744186046346,
          "durationTicks": 6,
          "midi": 58,
          "name": "A#3",
          "ticks": 5511,
          "time": 64.0813953488372,
          "velocity": 0.1968503937007874
        },
        {
          "duration": 0.034883720930224626,
          "durationTicks": 3,
          "midi": 58,
          "name": "A#3",
          "ticks": 5518,
          "time": 64.16279069767442,
          "velocity": 0.1968503937007874
        },
        {
          "duration": 0.03488372093023884,
          "durationTicks": 3,
          "midi": 83,
          "name": "B5",
          "ticks": 5520,
          "time": 64.18604651162791,
          "velocity": 0.16535433070866143
        },
        {
          "duration": 0.2325581395348877,
          "durationTicks": 20,
          "midi": 60,
          "name": "C4",
          "ticks": 5521,
          "time": 64.19767441860465,
          "velocity": 0.3543307086614173
        },
        {
          "duration": 0.2674418604651123,
          "durationTicks": 23,
          "midi": 65,
          "name": "F4",
          "ticks": 5521,
          "time": 64.19767441860465,
          "velocity": 0.48031496062992124
        },
        {
          "duration": 0.19767441860464885,
          "durationTicks": 17,
          "midi": 81,
          "name": "A5",
          "ticks": 5521,
          "time": 64.19767441860465,
          "velocity": 0.14960629921259844
        },
        {
          "duration": 0.30232558139535115,
          "durationTicks": 26,
          "midi": 84,
          "name": "C6",
          "ticks": 5521,
          "time": 64.19767441860465,
          "velocity": 0.2204724409448819
        },
        {
          "duration": 0.06976744186046346,
          "durationTicks": 6,
          "midi": 88,
          "name": "E6",
          "ticks": 5521,
          "time": 64.19767441860465,
          "velocity": 0.16535433070866143
        },
        {
          "duration": 0.19767441860464885,
          "durationTicks": 17,
          "midi": 53,
          "name": "F3",
          "ticks": 5523,
          "time": 64.22093023255815,
          "velocity": 0.23622047244094488
        },
        {
          "duration": 0.06976744186046346,
          "durationTicks": 6,
          "midi": 87,
          "name": "D#6",
          "ticks": 5523,
          "time": 64.22093023255815,
          "velocity": 0.14960629921259844
        },
        {
          "duration": 0.06976744186046346,
          "durationTicks": 6,
          "midi": 41,
          "name": "F2",
          "ticks": 5525,
          "time": 64.24418604651163,
          "velocity": 0.16535433070866143
        },
        {
          "duration": 0.03488372093023884,
          "durationTicks": 3,
          "midi": 83,
          "name": "B5",
          "ticks": 5526,
          "time": 64.25581395348837,
          "velocity": 0.13385826771653545
        },
        {
          "duration": 0.04651162790698038,
          "durationTicks": 4,
          "midi": 88,
          "name": "E6",
          "ticks": 5530,
          "time": 64.30232558139535,
          "velocity": 0.11811023622047244
        },
        {
          "duration": 0.03488372093023884,
          "durationTicks": 3,
          "midi": 83,
          "name": "B5",
          "ticks": 5531,
          "time": 64.31395348837209,
          "velocity": 0.09448818897637795
        },
        {
          "duration": 0.05813953488372192,
          "durationTicks": 5,
          "midi": 87,
          "name": "D#6",
          "ticks": 5534,
          "time": 64.34883720930233,
          "velocity": 0.11811023622047244
        },
        {
          "duration": 0.05813953488372192,
          "durationTicks": 5,
          "midi": 41,
          "name": "F2",
          "ticks": 5535,
          "time": 64.36046511627907,
          "velocity": 0.11811023622047244
        },
        {
          "duration": 0.03488372093023884,
          "durationTicks": 3,
          "midi": 88,
          "name": "E6",
          "ticks": 5537,
          "time": 64.38372093023256,
          "velocity": 0.11023622047244094
        },
        {
          "duration": 0.034883720930224626,
          "durationTicks": 3,
          "midi": 44,
          "name": "G#2",
          "ticks": 5541,
          "time": 64.43023255813954,
          "velocity": 0.2125984251968504
        },
        {
          "duration": 0.2674418604651123,
          "durationTicks": 23,
          "midi": 62,
          "name": "D4",
          "ticks": 5541,
          "time": 64.43023255813954,
          "velocity": 0.33070866141732286
        },
        {
          "duration": 0.2674418604651123,
          "durationTicks": 23,
          "midi": 79,
          "name": "G5",
          "ticks": 5541,
          "time": 64.43023255813954,
          "velocity": 0.14960629921259844
        },
        {
          "duration": 0.19767441860464885,
          "durationTicks": 17,
          "midi": 81,
          "name": "A5",
          "ticks": 5541,
          "time": 64.43023255813954,
          "velocity": 0.14173228346456693
        },
        {
          "duration": 0.22093023255813193,
          "durationTicks": 19,
          "midi": 83,
          "name": "B5",
          "ticks": 5541,
          "time": 64.43023255813954,
          "velocity": 0.15748031496062992
        },
        {
          "duration": 0.15116279069768268,
          "durationTicks": 13,
          "midi": 67,
          "name": "G4",
          "ticks": 5543,
          "time": 64.45348837209302,
          "velocity": 0.33070866141732286
        },
        {
          "duration": 0.081395348837205,
          "durationTicks": 7,
          "midi": 43,
          "name": "G2",
          "ticks": 5546,
          "time": 64.48837209302326,
          "velocity": 0.1732283464566929
        },
        {
          "duration": 0.06976744186046346,
          "durationTicks": 6,
          "midi": 58,
          "name": "A#3",
          "ticks": 5546,
          "time": 64.48837209302326,
          "velocity": 0.2047244094488189
        },
        {
          "duration": 0.6279069767441854,
          "durationTicks": 54,
          "midi": 77,
          "name": "F5",
          "ticks": 5546,
          "time": 64.48837209302326,
          "velocity": 0.4094488188976378
        },
        {
          "duration": 0.06976744186046346,
          "durationTicks": 6,
          "midi": 43,
          "name": "G2",
          "ticks": 5554,
          "time": 64.5813953488372,
          "velocity": 0.11811023622047244
        },
        {
          "duration": 0.16279069767442422,
          "durationTicks": 14,
          "midi": 65,
          "name": "F4",
          "ticks": 5555,
          "time": 64.59302325581395,
          "velocity": 0.1889763779527559
        },
        {
          "duration": 0.05813953488372192,
          "durationTicks": 5,
          "midi": 67,
          "name": "G4",
          "ticks": 5557,
          "time": 64.61627906976744,
          "velocity": 0.16535433070866143
        },
        {
          "duration": 0.03488372093023884,
          "durationTicks": 3,
          "midi": 58,
          "name": "A#3",
          "ticks": 5558,
          "time": 64.62790697674419,
          "velocity": 0.18110236220472442
        },
        {
          "duration": 0.2674418604651265,
          "durationTicks": 23,
          "midi": 82,
          "name": "A#5",
          "ticks": 5559,
          "time": 64.63953488372093,
          "velocity": 0.3779527559055118
        },
        {
          "duration": 0.023255813953497295,
          "durationTicks": 2,
          "midi": 42,
          "name": "F#2",
          "ticks": 5560,
          "time": 64.65116279069767,
          "velocity": 0.25984251968503935
        },
        {
          "duration": 0.04651162790696617,
          "durationTicks": 4,
          "midi": 83,
          "name": "B5",
          "ticks": 5561,
          "time": 64.66279069767442,
          "velocity": 0.16535433070866143
        },
        {
          "duration": 0.19767441860464885,
          "durationTicks": 17,
          "midi": 43,
          "name": "G2",
          "ticks": 5562,
          "time": 64.67441860465117,
          "velocity": 0.33070866141732286
        },
        {
          "duration": 0.05813953488372192,
          "durationTicks": 5,
          "midi": 58,
          "name": "A#3",
          "ticks": 5562,
          "time": 64.67441860465117,
          "velocity": 0.1889763779527559
        },
        {
          "duration": 0.034883720930224626,
          "durationTicks": 3,
          "midi": 83,
          "name": "B5",
          "ticks": 5568,
          "time": 64.74418604651163,
          "velocity": 0.18110236220472442
        },
        {
          "duration": 0.2325581395348877,
          "durationTicks": 20,
          "midi": 85,
          "name": "C#6",
          "ticks": 5568,
          "time": 64.74418604651163,
          "velocity": 0.14173228346456693
        },
        {
          "duration": 0.11627906976744384,
          "durationTicks": 10,
          "midi": 62,
          "name": "D4",
          "ticks": 5570,
          "time": 64.76744186046511,
          "velocity": 0.11811023622047244
        },
        {
          "duration": 0.03488372093023884,
          "durationTicks": 3,
          "midi": 50,
          "name": "D3",
          "ticks": 5571,
          "time": 64.77906976744185,
          "velocity": 0.07874015748031496
        },
        {
          "duration": 0.06976744186046346,
          "durationTicks": 6,
          "midi": 65,
          "name": "F4",
          "ticks": 5573,
          "time": 64.80232558139535,
          "velocity": 0.11023622047244094
        },
        {
          "duration": 0.04651162790698038,
          "durationTicks": 4,
          "midi": 83,
          "name": "B5",
          "ticks": 5573,
          "time": 64.80232558139535,
          "velocity": 0.16535433070866143
        },
        {
          "duration": 0.034883720930224626,
          "durationTicks": 3,
          "midi": 50,
          "name": "D3",
          "ticks": 5578,
          "time": 64.86046511627907,
          "velocity": 0.30708661417322836
        },
        {
          "duration": 0.04651162790698038,
          "durationTicks": 4,
          "midi": 72,
          "name": "C5",
          "ticks": 5579,
          "time": 64.87209302325581,
          "velocity": 0.15748031496062992
        },
        {
          "duration": 0.46511627906976116,
          "durationTicks": 40,
          "midi": 74,
          "name": "D5",
          "ticks": 5579,
          "time": 64.87209302325581,
          "velocity": 0.30708661417322836
        },
        {
          "duration": 0.03488372093023884,
          "durationTicks": 3,
          "midi": 81,
          "name": "A5",
          "ticks": 5580,
          "time": 64.88372093023256,
          "velocity": 0.11811023622047244
        },
        {
          "duration": 0.03488372093023884,
          "durationTicks": 3,
          "midi": 83,
          "name": "B5",
          "ticks": 5580,
          "time": 64.88372093023256,
          "velocity": 0.14173228346456693
        },
        {
          "duration": 0.2093023255814046,
          "durationTicks": 18,
          "midi": 65,
          "name": "F4",
          "ticks": 5581,
          "time": 64.8953488372093,
          "velocity": 0.2992125984251969
        },
        {
          "duration": 0.40697674418605345,
          "durationTicks": 35,
          "midi": 87,
          "name": "D#6",
          "ticks": 5581,
          "time": 64.8953488372093,
          "velocity": 0.1889763779527559
        },
        {
          "duration": 0.11627906976742963,
          "durationTicks": 10,
          "midi": 62,
          "name": "D4",
          "ticks": 5582,
          "time": 64.90697674418605,
          "velocity": 0.2125984251968504
        },
        {
          "duration": 0.04651162790696617,
          "durationTicks": 4,
          "midi": 84,
          "name": "C6",
          "ticks": 5583,
          "time": 64.9186046511628,
          "velocity": 0.14173228346456693
        },
        {
          "duration": 0.2093023255813904,
          "durationTicks": 18,
          "midi": 88,
          "name": "E6",
          "ticks": 5584,
          "time": 64.93023255813954,
          "velocity": 0.12598425196850394
        },
        {
          "duration": 0.06976744186046346,
          "durationTicks": 6,
          "midi": 72,
          "name": "C5",
          "ticks": 5585,
          "time": 64.94186046511628,
          "velocity": 0.1732283464566929
        },
        {
          "duration": 0.04651162790698038,
          "durationTicks": 4,
          "midi": 81,
          "name": "A5",
          "ticks": 5586,
          "time": 64.95348837209302,
          "velocity": 0.08661417322834646
        },
        {
          "duration": 0.13953488372092693,
          "durationTicks": 12,
          "midi": 57,
          "name": "A3",
          "ticks": 5588,
          "time": 64.97674418604652,
          "velocity": 0.23622047244094488
        },
        {
          "duration": 0.11627906976744384,
          "durationTicks": 10,
          "midi": 38,
          "name": "D2",
          "ticks": 5589,
          "time": 64.98837209302326,
          "velocity": 0.16535433070866143
        },
        {
          "duration": 0.023255813953497295,
          "durationTicks": 2,
          "midi": 50,
          "name": "D3",
          "ticks": 5591,
          "time": 65.01162790697674,
          "velocity": 0.2440944881889764
        },
        {
          "duration": 0.06976744186046346,
          "durationTicks": 6,
          "midi": 62,
          "name": "D4",
          "ticks": 5593,
          "time": 65.03488372093024,
          "velocity": 0.15748031496062992
        },
        {
          "duration": 0.023255813953483084,
          "durationTicks": 2,
          "midi": 50,
          "name": "D3",
          "ticks": 5594,
          "time": 65.04651162790698,
          "velocity": 0.2440944881889764
        },
        {
          "duration": 0.15116279069766847,
          "durationTicks": 13,
          "midi": 72,
          "name": "C5",
          "ticks": 5594,
          "time": 65.04651162790698,
          "velocity": 0.28346456692913385
        },
        {
          "duration": 0.09302325581394655,
          "durationTicks": 8,
          "midi": 64,
          "name": "E4",
          "ticks": 5599,
          "time": 65.1046511627907,
          "velocity": 0.3779527559055118
        },
        {
          "duration": 0.13953488372092693,
          "durationTicks": 12,
          "midi": 83,
          "name": "B5",
          "ticks": 5600,
          "time": 65.11627906976744,
          "velocity": 0.2204724409448819
        },
        {
          "duration": 0.24418604651162923,
          "durationTicks": 21,
          "midi": 59,
          "name": "B3",
          "ticks": 5601,
          "time": 65.12790697674419,
          "velocity": 0.2755905511811024
        },
        {
          "duration": 0.1860465116279073,
          "durationTicks": 16,
          "midi": 67,
          "name": "G4",
          "ticks": 5603,
          "time": 65.15116279069767,
          "velocity": 0.25984251968503935
        },
        {
          "duration": 0.16279069767441,
          "durationTicks": 14,
          "midi": 53,
          "name": "F3",
          "ticks": 5604,
          "time": 65.16279069767442,
          "velocity": 0.3228346456692913
        },
        {
          "duration": 0.11627906976744384,
          "durationTicks": 10,
          "midi": 41,
          "name": "F2",
          "ticks": 5608,
          "time": 65.20930232558139,
          "velocity": 0.13385826771653545
        },
        {
          "duration": 0.023255813953497295,
          "durationTicks": 2,
          "midi": 52,
          "name": "E3",
          "ticks": 5618,
          "time": 65.32558139534883,
          "velocity": 0.25984251968503935
        },
        {
          "duration": 0.023255813953497295,
          "durationTicks": 2,
          "midi": 65,
          "name": "F4",
          "ticks": 5619,
          "time": 65.33720930232558,
          "velocity": 0.25984251968503935
        },
        {
          "duration": 0.04651162790698038,
          "durationTicks": 4,
          "midi": 87,
          "name": "D#6",
          "ticks": 5619,
          "time": 65.33720930232558,
          "velocity": 0.08661417322834646
        },
        {
          "duration": 0.06976744186046346,
          "durationTicks": 6,
          "midi": 43,
          "name": "G2",
          "ticks": 5621,
          "time": 65.36046511627907,
          "velocity": 0.2440944881889764
        },
        {
          "duration": 0.03488372093023884,
          "durationTicks": 3,
          "midi": 65,
          "name": "F4",
          "ticks": 5622,
          "time": 65.37209302325581,
          "velocity": 0.12598425196850394
        },
        {
          "duration": 0.19767441860464885,
          "durationTicks": 17,
          "midi": 67,
          "name": "G4",
          "ticks": 5622,
          "time": 65.37209302325581,
          "velocity": 0.23622047244094488
        },
        {
          "duration": 0.1860465116279073,
          "durationTicks": 16,
          "midi": 74,
          "name": "D5",
          "ticks": 5622,
          "time": 65.37209302325581,
          "velocity": 0.14960629921259844
        },
        {
          "duration": 0.03488372093023884,
          "durationTicks": 3,
          "midi": 43,
          "name": "G2",
          "ticks": 5629,
          "time": 65.45348837209302,
          "velocity": 0.13385826771653545
        },
        {
          "duration": 0.04651162790698038,
          "durationTicks": 4,
          "midi": 43,
          "name": "G2",
          "ticks": 5633,
          "time": 65.5,
          "velocity": 0.12598425196850394
        },
        {
          "duration": 0.2906976744186096,
          "durationTicks": 25,
          "midi": 62,
          "name": "D4",
          "ticks": 5638,
          "time": 65.55813953488372,
          "velocity": 0.28346456692913385
        },
        {
          "duration": 0.5348837209302246,
          "durationTicks": 46,
          "midi": 77,
          "name": "F5",
          "ticks": 5638,
          "time": 65.55813953488372,
          "velocity": 0.3700787401574803
        },
        {
          "duration": 0.34883720930233153,
          "durationTicks": 30,
          "midi": 82,
          "name": "A#5",
          "ticks": 5638,
          "time": 65.55813953488372,
          "velocity": 0.4015748031496063
        },
        {
          "duration": 0.17441860465116577,
          "durationTicks": 15,
          "midi": 86,
          "name": "D6",
          "ticks": 5638,
          "time": 65.55813953488372,
          "velocity": 0.33858267716535434
        },
        {
          "duration": 0.03488372093023884,
          "durationTicks": 3,
          "midi": 65,
          "name": "F4",
          "ticks": 5639,
          "time": 65.56976744186046,
          "velocity": 0.3464566929133858
        },
        {
          "duration": 0.081395348837205,
          "durationTicks": 7,
          "midi": 70,
          "name": "A#4",
          "ticks": 5639,
          "time": 65.56976744186046,
          "velocity": 0.4645669291338583
        },
        {
          "duration": 0.8953488372092977,
          "durationTicks": 77,
          "midi": 74,
          "name": "D5",
          "ticks": 5639,
          "time": 65.56976744186046,
          "velocity": 0.3858267716535433
        },
        {
          "duration": 0.40697674418605345,
          "durationTicks": 35,
          "midi": 79,
          "name": "G5",
          "ticks": 5639,
          "time": 65.56976744186046,
          "velocity": 0.2047244094488189
        },
        {
          "duration": 0.13953488372092693,
          "durationTicks": 12,
          "midi": 93,
          "name": "A6",
          "ticks": 5639,
          "time": 65.56976744186046,
          "velocity": 0.1889763779527559
        },
        {
          "duration": 0.2325581395348877,
          "durationTicks": 20,
          "midi": 84,
          "name": "C6",
          "ticks": 5640,
          "time": 65.5813953488372,
          "velocity": 0.15748031496062992
        },
        {
          "duration": 0.16279069767442422,
          "durationTicks": 14,
          "midi": 67,
          "name": "G4",
          "ticks": 5641,
          "time": 65.59302325581395,
          "velocity": 0.3858267716535433
        },
        {
          "duration": 0.2325581395348877,
          "durationTicks": 20,
          "midi": 58,
          "name": "A#3",
          "ticks": 5643,
          "time": 65.61627906976744,
          "velocity": 0.2204724409448819
        },
        {
          "duration": 0.034883720930224626,
          "durationTicks": 3,
          "midi": 70,
          "name": "A#4",
          "ticks": 5647,
          "time": 65.66279069767442,
          "velocity": 0.4251968503937008
        },
        {
          "duration": 0.1046511627907023,
          "durationTicks": 9,
          "midi": 69,
          "name": "A4",
          "ticks": 5650,
          "time": 65.69767441860465,
          "velocity": 0.4251968503937008
        },
        {
          "duration": 0.1046511627907023,
          "durationTicks": 9,
          "midi": 65,
          "name": "F4",
          "ticks": 5655,
          "time": 65.75581395348837,
          "velocity": 0.2677165354330709
        },
        {
          "duration": 0.5813953488372192,
          "durationTicks": 50,
          "midi": 67,
          "name": "G4",
          "ticks": 5656,
          "time": 65.76744186046511,
          "velocity": 0.3779527559055118
        },
        {
          "duration": 0.2093023255813904,
          "durationTicks": 18,
          "midi": 70,
          "name": "A#4",
          "ticks": 5660,
          "time": 65.81395348837209,
          "velocity": 0.3700787401574803
        },
        {
          "duration": 0.04651162790698038,
          "durationTicks": 4,
          "midi": 53,
          "name": "F3",
          "ticks": 5677,
          "time": 66.01162790697674,
          "velocity": 0.1732283464566929
        },
        {
          "duration": 0.04651162790698038,
          "durationTicks": 4,
          "midi": 58,
          "name": "A#3",
          "ticks": 5678,
          "time": 66.02325581395348,
          "velocity": 0.2440944881889764
        },
        {
          "duration": 0.2906976744186096,
          "durationTicks": 25,
          "midi": 62,
          "name": "D4",
          "ticks": 5678,
          "time": 66.02325581395348,
          "velocity": 0.2677165354330709
        },
        {
          "duration": 0.25581395348837077,
          "durationTicks": 22,
          "midi": 81,
          "name": "A5",
          "ticks": 5678,
          "time": 66.02325581395348,
          "velocity": 0.1889763779527559
        },
        {
          "duration": 0.05813953488372192,
          "durationTicks": 5,
          "midi": 85,
          "name": "C#6",
          "ticks": 5681,
          "time": 66.05813953488372,
          "velocity": 0.07086614173228346
        },
        {
          "duration": 0.03488372093023884,
          "durationTicks": 3,
          "midi": 46,
          "name": "A#2",
          "ticks": 5683,
          "time": 66.0813953488372,
          "velocity": 0.10236220472440945
        },
        {
          "duration": 0.12790697674418539,
          "durationTicks": 11,
          "midi": 58,
          "name": "A#3",
          "ticks": 5683,
          "time": 66.0813953488372,
          "velocity": 0.25984251968503935
        },
        {
          "duration": 0.06976744186046346,
          "durationTicks": 6,
          "midi": 46,
          "name": "A#2",
          "ticks": 5693,
          "time": 66.19767441860465,
          "velocity": 0.08661417322834646
        },
        {
          "duration": 0.05813953488372192,
          "durationTicks": 5,
          "midi": 58,
          "name": "A#3",
          "ticks": 5696,
          "time": 66.23255813953489,
          "velocity": 0.2125984251968504
        },
        {
          "duration": 0.4651162790697754,
          "durationTicks": 40,
          "midi": 73,
          "name": "C#5",
          "ticks": 5716,
          "time": 66.46511627906976,
          "velocity": 0.47244094488188976
        },
        {
          "duration": 0.48837209302325846,
          "durationTicks": 42,
          "midi": 79,
          "name": "G5",
          "ticks": 5716,
          "time": 66.46511627906976,
          "velocity": 0.4015748031496063
        },
        {
          "duration": 0.48837209302325846,
          "durationTicks": 42,
          "midi": 81,
          "name": "A5",
          "ticks": 5716,
          "time": 66.46511627906976,
          "velocity": 0.31496062992125984
        },
        {
          "duration": 0.22093023255813193,
          "durationTicks": 19,
          "midi": 45,
          "name": "A2",
          "ticks": 5717,
          "time": 66.47674418604652,
          "velocity": 0.41732283464566927
        },
        {
          "duration": 0.1860465116279073,
          "durationTicks": 16,
          "midi": 65,
          "name": "F4",
          "ticks": 5717,
          "time": 66.47674418604652,
          "velocity": 0.36220472440944884
        },
        {
          "duration": 0.46511627906976116,
          "durationTicks": 40,
          "midi": 69,
          "name": "A4",
          "ticks": 5717,
          "time": 66.47674418604652,
          "velocity": 0.3228346456692913
        },
        {
          "duration": 0.46511627906976116,
          "durationTicks": 40,
          "midi": 77,
          "name": "F5",
          "ticks": 5717,
          "time": 66.47674418604652,
          "velocity": 0.36220472440944884
        },
        {
          "duration": 0.10465116279068809,
          "durationTicks": 9,
          "midi": 83,
          "name": "B5",
          "ticks": 5717,
          "time": 66.47674418604652,
          "velocity": 0.15748031496062992
        },
        {
          "duration": 0.034883720930224626,
          "durationTicks": 3,
          "midi": 84,
          "name": "C6",
          "ticks": 5718,
          "time": 66.48837209302326,
          "velocity": 0.14960629921259844
        },
        {
          "duration": 0.05813953488372192,
          "durationTicks": 5,
          "midi": 62,
          "name": "D4",
          "ticks": 5721,
          "time": 66.52325581395348,
          "velocity": 0.29133858267716534
        },
        {
          "duration": 0.15116279069766847,
          "durationTicks": 13,
          "midi": 84,
          "name": "C6",
          "ticks": 5722,
          "time": 66.53488372093024,
          "velocity": 0.13385826771653545
        },
        {
          "duration": 0.034883720930224626,
          "durationTicks": 3,
          "midi": 87,
          "name": "D#6",
          "ticks": 5722,
          "time": 66.53488372093024,
          "velocity": 0.07086614173228346
        },
        {
          "duration": 0.04651162790698038,
          "durationTicks": 4,
          "midi": 71,
          "name": "B4",
          "ticks": 5726,
          "time": 66.5813953488372,
          "velocity": 0.14173228346456693
        },
        {
          "duration": 0.03488372093023884,
          "durationTicks": 3,
          "midi": 62,
          "name": "D4",
          "ticks": 5727,
          "time": 66.59302325581395,
          "velocity": 0.25984251968503935
        },
        {
          "duration": 0.03488372093023884,
          "durationTicks": 3,
          "midi": 62,
          "name": "D4",
          "ticks": 5732,
          "time": 66.65116279069767,
          "velocity": 0.23622047244094488
        },
        {
          "duration": 0.081395348837205,
          "durationTicks": 7,
          "midi": 65,
          "name": "F4",
          "ticks": 5734,
          "time": 66.67441860465117,
          "velocity": 0.28346456692913385
        },
        {
          "duration": 0.13953488372094114,
          "durationTicks": 12,
          "midi": 45,
          "name": "A2",
          "ticks": 5737,
          "time": 66.70930232558139,
          "velocity": 0.31496062992125984
        },
        {
          "duration": 0.6860465116279073,
          "durationTicks": 59,
          "midi": 74,
          "name": "D5",
          "ticks": 5755,
          "time": 66.9186046511628,
          "velocity": 0.31496062992125984
        },
        {
          "duration": 0.034883720930224626,
          "durationTicks": 3,
          "midi": 62,
          "name": "D4",
          "ticks": 5756,
          "time": 66.93023255813954,
          "velocity": 0.2992125984251969
        },
        {
          "duration": 0.05813953488372192,
          "durationTicks": 5,
          "midi": 65,
          "name": "F4",
          "ticks": 5756,
          "time": 66.93023255813954,
          "velocity": 0.3779527559055118
        },
        {
          "duration": 0.15116279069766847,
          "durationTicks": 13,
          "midi": 71,
          "name": "B4",
          "ticks": 5756,
          "time": 66.93023255813954,
          "velocity": 0.2047244094488189
        },
        {
          "duration": 0.2093023255813904,
          "durationTicks": 18,
          "midi": 45,
          "name": "A2",
          "ticks": 5757,
          "time": 66.94186046511628,
          "velocity": 0.41732283464566927
        },
        {
          "duration": 0.05813953488372192,
          "durationTicks": 5,
          "midi": 53,
          "name": "F3",
          "ticks": 5758,
          "time": 66.95348837209302,
          "velocity": 0.2677165354330709
        },
        {
          "duration": 0.09302325581396076,
          "durationTicks": 8,
          "midi": 87,
          "name": "D#6",
          "ticks": 5758,
          "time": 66.95348837209302,
          "velocity": 0.16535433070866143
        },
        {
          "duration": 0.09302325581396076,
          "durationTicks": 8,
          "midi": 85,
          "name": "C#6",
          "ticks": 5759,
          "time": 66.96511627906976,
          "velocity": 0.13385826771653545
        },
        {
          "duration": 0.11627906976742963,
          "durationTicks": 10,
          "midi": 62,
          "name": "D4",
          "ticks": 5760,
          "time": 66.97674418604652,
          "velocity": 0.30708661417322836
        },
        {
          "duration": 0.12790697674418539,
          "durationTicks": 11,
          "midi": 65,
          "name": "F4",
          "ticks": 5762,
          "time": 67,
          "velocity": 0.3228346456692913
        },
        {
          "duration": 0.08139534883721922,
          "durationTicks": 7,
          "midi": 53,
          "name": "F3",
          "ticks": 5764,
          "time": 67.02325581395348,
          "velocity": 0.25196850393700787
        },
        {
          "duration": 0.15116279069768268,
          "durationTicks": 13,
          "midi": 62,
          "name": "D4",
          "ticks": 5775,
          "time": 67.15116279069767,
          "velocity": 0.28346456692913385
        },
        {
          "duration": 0.034883720930224626,
          "durationTicks": 3,
          "midi": 45,
          "name": "A2",
          "ticks": 5776,
          "time": 67.16279069767442,
          "velocity": 0.2755905511811024
        },
        {
          "duration": 0.034883720930224626,
          "durationTicks": 3,
          "midi": 65,
          "name": "F4",
          "ticks": 5776,
          "time": 67.16279069767442,
          "velocity": 0.14173228346456693
        },
        {
          "duration": 0.24418604651162923,
          "durationTicks": 21,
          "midi": 69,
          "name": "A4",
          "ticks": 5776,
          "time": 67.16279069767442,
          "velocity": 0.2125984251968504
        },
        {
          "duration": 0.04651162790698038,
          "durationTicks": 4,
          "midi": 84,
          "name": "C6",
          "ticks": 5778,
          "time": 67.18604651162791,
          "velocity": 0.09448818897637795
        },
        {
          "duration": 0.43023255813953654,
          "durationTicks": 37,
          "midi": 88,
          "name": "E6",
          "ticks": 5779,
          "time": 67.19767441860465,
          "velocity": 0.1889763779527559
        },
        {
          "duration": 0.09302325581394655,
          "durationTicks": 8,
          "midi": 38,
          "name": "D2",
          "ticks": 5782,
          "time": 67.23255813953489,
          "velocity": 0.2677165354330709
        },
        {
          "duration": 0.1046511627907023,
          "durationTicks": 9,
          "midi": 72,
          "name": "C5",
          "ticks": 5786,
          "time": 67.27906976744185,
          "velocity": 0.13385826771653545
        },
        {
          "duration": 0.04651162790698038,
          "durationTicks": 4,
          "midi": 62,
          "name": "D4",
          "ticks": 5789,
          "time": 67.31395348837209,
          "velocity": 0.2440944881889764
        },
        {
          "duration": 0.023255813953497295,
          "durationTicks": 2,
          "midi": 38,
          "name": "D2",
          "ticks": 5791,
          "time": 67.33720930232558,
          "velocity": 0.2440944881889764
        },
        {
          "duration": 0.03488372093023884,
          "durationTicks": 3,
          "midi": 50,
          "name": "D3",
          "ticks": 5791,
          "time": 67.33720930232558,
          "velocity": 0.25196850393700787
        },
        {
          "duration": 0.023255813953483084,
          "durationTicks": 2,
          "midi": 38,
          "name": "D2",
          "ticks": 5794,
          "time": 67.37209302325581,
          "velocity": 0.2677165354330709
        },
        {
          "duration": 0.023255813953483084,
          "durationTicks": 2,
          "midi": 48,
          "name": "C3",
          "ticks": 5794,
          "time": 67.37209302325581,
          "velocity": 0.2283464566929134
        },
        {
          "duration": 0.03488372093023884,
          "durationTicks": 3,
          "midi": 62,
          "name": "D4",
          "ticks": 5794,
          "time": 67.37209302325581,
          "velocity": 0.2047244094488189
        },
        {
          "duration": 0.03488372093023884,
          "durationTicks": 3,
          "midi": 80,
          "name": "G#5",
          "ticks": 5794,
          "time": 67.37209302325581,
          "velocity": 0.16535433070866143
        },
        {
          "duration": 0.2674418604651123,
          "durationTicks": 23,
          "midi": 86,
          "name": "D6",
          "ticks": 5794,
          "time": 67.37209302325581,
          "velocity": 0.3700787401574803
        },
        {
          "duration": 0.12790697674418539,
          "durationTicks": 11,
          "midi": 89,
          "name": "F6",
          "ticks": 5794,
          "time": 67.37209302325581,
          "velocity": 0.49606299212598426
        },
        {
          "duration": 0.34883720930233153,
          "durationTicks": 30,
          "midi": 77,
          "name": "F5",
          "ticks": 5795,
          "time": 67.38372093023256,
          "velocity": 0.47244094488188976
        },
        {
          "duration": 0.09302325581396076,
          "durationTicks": 8,
          "midi": 93,
          "name": "A6",
          "ticks": 5795,
          "time": 67.38372093023256,
          "velocity": 0.2204724409448819
        },
        {
          "duration": 0.023255813953497295,
          "durationTicks": 2,
          "midi": 50,
          "name": "D3",
          "ticks": 5796,
          "time": 67.3953488372093,
          "velocity": 0.3228346456692913
        },
        {
          "duration": 0.46511627906976116,
          "durationTicks": 40,
          "midi": 81,
          "name": "A5",
          "ticks": 5797,
          "time": 67.40697674418605,
          "velocity": 0.28346456692913385
        },
        {
          "duration": 0.06976744186046346,
          "durationTicks": 6,
          "midi": 66,
          "name": "F#4",
          "ticks": 5798,
          "time": 67.4186046511628,
          "velocity": 0.07874015748031496
        },
        {
          "duration": 0.03488372093023884,
          "durationTicks": 3,
          "midi": 50,
          "name": "D3",
          "ticks": 5800,
          "time": 67.44186046511628,
          "velocity": 0.3228346456692913
        },
        {
          "duration": 0.16279069767442422,
          "durationTicks": 14,
          "midi": 72,
          "name": "C5",
          "ticks": 5800,
          "time": 67.44186046511628,
          "velocity": 0.18110236220472442
        },
        {
          "duration": 0.10465116279068809,
          "durationTicks": 9,
          "midi": 62,
          "name": "D4",
          "ticks": 5803,
          "time": 67.47674418604652,
          "velocity": 0.2047244094488189
        },
        {
          "duration": 0.06976744186046346,
          "durationTicks": 6,
          "midi": 50,
          "name": "D3",
          "ticks": 5804,
          "time": 67.48837209302326,
          "velocity": 0.31496062992125984
        },
        {
          "duration": 0.24418604651162923,
          "durationTicks": 21,
          "midi": 69,
          "name": "A4",
          "ticks": 5805,
          "time": 67.5,
          "velocity": 0.3937007874015748
        },
        {
          "duration": 0.03488372093023884,
          "durationTicks": 3,
          "midi": 50,
          "name": "D3",
          "ticks": 5811,
          "time": 67.56976744186046,
          "velocity": 0.29133858267716534
        },
        {
          "duration": 0.03488372093023884,
          "durationTicks": 3,
          "midi": 56,
          "name": "G#3",
          "ticks": 5813,
          "time": 67.59302325581395,
          "velocity": 0.13385826771653545
        },
        {
          "duration": 0.16279069767441,
          "durationTicks": 14,
          "midi": 65,
          "name": "F4",
          "ticks": 5814,
          "time": 67.6046511627907,
          "velocity": 0.36220472440944884
        },
        {
          "duration": 0.19767441860464885,
          "durationTicks": 17,
          "midi": 84,
          "name": "C6",
          "ticks": 5814,
          "time": 67.6046511627907,
          "velocity": 0.25984251968503935
        },
        {
          "duration": 0.3488372093023173,
          "durationTicks": 30,
          "midi": 72,
          "name": "C5",
          "ticks": 5815,
          "time": 67.61627906976744,
          "velocity": 0.49606299212598426
        },
        {
          "duration": 0.7674418604651123,
          "durationTicks": 66,
          "midi": 74,
          "name": "D5",
          "ticks": 5815,
          "time": 67.61627906976744,
          "velocity": 0.5039370078740157
        },
        {
          "duration": 0.05813953488372192,
          "durationTicks": 5,
          "midi": 85,
          "name": "C#6",
          "ticks": 5815,
          "time": 67.61627906976744,
          "velocity": 0.16535433070866143
        },
        {
          "duration": 0.05813953488372192,
          "durationTicks": 5,
          "midi": 90,
          "name": "F#6",
          "ticks": 5815,
          "time": 67.61627906976744,
          "velocity": 0.09448818897637795
        },
        {
          "duration": 0.2093023255813904,
          "durationTicks": 18,
          "midi": 60,
          "name": "C4",
          "ticks": 5816,
          "time": 67.62790697674419,
          "velocity": 0.3937007874015748
        },
        {
          "duration": 0.30232558139535115,
          "durationTicks": 26,
          "midi": 88,
          "name": "E6",
          "ticks": 5817,
          "time": 67.63953488372093,
          "velocity": 0.2755905511811024
        },
        {
          "duration": 0.034883720930224626,
          "durationTicks": 3,
          "midi": 38,
          "name": "D2",
          "ticks": 5819,
          "time": 67.66279069767442,
          "velocity": 0.15748031496062992
        },
        {
          "duration": 0.04651162790698038,
          "durationTicks": 4,
          "midi": 50,
          "name": "D3",
          "ticks": 5821,
          "time": 67.68604651162791,
          "velocity": 0.18110236220472442
        },
        {
          "duration": 0.23255813953487348,
          "durationTicks": 20,
          "midi": 76,
          "name": "E5",
          "ticks": 5824,
          "time": 67.72093023255815,
          "velocity": 0.4645669291338583
        },
        {
          "duration": 0.2674418604651123,
          "durationTicks": 23,
          "midi": 79,
          "name": "G5",
          "ticks": 5824,
          "time": 67.72093023255815,
          "velocity": 0.2047244094488189
        },
        {
          "duration": 0.09302325581394655,
          "durationTicks": 8,
          "midi": 95,
          "name": "B6",
          "ticks": 5824,
          "time": 67.72093023255815,
          "velocity": 0.11023622047244094
        },
        {
          "duration": 0.06976744186046346,
          "durationTicks": 6,
          "midi": 38,
          "name": "D2",
          "ticks": 5825,
          "time": 67.73255813953489,
          "velocity": 0.16535433070866143
        },
        {
          "duration": 0.09302325581394655,
          "durationTicks": 8,
          "midi": 50,
          "name": "D3",
          "ticks": 5826,
          "time": 67.74418604651163,
          "velocity": 0.2125984251968504
        },
        {
          "duration": 0.6279069767441854,
          "durationTicks": 54,
          "midi": 67,
          "name": "G4",
          "ticks": 5827,
          "time": 67.75581395348837,
          "velocity": 0.4566929133858268
        },
        {
          "duration": 0.034883720930224626,
          "durationTicks": 3,
          "midi": 69,
          "name": "A4",
          "ticks": 5831,
          "time": 67.80232558139535,
          "velocity": 0.2047244094488189
        },
        {
          "duration": 0.05813953488372192,
          "durationTicks": 5,
          "midi": 83,
          "name": "B5",
          "ticks": 5834,
          "time": 67.83720930232558,
          "velocity": 0.25196850393700787
        },
        {
          "duration": 0.06976744186046346,
          "durationTicks": 6,
          "midi": 89,
          "name": "F6",
          "ticks": 5835,
          "time": 67.84883720930233,
          "velocity": 0.14960629921259844
        },
        {
          "duration": 0.023255813953483084,
          "durationTicks": 2,
          "midi": 59,
          "name": "B3",
          "ticks": 5836,
          "time": 67.86046511627907,
          "velocity": 0.4094488188976378
        },
        {
          "duration": 0.19767441860464885,
          "durationTicks": 17,
          "midi": 64,
          "name": "E4",
          "ticks": 5836,
          "time": 67.86046511627907,
          "velocity": 0.36220472440944884
        },
        {
          "duration": 0.09302325581394655,
          "durationTicks": 8,
          "midi": 82,
          "name": "A#5",
          "ticks": 5836,
          "time": 67.86046511627907,
          "velocity": 0.14960629921259844
        },
        {
          "duration": 0.03488372093023884,
          "durationTicks": 3,
          "midi": 60,
          "name": "C4",
          "ticks": 5838,
          "time": 67.88372093023256,
          "velocity": 0.4015748031496063
        },
        {
          "duration": 0.16279069767442422,
          "durationTicks": 14,
          "midi": 48,
          "name": "C3",
          "ticks": 5839,
          "time": 67.8953488372093,
          "velocity": 0.30708661417322836
        },
        {
          "duration": 0.04651162790698038,
          "durationTicks": 4,
          "midi": 95,
          "name": "B6",
          "ticks": 5839,
          "time": 67.8953488372093,
          "velocity": 0.15748031496062992
        },
        {
          "duration": 0.2093023255813904,
          "durationTicks": 18,
          "midi": 83,
          "name": "B5",
          "ticks": 5840,
          "time": 67.90697674418605,
          "velocity": 0.2204724409448819
        },
        {
          "duration": 0.06976744186046346,
          "durationTicks": 6,
          "midi": 55,
          "name": "G3",
          "ticks": 5841,
          "time": 67.9186046511628,
          "velocity": 0.14960629921259844
        },
        {
          "duration": 0.023255813953483084,
          "durationTicks": 2,
          "midi": 70,
          "name": "A#4",
          "ticks": 5843,
          "time": 67.94186046511628,
          "velocity": 0.25984251968503935
        },
        {
          "duration": 0.03488372093023884,
          "durationTicks": 3,
          "midi": 60,
          "name": "C4",
          "ticks": 5844,
          "time": 67.95348837209302,
          "velocity": 0.3464566929133858
        },
        {
          "duration": 0.13953488372092693,
          "durationTicks": 12,
          "midi": 77,
          "name": "F5",
          "ticks": 5844,
          "time": 67.95348837209302,
          "velocity": 0.47244094488188976
        },
        {
          "duration": 0.25581395348837077,
          "durationTicks": 22,
          "midi": 81,
          "name": "A5",
          "ticks": 5844,
          "time": 67.95348837209302,
          "velocity": 0.28346456692913385
        },
        {
          "duration": 0.04651162790698038,
          "durationTicks": 4,
          "midi": 71,
          "name": "B4",
          "ticks": 5845,
          "time": 67.96511627906976,
          "velocity": 0.29133858267716534
        },
        {
          "duration": 0.255813953488385,
          "durationTicks": 22,
          "midi": 88,
          "name": "E6",
          "ticks": 5845,
          "time": 67.96511627906976,
          "velocity": 0.2677165354330709
        },
        {
          "duration": 0.09302325581394655,
          "durationTicks": 8,
          "midi": 69,
          "name": "A4",
          "ticks": 5847,
          "time": 67.98837209302326,
          "velocity": 0.3858267716535433
        },
        {
          "duration": 0.05813953488372192,
          "durationTicks": 5,
          "midi": 59,
          "name": "B3",
          "ticks": 5848,
          "time": 68,
          "velocity": 0.31496062992125984
        },
        {
          "duration": 0.04651162790698038,
          "durationTicks": 4,
          "midi": 71,
          "name": "B4",
          "ticks": 5850,
          "time": 68.02325581395348,
          "velocity": 0.31496062992125984
        },
        {
          "duration": 0.11627906976744384,
          "durationTicks": 10,
          "midi": 91,
          "name": "G6",
          "ticks": 5853,
          "time": 68.05813953488372,
          "velocity": 0.1732283464566929
        },
        {
          "duration": 0.023255813953483084,
          "durationTicks": 2,
          "midi": 48,
          "name": "C3",
          "ticks": 5854,
          "time": 68.06976744186046,
          "velocity": 0.30708661417322836
        },
        {
          "duration": 0.22093023255814614,
          "durationTicks": 19,
          "midi": 60,
          "name": "C4",
          "ticks": 5854,
          "time": 68.06976744186046,
          "velocity": 0.3858267716535433
        },
        {
          "duration": 0.22093023255814614,
          "durationTicks": 19,
          "midi": 72,
          "name": "C5",
          "ticks": 5854,
          "time": 68.06976744186046,
          "velocity": 0.4409448818897638
        },
        {
          "duration": 0.05813953488372192,
          "durationTicks": 5,
          "midi": 85,
          "name": "C#6",
          "ticks": 5854,
          "time": 68.06976744186046,
          "velocity": 0.16535433070866143
        },
        {
          "duration": 0.25581395348837077,
          "durationTicks": 22,
          "midi": 76,
          "name": "E5",
          "ticks": 5855,
          "time": 68.0813953488372,
          "velocity": 0.4645669291338583
        },
        {
          "duration": 0.09302325581396076,
          "durationTicks": 8,
          "midi": 89,
          "name": "F6",
          "ticks": 5856,
          "time": 68.09302325581395,
          "velocity": 0.08661417322834646
        },
        {
          "duration": 0.04651162790698038,
          "durationTicks": 4,
          "midi": 38,
          "name": "D2",
          "ticks": 5858,
          "time": 68.11627906976744,
          "velocity": 0.2283464566929134
        },
        {
          "duration": 0.023255813953483084,
          "durationTicks": 2,
          "midi": 49,
          "name": "C#3",
          "ticks": 5858,
          "time": 68.11627906976744,
          "velocity": 0.25196850393700787
        },
        {
          "duration": 0.04651162790698038,
          "durationTicks": 4,
          "midi": 85,
          "name": "C#6",
          "ticks": 5861,
          "time": 68.15116279069767,
          "velocity": 0.08661417322834646
        },
        {
          "duration": 0.12790697674418539,
          "durationTicks": 11,
          "midi": 50,
          "name": "D3",
          "ticks": 5862,
          "time": 68.16279069767442,
          "velocity": 0.2440944881889764
        },
        {
          "duration": 0.10465116279068809,
          "durationTicks": 9,
          "midi": 95,
          "name": "B6",
          "ticks": 5862,
          "time": 68.16279069767442,
          "velocity": 0.11023622047244094
        },
        {
          "duration": 0.11627906976744384,
          "durationTicks": 10,
          "midi": 38,
          "name": "D2",
          "ticks": 5863,
          "time": 68.17441860465117,
          "velocity": 0.2125984251968504
        },
        {
          "duration": 0.05813953488372192,
          "durationTicks": 5,
          "midi": 65,
          "name": "F4",
          "ticks": 5872,
          "time": 68.27906976744185,
          "velocity": 0.28346456692913385
        },
        {
          "duration": 0.034883720930224626,
          "durationTicks": 3,
          "midi": 50,
          "name": "D3",
          "ticks": 5874,
          "time": 68.30232558139535,
          "velocity": 0.28346456692913385
        },
        {
          "duration": 0.22093023255813193,
          "durationTicks": 19,
          "midi": 60,
          "name": "C4",
          "ticks": 5874,
          "time": 68.30232558139535,
          "velocity": 0.4094488188976378
        },
        {
          "duration": 0.04651162790698038,
          "durationTicks": 4,
          "midi": 81,
          "name": "A5",
          "ticks": 5874,
          "time": 68.30232558139535,
          "velocity": 0.13385826771653545
        },
        {
          "duration": 0.43023255813953654,
          "durationTicks": 37,
          "midi": 69,
          "name": "A4",
          "ticks": 5875,
          "time": 68.31395348837209,
          "velocity": 0.25984251968503935
        },
        {
          "duration": 0.04651162790698038,
          "durationTicks": 4,
          "midi": 45,
          "name": "A2",
          "ticks": 5880,
          "time": 68.37209302325581,
          "velocity": 0.28346456692913385
        },
        {
          "duration": 0.12790697674418539,
          "durationTicks": 11,
          "midi": 77,
          "name": "F5",
          "ticks": 5880,
          "time": 68.37209302325581,
          "velocity": 0.18110236220472442
        },
        {
          "duration": 0.06976744186046346,
          "durationTicks": 6,
          "midi": 50,
          "name": "D3",
          "ticks": 5885,
          "time": 68.43023255813954,
          "velocity": 0.29133858267716534
        },
        {
          "duration": 0.25581395348837077,
          "durationTicks": 22,
          "midi": 65,
          "name": "F4",
          "ticks": 5892,
          "time": 68.51162790697674,
          "velocity": 0.3937007874015748
        },
        {
          "duration": 0.7209302325581461,
          "durationTicks": 62,
          "midi": 77,
          "name": "F5",
          "ticks": 5892,
          "time": 68.51162790697674,
          "velocity": 0.4645669291338583
        },
        {
          "duration": 0.03488372093023884,
          "durationTicks": 3,
          "midi": 80,
          "name": "G#5",
          "ticks": 5892,
          "time": 68.51162790697674,
          "velocity": 0.2125984251968504
        },
        {
          "duration": 0.12790697674418539,
          "durationTicks": 11,
          "midi": 81,
          "name": "A5",
          "ticks": 5892,
          "time": 68.51162790697674,
          "velocity": 0.30708661417322836
        },
        {
          "duration": 0.30232558139535115,
          "durationTicks": 26,
          "midi": 84,
          "name": "C6",
          "ticks": 5892,
          "time": 68.51162790697674,
          "velocity": 0.4409448818897638
        },
        {
          "duration": 0.13953488372094114,
          "durationTicks": 12,
          "midi": 74,
          "name": "D5",
          "ticks": 5893,
          "time": 68.52325581395348,
          "velocity": 0.5118110236220472
        },
        {
          "duration": 0.38372093023257037,
          "durationTicks": 33,
          "midi": 87,
          "name": "D#6",
          "ticks": 5893,
          "time": 68.52325581395348,
          "velocity": 0.1732283464566929
        },
        {
          "duration": 0.2674418604651265,
          "durationTicks": 23,
          "midi": 93,
          "name": "A6",
          "ticks": 5893,
          "time": 68.52325581395348,
          "velocity": 0.31496062992125984
        },
        {
          "duration": 0.16279069767441,
          "durationTicks": 14,
          "midi": 53,
          "name": "F3",
          "ticks": 5894,
          "time": 68.53488372093024,
          "velocity": 0.30708661417322836
        },
        {
          "duration": 0.2093023255813904,
          "durationTicks": 18,
          "midi": 62,
          "name": "D4",
          "ticks": 5894,
          "time": 68.53488372093024,
          "velocity": 0.3228346456692913
        },
        {
          "duration": 0.04651162790696617,
          "durationTicks": 4,
          "midi": 91,
          "name": "G6",
          "ticks": 5895,
          "time": 68.54651162790698,
          "velocity": 0.08661417322834646
        },
        {
          "duration": 0.06976744186046346,
          "durationTicks": 6,
          "midi": 72,
          "name": "C5",
          "ticks": 5897,
          "time": 68.56976744186046,
          "velocity": 0.23622047244094488
        },
        {
          "duration": 0.03488372093023884,
          "durationTicks": 3,
          "midi": 37,
          "name": "C#2",
          "ticks": 5899,
          "time": 68.59302325581395,
          "velocity": 0.1889763779527559
        },
        {
          "duration": 0.03488372093023884,
          "durationTicks": 3,
          "midi": 85,
          "name": "C#6",
          "ticks": 5902,
          "time": 68.62790697674419,
          "velocity": 0.14960629921259844
        },
        {
          "duration": 0.12790697674418539,
          "durationTicks": 11,
          "midi": 81,
          "name": "A5",
          "ticks": 5904,
          "time": 68.65116279069767,
          "velocity": 0.2992125984251969
        },
        {
          "duration": 0.05813953488372192,
          "durationTicks": 5,
          "midi": 95,
          "name": "B6",
          "ticks": 5904,
          "time": 68.65116279069767,
          "velocity": 0.09448818897637795
        },
        {
          "duration": 0.7558139534883708,
          "durationTicks": 65,
          "midi": 74,
          "name": "D5",
          "ticks": 5906,
          "time": 68.67441860465117,
          "velocity": 0.6062992125984252
        },
        {
          "duration": 0.03488372093023884,
          "durationTicks": 3,
          "midi": 38,
          "name": "D2",
          "ticks": 5908,
          "time": 68.69767441860465,
          "velocity": 0.2204724409448819
        },
        {
          "duration": 0.05813953488372192,
          "durationTicks": 5,
          "midi": 72,
          "name": "C5",
          "ticks": 5908,
          "time": 68.69767441860465,
          "velocity": 0.10236220472440945
        },
        {
          "duration": 0.023255813953483084,
          "durationTicks": 2,
          "midi": 50,
          "name": "D3",
          "ticks": 5912,
          "time": 68.74418604651163,
          "velocity": 0.28346456692913385
        },
        {
          "duration": 0.034883720930224626,
          "durationTicks": 3,
          "midi": 83,
          "name": "B5",
          "ticks": 5912,
          "time": 68.74418604651163,
          "velocity": 0.1968503937007874
        },
        {
          "duration": 0.2093023255813904,
          "durationTicks": 18,
          "midi": 59,
          "name": "B3",
          "ticks": 5913,
          "time": 68.75581395348837,
          "velocity": 0.3700787401574803
        },
        {
          "duration": 0.2093023255814046,
          "durationTicks": 18,
          "midi": 64,
          "name": "E4",
          "ticks": 5914,
          "time": 68.76744186046511,
          "velocity": 0.4015748031496063
        },
        {
          "duration": 0.03488372093023884,
          "durationTicks": 3,
          "midi": 39,
          "name": "D#2",
          "ticks": 5915,
          "time": 68.77906976744185,
          "velocity": 0.2992125984251969
        },
        {
          "duration": 0.19767441860466306,
          "durationTicks": 17,
          "midi": 67,
          "name": "G4",
          "ticks": 5915,
          "time": 68.77906976744185,
          "velocity": 0.2992125984251969
        },
        {
          "duration": 0.06976744186046346,
          "durationTicks": 6,
          "midi": 40,
          "name": "E2",
          "ticks": 5918,
          "time": 68.81395348837209,
          "velocity": 0.29133858267716534
        },
        {
          "duration": 0.04651162790698038,
          "durationTicks": 4,
          "midi": 82,
          "name": "A#5",
          "ticks": 5918,
          "time": 68.81395348837209,
          "velocity": 0.1732283464566929
        },
        {
          "duration": 0.7906976744186096,
          "durationTicks": 68,
          "midi": 84,
          "name": "C6",
          "ticks": 5919,
          "time": 68.82558139534883,
          "velocity": 0.44881889763779526
        },
        {
          "duration": 0.8604651162790731,
          "durationTicks": 74,
          "midi": 81,
          "name": "A5",
          "ticks": 5922,
          "time": 68.86046511627907,
          "velocity": 0.3543307086614173
        },
        {
          "duration": 0.03488372093023884,
          "durationTicks": 3,
          "midi": 40,
          "name": "E2",
          "ticks": 5925,
          "time": 68.8953488372093,
          "velocity": 0.28346456692913385
        },
        {
          "duration": 0.03488372093023884,
          "durationTicks": 3,
          "midi": 40,
          "name": "E2",
          "ticks": 5929,
          "time": 68.94186046511628,
          "velocity": 0.2677165354330709
        },
        {
          "duration": 0.03488372093023884,
          "durationTicks": 3,
          "midi": 87,
          "name": "D#6",
          "ticks": 5929,
          "time": 68.94186046511628,
          "velocity": 0.11811023622047244
        },
        {
          "duration": 0.05813953488372192,
          "durationTicks": 5,
          "midi": 79,
          "name": "G5",
          "ticks": 5932,
          "time": 68.97674418604652,
          "velocity": 0.18110236220472442
        },
        {
          "duration": 0.023255813953483084,
          "durationTicks": 2,
          "midi": 40,
          "name": "E2",
          "ticks": 5933,
          "time": 68.98837209302326,
          "velocity": 0.2992125984251969
        },
        {
          "duration": 0.2093023255813904,
          "durationTicks": 18,
          "midi": 65,
          "name": "F4",
          "ticks": 5933,
          "time": 68.98837209302326,
          "velocity": 0.4015748031496063
        },
        {
          "duration": 0.11627906976744384,
          "durationTicks": 10,
          "midi": 60,
          "name": "C4",
          "ticks": 5934,
          "time": 69,
          "velocity": 0.4094488188976378
        },
        {
          "duration": 0.3604651162790731,
          "durationTicks": 31,
          "midi": 69,
          "name": "A4",
          "ticks": 5934,
          "time": 69,
          "velocity": 0.2047244094488189
        },
        {
          "duration": 0.06976744186046346,
          "durationTicks": 6,
          "midi": 83,
          "name": "B5",
          "ticks": 5936,
          "time": 69.02325581395348,
          "velocity": 0.09448818897637795
        },
        {
          "duration": 0.2906976744186096,
          "durationTicks": 25,
          "midi": 88,
          "name": "E6",
          "ticks": 5936,
          "time": 69.02325581395348,
          "velocity": 0.15748031496062992
        },
        {
          "duration": 0.034883720930224626,
          "durationTicks": 3,
          "midi": 40,
          "name": "E2",
          "ticks": 5937,
          "time": 69.03488372093024,
          "velocity": 0.2204724409448819
        },
        {
          "duration": 0.023255813953483084,
          "durationTicks": 2,
          "midi": 60,
          "name": "C4",
          "ticks": 5945,
          "time": 69.12790697674419,
          "velocity": 0.2992125984251969
        },
        {
          "duration": 0.034883720930224626,
          "durationTicks": 3,
          "midi": 60,
          "name": "C4",
          "ticks": 5948,
          "time": 69.16279069767442,
          "velocity": 0.31496062992125984
        },
        {
          "duration": 0.023255813953497295,
          "durationTicks": 2,
          "midi": 64,
          "name": "E4",
          "ticks": 5951,
          "time": 69.19767441860465,
          "velocity": 0.3858267716535433
        },
        {
          "duration": 0.22093023255814614,
          "durationTicks": 19,
          "midi": 72,
          "name": "C5",
          "ticks": 5951,
          "time": 69.19767441860465,
          "velocity": 0.36220472440944884
        },
        {
          "duration": 0.2093023255814046,
          "durationTicks": 18,
          "midi": 60,
          "name": "C4",
          "ticks": 5952,
          "time": 69.20930232558139,
          "velocity": 0.4015748031496063
        },
        {
          "duration": 0.17441860465116577,
          "durationTicks": 15,
          "midi": 83,
          "name": "B5",
          "ticks": 5952,
          "time": 69.20930232558139,
          "velocity": 0.1732283464566929
        },
        {
          "duration": 0.023255813953483084,
          "durationTicks": 2,
          "midi": 65,
          "name": "F4",
          "ticks": 5953,
          "time": 69.22093023255815,
          "velocity": 0.3464566929133858
        },
        {
          "duration": 0.034883720930224626,
          "durationTicks": 3,
          "midi": 76,
          "name": "E5",
          "ticks": 5953,
          "time": 69.22093023255815,
          "velocity": 0.25984251968503935
        },
        {
          "duration": 0.023255813953483084,
          "durationTicks": 2,
          "midi": 64,
          "name": "E4",
          "ticks": 5954,
          "time": 69.23255813953489,
          "velocity": 0.3858267716535433
        },
        {
          "duration": 0.11627906976744384,
          "durationTicks": 10,
          "midi": 85,
          "name": "C#6",
          "ticks": 5954,
          "time": 69.23255813953489,
          "velocity": 0.14173228346456693
        },
        {
          "duration": 0.04651162790698038,
          "durationTicks": 4,
          "midi": 77,
          "name": "F5",
          "ticks": 5955,
          "time": 69.24418604651163,
          "velocity": 0.25984251968503935
        },
        {
          "duration": 0.023255813953483084,
          "durationTicks": 2,
          "midi": 44,
          "name": "G#2",
          "ticks": 5956,
          "time": 69.25581395348837,
          "velocity": 0.25984251968503935
        },
        {
          "duration": 0.03488372093023884,
          "durationTicks": 3,
          "midi": 65,
          "name": "F4",
          "ticks": 5956,
          "time": 69.25581395348837,
          "velocity": 0.4409448818897638
        },
        {
          "duration": 0.04651162790698038,
          "durationTicks": 4,
          "midi": 91,
          "name": "G6",
          "ticks": 5956,
          "time": 69.25581395348837,
          "velocity": 0.11811023622047244
        },
        {
          "duration": 0.15116279069766847,
          "durationTicks": 13,
          "midi": 76,
          "name": "E5",
          "ticks": 5959,
          "time": 69.29069767441861,
          "velocity": 0.25984251968503935
        },
        {
          "duration": 0.06976744186046346,
          "durationTicks": 6,
          "midi": 45,
          "name": "A2",
          "ticks": 5960,
          "time": 69.30232558139535,
          "velocity": 0.28346456692913385
        },
        {
          "duration": 0.034883720930224626,
          "durationTicks": 3,
          "midi": 65,
          "name": "F4",
          "ticks": 5960,
          "time": 69.30232558139535,
          "velocity": 0.4094488188976378
        },
        {
          "duration": 0.06976744186046346,
          "durationTicks": 6,
          "midi": 65,
          "name": "F4",
          "ticks": 5964,
          "time": 69.34883720930233,
          "velocity": 0.3937007874015748
        },
        {
          "duration": 0.04651162790698038,
          "durationTicks": 4,
          "midi": 45,
          "name": "A2",
          "ticks": 5967,
          "time": 69.38372093023256,
          "velocity": 0.2677165354330709
        },
        {
          "duration": 0.32558139534883423,
          "durationTicks": 28,
          "midi": 69,
          "name": "A4",
          "ticks": 5967,
          "time": 69.38372093023256,
          "velocity": 0.4566929133858268
        },
        {
          "duration": 0.034883720930224626,
          "durationTicks": 3,
          "midi": 64,
          "name": "E4",
          "ticks": 5970,
          "time": 69.4186046511628,
          "velocity": 0.33070866141732286
        },
        {
          "duration": 0.4534883720930196,
          "durationTicks": 39,
          "midi": 89,
          "name": "F6",
          "ticks": 5971,
          "time": 69.43023255813954,
          "velocity": 0.25196850393700787
        },
        {
          "duration": 0.034883720930224626,
          "durationTicks": 3,
          "midi": 98,
          "name": "D7",
          "ticks": 5971,
          "time": 69.43023255813954,
          "velocity": 0.07874015748031496
        },
        {
          "duration": 0.22093023255814614,
          "durationTicks": 19,
          "midi": 60,
          "name": "C4",
          "ticks": 5972,
          "time": 69.44186046511628,
          "velocity": 0.3858267716535433
        },
        {
          "duration": 2.4651162790697754,
          "durationTicks": 212,
          "midi": 74,
          "name": "D5",
          "ticks": 5972,
          "time": 69.44186046511628,
          "velocity": 0.5511811023622047
        },
        {
          "duration": 0.24418604651162923,
          "durationTicks": 21,
          "midi": 77,
          "name": "F5",
          "ticks": 5972,
          "time": 69.44186046511628,
          "velocity": 0.49606299212598426
        },
        {
          "duration": 0.03488372093023884,
          "durationTicks": 3,
          "midi": 80,
          "name": "G#5",
          "ticks": 5972,
          "time": 69.44186046511628,
          "velocity": 0.09448818897637795
        },
        {
          "duration": 0.16279069767442422,
          "durationTicks": 14,
          "midi": 72,
          "name": "C5",
          "ticks": 5973,
          "time": 69.45348837209302,
          "velocity": 0.3937007874015748
        },
        {
          "duration": 0.03488372093023884,
          "durationTicks": 3,
          "midi": 85,
          "name": "C#6",
          "ticks": 5973,
          "time": 69.45348837209302,
          "velocity": 0.08661417322834646
        },
        {
          "duration": 0.04651162790696617,
          "durationTicks": 4,
          "midi": 50,
          "name": "D3",
          "ticks": 5975,
          "time": 69.47674418604652,
          "velocity": 0.2125984251968504
        },
        {
          "duration": 0.2093023255813904,
          "durationTicks": 18,
          "midi": 65,
          "name": "F4",
          "ticks": 5975,
          "time": 69.47674418604652,
          "velocity": 0.4094488188976378
        },
        {
          "duration": 0.12790697674418539,
          "durationTicks": 11,
          "midi": 38,
          "name": "D2",
          "ticks": 5978,
          "time": 69.51162790697674,
          "velocity": 0.23622047244094488
        },
        {
          "duration": 0.4534883720930196,
          "durationTicks": 39,
          "midi": 88,
          "name": "E6",
          "ticks": 5978,
          "time": 69.51162790697674,
          "velocity": 0.30708661417322836
        },
        {
          "duration": 0.08139534883721922,
          "durationTicks": 7,
          "midi": 95,
          "name": "B6",
          "ticks": 5979,
          "time": 69.52325581395348,
          "velocity": 0.07086614173228346
        },
        {
          "duration": 0.034883720930224626,
          "durationTicks": 3,
          "midi": 85,
          "name": "C#6",
          "ticks": 5980,
          "time": 69.53488372093024,
          "velocity": 0.07086614173228346
        },
        {
          "duration": 0.04651162790698038,
          "durationTicks": 4,
          "midi": 84,
          "name": "C6",
          "ticks": 5990,
          "time": 69.65116279069767,
          "velocity": 0.1732283464566929
        },
        {
          "duration": 0.10465116279068809,
          "durationTicks": 9,
          "midi": 72,
          "name": "C5",
          "ticks": 5991,
          "time": 69.66279069767442,
          "velocity": 0.49606299212598426
        },
        {
          "duration": 0.17441860465115155,
          "durationTicks": 15,
          "midi": 79,
          "name": "G5",
          "ticks": 5991,
          "time": 69.66279069767442,
          "velocity": 0.23622047244094488
        },
        {
          "duration": 0.3488372093023173,
          "durationTicks": 30,
          "midi": 83,
          "name": "B5",
          "ticks": 5991,
          "time": 69.66279069767442,
          "velocity": 0.2283464566929134
        },
        {
          "duration": 0.023255813953483084,
          "durationTicks": 2,
          "midi": 47,
          "name": "B2",
          "ticks": 5992,
          "time": 69.67441860465117,
          "velocity": 0.36220472440944884
        },
        {
          "duration": 0.10465116279068809,
          "durationTicks": 9,
          "midi": 76,
          "name": "E5",
          "ticks": 5992,
          "time": 69.67441860465117,
          "velocity": 0.3937007874015748
        },
        {
          "duration": 0.04651162790698038,
          "durationTicks": 4,
          "midi": 59,
          "name": "B3",
          "ticks": 5993,
          "time": 69.68604651162791,
          "velocity": 0.36220472440944884
        },
        {
          "duration": 0.19767441860464885,
          "durationTicks": 17,
          "midi": 64,
          "name": "E4",
          "ticks": 5993,
          "time": 69.68604651162791,
          "velocity": 0.33858267716535434
        },
        {
          "duration": 0.11627906976744384,
          "durationTicks": 10,
          "midi": 67,
          "name": "G4",
          "ticks": 5993,
          "time": 69.68604651162791,
          "velocity": 0.4015748031496063
        },
        {
          "duration": 0.023255813953497295,
          "durationTicks": 2,
          "midi": 48,
          "name": "C3",
          "ticks": 5994,
          "time": 69.69767441860465,
          "velocity": 0.2755905511811024
        },
        {
          "duration": 0.05813953488372192,
          "durationTicks": 5,
          "midi": 82,
          "name": "A#5",
          "ticks": 5995,
          "time": 69.70930232558139,
          "velocity": 0.10236220472440945
        },
        {
          "duration": 0.03488372093023884,
          "durationTicks": 3,
          "midi": 85,
          "name": "C#6",
          "ticks": 5995,
          "time": 69.70930232558139,
          "velocity": 0.12598425196850394
        },
        {
          "duration": 0.023255813953483084,
          "durationTicks": 2,
          "midi": 48,
          "name": "C3",
          "ticks": 5997,
          "time": 69.73255813953489,
          "velocity": 0.30708661417322836
        },
        {
          "duration": 0.04651162790698038,
          "durationTicks": 4,
          "midi": 55,
          "name": "G3",
          "ticks": 5998,
          "time": 69.74418604651163,
          "velocity": 0.2047244094488189
        },
        {
          "duration": 1.0465116279069804,
          "durationTicks": 90,
          "midi": 81,
          "name": "A5",
          "ticks": 5998,
          "time": 69.74418604651163,
          "velocity": 0.3543307086614173
        },
        {
          "duration": 0.05813953488372192,
          "durationTicks": 5,
          "midi": 59,
          "name": "B3",
          "ticks": 5999,
          "time": 69.75581395348837,
          "velocity": 0.31496062992125984
        },
        {
          "duration": 0.04651162790698038,
          "durationTicks": 4,
          "midi": 72,
          "name": "C5",
          "ticks": 6001,
          "time": 69.77906976744185,
          "velocity": 0.30708661417322836
        },
        {
          "duration": 0.11627906976744384,
          "durationTicks": 10,
          "midi": 77,
          "name": "F5",
          "ticks": 6001,
          "time": 69.77906976744185,
          "velocity": 0.4881889763779528
        },
        {
          "duration": 0.12790697674418539,
          "durationTicks": 11,
          "midi": 69,
          "name": "A4",
          "ticks": 6002,
          "time": 69.79069767441861,
          "velocity": 0.3779527559055118
        },
        {
          "duration": 0.023255813953483084,
          "durationTicks": 2,
          "midi": 48,
          "name": "C3",
          "ticks": 6004,
          "time": 69.81395348837209,
          "velocity": 0.2677165354330709
        },
        {
          "duration": 0.03488372093023884,
          "durationTicks": 3,
          "midi": 67,
          "name": "G4",
          "ticks": 6004,
          "time": 69.81395348837209,
          "velocity": 0.25984251968503935
        },
        {
          "duration": 0.03488372093023884,
          "durationTicks": 3,
          "midi": 59,
          "name": "B3",
          "ticks": 6005,
          "time": 69.82558139534883,
          "velocity": 0.30708661417322836
        },
        {
          "duration": 0.023255813953483084,
          "durationTicks": 2,
          "midi": 48,
          "name": "C3",
          "ticks": 6007,
          "time": 69.84883720930233,
          "velocity": 0.2283464566929134
        },
        {
          "duration": 0.25581395348837077,
          "durationTicks": 22,
          "midi": 60,
          "name": "C4",
          "ticks": 6008,
          "time": 69.86046511627907,
          "velocity": 0.3937007874015748
        },
        {
          "duration": 0.04651162790698038,
          "durationTicks": 4,
          "midi": 48,
          "name": "C3",
          "ticks": 6010,
          "time": 69.88372093023256,
          "velocity": 0.2283464566929134
        },
        {
          "duration": 0.05813953488372192,
          "durationTicks": 5,
          "midi": 65,
          "name": "F4",
          "ticks": 6010,
          "time": 69.88372093023256,
          "velocity": 0.3858267716535433
        },
        {
          "duration": 0.11627906976744384,
          "durationTicks": 10,
          "midi": 91,
          "name": "G6",
          "ticks": 6010,
          "time": 69.88372093023256,
          "velocity": 0.2047244094488189
        },
        {
          "duration": 0.1046511627907023,
          "durationTicks": 9,
          "midi": 72,
          "name": "C5",
          "ticks": 6011,
          "time": 69.8953488372093,
          "velocity": 0.48031496062992124
        },
        {
          "duration": 0.11627906976744384,
          "durationTicks": 10,
          "midi": 76,
          "name": "E5",
          "ticks": 6011,
          "time": 69.8953488372093,
          "velocity": 0.4566929133858268
        },
        {
          "duration": 0.16279069767442422,
          "durationTicks": 14,
          "midi": 79,
          "name": "G5",
          "ticks": 6011,
          "time": 69.8953488372093,
          "velocity": 0.1968503937007874
        },
        {
          "duration": 0.10465116279068809,
          "durationTicks": 9,
          "midi": 67,
          "name": "G4",
          "ticks": 6012,
          "time": 69.90697674418605,
          "velocity": 0.4094488188976378
        },
        {
          "duration": 0.034883720930224626,
          "durationTicks": 3,
          "midi": 85,
          "name": "C#6",
          "ticks": 6013,
          "time": 69.9186046511628,
          "velocity": 0.11023622047244094
        },
        {
          "duration": 0.4418604651162781,
          "durationTicks": 38,
          "midi": 89,
          "name": "F6",
          "ticks": 6014,
          "time": 69.93023255813954,
          "velocity": 0.4645669291338583
        },
        {
          "duration": 0.2674418604651123,
          "durationTicks": 23,
          "midi": 65,
          "name": "F4",
          "ticks": 6020,
          "time": 70,
          "velocity": 0.4015748031496063
        },
        {
          "duration": 0.6976744186046488,
          "durationTicks": 60,
          "midi": 77,
          "name": "F5",
          "ticks": 6020,
          "time": 70,
          "velocity": 0.49606299212598426
        },
        {
          "duration": 0.24418604651162923,
          "durationTicks": 21,
          "midi": 69,
          "name": "A4",
          "ticks": 6021,
          "time": 70.01162790697674,
          "velocity": 0.3937007874015748
        },
        {
          "duration": 0.06976744186046346,
          "durationTicks": 6,
          "midi": 88,
          "name": "E6",
          "ticks": 6025,
          "time": 70.05813953488372,
          "velocity": 0.1732283464566929
        },
        {
          "duration": 0.13953488372092693,
          "durationTicks": 12,
          "midi": 62,
          "name": "D4",
          "ticks": 6031,
          "time": 70.12790697674419,
          "velocity": 0.33858267716535434
        },
        {
          "duration": 0.03488372093023884,
          "durationTicks": 3,
          "midi": 80,
          "name": "G#5",
          "ticks": 6031,
          "time": 70.12790697674419,
          "velocity": 0.1968503937007874
        },
        {
          "duration": 0.17441860465116577,
          "durationTicks": 15,
          "midi": 91,
          "name": "G6",
          "ticks": 6031,
          "time": 70.12790697674419,
          "velocity": 0.15748031496062992
        },
        {
          "duration": 0.04651162790698038,
          "durationTicks": 4,
          "midi": 100,
          "name": "E7",
          "ticks": 6031,
          "time": 70.12790697674419,
          "velocity": 0.08661417322834646
        },
        {
          "duration": 0.09302325581396076,
          "durationTicks": 8,
          "midi": 53,
          "name": "F3",
          "ticks": 6032,
          "time": 70.13953488372093,
          "velocity": 0.33070866141732286
        },
        {
          "duration": 0.03488372093023884,
          "durationTicks": 3,
          "midi": 85,
          "name": "C#6",
          "ticks": 6032,
          "time": 70.13953488372093,
          "velocity": 0.16535433070866143
        },
        {
          "duration": 0.034883720930224626,
          "durationTicks": 3,
          "midi": 57,
          "name": "A3",
          "ticks": 6034,
          "time": 70.16279069767442,
          "velocity": 0.2204724409448819
        },
        {
          "duration": 0.03488372093023884,
          "durationTicks": 3,
          "midi": 95,
          "name": "B6",
          "ticks": 6036,
          "time": 70.18604651162791,
          "velocity": 0.07874015748031496
        },
        {
          "duration": 0.023255813953497295,
          "durationTicks": 2,
          "midi": 38,
          "name": "D2",
          "ticks": 6037,
          "time": 70.19767441860465,
          "velocity": 0.30708661417322836
        },
        {
          "duration": 0.05813953488372192,
          "durationTicks": 5,
          "midi": 85,
          "name": "C#6",
          "ticks": 6038,
          "time": 70.20930232558139,
          "velocity": 0.11811023622047244
        },
        {
          "duration": 0.081395348837205,
          "durationTicks": 7,
          "midi": 72,
          "name": "C5",
          "ticks": 6041,
          "time": 70.24418604651163,
          "velocity": 0.2204724409448819
        },
        {
          "duration": 0.4418604651162781,
          "durationTicks": 38,
          "midi": 79,
          "name": "G5",
          "ticks": 6041,
          "time": 70.24418604651163,
          "velocity": 0.4566929133858268
        },
        {
          "duration": 0.05813953488372192,
          "durationTicks": 5,
          "midi": 95,
          "name": "B6",
          "ticks": 6041,
          "time": 70.24418604651163,
          "velocity": 0.08661417322834646
        },
        {
          "duration": 0.081395348837205,
          "durationTicks": 7,
          "midi": 67,
          "name": "G4",
          "ticks": 6042,
          "time": 70.25581395348837,
          "velocity": 0.4409448818897638
        },
        {
          "duration": 0.023255813953497295,
          "durationTicks": 2,
          "midi": 38,
          "name": "D2",
          "ticks": 6044,
          "time": 70.27906976744185,
          "velocity": 0.30708661417322836
        },
        {
          "duration": 0.03488372093023884,
          "durationTicks": 3,
          "midi": 53,
          "name": "F3",
          "ticks": 6044,
          "time": 70.27906976744185,
          "velocity": 0.2440944881889764
        },
        {
          "duration": 0.15116279069768268,
          "durationTicks": 13,
          "midi": 62,
          "name": "D4",
          "ticks": 6044,
          "time": 70.27906976744185,
          "velocity": 0.25984251968503935
        },
        {
          "duration": 0.17441860465115155,
          "durationTicks": 15,
          "midi": 87,
          "name": "D#6",
          "ticks": 6045,
          "time": 70.29069767441861,
          "velocity": 0.12598425196850394
        },
        {
          "duration": 0.27906976744185386,
          "durationTicks": 24,
          "midi": 84,
          "name": "C6",
          "ticks": 6046,
          "time": 70.30232558139535,
          "velocity": 0.3937007874015748
        },
        {
          "duration": 0.034883720930224626,
          "durationTicks": 3,
          "midi": 85,
          "name": "C#6",
          "ticks": 6046,
          "time": 70.30232558139535,
          "velocity": 0.11023622047244094
        },
        {
          "duration": 0.13953488372092693,
          "durationTicks": 12,
          "midi": 65,
          "name": "F4",
          "ticks": 6048,
          "time": 70.32558139534883,
          "velocity": 0.3779527559055118
        },
        {
          "duration": 0.23255813953487348,
          "durationTicks": 20,
          "midi": 69,
          "name": "A4",
          "ticks": 6050,
          "time": 70.34883720930233,
          "velocity": 0.4015748031496063
        },
        {
          "duration": 0.8372093023255758,
          "durationTicks": 72,
          "midi": 88,
          "name": "E6",
          "ticks": 6050,
          "time": 70.34883720930233,
          "velocity": 0.3779527559055118
        },
        {
          "duration": 0.023255813953483084,
          "durationTicks": 2,
          "midi": 38,
          "name": "D2",
          "ticks": 6051,
          "time": 70.36046511627907,
          "velocity": 0.2440944881889764
        },
        {
          "duration": 0.05813953488372192,
          "durationTicks": 5,
          "midi": 38,
          "name": "D2",
          "ticks": 6054,
          "time": 70.3953488372093,
          "velocity": 0.2125984251968504
        },
        {
          "duration": 0.19767441860464885,
          "durationTicks": 17,
          "midi": 53,
          "name": "F3",
          "ticks": 6054,
          "time": 70.3953488372093,
          "velocity": 0.33858267716535434
        },
        {
          "duration": 0.034883720930224626,
          "durationTicks": 3,
          "midi": 72,
          "name": "C5",
          "ticks": 6055,
          "time": 70.40697674418605,
          "velocity": 0.07874015748031496
        },
        {
          "duration": 0.034883720930224626,
          "durationTicks": 3,
          "midi": 57,
          "name": "A3",
          "ticks": 6057,
          "time": 70.43023255813954,
          "velocity": 0.2047244094488189
        },
        {
          "duration": 0.13953488372092693,
          "durationTicks": 12,
          "midi": 62,
          "name": "D4",
          "ticks": 6058,
          "time": 70.44186046511628,
          "velocity": 0.36220472440944884
        },
        {
          "duration": 0.13953488372092693,
          "durationTicks": 12,
          "midi": 72,
          "name": "C5",
          "ticks": 6059,
          "time": 70.45348837209302,
          "velocity": 0.48031496062992124
        },
        {
          "duration": 0.11627906976742963,
          "durationTicks": 10,
          "midi": 65,
          "name": "F4",
          "ticks": 6061,
          "time": 70.47674418604652,
          "velocity": 0.4251968503937008
        },
        {
          "duration": 0.06976744186046346,
          "durationTicks": 6,
          "midi": 87,
          "name": "D#6",
          "ticks": 6064,
          "time": 70.51162790697674,
          "velocity": 0.1732283464566929
        },
        {
          "duration": 0.22093023255814614,
          "durationTicks": 19,
          "midi": 83,
          "name": "B5",
          "ticks": 6069,
          "time": 70.56976744186046,
          "velocity": 0.29133858267716534
        },
        {
          "duration": 0.023255813953497295,
          "durationTicks": 2,
          "midi": 40,
          "name": "E2",
          "ticks": 6070,
          "time": 70.5813953488372,
          "velocity": 0.25196850393700787
        },
        {
          "duration": 0.03488372093023884,
          "durationTicks": 3,
          "midi": 59,
          "name": "B3",
          "ticks": 6071,
          "time": 70.59302325581395,
          "velocity": 0.33858267716535434
        },
        {
          "duration": 0.2093023255814046,
          "durationTicks": 18,
          "midi": 64,
          "name": "E4",
          "ticks": 6071,
          "time": 70.59302325581395,
          "velocity": 0.3700787401574803
        },
        {
          "duration": 0.2093023255814046,
          "durationTicks": 18,
          "midi": 67,
          "name": "G4",
          "ticks": 6071,
          "time": 70.59302325581395,
          "velocity": 0.29133858267716534
        },
        {
          "duration": 0.27906976744186807,
          "durationTicks": 24,
          "midi": 71,
          "name": "B4",
          "ticks": 6071,
          "time": 70.59302325581395,
          "velocity": 0.33858267716535434
        },
        {
          "duration": 0.023255813953483084,
          "durationTicks": 2,
          "midi": 39,
          "name": "D#2",
          "ticks": 6072,
          "time": 70.6046511627907,
          "velocity": 0.25984251968503935
        },
        {
          "duration": 0.11627906976744384,
          "durationTicks": 10,
          "midi": 87,
          "name": "D#6",
          "ticks": 6072,
          "time": 70.6046511627907,
          "velocity": 0.14960629921259844
        },
        {
          "duration": 0.04651162790698038,
          "durationTicks": 4,
          "midi": 40,
          "name": "E2",
          "ticks": 6074,
          "time": 70.62790697674419,
          "velocity": 0.2677165354330709
        },
        {
          "duration": 0.13953488372092693,
          "durationTicks": 12,
          "midi": 59,
          "name": "B3",
          "ticks": 6075,
          "time": 70.63953488372093,
          "velocity": 0.2677165354330709
        },
        {
          "duration": 0.023255813953483084,
          "durationTicks": 2,
          "midi": 55,
          "name": "G3",
          "ticks": 6077,
          "time": 70.66279069767442,
          "velocity": 0.2440944881889764
        },
        {
          "duration": 0.12790697674418539,
          "durationTicks": 11,
          "midi": 40,
          "name": "E2",
          "ticks": 6079,
          "time": 70.68604651162791,
          "velocity": 0.29133858267716534
        },
        {
          "duration": 0.13953488372092693,
          "durationTicks": 12,
          "midi": 76,
          "name": "E5",
          "ticks": 6079,
          "time": 70.68604651162791,
          "velocity": 0.5118110236220472
        },
        {
          "duration": 0.05813953488372192,
          "durationTicks": 5,
          "midi": 55,
          "name": "G3",
          "ticks": 6086,
          "time": 70.76744186046511,
          "velocity": 0.2047244094488189
        },
        {
          "duration": 1.139534883720927,
          "durationTicks": 98,
          "midi": 79,
          "name": "G5",
          "ticks": 6088,
          "time": 70.79069767441861,
          "velocity": 0.48031496062992124
        },
        {
          "duration": 0.22093023255813193,
          "durationTicks": 19,
          "midi": 84,
          "name": "C6",
          "ticks": 6088,
          "time": 70.79069767441861,
          "velocity": 0.3700787401574803
        },
        {
          "duration": 0.4534883720930196,
          "durationTicks": 39,
          "midi": 62,
          "name": "D4",
          "ticks": 6089,
          "time": 70.80232558139535,
          "velocity": 0.3543307086614173
        },
        {
          "duration": 0.11627906976744384,
          "durationTicks": 10,
          "midi": 77,
          "name": "F5",
          "ticks": 6090,
          "time": 70.81395348837209,
          "velocity": 0.3937007874015748
        },
        {
          "duration": 0.2093023255813904,
          "durationTicks": 18,
          "midi": 81,
          "name": "A5",
          "ticks": 6090,
          "time": 70.81395348837209,
          "velocity": 0.2047244094488189
        },
        {
          "duration": 0.2093023255814046,
          "durationTicks": 18,
          "midi": 65,
          "name": "F4",
          "ticks": 6091,
          "time": 70.82558139534883,
          "velocity": 0.3700787401574803
        },
        {
          "duration": 0.08139534883721922,
          "durationTicks": 7,
          "midi": 40,
          "name": "E2",
          "ticks": 6092,
          "time": 70.83720930232558,
          "velocity": 0.18110236220472442
        },
        {
          "duration": 0.1860465116279073,
          "durationTicks": 16,
          "midi": 69,
          "name": "A4",
          "ticks": 6092,
          "time": 70.83720930232558,
          "velocity": 0.13385826771653545
        },
        {
          "duration": 0.16279069767441,
          "durationTicks": 14,
          "midi": 57,
          "name": "A3",
          "ticks": 6094,
          "time": 70.86046511627907,
          "velocity": 0.2283464566929134
        },
        {
          "duration": 0.023255813953497295,
          "durationTicks": 2,
          "midi": 45,
          "name": "A2",
          "ticks": 6108,
          "time": 71.02325581395348,
          "velocity": 0.3228346456692913
        },
        {
          "duration": 0.06976744186046346,
          "durationTicks": 6,
          "midi": 58,
          "name": "A#3",
          "ticks": 6108,
          "time": 71.02325581395348,
          "velocity": 0.2677165354330709
        },
        {
          "duration": 0.34883720930233153,
          "durationTicks": 30,
          "midi": 82,
          "name": "A#5",
          "ticks": 6108,
          "time": 71.02325581395348,
          "velocity": 0.4566929133858268
        },
        {
          "duration": 0.22093023255813193,
          "durationTicks": 19,
          "midi": 67,
          "name": "G4",
          "ticks": 6109,
          "time": 71.03488372093024,
          "velocity": 0.4251968503937008
        },
        {
          "duration": 0.034883720930224626,
          "durationTicks": 3,
          "midi": 95,
          "name": "B6",
          "ticks": 6110,
          "time": 71.04651162790698,
          "velocity": 0.10236220472440945
        },
        {
          "duration": 0.1046511627907023,
          "durationTicks": 9,
          "midi": 43,
          "name": "G2",
          "ticks": 6113,
          "time": 71.0813953488372,
          "velocity": 0.3779527559055118
        },
        {
          "duration": 0.023255813953497295,
          "durationTicks": 2,
          "midi": 57,
          "name": "A3",
          "ticks": 6114,
          "time": 71.09302325581395,
          "velocity": 0.23622047244094488
        },
        {
          "duration": 0.2674418604651265,
          "durationTicks": 23,
          "midi": 85,
          "name": "C#6",
          "ticks": 6114,
          "time": 71.09302325581395,
          "velocity": 0.16535433070866143
        },
        {
          "duration": 0.04651162790696617,
          "durationTicks": 4,
          "midi": 83,
          "name": "B5",
          "ticks": 6115,
          "time": 71.1046511627907,
          "velocity": 0.2204724409448819
        },
        {
          "duration": 0.05813953488372192,
          "durationTicks": 5,
          "midi": 58,
          "name": "A#3",
          "ticks": 6116,
          "time": 71.11627906976744,
          "velocity": 0.28346456692913385
        },
        {
          "duration": 0.255813953488385,
          "durationTicks": 22,
          "midi": 89,
          "name": "F6",
          "ticks": 6119,
          "time": 71.15116279069767,
          "velocity": 0.47244094488188976
        },
        {
          "duration": 0.034883720930224626,
          "durationTicks": 3,
          "midi": 57,
          "name": "A3",
          "ticks": 6121,
          "time": 71.17441860465117,
          "velocity": 0.2125984251968504
        },
        {
          "duration": 0.04651162790698038,
          "durationTicks": 4,
          "midi": 83,
          "name": "B5",
          "ticks": 6122,
          "time": 71.18604651162791,
          "velocity": 0.2125984251968504
        },
        {
          "duration": 0.04651162790698038,
          "durationTicks": 4,
          "midi": 43,
          "name": "G2",
          "ticks": 6123,
          "time": 71.19767441860465,
          "velocity": 0.30708661417322836
        },
        {
          "duration": 0.04651162790698038,
          "durationTicks": 4,
          "midi": 58,
          "name": "A#3",
          "ticks": 6124,
          "time": 71.20930232558139,
          "velocity": 0.2992125984251969
        },
        {
          "duration": 0.16279069767442422,
          "durationTicks": 14,
          "midi": 77,
          "name": "F5",
          "ticks": 6124,
          "time": 71.20930232558139,
          "velocity": 0.4015748031496063
        },
        {
          "duration": 0.034883720930224626,
          "durationTicks": 3,
          "midi": 44,
          "name": "G#2",
          "ticks": 6127,
          "time": 71.24418604651163,
          "velocity": 0.25984251968503935
        },
        {
          "duration": 0.05813953488372192,
          "durationTicks": 5,
          "midi": 90,
          "name": "F#6",
          "ticks": 6127,
          "time": 71.24418604651163,
          "velocity": 0.12598425196850394
        },
        {
          "duration": 0.13953488372092693,
          "durationTicks": 12,
          "midi": 60,
          "name": "C4",
          "ticks": 6128,
          "time": 71.25581395348837,
          "velocity": 0.41732283464566927
        },
        {
          "duration": 0.13953488372092693,
          "durationTicks": 12,
          "midi": 69,
          "name": "A4",
          "ticks": 6128,
          "time": 71.25581395348837,
          "velocity": 0.4330708661417323
        },
        {
          "duration": 0.11627906976744384,
          "durationTicks": 10,
          "midi": 96,
          "name": "C7",
          "ticks": 6128,
          "time": 71.25581395348837,
          "velocity": 0.08661417322834646
        },
        {
          "duration": 0.11627906976744384,
          "durationTicks": 10,
          "midi": 65,
          "name": "F4",
          "ticks": 6129,
          "time": 71.26744186046511,
          "velocity": 0.3858267716535433
        },
        {
          "duration": 0.33720930232559,
          "durationTicks": 29,
          "midi": 83,
          "name": "B5",
          "ticks": 6129,
          "time": 71.26744186046511,
          "velocity": 0.2677165354330709
        },
        {
          "duration": 0.34883720930233153,
          "durationTicks": 30,
          "midi": 84,
          "name": "C6",
          "ticks": 6129,
          "time": 71.26744186046511,
          "velocity": 0.2125984251968504
        },
        {
          "duration": 0.03488372093023884,
          "durationTicks": 3,
          "midi": 88,
          "name": "E6",
          "ticks": 6129,
          "time": 71.26744186046511,
          "velocity": 0.13385826771653545
        },
        {
          "duration": 0.27906976744186807,
          "durationTicks": 24,
          "midi": 88,
          "name": "E6",
          "ticks": 6134,
          "time": 71.32558139534883,
          "velocity": 0.2204724409448819
        },
        {
          "duration": 0.04651162790696617,
          "durationTicks": 4,
          "midi": 43,
          "name": "G2",
          "ticks": 6136,
          "time": 71.34883720930233,
          "velocity": 0.14960629921259844
        },
        {
          "duration": 0.034883720930224626,
          "durationTicks": 3,
          "midi": 90,
          "name": "F#6",
          "ticks": 6136,
          "time": 71.34883720930233,
          "velocity": 0.08661417322834646
        },
        {
          "duration": 0.22093023255813193,
          "durationTicks": 19,
          "midi": 76,
          "name": "E5",
          "ticks": 6137,
          "time": 71.36046511627907,
          "velocity": 0.4645669291338583
        },
        {
          "duration": 0.16279069767442422,
          "durationTicks": 14,
          "midi": 72,
          "name": "C5",
          "ticks": 6138,
          "time": 71.37209302325581,
          "velocity": 0.4881889763779528
        },
        {
          "duration": 0.023255813953497295,
          "durationTicks": 2,
          "midi": 57,
          "name": "A3",
          "ticks": 6139,
          "time": 71.38372093023256,
          "velocity": 0.33070866141732286
        },
        {
          "duration": 0.1046511627907023,
          "durationTicks": 9,
          "midi": 67,
          "name": "G4",
          "ticks": 6139,
          "time": 71.38372093023256,
          "velocity": 0.44881889763779526
        },
        {
          "duration": 0.034883720930224626,
          "durationTicks": 3,
          "midi": 55,
          "name": "G3",
          "ticks": 6143,
          "time": 71.43023255813954,
          "velocity": 0.2047244094488189
        },
        {
          "duration": 0.023255813953483084,
          "durationTicks": 2,
          "midi": 60,
          "name": "C4",
          "ticks": 6143,
          "time": 71.43023255813954,
          "velocity": 0.30708661417322836
        },
        {
          "duration": 0.03488372093023884,
          "durationTicks": 3,
          "midi": 60,
          "name": "C4",
          "ticks": 6146,
          "time": 71.46511627906976,
          "velocity": 0.3464566929133858
        },
        {
          "duration": 0.11627906976742963,
          "durationTicks": 10,
          "midi": 65,
          "name": "F4",
          "ticks": 6147,
          "time": 71.47674418604652,
          "velocity": 0.49606299212598426
        },
        {
          "duration": 0.023255813953483084,
          "durationTicks": 2,
          "midi": 69,
          "name": "A4",
          "ticks": 6147,
          "time": 71.47674418604652,
          "velocity": 0.2677165354330709
        },
        {
          "duration": 0.19767441860464885,
          "durationTicks": 17,
          "midi": 87,
          "name": "D#6",
          "ticks": 6147,
          "time": 71.47674418604652,
          "velocity": 0.2047244094488189
        },
        {
          "duration": 0.04651162790698038,
          "durationTicks": 4,
          "midi": 59,
          "name": "B3",
          "ticks": 6149,
          "time": 71.5,
          "velocity": 0.3464566929133858
        },
        {
          "duration": 0.1860465116279073,
          "durationTicks": 16,
          "midi": 53,
          "name": "F3",
          "ticks": 6150,
          "time": 71.51162790697674,
          "velocity": 0.3464566929133858
        },
        {
          "duration": 0.03488372093023884,
          "durationTicks": 3,
          "midi": 42,
          "name": "F#2",
          "ticks": 6151,
          "time": 71.52325581395348,
          "velocity": 0.16535433070866143
        },
        {
          "duration": 0.034883720930224626,
          "durationTicks": 3,
          "midi": 72,
          "name": "C5",
          "ticks": 6153,
          "time": 71.54651162790698,
          "velocity": 0.31496062992125984
        },
        {
          "duration": 0.5,
          "durationTicks": 43,
          "midi": 81,
          "name": "A5",
          "ticks": 6153,
          "time": 71.54651162790698,
          "velocity": 0.2992125984251969
        },
        {
          "duration": 0.04651162790698038,
          "durationTicks": 4,
          "midi": 41,
          "name": "F2",
          "ticks": 6154,
          "time": 71.55813953488372,
          "velocity": 0.15748031496062992
        },
        {
          "duration": 0.15116279069768268,
          "durationTicks": 13,
          "midi": 77,
          "name": "F5",
          "ticks": 6156,
          "time": 71.5813953488372,
          "velocity": 0.49606299212598426
        },
        {
          "duration": 0.04651162790698038,
          "durationTicks": 4,
          "midi": 59,
          "name": "B3",
          "ticks": 6157,
          "time": 71.59302325581395,
          "velocity": 0.2992125984251969
        },
        {
          "duration": 0.15116279069768268,
          "durationTicks": 13,
          "midi": 69,
          "name": "A4",
          "ticks": 6157,
          "time": 71.59302325581395,
          "velocity": 0.3937007874015748
        },
        {
          "duration": 0.09302325581394655,
          "durationTicks": 8,
          "midi": 65,
          "name": "F4",
          "ticks": 6158,
          "time": 71.6046511627907,
          "velocity": 0.3937007874015748
        },
        {
          "duration": 0.081395348837205,
          "durationTicks": 7,
          "midi": 41,
          "name": "F2",
          "ticks": 6159,
          "time": 71.61627906976744,
          "velocity": 0.16535433070866143
        },
        {
          "duration": 0.03488372093023884,
          "durationTicks": 3,
          "midi": 59,
          "name": "B3",
          "ticks": 6162,
          "time": 71.65116279069767,
          "velocity": 0.2755905511811024
        },
        {
          "duration": 0.023255813953497295,
          "durationTicks": 2,
          "midi": 66,
          "name": "F#4",
          "ticks": 6166,
          "time": 71.69767441860465,
          "velocity": 0.36220472440944884
        },
        {
          "duration": 0.06976744186046346,
          "durationTicks": 6,
          "midi": 87,
          "name": "D#6",
          "ticks": 6166,
          "time": 71.69767441860465,
          "velocity": 0.11811023622047244
        },
        {
          "duration": 0.09302325581396076,
          "durationTicks": 8,
          "midi": 88,
          "name": "E6",
          "ticks": 6166,
          "time": 71.69767441860465,
          "velocity": 0.31496062992125984
        },
        {
          "duration": 0.04651162790698038,
          "durationTicks": 4,
          "midi": 44,
          "name": "G#2",
          "ticks": 6167,
          "time": 71.70930232558139,
          "velocity": 0.2755905511811024
        },
        {
          "duration": 0.25581395348837077,
          "durationTicks": 22,
          "midi": 60,
          "name": "C4",
          "ticks": 6167,
          "time": 71.70930232558139,
          "velocity": 0.4094488188976378
        },
        {
          "duration": 0.5813953488372192,
          "durationTicks": 50,
          "midi": 72,
          "name": "C5",
          "ticks": 6167,
          "time": 71.70930232558139,
          "velocity": 0.4881889763779528
        },
        {
          "duration": 0.023255813953483084,
          "durationTicks": 2,
          "midi": 54,
          "name": "F#3",
          "ticks": 6168,
          "time": 71.72093023255815,
          "velocity": 0.2283464566929134
        },
        {
          "duration": 0.034883720930224626,
          "durationTicks": 3,
          "midi": 65,
          "name": "F4",
          "ticks": 6168,
          "time": 71.72093023255815,
          "velocity": 0.36220472440944884
        },
        {
          "duration": 0.22093023255813193,
          "durationTicks": 19,
          "midi": 76,
          "name": "E5",
          "ticks": 6168,
          "time": 71.72093023255815,
          "velocity": 0.47244094488188976
        },
        {
          "duration": 0.081395348837205,
          "durationTicks": 7,
          "midi": 85,
          "name": "C#6",
          "ticks": 6168,
          "time": 71.72093023255815,
          "velocity": 0.14173228346456693
        },
        {
          "duration": 0.13953488372092693,
          "durationTicks": 12,
          "midi": 67,
          "name": "G4",
          "ticks": 6170,
          "time": 71.74418604651163,
          "velocity": 0.41732283464566927
        },
        {
          "duration": 0.09302325581396076,
          "durationTicks": 8,
          "midi": 43,
          "name": "G2",
          "ticks": 6172,
          "time": 71.76744186046511,
          "velocity": 0.2440944881889764
        },
        {
          "duration": 0.023255813953483084,
          "durationTicks": 2,
          "midi": 65,
          "name": "F4",
          "ticks": 6174,
          "time": 71.79069767441861,
          "velocity": 0.2677165354330709
        },
        {
          "duration": 0.034883720930224626,
          "durationTicks": 3,
          "midi": 89,
          "name": "F6",
          "ticks": 6174,
          "time": 71.79069767441861,
          "velocity": 0.14173228346456693
        },
        {
          "duration": 0.06976744186046346,
          "durationTicks": 6,
          "midi": 69,
          "name": "A4",
          "ticks": 6175,
          "time": 71.80232558139535,
          "velocity": 0.2755905511811024
        },
        {
          "duration": 0.03488372093023884,
          "durationTicks": 3,
          "midi": 55,
          "name": "G3",
          "ticks": 6177,
          "time": 71.82558139534883,
          "velocity": 0.25196850393700787
        },
        {
          "duration": 0.03488372093023884,
          "durationTicks": 3,
          "midi": 65,
          "name": "F4",
          "ticks": 6177,
          "time": 71.82558139534883,
          "velocity": 0.25984251968503935
        },
        {
          "duration": 0.05813953488372192,
          "durationTicks": 5,
          "midi": 43,
          "name": "G2",
          "ticks": 6181,
          "time": 71.87209302325581,
          "velocity": 0.1732283464566929
        },
        {
          "duration": 0.023255813953483084,
          "durationTicks": 2,
          "midi": 57,
          "name": "A3",
          "ticks": 6181,
          "time": 71.87209302325581,
          "velocity": 0.30708661417322836
        },
        {
          "duration": 0.081395348837205,
          "durationTicks": 7,
          "midi": 65,
          "name": "F4",
          "ticks": 6181,
          "time": 71.87209302325581,
          "velocity": 0.2755905511811024
        },
        {
          "duration": 0.023255813953483084,
          "durationTicks": 2,
          "midi": 55,
          "name": "G3",
          "ticks": 6184,
          "time": 71.90697674418605,
          "velocity": 0.2440944881889764
        },
        {
          "duration": 0.023255813953483084,
          "durationTicks": 2,
          "midi": 42,
          "name": "F#2",
          "ticks": 6186,
          "time": 71.93023255813954,
          "velocity": 0.25196850393700787
        },
        {
          "duration": 0.7558139534883708,
          "durationTicks": 65,
          "midi": 74,
          "name": "D5",
          "ticks": 6186,
          "time": 71.93023255813954,
          "velocity": 0.5275590551181102
        },
        {
          "duration": 0.4534883720930196,
          "durationTicks": 39,
          "midi": 77,
          "name": "F5",
          "ticks": 6186,
          "time": 71.93023255813954,
          "velocity": 0.49606299212598426
        },
        {
          "duration": 0.05813953488372192,
          "durationTicks": 5,
          "midi": 91,
          "name": "G6",
          "ticks": 6186,
          "time": 71.93023255813954,
          "velocity": 0.15748031496062992
        },
        {
          "duration": 0.2906976744186096,
          "durationTicks": 25,
          "midi": 93,
          "name": "A6",
          "ticks": 6186,
          "time": 71.93023255813954,
          "velocity": 0.31496062992125984
        },
        {
          "duration": 0.13953488372092693,
          "durationTicks": 12,
          "midi": 43,
          "name": "G2",
          "ticks": 6188,
          "time": 71.95348837209302,
          "velocity": 0.3700787401574803
        },
        {
          "duration": 0.023255813953497295,
          "durationTicks": 2,
          "midi": 57,
          "name": "A3",
          "ticks": 6188,
          "time": 71.95348837209302,
          "velocity": 0.25984251968503935
        },
        {
          "duration": 0.1860465116279073,
          "durationTicks": 16,
          "midi": 83,
          "name": "B5",
          "ticks": 6188,
          "time": 71.95348837209302,
          "velocity": 0.1968503937007874
        },
        {
          "duration": 0.05813953488372192,
          "durationTicks": 5,
          "midi": 90,
          "name": "F#6",
          "ticks": 6188,
          "time": 71.95348837209302,
          "velocity": 0.10236220472440945
        },
        {
          "duration": 0.023255813953483084,
          "durationTicks": 2,
          "midi": 58,
          "name": "A#3",
          "ticks": 6191,
          "time": 71.98837209302326,
          "velocity": 0.23622047244094488
        },
        {
          "duration": 0.3488372093023173,
          "durationTicks": 30,
          "midi": 85,
          "name": "C#6",
          "ticks": 6191,
          "time": 71.98837209302326,
          "velocity": 0.23622047244094488
        },
        {
          "duration": 0.09302325581396076,
          "durationTicks": 8,
          "midi": 65,
          "name": "F4",
          "ticks": 6194,
          "time": 72.02325581395348,
          "velocity": 0.18110236220472442
        },
        {
          "duration": 0.04651162790696617,
          "durationTicks": 4,
          "midi": 50,
          "name": "D3",
          "ticks": 6196,
          "time": 72.04651162790698,
          "velocity": 0.1732283464566929
        },
        {
          "duration": 0.034883720930224626,
          "durationTicks": 3,
          "midi": 82,
          "name": "A#5",
          "ticks": 6196,
          "time": 72.04651162790698,
          "velocity": 0.16535433070866143
        },
        {
          "duration": 0.05813953488372192,
          "durationTicks": 5,
          "midi": 90,
          "name": "F#6",
          "ticks": 6196,
          "time": 72.04651162790698,
          "velocity": 0.11811023622047244
        },
        {
          "duration": 0.04651162790696617,
          "durationTicks": 4,
          "midi": 96,
          "name": "C7",
          "ticks": 6196,
          "time": 72.04651162790698,
          "velocity": 0.12598425196850394
        },
        {
          "duration": 0.04651162790696617,
          "durationTicks": 4,
          "midi": 98,
          "name": "D7",
          "ticks": 6196,
          "time": 72.04651162790698,
          "velocity": 0.09448818897637795
        },
        {
          "duration": 0.081395348837205,
          "durationTicks": 7,
          "midi": 91,
          "name": "G6",
          "ticks": 6197,
          "time": 72.05813953488372,
          "velocity": 0.13385826771653545
        },
        {
          "duration": 0.38372093023255616,
          "durationTicks": 33,
          "midi": 81,
          "name": "A5",
          "ticks": 6198,
          "time": 72.06976744186046,
          "velocity": 0.33858267716535434
        },
        {
          "duration": 0.06976744186046346,
          "durationTicks": 6,
          "midi": 43,
          "name": "G2",
          "ticks": 6201,
          "time": 72.1046511627907,
          "velocity": 0.2992125984251969
        },
        {
          "duration": 0.04651162790698038,
          "durationTicks": 4,
          "midi": 62,
          "name": "D4",
          "ticks": 6202,
          "time": 72.11627906976744,
          "velocity": 0.12598425196850394
        },
        {
          "duration": 0.03488372093023884,
          "durationTicks": 3,
          "midi": 59,
          "name": "B3",
          "ticks": 6204,
          "time": 72.13953488372093,
          "velocity": 0.2992125984251969
        },
        {
          "duration": 0.023255813953497295,
          "durationTicks": 2,
          "midi": 50,
          "name": "D3",
          "ticks": 6205,
          "time": 72.15116279069767,
          "velocity": 0.28346456692913385
        },
        {
          "duration": 0.2906976744185954,
          "durationTicks": 25,
          "midi": 65,
          "name": "F4",
          "ticks": 6206,
          "time": 72.16279069767442,
          "velocity": 0.4409448818897638
        },
        {
          "duration": 0.2674418604651123,
          "durationTicks": 23,
          "midi": 69,
          "name": "A4",
          "ticks": 6206,
          "time": 72.16279069767442,
          "velocity": 0.2755905511811024
        },
        {
          "duration": 0.04651162790696617,
          "durationTicks": 4,
          "midi": 83,
          "name": "B5",
          "ticks": 6206,
          "time": 72.16279069767442,
          "velocity": 0.1889763779527559
        },
        {
          "duration": 0.081395348837205,
          "durationTicks": 7,
          "midi": 91,
          "name": "G6",
          "ticks": 6206,
          "time": 72.16279069767442,
          "velocity": 0.18110236220472442
        },
        {
          "duration": 0.13953488372092693,
          "durationTicks": 12,
          "midi": 62,
          "name": "D4",
          "ticks": 6207,
          "time": 72.17441860465117,
          "velocity": 0.28346456692913385
        },
        {
          "duration": 0.2093023255813904,
          "durationTicks": 18,
          "midi": 87,
          "name": "D#6",
          "ticks": 6207,
          "time": 72.17441860465117,
          "velocity": 0.14960629921259844
        },
        {
          "duration": 0.38372093023255616,
          "durationTicks": 33,
          "midi": 88,
          "name": "E6",
          "ticks": 6209,
          "time": 72.19767441860465,
          "velocity": 0.2440944881889764
        },
        {
          "duration": 0.04651162790696617,
          "durationTicks": 4,
          "midi": 83,
          "name": "B5",
          "ticks": 6212,
          "time": 72.23255813953489,
          "velocity": 0.10236220472440945
        },
        {
          "duration": 0.08139534883721922,
          "durationTicks": 7,
          "midi": 95,
          "name": "B6",
          "ticks": 6215,
          "time": 72.26744186046511,
          "velocity": 0.11811023622047244
        },
        {
          "duration": 0.023255813953497295,
          "durationTicks": 2,
          "midi": 53,
          "name": "F3",
          "ticks": 6216,
          "time": 72.27906976744185,
          "velocity": 0.2755905511811024
        },
        {
          "duration": 0.10465116279068809,
          "durationTicks": 9,
          "midi": 38,
          "name": "D2",
          "ticks": 6217,
          "time": 72.29069767441861,
          "velocity": 0.2125984251968504
        },
        {
          "duration": 0.08139534883721922,
          "durationTicks": 7,
          "midi": 62,
          "name": "D4",
          "ticks": 6220,
          "time": 72.32558139534883,
          "velocity": 0.2440944881889764
        },
        {
          "duration": 0.05813953488372192,
          "durationTicks": 5,
          "midi": 72,
          "name": "C5",
          "ticks": 6220,
          "time": 72.32558139534883,
          "velocity": 0.1889763779527559
        },
        {
          "duration": 0.19767441860464885,
          "durationTicks": 17,
          "midi": 85,
          "name": "C#6",
          "ticks": 6224,
          "time": 72.37209302325581,
          "velocity": 0.3858267716535433
        },
        {
          "duration": 0.24418604651162923,
          "durationTicks": 21,
          "midi": 76,
          "name": "E5",
          "ticks": 6225,
          "time": 72.38372093023256,
          "velocity": 0.25196850393700787
        },
        {
          "duration": 0.03488372093023884,
          "durationTicks": 3,
          "midi": 91,
          "name": "G6",
          "ticks": 6225,
          "time": 72.38372093023256,
          "velocity": 0.11811023622047244
        },
        {
          "duration": 0.09302325581396076,
          "durationTicks": 8,
          "midi": 59,
          "name": "B3",
          "ticks": 6226,
          "time": 72.3953488372093,
          "velocity": 0.3779527559055118
        },
        {
          "duration": 0.16279069767442422,
          "durationTicks": 14,
          "midi": 83,
          "name": "B5",
          "ticks": 6226,
          "time": 72.3953488372093,
          "velocity": 0.3700787401574803
        },
        {
          "duration": 0.06976744186046346,
          "durationTicks": 6,
          "midi": 89,
          "name": "F6",
          "ticks": 6227,
          "time": 72.40697674418605,
          "velocity": 0.16535433070866143
        },
        {
          "duration": 0.023255813953483084,
          "durationTicks": 2,
          "midi": 40,
          "name": "E2",
          "ticks": 6229,
          "time": 72.43023255813954,
          "velocity": 0.2440944881889764
        },
        {
          "duration": 0.19767441860464885,
          "durationTicks": 17,
          "midi": 84,
          "name": "C6",
          "ticks": 6230,
          "time": 72.44186046511628,
          "velocity": 0.3858267716535433
        },
        {
          "duration": 0.03488372093023884,
          "durationTicks": 3,
          "midi": 41,
          "name": "F2",
          "ticks": 6231,
          "time": 72.45348837209302,
          "velocity": 0.23622047244094488
        },
        {
          "duration": 0.06976744186046346,
          "durationTicks": 6,
          "midi": 87,
          "name": "D#6",
          "ticks": 6231,
          "time": 72.45348837209302,
          "velocity": 0.2047244094488189
        },
        {
          "duration": 0.081395348837205,
          "durationTicks": 7,
          "midi": 65,
          "name": "F4",
          "ticks": 6233,
          "time": 72.47674418604652,
          "velocity": 0.4015748031496063
        },
        {
          "duration": 0.13953488372092693,
          "durationTicks": 12,
          "midi": 59,
          "name": "B3",
          "ticks": 6235,
          "time": 72.5,
          "velocity": 0.2677165354330709
        },
        {
          "duration": 0.12790697674418539,
          "durationTicks": 11,
          "midi": 82,
          "name": "A#5",
          "ticks": 6235,
          "time": 72.5,
          "velocity": 0.3779527559055118
        },
        {
          "duration": 0.15116279069766847,
          "durationTicks": 13,
          "midi": 91,
          "name": "G6",
          "ticks": 6235,
          "time": 72.5,
          "velocity": 0.11811023622047244
        },
        {
          "duration": 0.081395348837205,
          "durationTicks": 7,
          "midi": 41,
          "name": "F2",
          "ticks": 6238,
          "time": 72.53488372093024,
          "velocity": 0.14960629921259844
        },
        {
          "duration": 0.034883720930224626,
          "durationTicks": 3,
          "midi": 67,
          "name": "G4",
          "ticks": 6239,
          "time": 72.54651162790698,
          "velocity": 0.2755905511811024
        },
        {
          "duration": 0.04651162790696617,
          "durationTicks": 4,
          "midi": 81,
          "name": "A5",
          "ticks": 6239,
          "time": 72.54651162790698,
          "velocity": 0.2283464566929134
        },
        {
          "duration": 0.09302325581394655,
          "durationTicks": 8,
          "midi": 87,
          "name": "D#6",
          "ticks": 6239,
          "time": 72.54651162790698,
          "velocity": 0.11811023622047244
        },
        {
          "duration": 0.05813953488372192,
          "durationTicks": 5,
          "midi": 92,
          "name": "G#6",
          "ticks": 6240,
          "time": 72.55813953488372,
          "velocity": 0.2204724409448819
        },
        {
          "duration": 0.05813953488372192,
          "durationTicks": 5,
          "midi": 65,
          "name": "F4",
          "ticks": 6241,
          "time": 72.56976744186046,
          "velocity": 0.36220472440944884
        },
        {
          "duration": 0.04651162790698038,
          "durationTicks": 4,
          "midi": 79,
          "name": "G5",
          "ticks": 6241,
          "time": 72.56976744186046,
          "velocity": 0.41732283464566927
        },
        {
          "duration": 0.034883720930224626,
          "durationTicks": 3,
          "midi": 78,
          "name": "F#5",
          "ticks": 6244,
          "time": 72.6046511627907,
          "velocity": 0.44881889763779526
        },
        {
          "duration": 0.09302325581394655,
          "durationTicks": 8,
          "midi": 81,
          "name": "A5",
          "ticks": 6244,
          "time": 72.6046511627907,
          "velocity": 0.11023622047244094
        },
        {
          "duration": 0.2325581395348877,
          "durationTicks": 20,
          "midi": 67,
          "name": "G4",
          "ticks": 6245,
          "time": 72.61627906976744,
          "velocity": 0.33070866141732286
        },
        {
          "duration": 0.04651162790698038,
          "durationTicks": 4,
          "midi": 77,
          "name": "F5",
          "ticks": 6246,
          "time": 72.62790697674419,
          "velocity": 0.48031496062992124
        },
        {
          "duration": 0.023255813953497295,
          "durationTicks": 2,
          "midi": 44,
          "name": "G#2",
          "ticks": 6247,
          "time": 72.63953488372093,
          "velocity": 0.2677165354330709
        },
        {
          "duration": 0.05813953488372192,
          "durationTicks": 5,
          "midi": 53,
          "name": "F3",
          "ticks": 6247,
          "time": 72.63953488372093,
          "velocity": 0.14960629921259844
        },
        {
          "duration": 0.06976744186047767,
          "durationTicks": 6,
          "midi": 88,
          "name": "E6",
          "ticks": 6248,
          "time": 72.65116279069767,
          "velocity": 0.16535433070866143
        },
        {
          "duration": 0.023255813953483084,
          "durationTicks": 2,
          "midi": 76,
          "name": "E5",
          "ticks": 6250,
          "time": 72.67441860465117,
          "velocity": 0.4330708661417323
        },
        {
          "duration": 0.03488372093023884,
          "durationTicks": 3,
          "midi": 43,
          "name": "G2",
          "ticks": 6251,
          "time": 72.68604651162791,
          "velocity": 0.2125984251968504
        },
        {
          "duration": 0.081395348837205,
          "durationTicks": 7,
          "midi": 87,
          "name": "D#6",
          "ticks": 6251,
          "time": 72.68604651162791,
          "velocity": 0.15748031496062992
        },
        {
          "duration": 0.03488372093023884,
          "durationTicks": 3,
          "midi": 75,
          "name": "D#5",
          "ticks": 6252,
          "time": 72.69767441860465,
          "velocity": 0.4645669291338583
        },
        {
          "duration": 0.04651162790698038,
          "durationTicks": 4,
          "midi": 58,
          "name": "A#3",
          "ticks": 6253,
          "time": 72.70930232558139,
          "velocity": 0.09448818897637795
        },
        {
          "duration": 0.05813953488372192,
          "durationTicks": 5,
          "midi": 93,
          "name": "A6",
          "ticks": 6253,
          "time": 72.70930232558139,
          "velocity": 0.16535433070866143
        },
        {
          "duration": 0.034883720930224626,
          "durationTicks": 3,
          "midi": 74,
          "name": "D5",
          "ticks": 6254,
          "time": 72.72093023255815,
          "velocity": 0.4566929133858268
        },
        {
          "duration": 0.04651162790698038,
          "durationTicks": 4,
          "midi": 92,
          "name": "G#6",
          "ticks": 6256,
          "time": 72.74418604651163,
          "velocity": 0.09448818897637795
        },
        {
          "duration": 0.023255813953483084,
          "durationTicks": 2,
          "midi": 73,
          "name": "C#5",
          "ticks": 6257,
          "time": 72.75581395348837,
          "velocity": 0.49606299212598426
        },
        {
          "duration": 0.04651162790698038,
          "durationTicks": 4,
          "midi": 43,
          "name": "G2",
          "ticks": 6258,
          "time": 72.76744186046511,
          "velocity": 0.1889763779527559
        },
        {
          "duration": 0.03488372093023884,
          "durationTicks": 3,
          "midi": 91,
          "name": "G6",
          "ticks": 6258,
          "time": 72.76744186046511,
          "velocity": 0.14173228346456693
        },
        {
          "duration": 0.023255813953497295,
          "durationTicks": 2,
          "midi": 72,
          "name": "C5",
          "ticks": 6259,
          "time": 72.77906976744185,
          "velocity": 0.5039370078740157
        },
        {
          "duration": 0.38372093023257037,
          "durationTicks": 33,
          "midi": 79,
          "name": "G5",
          "ticks": 6259,
          "time": 72.77906976744185,
          "velocity": 0.4881889763779528
        },
        {
          "duration": 0.023255813953483084,
          "durationTicks": 2,
          "midi": 71,
          "name": "B4",
          "ticks": 6261,
          "time": 72.80232558139535,
          "velocity": 0.5118110236220472
        },
        {
          "duration": 0.04651162790698038,
          "durationTicks": 4,
          "midi": 73,
          "name": "C#5",
          "ticks": 6262,
          "time": 72.81395348837209,
          "velocity": 0.44881889763779526
        },
        {
          "duration": 0.03488372093023884,
          "durationTicks": 3,
          "midi": 43,
          "name": "G2",
          "ticks": 6263,
          "time": 72.82558139534883,
          "velocity": 0.1889763779527559
        },
        {
          "duration": 0.023255813953497295,
          "durationTicks": 2,
          "midi": 70,
          "name": "A#4",
          "ticks": 6263,
          "time": 72.82558139534883,
          "velocity": 0.5039370078740157
        },
        {
          "duration": 0.05813953488372192,
          "durationTicks": 5,
          "midi": 77,
          "name": "F5",
          "ticks": 6263,
          "time": 72.82558139534883,
          "velocity": 0.2125984251968504
        },
        {
          "duration": 0.19767441860464885,
          "durationTicks": 17,
          "midi": 81,
          "name": "A5",
          "ticks": 6263,
          "time": 72.82558139534883,
          "velocity": 0.30708661417322836
        },
        {
          "duration": 0.15116279069768268,
          "durationTicks": 13,
          "midi": 94,
          "name": "A#6",
          "ticks": 6263,
          "time": 72.82558139534883,
          "velocity": 0.2204724409448819
        },
        {
          "duration": 0.32558139534884845,
          "durationTicks": 28,
          "midi": 62,
          "name": "D4",
          "ticks": 6264,
          "time": 72.83720930232558,
          "velocity": 0.33070866141732286
        },
        {
          "duration": 0.3953488372092977,
          "durationTicks": 34,
          "midi": 58,
          "name": "A#3",
          "ticks": 6265,
          "time": 72.84883720930233,
          "velocity": 0.30708661417322836
        },
        {
          "duration": 0.15116279069766847,
          "durationTicks": 13,
          "midi": 86,
          "name": "D6",
          "ticks": 6265,
          "time": 72.84883720930233,
          "velocity": 0.15748031496062992
        },
        {
          "duration": 0.1860465116279073,
          "durationTicks": 16,
          "midi": 93,
          "name": "A6",
          "ticks": 6265,
          "time": 72.84883720930233,
          "velocity": 0.30708661417322836
        },
        {
          "duration": 0.8953488372092977,
          "durationTicks": 77,
          "midi": 74,
          "name": "D5",
          "ticks": 6266,
          "time": 72.86046511627907,
          "velocity": 0.49606299212598426
        },
        {
          "duration": 0.034883720930224626,
          "durationTicks": 3,
          "midi": 92,
          "name": "G#6",
          "ticks": 6266,
          "time": 72.86046511627907,
          "velocity": 0.11023622047244094
        },
        {
          "duration": 0.06976744186046346,
          "durationTicks": 6,
          "midi": 53,
          "name": "F3",
          "ticks": 6267,
          "time": 72.87209302325581,
          "velocity": 0.16535433070866143
        },
        {
          "duration": 0.023255813953483084,
          "durationTicks": 2,
          "midi": 69,
          "name": "A4",
          "ticks": 6267,
          "time": 72.87209302325581,
          "velocity": 0.4566929133858268
        },
        {
          "duration": 0.11627906976744384,
          "durationTicks": 10,
          "midi": 67,
          "name": "G4",
          "ticks": 6268,
          "time": 72.88372093023256,
          "velocity": 0.4251968503937008
        },
        {
          "duration": 0.13953488372094114,
          "durationTicks": 12,
          "midi": 82,
          "name": "A#5",
          "ticks": 6269,
          "time": 72.8953488372093,
          "velocity": 0.1968503937007874
        },
        {
          "duration": 0.023255813953483084,
          "durationTicks": 2,
          "midi": 70,
          "name": "A#4",
          "ticks": 6271,
          "time": 72.9186046511628,
          "velocity": 0.3779527559055118
        },
        {
          "duration": 0.081395348837205,
          "durationTicks": 7,
          "midi": 77,
          "name": "F5",
          "ticks": 6271,
          "time": 72.9186046511628,
          "velocity": 0.10236220472440945
        },
        {
          "duration": 0.023255813953483084,
          "durationTicks": 2,
          "midi": 69,
          "name": "A4",
          "ticks": 6272,
          "time": 72.93023255813954,
          "velocity": 0.4881889763779528
        },
        {
          "duration": 0.023255813953497295,
          "durationTicks": 2,
          "midi": 70,
          "name": "A#4",
          "ticks": 6274,
          "time": 72.95348837209302,
          "velocity": 0.4330708661417323
        },
        {
          "duration": 0.04651162790698038,
          "durationTicks": 4,
          "midi": 69,
          "name": "A4",
          "ticks": 6275,
          "time": 72.96511627906976,
          "velocity": 0.4566929133858268
        },
        {
          "duration": 0.04651162790696617,
          "durationTicks": 4,
          "midi": 92,
          "name": "G#6",
          "ticks": 6276,
          "time": 72.97674418604652,
          "velocity": 0.08661417322834646
        },
        {
          "duration": 0.03488372093023884,
          "durationTicks": 3,
          "midi": 45,
          "name": "A2",
          "ticks": 6278,
          "time": 73,
          "velocity": 0.14960629921259844
        },
        {
          "duration": 0.06976744186046346,
          "durationTicks": 6,
          "midi": 67,
          "name": "G4",
          "ticks": 6279,
          "time": 73.01162790697674,
          "velocity": 0.33070866141732286
        },
        {
          "duration": 0.023255813953497295,
          "durationTicks": 2,
          "midi": 70,
          "name": "A#4",
          "ticks": 6280,
          "time": 73.02325581395348,
          "velocity": 0.4566929133858268
        },
        {
          "duration": 0.081395348837205,
          "durationTicks": 7,
          "midi": 46,
          "name": "A#2",
          "ticks": 6281,
          "time": 73.03488372093024,
          "velocity": 0.16535433070866143
        },
        {
          "duration": 0.023255813953483084,
          "durationTicks": 2,
          "midi": 70,
          "name": "A#4",
          "ticks": 6284,
          "time": 73.06976744186046,
          "velocity": 0.33858267716535434
        },
        {
          "duration": 0.17441860465116577,
          "durationTicks": 15,
          "midi": 69,
          "name": "A4",
          "ticks": 6285,
          "time": 73.0813953488372,
          "velocity": 0.4015748031496063
        },
        {
          "duration": 0.40697674418603924,
          "durationTicks": 35,
          "midi": 70,
          "name": "A#4",
          "ticks": 6303,
          "time": 73.29069767441861,
          "velocity": 0.47244094488188976
        },
        {
          "duration": 0.3720930232558146,
          "durationTicks": 32,
          "midi": 67,
          "name": "G4",
          "ticks": 6304,
          "time": 73.30232558139535,
          "velocity": 0.4251968503937008
        },
        {
          "duration": 0.3953488372092977,
          "durationTicks": 34,
          "midi": 79,
          "name": "G5",
          "ticks": 6304,
          "time": 73.30232558139535,
          "velocity": 0.4881889763779528
        },
        {
          "duration": 0.22093023255813193,
          "durationTicks": 19,
          "midi": 81,
          "name": "A5",
          "ticks": 6304,
          "time": 73.30232558139535,
          "velocity": 0.12598425196850394
        },
        {
          "duration": 0.09302325581394655,
          "durationTicks": 8,
          "midi": 89,
          "name": "F6",
          "ticks": 6304,
          "time": 73.30232558139535,
          "velocity": 0.14960629921259844
        },
        {
          "duration": 0.11627906976744384,
          "durationTicks": 10,
          "midi": 93,
          "name": "A6",
          "ticks": 6304,
          "time": 73.30232558139535,
          "velocity": 0.14173228346456693
        },
        {
          "duration": 0.06976744186046346,
          "durationTicks": 6,
          "midi": 98,
          "name": "D7",
          "ticks": 6304,
          "time": 73.30232558139535,
          "velocity": 0.14173228346456693
        },
        {
          "duration": 0.38372093023255616,
          "durationTicks": 33,
          "midi": 58,
          "name": "A#3",
          "ticks": 6305,
          "time": 73.31395348837209,
          "velocity": 0.30708661417322836
        },
        {
          "duration": 0.3139534883720927,
          "durationTicks": 27,
          "midi": 62,
          "name": "D4",
          "ticks": 6305,
          "time": 73.31395348837209,
          "velocity": 0.33070866141732286
        },
        {
          "duration": 0.04651162790698038,
          "durationTicks": 4,
          "midi": 92,
          "name": "G#6",
          "ticks": 6305,
          "time": 73.31395348837209,
          "velocity": 0.10236220472440945
        },
        {
          "duration": 0.05813953488372192,
          "durationTicks": 5,
          "midi": 95,
          "name": "B6",
          "ticks": 6305,
          "time": 73.31395348837209,
          "velocity": 0.08661417322834646
        },
        {
          "duration": 0.06976744186046346,
          "durationTicks": 6,
          "midi": 53,
          "name": "F3",
          "ticks": 6306,
          "time": 73.32558139534883,
          "velocity": 0.14173228346456693
        },
        {
          "duration": 0.05813953488372192,
          "durationTicks": 5,
          "midi": 92,
          "name": "G#6",
          "ticks": 6315,
          "time": 73.43023255813954,
          "velocity": 0.07874015748031496
        },
        {
          "duration": 0.09302325581396076,
          "durationTicks": 8,
          "midi": 46,
          "name": "A#2",
          "ticks": 6318,
          "time": 73.46511627906976,
          "velocity": 0.14960629921259844
        },
        {
          "duration": 1.4883720930232585,
          "durationTicks": 128,
          "midi": 69,
          "name": "A4",
          "ticks": 6342,
          "time": 73.74418604651163,
          "velocity": 0.4094488188976378
        },
        {
          "duration": 0.38372093023255616,
          "durationTicks": 33,
          "midi": 61,
          "name": "C#4",
          "ticks": 6343,
          "time": 73.75581395348837,
          "velocity": 0.41732283464566927
        },
        {
          "duration": 0.081395348837205,
          "durationTicks": 7,
          "midi": 65,
          "name": "F4",
          "ticks": 6343,
          "time": 73.75581395348837,
          "velocity": 0.48031496062992124
        },
        {
          "duration": 0.40697674418605345,
          "durationTicks": 35,
          "midi": 73,
          "name": "C#5",
          "ticks": 6343,
          "time": 73.75581395348837,
          "velocity": 0.5433070866141733
        },
        {
          "duration": 0.16279069767442422,
          "durationTicks": 14,
          "midi": 83,
          "name": "B5",
          "ticks": 6343,
          "time": 73.75581395348837,
          "velocity": 0.30708661417322836
        },
        {
          "duration": 0.13953488372092693,
          "durationTicks": 12,
          "midi": 90,
          "name": "F#6",
          "ticks": 6343,
          "time": 73.75581395348837,
          "velocity": 0.12598425196850394
        },
        {
          "duration": 0.05813953488372192,
          "durationTicks": 5,
          "midi": 92,
          "name": "G#6",
          "ticks": 6343,
          "time": 73.75581395348837,
          "velocity": 0.12598425196850394
        },
        {
          "duration": 0.081395348837205,
          "durationTicks": 7,
          "midi": 100,
          "name": "E7",
          "ticks": 6343,
          "time": 73.75581395348837,
          "velocity": 0.14960629921259844
        },
        {
          "duration": 0.22093023255814614,
          "durationTicks": 19,
          "midi": 45,
          "name": "A2",
          "ticks": 6344,
          "time": 73.76744186046511,
          "velocity": 0.4566929133858268
        },
        {
          "duration": 0.08139534883721922,
          "durationTicks": 7,
          "midi": 52,
          "name": "E3",
          "ticks": 6344,
          "time": 73.76744186046511,
          "velocity": 0.2677165354330709
        },
        {
          "duration": 0.023255813953497295,
          "durationTicks": 2,
          "midi": 71,
          "name": "B4",
          "ticks": 6344,
          "time": 73.76744186046511,
          "velocity": 0.2677165354330709
        },
        {
          "duration": 0.05813953488372192,
          "durationTicks": 5,
          "midi": 86,
          "name": "D6",
          "ticks": 6344,
          "time": 73.76744186046511,
          "velocity": 0.2047244094488189
        },
        {
          "duration": 0.19767441860464885,
          "durationTicks": 17,
          "midi": 88,
          "name": "E6",
          "ticks": 6344,
          "time": 73.76744186046511,
          "velocity": 0.23622047244094488
        },
        {
          "duration": 0.1860465116279073,
          "durationTicks": 16,
          "midi": 84,
          "name": "C6",
          "ticks": 6346,
          "time": 73.79069767441861,
          "velocity": 0.1889763779527559
        },
        {
          "duration": 0.06976744186046346,
          "durationTicks": 6,
          "midi": 71,
          "name": "B4",
          "ticks": 6347,
          "time": 73.80232558139535,
          "velocity": 0.2755905511811024
        },
        {
          "duration": 0.05813953488372192,
          "durationTicks": 5,
          "midi": 87,
          "name": "D#6",
          "ticks": 6347,
          "time": 73.80232558139535,
          "velocity": 0.13385826771653545
        },
        {
          "duration": 0.05813953488372192,
          "durationTicks": 5,
          "midi": 79,
          "name": "G5",
          "ticks": 6350,
          "time": 73.83720930232558,
          "velocity": 0.09448818897637795
        },
        {
          "duration": 0.034883720930224626,
          "durationTicks": 3,
          "midi": 65,
          "name": "F4",
          "ticks": 6351,
          "time": 73.84883720930233,
          "velocity": 0.4251968503937008
        },
        {
          "duration": 0.17441860465116577,
          "durationTicks": 15,
          "midi": 52,
          "name": "E3",
          "ticks": 6352,
          "time": 73.86046511627907,
          "velocity": 0.2677165354330709
        },
        {
          "duration": 0.06976744186046346,
          "durationTicks": 6,
          "midi": 86,
          "name": "D6",
          "ticks": 6352,
          "time": 73.86046511627907,
          "velocity": 0.14173228346456693
        },
        {
          "duration": 0.023255813953497295,
          "durationTicks": 2,
          "midi": 71,
          "name": "B4",
          "ticks": 6354,
          "time": 73.88372093023256,
          "velocity": 0.2677165354330709
        },
        {
          "duration": 0.05813953488372192,
          "durationTicks": 5,
          "midi": 87,
          "name": "D#6",
          "ticks": 6354,
          "time": 73.88372093023256,
          "velocity": 0.13385826771653545
        },
        {
          "duration": 0.023255813953497295,
          "durationTicks": 2,
          "midi": 65,
          "name": "F4",
          "ticks": 6355,
          "time": 73.8953488372093,
          "velocity": 0.4015748031496063
        },
        {
          "duration": 0.04651162790698038,
          "durationTicks": 4,
          "midi": 91,
          "name": "G6",
          "ticks": 6355,
          "time": 73.8953488372093,
          "velocity": 0.07874015748031496
        },
        {
          "duration": 0.023255813953483084,
          "durationTicks": 2,
          "midi": 64,
          "name": "E4",
          "ticks": 6357,
          "time": 73.9186046511628,
          "velocity": 0.2992125984251969
        },
        {
          "duration": 0.023255813953483084,
          "durationTicks": 2,
          "midi": 71,
          "name": "B4",
          "ticks": 6357,
          "time": 73.9186046511628,
          "velocity": 0.2283464566929134
        },
        {
          "duration": 0.081395348837205,
          "durationTicks": 7,
          "midi": 90,
          "name": "F#6",
          "ticks": 6357,
          "time": 73.9186046511628,
          "velocity": 0.11023622047244094
        },
        {
          "duration": 0.1046511627907023,
          "durationTicks": 9,
          "midi": 65,
          "name": "F4",
          "ticks": 6358,
          "time": 73.93023255813954,
          "velocity": 0.4015748031496063
        },
        {
          "duration": 0.06976744186046346,
          "durationTicks": 6,
          "midi": 71,
          "name": "B4",
          "ticks": 6360,
          "time": 73.95348837209302,
          "velocity": 0.1968503937007874
        },
        {
          "duration": 0.09302325581394655,
          "durationTicks": 8,
          "midi": 45,
          "name": "A2",
          "ticks": 6364,
          "time": 74,
          "velocity": 0.3464566929133858
        },
        {
          "duration": 0.03488372093023884,
          "durationTicks": 3,
          "midi": 79,
          "name": "G5",
          "ticks": 6364,
          "time": 74,
          "velocity": 0.07086614173228346
        },
        {
          "duration": 0.03488372093023884,
          "durationTicks": 3,
          "midi": 76,
          "name": "E5",
          "ticks": 6365,
          "time": 74.01162790697674,
          "velocity": 0.07874015748031496
        },
        {
          "duration": 0.034883720930224626,
          "durationTicks": 3,
          "midi": 65,
          "name": "F4",
          "ticks": 6368,
          "time": 74.04651162790698,
          "velocity": 0.15748031496062992
        },
        {
          "duration": 0.12790697674418539,
          "durationTicks": 11,
          "midi": 76,
          "name": "E5",
          "ticks": 6370,
          "time": 74.06976744186046,
          "velocity": 0.09448818897637795
        },
        {
          "duration": 0.03488372093023884,
          "durationTicks": 3,
          "midi": 65,
          "name": "F4",
          "ticks": 6372,
          "time": 74.09302325581395,
          "velocity": 0.09448818897637795
        },
        {
          "duration": 0.2325581395348877,
          "durationTicks": 20,
          "midi": 61,
          "name": "C#4",
          "ticks": 6381,
          "time": 74.19767441860465,
          "velocity": 0.41732283464566927
        },
        {
          "duration": 0.03488372093023884,
          "durationTicks": 3,
          "midi": 65,
          "name": "F4",
          "ticks": 6381,
          "time": 74.19767441860465,
          "velocity": 0.33858267716535434
        },
        {
          "duration": 0.24418604651162923,
          "durationTicks": 21,
          "midi": 73,
          "name": "C#5",
          "ticks": 6381,
          "time": 74.19767441860465,
          "velocity": 0.49606299212598426
        },
        {
          "duration": 0.16279069767442422,
          "durationTicks": 14,
          "midi": 83,
          "name": "B5",
          "ticks": 6382,
          "time": 74.20930232558139,
          "velocity": 0.30708661417322836
        },
        {
          "duration": 0.04651162790698038,
          "durationTicks": 4,
          "midi": 88,
          "name": "E6",
          "ticks": 6382,
          "time": 74.20930232558139,
          "velocity": 0.14173228346456693
        },
        {
          "duration": 0.13953488372094114,
          "durationTicks": 12,
          "midi": 90,
          "name": "F#6",
          "ticks": 6382,
          "time": 74.20930232558139,
          "velocity": 0.13385826771653545
        },
        {
          "duration": 0.2093023255813904,
          "durationTicks": 18,
          "midi": 45,
          "name": "A2",
          "ticks": 6383,
          "time": 74.22093023255815,
          "velocity": 0.4566929133858268
        },
        {
          "duration": 0.081395348837205,
          "durationTicks": 7,
          "midi": 52,
          "name": "E3",
          "ticks": 6383,
          "time": 74.22093023255815,
          "velocity": 0.2992125984251969
        },
        {
          "duration": 0.16279069767441,
          "durationTicks": 14,
          "midi": 71,
          "name": "B4",
          "ticks": 6383,
          "time": 74.22093023255815,
          "velocity": 0.25196850393700787
        },
        {
          "duration": 0.19767441860464885,
          "durationTicks": 17,
          "midi": 76,
          "name": "E5",
          "ticks": 6383,
          "time": 74.22093023255815,
          "velocity": 0.33858267716535434
        },
        {
          "duration": 0.034883720930224626,
          "durationTicks": 3,
          "midi": 86,
          "name": "D6",
          "ticks": 6383,
          "time": 74.22093023255815,
          "velocity": 0.2047244094488189
        },
        {
          "duration": 0.09302325581394655,
          "durationTicks": 8,
          "midi": 87,
          "name": "D#6",
          "ticks": 6383,
          "time": 74.22093023255815,
          "velocity": 0.12598425196850394
        },
        {
          "duration": 0.034883720930224626,
          "durationTicks": 3,
          "midi": 91,
          "name": "G6",
          "ticks": 6383,
          "time": 74.22093023255815,
          "velocity": 0.10236220472440945
        },
        {
          "duration": 0.12790697674418539,
          "durationTicks": 11,
          "midi": 92,
          "name": "G#6",
          "ticks": 6383,
          "time": 74.22093023255815,
          "velocity": 0.13385826771653545
        },
        {
          "duration": 0.19767441860464885,
          "durationTicks": 17,
          "midi": 64,
          "name": "E4",
          "ticks": 6384,
          "time": 74.23255813953489,
          "velocity": 0.4094488188976378
        },
        {
          "duration": 0.11627906976744384,
          "durationTicks": 10,
          "midi": 89,
          "name": "F6",
          "ticks": 6384,
          "time": 74.23255813953489,
          "velocity": 0.13385826771653545
        },
        {
          "duration": 0.06976744186046346,
          "durationTicks": 6,
          "midi": 79,
          "name": "G5",
          "ticks": 6386,
          "time": 74.25581395348837,
          "velocity": 0.10236220472440945
        },
        {
          "duration": 0.05813953488372192,
          "durationTicks": 5,
          "midi": 52,
          "name": "E3",
          "ticks": 6391,
          "time": 74.31395348837209,
          "velocity": 0.2755905511811024
        },
        {
          "duration": 0.05813953488372192,
          "durationTicks": 5,
          "midi": 86,
          "name": "D6",
          "ticks": 6392,
          "time": 74.32558139534883,
          "velocity": 0.11811023622047244
        },
        {
          "duration": 0.023255813953483084,
          "durationTicks": 2,
          "midi": 44,
          "name": "G#2",
          "ticks": 6401,
          "time": 74.43023255813954,
          "velocity": 0.28346456692913385
        },
        {
          "duration": 0.32558139534883423,
          "durationTicks": 28,
          "midi": 65,
          "name": "F4",
          "ticks": 6401,
          "time": 74.43023255813954,
          "velocity": 0.4015748031496063
        },
        {
          "duration": 0.25581395348837077,
          "durationTicks": 22,
          "midi": 86,
          "name": "D6",
          "ticks": 6401,
          "time": 74.43023255813954,
          "velocity": 0.36220472440944884
        },
        {
          "duration": 0.2325581395348877,
          "durationTicks": 20,
          "midi": 62,
          "name": "D4",
          "ticks": 6402,
          "time": 74.44186046511628,
          "velocity": 0.3858267716535433
        },
        {
          "duration": 0.03488372093023884,
          "durationTicks": 3,
          "midi": 72,
          "name": "C5",
          "ticks": 6402,
          "time": 74.44186046511628,
          "velocity": 0.2047244094488189
        },
        {
          "duration": 0.9069767441860535,
          "durationTicks": 78,
          "midi": 74,
          "name": "D5",
          "ticks": 6402,
          "time": 74.44186046511628,
          "velocity": 0.4015748031496063
        },
        {
          "duration": 0.2674418604651123,
          "durationTicks": 23,
          "midi": 77,
          "name": "F5",
          "ticks": 6402,
          "time": 74.44186046511628,
          "velocity": 0.4094488188976378
        },
        {
          "duration": 0.04651162790698038,
          "durationTicks": 4,
          "midi": 80,
          "name": "G#5",
          "ticks": 6402,
          "time": 74.44186046511628,
          "velocity": 0.1968503937007874
        },
        {
          "duration": 0.24418604651162923,
          "durationTicks": 21,
          "midi": 84,
          "name": "C6",
          "ticks": 6402,
          "time": 74.44186046511628,
          "velocity": 0.2283464566929134
        },
        {
          "duration": 0.05813953488372192,
          "durationTicks": 5,
          "midi": 85,
          "name": "C#6",
          "ticks": 6402,
          "time": 74.44186046511628,
          "velocity": 0.1968503937007874
        },
        {
          "duration": 0.19767441860464885,
          "durationTicks": 17,
          "midi": 88,
          "name": "E6",
          "ticks": 6405,
          "time": 74.47674418604652,
          "velocity": 0.18110236220472442
        },
        {
          "duration": 0.023255813953497295,
          "durationTicks": 2,
          "midi": 38,
          "name": "D2",
          "ticks": 6409,
          "time": 74.52325581395348,
          "velocity": 0.2992125984251969
        },
        {
          "duration": 0.04651162790698038,
          "durationTicks": 4,
          "midi": 57,
          "name": "A3",
          "ticks": 6409,
          "time": 74.52325581395348,
          "velocity": 0.1732283464566929
        },
        {
          "duration": 0.05813953488372192,
          "durationTicks": 5,
          "midi": 91,
          "name": "G6",
          "ticks": 6409,
          "time": 74.52325581395348,
          "velocity": 0.09448818897637795
        },
        {
          "duration": 0.11627906976744384,
          "durationTicks": 10,
          "midi": 95,
          "name": "B6",
          "ticks": 6409,
          "time": 74.52325581395348,
          "velocity": 0.09448818897637795
        },
        {
          "duration": 0.04651162790696617,
          "durationTicks": 4,
          "midi": 85,
          "name": "C#6",
          "ticks": 6411,
          "time": 74.54651162790698,
          "velocity": 0.11023622047244094
        },
        {
          "duration": 0.11627906976744384,
          "durationTicks": 10,
          "midi": 72,
          "name": "C5",
          "ticks": 6412,
          "time": 74.55813953488372,
          "velocity": 0.16535433070866143
        },
        {
          "duration": 0.023255813953483084,
          "durationTicks": 2,
          "midi": 50,
          "name": "D3",
          "ticks": 6413,
          "time": 74.56976744186046,
          "velocity": 0.2440944881889764
        },
        {
          "duration": 0.06976744186046346,
          "durationTicks": 6,
          "midi": 57,
          "name": "A3",
          "ticks": 6414,
          "time": 74.5813953488372,
          "velocity": 0.1732283464566929
        },
        {
          "duration": 0.023255813953483084,
          "durationTicks": 2,
          "midi": 38,
          "name": "D2",
          "ticks": 6416,
          "time": 74.6046511627907,
          "velocity": 0.30708661417322836
        },
        {
          "duration": 0.03488372093023884,
          "durationTicks": 3,
          "midi": 50,
          "name": "D3",
          "ticks": 6418,
          "time": 74.62790697674419,
          "velocity": 0.2677165354330709
        },
        {
          "duration": 0.03488372093023884,
          "durationTicks": 3,
          "midi": 85,
          "name": "C#6",
          "ticks": 6418,
          "time": 74.62790697674419,
          "velocity": 0.09448818897637795
        },
        {
          "duration": 0.023255813953483084,
          "durationTicks": 2,
          "midi": 49,
          "name": "C#3",
          "ticks": 6421,
          "time": 74.66279069767442,
          "velocity": 0.2755905511811024
        },
        {
          "duration": 0.023255813953483084,
          "durationTicks": 2,
          "midi": 50,
          "name": "D3",
          "ticks": 6423,
          "time": 74.68604651162791,
          "velocity": 0.2440944881889764
        },
        {
          "duration": 0.11627906976744384,
          "durationTicks": 10,
          "midi": 45,
          "name": "A2",
          "ticks": 6424,
          "time": 74.69767441860465,
          "velocity": 0.29133858267716534
        },
        {
          "duration": 0.03488372093023884,
          "durationTicks": 3,
          "midi": 60,
          "name": "C4",
          "ticks": 6425,
          "time": 74.70930232558139,
          "velocity": 0.13385826771653545
        },
        {
          "duration": 0.46511627906976116,
          "durationTicks": 40,
          "midi": 72,
          "name": "C5",
          "ticks": 6428,
          "time": 74.74418604651163,
          "velocity": 0.36220472440944884
        },
        {
          "duration": 0.03488372093023884,
          "durationTicks": 3,
          "midi": 65,
          "name": "F4",
          "ticks": 6430,
          "time": 74.76744186046511,
          "velocity": 0.11811023622047244
        },
        {
          "duration": 0.15116279069766847,
          "durationTicks": 13,
          "midi": 88,
          "name": "E6",
          "ticks": 6432,
          "time": 74.79069767441861,
          "velocity": 0.14960629921259844
        },
        {
          "duration": 0.04651162790698038,
          "durationTicks": 4,
          "midi": 45,
          "name": "A2",
          "ticks": 6435,
          "time": 74.82558139534883,
          "velocity": 0.23622047244094488
        },
        {
          "duration": 0.13953488372092693,
          "durationTicks": 12,
          "midi": 65,
          "name": "F4",
          "ticks": 6435,
          "time": 74.82558139534883,
          "velocity": 0.3464566929133858
        },
        {
          "duration": 0.33720930232559,
          "durationTicks": 29,
          "midi": 76,
          "name": "E5",
          "ticks": 6441,
          "time": 74.8953488372093,
          "velocity": 0.29133858267716534
        },
        {
          "duration": 0.04651162790696617,
          "durationTicks": 4,
          "midi": 57,
          "name": "A3",
          "ticks": 6442,
          "time": 74.90697674418605,
          "velocity": 0.13385826771653545
        },
        {
          "duration": 0.023255813953483084,
          "durationTicks": 2,
          "midi": 51,
          "name": "D#3",
          "ticks": 6443,
          "time": 74.9186046511628,
          "velocity": 0.30708661417322836
        },
        {
          "duration": 0.023255813953483084,
          "durationTicks": 2,
          "midi": 62,
          "name": "D4",
          "ticks": 6443,
          "time": 74.9186046511628,
          "velocity": 0.30708661417322836
        },
        {
          "duration": 0.023255813953497295,
          "durationTicks": 2,
          "midi": 51,
          "name": "D#3",
          "ticks": 6447,
          "time": 74.96511627906976,
          "velocity": 0.2677165354330709
        },
        {
          "duration": 0.15116279069768268,
          "durationTicks": 13,
          "midi": 57,
          "name": "A3",
          "ticks": 6447,
          "time": 74.96511627906976,
          "velocity": 0.13385826771653545
        },
        {
          "duration": 0.023255813953483084,
          "durationTicks": 2,
          "midi": 62,
          "name": "D4",
          "ticks": 6448,
          "time": 74.97674418604652,
          "velocity": 0.29133858267716534
        },
        {
          "duration": 0.13953488372092693,
          "durationTicks": 12,
          "midi": 38,
          "name": "D2",
          "ticks": 6449,
          "time": 74.98837209302326,
          "velocity": 0.16535433070866143
        },
        {
          "duration": 0.03488372093023884,
          "durationTicks": 3,
          "midi": 65,
          "name": "F4",
          "ticks": 6450,
          "time": 75,
          "velocity": 0.31496062992125984
        },
        {
          "duration": 0.03488372093023884,
          "durationTicks": 3,
          "midi": 51,
          "name": "D#3",
          "ticks": 6451,
          "time": 75.01162790697674,
          "velocity": 0.25196850393700787
        },
        {
          "duration": 0.023255813953497295,
          "durationTicks": 2,
          "midi": 62,
          "name": "D4",
          "ticks": 6452,
          "time": 75.02325581395348,
          "velocity": 0.23622047244094488
        },
        {
          "duration": 0.034883720930224626,
          "durationTicks": 3,
          "midi": 65,
          "name": "F4",
          "ticks": 6454,
          "time": 75.04651162790698,
          "velocity": 0.2992125984251969
        },
        {
          "duration": 0.03488372093023884,
          "durationTicks": 3,
          "midi": 51,
          "name": "D#3",
          "ticks": 6456,
          "time": 75.06976744186046,
          "velocity": 0.16535433070866143
        },
        {
          "duration": 0.05813953488372192,
          "durationTicks": 5,
          "midi": 65,
          "name": "F4",
          "ticks": 6458,
          "time": 75.09302325581395,
          "velocity": 0.2755905511811024
        },
        {
          "duration": 0.2093023255814046,
          "durationTicks": 18,
          "midi": 64,
          "name": "E4",
          "ticks": 6463,
          "time": 75.15116279069767,
          "velocity": 0.2283464566929134
        },
        {
          "duration": 0.03488372093023884,
          "durationTicks": 3,
          "midi": 52,
          "name": "E3",
          "ticks": 6472,
          "time": 75.25581395348837,
          "velocity": 0.11811023622047244
        },
        {
          "duration": 0.034883720930224626,
          "durationTicks": 3,
          "midi": 62,
          "name": "D4",
          "ticks": 6480,
          "time": 75.34883720930233,
          "velocity": 0.23622047244094488
        },
        {
          "duration": 0.3139534883720927,
          "durationTicks": 27,
          "midi": 69,
          "name": "A4",
          "ticks": 6480,
          "time": 75.34883720930233,
          "velocity": 0.2755905511811024
        },
        {
          "duration": 0.034883720930224626,
          "durationTicks": 3,
          "midi": 72,
          "name": "C5",
          "ticks": 6480,
          "time": 75.34883720930233,
          "velocity": 0.1968503937007874
        },
        {
          "duration": 0.38372093023255616,
          "durationTicks": 33,
          "midi": 77,
          "name": "F5",
          "ticks": 6480,
          "time": 75.34883720930233,
          "velocity": 0.2204724409448819
        },
        {
          "duration": 0.034883720930224626,
          "durationTicks": 3,
          "midi": 49,
          "name": "C#3",
          "ticks": 6481,
          "time": 75.36046511627907,
          "velocity": 0.16535433070866143
        },
        {
          "duration": 0.25581395348837077,
          "durationTicks": 22,
          "midi": 53,
          "name": "F3",
          "ticks": 6482,
          "time": 75.37209302325581,
          "velocity": 0.2677165354330709
        },
        {
          "duration": 0.2674418604651123,
          "durationTicks": 23,
          "midi": 87,
          "name": "D#6",
          "ticks": 6482,
          "time": 75.37209302325581,
          "velocity": 0.08661417322834646
        },
        {
          "duration": 0.5348837209302388,
          "durationTicks": 46,
          "midi": 65,
          "name": "F4",
          "ticks": 6483,
          "time": 75.38372093023256,
          "velocity": 0.3228346456692913
        },
        {
          "duration": 0.05813953488372192,
          "durationTicks": 5,
          "midi": 84,
          "name": "C6",
          "ticks": 6483,
          "time": 75.38372093023256,
          "velocity": 0.12598425196850394
        },
        {
          "duration": 0.19767441860464885,
          "durationTicks": 17,
          "midi": 38,
          "name": "D2",
          "ticks": 6484,
          "time": 75.3953488372093,
          "velocity": 0.18110236220472442
        },
        {
          "duration": 0.08139534883721922,
          "durationTicks": 7,
          "midi": 62,
          "name": "D4",
          "ticks": 6484,
          "time": 75.3953488372093,
          "velocity": 0.2125984251968504
        },
        {
          "duration": 0.081395348837205,
          "durationTicks": 7,
          "midi": 72,
          "name": "C5",
          "ticks": 6485,
          "time": 75.40697674418605,
          "velocity": 0.2047244094488189
        },
        {
          "duration": 0.05813953488372192,
          "durationTicks": 5,
          "midi": 72,
          "name": "C5",
          "ticks": 6495,
          "time": 75.52325581395348,
          "velocity": 0.13385826771653545
        },
        {
          "duration": 0.03488372093023884,
          "durationTicks": 3,
          "midi": 45,
          "name": "A2",
          "ticks": 6501,
          "time": 75.59302325581395,
          "velocity": 0.1889763779527559
        },
        {
          "duration": 0.15116279069766847,
          "durationTicks": 13,
          "midi": 72,
          "name": "C5",
          "ticks": 6504,
          "time": 75.62790697674419,
          "velocity": 0.1732283464566929
        },
        {
          "duration": 0.1046511627907023,
          "durationTicks": 9,
          "midi": 45,
          "name": "A2",
          "ticks": 6505,
          "time": 75.63953488372093,
          "velocity": 0.23622047244094488
        },
        {
          "duration": 0.06976744186046346,
          "durationTicks": 6,
          "midi": 60,
          "name": "C4",
          "ticks": 6508,
          "time": 75.67441860465117,
          "velocity": 0.07086614173228346
        },
        {
          "duration": 0.24418604651162923,
          "durationTicks": 21,
          "midi": 69,
          "name": "A4",
          "ticks": 6519,
          "time": 75.80232558139535,
          "velocity": 0.25984251968503935
        },
        {
          "duration": 0.25581395348837077,
          "durationTicks": 22,
          "midi": 45,
          "name": "A2",
          "ticks": 6520,
          "time": 75.81395348837209,
          "velocity": 0.3543307086614173
        },
        {
          "duration": 0.2093023255813904,
          "durationTicks": 18,
          "midi": 72,
          "name": "C5",
          "ticks": 6520,
          "time": 75.81395348837209,
          "velocity": 0.11811023622047244
        },
        {
          "duration": 0.081395348837205,
          "durationTicks": 7,
          "midi": 74,
          "name": "D5",
          "ticks": 6520,
          "time": 75.81395348837209,
          "velocity": 0.11023622047244094
        },
        {
          "duration": 0.03488372093023884,
          "durationTicks": 3,
          "midi": 83,
          "name": "B5",
          "ticks": 6520,
          "time": 75.81395348837209,
          "velocity": 0.16535433070866143
        },
        {
          "duration": 0.03488372093023884,
          "durationTicks": 3,
          "midi": 55,
          "name": "G3",
          "ticks": 6521,
          "time": 75.82558139534883,
          "velocity": 0.13385826771653545
        },
        {
          "duration": 0.081395348837205,
          "durationTicks": 7,
          "midi": 62,
          "name": "D4",
          "ticks": 6524,
          "time": 75.86046511627907,
          "velocity": 0.2283464566929134
        },
        {
          "duration": 0.11627906976744384,
          "durationTicks": 10,
          "midi": 67,
          "name": "G4",
          "ticks": 6525,
          "time": 75.87209302325581,
          "velocity": 0.2677165354330709
        },
        {
          "duration": 0.06976744186046346,
          "durationTicks": 6,
          "midi": 83,
          "name": "B5",
          "ticks": 6526,
          "time": 75.88372093023256,
          "velocity": 0.16535433070866143
        },
        {
          "duration": 0.034883720930224626,
          "durationTicks": 3,
          "midi": 65,
          "name": "F4",
          "ticks": 6530,
          "time": 75.93023255813954,
          "velocity": 0.25196850393700787
        },
        {
          "duration": 0.04651162790698038,
          "durationTicks": 4,
          "midi": 93,
          "name": "A6",
          "ticks": 6530,
          "time": 75.93023255813954,
          "velocity": 0.07086614173228346
        },
        {
          "duration": 0.06976744186046346,
          "durationTicks": 6,
          "midi": 62,
          "name": "D4",
          "ticks": 6532,
          "time": 75.95348837209302,
          "velocity": 0.15748031496062992
        },
        {
          "duration": 0.034883720930224626,
          "durationTicks": 3,
          "midi": 65,
          "name": "F4",
          "ticks": 6534,
          "time": 75.97674418604652,
          "velocity": 0.23622047244094488
        },
        {
          "duration": 0.23255813953487348,
          "durationTicks": 20,
          "midi": 83,
          "name": "B5",
          "ticks": 6534,
          "time": 75.97674418604652,
          "velocity": 0.15748031496062992
        },
        {
          "duration": 0.25581395348837077,
          "durationTicks": 22,
          "midi": 67,
          "name": "G4",
          "ticks": 6538,
          "time": 76.02325581395348,
          "velocity": 0.3858267716535433
        },
        {
          "duration": 0.22093023255813193,
          "durationTicks": 19,
          "midi": 76,
          "name": "E5",
          "ticks": 6539,
          "time": 76.03488372093024,
          "velocity": 0.16535433070866143
        },
        {
          "duration": 0.05813953488370771,
          "durationTicks": 5,
          "midi": 84,
          "name": "C6",
          "ticks": 6539,
          "time": 76.03488372093024,
          "velocity": 0.10236220472440945
        },
        {
          "duration": 0.22093023255813193,
          "durationTicks": 19,
          "midi": 60,
          "name": "C4",
          "ticks": 6540,
          "time": 76.04651162790698,
          "velocity": 0.25196850393700787
        },
        {
          "duration": 0.2093023255813904,
          "durationTicks": 18,
          "midi": 72,
          "name": "C5",
          "ticks": 6540,
          "time": 76.04651162790698,
          "velocity": 0.30708661417322836
        },
        {
          "duration": 0.2093023255813904,
          "durationTicks": 18,
          "midi": 82,
          "name": "A#5",
          "ticks": 6540,
          "time": 76.04651162790698,
          "velocity": 0.16535433070866143
        },
        {
          "duration": 0.19767441860464885,
          "durationTicks": 17,
          "midi": 64,
          "name": "E4",
          "ticks": 6541,
          "time": 76.05813953488372,
          "velocity": 0.2755905511811024
        },
        {
          "duration": 0.04651162790696617,
          "durationTicks": 4,
          "midi": 74,
          "name": "D5",
          "ticks": 6545,
          "time": 76.1046511627907,
          "velocity": 0.11023622047244094
        },
        {
          "duration": 0.12790697674418539,
          "durationTicks": 11,
          "midi": 48,
          "name": "C3",
          "ticks": 6547,
          "time": 76.12790697674419,
          "velocity": 0.2204724409448819
        },
        {
          "duration": 0.03488372093023884,
          "durationTicks": 3,
          "midi": 86,
          "name": "D6",
          "ticks": 6549,
          "time": 76.15116279069767,
          "velocity": 0.09448818897637795
        },
        {
          "duration": 0.04651162790698038,
          "durationTicks": 4,
          "midi": 74,
          "name": "D5",
          "ticks": 6553,
          "time": 76.19767441860465,
          "velocity": 0.12598425196850394
        },
        {
          "duration": 0.034883720930224626,
          "durationTicks": 3,
          "midi": 40,
          "name": "E2",
          "ticks": 6555,
          "time": 76.22093023255815,
          "velocity": 0.14173228346456693
        },
        {
          "duration": 0.034883720930224626,
          "durationTicks": 3,
          "midi": 71,
          "name": "B4",
          "ticks": 6557,
          "time": 76.24418604651163,
          "velocity": 0.15748031496062992
        },
        {
          "duration": 0.25581395348837077,
          "durationTicks": 22,
          "midi": 65,
          "name": "F4",
          "ticks": 6558,
          "time": 76.25581395348837,
          "velocity": 0.23622047244094488
        },
        {
          "duration": 0.32558139534883423,
          "durationTicks": 28,
          "midi": 81,
          "name": "A5",
          "ticks": 6558,
          "time": 76.25581395348837,
          "velocity": 0.23622047244094488
        },
        {
          "duration": 0.16279069767442422,
          "durationTicks": 14,
          "midi": 62,
          "name": "D4",
          "ticks": 6559,
          "time": 76.26744186046511,
          "velocity": 0.2204724409448819
        },
        {
          "duration": 1.2093023255814046,
          "durationTicks": 104,
          "midi": 69,
          "name": "A4",
          "ticks": 6559,
          "time": 76.26744186046511,
          "velocity": 0.3228346456692913
        },
        {
          "duration": 0.8488372093023315,
          "durationTicks": 73,
          "midi": 74,
          "name": "D5",
          "ticks": 6559,
          "time": 76.26744186046511,
          "velocity": 0.3700787401574803
        },
        {
          "duration": 0.05813953488372192,
          "durationTicks": 5,
          "midi": 85,
          "name": "C#6",
          "ticks": 6560,
          "time": 76.27906976744185,
          "velocity": 0.07086614173228346
        },
        {
          "duration": 0.1860465116279073,
          "durationTicks": 16,
          "midi": 57,
          "name": "A3",
          "ticks": 6563,
          "time": 76.31395348837209,
          "velocity": 0.1732283464566929
        },
        {
          "duration": 0.17441860465116577,
          "durationTicks": 15,
          "midi": 88,
          "name": "E6",
          "ticks": 6565,
          "time": 76.33720930232558,
          "velocity": 0.07874015748031496
        },
        {
          "duration": 0.15116279069768268,
          "durationTicks": 13,
          "midi": 50,
          "name": "D3",
          "ticks": 6569,
          "time": 76.38372093023256,
          "velocity": 0.2204724409448819
        },
        {
          "duration": 0.11627906976744384,
          "durationTicks": 10,
          "midi": 72,
          "name": "C5",
          "ticks": 6586,
          "time": 76.5813953488372,
          "velocity": 0.14960629921259844
        },
        {
          "duration": 0.03488372093023884,
          "durationTicks": 3,
          "midi": 45,
          "name": "A2",
          "ticks": 6592,
          "time": 76.65116279069767,
          "velocity": 0.2125984251968504
        },
        {
          "duration": 0.2674418604651265,
          "durationTicks": 23,
          "midi": 62,
          "name": "D4",
          "ticks": 6597,
          "time": 76.70930232558139,
          "velocity": 0.25984251968503935
        },
        {
          "duration": 0.25581395348837077,
          "durationTicks": 22,
          "midi": 65,
          "name": "F4",
          "ticks": 6599,
          "time": 76.73255813953489,
          "velocity": 0.2677165354330709
        },
        {
          "duration": 0.2093023255813904,
          "durationTicks": 18,
          "midi": 72,
          "name": "C5",
          "ticks": 6599,
          "time": 76.73255813953489,
          "velocity": 0.11023622047244094
        },
        {
          "duration": 0.04651162790696617,
          "durationTicks": 4,
          "midi": 84,
          "name": "C6",
          "ticks": 6599,
          "time": 76.73255813953489,
          "velocity": 0.18110236220472442
        },
        {
          "duration": 0.2906976744185954,
          "durationTicks": 25,
          "midi": 88,
          "name": "E6",
          "ticks": 6599,
          "time": 76.73255813953489,
          "velocity": 0.16535433070866143
        },
        {
          "duration": 0.17441860465116577,
          "durationTicks": 15,
          "midi": 50,
          "name": "D3",
          "ticks": 6603,
          "time": 76.77906976744185,
          "velocity": 0.1889763779527559
        },
        {
          "duration": 0.13953488372092693,
          "durationTicks": 12,
          "midi": 38,
          "name": "D2",
          "ticks": 6606,
          "time": 76.81395348837209,
          "velocity": 0.14173228346456693
        },
        {
          "duration": 0.03488372093023884,
          "durationTicks": 3,
          "midi": 84,
          "name": "C6",
          "ticks": 6607,
          "time": 76.82558139534883,
          "velocity": 0.11811023622047244
        },
        {
          "duration": 0.25581395348837077,
          "durationTicks": 22,
          "midi": 76,
          "name": "E5",
          "ticks": 6617,
          "time": 76.94186046511628,
          "velocity": 0.3228346456692913
        },
        {
          "duration": 0.2093023255814046,
          "durationTicks": 18,
          "midi": 72,
          "name": "C5",
          "ticks": 6618,
          "time": 76.95348837209302,
          "velocity": 0.36220472440944884
        },
        {
          "duration": 0.034883720930224626,
          "durationTicks": 3,
          "midi": 48,
          "name": "C3",
          "ticks": 6621,
          "time": 76.98837209302326,
          "velocity": 0.28346456692913385
        },
        {
          "duration": 0.04651162790698038,
          "durationTicks": 4,
          "midi": 64,
          "name": "E4",
          "ticks": 6621,
          "time": 76.98837209302326,
          "velocity": 0.14173228346456693
        },
        {
          "duration": 0.04651162790698038,
          "durationTicks": 4,
          "midi": 82,
          "name": "A#5",
          "ticks": 6622,
          "time": 77,
          "velocity": 0.07086614173228346
        },
        {
          "duration": 0.023255813953483084,
          "durationTicks": 2,
          "midi": 49,
          "name": "C#3",
          "ticks": 6632,
          "time": 77.11627906976744,
          "velocity": 0.2283464566929134
        },
        {
          "duration": 0.034883720930224626,
          "durationTicks": 3,
          "midi": 49,
          "name": "C#3",
          "ticks": 6637,
          "time": 77.17441860465117,
          "velocity": 0.2755905511811024
        },
        {
          "duration": 0.11627906976744384,
          "durationTicks": 10,
          "midi": 62,
          "name": "D4",
          "ticks": 6637,
          "time": 77.17441860465117,
          "velocity": 0.2204724409448819
        },
        {
          "duration": 0.3720930232558146,
          "durationTicks": 32,
          "midi": 74,
          "name": "D5",
          "ticks": 6637,
          "time": 77.17441860465117,
          "velocity": 0.2283464566929134
        },
        {
          "duration": 0.24418604651162923,
          "durationTicks": 21,
          "midi": 53,
          "name": "F3",
          "ticks": 6639,
          "time": 77.19767441860465,
          "velocity": 0.2677165354330709
        },
        {
          "duration": 0.6860465116279073,
          "durationTicks": 59,
          "midi": 77,
          "name": "F5",
          "ticks": 6639,
          "time": 77.19767441860465,
          "velocity": 0.3228346456692913
        },
        {
          "duration": 0.13953488372092693,
          "durationTicks": 12,
          "midi": 84,
          "name": "C6",
          "ticks": 6639,
          "time": 77.19767441860465,
          "velocity": 0.14173228346456693
        },
        {
          "duration": 0.27906976744186807,
          "durationTicks": 24,
          "midi": 87,
          "name": "D#6",
          "ticks": 6639,
          "time": 77.19767441860465,
          "velocity": 0.08661417322834646
        },
        {
          "duration": 0.6279069767441854,
          "durationTicks": 54,
          "midi": 65,
          "name": "F4",
          "ticks": 6640,
          "time": 77.20930232558139,
          "velocity": 0.33858267716535434
        },
        {
          "duration": 0.09302325581396076,
          "durationTicks": 8,
          "midi": 72,
          "name": "C5",
          "ticks": 6640,
          "time": 77.20930232558139,
          "velocity": 0.2283464566929134
        },
        {
          "duration": 0.12790697674418539,
          "durationTicks": 11,
          "midi": 38,
          "name": "D2",
          "ticks": 6645,
          "time": 77.26744186046511,
          "velocity": 0.16535433070866143
        },
        {
          "duration": 0.03488372093023884,
          "durationTicks": 3,
          "midi": 62,
          "name": "D4",
          "ticks": 6649,
          "time": 77.31395348837209,
          "velocity": 0.13385826771653545
        },
        {
          "duration": 0.081395348837205,
          "durationTicks": 7,
          "midi": 72,
          "name": "C5",
          "ticks": 6649,
          "time": 77.31395348837209,
          "velocity": 0.11811023622047244
        },
        {
          "duration": 0.22093023255813193,
          "durationTicks": 19,
          "midi": 72,
          "name": "C5",
          "ticks": 6657,
          "time": 77.40697674418605,
          "velocity": 0.3464566929133858
        },
        {
          "duration": 0.03488372093023884,
          "durationTicks": 3,
          "midi": 53,
          "name": "F3",
          "ticks": 6661,
          "time": 77.45348837209302,
          "velocity": 0.12598425196850394
        },
        {
          "duration": 0.05813953488372192,
          "durationTicks": 5,
          "midi": 91,
          "name": "G6",
          "ticks": 6661,
          "time": 77.45348837209302,
          "velocity": 0.09448818897637795
        },
        {
          "duration": 0.06976744186046346,
          "durationTicks": 6,
          "midi": 60,
          "name": "C4",
          "ticks": 6663,
          "time": 77.47674418604652,
          "velocity": 0.08661417322834646
        },
        {
          "duration": 0.023255813953483084,
          "durationTicks": 2,
          "midi": 38,
          "name": "D2",
          "ticks": 6668,
          "time": 77.53488372093024,
          "velocity": 0.2677165354330709
        },
        {
          "duration": 0.03488372093023884,
          "durationTicks": 3,
          "midi": 38,
          "name": "D2",
          "ticks": 6671,
          "time": 77.56976744186046,
          "velocity": 0.2755905511811024
        },
        {
          "duration": 0.034883720930224626,
          "durationTicks": 3,
          "midi": 87,
          "name": "D#6",
          "ticks": 6675,
          "time": 77.61627906976744,
          "velocity": 0.07086614173228346
        },
        {
          "duration": 0.22093023255814614,
          "durationTicks": 19,
          "midi": 69,
          "name": "A4",
          "ticks": 6676,
          "time": 77.62790697674419,
          "velocity": 0.25196850393700787
        },
        {
          "duration": 0.27906976744186807,
          "durationTicks": 24,
          "midi": 74,
          "name": "D5",
          "ticks": 6676,
          "time": 77.62790697674419,
          "velocity": 0.29133858267716534
        },
        {
          "duration": 0.04651162790698038,
          "durationTicks": 4,
          "midi": 83,
          "name": "B5",
          "ticks": 6676,
          "time": 77.62790697674419,
          "velocity": 0.16535433070866143
        },
        {
          "duration": 0.11627906976744384,
          "durationTicks": 10,
          "midi": 84,
          "name": "C6",
          "ticks": 6676,
          "time": 77.62790697674419,
          "velocity": 0.14960629921259844
        },
        {
          "duration": 0.11627906976744384,
          "durationTicks": 10,
          "midi": 62,
          "name": "D4",
          "ticks": 6677,
          "time": 77.63953488372093,
          "velocity": 0.2283464566929134
        },
        {
          "duration": 0.05813953488372192,
          "durationTicks": 5,
          "midi": 72,
          "name": "C5",
          "ticks": 6678,
          "time": 77.65116279069767,
          "velocity": 0.13385826771653545
        },
        {
          "duration": 0.19767441860464885,
          "durationTicks": 17,
          "midi": 45,
          "name": "A2",
          "ticks": 6679,
          "time": 77.66279069767442,
          "velocity": 0.3228346456692913
        },
        {
          "duration": 0.03488372093023884,
          "durationTicks": 3,
          "midi": 67,
          "name": "G4",
          "ticks": 6682,
          "time": 77.69767441860465,
          "velocity": 0.25984251968503935
        },
        {
          "duration": 0.17441860465116577,
          "durationTicks": 15,
          "midi": 83,
          "name": "B5",
          "ticks": 6682,
          "time": 77.69767441860465,
          "velocity": 0.1732283464566929
        },
        {
          "duration": 0.04651162790698038,
          "durationTicks": 4,
          "midi": 67,
          "name": "G4",
          "ticks": 6686,
          "time": 77.74418604651163,
          "velocity": 0.2283464566929134
        },
        {
          "duration": 0.04651162790698038,
          "durationTicks": 4,
          "midi": 62,
          "name": "D4",
          "ticks": 6688,
          "time": 77.76744186046511,
          "velocity": 0.12598425196850394
        },
        {
          "duration": 0.3139534883720927,
          "durationTicks": 27,
          "midi": 67,
          "name": "G4",
          "ticks": 6691,
          "time": 77.80232558139535,
          "velocity": 0.33858267716535434
        },
        {
          "duration": 0.03488372093023884,
          "durationTicks": 3,
          "midi": 62,
          "name": "D4",
          "ticks": 6694,
          "time": 77.83720930232558,
          "velocity": 0.16535433070866143
        },
        {
          "duration": 0.3139534883720927,
          "durationTicks": 27,
          "midi": 72,
          "name": "C5",
          "ticks": 6695,
          "time": 77.84883720930233,
          "velocity": 0.4251968503937008
        },
        {
          "duration": 0.22093023255813193,
          "durationTicks": 19,
          "midi": 82,
          "name": "A#5",
          "ticks": 6696,
          "time": 77.86046511627907,
          "velocity": 0.14173228346456693
        },
        {
          "duration": 0.19767441860464885,
          "durationTicks": 17,
          "midi": 60,
          "name": "C4",
          "ticks": 6697,
          "time": 77.87209302325581,
          "velocity": 0.2755905511811024
        },
        {
          "duration": 0.2093023255813904,
          "durationTicks": 18,
          "midi": 76,
          "name": "E5",
          "ticks": 6697,
          "time": 77.87209302325581,
          "velocity": 0.14960629921259844
        },
        {
          "duration": 0.1860465116279073,
          "durationTicks": 16,
          "midi": 64,
          "name": "E4",
          "ticks": 6698,
          "time": 77.88372093023256,
          "velocity": 0.25984251968503935
        },
        {
          "duration": 0.10465116279068809,
          "durationTicks": 9,
          "midi": 83,
          "name": "B5",
          "ticks": 6701,
          "time": 77.9186046511628,
          "velocity": 0.10236220472440945
        },
        {
          "duration": 0.05813953488372192,
          "durationTicks": 5,
          "midi": 74,
          "name": "D5",
          "ticks": 6703,
          "time": 77.94186046511628,
          "velocity": 0.11811023622047244
        },
        {
          "duration": 0.03488372093023884,
          "durationTicks": 3,
          "midi": 48,
          "name": "C3",
          "ticks": 6704,
          "time": 77.95348837209302,
          "velocity": 0.2125984251968504
        },
        {
          "duration": 0.06976744186046346,
          "durationTicks": 6,
          "midi": 48,
          "name": "C3",
          "ticks": 6709,
          "time": 78.01162790697674,
          "velocity": 0.1968503937007874
        },
        {
          "duration": 0.04651162790698038,
          "durationTicks": 4,
          "midi": 83,
          "name": "B5",
          "ticks": 6713,
          "time": 78.05813953488372,
          "velocity": 0.09448818897637795
        },
        {
          "duration": 0.2325581395348877,
          "durationTicks": 20,
          "midi": 62,
          "name": "D4",
          "ticks": 6715,
          "time": 78.0813953488372,
          "velocity": 0.28346456692913385
        },
        {
          "duration": 0.40697674418605345,
          "durationTicks": 35,
          "midi": 81,
          "name": "A5",
          "ticks": 6715,
          "time": 78.0813953488372,
          "velocity": 0.2283464566929134
        },
        {
          "duration": 0.4418604651162923,
          "durationTicks": 38,
          "midi": 69,
          "name": "A4",
          "ticks": 6716,
          "time": 78.09302325581395,
          "velocity": 0.25196850393700787
        },
        {
          "duration": 0.27906976744186807,
          "durationTicks": 24,
          "midi": 77,
          "name": "F5",
          "ticks": 6716,
          "time": 78.09302325581395,
          "velocity": 0.12598425196850394
        },
        {
          "duration": 0.2674418604651123,
          "durationTicks": 23,
          "midi": 65,
          "name": "F4",
          "ticks": 6717,
          "time": 78.1046511627907,
          "velocity": 0.2440944881889764
        },
        {
          "duration": 0.19767441860466306,
          "durationTicks": 17,
          "midi": 50,
          "name": "D3",
          "ticks": 6721,
          "time": 78.15116279069767,
          "velocity": 0.2283464566929134
        },
        {
          "duration": 0.19767441860466306,
          "durationTicks": 17,
          "midi": 57,
          "name": "A3",
          "ticks": 6721,
          "time": 78.15116279069767,
          "velocity": 0.16535433070866143
        },
        {
          "duration": 0.15116279069766847,
          "durationTicks": 13,
          "midi": 88,
          "name": "E6",
          "ticks": 6722,
          "time": 78.16279069767442,
          "velocity": 0.11023622047244094
        },
        {
          "duration": 0.3139534883720927,
          "durationTicks": 27,
          "midi": 72,
          "name": "C5",
          "ticks": 6727,
          "time": 78.22093023255815,
          "velocity": 0.3700787401574803
        },
        {
          "duration": 0.034883720930224626,
          "durationTicks": 3,
          "midi": 58,
          "name": "A#3",
          "ticks": 6738,
          "time": 78.34883720930233,
          "velocity": 0.16535433070866143
        },
        {
          "duration": 0.04651162790698038,
          "durationTicks": 4,
          "midi": 43,
          "name": "G2",
          "ticks": 6739,
          "time": 78.36046511627907,
          "velocity": 0.1732283464566929
        },
        {
          "duration": 0.03488372093023884,
          "durationTicks": 3,
          "midi": 50,
          "name": "D3",
          "ticks": 6740,
          "time": 78.37209302325581,
          "velocity": 0.11023622047244094
        },
        {
          "duration": 0.1860465116279073,
          "durationTicks": 16,
          "midi": 83,
          "name": "B5",
          "ticks": 6742,
          "time": 78.3953488372093,
          "velocity": 0.10236220472440945
        },
        {
          "duration": 0.09302325581394655,
          "durationTicks": 8,
          "midi": 43,
          "name": "G2",
          "ticks": 6745,
          "time": 78.43023255813954,
          "velocity": 0.12598425196850394
        },
        {
          "duration": 0.04651162790698038,
          "durationTicks": 4,
          "midi": 57,
          "name": "A3",
          "ticks": 6745,
          "time": 78.43023255813954,
          "velocity": 0.14173228346456693
        },
        {
          "duration": 0.13953488372092693,
          "durationTicks": 12,
          "midi": 85,
          "name": "C#6",
          "ticks": 6745,
          "time": 78.43023255813954,
          "velocity": 0.08661417322834646
        },
        {
          "duration": 0.03488372093023884,
          "durationTicks": 3,
          "midi": 65,
          "name": "F4",
          "ticks": 6747,
          "time": 78.45348837209302,
          "velocity": 0.08661417322834646
        },
        {
          "duration": 0.04651162790698038,
          "durationTicks": 4,
          "midi": 51,
          "name": "D#3",
          "ticks": 6753,
          "time": 78.52325581395348,
          "velocity": 0.18110236220472442
        },
        {
          "duration": 0.3139534883720927,
          "durationTicks": 27,
          "midi": 62,
          "name": "D4",
          "ticks": 6754,
          "time": 78.53488372093024,
          "velocity": 0.2992125984251969
        },
        {
          "duration": 0.23255813953487348,
          "durationTicks": 20,
          "midi": 70,
          "name": "A#4",
          "ticks": 6754,
          "time": 78.53488372093024,
          "velocity": 0.33070866141732286
        },
        {
          "duration": 0.06976744186046346,
          "durationTicks": 6,
          "midi": 65,
          "name": "F4",
          "ticks": 6755,
          "time": 78.54651162790698,
          "velocity": 0.2440944881889764
        },
        {
          "duration": 0.23255813953487348,
          "durationTicks": 20,
          "midi": 67,
          "name": "G4",
          "ticks": 6755,
          "time": 78.54651162790698,
          "velocity": 0.31496062992125984
        },
        {
          "duration": 0.2093023255814046,
          "durationTicks": 18,
          "midi": 50,
          "name": "D3",
          "ticks": 6758,
          "time": 78.5813953488372,
          "velocity": 0.1968503937007874
        },
        {
          "duration": 0.34883720930233153,
          "durationTicks": 30,
          "midi": 88,
          "name": "E6",
          "ticks": 6758,
          "time": 78.5813953488372,
          "velocity": 0.14960629921259844
        },
        {
          "duration": 0.04651162790698038,
          "durationTicks": 4,
          "midi": 43,
          "name": "G2",
          "ticks": 6759,
          "time": 78.59302325581395,
          "velocity": 0.15748031496062992
        },
        {
          "duration": 0.04651162790698038,
          "durationTicks": 4,
          "midi": 43,
          "name": "G2",
          "ticks": 6769,
          "time": 78.70930232558139,
          "velocity": 0.11811023622047244
        },
        {
          "duration": 0.04651162790698038,
          "durationTicks": 4,
          "midi": 83,
          "name": "B5",
          "ticks": 6773,
          "time": 78.75581395348837,
          "velocity": 0.14173228346456693
        },
        {
          "duration": 0.06976744186046346,
          "durationTicks": 6,
          "midi": 65,
          "name": "F4",
          "ticks": 6774,
          "time": 78.76744186046511,
          "velocity": 0.13385826771653545
        },
        {
          "duration": 0.09302325581396076,
          "durationTicks": 8,
          "midi": 72,
          "name": "C5",
          "ticks": 6774,
          "time": 78.76744186046511,
          "velocity": 0.14960629921259844
        },
        {
          "duration": 0.023255813953497295,
          "durationTicks": 2,
          "midi": 70,
          "name": "A#4",
          "ticks": 6775,
          "time": 78.77906976744185,
          "velocity": 0.2677165354330709
        },
        {
          "duration": 0.22093023255813193,
          "durationTicks": 19,
          "midi": 69,
          "name": "A4",
          "ticks": 6776,
          "time": 78.79069767441861,
          "velocity": 0.30708661417322836
        },
        {
          "duration": 0.17441860465116577,
          "durationTicks": 15,
          "midi": 41,
          "name": "F2",
          "ticks": 6778,
          "time": 78.81395348837209,
          "velocity": 0.15748031496062992
        },
        {
          "duration": 0.03488372093023884,
          "durationTicks": 3,
          "midi": 83,
          "name": "B5",
          "ticks": 6778,
          "time": 78.81395348837209,
          "velocity": 0.14960629921259844
        },
        {
          "duration": 0.03488372093023884,
          "durationTicks": 3,
          "midi": 83,
          "name": "B5",
          "ticks": 6783,
          "time": 78.87209302325581,
          "velocity": 0.10236220472440945
        },
        {
          "duration": 0.023255813953483084,
          "durationTicks": 2,
          "midi": 50,
          "name": "D3",
          "ticks": 6788,
          "time": 78.93023255813954,
          "velocity": 0.2283464566929134
        },
        {
          "duration": 0.24418604651162923,
          "durationTicks": 21,
          "midi": 62,
          "name": "D4",
          "ticks": 6793,
          "time": 78.98837209302326,
          "velocity": 0.25196850393700787
        },
        {
          "duration": 0.10465116279068809,
          "durationTicks": 9,
          "midi": 67,
          "name": "G4",
          "ticks": 6793,
          "time": 78.98837209302326,
          "velocity": 0.3228346456692913
        },
        {
          "duration": 0.25581395348837077,
          "durationTicks": 22,
          "midi": 77,
          "name": "F5",
          "ticks": 6793,
          "time": 78.98837209302326,
          "velocity": 0.2125984251968504
        },
        {
          "duration": 0.38372093023255616,
          "durationTicks": 33,
          "midi": 87,
          "name": "D#6",
          "ticks": 6794,
          "time": 79,
          "velocity": 0.09448818897637795
        },
        {
          "duration": 0.03488372093023884,
          "durationTicks": 3,
          "midi": 65,
          "name": "F4",
          "ticks": 6795,
          "time": 79.01162790697674,
          "velocity": 0.25196850393700787
        },
        {
          "duration": 0.2906976744186096,
          "durationTicks": 25,
          "midi": 70,
          "name": "A#4",
          "ticks": 6795,
          "time": 79.01162790697674,
          "velocity": 0.3228346456692913
        },
        {
          "duration": 0.15116279069768268,
          "durationTicks": 13,
          "midi": 84,
          "name": "C6",
          "ticks": 6795,
          "time": 79.01162790697674,
          "velocity": 0.08661417322834646
        },
        {
          "duration": 0.023255813953483084,
          "durationTicks": 2,
          "midi": 42,
          "name": "F#2",
          "ticks": 6798,
          "time": 79.04651162790698,
          "velocity": 0.2283464566929134
        },
        {
          "duration": 0.06976744186046346,
          "durationTicks": 6,
          "midi": 43,
          "name": "G2",
          "ticks": 6800,
          "time": 79.06976744186046,
          "velocity": 0.15748031496062992
        },
        {
          "duration": 0.03488372093023884,
          "durationTicks": 3,
          "midi": 53,
          "name": "F3",
          "ticks": 6801,
          "time": 79.0813953488372,
          "velocity": 0.23622047244094488
        },
        {
          "duration": 0.418604651162795,
          "durationTicks": 36,
          "midi": 65,
          "name": "F4",
          "ticks": 6801,
          "time": 79.0813953488372,
          "velocity": 0.33858267716535434
        },
        {
          "duration": 0.06976744186047767,
          "durationTicks": 6,
          "midi": 43,
          "name": "G2",
          "ticks": 6807,
          "time": 79.15116279069767,
          "velocity": 0.12598425196850394
        },
        {
          "duration": 0.034883720930224626,
          "durationTicks": 3,
          "midi": 42,
          "name": "F#2",
          "ticks": 6813,
          "time": 79.22093023255815,
          "velocity": 0.1889763779527559
        },
        {
          "duration": 0.04651162790698038,
          "durationTicks": 4,
          "midi": 83,
          "name": "B5",
          "ticks": 6815,
          "time": 79.24418604651163,
          "velocity": 0.11811023622047244
        },
        {
          "duration": 0.19767441860464885,
          "durationTicks": 17,
          "midi": 43,
          "name": "G2",
          "ticks": 6816,
          "time": 79.25581395348837,
          "velocity": 0.2047244094488189
        },
        {
          "duration": 0.16279069767442422,
          "durationTicks": 14,
          "midi": 59,
          "name": "B3",
          "ticks": 6817,
          "time": 79.26744186046511,
          "velocity": 0.07086614173228346
        },
        {
          "duration": 0.04651162790698038,
          "durationTicks": 4,
          "midi": 83,
          "name": "B5",
          "ticks": 6821,
          "time": 79.31395348837209,
          "velocity": 0.11811023622047244
        },
        {
          "duration": 0.06976744186046346,
          "durationTicks": 6,
          "midi": 85,
          "name": "C#6",
          "ticks": 6826,
          "time": 79.37209302325581,
          "velocity": 0.07086614173228346
        },
        {
          "duration": 0.04651162790698038,
          "durationTicks": 4,
          "midi": 83,
          "name": "B5",
          "ticks": 6827,
          "time": 79.38372093023256,
          "velocity": 0.10236220472440945
        },
        {
          "duration": 0.5116279069767415,
          "durationTicks": 44,
          "midi": 83,
          "name": "B5",
          "ticks": 6832,
          "time": 79.44186046511628,
          "velocity": 0.2677165354330709
        },
        {
          "duration": 0.2093023255814046,
          "durationTicks": 18,
          "midi": 62,
          "name": "D4",
          "ticks": 6833,
          "time": 79.45348837209302,
          "velocity": 0.23622047244094488
        },
        {
          "duration": 0.22093023255814614,
          "durationTicks": 19,
          "midi": 70,
          "name": "A#4",
          "ticks": 6833,
          "time": 79.45348837209302,
          "velocity": 0.33858267716535434
        },
        {
          "duration": 0.11627906976744384,
          "durationTicks": 10,
          "midi": 84,
          "name": "C6",
          "ticks": 6833,
          "time": 79.45348837209302,
          "velocity": 0.09448818897637795
        },
        {
          "duration": 0.16279069767442422,
          "durationTicks": 14,
          "midi": 89,
          "name": "F6",
          "ticks": 6833,
          "time": 79.45348837209302,
          "velocity": 0.14173228346456693
        },
        {
          "duration": 0.2093023255814046,
          "durationTicks": 18,
          "midi": 67,
          "name": "G4",
          "ticks": 6834,
          "time": 79.46511627906976,
          "velocity": 0.3228346456692913
        },
        {
          "duration": 0.04651162790698038,
          "durationTicks": 4,
          "midi": 38,
          "name": "D2",
          "ticks": 6837,
          "time": 79.5,
          "velocity": 0.15748031496062992
        },
        {
          "duration": 0.1046511627907023,
          "durationTicks": 9,
          "midi": 38,
          "name": "D2",
          "ticks": 6842,
          "time": 79.55813953488372,
          "velocity": 0.15748031496062992
        },
        {
          "duration": 0.11627906976744384,
          "durationTicks": 10,
          "midi": 65,
          "name": "F4",
          "ticks": 6844,
          "time": 79.5813953488372,
          "velocity": 0.2755905511811024
        },
        {
          "duration": 0.04651162790696617,
          "durationTicks": 4,
          "midi": 57,
          "name": "A3",
          "ticks": 6846,
          "time": 79.6046511627907,
          "velocity": 0.11023622047244094
        },
        {
          "duration": 0.2325581395348877,
          "durationTicks": 20,
          "midi": 60,
          "name": "C4",
          "ticks": 6852,
          "time": 79.67441860465117,
          "velocity": 0.25196850393700787
        },
        {
          "duration": 0.2325581395348877,
          "durationTicks": 20,
          "midi": 76,
          "name": "E5",
          "ticks": 6852,
          "time": 79.67441860465117,
          "velocity": 0.14960629921259844
        },
        {
          "duration": 0.2093023255813904,
          "durationTicks": 18,
          "midi": 81,
          "name": "A5",
          "ticks": 6852,
          "time": 79.67441860465117,
          "velocity": 0.14173228346456693
        },
        {
          "duration": 0.7093023255813904,
          "durationTicks": 61,
          "midi": 67,
          "name": "G4",
          "ticks": 6853,
          "time": 79.68604651162791,
          "velocity": 0.33858267716535434
        },
        {
          "duration": 0.023255813953483084,
          "durationTicks": 2,
          "midi": 69,
          "name": "A4",
          "ticks": 6853,
          "time": 79.68604651162791,
          "velocity": 0.28346456692913385
        },
        {
          "duration": 0.1860465116279073,
          "durationTicks": 16,
          "midi": 72,
          "name": "C5",
          "ticks": 6853,
          "time": 79.68604651162791,
          "velocity": 0.2992125984251969
        },
        {
          "duration": 0.081395348837205,
          "durationTicks": 7,
          "midi": 64,
          "name": "E4",
          "ticks": 6854,
          "time": 79.69767441860465,
          "velocity": 0.2283464566929134
        },
        {
          "duration": 0.19767441860464885,
          "durationTicks": 17,
          "midi": 74,
          "name": "D5",
          "ticks": 6854,
          "time": 79.69767441860465,
          "velocity": 0.13385826771653545
        },
        {
          "duration": 0.04651162790698038,
          "durationTicks": 4,
          "midi": 48,
          "name": "C3",
          "ticks": 6855,
          "time": 79.70930232558139,
          "velocity": 0.2125984251968504
        },
        {
          "duration": 0.13953488372094114,
          "durationTicks": 12,
          "midi": 48,
          "name": "C3",
          "ticks": 6860,
          "time": 79.76744186046511,
          "velocity": 0.2047244094488189
        },
        {
          "duration": 0.11627906976744384,
          "durationTicks": 10,
          "midi": 69,
          "name": "A4",
          "ticks": 6862,
          "time": 79.79069767441861,
          "velocity": 0.25196850393700787
        },
        {
          "duration": 0.034883720930224626,
          "durationTicks": 3,
          "midi": 64,
          "name": "E4",
          "ticks": 6863,
          "time": 79.80232558139535,
          "velocity": 0.11811023622047244
        },
        {
          "duration": 0.05813953488372192,
          "durationTicks": 5,
          "midi": 64,
          "name": "E4",
          "ticks": 6867,
          "time": 79.84883720930233,
          "velocity": 0.13385826771653545
        },
        {
          "duration": 0.5116279069767558,
          "durationTicks": 44,
          "midi": 70,
          "name": "A#4",
          "ticks": 6871,
          "time": 79.8953488372093,
          "velocity": 0.36220472440944884
        },
        {
          "duration": 0.10465116279068809,
          "durationTicks": 9,
          "midi": 57,
          "name": "A3",
          "ticks": 6873,
          "time": 79.9186046511628,
          "velocity": 0.1732283464566929
        },
        {
          "duration": 0.2093023255813904,
          "durationTicks": 18,
          "midi": 62,
          "name": "D4",
          "ticks": 6873,
          "time": 79.9186046511628,
          "velocity": 0.2440944881889764
        },
        {
          "duration": 0.5232558139534831,
          "durationTicks": 45,
          "midi": 74,
          "name": "D5",
          "ticks": 6873,
          "time": 79.9186046511628,
          "velocity": 0.2677165354330709
        },
        {
          "duration": 0.19767441860464885,
          "durationTicks": 17,
          "midi": 77,
          "name": "F5",
          "ticks": 6873,
          "time": 79.9186046511628,
          "velocity": 0.11811023622047244
        },
        {
          "duration": 0.09302325581394655,
          "durationTicks": 8,
          "midi": 81,
          "name": "A5",
          "ticks": 6873,
          "time": 79.9186046511628,
          "velocity": 0.11023622047244094
        },
        {
          "duration": 0.023255813953483084,
          "durationTicks": 2,
          "midi": 43,
          "name": "G2",
          "ticks": 6874,
          "time": 79.93023255813954,
          "velocity": 0.2755905511811024
        },
        {
          "duration": 0.16279069767441,
          "durationTicks": 14,
          "midi": 88,
          "name": "E6",
          "ticks": 6879,
          "time": 79.98837209302326,
          "velocity": 0.11023622047244094
        },
        {
          "duration": 0.11627906976744384,
          "durationTicks": 10,
          "midi": 50,
          "name": "D3",
          "ticks": 6880,
          "time": 80,
          "velocity": 0.2125984251968504
        },
        {
          "duration": 0.034883720930224626,
          "durationTicks": 3,
          "midi": 65,
          "name": "F4",
          "ticks": 6885,
          "time": 80.05813953488372,
          "velocity": 0.1889763779527559
        },
        {
          "duration": 0.04651162790698038,
          "durationTicks": 4,
          "midi": 43,
          "name": "G2",
          "ticks": 6888,
          "time": 80.09302325581395,
          "velocity": 0.12598425196850394
        },
        {
          "duration": 0.034883720930224626,
          "durationTicks": 3,
          "midi": 65,
          "name": "F4",
          "ticks": 6889,
          "time": 80.1046511627907,
          "velocity": 0.16535433070866143
        },
        {
          "duration": 0.418604651162795,
          "durationTicks": 36,
          "midi": 79,
          "name": "G5",
          "ticks": 6890,
          "time": 80.11627906976744,
          "velocity": 0.3700787401574803
        },
        {
          "duration": 0.19767441860466306,
          "durationTicks": 17,
          "midi": 62,
          "name": "D4",
          "ticks": 6893,
          "time": 80.15116279069767,
          "velocity": 0.2125984251968504
        },
        {
          "duration": 0.034883720930224626,
          "durationTicks": 3,
          "midi": 57,
          "name": "A3",
          "ticks": 6894,
          "time": 80.16279069767442,
          "velocity": 0.2204724409448819
        },
        {
          "duration": 0.1046511627907023,
          "durationTicks": 9,
          "midi": 58,
          "name": "A#3",
          "ticks": 6897,
          "time": 80.19767441860465,
          "velocity": 0.2440944881889764
        },
        {
          "duration": 0.04651162790698038,
          "durationTicks": 4,
          "midi": 46,
          "name": "A#2",
          "ticks": 6906,
          "time": 80.30232558139535,
          "velocity": 0.09448818897637795
        },
        {
          "duration": 0.03488372093023884,
          "durationTicks": 3,
          "midi": 58,
          "name": "A#3",
          "ticks": 6907,
          "time": 80.31395348837209,
          "velocity": 0.2204724409448819
        },
        {
          "duration": 0.24418604651162923,
          "durationTicks": 21,
          "midi": 60,
          "name": "C4",
          "ticks": 6911,
          "time": 80.36046511627907,
          "velocity": 0.3543307086614173
        },
        {
          "duration": 0.30232558139535115,
          "durationTicks": 26,
          "midi": 70,
          "name": "A#4",
          "ticks": 6930,
          "time": 80.5813953488372,
          "velocity": 0.2992125984251969
        },
        {
          "duration": 0.4651162790697754,
          "durationTicks": 40,
          "midi": 77,
          "name": "F5",
          "ticks": 6930,
          "time": 80.5813953488372,
          "velocity": 0.3228346456692913
        },
        {
          "duration": 0.09302325581396076,
          "durationTicks": 8,
          "midi": 79,
          "name": "G5",
          "ticks": 6930,
          "time": 80.5813953488372,
          "velocity": 0.15748031496062992
        },
        {
          "duration": 0.03488372093023884,
          "durationTicks": 3,
          "midi": 53,
          "name": "F3",
          "ticks": 6931,
          "time": 80.59302325581395,
          "velocity": 0.13385826771653545
        },
        {
          "duration": 0.255813953488385,
          "durationTicks": 22,
          "midi": 67,
          "name": "G4",
          "ticks": 6931,
          "time": 80.59302325581395,
          "velocity": 0.2992125984251969
        },
        {
          "duration": 0.7325581395348877,
          "durationTicks": 63,
          "midi": 74,
          "name": "D5",
          "ticks": 6931,
          "time": 80.59302325581395,
          "velocity": 0.2677165354330709
        },
        {
          "duration": 0.034883720930224626,
          "durationTicks": 3,
          "midi": 72,
          "name": "C5",
          "ticks": 6932,
          "time": 80.6046511627907,
          "velocity": 0.10236220472440945
        },
        {
          "duration": 0.3372093023255758,
          "durationTicks": 29,
          "midi": 81,
          "name": "A5",
          "ticks": 6932,
          "time": 80.6046511627907,
          "velocity": 0.2047244094488189
        },
        {
          "duration": 0.03488372093023884,
          "durationTicks": 3,
          "midi": 58,
          "name": "A#3",
          "ticks": 6936,
          "time": 80.65116279069767,
          "velocity": 0.2283464566929134
        },
        {
          "duration": 0.12790697674418539,
          "durationTicks": 11,
          "midi": 72,
          "name": "C5",
          "ticks": 6939,
          "time": 80.68604651162791,
          "velocity": 0.13385826771653545
        },
        {
          "duration": 0.023255813953497295,
          "durationTicks": 2,
          "midi": 58,
          "name": "A#3",
          "ticks": 6940,
          "time": 80.69767441860465,
          "velocity": 0.2440944881889764
        },
        {
          "duration": 0.081395348837205,
          "durationTicks": 7,
          "midi": 46,
          "name": "A#2",
          "ticks": 6944,
          "time": 80.74418604651163,
          "velocity": 0.09448818897637795
        },
        {
          "duration": 0.2906976744186096,
          "durationTicks": 25,
          "midi": 62,
          "name": "D4",
          "ticks": 6947,
          "time": 80.77906976744185,
          "velocity": 0.30708661417322836
        },
        {
          "duration": 0.04651162790698038,
          "durationTicks": 4,
          "midi": 58,
          "name": "A#3",
          "ticks": 6952,
          "time": 80.83720930232558,
          "velocity": 0.14173228346456693
        },
        {
          "duration": 0.3372093023255758,
          "durationTicks": 29,
          "midi": 69,
          "name": "A4",
          "ticks": 6969,
          "time": 81.03488372093024,
          "velocity": 0.25984251968503935
        },
        {
          "duration": 0.46511627906976116,
          "durationTicks": 40,
          "midi": 79,
          "name": "G5",
          "ticks": 6969,
          "time": 81.03488372093024,
          "velocity": 0.30708661417322836
        },
        {
          "duration": 0.27906976744185386,
          "durationTicks": 24,
          "midi": 45,
          "name": "A2",
          "ticks": 6970,
          "time": 81.04651162790698,
          "velocity": 0.4251968503937008
        },
        {
          "duration": 0.22093023255813193,
          "durationTicks": 19,
          "midi": 71,
          "name": "B4",
          "ticks": 6970,
          "time": 81.04651162790698,
          "velocity": 0.1968503937007874
        },
        {
          "duration": 0.4534883720930196,
          "durationTicks": 39,
          "midi": 76,
          "name": "E5",
          "ticks": 6970,
          "time": 81.04651162790698,
          "velocity": 0.31496062992125984
        },
        {
          "duration": 0.03488372093023884,
          "durationTicks": 3,
          "midi": 65,
          "name": "F4",
          "ticks": 6973,
          "time": 81.0813953488372,
          "velocity": 0.2992125984251969
        },
        {
          "duration": 0.034883720930224626,
          "durationTicks": 3,
          "midi": 87,
          "name": "D#6",
          "ticks": 6975,
          "time": 81.1046511627907,
          "velocity": 0.07874015748031496
        },
        {
          "duration": 0.081395348837205,
          "durationTicks": 7,
          "midi": 65,
          "name": "F4",
          "ticks": 6977,
          "time": 81.12790697674419,
          "velocity": 0.2755905511811024
        },
        {
          "duration": 0.03488372093023884,
          "durationTicks": 3,
          "midi": 61,
          "name": "C#4",
          "ticks": 6982,
          "time": 81.18604651162791,
          "velocity": 0.1968503937007874
        },
        {
          "duration": 0.034883720930224626,
          "durationTicks": 3,
          "midi": 65,
          "name": "F4",
          "ticks": 6985,
          "time": 81.22093023255815,
          "velocity": 0.2440944881889764
        },
        {
          "duration": 0.034883720930224626,
          "durationTicks": 3,
          "midi": 61,
          "name": "C#4",
          "ticks": 6986,
          "time": 81.23255813953489,
          "velocity": 0.1732283464566929
        },
        {
          "duration": 0.2325581395348877,
          "durationTicks": 20,
          "midi": 60,
          "name": "C4",
          "ticks": 6989,
          "time": 81.26744186046511,
          "velocity": 0.36220472440944884
        },
        {
          "duration": 0.03488372093023884,
          "durationTicks": 3,
          "midi": 65,
          "name": "F4",
          "ticks": 6989,
          "time": 81.26744186046511,
          "velocity": 0.2125984251968504
        },
        {
          "duration": 0.08139534883721922,
          "durationTicks": 7,
          "midi": 45,
          "name": "A2",
          "ticks": 6995,
          "time": 81.33720930232558,
          "velocity": 0.2047244094488189
        },
        {
          "duration": 0.5,
          "durationTicks": 43,
          "midi": 77,
          "name": "F5",
          "ticks": 7008,
          "time": 81.48837209302326,
          "velocity": 0.30708661417322836
        },
        {
          "duration": 0.2325581395348877,
          "durationTicks": 20,
          "midi": 45,
          "name": "A2",
          "ticks": 7009,
          "time": 81.5,
          "velocity": 0.41732283464566927
        },
        {
          "duration": 0.04651162790698038,
          "durationTicks": 4,
          "midi": 65,
          "name": "F4",
          "ticks": 7009,
          "time": 81.5,
          "velocity": 0.30708661417322836
        },
        {
          "duration": 1.476744186046517,
          "durationTicks": 127,
          "midi": 69,
          "name": "A4",
          "ticks": 7009,
          "time": 81.5,
          "velocity": 0.3700787401574803
        },
        {
          "duration": 2.0465116279069804,
          "durationTicks": 176,
          "midi": 74,
          "name": "D5",
          "ticks": 7009,
          "time": 81.5,
          "velocity": 0.4330708661417323
        },
        {
          "duration": 0.023255813953497295,
          "durationTicks": 2,
          "midi": 62,
          "name": "D4",
          "ticks": 7010,
          "time": 81.51162790697674,
          "velocity": 0.2992125984251969
        },
        {
          "duration": 0.05813953488372192,
          "durationTicks": 5,
          "midi": 71,
          "name": "B4",
          "ticks": 7010,
          "time": 81.51162790697674,
          "velocity": 0.1889763779527559
        },
        {
          "duration": 0.4534883720930196,
          "durationTicks": 39,
          "midi": 60,
          "name": "C4",
          "ticks": 7014,
          "time": 81.55813953488372,
          "velocity": 0.3937007874015748
        },
        {
          "duration": 0.034883720930224626,
          "durationTicks": 3,
          "midi": 79,
          "name": "G5",
          "ticks": 7014,
          "time": 81.55813953488372,
          "velocity": 0.14173228346456693
        },
        {
          "duration": 0.15116279069768268,
          "durationTicks": 13,
          "midi": 65,
          "name": "F4",
          "ticks": 7016,
          "time": 81.5813953488372,
          "velocity": 0.25196850393700787
        },
        {
          "duration": 0.03488372093023884,
          "durationTicks": 3,
          "midi": 88,
          "name": "E6",
          "ticks": 7017,
          "time": 81.59302325581395,
          "velocity": 0.11023622047244094
        },
        {
          "duration": 0.7674418604651123,
          "durationTicks": 66,
          "midi": 88,
          "name": "E6",
          "ticks": 7024,
          "time": 81.67441860465117,
          "velocity": 0.2125984251968504
        },
        {
          "duration": 0.023255813953483084,
          "durationTicks": 2,
          "midi": 46,
          "name": "A#2",
          "ticks": 7029,
          "time": 81.73255813953489,
          "velocity": 0.28346456692913385
        },
        {
          "duration": 0.04651162790696617,
          "durationTicks": 4,
          "midi": 79,
          "name": "G5",
          "ticks": 7029,
          "time": 81.73255813953489,
          "velocity": 0.07086614173228346
        },
        {
          "duration": 0.19767441860464885,
          "durationTicks": 17,
          "midi": 45,
          "name": "A2",
          "ticks": 7031,
          "time": 81.75581395348837,
          "velocity": 0.33858267716535434
        },
        {
          "duration": 0.034883720930224626,
          "durationTicks": 3,
          "midi": 84,
          "name": "C6",
          "ticks": 7035,
          "time": 81.80232558139535,
          "velocity": 0.10236220472440945
        },
        {
          "duration": 0.034883720930224626,
          "durationTicks": 3,
          "midi": 84,
          "name": "C6",
          "ticks": 7044,
          "time": 81.90697674418605,
          "velocity": 0.11023622047244094
        },
        {
          "duration": 0.06976744186046346,
          "durationTicks": 6,
          "midi": 44,
          "name": "G#2",
          "ticks": 7048,
          "time": 81.95348837209302,
          "velocity": 0.2283464566929134
        },
        {
          "duration": 0.081395348837205,
          "durationTicks": 7,
          "midi": 45,
          "name": "A2",
          "ticks": 7056,
          "time": 82.04651162790698,
          "velocity": 0.2204724409448819
        },
        {
          "duration": 0.034883720930224626,
          "durationTicks": 3,
          "midi": 62,
          "name": "D4",
          "ticks": 7057,
          "time": 82.05813953488372,
          "velocity": 0.09448818897637795
        },
        {
          "duration": 0.03488372093023884,
          "durationTicks": 3,
          "midi": 60,
          "name": "C4",
          "ticks": 7065,
          "time": 82.15116279069767,
          "velocity": 0.08661417322834646
        },
        {
          "duration": 0.8488372093023173,
          "durationTicks": 73,
          "midi": 77,
          "name": "F5",
          "ticks": 7067,
          "time": 82.17441860465117,
          "velocity": 0.4251968503937008
        },
        {
          "duration": 0.15116279069766847,
          "durationTicks": 13,
          "midi": 72,
          "name": "C5",
          "ticks": 7068,
          "time": 82.18604651162791,
          "velocity": 0.14173228346456693
        },
        {
          "duration": 0.034883720930224626,
          "durationTicks": 3,
          "midi": 38,
          "name": "D2",
          "ticks": 7071,
          "time": 82.22093023255815,
          "velocity": 0.18110236220472442
        },
        {
          "duration": 0.1860465116279073,
          "durationTicks": 16,
          "midi": 57,
          "name": "A3",
          "ticks": 7072,
          "time": 82.23255813953489,
          "velocity": 0.11023622047244094
        },
        {
          "duration": 0.16279069767442422,
          "durationTicks": 14,
          "midi": 50,
          "name": "D3",
          "ticks": 7074,
          "time": 82.25581395348837,
          "velocity": 0.28346456692913385
        },
        {
          "duration": 0.13953488372094114,
          "durationTicks": 12,
          "midi": 38,
          "name": "D2",
          "ticks": 7075,
          "time": 82.26744186046511,
          "velocity": 0.16535433070866143
        },
        {
          "duration": 0.034883720930224626,
          "durationTicks": 3,
          "midi": 48,
          "name": "C3",
          "ticks": 7088,
          "time": 82.4186046511628,
          "velocity": 0.3543307086614173
        },
        {
          "duration": 0.05813953488372192,
          "durationTicks": 5,
          "midi": 64,
          "name": "E4",
          "ticks": 7089,
          "time": 82.43023255813954,
          "velocity": 0.12598425196850394
        },
        {
          "duration": 0.04651162790698038,
          "durationTicks": 4,
          "midi": 67,
          "name": "G4",
          "ticks": 7091,
          "time": 82.45348837209302,
          "velocity": 0.14960629921259844
        },
        {
          "duration": 0.023255813953497295,
          "durationTicks": 2,
          "midi": 48,
          "name": "C3",
          "ticks": 7092,
          "time": 82.46511627906976,
          "velocity": 0.25984251968503935
        },
        {
          "duration": 0.05813953488372192,
          "durationTicks": 5,
          "midi": 82,
          "name": "A#5",
          "ticks": 7093,
          "time": 82.47674418604652,
          "velocity": 0.08661417322834646
        },
        {
          "duration": 0.1046511627907023,
          "durationTicks": 9,
          "midi": 48,
          "name": "C3",
          "ticks": 7097,
          "time": 82.52325581395348,
          "velocity": 0.1968503937007874
        },
        {
          "duration": 0.04651162790698038,
          "durationTicks": 4,
          "midi": 67,
          "name": "G4",
          "ticks": 7100,
          "time": 82.55813953488372,
          "velocity": 0.13385826771653545
        },
        {
          "duration": 0.24418604651162923,
          "durationTicks": 21,
          "midi": 50,
          "name": "D3",
          "ticks": 7107,
          "time": 82.63953488372093,
          "velocity": 0.2755905511811024
        },
        {
          "duration": 0.04651162790698038,
          "durationTicks": 4,
          "midi": 85,
          "name": "C#6",
          "ticks": 7107,
          "time": 82.63953488372093,
          "velocity": 0.11023622047244094
        },
        {
          "duration": 0.43023255813953654,
          "durationTicks": 37,
          "midi": 79,
          "name": "G5",
          "ticks": 7108,
          "time": 82.65116279069767,
          "velocity": 0.1968503937007874
        },
        {
          "duration": 0.04651162790698038,
          "durationTicks": 4,
          "midi": 84,
          "name": "C6",
          "ticks": 7108,
          "time": 82.65116279069767,
          "velocity": 0.11811023622047244
        },
        {
          "duration": 0.12790697674418539,
          "durationTicks": 11,
          "midi": 72,
          "name": "C5",
          "ticks": 7109,
          "time": 82.66279069767442,
          "velocity": 0.14960629921259844
        },
        {
          "duration": 0.17441860465116577,
          "durationTicks": 15,
          "midi": 67,
          "name": "G4",
          "ticks": 7110,
          "time": 82.67441860465117,
          "velocity": 0.3858267716535433
        },
        {
          "duration": 0.2325581395348877,
          "durationTicks": 20,
          "midi": 88,
          "name": "E6",
          "ticks": 7110,
          "time": 82.67441860465117,
          "velocity": 0.15748031496062992
        },
        {
          "duration": 0.15116279069766847,
          "durationTicks": 13,
          "midi": 38,
          "name": "D2",
          "ticks": 7114,
          "time": 82.72093023255815,
          "velocity": 0.1732283464566929
        },
        {
          "duration": 0.19767441860464885,
          "durationTicks": 17,
          "midi": 72,
          "name": "C5",
          "ticks": 7122,
          "time": 82.81395348837209,
          "velocity": 0.33070866141732286
        },
        {
          "duration": 0.23255813953487348,
          "durationTicks": 20,
          "midi": 60,
          "name": "C4",
          "ticks": 7126,
          "time": 82.86046511627907,
          "velocity": 0.3700787401574803
        },
        {
          "duration": 0.23255813953487348,
          "durationTicks": 20,
          "midi": 67,
          "name": "G4",
          "ticks": 7126,
          "time": 82.86046511627907,
          "velocity": 0.2440944881889764
        },
        {
          "duration": 0.04651162790698038,
          "durationTicks": 4,
          "midi": 45,
          "name": "A2",
          "ticks": 7133,
          "time": 82.94186046511628,
          "velocity": 0.2283464566929134
        },
        {
          "duration": 0.04651162790698038,
          "durationTicks": 4,
          "midi": 88,
          "name": "E6",
          "ticks": 7134,
          "time": 82.95348837209302,
          "velocity": 0.07086614173228346
        },
        {
          "duration": 0.04651162790698038,
          "durationTicks": 4,
          "midi": 45,
          "name": "A2",
          "ticks": 7140,
          "time": 83.02325581395348,
          "velocity": 0.2204724409448819
        },
        {
          "duration": 0.023255813953497295,
          "durationTicks": 2,
          "midi": 45,
          "name": "A2",
          "ticks": 7145,
          "time": 83.0813953488372,
          "velocity": 0.2283464566929134
        },
        {
          "duration": 0.4651162790697754,
          "durationTicks": 40,
          "midi": 65,
          "name": "F4",
          "ticks": 7145,
          "time": 83.0813953488372,
          "velocity": 0.33070866141732286
        },
        {
          "duration": 0.3139534883720927,
          "durationTicks": 27,
          "midi": 69,
          "name": "A4",
          "ticks": 7145,
          "time": 83.0813953488372,
          "velocity": 0.3464566929133858
        },
        {
          "duration": 0.25581395348837077,
          "durationTicks": 22,
          "midi": 77,
          "name": "F5",
          "ticks": 7145,
          "time": 83.0813953488372,
          "velocity": 0.36220472440944884
        },
        {
          "duration": 0.03488372093023884,
          "durationTicks": 3,
          "midi": 71,
          "name": "B4",
          "ticks": 7146,
          "time": 83.09302325581395,
          "velocity": 0.14960629921259844
        },
        {
          "duration": 0.3139534883720927,
          "durationTicks": 27,
          "midi": 62,
          "name": "D4",
          "ticks": 7147,
          "time": 83.1046511627907,
          "velocity": 0.2992125984251969
        },
        {
          "duration": 0.16279069767441,
          "durationTicks": 14,
          "midi": 84,
          "name": "C6",
          "ticks": 7147,
          "time": 83.1046511627907,
          "velocity": 0.16535433070866143
        },
        {
          "duration": 0.03488372093023884,
          "durationTicks": 3,
          "midi": 72,
          "name": "C5",
          "ticks": 7149,
          "time": 83.12790697674419,
          "velocity": 0.15748031496062992
        },
        {
          "duration": 0.1860465116279073,
          "durationTicks": 16,
          "midi": 57,
          "name": "A3",
          "ticks": 7150,
          "time": 83.13953488372093,
          "velocity": 0.2204724409448819
        },
        {
          "duration": 0.06976744186047767,
          "durationTicks": 6,
          "midi": 45,
          "name": "A2",
          "ticks": 7151,
          "time": 83.15116279069767,
          "velocity": 0.29133858267716534
        },
        {
          "duration": 0.10465116279068809,
          "durationTicks": 9,
          "midi": 72,
          "name": "C5",
          "ticks": 7153,
          "time": 83.17441860465117,
          "velocity": 0.15748031496062992
        },
        {
          "duration": 0.09302325581394655,
          "durationTicks": 8,
          "midi": 45,
          "name": "A2",
          "ticks": 7158,
          "time": 83.23255813953489,
          "velocity": 0.25984251968503935
        },
        {
          "duration": 0.05813953488372192,
          "durationTicks": 5,
          "midi": 84,
          "name": "C6",
          "ticks": 7163,
          "time": 83.29069767441861,
          "velocity": 0.08661417322834646
        },
        {
          "duration": 0.2093023255814046,
          "durationTicks": 18,
          "midi": 71,
          "name": "B4",
          "ticks": 7166,
          "time": 83.32558139534883,
          "velocity": 0.23622047244094488
        },
        {
          "duration": 0.1046511627907023,
          "durationTicks": 9,
          "midi": 82,
          "name": "A#5",
          "ticks": 7167,
          "time": 83.33720930232558,
          "velocity": 0.14960629921259844
        },
        {
          "duration": 0.13953488372092693,
          "durationTicks": 12,
          "midi": 67,
          "name": "G4",
          "ticks": 7168,
          "time": 83.34883720930233,
          "velocity": 0.18110236220472442
        },
        {
          "duration": 0.03488372093023884,
          "durationTicks": 3,
          "midi": 40,
          "name": "E2",
          "ticks": 7170,
          "time": 83.37209302325581,
          "velocity": 0.1889763779527559
        },
        {
          "duration": 0.1046511627907023,
          "durationTicks": 9,
          "midi": 48,
          "name": "C3",
          "ticks": 7175,
          "time": 83.43023255813954,
          "velocity": 0.2047244094488189
        },
        {
          "duration": 0.15116279069768268,
          "durationTicks": 13,
          "midi": 40,
          "name": "E2",
          "ticks": 7177,
          "time": 83.45348837209302,
          "velocity": 0.16535433070866143
        },
        {
          "duration": 0.06976744186046346,
          "durationTicks": 6,
          "midi": 82,
          "name": "A#5",
          "ticks": 7179,
          "time": 83.47674418604652,
          "velocity": 0.14173228346456693
        },
        {
          "duration": 0.04651162790698038,
          "durationTicks": 4,
          "midi": 62,
          "name": "D4",
          "ticks": 7181,
          "time": 83.5,
          "velocity": 0.1889763779527559
        },
        {
          "duration": 0.034883720930224626,
          "durationTicks": 3,
          "midi": 73,
          "name": "C#5",
          "ticks": 7184,
          "time": 83.53488372093024,
          "velocity": 0.28346456692913385
        },
        {
          "duration": 0.8488372093023173,
          "durationTicks": 73,
          "midi": 77,
          "name": "F5",
          "ticks": 7184,
          "time": 83.53488372093024,
          "velocity": 0.4645669291338583
        },
        {
          "duration": 0.30232558139533694,
          "durationTicks": 26,
          "midi": 84,
          "name": "C6",
          "ticks": 7184,
          "time": 83.53488372093024,
          "velocity": 0.2204724409448819
        },
        {
          "duration": 0.9069767441860392,
          "durationTicks": 78,
          "midi": 69,
          "name": "A4",
          "ticks": 7185,
          "time": 83.54651162790698,
          "velocity": 0.3543307086614173
        },
        {
          "duration": 0.11627906976744384,
          "durationTicks": 10,
          "midi": 93,
          "name": "A6",
          "ticks": 7185,
          "time": 83.54651162790698,
          "velocity": 0.2204724409448819
        },
        {
          "duration": 0.023255813953483084,
          "durationTicks": 2,
          "midi": 50,
          "name": "D3",
          "ticks": 7186,
          "time": 83.55813953488372,
          "velocity": 0.28346456692913385
        },
        {
          "duration": 0.22093023255813193,
          "durationTicks": 19,
          "midi": 60,
          "name": "C4",
          "ticks": 7186,
          "time": 83.55813953488372,
          "velocity": 0.3700787401574803
        },
        {
          "duration": 0.4767441860465169,
          "durationTicks": 41,
          "midi": 65,
          "name": "F4",
          "ticks": 7186,
          "time": 83.55813953488372,
          "velocity": 0.25984251968503935
        },
        {
          "duration": 3.1744186046511658,
          "durationTicks": 273,
          "midi": 74,
          "name": "D5",
          "ticks": 7186,
          "time": 83.55813953488372,
          "velocity": 0.47244094488188976
        },
        {
          "duration": 0.05813953488372192,
          "durationTicks": 5,
          "midi": 88,
          "name": "E6",
          "ticks": 7187,
          "time": 83.56976744186046,
          "velocity": 0.15748031496062992
        },
        {
          "duration": 0.04651162790698038,
          "durationTicks": 4,
          "midi": 88,
          "name": "E6",
          "ticks": 7194,
          "time": 83.65116279069767,
          "velocity": 0.16535433070866143
        },
        {
          "duration": 0.10465116279068809,
          "durationTicks": 9,
          "midi": 50,
          "name": "D3",
          "ticks": 7195,
          "time": 83.66279069767442,
          "velocity": 0.2204724409448819
        },
        {
          "duration": 0.04651162790696617,
          "durationTicks": 4,
          "midi": 88,
          "name": "E6",
          "ticks": 7200,
          "time": 83.72093023255815,
          "velocity": 0.16535433070866143
        },
        {
          "duration": 0.023255813953497295,
          "durationTicks": 2,
          "midi": 62,
          "name": "D4",
          "ticks": 7205,
          "time": 83.77906976744185,
          "velocity": 0.2440944881889764
        },
        {
          "duration": 0.05813953488372192,
          "durationTicks": 5,
          "midi": 44,
          "name": "G#2",
          "ticks": 7206,
          "time": 83.79069767441861,
          "velocity": 0.2204724409448819
        },
        {
          "duration": 0.17441860465116577,
          "durationTicks": 15,
          "midi": 62,
          "name": "D4",
          "ticks": 7208,
          "time": 83.81395348837209,
          "velocity": 0.2440944881889764
        },
        {
          "duration": 0.1046511627907023,
          "durationTicks": 9,
          "midi": 72,
          "name": "C5",
          "ticks": 7210,
          "time": 83.83720930232558,
          "velocity": 0.16535433070866143
        },
        {
          "duration": 0.1860465116279073,
          "durationTicks": 16,
          "midi": 45,
          "name": "A2",
          "ticks": 7211,
          "time": 83.84883720930233,
          "velocity": 0.25984251968503935
        },
        {
          "duration": 0.16279069767441,
          "durationTicks": 14,
          "midi": 88,
          "name": "E6",
          "ticks": 7212,
          "time": 83.86046511627907,
          "velocity": 0.10236220472440945
        },
        {
          "duration": 0.04651162790698038,
          "durationTicks": 4,
          "midi": 62,
          "name": "D4",
          "ticks": 7225,
          "time": 84.01162790697674,
          "velocity": 0.14173228346456693
        },
        {
          "duration": 0.06976744186046346,
          "durationTicks": 6,
          "midi": 84,
          "name": "C6",
          "ticks": 7226,
          "time": 84.02325581395348,
          "velocity": 0.12598425196850394
        },
        {
          "duration": 0.06976744186046346,
          "durationTicks": 6,
          "midi": 72,
          "name": "C5",
          "ticks": 7227,
          "time": 84.03488372093024,
          "velocity": 0.1732283464566929
        },
        {
          "duration": 0.23255813953487348,
          "durationTicks": 20,
          "midi": 88,
          "name": "E6",
          "ticks": 7228,
          "time": 84.04651162790698,
          "velocity": 0.10236220472440945
        },
        {
          "duration": 0.19767441860464885,
          "durationTicks": 17,
          "midi": 38,
          "name": "D2",
          "ticks": 7229,
          "time": 84.05813953488372,
          "velocity": 0.1968503937007874
        },
        {
          "duration": 0.19767441860464885,
          "durationTicks": 17,
          "midi": 62,
          "name": "D4",
          "ticks": 7230,
          "time": 84.06976744186046,
          "velocity": 0.16535433070866143
        },
        {
          "duration": 0.12790697674418539,
          "durationTicks": 11,
          "midi": 57,
          "name": "A3",
          "ticks": 7231,
          "time": 84.0813953488372,
          "velocity": 0.07874015748031496
        },
        {
          "duration": 0.023255813953483084,
          "durationTicks": 2,
          "midi": 49,
          "name": "C#3",
          "ticks": 7243,
          "time": 84.22093023255815,
          "velocity": 0.25984251968503935
        },
        {
          "duration": 0.023255813953483084,
          "durationTicks": 2,
          "midi": 47,
          "name": "B2",
          "ticks": 7246,
          "time": 84.25581395348837,
          "velocity": 0.2677165354330709
        },
        {
          "duration": 0.03488372093023884,
          "durationTicks": 3,
          "midi": 72,
          "name": "C5",
          "ticks": 7246,
          "time": 84.25581395348837,
          "velocity": 0.14173228346456693
        },
        {
          "duration": 0.09302325581396076,
          "durationTicks": 8,
          "midi": 64,
          "name": "E4",
          "ticks": 7247,
          "time": 84.26744186046511,
          "velocity": 0.14173228346456693
        },
        {
          "duration": 0.24418604651162923,
          "durationTicks": 21,
          "midi": 48,
          "name": "C3",
          "ticks": 7248,
          "time": 84.27906976744185,
          "velocity": 0.3228346456692913
        },
        {
          "duration": 0.06976744186046346,
          "durationTicks": 6,
          "midi": 72,
          "name": "C5",
          "ticks": 7250,
          "time": 84.30232558139535,
          "velocity": 0.18110236220472442
        },
        {
          "duration": 0.03488372093023884,
          "durationTicks": 3,
          "midi": 67,
          "name": "G4",
          "ticks": 7256,
          "time": 84.37209302325581,
          "velocity": 0.2125984251968504
        },
        {
          "duration": 0.03488372093023884,
          "durationTicks": 3,
          "midi": 76,
          "name": "E5",
          "ticks": 7256,
          "time": 84.37209302325581,
          "velocity": 0.07086614173228346
        },
        {
          "duration": 0.034883720930224626,
          "durationTicks": 3,
          "midi": 72,
          "name": "C5",
          "ticks": 7259,
          "time": 84.40697674418605,
          "velocity": 0.10236220472440945
        },
        {
          "duration": 0.034883720930224626,
          "durationTicks": 3,
          "midi": 67,
          "name": "G4",
          "ticks": 7260,
          "time": 84.4186046511628,
          "velocity": 0.2125984251968504
        },
        {
          "duration": 0.43023255813953654,
          "durationTicks": 37,
          "midi": 77,
          "name": "F5",
          "ticks": 7260,
          "time": 84.4186046511628,
          "velocity": 0.41732283464566927
        },
        {
          "duration": 0.03488372093023884,
          "durationTicks": 3,
          "midi": 58,
          "name": "A#3",
          "ticks": 7262,
          "time": 84.44186046511628,
          "velocity": 0.18110236220472442
        },
        {
          "duration": 0.023255813953497295,
          "durationTicks": 2,
          "midi": 68,
          "name": "G#4",
          "ticks": 7263,
          "time": 84.45348837209302,
          "velocity": 0.28346456692913385
        },
        {
          "duration": 0.48837209302325846,
          "durationTicks": 42,
          "midi": 79,
          "name": "G5",
          "ticks": 7263,
          "time": 84.45348837209302,
          "velocity": 0.1889763779527559
        },
        {
          "duration": 0.2906976744186096,
          "durationTicks": 25,
          "midi": 81,
          "name": "A5",
          "ticks": 7263,
          "time": 84.45348837209302,
          "velocity": 0.2440944881889764
        },
        {
          "duration": 0.04651162790698038,
          "durationTicks": 4,
          "midi": 85,
          "name": "C#6",
          "ticks": 7264,
          "time": 84.46511627906976,
          "velocity": 0.11023622047244094
        },
        {
          "duration": 0.04651162790696617,
          "durationTicks": 4,
          "midi": 57,
          "name": "A3",
          "ticks": 7265,
          "time": 84.47674418604652,
          "velocity": 0.07874015748031496
        },
        {
          "duration": 0.24418604651162923,
          "durationTicks": 21,
          "midi": 67,
          "name": "G4",
          "ticks": 7265,
          "time": 84.47674418604652,
          "velocity": 0.3937007874015748
        },
        {
          "duration": 0.034883720930224626,
          "durationTicks": 3,
          "midi": 72,
          "name": "C5",
          "ticks": 7266,
          "time": 84.48837209302326,
          "velocity": 0.14960629921259844
        },
        {
          "duration": 0.11627906976744384,
          "durationTicks": 10,
          "midi": 62,
          "name": "D4",
          "ticks": 7268,
          "time": 84.51162790697674,
          "velocity": 0.16535433070866143
        },
        {
          "duration": 0.04651162790696617,
          "durationTicks": 4,
          "midi": 72,
          "name": "C5",
          "ticks": 7270,
          "time": 84.53488372093024,
          "velocity": 0.11023622047244094
        },
        {
          "duration": 0.13953488372092693,
          "durationTicks": 12,
          "midi": 38,
          "name": "D2",
          "ticks": 7271,
          "time": 84.54651162790698,
          "velocity": 0.18110236220472442
        },
        {
          "duration": 0.12790697674418539,
          "durationTicks": 11,
          "midi": 50,
          "name": "D3",
          "ticks": 7271,
          "time": 84.54651162790698,
          "velocity": 0.18110236220472442
        },
        {
          "duration": 0.30232558139535115,
          "durationTicks": 26,
          "midi": 69,
          "name": "A4",
          "ticks": 7271,
          "time": 84.54651162790698,
          "velocity": 0.3464566929133858
        },
        {
          "duration": 0.1860465116279073,
          "durationTicks": 16,
          "midi": 88,
          "name": "E6",
          "ticks": 7272,
          "time": 84.55813953488372,
          "velocity": 0.1732283464566929
        },
        {
          "duration": 0.05813953488372192,
          "durationTicks": 5,
          "midi": 72,
          "name": "C5",
          "ticks": 7278,
          "time": 84.62790697674419,
          "velocity": 0.13385826771653545
        },
        {
          "duration": 0.2325581395348877,
          "durationTicks": 20,
          "midi": 60,
          "name": "C4",
          "ticks": 7283,
          "time": 84.68604651162791,
          "velocity": 0.36220472440944884
        },
        {
          "duration": 0.17441860465116577,
          "durationTicks": 15,
          "midi": 67,
          "name": "G4",
          "ticks": 7287,
          "time": 84.73255813953489,
          "velocity": 0.2204724409448819
        },
        {
          "duration": 0.16279069767442422,
          "durationTicks": 14,
          "midi": 45,
          "name": "A2",
          "ticks": 7289,
          "time": 84.75581395348837,
          "velocity": 0.23622047244094488
        },
        {
          "duration": 0.3488372093023173,
          "durationTicks": 30,
          "midi": 69,
          "name": "A4",
          "ticks": 7302,
          "time": 84.90697674418605,
          "velocity": 0.33858267716535434
        },
        {
          "duration": 0.24418604651161502,
          "durationTicks": 21,
          "midi": 77,
          "name": "F5",
          "ticks": 7302,
          "time": 84.90697674418605,
          "velocity": 0.3543307086614173
        },
        {
          "duration": 0.22093023255813193,
          "durationTicks": 19,
          "midi": 62,
          "name": "D4",
          "ticks": 7303,
          "time": 84.9186046511628,
          "velocity": 0.2992125984251969
        },
        {
          "duration": 0.22093023255813193,
          "durationTicks": 19,
          "midi": 65,
          "name": "F4",
          "ticks": 7303,
          "time": 84.9186046511628,
          "velocity": 0.33070866141732286
        },
        {
          "duration": 0.2093023255813904,
          "durationTicks": 18,
          "midi": 84,
          "name": "C6",
          "ticks": 7303,
          "time": 84.9186046511628,
          "velocity": 0.1732283464566929
        },
        {
          "duration": 0.13953488372092693,
          "durationTicks": 12,
          "midi": 57,
          "name": "A3",
          "ticks": 7309,
          "time": 84.98837209302326,
          "velocity": 0.1732283464566929
        },
        {
          "duration": 0.1046511627907023,
          "durationTicks": 9,
          "midi": 45,
          "name": "A2",
          "ticks": 7315,
          "time": 85.05813953488372,
          "velocity": 0.30708661417322836
        },
        {
          "duration": 0.24418604651162923,
          "durationTicks": 21,
          "midi": 72,
          "name": "C5",
          "ticks": 7321,
          "time": 85.12790697674419,
          "velocity": 0.4409448818897638
        },
        {
          "duration": 0.5348837209302388,
          "durationTicks": 46,
          "midi": 79,
          "name": "G5",
          "ticks": 7321,
          "time": 85.12790697674419,
          "velocity": 0.3937007874015748
        },
        {
          "duration": 0.22093023255814614,
          "durationTicks": 19,
          "midi": 76,
          "name": "E5",
          "ticks": 7322,
          "time": 85.13953488372093,
          "velocity": 0.41732283464566927
        },
        {
          "duration": 0.09302325581396076,
          "durationTicks": 8,
          "midi": 82,
          "name": "A#5",
          "ticks": 7323,
          "time": 85.15116279069767,
          "velocity": 0.14960629921259844
        },
        {
          "duration": 0.22093023255813193,
          "durationTicks": 19,
          "midi": 65,
          "name": "F4",
          "ticks": 7324,
          "time": 85.16279069767442,
          "velocity": 0.2992125984251969
        },
        {
          "duration": 0.023255813953497295,
          "durationTicks": 2,
          "midi": 50,
          "name": "D3",
          "ticks": 7328,
          "time": 85.20930232558139,
          "velocity": 0.2283464566929134
        },
        {
          "duration": 0.081395348837205,
          "durationTicks": 7,
          "midi": 48,
          "name": "C3",
          "ticks": 7335,
          "time": 85.29069767441861,
          "velocity": 0.2125984251968504
        },
        {
          "duration": 0.06976744186046346,
          "durationTicks": 6,
          "midi": 82,
          "name": "A#5",
          "ticks": 7335,
          "time": 85.29069767441861,
          "velocity": 0.10236220472440945
        },
        {
          "duration": 0.023255813953483084,
          "durationTicks": 2,
          "midi": 62,
          "name": "D4",
          "ticks": 7340,
          "time": 85.34883720930233,
          "velocity": 0.25196850393700787
        },
        {
          "duration": 0.30232558139535115,
          "durationTicks": 26,
          "midi": 77,
          "name": "F5",
          "ticks": 7341,
          "time": 85.36046511627907,
          "velocity": 0.4330708661417323
        },
        {
          "duration": 0.32558139534883423,
          "durationTicks": 28,
          "midi": 81,
          "name": "A5",
          "ticks": 7341,
          "time": 85.36046511627907,
          "velocity": 0.25196850393700787
        },
        {
          "duration": 0.11627906976744384,
          "durationTicks": 10,
          "midi": 60,
          "name": "C4",
          "ticks": 7342,
          "time": 85.37209302325581,
          "velocity": 0.31496062992125984
        },
        {
          "duration": 0.22093023255814614,
          "durationTicks": 19,
          "midi": 67,
          "name": "G4",
          "ticks": 7343,
          "time": 85.38372093023256,
          "velocity": 0.36220472440944884
        },
        {
          "duration": 0.034883720930224626,
          "durationTicks": 3,
          "midi": 40,
          "name": "E2",
          "ticks": 7346,
          "time": 85.4186046511628,
          "velocity": 0.10236220472440945
        },
        {
          "duration": 0.1860465116279073,
          "durationTicks": 16,
          "midi": 50,
          "name": "D3",
          "ticks": 7347,
          "time": 85.43023255813954,
          "velocity": 0.2440944881889764
        },
        {
          "duration": 0.09302325581394655,
          "durationTicks": 8,
          "midi": 60,
          "name": "C4",
          "ticks": 7353,
          "time": 85.5,
          "velocity": 0.2204724409448819
        },
        {
          "duration": 0.04651162790698038,
          "durationTicks": 4,
          "midi": 69,
          "name": "A4",
          "ticks": 7361,
          "time": 85.59302325581395,
          "velocity": 0.14960629921259844
        },
        {
          "duration": 0.05813953488372192,
          "durationTicks": 5,
          "midi": 62,
          "name": "D4",
          "ticks": 7362,
          "time": 85.6046511627907,
          "velocity": 0.2440944881889764
        },
        {
          "duration": 0.06976744186046346,
          "durationTicks": 6,
          "midi": 65,
          "name": "F4",
          "ticks": 7362,
          "time": 85.6046511627907,
          "velocity": 0.3700787401574803
        },
        {
          "duration": 0.23255813953487348,
          "durationTicks": 20,
          "midi": 84,
          "name": "C6",
          "ticks": 7362,
          "time": 85.6046511627907,
          "velocity": 0.14173228346456693
        },
        {
          "duration": 0.081395348837205,
          "durationTicks": 7,
          "midi": 43,
          "name": "G2",
          "ticks": 7363,
          "time": 85.61627906976744,
          "velocity": 0.2047244094488189
        },
        {
          "duration": 0.11627906976744384,
          "durationTicks": 10,
          "midi": 83,
          "name": "B5",
          "ticks": 7364,
          "time": 85.62790697674419,
          "velocity": 0.2047244094488189
        },
        {
          "duration": 0.16279069767441,
          "durationTicks": 14,
          "midi": 76,
          "name": "E5",
          "ticks": 7367,
          "time": 85.66279069767442,
          "velocity": 0.2440944881889764
        },
        {
          "duration": 0.023255813953483084,
          "durationTicks": 2,
          "midi": 64,
          "name": "E4",
          "ticks": 7368,
          "time": 85.67441860465117,
          "velocity": 0.29133858267716534
        },
        {
          "duration": 0.11627906976744384,
          "durationTicks": 10,
          "midi": 50,
          "name": "D3",
          "ticks": 7369,
          "time": 85.68604651162791,
          "velocity": 0.13385826771653545
        },
        {
          "duration": 0.04651162790698038,
          "durationTicks": 4,
          "midi": 65,
          "name": "F4",
          "ticks": 7369,
          "time": 85.68604651162791,
          "velocity": 0.3700787401574803
        },
        {
          "duration": 0.16279069767442422,
          "durationTicks": 14,
          "midi": 85,
          "name": "C#6",
          "ticks": 7369,
          "time": 85.68604651162791,
          "velocity": 0.07874015748031496
        },
        {
          "duration": 0.081395348837205,
          "durationTicks": 7,
          "midi": 67,
          "name": "G4",
          "ticks": 7372,
          "time": 85.72093023255815,
          "velocity": 0.2204724409448819
        },
        {
          "duration": 0.081395348837205,
          "durationTicks": 7,
          "midi": 43,
          "name": "G2",
          "ticks": 7373,
          "time": 85.73255813953489,
          "velocity": 0.12598425196850394
        },
        {
          "duration": 0.034883720930224626,
          "durationTicks": 3,
          "midi": 59,
          "name": "B3",
          "ticks": 7373,
          "time": 85.73255813953489,
          "velocity": 0.07874015748031496
        },
        {
          "duration": 0.023255813953483084,
          "durationTicks": 2,
          "midi": 65,
          "name": "F4",
          "ticks": 7375,
          "time": 85.75581395348837,
          "velocity": 0.2755905511811024
        },
        {
          "duration": 0.3372093023255758,
          "durationTicks": 29,
          "midi": 83,
          "name": "B5",
          "ticks": 7375,
          "time": 85.75581395348837,
          "velocity": 0.2283464566929134
        },
        {
          "duration": 0.034883720930224626,
          "durationTicks": 3,
          "midi": 59,
          "name": "B3",
          "ticks": 7379,
          "time": 85.80232558139535,
          "velocity": 0.09448818897637795
        },
        {
          "duration": 0.023255813953483084,
          "durationTicks": 2,
          "midi": 65,
          "name": "F4",
          "ticks": 7379,
          "time": 85.80232558139535,
          "velocity": 0.31496062992125984
        },
        {
          "duration": 0.8720930232558146,
          "durationTicks": 75,
          "midi": 77,
          "name": "F5",
          "ticks": 7379,
          "time": 85.80232558139535,
          "velocity": 0.4094488188976378
        },
        {
          "duration": 0.023255813953483084,
          "durationTicks": 2,
          "midi": 69,
          "name": "A4",
          "ticks": 7380,
          "time": 85.81395348837209,
          "velocity": 0.4251968503937008
        },
        {
          "duration": 0.32558139534883423,
          "durationTicks": 28,
          "midi": 79,
          "name": "G5",
          "ticks": 7380,
          "time": 85.81395348837209,
          "velocity": 0.3937007874015748
        },
        {
          "duration": 0.15116279069768268,
          "durationTicks": 13,
          "midi": 43,
          "name": "G2",
          "ticks": 7381,
          "time": 85.82558139534883,
          "velocity": 0.25196850393700787
        },
        {
          "duration": 0.2325581395348877,
          "durationTicks": 20,
          "midi": 64,
          "name": "E4",
          "ticks": 7381,
          "time": 85.82558139534883,
          "velocity": 0.23622047244094488
        },
        {
          "duration": 0.03488372093023884,
          "durationTicks": 3,
          "midi": 67,
          "name": "G4",
          "ticks": 7381,
          "time": 85.82558139534883,
          "velocity": 0.2677165354330709
        },
        {
          "duration": 0.1046511627907023,
          "durationTicks": 9,
          "midi": 70,
          "name": "A#4",
          "ticks": 7382,
          "time": 85.83720930232558,
          "velocity": 0.4645669291338583
        },
        {
          "duration": 0.04651162790698038,
          "durationTicks": 4,
          "midi": 94,
          "name": "A#6",
          "ticks": 7382,
          "time": 85.83720930232558,
          "velocity": 0.07086614173228346
        },
        {
          "duration": 0.04651162790698038,
          "durationTicks": 4,
          "midi": 67,
          "name": "G4",
          "ticks": 7387,
          "time": 85.8953488372093,
          "velocity": 0.2440944881889764
        },
        {
          "duration": 0.081395348837205,
          "durationTicks": 7,
          "midi": 69,
          "name": "A4",
          "ticks": 7390,
          "time": 85.93023255813954,
          "velocity": 0.4251968503937008
        },
        {
          "duration": 0.04651162790698038,
          "durationTicks": 4,
          "midi": 43,
          "name": "G2",
          "ticks": 7395,
          "time": 85.98837209302326,
          "velocity": 0.12598425196850394
        },
        {
          "duration": 0.04651162790698038,
          "durationTicks": 4,
          "midi": 67,
          "name": "G4",
          "ticks": 7396,
          "time": 86,
          "velocity": 0.2125984251968504
        },
        {
          "duration": 0.25581395348837077,
          "durationTicks": 22,
          "midi": 69,
          "name": "A4",
          "ticks": 7398,
          "time": 86.02325581395348,
          "velocity": 0.3937007874015748
        },
        {
          "duration": 0.034883720930224626,
          "durationTicks": 3,
          "midi": 42,
          "name": "F#2",
          "ticks": 7399,
          "time": 86.03488372093024,
          "velocity": 0.14960629921259844
        },
        {
          "duration": 0.2093023255813904,
          "durationTicks": 18,
          "midi": 72,
          "name": "C5",
          "ticks": 7400,
          "time": 86.04651162790698,
          "velocity": 0.2125984251968504
        },
        {
          "duration": 0.25581395348837077,
          "durationTicks": 22,
          "midi": 65,
          "name": "F4",
          "ticks": 7401,
          "time": 86.05813953488372,
          "velocity": 0.28346456692913385
        },
        {
          "duration": 0.06976744186046346,
          "durationTicks": 6,
          "midi": 87,
          "name": "D#6",
          "ticks": 7401,
          "time": 86.05813953488372,
          "velocity": 0.14173228346456693
        },
        {
          "duration": 0.2093023255813904,
          "durationTicks": 18,
          "midi": 53,
          "name": "F3",
          "ticks": 7402,
          "time": 86.06976744186046,
          "velocity": 0.29133858267716534
        },
        {
          "duration": 0.16279069767441,
          "durationTicks": 14,
          "midi": 41,
          "name": "F2",
          "ticks": 7405,
          "time": 86.1046511627907,
          "velocity": 0.12598425196850394
        },
        {
          "duration": 0.04651162790696617,
          "durationTicks": 4,
          "midi": 83,
          "name": "B5",
          "ticks": 7405,
          "time": 86.1046511627907,
          "velocity": 0.14173228346456693
        },
        {
          "duration": 0.06976744186046346,
          "durationTicks": 6,
          "midi": 87,
          "name": "D#6",
          "ticks": 7411,
          "time": 86.17441860465117,
          "velocity": 0.11811023622047244
        },
        {
          "duration": 0.2906976744186096,
          "durationTicks": 25,
          "midi": 70,
          "name": "A#4",
          "ticks": 7419,
          "time": 86.26744186046511,
          "velocity": 0.41732283464566927
        },
        {
          "duration": 0.83720930232559,
          "durationTicks": 72,
          "midi": 79,
          "name": "G5",
          "ticks": 7419,
          "time": 86.26744186046511,
          "velocity": 0.4330708661417323
        },
        {
          "duration": 0.03488372093023884,
          "durationTicks": 3,
          "midi": 44,
          "name": "G#2",
          "ticks": 7420,
          "time": 86.27906976744185,
          "velocity": 0.1889763779527559
        },
        {
          "duration": 0.27906976744186807,
          "durationTicks": 24,
          "midi": 83,
          "name": "B5",
          "ticks": 7420,
          "time": 86.27906976744185,
          "velocity": 0.16535433070866143
        },
        {
          "duration": 0.06976744186047767,
          "durationTicks": 6,
          "midi": 93,
          "name": "A6",
          "ticks": 7420,
          "time": 86.27906976744185,
          "velocity": 0.10236220472440945
        },
        {
          "duration": 0.5465116279069662,
          "durationTicks": 47,
          "midi": 67,
          "name": "G4",
          "ticks": 7421,
          "time": 86.29069767441861,
          "velocity": 0.4015748031496063
        },
        {
          "duration": 0.05813953488372192,
          "durationTicks": 5,
          "midi": 94,
          "name": "A#6",
          "ticks": 7421,
          "time": 86.29069767441861,
          "velocity": 0.07874015748031496
        },
        {
          "duration": 0.03488372093023884,
          "durationTicks": 3,
          "midi": 85,
          "name": "C#6",
          "ticks": 7423,
          "time": 86.31395348837209,
          "velocity": 0.07086614173228346
        },
        {
          "duration": 0.16279069767442422,
          "durationTicks": 14,
          "midi": 43,
          "name": "G2",
          "ticks": 7425,
          "time": 86.33720930232558,
          "velocity": 0.2047244094488189
        },
        {
          "duration": 0.24418604651162923,
          "durationTicks": 21,
          "midi": 60,
          "name": "C4",
          "ticks": 7439,
          "time": 86.5,
          "velocity": 0.3700787401574803
        },
        {
          "duration": 0.19767441860464885,
          "durationTicks": 17,
          "midi": 43,
          "name": "G2",
          "ticks": 7442,
          "time": 86.53488372093024,
          "velocity": 0.2047244094488189
        },
        {
          "duration": 0.034883720930224626,
          "durationTicks": 3,
          "midi": 65,
          "name": "F4",
          "ticks": 7442,
          "time": 86.53488372093024,
          "velocity": 0.11811023622047244
        },
        {
          "duration": 0.034883720930224626,
          "durationTicks": 3,
          "midi": 50,
          "name": "D3",
          "ticks": 7443,
          "time": 86.54651162790698,
          "velocity": 0.12598425196850394
        },
        {
          "duration": 0.04651162790698038,
          "durationTicks": 4,
          "midi": 83,
          "name": "B5",
          "ticks": 7446,
          "time": 86.5813953488372,
          "velocity": 0.12598425196850394
        },
        {
          "duration": 0.16279069767442422,
          "durationTicks": 14,
          "midi": 85,
          "name": "C#6",
          "ticks": 7446,
          "time": 86.5813953488372,
          "velocity": 0.09448818897637795
        },
        {
          "duration": 0.11627906976744384,
          "durationTicks": 10,
          "midi": 50,
          "name": "D3",
          "ticks": 7448,
          "time": 86.6046511627907,
          "velocity": 0.11023622047244094
        },
        {
          "duration": 0.04651162790698038,
          "durationTicks": 4,
          "midi": 83,
          "name": "B5",
          "ticks": 7452,
          "time": 86.65116279069767,
          "velocity": 0.10236220472440945
        },
        {
          "duration": 0.9883720930232442,
          "durationTicks": 85,
          "midi": 77,
          "name": "F5",
          "ticks": 7458,
          "time": 86.72093023255815,
          "velocity": 0.4251968503937008
        },
        {
          "duration": 0.023255813953483084,
          "durationTicks": 2,
          "midi": 62,
          "name": "D4",
          "ticks": 7460,
          "time": 86.74418604651163,
          "velocity": 0.29133858267716534
        },
        {
          "duration": 0.3139534883720927,
          "durationTicks": 27,
          "midi": 70,
          "name": "A#4",
          "ticks": 7460,
          "time": 86.74418604651163,
          "velocity": 0.4015748031496063
        },
        {
          "duration": 0.4418604651162781,
          "durationTicks": 38,
          "midi": 74,
          "name": "D5",
          "ticks": 7460,
          "time": 86.74418604651163,
          "velocity": 0.4015748031496063
        },
        {
          "duration": 0.06976744186046346,
          "durationTicks": 6,
          "midi": 81,
          "name": "A5",
          "ticks": 7460,
          "time": 86.74418604651163,
          "velocity": 0.07874015748031496
        },
        {
          "duration": 0.081395348837205,
          "durationTicks": 7,
          "midi": 93,
          "name": "A6",
          "ticks": 7460,
          "time": 86.74418604651163,
          "velocity": 0.10236220472440945
        },
        {
          "duration": 0.03488372093023884,
          "durationTicks": 3,
          "midi": 94,
          "name": "A#6",
          "ticks": 7461,
          "time": 86.75581395348837,
          "velocity": 0.07874015748031496
        },
        {
          "duration": 0.1860465116279073,
          "durationTicks": 16,
          "midi": 62,
          "name": "D4",
          "ticks": 7463,
          "time": 86.77906976744185,
          "velocity": 0.29133858267716534
        },
        {
          "duration": 0.5232558139534831,
          "durationTicks": 45,
          "midi": 65,
          "name": "F4",
          "ticks": 7465,
          "time": 86.80232558139535,
          "velocity": 0.3228346456692913
        },
        {
          "duration": 0.06976744186046346,
          "durationTicks": 6,
          "midi": 38,
          "name": "D2",
          "ticks": 7466,
          "time": 86.81395348837209,
          "velocity": 0.1732283464566929
        },
        {
          "duration": 0.13953488372092693,
          "durationTicks": 12,
          "midi": 84,
          "name": "C6",
          "ticks": 7466,
          "time": 86.81395348837209,
          "velocity": 0.14960629921259844
        },
        {
          "duration": 0.05813953488372192,
          "durationTicks": 5,
          "midi": 38,
          "name": "D2",
          "ticks": 7473,
          "time": 86.8953488372093,
          "velocity": 0.15748031496062992
        },
        {
          "duration": 0.1860465116279073,
          "durationTicks": 16,
          "midi": 72,
          "name": "C5",
          "ticks": 7478,
          "time": 86.95348837209302,
          "velocity": 0.1968503937007874
        },
        {
          "duration": 0.17441860465116577,
          "durationTicks": 15,
          "midi": 83,
          "name": "B5",
          "ticks": 7479,
          "time": 86.96511627906976,
          "velocity": 0.11811023622047244
        },
        {
          "duration": 0.034883720930224626,
          "durationTicks": 3,
          "midi": 88,
          "name": "E6",
          "ticks": 7480,
          "time": 86.97674418604652,
          "velocity": 0.10236220472440945
        },
        {
          "duration": 0.05813953488372192,
          "durationTicks": 5,
          "midi": 48,
          "name": "C3",
          "ticks": 7481,
          "time": 86.98837209302326,
          "velocity": 0.2047244094488189
        },
        {
          "duration": 0.04651162790698038,
          "durationTicks": 4,
          "midi": 62,
          "name": "D4",
          "ticks": 7481,
          "time": 86.98837209302326,
          "velocity": 0.13385826771653545
        },
        {
          "duration": 0.13953488372092693,
          "durationTicks": 12,
          "midi": 62,
          "name": "D4",
          "ticks": 7486,
          "time": 87.04651162790698,
          "velocity": 0.16535433070866143
        },
        {
          "duration": 0.034883720930224626,
          "durationTicks": 3,
          "midi": 88,
          "name": "E6",
          "ticks": 7486,
          "time": 87.04651162790698,
          "velocity": 0.07874015748031496
        },
        {
          "duration": 0.13953488372092693,
          "durationTicks": 12,
          "midi": 48,
          "name": "C3",
          "ticks": 7487,
          "time": 87.05813953488372,
          "velocity": 0.2047244094488189
        },
        {
          "duration": 0.4767441860465169,
          "durationTicks": 41,
          "midi": 79,
          "name": "G5",
          "ticks": 7498,
          "time": 87.18604651162791,
          "velocity": 0.4330708661417323
        },
        {
          "duration": 0.2325581395348877,
          "durationTicks": 20,
          "midi": 81,
          "name": "A5",
          "ticks": 7498,
          "time": 87.18604651162791,
          "velocity": 0.1889763779527559
        },
        {
          "duration": 0.30232558139535115,
          "durationTicks": 26,
          "midi": 93,
          "name": "A6",
          "ticks": 7498,
          "time": 87.18604651162791,
          "velocity": 0.1889763779527559
        },
        {
          "duration": 0.2325581395348877,
          "durationTicks": 20,
          "midi": 60,
          "name": "C4",
          "ticks": 7499,
          "time": 87.19767441860465,
          "velocity": 0.36220472440944884
        },
        {
          "duration": 0.12790697674418539,
          "durationTicks": 11,
          "midi": 70,
          "name": "A#4",
          "ticks": 7499,
          "time": 87.19767441860465,
          "velocity": 0.4645669291338583
        },
        {
          "duration": 1.1279069767441854,
          "durationTicks": 97,
          "midi": 74,
          "name": "D5",
          "ticks": 7499,
          "time": 87.19767441860465,
          "velocity": 0.49606299212598426
        },
        {
          "duration": 0.13953488372092693,
          "durationTicks": 12,
          "midi": 84,
          "name": "C6",
          "ticks": 7499,
          "time": 87.19767441860465,
          "velocity": 0.11023622047244094
        },
        {
          "duration": 0.24418604651161502,
          "durationTicks": 21,
          "midi": 88,
          "name": "E6",
          "ticks": 7501,
          "time": 87.22093023255815,
          "velocity": 0.14960629921259844
        },
        {
          "duration": 0.081395348837205,
          "durationTicks": 7,
          "midi": 43,
          "name": "G2",
          "ticks": 7503,
          "time": 87.24418604651163,
          "velocity": 0.1889763779527559
        },
        {
          "duration": 0.16279069767442422,
          "durationTicks": 14,
          "midi": 50,
          "name": "D3",
          "ticks": 7503,
          "time": 87.24418604651163,
          "velocity": 0.2047244094488189
        },
        {
          "duration": 0.023255813953497295,
          "durationTicks": 2,
          "midi": 69,
          "name": "A4",
          "ticks": 7510,
          "time": 87.32558139534883,
          "velocity": 0.41732283464566927
        },
        {
          "duration": 0.04651162790698038,
          "durationTicks": 4,
          "midi": 69,
          "name": "A4",
          "ticks": 7513,
          "time": 87.36046511627907,
          "velocity": 0.41732283464566927
        },
        {
          "duration": 0.32558139534883423,
          "durationTicks": 28,
          "midi": 70,
          "name": "A#4",
          "ticks": 7517,
          "time": 87.40697674418605,
          "velocity": 0.4881889763779528
        },
        {
          "duration": 0.22093023255813193,
          "durationTicks": 19,
          "midi": 65,
          "name": "F4",
          "ticks": 7519,
          "time": 87.43023255813954,
          "velocity": 0.2992125984251969
        },
        {
          "duration": 0.2093023255813904,
          "durationTicks": 18,
          "midi": 87,
          "name": "D#6",
          "ticks": 7520,
          "time": 87.44186046511628,
          "velocity": 0.08661417322834646
        },
        {
          "duration": 0.1860465116279073,
          "durationTicks": 16,
          "midi": 62,
          "name": "D4",
          "ticks": 7521,
          "time": 87.45348837209302,
          "velocity": 0.28346456692913385
        },
        {
          "duration": 0.16279069767442422,
          "durationTicks": 14,
          "midi": 58,
          "name": "A#3",
          "ticks": 7522,
          "time": 87.46511627906976,
          "velocity": 0.2204724409448819
        },
        {
          "duration": 0.09302325581394655,
          "durationTicks": 8,
          "midi": 53,
          "name": "F3",
          "ticks": 7523,
          "time": 87.47674418604652,
          "velocity": 0.2204724409448819
        },
        {
          "duration": 0.081395348837205,
          "durationTicks": 7,
          "midi": 81,
          "name": "A5",
          "ticks": 7523,
          "time": 87.47674418604652,
          "velocity": 0.09448818897637795
        },
        {
          "duration": 0.034883720930224626,
          "durationTicks": 3,
          "midi": 84,
          "name": "C6",
          "ticks": 7524,
          "time": 87.48837209302326,
          "velocity": 0.07874015748031496
        },
        {
          "duration": 0.15116279069768268,
          "durationTicks": 13,
          "midi": 72,
          "name": "C5",
          "ticks": 7537,
          "time": 87.63953488372093,
          "velocity": 0.28346456692913385
        },
        {
          "duration": 0.17441860465116577,
          "durationTicks": 15,
          "midi": 60,
          "name": "C4",
          "ticks": 7538,
          "time": 87.65116279069767,
          "velocity": 0.3543307086614173
        },
        {
          "duration": 0.22093023255813193,
          "durationTicks": 19,
          "midi": 67,
          "name": "G4",
          "ticks": 7539,
          "time": 87.66279069767442,
          "velocity": 0.3779527559055118
        },
        {
          "duration": 0.4767441860465169,
          "durationTicks": 41,
          "midi": 79,
          "name": "G5",
          "ticks": 7542,
          "time": 87.69767441860465,
          "velocity": 0.3937007874015748
        },
        {
          "duration": 0.034883720930224626,
          "durationTicks": 3,
          "midi": 85,
          "name": "C#6",
          "ticks": 7550,
          "time": 87.79069767441861,
          "velocity": 0.07086614173228346
        },
        {
          "duration": 0.2093023255814046,
          "durationTicks": 18,
          "midi": 81,
          "name": "A5",
          "ticks": 7553,
          "time": 87.82558139534883,
          "velocity": 0.09448818897637795
        },
        {
          "duration": 0.3488372093023173,
          "durationTicks": 30,
          "midi": 77,
          "name": "F5",
          "ticks": 7556,
          "time": 87.86046511627907,
          "velocity": 0.23622047244094488
        },
        {
          "duration": 0.25581395348837077,
          "durationTicks": 22,
          "midi": 70,
          "name": "A#4",
          "ticks": 7557,
          "time": 87.87209302325581,
          "velocity": 0.4094488188976378
        },
        {
          "duration": 0.06976744186046346,
          "durationTicks": 6,
          "midi": 84,
          "name": "C6",
          "ticks": 7557,
          "time": 87.87209302325581,
          "velocity": 0.14173228346456693
        },
        {
          "duration": 0.03488372093023884,
          "durationTicks": 3,
          "midi": 45,
          "name": "A2",
          "ticks": 7558,
          "time": 87.88372093023256,
          "velocity": 0.3700787401574803
        },
        {
          "duration": 0.06976744186046346,
          "durationTicks": 6,
          "midi": 58,
          "name": "A#3",
          "ticks": 7558,
          "time": 87.88372093023256,
          "velocity": 0.2125984251968504
        },
        {
          "duration": 0.03488372093023884,
          "durationTicks": 3,
          "midi": 83,
          "name": "B5",
          "ticks": 7558,
          "time": 87.88372093023256,
          "velocity": 0.08661417322834646
        },
        {
          "duration": 0.04651162790698038,
          "durationTicks": 4,
          "midi": 93,
          "name": "A6",
          "ticks": 7558,
          "time": 87.88372093023256,
          "velocity": 0.11811023622047244
        },
        {
          "duration": 0.04651162790698038,
          "durationTicks": 4,
          "midi": 62,
          "name": "D4",
          "ticks": 7559,
          "time": 87.8953488372093,
          "velocity": 0.1732283464566929
        },
        {
          "duration": 0.05813953488372192,
          "durationTicks": 5,
          "midi": 65,
          "name": "F4",
          "ticks": 7559,
          "time": 87.8953488372093,
          "velocity": 0.2204724409448819
        },
        {
          "duration": 0.03488372093023884,
          "durationTicks": 3,
          "midi": 94,
          "name": "A#6",
          "ticks": 7559,
          "time": 87.8953488372093,
          "velocity": 0.07086614173228346
        },
        {
          "duration": 0.04651162790696617,
          "durationTicks": 4,
          "midi": 46,
          "name": "A#2",
          "ticks": 7561,
          "time": 87.9186046511628,
          "velocity": 0.3228346456692913
        },
        {
          "duration": 0.22093023255813193,
          "durationTicks": 19,
          "midi": 88,
          "name": "E6",
          "ticks": 7561,
          "time": 87.9186046511628,
          "velocity": 0.11023622047244094
        },
        {
          "duration": 0.1860465116279073,
          "durationTicks": 16,
          "midi": 83,
          "name": "B5",
          "ticks": 7562,
          "time": 87.93023255813954,
          "velocity": 0.10236220472440945
        },
        {
          "duration": 0.06976744186047767,
          "durationTicks": 6,
          "midi": 58,
          "name": "A#3",
          "ticks": 7565,
          "time": 87.96511627906976,
          "velocity": 0.16535433070866143
        },
        {
          "duration": 0.3139534883720927,
          "durationTicks": 27,
          "midi": 65,
          "name": "F4",
          "ticks": 7565,
          "time": 87.96511627906976,
          "velocity": 0.3464566929133858
        },
        {
          "duration": 0.03488372093023884,
          "durationTicks": 3,
          "midi": 84,
          "name": "C6",
          "ticks": 7565,
          "time": 87.96511627906976,
          "velocity": 0.12598425196850394
        },
        {
          "duration": 0.023255813953483084,
          "durationTicks": 2,
          "midi": 50,
          "name": "D3",
          "ticks": 7566,
          "time": 87.97674418604652,
          "velocity": 0.2283464566929134
        },
        {
          "duration": 0.09302325581394655,
          "durationTicks": 8,
          "midi": 67,
          "name": "G4",
          "ticks": 7567,
          "time": 87.98837209302326,
          "velocity": 0.2047244094488189
        },
        {
          "duration": 0.03488372093023884,
          "durationTicks": 3,
          "midi": 84,
          "name": "C6",
          "ticks": 7570,
          "time": 88.02325581395348,
          "velocity": 0.11023622047244094
        },
        {
          "duration": 0.023255813953483084,
          "durationTicks": 2,
          "midi": 46,
          "name": "A#2",
          "ticks": 7572,
          "time": 88.04651162790698,
          "velocity": 0.23622047244094488
        },
        {
          "duration": 0.09302325581396076,
          "durationTicks": 8,
          "midi": 84,
          "name": "C6",
          "ticks": 7576,
          "time": 88.09302325581395,
          "velocity": 0.11023622047244094
        },
        {
          "duration": 0.5116279069767415,
          "durationTicks": 44,
          "midi": 81,
          "name": "A5",
          "ticks": 7577,
          "time": 88.1046511627907,
          "velocity": 0.28346456692913385
        },
        {
          "duration": 0.023255813953483084,
          "durationTicks": 2,
          "midi": 54,
          "name": "F#3",
          "ticks": 7578,
          "time": 88.11627906976744,
          "velocity": 0.2283464566929134
        },
        {
          "duration": 0.6162790697674438,
          "durationTicks": 53,
          "midi": 69,
          "name": "A4",
          "ticks": 7578,
          "time": 88.11627906976744,
          "velocity": 0.3779527559055118
        },
        {
          "duration": 0.1046511627907023,
          "durationTicks": 9,
          "midi": 87,
          "name": "D#6",
          "ticks": 7578,
          "time": 88.11627906976744,
          "velocity": 0.09448818897637795
        },
        {
          "duration": 0.06976744186047767,
          "durationTicks": 6,
          "midi": 53,
          "name": "F3",
          "ticks": 7581,
          "time": 88.15116279069767,
          "velocity": 0.25984251968503935
        },
        {
          "duration": 0.06976744186046346,
          "durationTicks": 6,
          "midi": 67,
          "name": "G4",
          "ticks": 7589,
          "time": 88.24418604651163,
          "velocity": 0.2440944881889764
        },
        {
          "duration": 0.04651162790698038,
          "durationTicks": 4,
          "midi": 83,
          "name": "B5",
          "ticks": 7592,
          "time": 88.27906976744185,
          "velocity": 0.07874015748031496
        },
        {
          "duration": 0.3720930232558146,
          "durationTicks": 32,
          "midi": 73,
          "name": "C#5",
          "ticks": 7596,
          "time": 88.32558139534883,
          "velocity": 0.4566929133858268
        },
        {
          "duration": 0.3604651162790731,
          "durationTicks": 31,
          "midi": 76,
          "name": "E5",
          "ticks": 7596,
          "time": 88.32558139534883,
          "velocity": 0.3700787401574803
        },
        {
          "duration": 0.22093023255814614,
          "durationTicks": 19,
          "midi": 45,
          "name": "A2",
          "ticks": 7597,
          "time": 88.33720930232558,
          "velocity": 0.41732283464566927
        },
        {
          "duration": 0.34883720930233153,
          "durationTicks": 30,
          "midi": 64,
          "name": "E4",
          "ticks": 7597,
          "time": 88.33720930232558,
          "velocity": 0.33070866141732286
        },
        {
          "duration": 0.03488372093023884,
          "durationTicks": 3,
          "midi": 86,
          "name": "D6",
          "ticks": 7597,
          "time": 88.33720930232558,
          "velocity": 0.07874015748031496
        },
        {
          "duration": 0.10465116279068809,
          "durationTicks": 9,
          "midi": 52,
          "name": "E3",
          "ticks": 7598,
          "time": 88.34883720930233,
          "velocity": 0.2755905511811024
        },
        {
          "duration": 0.081395348837205,
          "durationTicks": 7,
          "midi": 83,
          "name": "B5",
          "ticks": 7598,
          "time": 88.34883720930233,
          "velocity": 0.14960629921259844
        },
        {
          "duration": 0.04651162790698038,
          "durationTicks": 4,
          "midi": 92,
          "name": "G#6",
          "ticks": 7600,
          "time": 88.37209302325581,
          "velocity": 0.07874015748031496
        },
        {
          "duration": 0.06976744186046346,
          "durationTicks": 6,
          "midi": 86,
          "name": "D6",
          "ticks": 7603,
          "time": 88.40697674418605,
          "velocity": 0.10236220472440945
        },
        {
          "duration": 0.05813953488372192,
          "durationTicks": 5,
          "midi": 52,
          "name": "E3",
          "ticks": 7611,
          "time": 88.5,
          "velocity": 0.13385826771653545
        },
        {
          "duration": 0.12790697674418539,
          "durationTicks": 11,
          "midi": 45,
          "name": "A2",
          "ticks": 7617,
          "time": 88.56976744186046,
          "velocity": 0.28346456692913385
        },
        {
          "duration": 0.04651162790698038,
          "durationTicks": 4,
          "midi": 52,
          "name": "E3",
          "ticks": 7617,
          "time": 88.56976744186046,
          "velocity": 0.07086614173228346
        },
        {
          "duration": 0.2325581395348877,
          "durationTicks": 20,
          "midi": 73,
          "name": "C#5",
          "ticks": 7634,
          "time": 88.76744186046511,
          "velocity": 0.44881889763779526
        },
        {
          "duration": 0.2093023255814046,
          "durationTicks": 18,
          "midi": 64,
          "name": "E4",
          "ticks": 7635,
          "time": 88.77906976744185,
          "velocity": 0.29133858267716534
        },
        {
          "duration": 0.22093023255814614,
          "durationTicks": 19,
          "midi": 76,
          "name": "E5",
          "ticks": 7635,
          "time": 88.77906976744185,
          "velocity": 0.3858267716535433
        },
        {
          "duration": 0.11627906976744384,
          "durationTicks": 10,
          "midi": 93,
          "name": "A6",
          "ticks": 7635,
          "time": 88.77906976744185,
          "velocity": 0.13385826771653545
        },
        {
          "duration": 0.22093023255813193,
          "durationTicks": 19,
          "midi": 45,
          "name": "A2",
          "ticks": 7636,
          "time": 88.79069767441861,
          "velocity": 0.41732283464566927
        },
        {
          "duration": 0.081395348837205,
          "durationTicks": 7,
          "midi": 52,
          "name": "E3",
          "ticks": 7636,
          "time": 88.79069767441861,
          "velocity": 0.2440944881889764
        },
        {
          "duration": 0.1860465116279073,
          "durationTicks": 16,
          "midi": 71,
          "name": "B4",
          "ticks": 7636,
          "time": 88.79069767441861,
          "velocity": 0.23622047244094488
        },
        {
          "duration": 0.05813953488372192,
          "durationTicks": 5,
          "midi": 86,
          "name": "D6",
          "ticks": 7636,
          "time": 88.79069767441861,
          "velocity": 0.12598425196850394
        },
        {
          "duration": 0.034883720930224626,
          "durationTicks": 3,
          "midi": 91,
          "name": "G6",
          "ticks": 7636,
          "time": 88.79069767441861,
          "velocity": 0.07086614173228346
        },
        {
          "duration": 0.034883720930224626,
          "durationTicks": 3,
          "midi": 92,
          "name": "G#6",
          "ticks": 7636,
          "time": 88.79069767441861,
          "velocity": 0.09448818897637795
        },
        {
          "duration": 0.12790697674418539,
          "durationTicks": 11,
          "midi": 81,
          "name": "A5",
          "ticks": 7637,
          "time": 88.80232558139535,
          "velocity": 0.2440944881889764
        },
        {
          "duration": 0.05813953488372192,
          "durationTicks": 5,
          "midi": 52,
          "name": "E3",
          "ticks": 7644,
          "time": 88.88372093023256,
          "velocity": 0.2283464566929134
        },
        {
          "duration": 0.06976744186046346,
          "durationTicks": 6,
          "midi": 61,
          "name": "C#4",
          "ticks": 7644,
          "time": 88.88372093023256,
          "velocity": 0.07086614173228346
        },
        {
          "duration": 0.8953488372092977,
          "durationTicks": 77,
          "midi": 74,
          "name": "D5",
          "ticks": 7654,
          "time": 89,
          "velocity": 0.48031496062992124
        },
        {
          "duration": 0.27906976744185386,
          "durationTicks": 24,
          "midi": 77,
          "name": "F5",
          "ticks": 7654,
          "time": 89,
          "velocity": 0.4015748031496063
        },
        {
          "duration": 0.19767441860464885,
          "durationTicks": 17,
          "midi": 81,
          "name": "A5",
          "ticks": 7654,
          "time": 89,
          "velocity": 0.2677165354330709
        },
        {
          "duration": 0.03488372093023884,
          "durationTicks": 3,
          "midi": 58,
          "name": "A#3",
          "ticks": 7655,
          "time": 89.01162790697674,
          "velocity": 0.15748031496062992
        },
        {
          "duration": 0.03488372093023884,
          "durationTicks": 3,
          "midi": 62,
          "name": "D4",
          "ticks": 7655,
          "time": 89.01162790697674,
          "velocity": 0.25984251968503935
        },
        {
          "duration": 0.38372093023255616,
          "durationTicks": 33,
          "midi": 65,
          "name": "F4",
          "ticks": 7655,
          "time": 89.01162790697674,
          "velocity": 0.33070866141732286
        },
        {
          "duration": 0.04651162790698038,
          "durationTicks": 4,
          "midi": 80,
          "name": "G#5",
          "ticks": 7655,
          "time": 89.01162790697674,
          "velocity": 0.11811023622047244
        },
        {
          "duration": 0.05813953488372192,
          "durationTicks": 5,
          "midi": 85,
          "name": "C#6",
          "ticks": 7655,
          "time": 89.01162790697674,
          "velocity": 0.14960629921259844
        },
        {
          "duration": 0.6976744186046631,
          "durationTicks": 60,
          "midi": 69,
          "name": "A4",
          "ticks": 7656,
          "time": 89.02325581395348,
          "velocity": 0.2283464566929134
        },
        {
          "duration": 0.023255813953483084,
          "durationTicks": 2,
          "midi": 53,
          "name": "F3",
          "ticks": 7657,
          "time": 89.03488372093024,
          "velocity": 0.25984251968503935
        },
        {
          "duration": 0.034883720930224626,
          "durationTicks": 3,
          "midi": 84,
          "name": "C6",
          "ticks": 7658,
          "time": 89.04651162790698,
          "velocity": 0.14173228346456693
        },
        {
          "duration": 0.1860465116279073,
          "durationTicks": 16,
          "midi": 45,
          "name": "A2",
          "ticks": 7659,
          "time": 89.05813953488372,
          "velocity": 0.3464566929133858
        },
        {
          "duration": 0.081395348837205,
          "durationTicks": 7,
          "midi": 62,
          "name": "D4",
          "ticks": 7659,
          "time": 89.05813953488372,
          "velocity": 0.2755905511811024
        },
        {
          "duration": 0.081395348837205,
          "durationTicks": 7,
          "midi": 72,
          "name": "C5",
          "ticks": 7659,
          "time": 89.05813953488372,
          "velocity": 0.18110236220472442
        },
        {
          "duration": 0.05813953488372192,
          "durationTicks": 5,
          "midi": 87,
          "name": "D#6",
          "ticks": 7659,
          "time": 89.05813953488372,
          "velocity": 0.11811023622047244
        },
        {
          "duration": 0.023255813953483084,
          "durationTicks": 2,
          "midi": 53,
          "name": "F3",
          "ticks": 7660,
          "time": 89.06976744186046,
          "velocity": 0.25196850393700787
        },
        {
          "duration": 0.04651162790696617,
          "durationTicks": 4,
          "midi": 53,
          "name": "F3",
          "ticks": 7663,
          "time": 89.1046511627907,
          "velocity": 0.28346456692913385
        },
        {
          "duration": 0.034883720930224626,
          "durationTicks": 3,
          "midi": 85,
          "name": "C#6",
          "ticks": 7664,
          "time": 89.11627906976744,
          "velocity": 0.08661417322834646
        },
        {
          "duration": 0.06976744186047767,
          "durationTicks": 6,
          "midi": 87,
          "name": "D#6",
          "ticks": 7667,
          "time": 89.15116279069767,
          "velocity": 0.08661417322834646
        },
        {
          "duration": 0.05813953488372192,
          "durationTicks": 5,
          "midi": 72,
          "name": "C5",
          "ticks": 7669,
          "time": 89.17441860465117,
          "velocity": 0.11023622047244094
        },
        {
          "duration": 0.04651162790698038,
          "durationTicks": 4,
          "midi": 62,
          "name": "D4",
          "ticks": 7670,
          "time": 89.18604651162791,
          "velocity": 0.1968503937007874
        },
        {
          "duration": 0.023255813953483084,
          "durationTicks": 2,
          "midi": 50,
          "name": "D3",
          "ticks": 7676,
          "time": 89.25581395348837,
          "velocity": 0.25984251968503935
        },
        {
          "duration": 0.03488372093023884,
          "durationTicks": 3,
          "midi": 44,
          "name": "G#2",
          "ticks": 7677,
          "time": 89.26744186046511,
          "velocity": 0.2283464566929134
        },
        {
          "duration": 0.3720930232558146,
          "durationTicks": 32,
          "midi": 88,
          "name": "E6",
          "ticks": 7679,
          "time": 89.29069767441861,
          "velocity": 0.14960629921259844
        },
        {
          "duration": 0.034883720930224626,
          "durationTicks": 3,
          "midi": 57,
          "name": "A3",
          "ticks": 7680,
          "time": 89.30232558139535,
          "velocity": 0.09448818897637795
        },
        {
          "duration": 0.03488372093023884,
          "durationTicks": 3,
          "midi": 45,
          "name": "A2",
          "ticks": 7681,
          "time": 89.31395348837209,
          "velocity": 0.2283464566929134
        },
        {
          "duration": 0.12790697674418539,
          "durationTicks": 11,
          "midi": 72,
          "name": "C5",
          "ticks": 7681,
          "time": 89.31395348837209,
          "velocity": 0.15748031496062992
        },
        {
          "duration": 0.06976744186046346,
          "durationTicks": 6,
          "midi": 50,
          "name": "D3",
          "ticks": 7686,
          "time": 89.37209302325581,
          "velocity": 0.2440944881889764
        },
        {
          "duration": 0.2325581395348877,
          "durationTicks": 20,
          "midi": 57,
          "name": "A3",
          "ticks": 7693,
          "time": 89.45348837209302,
          "velocity": 0.11811023622047244
        },
        {
          "duration": 0.30232558139535115,
          "durationTicks": 26,
          "midi": 65,
          "name": "F4",
          "ticks": 7693,
          "time": 89.45348837209302,
          "velocity": 0.33070866141732286
        },
        {
          "duration": 0.2325581395348877,
          "durationTicks": 20,
          "midi": 89,
          "name": "F6",
          "ticks": 7693,
          "time": 89.45348837209302,
          "velocity": 0.41732283464566927
        },
        {
          "duration": 0.03488372093023884,
          "durationTicks": 3,
          "midi": 84,
          "name": "C6",
          "ticks": 7694,
          "time": 89.46511627906976,
          "velocity": 0.11811023622047244
        },
        {
          "duration": 0.034883720930224626,
          "durationTicks": 3,
          "midi": 62,
          "name": "D4",
          "ticks": 7695,
          "time": 89.47674418604652,
          "velocity": 0.1732283464566929
        },
        {
          "duration": 0.32558139534883423,
          "durationTicks": 28,
          "midi": 81,
          "name": "A5",
          "ticks": 7695,
          "time": 89.47674418604652,
          "velocity": 0.2992125984251969
        },
        {
          "duration": 0.15116279069766847,
          "durationTicks": 13,
          "midi": 72,
          "name": "C5",
          "ticks": 7697,
          "time": 89.5,
          "velocity": 0.15748031496062992
        },
        {
          "duration": 0.12790697674418539,
          "durationTicks": 11,
          "midi": 84,
          "name": "C6",
          "ticks": 7698,
          "time": 89.51162790697674,
          "velocity": 0.2125984251968504
        },
        {
          "duration": 0.09302325581394655,
          "durationTicks": 8,
          "midi": 62,
          "name": "D4",
          "ticks": 7701,
          "time": 89.54651162790698,
          "velocity": 0.1732283464566929
        },
        {
          "duration": 0.03488372093023884,
          "durationTicks": 3,
          "midi": 83,
          "name": "B5",
          "ticks": 7703,
          "time": 89.56976744186046,
          "velocity": 0.08661417322834646
        },
        {
          "duration": 0.1046511627907023,
          "durationTicks": 9,
          "midi": 50,
          "name": "D3",
          "ticks": 7705,
          "time": 89.59302325581395,
          "velocity": 0.14960629921259844
        },
        {
          "duration": 0.03488372093023884,
          "durationTicks": 3,
          "midi": 82,
          "name": "A#5",
          "ticks": 7710,
          "time": 89.65116279069767,
          "velocity": 0.09448818897637795
        },
        {
          "duration": 0.034883720930224626,
          "durationTicks": 3,
          "midi": 84,
          "name": "C6",
          "ticks": 7712,
          "time": 89.67441860465117,
          "velocity": 0.11023622047244094
        },
        {
          "duration": 0.19767441860466306,
          "durationTicks": 17,
          "midi": 67,
          "name": "G4",
          "ticks": 7715,
          "time": 89.70930232558139,
          "velocity": 0.2047244094488189
        },
        {
          "duration": 0.034883720930224626,
          "durationTicks": 3,
          "midi": 50,
          "name": "D3",
          "ticks": 7716,
          "time": 89.72093023255815,
          "velocity": 0.16535433070866143
        },
        {
          "duration": 0.19767441860464885,
          "durationTicks": 17,
          "midi": 60,
          "name": "C4",
          "ticks": 7716,
          "time": 89.72093023255815,
          "velocity": 0.14173228346456693
        },
        {
          "duration": 0.034883720930224626,
          "durationTicks": 3,
          "midi": 69,
          "name": "A4",
          "ticks": 7717,
          "time": 89.73255813953489,
          "velocity": 0.14173228346456693
        },
        {
          "duration": 0.13953488372094114,
          "durationTicks": 12,
          "midi": 48,
          "name": "C3",
          "ticks": 7721,
          "time": 89.77906976744185,
          "velocity": 0.2204724409448819
        },
        {
          "duration": 0.04651162790698038,
          "durationTicks": 4,
          "midi": 69,
          "name": "A4",
          "ticks": 7721,
          "time": 89.77906976744185,
          "velocity": 0.10236220472440945
        },
        {
          "duration": 0.40697674418603924,
          "durationTicks": 35,
          "midi": 69,
          "name": "A4",
          "ticks": 7732,
          "time": 89.90697674418605,
          "velocity": 0.3543307086614173
        },
        {
          "duration": 0.46511627906976116,
          "durationTicks": 40,
          "midi": 74,
          "name": "D5",
          "ticks": 7732,
          "time": 89.90697674418605,
          "velocity": 0.4409448818897638
        },
        {
          "duration": 0.19767441860464885,
          "durationTicks": 17,
          "midi": 84,
          "name": "C6",
          "ticks": 7732,
          "time": 89.90697674418605,
          "velocity": 0.33070866141732286
        },
        {
          "duration": 0.36046511627905886,
          "durationTicks": 31,
          "midi": 65,
          "name": "F4",
          "ticks": 7733,
          "time": 89.9186046511628,
          "velocity": 0.33070866141732286
        },
        {
          "duration": 0.4418604651162781,
          "durationTicks": 38,
          "midi": 79,
          "name": "G5",
          "ticks": 7733,
          "time": 89.9186046511628,
          "velocity": 0.3937007874015748
        },
        {
          "duration": 0.17441860465115155,
          "durationTicks": 15,
          "midi": 88,
          "name": "E6",
          "ticks": 7733,
          "time": 89.9186046511628,
          "velocity": 0.36220472440944884
        },
        {
          "duration": 0.15116279069766847,
          "durationTicks": 13,
          "midi": 57,
          "name": "A3",
          "ticks": 7734,
          "time": 89.93023255813954,
          "velocity": 0.16535433070866143
        },
        {
          "duration": 0.09302325581396076,
          "durationTicks": 8,
          "midi": 72,
          "name": "C5",
          "ticks": 7736,
          "time": 89.95348837209302,
          "velocity": 0.11023622047244094
        },
        {
          "duration": 0.03488372093023884,
          "durationTicks": 3,
          "midi": 50,
          "name": "D3",
          "ticks": 7737,
          "time": 89.96511627906976,
          "velocity": 0.09448818897637795
        },
        {
          "duration": 0.16279069767441,
          "durationTicks": 14,
          "midi": 38,
          "name": "D2",
          "ticks": 7738,
          "time": 89.97674418604652,
          "velocity": 0.14960629921259844
        },
        {
          "duration": 0.03488372093023884,
          "durationTicks": 3,
          "midi": 82,
          "name": "A#5",
          "ticks": 7740,
          "time": 90,
          "velocity": 0.11811023622047244
        },
        {
          "duration": 0.19767441860464885,
          "durationTicks": 17,
          "midi": 50,
          "name": "D3",
          "ticks": 7741,
          "time": 90.01162790697674,
          "velocity": 0.1732283464566929
        },
        {
          "duration": 0.034883720930224626,
          "durationTicks": 3,
          "midi": 85,
          "name": "C#6",
          "ticks": 7745,
          "time": 90.05813953488372,
          "velocity": 0.07086614173228346
        },
        {
          "duration": 0.27906976744186807,
          "durationTicks": 24,
          "midi": 72,
          "name": "C5",
          "ticks": 7748,
          "time": 90.09302325581395,
          "velocity": 0.29133858267716534
        },
        {
          "duration": 0.034883720930224626,
          "durationTicks": 3,
          "midi": 82,
          "name": "A#5",
          "ticks": 7749,
          "time": 90.1046511627907,
          "velocity": 0.07874015748031496
        },
        {
          "duration": 0.2325581395348877,
          "durationTicks": 20,
          "midi": 60,
          "name": "C4",
          "ticks": 7752,
          "time": 90.13953488372093,
          "velocity": 0.3700787401574803
        },
        {
          "duration": 0.13953488372092693,
          "durationTicks": 12,
          "midi": 88,
          "name": "E6",
          "ticks": 7752,
          "time": 90.13953488372093,
          "velocity": 0.15748031496062992
        },
        {
          "duration": 0.04651162790698038,
          "durationTicks": 4,
          "midi": 50,
          "name": "D3",
          "ticks": 7761,
          "time": 90.24418604651163,
          "velocity": 0.13385826771653545
        },
        {
          "duration": 0.04651162790698038,
          "durationTicks": 4,
          "midi": 88,
          "name": "E6",
          "ticks": 7767,
          "time": 90.31395348837209,
          "velocity": 0.09448818897637795
        },
        {
          "duration": 0.034883720930224626,
          "durationTicks": 3,
          "midi": 66,
          "name": "F#4",
          "ticks": 7771,
          "time": 90.36046511627907,
          "velocity": 0.30708661417322836
        },
        {
          "duration": 0.2674418604651123,
          "durationTicks": 23,
          "midi": 69,
          "name": "A4",
          "ticks": 7771,
          "time": 90.36046511627907,
          "velocity": 0.33858267716535434
        },
        {
          "duration": 0.2674418604651123,
          "durationTicks": 23,
          "midi": 77,
          "name": "F5",
          "ticks": 7772,
          "time": 90.37209302325581,
          "velocity": 0.3700787401574803
        },
        {
          "duration": 0.25581395348837077,
          "durationTicks": 22,
          "midi": 84,
          "name": "C6",
          "ticks": 7772,
          "time": 90.37209302325581,
          "velocity": 0.16535433070866143
        },
        {
          "duration": 0.03488372093023884,
          "durationTicks": 3,
          "midi": 44,
          "name": "G#2",
          "ticks": 7773,
          "time": 90.38372093023256,
          "velocity": 0.31496062992125984
        },
        {
          "duration": 0.03488372093023884,
          "durationTicks": 3,
          "midi": 62,
          "name": "D4",
          "ticks": 7773,
          "time": 90.38372093023256,
          "velocity": 0.23622047244094488
        },
        {
          "duration": 2.720930232558146,
          "durationTicks": 234,
          "midi": 74,
          "name": "D5",
          "ticks": 7773,
          "time": 90.38372093023256,
          "velocity": 0.4645669291338583
        },
        {
          "duration": 0.05813953488372192,
          "durationTicks": 5,
          "midi": 80,
          "name": "G#5",
          "ticks": 7773,
          "time": 90.38372093023256,
          "velocity": 0.09448818897637795
        },
        {
          "duration": 0.03488372093023884,
          "durationTicks": 3,
          "midi": 83,
          "name": "B5",
          "ticks": 7773,
          "time": 90.38372093023256,
          "velocity": 0.09448818897637795
        },
        {
          "duration": 0.1860465116279073,
          "durationTicks": 16,
          "midi": 90,
          "name": "F#6",
          "ticks": 7773,
          "time": 90.38372093023256,
          "velocity": 0.13385826771653545
        },
        {
          "duration": 0.2325581395348877,
          "durationTicks": 20,
          "midi": 65,
          "name": "F4",
          "ticks": 7774,
          "time": 90.3953488372093,
          "velocity": 0.3464566929133858
        },
        {
          "duration": 0.15116279069768268,
          "durationTicks": 13,
          "midi": 72,
          "name": "C5",
          "ticks": 7774,
          "time": 90.3953488372093,
          "velocity": 0.15748031496062992
        },
        {
          "duration": 0.06976744186046346,
          "durationTicks": 6,
          "midi": 45,
          "name": "A2",
          "ticks": 7776,
          "time": 90.4186046511628,
          "velocity": 0.3228346456692913
        },
        {
          "duration": 0.17441860465116577,
          "durationTicks": 15,
          "midi": 62,
          "name": "D4",
          "ticks": 7777,
          "time": 90.43023255813954,
          "velocity": 0.25196850393700787
        },
        {
          "duration": 0.034883720930224626,
          "durationTicks": 3,
          "midi": 83,
          "name": "B5",
          "ticks": 7777,
          "time": 90.43023255813954,
          "velocity": 0.11811023622047244
        },
        {
          "duration": 0.09302325581394655,
          "durationTicks": 8,
          "midi": 45,
          "name": "A2",
          "ticks": 7783,
          "time": 90.5,
          "velocity": 0.2677165354330709
        },
        {
          "duration": 0.034883720930224626,
          "durationTicks": 3,
          "midi": 48,
          "name": "C3",
          "ticks": 7792,
          "time": 90.6046511627907,
          "velocity": 0.2992125984251969
        },
        {
          "duration": 0.22093023255813193,
          "durationTicks": 19,
          "midi": 72,
          "name": "C5",
          "ticks": 7792,
          "time": 90.6046511627907,
          "velocity": 0.44881889763779526
        },
        {
          "duration": 0.10465116279068809,
          "durationTicks": 9,
          "midi": 83,
          "name": "B5",
          "ticks": 7792,
          "time": 90.6046511627907,
          "velocity": 0.1732283464566929
        },
        {
          "duration": 0.2093023255813904,
          "durationTicks": 18,
          "midi": 79,
          "name": "G5",
          "ticks": 7793,
          "time": 90.61627906976744,
          "velocity": 0.1968503937007874
        },
        {
          "duration": 0.2093023255813904,
          "durationTicks": 18,
          "midi": 64,
          "name": "E4",
          "ticks": 7794,
          "time": 90.62790697674419,
          "velocity": 0.29133858267716534
        },
        {
          "duration": 0.19767441860464885,
          "durationTicks": 17,
          "midi": 67,
          "name": "G4",
          "ticks": 7794,
          "time": 90.62790697674419,
          "velocity": 0.33858267716535434
        },
        {
          "duration": 0.15116279069766847,
          "durationTicks": 13,
          "midi": 77,
          "name": "F5",
          "ticks": 7797,
          "time": 90.66279069767442,
          "velocity": 0.25196850393700787
        },
        {
          "duration": 0.04651162790698038,
          "durationTicks": 4,
          "midi": 88,
          "name": "E6",
          "ticks": 7799,
          "time": 90.68604651162791,
          "velocity": 0.10236220472440945
        },
        {
          "duration": 0.1046511627907023,
          "durationTicks": 9,
          "midi": 48,
          "name": "C3",
          "ticks": 7804,
          "time": 90.74418604651163,
          "velocity": 0.2440944881889764
        },
        {
          "duration": 0.3372093023255758,
          "durationTicks": 29,
          "midi": 81,
          "name": "A5",
          "ticks": 7810,
          "time": 90.81395348837209,
          "velocity": 0.2755905511811024
        },
        {
          "duration": 1.33720930232559,
          "durationTicks": 115,
          "midi": 69,
          "name": "A4",
          "ticks": 7811,
          "time": 90.82558139534883,
          "velocity": 0.3700787401574803
        },
        {
          "duration": 0.09302325581396076,
          "durationTicks": 8,
          "midi": 89,
          "name": "F6",
          "ticks": 7811,
          "time": 90.82558139534883,
          "velocity": 0.1968503937007874
        },
        {
          "duration": 0.2325581395348877,
          "durationTicks": 20,
          "midi": 65,
          "name": "F4",
          "ticks": 7812,
          "time": 90.83720930232558,
          "velocity": 0.3464566929133858
        },
        {
          "duration": 0.38372093023257037,
          "durationTicks": 33,
          "midi": 77,
          "name": "F5",
          "ticks": 7812,
          "time": 90.83720930232558,
          "velocity": 0.4015748031496063
        },
        {
          "duration": 0.24418604651162923,
          "durationTicks": 21,
          "midi": 84,
          "name": "C6",
          "ticks": 7812,
          "time": 90.83720930232558,
          "velocity": 0.1968503937007874
        },
        {
          "duration": 0.034883720930224626,
          "durationTicks": 3,
          "midi": 79,
          "name": "G5",
          "ticks": 7813,
          "time": 90.84883720930233,
          "velocity": 0.07086614173228346
        },
        {
          "duration": 0.40697674418603924,
          "durationTicks": 35,
          "midi": 72,
          "name": "C5",
          "ticks": 7814,
          "time": 90.86046511627907,
          "velocity": 0.30708661417322836
        },
        {
          "duration": 0.06976744186046346,
          "durationTicks": 6,
          "midi": 60,
          "name": "C4",
          "ticks": 7815,
          "time": 90.87209302325581,
          "velocity": 0.12598425196850394
        },
        {
          "duration": 0.13953488372092693,
          "durationTicks": 12,
          "midi": 50,
          "name": "D3",
          "ticks": 7819,
          "time": 90.9186046511628,
          "velocity": 0.2125984251968504
        },
        {
          "duration": 0.08139534883721922,
          "durationTicks": 7,
          "midi": 60,
          "name": "C4",
          "ticks": 7823,
          "time": 90.96511627906976,
          "velocity": 0.14960629921259844
        },
        {
          "duration": 0.04651162790698038,
          "durationTicks": 4,
          "midi": 88,
          "name": "E6",
          "ticks": 7823,
          "time": 90.96511627906976,
          "velocity": 0.1732283464566929
        },
        {
          "duration": 0.05813953488370771,
          "durationTicks": 5,
          "midi": 88,
          "name": "E6",
          "ticks": 7829,
          "time": 91.03488372093024,
          "velocity": 0.15748031496062992
        },
        {
          "duration": 0.023255813953483084,
          "durationTicks": 2,
          "midi": 51,
          "name": "D#3",
          "ticks": 7831,
          "time": 91.05813953488372,
          "velocity": 0.2283464566929134
        },
        {
          "duration": 0.22093023255813193,
          "durationTicks": 19,
          "midi": 62,
          "name": "D4",
          "ticks": 7831,
          "time": 91.05813953488372,
          "velocity": 0.33858267716535434
        },
        {
          "duration": 0.023255813953483084,
          "durationTicks": 2,
          "midi": 45,
          "name": "A2",
          "ticks": 7836,
          "time": 91.11627906976744,
          "velocity": 0.23622047244094488
        },
        {
          "duration": 0.13953488372092693,
          "durationTicks": 12,
          "midi": 88,
          "name": "E6",
          "ticks": 7838,
          "time": 91.13953488372093,
          "velocity": 0.09448818897637795
        },
        {
          "duration": 0.04651162790698038,
          "durationTicks": 4,
          "midi": 45,
          "name": "A2",
          "ticks": 7839,
          "time": 91.15116279069767,
          "velocity": 0.25196850393700787
        },
        {
          "duration": 0.04651162790696617,
          "durationTicks": 4,
          "midi": 50,
          "name": "D3",
          "ticks": 7840,
          "time": 91.16279069767442,
          "velocity": 0.2125984251968504
        },
        {
          "duration": 0.023255813953483084,
          "durationTicks": 2,
          "midi": 50,
          "name": "D3",
          "ticks": 7847,
          "time": 91.24418604651163,
          "velocity": 0.2283464566929134
        },
        {
          "duration": 0.023255813953497295,
          "durationTicks": 2,
          "midi": 38,
          "name": "D2",
          "ticks": 7850,
          "time": 91.27906976744185,
          "velocity": 0.2283464566929134
        },
        {
          "duration": 0.1860465116279073,
          "durationTicks": 16,
          "midi": 84,
          "name": "C6",
          "ticks": 7850,
          "time": 91.27906976744185,
          "velocity": 0.23622047244094488
        },
        {
          "duration": 0.15116279069768268,
          "durationTicks": 13,
          "midi": 89,
          "name": "F6",
          "ticks": 7850,
          "time": 91.27906976744185,
          "velocity": 0.4251968503937008
        },
        {
          "duration": 0.23255813953487348,
          "durationTicks": 20,
          "midi": 65,
          "name": "F4",
          "ticks": 7851,
          "time": 91.29069767441861,
          "velocity": 0.31496062992125984
        },
        {
          "duration": 0.034883720930224626,
          "durationTicks": 3,
          "midi": 80,
          "name": "G#5",
          "ticks": 7851,
          "time": 91.29069767441861,
          "velocity": 0.12598425196850394
        },
        {
          "duration": 0.2093023255813904,
          "durationTicks": 18,
          "midi": 57,
          "name": "A3",
          "ticks": 7853,
          "time": 91.31395348837209,
          "velocity": 0.13385826771653545
        },
        {
          "duration": 0.1046511627907023,
          "durationTicks": 9,
          "midi": 72,
          "name": "C5",
          "ticks": 7853,
          "time": 91.31395348837209,
          "velocity": 0.2047244094488189
        },
        {
          "duration": 0.24418604651162923,
          "durationTicks": 21,
          "midi": 88,
          "name": "E6",
          "ticks": 7854,
          "time": 91.32558139534883,
          "velocity": 0.13385826771653545
        },
        {
          "duration": 0.03488372093023884,
          "durationTicks": 3,
          "midi": 49,
          "name": "C#3",
          "ticks": 7855,
          "time": 91.33720930232558,
          "velocity": 0.13385826771653545
        },
        {
          "duration": 0.15116279069766847,
          "durationTicks": 13,
          "midi": 50,
          "name": "D3",
          "ticks": 7858,
          "time": 91.37209302325581,
          "velocity": 0.2992125984251969
        },
        {
          "duration": 0.11627906976744384,
          "durationTicks": 10,
          "midi": 38,
          "name": "D2",
          "ticks": 7860,
          "time": 91.3953488372093,
          "velocity": 0.15748031496062992
        },
        {
          "duration": 0.05813953488372192,
          "durationTicks": 5,
          "midi": 84,
          "name": "C6",
          "ticks": 7867,
          "time": 91.47674418604652,
          "velocity": 0.14960629921259844
        },
        {
          "duration": 0.023255813953497295,
          "durationTicks": 2,
          "midi": 48,
          "name": "C3",
          "ticks": 7871,
          "time": 91.52325581395348,
          "velocity": 0.3937007874015748
        },
        {
          "duration": 0.09302325581394655,
          "durationTicks": 8,
          "midi": 67,
          "name": "G4",
          "ticks": 7872,
          "time": 91.53488372093024,
          "velocity": 0.23622047244094488
        },
        {
          "duration": 0.034883720930224626,
          "durationTicks": 3,
          "midi": 60,
          "name": "C4",
          "ticks": 7873,
          "time": 91.54651162790698,
          "velocity": 0.14173228346456693
        },
        {
          "duration": 0.05813953488372192,
          "durationTicks": 5,
          "midi": 76,
          "name": "E5",
          "ticks": 7875,
          "time": 91.56976744186046,
          "velocity": 0.09448818897637795
        },
        {
          "duration": 0.04651162790698038,
          "durationTicks": 4,
          "midi": 60,
          "name": "C4",
          "ticks": 7877,
          "time": 91.59302325581395,
          "velocity": 0.12598425196850394
        },
        {
          "duration": 0.04651162790696617,
          "durationTicks": 4,
          "midi": 72,
          "name": "C5",
          "ticks": 7878,
          "time": 91.6046511627907,
          "velocity": 0.18110236220472442
        },
        {
          "duration": 0.03488372093023884,
          "durationTicks": 3,
          "midi": 67,
          "name": "G4",
          "ticks": 7881,
          "time": 91.63953488372093,
          "velocity": 0.15748031496062992
        },
        {
          "duration": 0.05813953488372192,
          "durationTicks": 5,
          "midi": 76,
          "name": "E5",
          "ticks": 7884,
          "time": 91.67441860465117,
          "velocity": 0.07874015748031496
        },
        {
          "duration": 0.3139534883720927,
          "durationTicks": 27,
          "midi": 77,
          "name": "F5",
          "ticks": 7889,
          "time": 91.73255813953489,
          "velocity": 0.2125984251968504
        },
        {
          "duration": 0.5,
          "durationTicks": 43,
          "midi": 79,
          "name": "G5",
          "ticks": 7889,
          "time": 91.73255813953489,
          "velocity": 0.3937007874015748
        },
        {
          "duration": 0.17441860465116577,
          "durationTicks": 15,
          "midi": 84,
          "name": "C6",
          "ticks": 7889,
          "time": 91.73255813953489,
          "velocity": 0.3464566929133858
        },
        {
          "duration": 0.15116279069766847,
          "durationTicks": 13,
          "midi": 88,
          "name": "E6",
          "ticks": 7889,
          "time": 91.73255813953489,
          "velocity": 0.3543307086614173
        },
        {
          "duration": 0.25581395348837077,
          "durationTicks": 22,
          "midi": 65,
          "name": "F4",
          "ticks": 7890,
          "time": 91.74418604651163,
          "velocity": 0.3228346456692913
        },
        {
          "duration": 0.17441860465116577,
          "durationTicks": 15,
          "midi": 72,
          "name": "C5",
          "ticks": 7891,
          "time": 91.75581395348837,
          "velocity": 0.1732283464566929
        },
        {
          "duration": 0.17441860465116577,
          "durationTicks": 15,
          "midi": 57,
          "name": "A3",
          "ticks": 7893,
          "time": 91.77906976744185,
          "velocity": 0.2125984251968504
        },
        {
          "duration": 0.12790697674418539,
          "durationTicks": 11,
          "midi": 38,
          "name": "D2",
          "ticks": 7898,
          "time": 91.83720930232558,
          "velocity": 0.16535433070866143
        },
        {
          "duration": 0.1860465116279073,
          "durationTicks": 16,
          "midi": 50,
          "name": "D3",
          "ticks": 7899,
          "time": 91.84883720930233,
          "velocity": 0.25984251968503935
        },
        {
          "duration": 0.15116279069766847,
          "durationTicks": 13,
          "midi": 88,
          "name": "E6",
          "ticks": 7907,
          "time": 91.94186046511628,
          "velocity": 0.1889763779527559
        },
        {
          "duration": 0.16279069767442422,
          "durationTicks": 14,
          "midi": 84,
          "name": "C6",
          "ticks": 7908,
          "time": 91.95348837209302,
          "velocity": 0.18110236220472442
        },
        {
          "duration": 0.2325581395348877,
          "durationTicks": 20,
          "midi": 60,
          "name": "C4",
          "ticks": 7909,
          "time": 91.96511627906976,
          "velocity": 0.36220472440944884
        },
        {
          "duration": 0.03488372093023884,
          "durationTicks": 3,
          "midi": 65,
          "name": "F4",
          "ticks": 7914,
          "time": 92.02325581395348,
          "velocity": 0.10236220472440945
        },
        {
          "duration": 0.03488372093023884,
          "durationTicks": 3,
          "midi": 38,
          "name": "D2",
          "ticks": 7919,
          "time": 92.0813953488372,
          "velocity": 0.25984251968503935
        },
        {
          "duration": 0.03488372093023884,
          "durationTicks": 3,
          "midi": 88,
          "name": "E6",
          "ticks": 7924,
          "time": 92.13953488372093,
          "velocity": 0.09448818897637795
        },
        {
          "duration": 0.034883720930224626,
          "durationTicks": 3,
          "midi": 38,
          "name": "D2",
          "ticks": 7926,
          "time": 92.16279069767442,
          "velocity": 0.23622047244094488
        },
        {
          "duration": 0.023255813953483084,
          "durationTicks": 2,
          "midi": 64,
          "name": "E4",
          "ticks": 7928,
          "time": 92.18604651162791,
          "velocity": 0.25984251968503935
        },
        {
          "duration": 0.27906976744185386,
          "durationTicks": 24,
          "midi": 69,
          "name": "A4",
          "ticks": 7928,
          "time": 92.18604651162791,
          "velocity": 0.33858267716535434
        },
        {
          "duration": 0.7209302325581461,
          "durationTicks": 62,
          "midi": 77,
          "name": "F5",
          "ticks": 7928,
          "time": 92.18604651162791,
          "velocity": 0.4251968503937008
        },
        {
          "duration": 0.04651162790698038,
          "durationTicks": 4,
          "midi": 72,
          "name": "C5",
          "ticks": 7929,
          "time": 92.19767441860465,
          "velocity": 0.07086614173228346
        },
        {
          "duration": 0.22093023255814614,
          "durationTicks": 19,
          "midi": 62,
          "name": "D4",
          "ticks": 7930,
          "time": 92.20930232558139,
          "velocity": 0.30708661417322836
        },
        {
          "duration": 0.22093023255814614,
          "durationTicks": 19,
          "midi": 65,
          "name": "F4",
          "ticks": 7930,
          "time": 92.20930232558139,
          "velocity": 0.33070866141732286
        },
        {
          "duration": 0.2093023255814046,
          "durationTicks": 18,
          "midi": 84,
          "name": "C6",
          "ticks": 7930,
          "time": 92.20930232558139,
          "velocity": 0.14173228346456693
        },
        {
          "duration": 0.06976744186046346,
          "durationTicks": 6,
          "midi": 83,
          "name": "B5",
          "ticks": 7931,
          "time": 92.22093023255815,
          "velocity": 0.07874015748031496
        },
        {
          "duration": 0.034883720930224626,
          "durationTicks": 3,
          "midi": 45,
          "name": "A2",
          "ticks": 7932,
          "time": 92.23255813953489,
          "velocity": 0.2992125984251969
        },
        {
          "duration": 0.13953488372094114,
          "durationTicks": 12,
          "midi": 45,
          "name": "A2",
          "ticks": 7936,
          "time": 92.27906976744185,
          "velocity": 0.28346456692913385
        },
        {
          "duration": 0.2674418604651123,
          "durationTicks": 23,
          "midi": 72,
          "name": "C5",
          "ticks": 7947,
          "time": 92.40697674418605,
          "velocity": 0.4409448818897638
        },
        {
          "duration": 0.023255813953483084,
          "durationTicks": 2,
          "midi": 47,
          "name": "B2",
          "ticks": 7949,
          "time": 92.43023255813954,
          "velocity": 0.33070866141732286
        },
        {
          "duration": 0.22093023255813193,
          "durationTicks": 19,
          "midi": 64,
          "name": "E4",
          "ticks": 7949,
          "time": 92.43023255813954,
          "velocity": 0.3464566929133858
        },
        {
          "duration": 0.32558139534883423,
          "durationTicks": 28,
          "midi": 79,
          "name": "G5",
          "ticks": 7949,
          "time": 92.43023255813954,
          "velocity": 0.2125984251968504
        },
        {
          "duration": 0.2093023255813904,
          "durationTicks": 18,
          "midi": 67,
          "name": "G4",
          "ticks": 7950,
          "time": 92.44186046511628,
          "velocity": 0.3464566929133858
        },
        {
          "duration": 0.03488372093023884,
          "durationTicks": 3,
          "midi": 95,
          "name": "B6",
          "ticks": 7952,
          "time": 92.46511627906976,
          "velocity": 0.09448818897637795
        },
        {
          "duration": 0.05813953488372192,
          "durationTicks": 5,
          "midi": 82,
          "name": "A#5",
          "ticks": 7953,
          "time": 92.47674418604652,
          "velocity": 0.08661417322834646
        },
        {
          "duration": 0.081395348837205,
          "durationTicks": 7,
          "midi": 83,
          "name": "B5",
          "ticks": 7954,
          "time": 92.48837209302326,
          "velocity": 0.07874015748031496
        },
        {
          "duration": 0.081395348837205,
          "durationTicks": 7,
          "midi": 48,
          "name": "C3",
          "ticks": 7960,
          "time": 92.55813953488372,
          "velocity": 0.1968503937007874
        },
        {
          "duration": 0.09302325581394655,
          "durationTicks": 8,
          "midi": 82,
          "name": "A#5",
          "ticks": 7960,
          "time": 92.55813953488372,
          "velocity": 0.14173228346456693
        },
        {
          "duration": 0.081395348837205,
          "durationTicks": 7,
          "midi": 40,
          "name": "E2",
          "ticks": 7964,
          "time": 92.6046511627907,
          "velocity": 0.14960629921259844
        },
        {
          "duration": 0.30232558139535115,
          "durationTicks": 26,
          "midi": 81,
          "name": "A5",
          "ticks": 7967,
          "time": 92.63953488372093,
          "velocity": 0.2755905511811024
        },
        {
          "duration": 0.24418604651162923,
          "durationTicks": 21,
          "midi": 65,
          "name": "F4",
          "ticks": 7968,
          "time": 92.65116279069767,
          "velocity": 0.3464566929133858
        },
        {
          "duration": 0.2906976744186096,
          "durationTicks": 25,
          "midi": 69,
          "name": "A4",
          "ticks": 7968,
          "time": 92.65116279069767,
          "velocity": 0.33858267716535434
        },
        {
          "duration": 0.09302325581396076,
          "durationTicks": 8,
          "midi": 88,
          "name": "E6",
          "ticks": 7968,
          "time": 92.65116279069767,
          "velocity": 0.23622047244094488
        },
        {
          "duration": 0.2093023255813904,
          "durationTicks": 18,
          "midi": 60,
          "name": "C4",
          "ticks": 7970,
          "time": 92.67441860465117,
          "velocity": 0.2992125984251969
        },
        {
          "duration": 0.023255813953497295,
          "durationTicks": 2,
          "midi": 50,
          "name": "D3",
          "ticks": 7972,
          "time": 92.69767441860465,
          "velocity": 0.23622047244094488
        },
        {
          "duration": 0.13953488372092693,
          "durationTicks": 12,
          "midi": 50,
          "name": "D3",
          "ticks": 7975,
          "time": 92.73255813953489,
          "velocity": 0.2204724409448819
        },
        {
          "duration": 0.05813953488372192,
          "durationTicks": 5,
          "midi": 88,
          "name": "E6",
          "ticks": 7977,
          "time": 92.75581395348837,
          "velocity": 0.1889763779527559
        },
        {
          "duration": 0.04651162790698038,
          "durationTicks": 4,
          "midi": 88,
          "name": "E6",
          "ticks": 7983,
          "time": 92.82558139534883,
          "velocity": 0.16535433070866143
        },
        {
          "duration": 0.5,
          "durationTicks": 43,
          "midi": 83,
          "name": "B5",
          "ticks": 7988,
          "time": 92.88372093023256,
          "velocity": 0.2440944881889764
        },
        {
          "duration": 0.04651162790698038,
          "durationTicks": 4,
          "midi": 43,
          "name": "G2",
          "ticks": 7989,
          "time": 92.8953488372093,
          "velocity": 0.1968503937007874
        },
        {
          "duration": 0.05813953488372192,
          "durationTicks": 5,
          "midi": 62,
          "name": "D4",
          "ticks": 7989,
          "time": 92.8953488372093,
          "velocity": 0.2992125984251969
        },
        {
          "duration": 0.03488372093023884,
          "durationTicks": 3,
          "midi": 88,
          "name": "E6",
          "ticks": 7989,
          "time": 92.8953488372093,
          "velocity": 0.10236220472440945
        },
        {
          "duration": 0.16279069767441,
          "durationTicks": 14,
          "midi": 67,
          "name": "G4",
          "ticks": 7992,
          "time": 92.93023255813954,
          "velocity": 0.25196850393700787
        },
        {
          "duration": 0.1860465116279073,
          "durationTicks": 16,
          "midi": 76,
          "name": "E5",
          "ticks": 7993,
          "time": 92.94186046511628,
          "velocity": 0.2283464566929134
        },
        {
          "duration": 0.13953488372092693,
          "durationTicks": 12,
          "midi": 43,
          "name": "G2",
          "ticks": 7994,
          "time": 92.95348837209302,
          "velocity": 0.14173228346456693
        },
        {
          "duration": 0.08139534883721922,
          "durationTicks": 7,
          "midi": 64,
          "name": "E4",
          "ticks": 7994,
          "time": 92.95348837209302,
          "velocity": 0.3228346456692913
        },
        {
          "duration": 0.034883720930224626,
          "durationTicks": 3,
          "midi": 81,
          "name": "A5",
          "ticks": 7996,
          "time": 92.97674418604652,
          "velocity": 0.09448818897637795
        },
        {
          "duration": 0.10465116279068809,
          "durationTicks": 9,
          "midi": 85,
          "name": "C#6",
          "ticks": 7997,
          "time": 92.98837209302326,
          "velocity": 0.07086614173228346
        },
        {
          "duration": 0.05813953488372192,
          "durationTicks": 5,
          "midi": 64,
          "name": "E4",
          "ticks": 8002,
          "time": 93.04651162790698,
          "velocity": 0.25196850393700787
        },
        {
          "duration": 0.34883720930233153,
          "durationTicks": 30,
          "midi": 81,
          "name": "A5",
          "ticks": 8006,
          "time": 93.09302325581395,
          "velocity": 0.2992125984251969
        },
        {
          "duration": 0.24418604651162923,
          "durationTicks": 21,
          "midi": 89,
          "name": "F6",
          "ticks": 8006,
          "time": 93.09302325581395,
          "velocity": 0.4251968503937008
        },
        {
          "duration": 0.04651162790696617,
          "durationTicks": 4,
          "midi": 65,
          "name": "F4",
          "ticks": 8007,
          "time": 93.1046511627907,
          "velocity": 0.3543307086614173
        },
        {
          "duration": 0.2906976744186096,
          "durationTicks": 25,
          "midi": 72,
          "name": "C5",
          "ticks": 8008,
          "time": 93.11627906976744,
          "velocity": 0.41732283464566927
        },
        {
          "duration": 0.38372093023255616,
          "durationTicks": 33,
          "midi": 74,
          "name": "D5",
          "ticks": 8008,
          "time": 93.11627906976744,
          "velocity": 0.36220472440944884
        },
        {
          "duration": 0.27906976744185386,
          "durationTicks": 24,
          "midi": 79,
          "name": "G5",
          "ticks": 8008,
          "time": 93.11627906976744,
          "velocity": 0.18110236220472442
        },
        {
          "duration": 0.03488372093023884,
          "durationTicks": 3,
          "midi": 44,
          "name": "G#2",
          "ticks": 8009,
          "time": 93.12790697674419,
          "velocity": 0.1889763779527559
        },
        {
          "duration": 0.22093023255814614,
          "durationTicks": 19,
          "midi": 67,
          "name": "G4",
          "ticks": 8009,
          "time": 93.12790697674419,
          "velocity": 0.41732283464566927
        },
        {
          "duration": 0.17441860465116577,
          "durationTicks": 15,
          "midi": 55,
          "name": "G3",
          "ticks": 8011,
          "time": 93.15116279069767,
          "velocity": 0.1889763779527559
        },
        {
          "duration": 0.05813953488372192,
          "durationTicks": 5,
          "midi": 43,
          "name": "G2",
          "ticks": 8012,
          "time": 93.16279069767442,
          "velocity": 0.16535433070866143
        },
        {
          "duration": 0.09302325581394655,
          "durationTicks": 8,
          "midi": 43,
          "name": "G2",
          "ticks": 8018,
          "time": 93.23255813953489,
          "velocity": 0.14173228346456693
        },
        {
          "duration": 0.023255813953483084,
          "durationTicks": 2,
          "midi": 65,
          "name": "F4",
          "ticks": 8018,
          "time": 93.23255813953489,
          "velocity": 0.2992125984251969
        },
        {
          "duration": 0.03488372093023884,
          "durationTicks": 3,
          "midi": 65,
          "name": "F4",
          "ticks": 8021,
          "time": 93.26744186046511,
          "velocity": 0.28346456692913385
        },
        {
          "duration": 0.32558139534883423,
          "durationTicks": 28,
          "midi": 65,
          "name": "F4",
          "ticks": 8025,
          "time": 93.31395348837209,
          "velocity": 0.3700787401574803
        },
        {
          "duration": 0.06976744186046346,
          "durationTicks": 6,
          "midi": 87,
          "name": "D#6",
          "ticks": 8028,
          "time": 93.34883720930233,
          "velocity": 0.14960629921259844
        },
        {
          "duration": 0.034883720930224626,
          "durationTicks": 3,
          "midi": 41,
          "name": "F2",
          "ticks": 8029,
          "time": 93.36046511627907,
          "velocity": 0.18110236220472442
        },
        {
          "duration": 0.19767441860464885,
          "durationTicks": 17,
          "midi": 53,
          "name": "F3",
          "ticks": 8029,
          "time": 93.36046511627907,
          "velocity": 0.2992125984251969
        },
        {
          "duration": 0.12790697674418539,
          "durationTicks": 11,
          "midi": 88,
          "name": "E6",
          "ticks": 8031,
          "time": 93.38372093023256,
          "velocity": 0.07086614173228346
        },
        {
          "duration": 0.034883720930224626,
          "durationTicks": 3,
          "midi": 83,
          "name": "B5",
          "ticks": 8033,
          "time": 93.40697674418605,
          "velocity": 0.16535433070866143
        },
        {
          "duration": 0.13953488372092693,
          "durationTicks": 12,
          "midi": 41,
          "name": "F2",
          "ticks": 8034,
          "time": 93.4186046511628,
          "velocity": 0.13385826771653545
        },
        {
          "duration": 0.3604651162790731,
          "durationTicks": 31,
          "midi": 72,
          "name": "C5",
          "ticks": 8035,
          "time": 93.43023255813954,
          "velocity": 0.44881889763779526
        },
        {
          "duration": 0.06976744186046346,
          "durationTicks": 6,
          "midi": 87,
          "name": "D#6",
          "ticks": 8037,
          "time": 93.45348837209302,
          "velocity": 0.12598425196850394
        },
        {
          "duration": 0.03488372093023884,
          "durationTicks": 3,
          "midi": 83,
          "name": "B5",
          "ticks": 8038,
          "time": 93.46511627906976,
          "velocity": 0.12598425196850394
        },
        {
          "duration": 0.03488372093023884,
          "durationTicks": 3,
          "midi": 83,
          "name": "B5",
          "ticks": 8043,
          "time": 93.52325581395348,
          "velocity": 0.07874015748031496
        },
        {
          "duration": 0.40697674418603924,
          "durationTicks": 35,
          "midi": 69,
          "name": "A4",
          "ticks": 8045,
          "time": 93.54651162790698,
          "velocity": 0.3543307086614173
        },
        {
          "duration": 2.0465116279069804,
          "durationTicks": 176,
          "midi": 74,
          "name": "D5",
          "ticks": 8046,
          "time": 93.55813953488372,
          "velocity": 0.47244094488188976
        },
        {
          "duration": 0.34883720930233153,
          "durationTicks": 30,
          "midi": 79,
          "name": "G5",
          "ticks": 8046,
          "time": 93.55813953488372,
          "velocity": 0.2677165354330709
        },
        {
          "duration": 0.034883720930224626,
          "durationTicks": 3,
          "midi": 87,
          "name": "D#6",
          "ticks": 8046,
          "time": 93.55813953488372,
          "velocity": 0.14173228346456693
        },
        {
          "duration": 0.3604651162790731,
          "durationTicks": 31,
          "midi": 88,
          "name": "E6",
          "ticks": 8046,
          "time": 93.55813953488372,
          "velocity": 0.33070866141732286
        },
        {
          "duration": 0.023255813953497295,
          "durationTicks": 2,
          "midi": 44,
          "name": "G#2",
          "ticks": 8048,
          "time": 93.5813953488372,
          "velocity": 0.23622047244094488
        },
        {
          "duration": 0.25581395348837077,
          "durationTicks": 22,
          "midi": 83,
          "name": "B5",
          "ticks": 8048,
          "time": 93.5813953488372,
          "velocity": 0.16535433070866143
        },
        {
          "duration": 0.023255813953483084,
          "durationTicks": 2,
          "midi": 42,
          "name": "F#2",
          "ticks": 8050,
          "time": 93.6046511627907,
          "velocity": 0.2440944881889764
        },
        {
          "duration": 0.16279069767442422,
          "durationTicks": 14,
          "midi": 65,
          "name": "F4",
          "ticks": 8054,
          "time": 93.65116279069767,
          "velocity": 0.25196850393700787
        },
        {
          "duration": 0.034883720930224626,
          "durationTicks": 3,
          "midi": 43,
          "name": "G2",
          "ticks": 8055,
          "time": 93.66279069767442,
          "velocity": 0.11811023622047244
        },
        {
          "duration": 0.06976744186046346,
          "durationTicks": 6,
          "midi": 43,
          "name": "G2",
          "ticks": 8059,
          "time": 93.70930232558139,
          "velocity": 0.11811023622047244
        },
        {
          "duration": 0.023255813953483084,
          "durationTicks": 2,
          "midi": 56,
          "name": "G#3",
          "ticks": 8060,
          "time": 93.72093023255815,
          "velocity": 0.2283464566929134
        },
        {
          "duration": 0.03488372093023884,
          "durationTicks": 3,
          "midi": 42,
          "name": "F#2",
          "ticks": 8065,
          "time": 93.77906976744185,
          "velocity": 0.15748031496062992
        },
        {
          "duration": 0.23255813953487348,
          "durationTicks": 20,
          "midi": 60,
          "name": "C4",
          "ticks": 8066,
          "time": 93.79069767441861,
          "velocity": 0.3700787401574803
        },
        {
          "duration": 0.4186046511627808,
          "durationTicks": 36,
          "midi": 84,
          "name": "C6",
          "ticks": 8066,
          "time": 93.79069767441861,
          "velocity": 0.1968503937007874
        },
        {
          "duration": 0.38372093023255616,
          "durationTicks": 33,
          "midi": 72,
          "name": "C5",
          "ticks": 8067,
          "time": 93.80232558139535,
          "velocity": 0.4330708661417323
        },
        {
          "duration": 0.04651162790698038,
          "durationTicks": 4,
          "midi": 43,
          "name": "G2",
          "ticks": 8070,
          "time": 93.83720930232558,
          "velocity": 0.2047244094488189
        },
        {
          "duration": 0.03488372093023884,
          "durationTicks": 3,
          "midi": 50,
          "name": "D3",
          "ticks": 8070,
          "time": 93.83720930232558,
          "velocity": 0.13385826771653545
        },
        {
          "duration": 0.04651162790698038,
          "durationTicks": 4,
          "midi": 77,
          "name": "F5",
          "ticks": 8072,
          "time": 93.86046511627907,
          "velocity": 0.13385826771653545
        },
        {
          "duration": 0.04651162790698038,
          "durationTicks": 4,
          "midi": 83,
          "name": "B5",
          "ticks": 8072,
          "time": 93.86046511627907,
          "velocity": 0.11811023622047244
        },
        {
          "duration": 0.12790697674418539,
          "durationTicks": 11,
          "midi": 85,
          "name": "C#6",
          "ticks": 8074,
          "time": 93.88372093023256,
          "velocity": 0.09448818897637795
        },
        {
          "duration": 0.11627906976744384,
          "durationTicks": 10,
          "midi": 43,
          "name": "G2",
          "ticks": 8075,
          "time": 93.8953488372093,
          "velocity": 0.14960629921259844
        },
        {
          "duration": 0.05813953488370771,
          "durationTicks": 5,
          "midi": 65,
          "name": "F4",
          "ticks": 8076,
          "time": 93.90697674418605,
          "velocity": 0.12598425196850394
        },
        {
          "duration": 0.06976744186046346,
          "durationTicks": 6,
          "midi": 50,
          "name": "D3",
          "ticks": 8077,
          "time": 93.9186046511628,
          "velocity": 0.09448818897637795
        },
        {
          "duration": 0.03488372093023884,
          "durationTicks": 3,
          "midi": 83,
          "name": "B5",
          "ticks": 8079,
          "time": 93.94186046511628,
          "velocity": 0.10236220472440945
        },
        {
          "duration": 0.04651162790698038,
          "durationTicks": 4,
          "midi": 88,
          "name": "E6",
          "ticks": 8080,
          "time": 93.95348837209302,
          "velocity": 0.09448818897637795
        },
        {
          "duration": 0.081395348837205,
          "durationTicks": 7,
          "midi": 69,
          "name": "A4",
          "ticks": 8084,
          "time": 94,
          "velocity": 0.3464566929133858
        },
        {
          "duration": 0.918604651162795,
          "durationTicks": 79,
          "midi": 77,
          "name": "F5",
          "ticks": 8084,
          "time": 94,
          "velocity": 0.3700787401574803
        },
        {
          "duration": 0.03488372093023884,
          "durationTicks": 3,
          "midi": 65,
          "name": "F4",
          "ticks": 8085,
          "time": 94.01162790697674,
          "velocity": 0.30708661417322836
        },
        {
          "duration": 0.16279069767442422,
          "durationTicks": 14,
          "midi": 93,
          "name": "A6",
          "ticks": 8085,
          "time": 94.01162790697674,
          "velocity": 0.2677165354330709
        },
        {
          "duration": 0.023255813953497295,
          "durationTicks": 2,
          "midi": 62,
          "name": "D4",
          "ticks": 8086,
          "time": 94.02325581395348,
          "velocity": 0.25196850393700787
        },
        {
          "duration": 0.1046511627907023,
          "durationTicks": 9,
          "midi": 91,
          "name": "G6",
          "ticks": 8086,
          "time": 94.02325581395348,
          "velocity": 0.11811023622047244
        },
        {
          "duration": 0.17441860465115155,
          "durationTicks": 15,
          "midi": 67,
          "name": "G4",
          "ticks": 8087,
          "time": 94.03488372093024,
          "velocity": 0.3858267716535433
        },
        {
          "duration": 0.2906976744186096,
          "durationTicks": 25,
          "midi": 62,
          "name": "D4",
          "ticks": 8089,
          "time": 94.05813953488372,
          "velocity": 0.2755905511811024
        },
        {
          "duration": 0.03488372093023884,
          "durationTicks": 3,
          "midi": 38,
          "name": "D2",
          "ticks": 8092,
          "time": 94.09302325581395,
          "velocity": 0.18110236220472442
        },
        {
          "duration": 0.2674418604651265,
          "durationTicks": 23,
          "midi": 69,
          "name": "A4",
          "ticks": 8092,
          "time": 94.09302325581395,
          "velocity": 0.33858267716535434
        },
        {
          "duration": 0.11627906976744384,
          "durationTicks": 10,
          "midi": 57,
          "name": "A3",
          "ticks": 8095,
          "time": 94.12790697674419,
          "velocity": 0.10236220472440945
        },
        {
          "duration": 0.09302325581396076,
          "durationTicks": 8,
          "midi": 38,
          "name": "D2",
          "ticks": 8096,
          "time": 94.13953488372093,
          "velocity": 0.16535433070866143
        },
        {
          "duration": 0.13953488372092693,
          "durationTicks": 12,
          "midi": 65,
          "name": "F4",
          "ticks": 8101,
          "time": 94.19767441860465,
          "velocity": 0.25984251968503935
        },
        {
          "duration": 0.04651162790698038,
          "durationTicks": 4,
          "midi": 72,
          "name": "C5",
          "ticks": 8101,
          "time": 94.19767441860465,
          "velocity": 0.2204724409448819
        },
        {
          "duration": 0.04651162790698038,
          "durationTicks": 4,
          "midi": 48,
          "name": "C3",
          "ticks": 8105,
          "time": 94.24418604651163,
          "velocity": 0.2440944881889764
        },
        {
          "duration": 0.4534883720930196,
          "durationTicks": 39,
          "midi": 72,
          "name": "C5",
          "ticks": 8106,
          "time": 94.25581395348837,
          "velocity": 0.4881889763779528
        },
        {
          "duration": 0.17441860465116577,
          "durationTicks": 15,
          "midi": 83,
          "name": "B5",
          "ticks": 8106,
          "time": 94.25581395348837,
          "velocity": 0.13385826771653545
        },
        {
          "duration": 0.04651162790698038,
          "durationTicks": 4,
          "midi": 88,
          "name": "E6",
          "ticks": 8106,
          "time": 94.25581395348837,
          "velocity": 0.12598425196850394
        },
        {
          "duration": 0.19767441860464885,
          "durationTicks": 17,
          "midi": 67,
          "name": "G4",
          "ticks": 8107,
          "time": 94.26744186046511,
          "velocity": 0.1889763779527559
        },
        {
          "duration": 0.16279069767441,
          "durationTicks": 14,
          "midi": 48,
          "name": "C3",
          "ticks": 8110,
          "time": 94.30232558139535,
          "velocity": 0.2047244094488189
        },
        {
          "duration": 0.04651162790698038,
          "durationTicks": 4,
          "midi": 88,
          "name": "E6",
          "ticks": 8113,
          "time": 94.33720930232558,
          "velocity": 0.09448818897637795
        },
        {
          "duration": 0.4534883720930196,
          "durationTicks": 39,
          "midi": 81,
          "name": "A5",
          "ticks": 8115,
          "time": 94.36046511627907,
          "velocity": 0.3228346456692913
        },
        {
          "duration": 0.08139534883721922,
          "durationTicks": 7,
          "midi": 62,
          "name": "D4",
          "ticks": 8118,
          "time": 94.3953488372093,
          "velocity": 0.12598425196850394
        },
        {
          "duration": 0.13953488372094114,
          "durationTicks": 12,
          "midi": 88,
          "name": "E6",
          "ticks": 8124,
          "time": 94.46511627906976,
          "velocity": 0.2047244094488189
        },
        {
          "duration": 0.13953488372094114,
          "durationTicks": 12,
          "midi": 89,
          "name": "F6",
          "ticks": 8124,
          "time": 94.46511627906976,
          "velocity": 0.4251968503937008
        },
        {
          "duration": 0.23255813953487348,
          "durationTicks": 20,
          "midi": 60,
          "name": "C4",
          "ticks": 8125,
          "time": 94.47674418604652,
          "velocity": 0.36220472440944884
        },
        {
          "duration": 0.023255813953483084,
          "durationTicks": 2,
          "midi": 65,
          "name": "F4",
          "ticks": 8125,
          "time": 94.47674418604652,
          "velocity": 0.2992125984251969
        },
        {
          "duration": 0.04651162790696617,
          "durationTicks": 4,
          "midi": 69,
          "name": "A4",
          "ticks": 8125,
          "time": 94.47674418604652,
          "velocity": 0.33858267716535434
        },
        {
          "duration": 0.19767441860464885,
          "durationTicks": 17,
          "midi": 67,
          "name": "G4",
          "ticks": 8126,
          "time": 94.48837209302326,
          "velocity": 0.3779527559055118
        },
        {
          "duration": 0.023255813953497295,
          "durationTicks": 2,
          "midi": 43,
          "name": "G2",
          "ticks": 8128,
          "time": 94.51162790697674,
          "velocity": 0.2440944881889764
        },
        {
          "duration": 0.17441860465115155,
          "durationTicks": 15,
          "midi": 69,
          "name": "A4",
          "ticks": 8130,
          "time": 94.53488372093024,
          "velocity": 0.33858267716535434
        },
        {
          "duration": 0.15116279069766847,
          "durationTicks": 13,
          "midi": 50,
          "name": "D3",
          "ticks": 8131,
          "time": 94.54651162790698,
          "velocity": 0.2125984251968504
        },
        {
          "duration": 0.04651162790698038,
          "durationTicks": 4,
          "midi": 88,
          "name": "E6",
          "ticks": 8138,
          "time": 94.62790697674419,
          "velocity": 0.14173228346456693
        },
        {
          "duration": 0.023255813953483084,
          "durationTicks": 2,
          "midi": 65,
          "name": "F4",
          "ticks": 8142,
          "time": 94.67441860465117,
          "velocity": 0.25984251968503935
        },
        {
          "duration": 0.05813953488372192,
          "durationTicks": 5,
          "midi": 88,
          "name": "E6",
          "ticks": 8143,
          "time": 94.68604651162791,
          "velocity": 0.14960629921259844
        },
        {
          "duration": 0.32558139534883423,
          "durationTicks": 28,
          "midi": 70,
          "name": "A#4",
          "ticks": 8144,
          "time": 94.69767441860465,
          "velocity": 0.4330708661417323
        },
        {
          "duration": 0.034883720930224626,
          "durationTicks": 3,
          "midi": 45,
          "name": "A2",
          "ticks": 8146,
          "time": 94.72093023255815,
          "velocity": 0.36220472440944884
        },
        {
          "duration": 0.2093023255813904,
          "durationTicks": 18,
          "midi": 53,
          "name": "F3",
          "ticks": 8146,
          "time": 94.72093023255815,
          "velocity": 0.29133858267716534
        },
        {
          "duration": 0.2093023255813904,
          "durationTicks": 18,
          "midi": 62,
          "name": "D4",
          "ticks": 8146,
          "time": 94.72093023255815,
          "velocity": 0.3228346456692913
        },
        {
          "duration": 0.24418604651161502,
          "durationTicks": 21,
          "midi": 67,
          "name": "G4",
          "ticks": 8146,
          "time": 94.72093023255815,
          "velocity": 0.3700787401574803
        },
        {
          "duration": 0.04651162790696617,
          "durationTicks": 4,
          "midi": 94,
          "name": "A#6",
          "ticks": 8146,
          "time": 94.72093023255815,
          "velocity": 0.08661417322834646
        },
        {
          "duration": 0.034883720930224626,
          "durationTicks": 3,
          "midi": 95,
          "name": "B6",
          "ticks": 8146,
          "time": 94.72093023255815,
          "velocity": 0.07086614173228346
        },
        {
          "duration": 0.19767441860464885,
          "durationTicks": 17,
          "midi": 58,
          "name": "A#3",
          "ticks": 8147,
          "time": 94.73255813953489,
          "velocity": 0.23622047244094488
        },
        {
          "duration": 0.03488372093023884,
          "durationTicks": 3,
          "midi": 46,
          "name": "A#2",
          "ticks": 8149,
          "time": 94.75581395348837,
          "velocity": 0.30708661417322836
        },
        {
          "duration": 0.16279069767442422,
          "durationTicks": 14,
          "midi": 87,
          "name": "D#6",
          "ticks": 8149,
          "time": 94.75581395348837,
          "velocity": 0.07874015748031496
        },
        {
          "duration": 0.03488372093023884,
          "durationTicks": 3,
          "midi": 46,
          "name": "A#2",
          "ticks": 8155,
          "time": 94.82558139534883,
          "velocity": 0.2047244094488189
        },
        {
          "duration": 0.09302325581394655,
          "durationTicks": 8,
          "midi": 46,
          "name": "A#2",
          "ticks": 8159,
          "time": 94.87209302325581,
          "velocity": 0.2440944881889764
        },
        {
          "duration": 0.023255813953483084,
          "durationTicks": 2,
          "midi": 80,
          "name": "G#5",
          "ticks": 8162,
          "time": 94.90697674418605,
          "velocity": 0.2283464566929134
        },
        {
          "duration": 0.2674418604651123,
          "durationTicks": 23,
          "midi": 84,
          "name": "C6",
          "ticks": 8163,
          "time": 94.9186046511628,
          "velocity": 0.3779527559055118
        },
        {
          "duration": 0.2674418604651123,
          "durationTicks": 23,
          "midi": 88,
          "name": "E6",
          "ticks": 8163,
          "time": 94.9186046511628,
          "velocity": 0.3228346456692913
        },
        {
          "duration": 0.16279069767441,
          "durationTicks": 14,
          "midi": 60,
          "name": "C4",
          "ticks": 8164,
          "time": 94.93023255813954,
          "velocity": 0.3779527559055118
        },
        {
          "duration": 0.3139534883720927,
          "durationTicks": 27,
          "midi": 79,
          "name": "G5",
          "ticks": 8164,
          "time": 94.93023255813954,
          "velocity": 0.3779527559055118
        },
        {
          "duration": 0.06976744186046346,
          "durationTicks": 6,
          "midi": 53,
          "name": "F3",
          "ticks": 8165,
          "time": 94.94186046511628,
          "velocity": 0.11023622047244094
        },
        {
          "duration": 0.10465116279068809,
          "durationTicks": 9,
          "midi": 69,
          "name": "A4",
          "ticks": 8174,
          "time": 95.04651162790698,
          "velocity": 0.16535433070866143
        },
        {
          "duration": 0.04651162790698038,
          "durationTicks": 4,
          "midi": 85,
          "name": "C#6",
          "ticks": 8176,
          "time": 95.06976744186046,
          "velocity": 0.08661417322834646
        },
        {
          "duration": 0.03488372093023884,
          "durationTicks": 3,
          "midi": 57,
          "name": "A3",
          "ticks": 8181,
          "time": 95.12790697674419,
          "velocity": 0.2204724409448819
        },
        {
          "duration": 0.7790697674418681,
          "durationTicks": 67,
          "midi": 81,
          "name": "A5",
          "ticks": 8182,
          "time": 95.13953488372093,
          "velocity": 0.2755905511811024
        },
        {
          "duration": 0.24418604651162923,
          "durationTicks": 21,
          "midi": 67,
          "name": "G4",
          "ticks": 8183,
          "time": 95.15116279069767,
          "velocity": 0.3779527559055118
        },
        {
          "duration": 0.32558139534884845,
          "durationTicks": 28,
          "midi": 70,
          "name": "A#4",
          "ticks": 8183,
          "time": 95.15116279069767,
          "velocity": 0.3858267716535433
        },
        {
          "duration": 0.45348837209303383,
          "durationTicks": 39,
          "midi": 77,
          "name": "F5",
          "ticks": 8183,
          "time": 95.15116279069767,
          "velocity": 0.4094488188976378
        },
        {
          "duration": 0.023255813953483084,
          "durationTicks": 2,
          "midi": 58,
          "name": "A#3",
          "ticks": 8184,
          "time": 95.16279069767442,
          "velocity": 0.25984251968503935
        },
        {
          "duration": 0.3139534883720927,
          "durationTicks": 27,
          "midi": 83,
          "name": "B5",
          "ticks": 8184,
          "time": 95.16279069767442,
          "velocity": 0.15748031496062992
        },
        {
          "duration": 0.22093023255813193,
          "durationTicks": 19,
          "midi": 62,
          "name": "D4",
          "ticks": 8185,
          "time": 95.17441860465117,
          "velocity": 0.2047244094488189
        },
        {
          "duration": 0.04651162790698038,
          "durationTicks": 4,
          "midi": 94,
          "name": "A#6",
          "ticks": 8185,
          "time": 95.17441860465117,
          "velocity": 0.07086614173228346
        },
        {
          "duration": 0.13953488372092693,
          "durationTicks": 12,
          "midi": 50,
          "name": "D3",
          "ticks": 8189,
          "time": 95.22093023255815,
          "velocity": 0.23622047244094488
        },
        {
          "duration": 0.15116279069766847,
          "durationTicks": 13,
          "midi": 58,
          "name": "A#3",
          "ticks": 8191,
          "time": 95.24418604651163,
          "velocity": 0.1968503937007874
        },
        {
          "duration": 0.3720930232558146,
          "durationTicks": 32,
          "midi": 89,
          "name": "F6",
          "ticks": 8191,
          "time": 95.24418604651163,
          "velocity": 0.4251968503937008
        },
        {
          "duration": 0.17441860465116577,
          "durationTicks": 15,
          "midi": 88,
          "name": "E6",
          "ticks": 8193,
          "time": 95.26744186046511,
          "velocity": 0.12598425196850394
        },
        {
          "duration": 0.06976744186047767,
          "durationTicks": 6,
          "midi": 80,
          "name": "G#5",
          "ticks": 8199,
          "time": 95.33720930232558,
          "velocity": 0.1732283464566929
        },
        {
          "duration": 0.12790697674418539,
          "durationTicks": 11,
          "midi": 65,
          "name": "F4",
          "ticks": 8204,
          "time": 95.3953488372093,
          "velocity": 0.30708661417322836
        },
        {
          "duration": 0.06976744186046346,
          "durationTicks": 6,
          "midi": 58,
          "name": "A#3",
          "ticks": 8205,
          "time": 95.40697674418605,
          "velocity": 0.07086614173228346
        },
        {
          "duration": 0.10465116279068809,
          "durationTicks": 9,
          "midi": 53,
          "name": "F3",
          "ticks": 8206,
          "time": 95.4186046511628,
          "velocity": 0.29133858267716534
        },
        {
          "duration": 0.11627906976744384,
          "durationTicks": 10,
          "midi": 67,
          "name": "G4",
          "ticks": 8214,
          "time": 95.51162790697674,
          "velocity": 0.2283464566929134
        },
        {
          "duration": 0.25581395348837077,
          "durationTicks": 22,
          "midi": 83,
          "name": "B5",
          "ticks": 8214,
          "time": 95.51162790697674,
          "velocity": 0.2755905511811024
        },
        {
          "duration": 0.023255813953483084,
          "durationTicks": 2,
          "midi": 65,
          "name": "F4",
          "ticks": 8222,
          "time": 95.6046511627907,
          "velocity": 0.28346456692913385
        },
        {
          "duration": 0.9069767441860392,
          "durationTicks": 78,
          "midi": 69,
          "name": "A4",
          "ticks": 8222,
          "time": 95.6046511627907,
          "velocity": 0.3464566929133858
        },
        {
          "duration": 0.3720930232558146,
          "durationTicks": 32,
          "midi": 73,
          "name": "C#5",
          "ticks": 8222,
          "time": 95.6046511627907,
          "velocity": 0.44881889763779526
        },
        {
          "duration": 0.36046511627905886,
          "durationTicks": 31,
          "midi": 76,
          "name": "E5",
          "ticks": 8222,
          "time": 95.6046511627907,
          "velocity": 0.31496062992125984
        },
        {
          "duration": 0.06976744186046346,
          "durationTicks": 6,
          "midi": 45,
          "name": "A2",
          "ticks": 8223,
          "time": 95.61627906976744,
          "velocity": 0.33070866141732286
        },
        {
          "duration": 0.11627906976744384,
          "durationTicks": 10,
          "midi": 52,
          "name": "E3",
          "ticks": 8223,
          "time": 95.61627906976744,
          "velocity": 0.23622047244094488
        },
        {
          "duration": 0.27906976744186807,
          "durationTicks": 24,
          "midi": 64,
          "name": "E4",
          "ticks": 8224,
          "time": 95.62790697674419,
          "velocity": 0.3543307086614173
        },
        {
          "duration": 0.05813953488372192,
          "durationTicks": 5,
          "midi": 71,
          "name": "B4",
          "ticks": 8224,
          "time": 95.62790697674419,
          "velocity": 0.25196850393700787
        },
        {
          "duration": 0.04651162790698038,
          "durationTicks": 4,
          "midi": 80,
          "name": "G#5",
          "ticks": 8225,
          "time": 95.63953488372093,
          "velocity": 0.07086614173228346
        },
        {
          "duration": 0.034883720930224626,
          "durationTicks": 3,
          "midi": 87,
          "name": "D#6",
          "ticks": 8228,
          "time": 95.67441860465117,
          "velocity": 0.07874015748031496
        },
        {
          "duration": 0.3720930232558146,
          "durationTicks": 32,
          "midi": 57,
          "name": "A3",
          "ticks": 8229,
          "time": 95.68604651162791,
          "velocity": 0.1968503937007874
        },
        {
          "duration": 0.04651162790698038,
          "durationTicks": 4,
          "midi": 45,
          "name": "A2",
          "ticks": 8230,
          "time": 95.69767441860465,
          "velocity": 0.31496062992125984
        },
        {
          "duration": 0.11627906976744384,
          "durationTicks": 10,
          "midi": 71,
          "name": "B4",
          "ticks": 8230,
          "time": 95.69767441860465,
          "velocity": 0.2204724409448819
        },
        {
          "duration": 0.081395348837205,
          "durationTicks": 7,
          "midi": 86,
          "name": "D6",
          "ticks": 8232,
          "time": 95.72093023255815,
          "velocity": 0.10236220472440945
        },
        {
          "duration": 0.16279069767442422,
          "durationTicks": 14,
          "midi": 52,
          "name": "E3",
          "ticks": 8234,
          "time": 95.74418604651163,
          "velocity": 0.16535433070866143
        },
        {
          "duration": 0.04651162790698038,
          "durationTicks": 4,
          "midi": 45,
          "name": "A2",
          "ticks": 8235,
          "time": 95.75581395348837,
          "velocity": 0.33070866141732286
        },
        {
          "duration": 0.023255813953483084,
          "durationTicks": 2,
          "midi": 45,
          "name": "A2",
          "ticks": 8240,
          "time": 95.81395348837209,
          "velocity": 0.3228346456692913
        },
        {
          "duration": 0.04651162790698038,
          "durationTicks": 4,
          "midi": 83,
          "name": "B5",
          "ticks": 8240,
          "time": 95.81395348837209,
          "velocity": 0.12598425196850394
        },
        {
          "duration": 0.06976744186046346,
          "durationTicks": 6,
          "midi": 71,
          "name": "B4",
          "ticks": 8241,
          "time": 95.82558139534883,
          "velocity": 0.15748031496062992
        },
        {
          "duration": 0.13953488372092693,
          "durationTicks": 12,
          "midi": 45,
          "name": "A2",
          "ticks": 8243,
          "time": 95.84883720930233,
          "velocity": 0.2755905511811024
        },
        {
          "duration": 0.2325581395348877,
          "durationTicks": 20,
          "midi": 64,
          "name": "E4",
          "ticks": 8261,
          "time": 96.05813953488372,
          "velocity": 0.36220472440944884
        },
        {
          "duration": 0.2325581395348877,
          "durationTicks": 20,
          "midi": 73,
          "name": "C#5",
          "ticks": 8261,
          "time": 96.05813953488372,
          "velocity": 0.44881889763779526
        },
        {
          "duration": 0.081395348837205,
          "durationTicks": 7,
          "midi": 52,
          "name": "E3",
          "ticks": 8262,
          "time": 96.06976744186046,
          "velocity": 0.25196850393700787
        },
        {
          "duration": 0.15116279069768268,
          "durationTicks": 13,
          "midi": 83,
          "name": "B5",
          "ticks": 8262,
          "time": 96.06976744186046,
          "velocity": 0.25984251968503935
        },
        {
          "duration": 0.2093023255814046,
          "durationTicks": 18,
          "midi": 45,
          "name": "A2",
          "ticks": 8263,
          "time": 96.0813953488372,
          "velocity": 0.41732283464566927
        },
        {
          "duration": 0.05813953488372192,
          "durationTicks": 5,
          "midi": 71,
          "name": "B4",
          "ticks": 8263,
          "time": 96.0813953488372,
          "velocity": 0.23622047244094488
        },
        {
          "duration": 0.05813953488372192,
          "durationTicks": 5,
          "midi": 86,
          "name": "D6",
          "ticks": 8263,
          "time": 96.0813953488372,
          "velocity": 0.15748031496062992
        },
        {
          "duration": 0.09302325581396076,
          "durationTicks": 8,
          "midi": 71,
          "name": "B4",
          "ticks": 8269,
          "time": 96.15116279069767,
          "velocity": 0.1889763779527559
        },
        {
          "duration": 0.05813953488372192,
          "durationTicks": 5,
          "midi": 52,
          "name": "E3",
          "ticks": 8270,
          "time": 96.16279069767442,
          "velocity": 0.2283464566929134
        },
        {
          "duration": 0.43023255813953654,
          "durationTicks": 37,
          "midi": 74,
          "name": "D5",
          "ticks": 8281,
          "time": 96.29069767441861,
          "velocity": 0.3700787401574803
        },
        {
          "duration": 0.5465116279069662,
          "durationTicks": 47,
          "midi": 77,
          "name": "F5",
          "ticks": 8281,
          "time": 96.29069767441861,
          "velocity": 0.3858267716535433
        },
        {
          "duration": 0.05813953488372192,
          "durationTicks": 5,
          "midi": 53,
          "name": "F3",
          "ticks": 8282,
          "time": 96.30232558139535,
          "velocity": 0.25196850393700787
        },
        {
          "duration": 0.1046511627907023,
          "durationTicks": 9,
          "midi": 62,
          "name": "D4",
          "ticks": 8282,
          "time": 96.30232558139535,
          "velocity": 0.2755905511811024
        },
        {
          "duration": 0.2093023255813904,
          "durationTicks": 18,
          "midi": 65,
          "name": "F4",
          "ticks": 8282,
          "time": 96.30232558139535,
          "velocity": 0.3228346456692913
        },
        {
          "duration": 0.15116279069766847,
          "durationTicks": 13,
          "midi": 84,
          "name": "C6",
          "ticks": 8282,
          "time": 96.30232558139535,
          "velocity": 0.2204724409448819
        },
        {
          "duration": 0.04651162790698038,
          "durationTicks": 4,
          "midi": 85,
          "name": "C#6",
          "ticks": 8282,
          "time": 96.30232558139535,
          "velocity": 0.13385826771653545
        },
        {
          "duration": 0.17441860465116577,
          "durationTicks": 15,
          "midi": 45,
          "name": "A2",
          "ticks": 8285,
          "time": 96.33720930232558,
          "velocity": 0.33070866141732286
        },
        {
          "duration": 0.06976744186047767,
          "durationTicks": 6,
          "midi": 87,
          "name": "D#6",
          "ticks": 8285,
          "time": 96.33720930232558,
          "velocity": 0.12598425196850394
        },
        {
          "duration": 0.06976744186046346,
          "durationTicks": 6,
          "midi": 72,
          "name": "C5",
          "ticks": 8286,
          "time": 96.34883720930233,
          "velocity": 0.16535433070866143
        },
        {
          "duration": 0.03488372093023884,
          "durationTicks": 3,
          "midi": 85,
          "name": "C#6",
          "ticks": 8290,
          "time": 96.3953488372093,
          "velocity": 0.07874015748031496
        },
        {
          "duration": 0.023255813953497295,
          "durationTicks": 2,
          "midi": 61,
          "name": "C#4",
          "ticks": 8300,
          "time": 96.51162790697674,
          "velocity": 0.29133858267716534
        },
        {
          "duration": 0.023255813953497295,
          "durationTicks": 2,
          "midi": 66,
          "name": "F#4",
          "ticks": 8300,
          "time": 96.51162790697674,
          "velocity": 0.2283464566929134
        },
        {
          "duration": 0.40697674418605345,
          "durationTicks": 35,
          "midi": 81,
          "name": "A5",
          "ticks": 8300,
          "time": 96.51162790697674,
          "velocity": 0.31496062992125984
        },
        {
          "duration": 0.1860465116279073,
          "durationTicks": 16,
          "midi": 84,
          "name": "C6",
          "ticks": 8300,
          "time": 96.51162790697674,
          "velocity": 0.31496062992125984
        },
        {
          "duration": 0.2674418604651265,
          "durationTicks": 23,
          "midi": 72,
          "name": "C5",
          "ticks": 8301,
          "time": 96.52325581395348,
          "velocity": 0.3779527559055118
        },
        {
          "duration": 0.03488372093023884,
          "durationTicks": 3,
          "midi": 79,
          "name": "G5",
          "ticks": 8301,
          "time": 96.52325581395348,
          "velocity": 0.07086614173228346
        },
        {
          "duration": 0.05813953488372192,
          "durationTicks": 5,
          "midi": 91,
          "name": "G6",
          "ticks": 8301,
          "time": 96.52325581395348,
          "velocity": 0.12598425196850394
        },
        {
          "duration": 0.12790697674418539,
          "durationTicks": 11,
          "midi": 92,
          "name": "G#6",
          "ticks": 8301,
          "time": 96.52325581395348,
          "velocity": 0.15748031496062992
        },
        {
          "duration": 0.5581395348837077,
          "durationTicks": 48,
          "midi": 60,
          "name": "C4",
          "ticks": 8302,
          "time": 96.53488372093024,
          "velocity": 0.3779527559055118
        },
        {
          "duration": 0.22093023255813193,
          "durationTicks": 19,
          "midi": 65,
          "name": "F4",
          "ticks": 8302,
          "time": 96.53488372093024,
          "velocity": 0.2992125984251969
        },
        {
          "duration": 0.034883720930224626,
          "durationTicks": 3,
          "midi": 47,
          "name": "B2",
          "ticks": 8303,
          "time": 96.54651162790698,
          "velocity": 0.16535433070866143
        },
        {
          "duration": 0.04651162790698038,
          "durationTicks": 4,
          "midi": 88,
          "name": "E6",
          "ticks": 8304,
          "time": 96.55813953488372,
          "velocity": 0.10236220472440945
        },
        {
          "duration": 0.023255813953483084,
          "durationTicks": 2,
          "midi": 55,
          "name": "G3",
          "ticks": 8305,
          "time": 96.56976744186046,
          "velocity": 0.2283464566929134
        },
        {
          "duration": 0.16279069767442422,
          "durationTicks": 14,
          "midi": 79,
          "name": "G5",
          "ticks": 8310,
          "time": 96.62790697674419,
          "velocity": 0.3858267716535433
        },
        {
          "duration": 0.04651162790698038,
          "durationTicks": 4,
          "midi": 88,
          "name": "E6",
          "ticks": 8312,
          "time": 96.65116279069767,
          "velocity": 0.10236220472440945
        },
        {
          "duration": 0.05813953488372192,
          "durationTicks": 5,
          "midi": 69,
          "name": "A4",
          "ticks": 8315,
          "time": 96.68604651162791,
          "velocity": 0.07874015748031496
        },
        {
          "duration": 0.09302325581394655,
          "durationTicks": 8,
          "midi": 92,
          "name": "G#6",
          "ticks": 8320,
          "time": 96.74418604651163,
          "velocity": 0.16535433070866143
        },
        {
          "duration": 0.03488372093023884,
          "durationTicks": 3,
          "midi": 48,
          "name": "C3",
          "ticks": 8321,
          "time": 96.75581395348837,
          "velocity": 0.2677165354330709
        },
        {
          "duration": 1.8372093023255758,
          "durationTicks": 158,
          "midi": 67,
          "name": "G4",
          "ticks": 8321,
          "time": 96.75581395348837,
          "velocity": 0.36220472440944884
        },
        {
          "duration": 1.581395348837205,
          "durationTicks": 136,
          "midi": 74,
          "name": "D5",
          "ticks": 8321,
          "time": 96.75581395348837,
          "velocity": 0.2047244094488189
        },
        {
          "duration": 0.03488372093023884,
          "durationTicks": 3,
          "midi": 83,
          "name": "B5",
          "ticks": 8321,
          "time": 96.75581395348837,
          "velocity": 0.14173228346456693
        },
        {
          "duration": 0.04651162790698038,
          "durationTicks": 4,
          "midi": 52,
          "name": "E3",
          "ticks": 8323,
          "time": 96.77906976744185,
          "velocity": 0.23622047244094488
        },
        {
          "duration": 0.1860465116279073,
          "durationTicks": 16,
          "midi": 64,
          "name": "E4",
          "ticks": 8323,
          "time": 96.77906976744185,
          "velocity": 0.33858267716535434
        },
        {
          "duration": 0.03488372093023884,
          "durationTicks": 3,
          "midi": 80,
          "name": "G#5",
          "ticks": 8323,
          "time": 96.77906976744185,
          "velocity": 0.28346456692913385
        },
        {
          "duration": 0.16279069767442422,
          "durationTicks": 14,
          "midi": 83,
          "name": "B5",
          "ticks": 8326,
          "time": 96.81395348837209,
          "velocity": 0.15748031496062992
        },
        {
          "duration": 0.04651162790698038,
          "durationTicks": 4,
          "midi": 88,
          "name": "E6",
          "ticks": 8326,
          "time": 96.81395348837209,
          "velocity": 0.07874015748031496
        },
        {
          "duration": 0.023255813953497295,
          "durationTicks": 2,
          "midi": 52,
          "name": "E3",
          "ticks": 8328,
          "time": 96.83720930232558,
          "velocity": 0.2283464566929134
        },
        {
          "duration": 0.05813953488372192,
          "durationTicks": 5,
          "midi": 80,
          "name": "G#5",
          "ticks": 8338,
          "time": 96.95348837209302,
          "velocity": 0.12598425196850394
        },
        {
          "duration": 0.03488372093023884,
          "durationTicks": 3,
          "midi": 77,
          "name": "F5",
          "ticks": 8339,
          "time": 96.96511627906976,
          "velocity": 0.12598425196850394
        },
        {
          "duration": 0.034883720930224626,
          "durationTicks": 3,
          "midi": 65,
          "name": "F4",
          "ticks": 8340,
          "time": 96.97674418604652,
          "velocity": 0.2125984251968504
        },
        {
          "duration": 0.4418604651162781,
          "durationTicks": 38,
          "midi": 82,
          "name": "A#5",
          "ticks": 8340,
          "time": 96.97674418604652,
          "velocity": 0.3858267716535433
        },
        {
          "duration": 0.2674418604651265,
          "durationTicks": 23,
          "midi": 76,
          "name": "E5",
          "ticks": 8344,
          "time": 97.02325581395348,
          "velocity": 0.2125984251968504
        },
        {
          "duration": 0.16279069767441,
          "durationTicks": 14,
          "midi": 64,
          "name": "E4",
          "ticks": 8346,
          "time": 97.04651162790698,
          "velocity": 0.2677165354330709
        },
        {
          "duration": 0.04651162790698038,
          "durationTicks": 4,
          "midi": 83,
          "name": "B5",
          "ticks": 8347,
          "time": 97.05813953488372,
          "velocity": 0.15748031496062992
        },
        {
          "duration": 0.11627906976744384,
          "durationTicks": 10,
          "midi": 93,
          "name": "A6",
          "ticks": 8350,
          "time": 97.09302325581395,
          "velocity": 0.18110236220472442
        },
        {
          "duration": 0.09302325581394655,
          "durationTicks": 8,
          "midi": 81,
          "name": "A5",
          "ticks": 8352,
          "time": 97.11627906976744,
          "velocity": 0.25196850393700787
        },
        {
          "duration": 0.04651162790696617,
          "durationTicks": 4,
          "midi": 83,
          "name": "B5",
          "ticks": 8356,
          "time": 97.16279069767442,
          "velocity": 0.12598425196850394
        },
        {
          "duration": 0.2906976744186096,
          "durationTicks": 25,
          "midi": 90,
          "name": "F#6",
          "ticks": 8359,
          "time": 97.19767441860465,
          "velocity": 0.14173228346456693
        },
        {
          "duration": 0.22093023255813193,
          "durationTicks": 19,
          "midi": 64,
          "name": "E4",
          "ticks": 8361,
          "time": 97.22093023255815,
          "velocity": 0.2755905511811024
        },
        {
          "duration": 0.023255813953483084,
          "durationTicks": 2,
          "midi": 53,
          "name": "F3",
          "ticks": 8362,
          "time": 97.23255813953489,
          "velocity": 0.28346456692913385
        },
        {
          "duration": 0.023255813953483084,
          "durationTicks": 2,
          "midi": 55,
          "name": "G3",
          "ticks": 8363,
          "time": 97.24418604651163,
          "velocity": 0.2755905511811024
        },
        {
          "duration": 0.034883720930224626,
          "durationTicks": 3,
          "midi": 60,
          "name": "C4",
          "ticks": 8363,
          "time": 97.24418604651163,
          "velocity": 0.11023622047244094
        },
        {
          "duration": 0.2325581395348877,
          "durationTicks": 20,
          "midi": 83,
          "name": "B5",
          "ticks": 8365,
          "time": 97.26744186046511,
          "velocity": 0.4015748031496063
        },
        {
          "duration": 0.08139534883721922,
          "durationTicks": 7,
          "midi": 55,
          "name": "G3",
          "ticks": 8366,
          "time": 97.27906976744185,
          "velocity": 0.28346456692913385
        },
        {
          "duration": 0.3720930232558146,
          "durationTicks": 32,
          "midi": 60,
          "name": "C4",
          "ticks": 8367,
          "time": 97.29069767441861,
          "velocity": 0.1968503937007874
        },
        {
          "duration": 0.11627906976744384,
          "durationTicks": 10,
          "midi": 55,
          "name": "G3",
          "ticks": 8374,
          "time": 97.37209302325581,
          "velocity": 0.23622047244094488
        },
        {
          "duration": 0.48837209302325846,
          "durationTicks": 42,
          "midi": 84,
          "name": "C6",
          "ticks": 8378,
          "time": 97.4186046511628,
          "velocity": 0.3779527559055118
        },
        {
          "duration": 0.04651162790698038,
          "durationTicks": 4,
          "midi": 82,
          "name": "A#5",
          "ticks": 8379,
          "time": 97.43023255813954,
          "velocity": 0.1889763779527559
        },
        {
          "duration": 0.8953488372092977,
          "durationTicks": 77,
          "midi": 89,
          "name": "F6",
          "ticks": 8380,
          "time": 97.44186046511628,
          "velocity": 0.11811023622047244
        },
        {
          "duration": 0.17441860465116577,
          "durationTicks": 15,
          "midi": 64,
          "name": "E4",
          "ticks": 8384,
          "time": 97.48837209302326,
          "velocity": 0.23622047244094488
        },
        {
          "duration": 0.03488372093023884,
          "durationTicks": 3,
          "midi": 82,
          "name": "A#5",
          "ticks": 8386,
          "time": 97.51162790697674,
          "velocity": 0.11023622047244094
        },
        {
          "duration": 0.15116279069768268,
          "durationTicks": 13,
          "midi": 83,
          "name": "B5",
          "ticks": 8387,
          "time": 97.52325581395348,
          "velocity": 0.36220472440944884
        },
        {
          "duration": 0.03488372093023884,
          "durationTicks": 3,
          "midi": 90,
          "name": "F#6",
          "ticks": 8387,
          "time": 97.52325581395348,
          "velocity": 0.08661417322834646
        },
        {
          "duration": 0.03488372093023884,
          "durationTicks": 3,
          "midi": 55,
          "name": "G3",
          "ticks": 8392,
          "time": 97.5813953488372,
          "velocity": 0.2047244094488189
        },
        {
          "duration": 0.03488372093023884,
          "durationTicks": 3,
          "midi": 82,
          "name": "A#5",
          "ticks": 8392,
          "time": 97.5813953488372,
          "velocity": 0.07086614173228346
        },
        {
          "duration": 0.09302325581396076,
          "durationTicks": 8,
          "midi": 48,
          "name": "C3",
          "ticks": 8397,
          "time": 97.63953488372093,
          "velocity": 0.31496062992125984
        },
        {
          "duration": 0.15116279069768268,
          "durationTicks": 13,
          "midi": 82,
          "name": "A#5",
          "ticks": 8398,
          "time": 97.65116279069767,
          "velocity": 0.15748031496062992
        },
        {
          "duration": 0.2325581395348877,
          "durationTicks": 20,
          "midi": 90,
          "name": "F#6",
          "ticks": 8398,
          "time": 97.65116279069767,
          "velocity": 0.15748031496062992
        },
        {
          "duration": 0.2093023255813904,
          "durationTicks": 18,
          "midi": 64,
          "name": "E4",
          "ticks": 8400,
          "time": 97.67441860465117,
          "velocity": 0.2992125984251969
        },
        {
          "duration": 0.023255813953483084,
          "durationTicks": 2,
          "midi": 55,
          "name": "G3",
          "ticks": 8401,
          "time": 97.68604651162791,
          "velocity": 0.25984251968503935
        },
        {
          "duration": 0.04651162790698038,
          "durationTicks": 4,
          "midi": 72,
          "name": "C5",
          "ticks": 8401,
          "time": 97.68604651162791,
          "velocity": 0.08661417322834646
        },
        {
          "duration": 0.04651162790696617,
          "durationTicks": 4,
          "midi": 83,
          "name": "B5",
          "ticks": 8404,
          "time": 97.72093023255815,
          "velocity": 0.13385826771653545
        },
        {
          "duration": 0.1860465116279073,
          "durationTicks": 16,
          "midi": 48,
          "name": "C3",
          "ticks": 8407,
          "time": 97.75581395348837,
          "velocity": 0.28346456692913385
        },
        {
          "duration": 0.17441860465116577,
          "durationTicks": 15,
          "midi": 55,
          "name": "G3",
          "ticks": 8407,
          "time": 97.75581395348837,
          "velocity": 0.2440944881889764
        },
        {
          "duration": 0.43023255813953654,
          "durationTicks": 37,
          "midi": 85,
          "name": "C#6",
          "ticks": 8408,
          "time": 97.76744186046511,
          "velocity": 0.33858267716535434
        },
        {
          "duration": 0.27906976744186807,
          "durationTicks": 24,
          "midi": 83,
          "name": "B5",
          "ticks": 8418,
          "time": 97.88372093023256,
          "velocity": 0.1968503937007874
        },
        {
          "duration": 0.4767441860465169,
          "durationTicks": 41,
          "midi": 86,
          "name": "D6",
          "ticks": 8418,
          "time": 97.88372093023256,
          "velocity": 0.3464566929133858
        },
        {
          "duration": 0.034883720930224626,
          "durationTicks": 3,
          "midi": 82,
          "name": "A#5",
          "ticks": 8420,
          "time": 97.90697674418605,
          "velocity": 0.07086614173228346
        },
        {
          "duration": 0.034883720930224626,
          "durationTicks": 3,
          "midi": 90,
          "name": "F#6",
          "ticks": 8420,
          "time": 97.90697674418605,
          "velocity": 0.12598425196850394
        },
        {
          "duration": 0.1860465116279073,
          "durationTicks": 16,
          "midi": 64,
          "name": "E4",
          "ticks": 8422,
          "time": 97.93023255813954,
          "velocity": 0.23622047244094488
        },
        {
          "duration": 0.16279069767442422,
          "durationTicks": 14,
          "midi": 55,
          "name": "G3",
          "ticks": 8423,
          "time": 97.94186046511628,
          "velocity": 0.2047244094488189
        },
        {
          "duration": 0.034883720930224626,
          "durationTicks": 3,
          "midi": 90,
          "name": "F#6",
          "ticks": 8426,
          "time": 97.97674418604652,
          "velocity": 0.12598425196850394
        },
        {
          "duration": 0.13953488372092693,
          "durationTicks": 12,
          "midi": 48,
          "name": "C3",
          "ticks": 8427,
          "time": 97.98837209302326,
          "velocity": 0.25984251968503935
        },
        {
          "duration": 0.034883720930224626,
          "durationTicks": 3,
          "midi": 90,
          "name": "F#6",
          "ticks": 8432,
          "time": 98.04651162790698,
          "velocity": 0.11023622047244094
        },
        {
          "duration": 0.2674418604651265,
          "durationTicks": 23,
          "midi": 82,
          "name": "A#5",
          "ticks": 8435,
          "time": 98.0813953488372,
          "velocity": 0.14173228346456693
        },
        {
          "duration": 0.17441860465115155,
          "durationTicks": 15,
          "midi": 90,
          "name": "F#6",
          "ticks": 8437,
          "time": 98.1046511627907,
          "velocity": 0.1732283464566929
        },
        {
          "duration": 0.081395348837205,
          "durationTicks": 7,
          "midi": 76,
          "name": "E5",
          "ticks": 8438,
          "time": 98.11627906976744,
          "velocity": 0.1968503937007874
        },
        {
          "duration": 0.2093023255813904,
          "durationTicks": 18,
          "midi": 64,
          "name": "E4",
          "ticks": 8439,
          "time": 98.12790697674419,
          "velocity": 0.33070866141732286
        },
        {
          "duration": 0.04651162790698038,
          "durationTicks": 4,
          "midi": 48,
          "name": "C3",
          "ticks": 8440,
          "time": 98.13953488372093,
          "velocity": 0.25196850393700787
        },
        {
          "duration": 0.2093023255814046,
          "durationTicks": 18,
          "midi": 55,
          "name": "G3",
          "ticks": 8440,
          "time": 98.13953488372093,
          "velocity": 0.30708661417322836
        },
        {
          "duration": 0.04651162790698038,
          "durationTicks": 4,
          "midi": 72,
          "name": "C5",
          "ticks": 8440,
          "time": 98.13953488372093,
          "velocity": 0.08661417322834646
        },
        {
          "duration": 0.06976744186046346,
          "durationTicks": 6,
          "midi": 60,
          "name": "C4",
          "ticks": 8444,
          "time": 98.18604651162791,
          "velocity": 0.07086614173228346
        },
        {
          "duration": 0.05813953488372192,
          "durationTicks": 5,
          "midi": 83,
          "name": "B5",
          "ticks": 8445,
          "time": 98.19767441860465,
          "velocity": 0.13385826771653545
        },
        {
          "duration": 0.19767441860466306,
          "durationTicks": 17,
          "midi": 48,
          "name": "C3",
          "ticks": 8446,
          "time": 98.20930232558139,
          "velocity": 0.2677165354330709
        },
        {
          "duration": 0.17441860465115155,
          "durationTicks": 15,
          "midi": 87,
          "name": "D#6",
          "ticks": 8447,
          "time": 98.22093023255815,
          "velocity": 0.3464566929133858
        },
        {
          "duration": 0.7209302325581461,
          "durationTicks": 62,
          "midi": 76,
          "name": "E5",
          "ticks": 8450,
          "time": 98.25581395348837,
          "velocity": 0.3937007874015748
        },
        {
          "duration": 0.04651162790698038,
          "durationTicks": 4,
          "midi": 83,
          "name": "B5",
          "ticks": 8454,
          "time": 98.30232558139535,
          "velocity": 0.1968503937007874
        },
        {
          "duration": 0.034883720930224626,
          "durationTicks": 3,
          "midi": 90,
          "name": "F#6",
          "ticks": 8454,
          "time": 98.30232558139535,
          "velocity": 0.11811023622047244
        },
        {
          "duration": 0.5348837209302388,
          "durationTicks": 46,
          "midi": 79,
          "name": "G5",
          "ticks": 8456,
          "time": 98.32558139534883,
          "velocity": 0.4330708661417323
        },
        {
          "duration": 0.33720930232559,
          "durationTicks": 29,
          "midi": 72,
          "name": "C5",
          "ticks": 8457,
          "time": 98.33720930232558,
          "velocity": 0.41732283464566927
        },
        {
          "duration": 0.418604651162795,
          "durationTicks": 36,
          "midi": 88,
          "name": "E6",
          "ticks": 8457,
          "time": 98.33720930232558,
          "velocity": 0.4566929133858268
        },
        {
          "duration": 0.5581395348837219,
          "durationTicks": 48,
          "midi": 60,
          "name": "C4",
          "ticks": 8458,
          "time": 98.34883720930233,
          "velocity": 0.36220472440944884
        },
        {
          "duration": 1.1511627906976685,
          "durationTicks": 99,
          "midi": 64,
          "name": "E4",
          "ticks": 8458,
          "time": 98.34883720930233,
          "velocity": 0.3779527559055118
        },
        {
          "duration": 0.05813953488372192,
          "durationTicks": 5,
          "midi": 55,
          "name": "G3",
          "ticks": 8461,
          "time": 98.38372093023256,
          "velocity": 0.14960629921259844
        },
        {
          "duration": 0.06976744186046346,
          "durationTicks": 6,
          "midi": 89,
          "name": "F6",
          "ticks": 8462,
          "time": 98.3953488372093,
          "velocity": 0.07086614173228346
        },
        {
          "duration": 1.023255813953483,
          "durationTicks": 88,
          "midi": 74,
          "name": "D5",
          "ticks": 8465,
          "time": 98.43023255813954,
          "velocity": 0.2125984251968504
        },
        {
          "duration": 0.04651162790698038,
          "durationTicks": 4,
          "midi": 83,
          "name": "B5",
          "ticks": 8466,
          "time": 98.44186046511628,
          "velocity": 0.07874015748031496
        },
        {
          "duration": 0.2674418604651265,
          "durationTicks": 23,
          "midi": 87,
          "name": "D#6",
          "ticks": 8467,
          "time": 98.45348837209302,
          "velocity": 0.3464566929133858
        },
        {
          "duration": 0.3953488372092977,
          "durationTicks": 34,
          "midi": 83,
          "name": "B5",
          "ticks": 8477,
          "time": 98.56976744186046,
          "velocity": 0.18110236220472442
        },
        {
          "duration": 0.03488372093023884,
          "durationTicks": 3,
          "midi": 48,
          "name": "C3",
          "ticks": 8478,
          "time": 98.5813953488372,
          "velocity": 0.2755905511811024
        },
        {
          "duration": 0.03488372093023884,
          "durationTicks": 3,
          "midi": 90,
          "name": "F#6",
          "ticks": 8478,
          "time": 98.5813953488372,
          "velocity": 0.07086614173228346
        },
        {
          "duration": 0.8023255813953512,
          "durationTicks": 69,
          "midi": 67,
          "name": "G4",
          "ticks": 8481,
          "time": 98.61627906976744,
          "velocity": 0.3543307086614173
        },
        {
          "duration": 0.8604651162790731,
          "durationTicks": 74,
          "midi": 89,
          "name": "F6",
          "ticks": 8486,
          "time": 98.67441860465117,
          "velocity": 0.4409448818897638
        },
        {
          "duration": 0.09302325581396076,
          "durationTicks": 8,
          "midi": 48,
          "name": "C3",
          "ticks": 8489,
          "time": 98.70930232558139,
          "velocity": 0.23622047244094488
        },
        {
          "duration": 0.16279069767441,
          "durationTicks": 14,
          "midi": 90,
          "name": "F#6",
          "ticks": 8496,
          "time": 98.79069767441861,
          "velocity": 0.2440944881889764
        },
        {
          "duration": 0.023255813953483084,
          "durationTicks": 2,
          "midi": 47,
          "name": "B2",
          "ticks": 8497,
          "time": 98.80232558139535,
          "velocity": 0.23622047244094488
        },
        {
          "duration": 0.09302325581394655,
          "durationTicks": 8,
          "midi": 82,
          "name": "A#5",
          "ticks": 8501,
          "time": 98.84883720930233,
          "velocity": 0.07874015748031496
        },
        {
          "duration": 0.3953488372093119,
          "durationTicks": 34,
          "midi": 83,
          "name": "B5",
          "ticks": 8515,
          "time": 99.01162790697674,
          "velocity": 0.2440944881889764
        },
        {
          "duration": 0.2325581395348877,
          "durationTicks": 20,
          "midi": 90,
          "name": "F#6",
          "ticks": 8515,
          "time": 99.01162790697674,
          "velocity": 0.4251968503937008
        },
        {
          "duration": 0.034883720930224626,
          "durationTicks": 3,
          "midi": 53,
          "name": "F3",
          "ticks": 8518,
          "time": 99.04651162790698,
          "velocity": 0.31496062992125984
        },
        {
          "duration": 0.05813953488372192,
          "durationTicks": 5,
          "midi": 71,
          "name": "B4",
          "ticks": 8518,
          "time": 99.04651162790698,
          "velocity": 0.08661417322834646
        },
        {
          "duration": 0.7674418604651265,
          "durationTicks": 66,
          "midi": 60,
          "name": "C4",
          "ticks": 8521,
          "time": 99.0813953488372,
          "velocity": 0.31496062992125984
        },
        {
          "duration": 0.034883720930224626,
          "durationTicks": 3,
          "midi": 52,
          "name": "E3",
          "ticks": 8523,
          "time": 99.1046511627907,
          "velocity": 0.30708661417322836
        },
        {
          "duration": 1.3372093023255758,
          "durationTicks": 115,
          "midi": 76,
          "name": "E5",
          "ticks": 8525,
          "time": 99.12790697674419,
          "velocity": 0.4015748031496063
        },
        {
          "duration": 0.5348837209302388,
          "durationTicks": 46,
          "midi": 91,
          "name": "G6",
          "ticks": 8525,
          "time": 99.12790697674419,
          "velocity": 0.3700787401574803
        },
        {
          "duration": 0.1046511627907023,
          "durationTicks": 9,
          "midi": 71,
          "name": "B4",
          "ticks": 8527,
          "time": 99.15116279069767,
          "velocity": 0.28346456692913385
        },
        {
          "duration": 0.5348837209302246,
          "durationTicks": 46,
          "midi": 79,
          "name": "G5",
          "ticks": 8535,
          "time": 99.24418604651163,
          "velocity": 0.4330708661417323
        },
        {
          "duration": 0.11627906976744384,
          "durationTicks": 10,
          "midi": 82,
          "name": "A#5",
          "ticks": 8535,
          "time": 99.24418604651163,
          "velocity": 0.13385826771653545
        },
        {
          "duration": 0.2906976744186096,
          "durationTicks": 25,
          "midi": 84,
          "name": "C6",
          "ticks": 8535,
          "time": 99.24418604651163,
          "velocity": 0.3700787401574803
        },
        {
          "duration": 0.5232558139534831,
          "durationTicks": 45,
          "midi": 92,
          "name": "G#6",
          "ticks": 8535,
          "time": 99.24418604651163,
          "velocity": 0.3543307086614173
        },
        {
          "duration": 0.3139534883720927,
          "durationTicks": 27,
          "midi": 72,
          "name": "C5",
          "ticks": 8536,
          "time": 99.25581395348837,
          "velocity": 0.4251968503937008
        },
        {
          "duration": 0.17441860465116577,
          "durationTicks": 15,
          "midi": 83,
          "name": "B5",
          "ticks": 8551,
          "time": 99.43023255813954,
          "velocity": 0.14960629921259844
        },
        {
          "duration": 0.7441860465116292,
          "durationTicks": 64,
          "midi": 67,
          "name": "G4",
          "ticks": 8553,
          "time": 99.45348837209302,
          "velocity": 0.3858267716535433
        },
        {
          "duration": 0.24418604651162923,
          "durationTicks": 21,
          "midi": 86,
          "name": "D6",
          "ticks": 8555,
          "time": 99.47674418604652,
          "velocity": 0.1732283464566929
        },
        {
          "duration": 0.1860465116279073,
          "durationTicks": 16,
          "midi": 74,
          "name": "D5",
          "ticks": 8558,
          "time": 99.51162790697674,
          "velocity": 0.10236220472440945
        },
        {
          "duration": 0.023255813953497295,
          "durationTicks": 2,
          "midi": 52,
          "name": "E3",
          "ticks": 8559,
          "time": 99.52325581395348,
          "velocity": 0.2992125984251969
        },
        {
          "duration": 0.5930232558139465,
          "durationTicks": 51,
          "midi": 64,
          "name": "E4",
          "ticks": 8562,
          "time": 99.55813953488372,
          "velocity": 0.33858267716535434
        },
        {
          "duration": 0.023255813953497295,
          "durationTicks": 2,
          "midi": 52,
          "name": "E3",
          "ticks": 8564,
          "time": 99.5813953488372,
          "velocity": 0.29133858267716534
        },
        {
          "duration": 0.06976744186046346,
          "durationTicks": 6,
          "midi": 82,
          "name": "A#5",
          "ticks": 8564,
          "time": 99.5813953488372,
          "velocity": 0.07086614173228346
        },
        {
          "duration": 0.15116279069768268,
          "durationTicks": 13,
          "midi": 93,
          "name": "A6",
          "ticks": 8564,
          "time": 99.5813953488372,
          "velocity": 0.4015748031496063
        },
        {
          "duration": 0.023255813953483084,
          "durationTicks": 2,
          "midi": 52,
          "name": "E3",
          "ticks": 8567,
          "time": 99.61627906976744,
          "velocity": 0.25196850393700787
        },
        {
          "duration": 0.2674418604651123,
          "durationTicks": 23,
          "midi": 71,
          "name": "B4",
          "ticks": 8568,
          "time": 99.62790697674419,
          "velocity": 0.11811023622047244
        },
        {
          "duration": 0.05813953488372192,
          "durationTicks": 5,
          "midi": 83,
          "name": "B5",
          "ticks": 8570,
          "time": 99.65116279069767,
          "velocity": 0.12598425196850394
        },
        {
          "duration": 0.2093023255813904,
          "durationTicks": 18,
          "midi": 89,
          "name": "F6",
          "ticks": 8571,
          "time": 99.66279069767442,
          "velocity": 0.11811023622047244
        },
        {
          "duration": 0.15116279069768268,
          "durationTicks": 13,
          "midi": 94,
          "name": "A#6",
          "ticks": 8574,
          "time": 99.69767441860465,
          "velocity": 0.3937007874015748
        },
        {
          "duration": 0.023255813953483084,
          "durationTicks": 2,
          "midi": 48,
          "name": "C3",
          "ticks": 8576,
          "time": 99.72093023255815,
          "velocity": 0.25984251968503935
        },
        {
          "duration": 0.05813953488372192,
          "durationTicks": 5,
          "midi": 83,
          "name": "B5",
          "ticks": 8579,
          "time": 99.75581395348837,
          "velocity": 0.11811023622047244
        },
        {
          "duration": 0.15116279069768268,
          "durationTicks": 13,
          "midi": 52,
          "name": "E3",
          "ticks": 8581,
          "time": 99.77906976744185,
          "velocity": 0.2125984251968504
        },
        {
          "duration": 0.17441860465116577,
          "durationTicks": 15,
          "midi": 93,
          "name": "A6",
          "ticks": 8583,
          "time": 99.80232558139535,
          "velocity": 0.4015748031496063
        },
        {
          "duration": 0.09302325581396076,
          "durationTicks": 8,
          "midi": 83,
          "name": "B5",
          "ticks": 8590,
          "time": 99.88372093023256,
          "velocity": 0.11811023622047244
        },
        {
          "duration": 0.17441860465115155,
          "durationTicks": 15,
          "midi": 94,
          "name": "A#6",
          "ticks": 8593,
          "time": 99.9186046511628,
          "velocity": 0.4094488188976378
        },
        {
          "duration": 0.2325581395348877,
          "durationTicks": 20,
          "midi": 71,
          "name": "B4",
          "ticks": 8594,
          "time": 99.93023255813954,
          "velocity": 0.14960629921259844
        },
        {
          "duration": 0.034883720930224626,
          "durationTicks": 3,
          "midi": 90,
          "name": "F#6",
          "ticks": 8594,
          "time": 99.93023255813954,
          "velocity": 0.10236220472440945
        },
        {
          "duration": 0.03488372093023884,
          "durationTicks": 3,
          "midi": 55,
          "name": "G3",
          "ticks": 8595,
          "time": 99.94186046511628,
          "velocity": 0.25984251968503935
        },
        {
          "duration": 0.24418604651162923,
          "durationTicks": 21,
          "midi": 89,
          "name": "F6",
          "ticks": 8595,
          "time": 99.94186046511628,
          "velocity": 0.11811023622047244
        },
        {
          "duration": 0.023255813953497295,
          "durationTicks": 2,
          "midi": 48,
          "name": "C3",
          "ticks": 8596,
          "time": 99.95348837209302,
          "velocity": 0.25984251968503935
        },
        {
          "duration": 0.15116279069766847,
          "durationTicks": 13,
          "midi": 82,
          "name": "A#5",
          "ticks": 8598,
          "time": 99.97674418604652,
          "velocity": 0.09448818897637795
        },
        {
          "duration": 0.023255813953497295,
          "durationTicks": 2,
          "midi": 51,
          "name": "D#3",
          "ticks": 8601,
          "time": 100.01162790697674,
          "velocity": 0.2677165354330709
        },
        {
          "duration": 0.22093023255813193,
          "durationTicks": 19,
          "midi": 95,
          "name": "B6",
          "ticks": 8603,
          "time": 100.03488372093024,
          "velocity": 0.33858267716535434
        },
        {
          "duration": 0.10465116279068809,
          "durationTicks": 9,
          "midi": 90,
          "name": "F#6",
          "ticks": 8604,
          "time": 100.04651162790698,
          "velocity": 0.11811023622047244
        },
        {
          "duration": 0.06976744186046346,
          "durationTicks": 6,
          "midi": 55,
          "name": "G3",
          "ticks": 8610,
          "time": 100.11627906976744,
          "velocity": 0.2047244094488189
        },
        {
          "duration": 0.04651162790698038,
          "durationTicks": 4,
          "midi": 83,
          "name": "B5",
          "ticks": 8611,
          "time": 100.12790697674419,
          "velocity": 0.15748031496062992
        },
        {
          "duration": 0.6511627906976827,
          "durationTicks": 56,
          "midi": 81,
          "name": "A5",
          "ticks": 8613,
          "time": 100.15116279069767,
          "velocity": 0.30708661417322836
        },
        {
          "duration": 0.2906976744186096,
          "durationTicks": 25,
          "midi": 84,
          "name": "C6",
          "ticks": 8613,
          "time": 100.15116279069767,
          "velocity": 0.3779527559055118
        },
        {
          "duration": 0.3372093023255758,
          "durationTicks": 29,
          "midi": 60,
          "name": "C4",
          "ticks": 8614,
          "time": 100.16279069767442,
          "velocity": 0.3543307086614173
        },
        {
          "duration": 0.22093023255813193,
          "durationTicks": 19,
          "midi": 64,
          "name": "E4",
          "ticks": 8614,
          "time": 100.16279069767442,
          "velocity": 0.29133858267716534
        },
        {
          "duration": 0.5348837209302388,
          "durationTicks": 46,
          "midi": 69,
          "name": "A4",
          "ticks": 8616,
          "time": 100.18604651162791,
          "velocity": 0.3464566929133858
        },
        {
          "duration": 0.13953488372092693,
          "durationTicks": 12,
          "midi": 86,
          "name": "D6",
          "ticks": 8616,
          "time": 100.18604651162791,
          "velocity": 0.14173228346456693
        },
        {
          "duration": 0.023255813953497295,
          "durationTicks": 2,
          "midi": 45,
          "name": "A2",
          "ticks": 8617,
          "time": 100.19767441860465,
          "velocity": 0.31496062992125984
        },
        {
          "duration": 0.10465116279068809,
          "durationTicks": 9,
          "midi": 52,
          "name": "E3",
          "ticks": 8619,
          "time": 100.22093023255815,
          "velocity": 0.1889763779527559
        },
        {
          "duration": 0.04651162790696617,
          "durationTicks": 4,
          "midi": 83,
          "name": "B5",
          "ticks": 8619,
          "time": 100.22093023255815,
          "velocity": 0.11023622047244094
        },
        {
          "duration": 0.19767441860464885,
          "durationTicks": 17,
          "midi": 45,
          "name": "A2",
          "ticks": 8620,
          "time": 100.23255813953489,
          "velocity": 0.4251968503937008
        },
        {
          "duration": 0.06976744186046346,
          "durationTicks": 6,
          "midi": 64,
          "name": "E4",
          "ticks": 8634,
          "time": 100.3953488372093,
          "velocity": 0.33070866141732286
        },
        {
          "duration": 0.32558139534884845,
          "durationTicks": 28,
          "midi": 83,
          "name": "B5",
          "ticks": 8634,
          "time": 100.3953488372093,
          "velocity": 0.23622047244094488
        },
        {
          "duration": 0.12790697674418539,
          "durationTicks": 11,
          "midi": 85,
          "name": "C#6",
          "ticks": 8635,
          "time": 100.40697674418605,
          "velocity": 0.11811023622047244
        },
        {
          "duration": 0.023255813953483084,
          "durationTicks": 2,
          "midi": 52,
          "name": "E3",
          "ticks": 8636,
          "time": 100.4186046511628,
          "velocity": 0.25984251968503935
        },
        {
          "duration": 0.034883720930224626,
          "durationTicks": 3,
          "midi": 67,
          "name": "G4",
          "ticks": 8636,
          "time": 100.4186046511628,
          "velocity": 0.14960629921259844
        },
        {
          "duration": 0.1046511627907023,
          "durationTicks": 9,
          "midi": 86,
          "name": "D6",
          "ticks": 8637,
          "time": 100.43023255813954,
          "velocity": 0.09448818897637795
        },
        {
          "duration": 0.081395348837205,
          "durationTicks": 7,
          "midi": 45,
          "name": "A2",
          "ticks": 8638,
          "time": 100.44186046511628,
          "velocity": 0.41732283464566927
        },
        {
          "duration": 0.04651162790698038,
          "durationTicks": 4,
          "midi": 52,
          "name": "E3",
          "ticks": 8639,
          "time": 100.45348837209302,
          "velocity": 0.28346456692913385
        },
        {
          "duration": 0.6046511627906881,
          "durationTicks": 52,
          "midi": 76,
          "name": "E5",
          "ticks": 8641,
          "time": 100.47674418604652,
          "velocity": 0.4015748031496063
        },
        {
          "duration": 0.023255813953497295,
          "durationTicks": 2,
          "midi": 52,
          "name": "E3",
          "ticks": 8644,
          "time": 100.51162790697674,
          "velocity": 0.23622047244094488
        },
        {
          "duration": 0.034883720930224626,
          "durationTicks": 3,
          "midi": 45,
          "name": "A2",
          "ticks": 8646,
          "time": 100.53488372093024,
          "velocity": 0.36220472440944884
        },
        {
          "duration": 0.034883720930224626,
          "durationTicks": 3,
          "midi": 60,
          "name": "C4",
          "ticks": 8646,
          "time": 100.53488372093024,
          "velocity": 0.2440944881889764
        },
        {
          "duration": 0.03488372093023884,
          "durationTicks": 3,
          "midi": 45,
          "name": "A2",
          "ticks": 8650,
          "time": 100.5813953488372,
          "velocity": 0.3543307086614173
        },
        {
          "duration": 0.06976744186046346,
          "durationTicks": 6,
          "midi": 67,
          "name": "G4",
          "ticks": 8650,
          "time": 100.5813953488372,
          "velocity": 0.12598425196850394
        },
        {
          "duration": 0.034883720930224626,
          "durationTicks": 3,
          "midi": 52,
          "name": "E3",
          "ticks": 8652,
          "time": 100.6046511627907,
          "velocity": 0.18110236220472442
        },
        {
          "duration": 0.034883720930224626,
          "durationTicks": 3,
          "midi": 60,
          "name": "C4",
          "ticks": 8652,
          "time": 100.6046511627907,
          "velocity": 0.2125984251968504
        },
        {
          "duration": 0.023255813953483084,
          "durationTicks": 2,
          "midi": 46,
          "name": "A#2",
          "ticks": 8654,
          "time": 100.62790697674419,
          "velocity": 0.3228346456692913
        },
        {
          "duration": 0.03488372093023884,
          "durationTicks": 3,
          "midi": 85,
          "name": "C#6",
          "ticks": 8654,
          "time": 100.62790697674419,
          "velocity": 0.08661417322834646
        },
        {
          "duration": 0.05813953488372192,
          "durationTicks": 5,
          "midi": 45,
          "name": "A2",
          "ticks": 8656,
          "time": 100.65116279069767,
          "velocity": 0.33070866141732286
        },
        {
          "duration": 0.06976744186047767,
          "durationTicks": 6,
          "midi": 71,
          "name": "B4",
          "ticks": 8656,
          "time": 100.65116279069767,
          "velocity": 0.14173228346456693
        },
        {
          "duration": 0.38372093023255616,
          "durationTicks": 33,
          "midi": 67,
          "name": "G4",
          "ticks": 8660,
          "time": 100.69767441860465,
          "velocity": 0.3937007874015748
        },
        {
          "duration": 0.023255813953497295,
          "durationTicks": 2,
          "midi": 44,
          "name": "G#2",
          "ticks": 8661,
          "time": 100.70930232558139,
          "velocity": 0.31496062992125984
        },
        {
          "duration": 0.034883720930224626,
          "durationTicks": 3,
          "midi": 45,
          "name": "A2",
          "ticks": 8663,
          "time": 100.73255813953489,
          "velocity": 0.33070866141732286
        },
        {
          "duration": 0.034883720930224626,
          "durationTicks": 3,
          "midi": 60,
          "name": "C4",
          "ticks": 8664,
          "time": 100.74418604651163,
          "velocity": 0.1732283464566929
        },
        {
          "duration": 0.034883720930224626,
          "durationTicks": 3,
          "midi": 83,
          "name": "B5",
          "ticks": 8664,
          "time": 100.74418604651163,
          "velocity": 0.08661417322834646
        },
        {
          "duration": 0.5465116279069804,
          "durationTicks": 47,
          "midi": 79,
          "name": "G5",
          "ticks": 8665,
          "time": 100.75581395348837,
          "velocity": 0.4251968503937008
        },
        {
          "duration": 0.04651162790698038,
          "durationTicks": 4,
          "midi": 71,
          "name": "B4",
          "ticks": 8667,
          "time": 100.77906976744185,
          "velocity": 0.09448818897637795
        },
        {
          "duration": 0.2906976744186096,
          "durationTicks": 25,
          "midi": 83,
          "name": "B5",
          "ticks": 8671,
          "time": 100.82558139534883,
          "velocity": 0.1968503937007874
        },
        {
          "duration": 0.023255813953497295,
          "durationTicks": 2,
          "midi": 46,
          "name": "A#2",
          "ticks": 8672,
          "time": 100.83720930232558,
          "velocity": 0.3543307086614173
        },
        {
          "duration": 0.09302325581396076,
          "durationTicks": 8,
          "midi": 52,
          "name": "E3",
          "ticks": 8672,
          "time": 100.83720930232558,
          "velocity": 0.2755905511811024
        },
        {
          "duration": 0.22093023255814614,
          "durationTicks": 19,
          "midi": 81,
          "name": "A5",
          "ticks": 8672,
          "time": 100.83720930232558,
          "velocity": 0.13385826771653545
        },
        {
          "duration": 0.06976744186046346,
          "durationTicks": 6,
          "midi": 86,
          "name": "D6",
          "ticks": 8673,
          "time": 100.84883720930233,
          "velocity": 0.16535433070866143
        },
        {
          "duration": 0.023255813953483084,
          "durationTicks": 2,
          "midi": 45,
          "name": "A2",
          "ticks": 8674,
          "time": 100.86046511627907,
          "velocity": 0.4015748031496063
        },
        {
          "duration": 0.09302325581394655,
          "durationTicks": 8,
          "midi": 72,
          "name": "C5",
          "ticks": 8674,
          "time": 100.86046511627907,
          "velocity": 0.11811023622047244
        },
        {
          "duration": 0.16279069767442422,
          "durationTicks": 14,
          "midi": 45,
          "name": "A2",
          "ticks": 8677,
          "time": 100.8953488372093,
          "velocity": 0.3779527559055118
        },
        {
          "duration": 0.12790697674418539,
          "durationTicks": 11,
          "midi": 90,
          "name": "F#6",
          "ticks": 8677,
          "time": 100.8953488372093,
          "velocity": 0.07874015748031496
        },
        {
          "duration": 0.034883720930224626,
          "durationTicks": 3,
          "midi": 60,
          "name": "C4",
          "ticks": 8680,
          "time": 100.93023255813954,
          "velocity": 0.12598425196850394
        },
        {
          "duration": 0.034883720930224626,
          "durationTicks": 3,
          "midi": 86,
          "name": "D6",
          "ticks": 8680,
          "time": 100.93023255813954,
          "velocity": 0.11023622047244094
        },
        {
          "duration": 0.023255813953483084,
          "durationTicks": 2,
          "midi": 52,
          "name": "E3",
          "ticks": 8681,
          "time": 100.94186046511628,
          "velocity": 0.23622047244094488
        },
        {
          "duration": 0.04651162790698038,
          "durationTicks": 4,
          "midi": 60,
          "name": "C4",
          "ticks": 8685,
          "time": 100.98837209302326,
          "velocity": 0.12598425196850394
        },
        {
          "duration": 0.05813953488372192,
          "durationTicks": 5,
          "midi": 86,
          "name": "D6",
          "ticks": 8687,
          "time": 101.01162790697674,
          "velocity": 0.07086614173228346
        },
        {
          "duration": 0.023255813953483084,
          "durationTicks": 2,
          "midi": 44,
          "name": "G#2",
          "ticks": 8691,
          "time": 101.05813953488372,
          "velocity": 0.31496062992125984
        },
        {
          "duration": 0.03488372093023884,
          "durationTicks": 3,
          "midi": 72,
          "name": "C5",
          "ticks": 8692,
          "time": 101.06976744186046,
          "velocity": 0.1732283464566929
        },
        {
          "duration": 0.06976744186046346,
          "durationTicks": 6,
          "midi": 89,
          "name": "F6",
          "ticks": 8692,
          "time": 101.06976744186046,
          "velocity": 0.1732283464566929
        },
        {
          "duration": 0.03488372093023884,
          "durationTicks": 3,
          "midi": 90,
          "name": "F#6",
          "ticks": 8692,
          "time": 101.06976744186046,
          "velocity": 0.11023622047244094
        },
        {
          "duration": 0.023255813953497295,
          "durationTicks": 2,
          "midi": 52,
          "name": "E3",
          "ticks": 8693,
          "time": 101.0813953488372,
          "velocity": 0.31496062992125984
        },
        {
          "duration": 0.09302325581396076,
          "durationTicks": 8,
          "midi": 65,
          "name": "F4",
          "ticks": 8693,
          "time": 101.0813953488372,
          "velocity": 0.3779527559055118
        },
        {
          "duration": 0.5930232558139608,
          "durationTicks": 51,
          "midi": 74,
          "name": "D5",
          "ticks": 8693,
          "time": 101.0813953488372,
          "velocity": 0.2755905511811024
        },
        {
          "duration": 1.4883720930232585,
          "durationTicks": 128,
          "midi": 77,
          "name": "F5",
          "ticks": 8693,
          "time": 101.0813953488372,
          "velocity": 0.4251968503937008
        },
        {
          "duration": 0.05813953488372192,
          "durationTicks": 5,
          "midi": 85,
          "name": "C#6",
          "ticks": 8693,
          "time": 101.0813953488372,
          "velocity": 0.12598425196850394
        },
        {
          "duration": 0.13953488372094114,
          "durationTicks": 12,
          "midi": 87,
          "name": "D#6",
          "ticks": 8693,
          "time": 101.0813953488372,
          "velocity": 0.11023622047244094
        },
        {
          "duration": 0.023255813953497295,
          "durationTicks": 2,
          "midi": 39,
          "name": "D#2",
          "ticks": 8694,
          "time": 101.09302325581395,
          "velocity": 0.2440944881889764
        },
        {
          "duration": 0.4418604651162923,
          "durationTicks": 38,
          "midi": 62,
          "name": "D4",
          "ticks": 8694,
          "time": 101.09302325581395,
          "velocity": 0.3228346456692913
        },
        {
          "duration": 0.034883720930224626,
          "durationTicks": 3,
          "midi": 53,
          "name": "F3",
          "ticks": 8695,
          "time": 101.1046511627907,
          "velocity": 0.28346456692913385
        },
        {
          "duration": 0.05813953488372192,
          "durationTicks": 5,
          "midi": 57,
          "name": "A3",
          "ticks": 8695,
          "time": 101.1046511627907,
          "velocity": 0.2047244094488189
        },
        {
          "duration": 0.06976744186046346,
          "durationTicks": 6,
          "midi": 72,
          "name": "C5",
          "ticks": 8697,
          "time": 101.12790697674419,
          "velocity": 0.18110236220472442
        },
        {
          "duration": 0.2325581395348877,
          "durationTicks": 20,
          "midi": 67,
          "name": "G4",
          "ticks": 8698,
          "time": 101.13953488372093,
          "velocity": 0.25196850393700787
        },
        {
          "duration": 0.06976744186046346,
          "durationTicks": 6,
          "midi": 81,
          "name": "A5",
          "ticks": 8698,
          "time": 101.13953488372093,
          "velocity": 0.10236220472440945
        },
        {
          "duration": 0.04651162790696617,
          "durationTicks": 4,
          "midi": 53,
          "name": "F3",
          "ticks": 8700,
          "time": 101.16279069767442,
          "velocity": 0.30708661417322836
        },
        {
          "duration": 0.03488372093023884,
          "durationTicks": 3,
          "midi": 45,
          "name": "A2",
          "ticks": 8704,
          "time": 101.20930232558139,
          "velocity": 0.2204724409448819
        },
        {
          "duration": 0.03488372093023884,
          "durationTicks": 3,
          "midi": 88,
          "name": "E6",
          "ticks": 8704,
          "time": 101.20930232558139,
          "velocity": 0.07086614173228346
        },
        {
          "duration": 0.03488372093023884,
          "durationTicks": 3,
          "midi": 90,
          "name": "F#6",
          "ticks": 8704,
          "time": 101.20930232558139,
          "velocity": 0.07086614173228346
        },
        {
          "duration": 0.05813953488372192,
          "durationTicks": 5,
          "midi": 72,
          "name": "C5",
          "ticks": 8706,
          "time": 101.23255813953489,
          "velocity": 0.14173228346456693
        },
        {
          "duration": 0.05813953488372192,
          "durationTicks": 5,
          "midi": 87,
          "name": "D#6",
          "ticks": 8706,
          "time": 101.23255813953489,
          "velocity": 0.12598425196850394
        },
        {
          "duration": 0.4418604651162781,
          "durationTicks": 38,
          "midi": 81,
          "name": "A5",
          "ticks": 8709,
          "time": 101.26744186046511,
          "velocity": 0.3228346456692913
        },
        {
          "duration": 0.034883720930224626,
          "durationTicks": 3,
          "midi": 90,
          "name": "F#6",
          "ticks": 8712,
          "time": 101.30232558139535,
          "velocity": 0.08661417322834646
        },
        {
          "duration": 0.03488372093023884,
          "durationTicks": 3,
          "midi": 65,
          "name": "F4",
          "ticks": 8713,
          "time": 101.31395348837209,
          "velocity": 0.2677165354330709
        },
        {
          "duration": 0.08139534883721922,
          "durationTicks": 7,
          "midi": 72,
          "name": "C5",
          "ticks": 8714,
          "time": 101.32558139534883,
          "velocity": 0.1889763779527559
        },
        {
          "duration": 0.1860465116279073,
          "durationTicks": 16,
          "midi": 85,
          "name": "C#6",
          "ticks": 8714,
          "time": 101.32558139534883,
          "velocity": 0.11023622047244094
        },
        {
          "duration": 0.03488372093023884,
          "durationTicks": 3,
          "midi": 87,
          "name": "D#6",
          "ticks": 8714,
          "time": 101.32558139534883,
          "velocity": 0.11023622047244094
        },
        {
          "duration": 0.03488372093023884,
          "durationTicks": 3,
          "midi": 69,
          "name": "A4",
          "ticks": 8715,
          "time": 101.33720930232558,
          "velocity": 0.14173228346456693
        },
        {
          "duration": 0.16279069767442422,
          "durationTicks": 14,
          "midi": 88,
          "name": "E6",
          "ticks": 8715,
          "time": 101.33720930232558,
          "velocity": 0.14960629921259844
        },
        {
          "duration": 0.3139534883720927,
          "durationTicks": 27,
          "midi": 57,
          "name": "A3",
          "ticks": 8717,
          "time": 101.36046511627907,
          "velocity": 0.25196850393700787
        },
        {
          "duration": 0.034883720930224626,
          "durationTicks": 3,
          "midi": 65,
          "name": "F4",
          "ticks": 8717,
          "time": 101.36046511627907,
          "velocity": 0.16535433070866143
        },
        {
          "duration": 0.03488372093023884,
          "durationTicks": 3,
          "midi": 90,
          "name": "F#6",
          "ticks": 8718,
          "time": 101.37209302325581,
          "velocity": 0.09448818897637795
        },
        {
          "duration": 0.03488372093023884,
          "durationTicks": 3,
          "midi": 67,
          "name": "G4",
          "ticks": 8719,
          "time": 101.38372093023256,
          "velocity": 0.23622047244094488
        },
        {
          "duration": 0.3953488372092977,
          "durationTicks": 34,
          "midi": 69,
          "name": "A4",
          "ticks": 8719,
          "time": 101.38372093023256,
          "velocity": 0.33858267716535434
        },
        {
          "duration": 0.05813953488372192,
          "durationTicks": 5,
          "midi": 87,
          "name": "D#6",
          "ticks": 8720,
          "time": 101.3953488372093,
          "velocity": 0.11811023622047244
        },
        {
          "duration": 0.034883720930224626,
          "durationTicks": 3,
          "midi": 65,
          "name": "F4",
          "ticks": 8721,
          "time": 101.40697674418605,
          "velocity": 0.1889763779527559
        },
        {
          "duration": 0.04651162790698038,
          "durationTicks": 4,
          "midi": 84,
          "name": "C6",
          "ticks": 8723,
          "time": 101.43023255813954,
          "velocity": 0.09448818897637795
        },
        {
          "duration": 0.05813953488372192,
          "durationTicks": 5,
          "midi": 72,
          "name": "C5",
          "ticks": 8724,
          "time": 101.44186046511628,
          "velocity": 0.12598425196850394
        },
        {
          "duration": 0.03488372093023884,
          "durationTicks": 3,
          "midi": 90,
          "name": "F#6",
          "ticks": 8724,
          "time": 101.44186046511628,
          "velocity": 0.11811023622047244
        },
        {
          "duration": 0.023255813953497295,
          "durationTicks": 2,
          "midi": 51,
          "name": "D#3",
          "ticks": 8725,
          "time": 101.45348837209302,
          "velocity": 0.2677165354330709
        },
        {
          "duration": 0.30232558139535115,
          "durationTicks": 26,
          "midi": 65,
          "name": "F4",
          "ticks": 8725,
          "time": 101.45348837209302,
          "velocity": 0.2283464566929134
        },
        {
          "duration": 0.034883720930224626,
          "durationTicks": 3,
          "midi": 50,
          "name": "D3",
          "ticks": 8727,
          "time": 101.47674418604652,
          "velocity": 0.2283464566929134
        },
        {
          "duration": 0.034883720930224626,
          "durationTicks": 3,
          "midi": 87,
          "name": "D#6",
          "ticks": 8727,
          "time": 101.47674418604652,
          "velocity": 0.08661417322834646
        },
        {
          "duration": 0.04651162790698038,
          "durationTicks": 4,
          "midi": 84,
          "name": "C6",
          "ticks": 8730,
          "time": 101.51162790697674,
          "velocity": 0.15748031496062992
        },
        {
          "duration": 0.2674418604651123,
          "durationTicks": 23,
          "midi": 86,
          "name": "D6",
          "ticks": 8730,
          "time": 101.51162790697674,
          "velocity": 0.33070866141732286
        },
        {
          "duration": 0.03488372093023884,
          "durationTicks": 3,
          "midi": 90,
          "name": "F#6",
          "ticks": 8730,
          "time": 101.51162790697674,
          "velocity": 0.09448818897637795
        },
        {
          "duration": 0.03488372093023884,
          "durationTicks": 3,
          "midi": 50,
          "name": "D3",
          "ticks": 8731,
          "time": 101.52325581395348,
          "velocity": 0.25196850393700787
        },
        {
          "duration": 0.023255813953483084,
          "durationTicks": 2,
          "midi": 51,
          "name": "D#3",
          "ticks": 8735,
          "time": 101.56976744186046,
          "velocity": 0.2677165354330709
        },
        {
          "duration": 0.04651162790698038,
          "durationTicks": 4,
          "midi": 62,
          "name": "D4",
          "ticks": 8735,
          "time": 101.56976744186046,
          "velocity": 0.16535433070866143
        },
        {
          "duration": 0.05813953488372192,
          "durationTicks": 5,
          "midi": 84,
          "name": "C6",
          "ticks": 8737,
          "time": 101.59302325581395,
          "velocity": 0.10236220472440945
        },
        {
          "duration": 0.09302325581396076,
          "durationTicks": 8,
          "midi": 88,
          "name": "E6",
          "ticks": 8737,
          "time": 101.59302325581395,
          "velocity": 0.11811023622047244
        },
        {
          "duration": 0.05813953488372192,
          "durationTicks": 5,
          "midi": 72,
          "name": "C5",
          "ticks": 8738,
          "time": 101.6046511627907,
          "velocity": 0.10236220472440945
        },
        {
          "duration": 0.12790697674418539,
          "durationTicks": 11,
          "midi": 38,
          "name": "D2",
          "ticks": 8739,
          "time": 101.61627906976744,
          "velocity": 0.1889763779527559
        },
        {
          "duration": 0.034883720930224626,
          "durationTicks": 3,
          "midi": 50,
          "name": "D3",
          "ticks": 8739,
          "time": 101.61627906976744,
          "velocity": 0.25984251968503935
        },
        {
          "duration": 0.03488372093023884,
          "durationTicks": 3,
          "midi": 87,
          "name": "D#6",
          "ticks": 8742,
          "time": 101.65116279069767,
          "velocity": 0.09448818897637795
        },
        {
          "duration": 0.023255813953483084,
          "durationTicks": 2,
          "midi": 49,
          "name": "C#3",
          "ticks": 8743,
          "time": 101.66279069767442,
          "velocity": 0.2677165354330709
        },
        {
          "duration": 0.27906976744185386,
          "durationTicks": 24,
          "midi": 60,
          "name": "C4",
          "ticks": 8744,
          "time": 101.67441860465117,
          "velocity": 0.3779527559055118
        },
        {
          "duration": 0.2325581395348877,
          "durationTicks": 20,
          "midi": 72,
          "name": "C5",
          "ticks": 8744,
          "time": 101.67441860465117,
          "velocity": 0.4251968503937008
        },
        {
          "duration": 0.04651162790698038,
          "durationTicks": 4,
          "midi": 50,
          "name": "D3",
          "ticks": 8745,
          "time": 101.68604651162791,
          "velocity": 0.25984251968503935
        },
        {
          "duration": 0.6395348837209269,
          "durationTicks": 55,
          "midi": 74,
          "name": "D5",
          "ticks": 8746,
          "time": 101.69767441860465,
          "velocity": 0.3464566929133858
        },
        {
          "duration": 0.05813953488372192,
          "durationTicks": 5,
          "midi": 88,
          "name": "E6",
          "ticks": 8747,
          "time": 101.70930232558139,
          "velocity": 0.15748031496062992
        },
        {
          "duration": 0.023255813953483084,
          "durationTicks": 2,
          "midi": 49,
          "name": "C#3",
          "ticks": 8749,
          "time": 101.73255813953489,
          "velocity": 0.2440944881889764
        },
        {
          "duration": 0.081395348837205,
          "durationTicks": 7,
          "midi": 91,
          "name": "G6",
          "ticks": 8750,
          "time": 101.74418604651163,
          "velocity": 0.11023622047244094
        },
        {
          "duration": 0.2325581395348877,
          "durationTicks": 20,
          "midi": 87,
          "name": "D#6",
          "ticks": 8751,
          "time": 101.75581395348837,
          "velocity": 0.12598425196850394
        },
        {
          "duration": 0.023255813953497295,
          "durationTicks": 2,
          "midi": 54,
          "name": "F#3",
          "ticks": 8752,
          "time": 101.76744186046511,
          "velocity": 0.2677165354330709
        },
        {
          "duration": 0.2674418604651265,
          "durationTicks": 23,
          "midi": 65,
          "name": "F4",
          "ticks": 8752,
          "time": 101.76744186046511,
          "velocity": 0.29133858267716534
        },
        {
          "duration": 0.2093023255813904,
          "durationTicks": 18,
          "midi": 69,
          "name": "A4",
          "ticks": 8754,
          "time": 101.79069767441861,
          "velocity": 0.3464566929133858
        },
        {
          "duration": 0.04651162790698038,
          "durationTicks": 4,
          "midi": 88,
          "name": "E6",
          "ticks": 8756,
          "time": 101.81395348837209,
          "velocity": 0.16535433070866143
        },
        {
          "duration": 0.023255813953497295,
          "durationTicks": 2,
          "midi": 53,
          "name": "F3",
          "ticks": 8758,
          "time": 101.83720930232558,
          "velocity": 0.28346456692913385
        },
        {
          "duration": 0.05813953488372192,
          "durationTicks": 5,
          "midi": 91,
          "name": "G6",
          "ticks": 8758,
          "time": 101.83720930232558,
          "velocity": 0.10236220472440945
        },
        {
          "duration": 0.023255813953483084,
          "durationTicks": 2,
          "midi": 53,
          "name": "F3",
          "ticks": 8761,
          "time": 101.87209302325581,
          "velocity": 0.25196850393700787
        },
        {
          "duration": 0.03488372093023884,
          "durationTicks": 3,
          "midi": 88,
          "name": "E6",
          "ticks": 8762,
          "time": 101.88372093023256,
          "velocity": 0.15748031496062992
        },
        {
          "duration": 0.023255813953497295,
          "durationTicks": 2,
          "midi": 51,
          "name": "D#3",
          "ticks": 8763,
          "time": 101.8953488372093,
          "velocity": 0.29133858267716534
        },
        {
          "duration": 0.11627906976742963,
          "durationTicks": 10,
          "midi": 91,
          "name": "G6",
          "ticks": 8764,
          "time": 101.90697674418605,
          "velocity": 0.07874015748031496
        },
        {
          "duration": 0.023255813953483084,
          "durationTicks": 2,
          "midi": 50,
          "name": "D3",
          "ticks": 8766,
          "time": 101.93023255813954,
          "velocity": 0.2755905511811024
        },
        {
          "duration": 0.05813953488372192,
          "durationTicks": 5,
          "midi": 88,
          "name": "E6",
          "ticks": 8768,
          "time": 101.95348837209302,
          "velocity": 0.18110236220472442
        },
        {
          "duration": 0.03488372093023884,
          "durationTicks": 3,
          "midi": 60,
          "name": "C4",
          "ticks": 8769,
          "time": 101.96511627906976,
          "velocity": 0.2125984251968504
        },
        {
          "duration": 0.10465116279068809,
          "durationTicks": 9,
          "midi": 89,
          "name": "F6",
          "ticks": 8770,
          "time": 101.97674418604652,
          "velocity": 0.4330708661417323
        },
        {
          "duration": 0.023255813953483084,
          "durationTicks": 2,
          "midi": 53,
          "name": "F3",
          "ticks": 8771,
          "time": 101.98837209302326,
          "velocity": 0.23622047244094488
        },
        {
          "duration": 0.19767441860464885,
          "durationTicks": 17,
          "midi": 80,
          "name": "G#5",
          "ticks": 8771,
          "time": 101.98837209302326,
          "velocity": 0.16535433070866143
        },
        {
          "duration": 0.12790697674418539,
          "durationTicks": 11,
          "midi": 93,
          "name": "A6",
          "ticks": 8771,
          "time": 101.98837209302326,
          "velocity": 0.1732283464566929
        },
        {
          "duration": 0.2093023255813904,
          "durationTicks": 18,
          "midi": 70,
          "name": "A#4",
          "ticks": 8772,
          "time": 102,
          "velocity": 0.3858267716535433
        },
        {
          "duration": 0.19767441860464885,
          "durationTicks": 17,
          "midi": 81,
          "name": "A5",
          "ticks": 8773,
          "time": 102.01162790697674,
          "velocity": 0.2047244094488189
        },
        {
          "duration": 0.023255813953497295,
          "durationTicks": 2,
          "midi": 45,
          "name": "A2",
          "ticks": 8774,
          "time": 102.02325581395348,
          "velocity": 0.2992125984251969
        },
        {
          "duration": 1.8255813953488484,
          "durationTicks": 157,
          "midi": 67,
          "name": "G4",
          "ticks": 8774,
          "time": 102.02325581395348,
          "velocity": 0.33858267716535434
        },
        {
          "duration": 0.04651162790696617,
          "durationTicks": 4,
          "midi": 83,
          "name": "B5",
          "ticks": 8775,
          "time": 102.03488372093024,
          "velocity": 0.18110236220472442
        },
        {
          "duration": 0.1860465116279073,
          "durationTicks": 16,
          "midi": 88,
          "name": "E6",
          "ticks": 8776,
          "time": 102.04651162790698,
          "velocity": 0.12598425196850394
        },
        {
          "duration": 0.034883720930224626,
          "durationTicks": 3,
          "midi": 43,
          "name": "G2",
          "ticks": 8777,
          "time": 102.05813953488372,
          "velocity": 0.1968503937007874
        },
        {
          "duration": 0.05813953488372192,
          "durationTicks": 5,
          "midi": 58,
          "name": "A#3",
          "ticks": 8777,
          "time": 102.05813953488372,
          "velocity": 0.28346456692913385
        },
        {
          "duration": 0.38372093023255616,
          "durationTicks": 33,
          "midi": 83,
          "name": "B5",
          "ticks": 8781,
          "time": 102.1046511627907,
          "velocity": 0.2440944881889764
        },
        {
          "duration": 0.4534883720930196,
          "durationTicks": 39,
          "midi": 58,
          "name": "A#3",
          "ticks": 8784,
          "time": 102.13953488372093,
          "velocity": 0.29133858267716534
        },
        {
          "duration": 1.4651162790697612,
          "durationTicks": 126,
          "midi": 85,
          "name": "C#6",
          "ticks": 8786,
          "time": 102.16279069767442,
          "velocity": 0.14960629921259844
        },
        {
          "duration": 1.697674418604663,
          "durationTicks": 146,
          "midi": 80,
          "name": "G#5",
          "ticks": 8790,
          "time": 102.20930232558139,
          "velocity": 0.2047244094488189
        },
        {
          "duration": 0.04651162790696617,
          "durationTicks": 4,
          "midi": 44,
          "name": "G#2",
          "ticks": 8791,
          "time": 102.22093023255815,
          "velocity": 0.4015748031496063
        },
        {
          "duration": 0.05813953488370771,
          "durationTicks": 5,
          "midi": 69,
          "name": "A4",
          "ticks": 8791,
          "time": 102.22093023255815,
          "velocity": 0.30708661417322836
        },
        {
          "duration": 0.11627906976744384,
          "durationTicks": 10,
          "midi": 84,
          "name": "C6",
          "ticks": 8796,
          "time": 102.27906976744185,
          "velocity": 0.14173228346456693
        },
        {
          "duration": 0.04651162790698038,
          "durationTicks": 4,
          "midi": 90,
          "name": "F#6",
          "ticks": 8796,
          "time": 102.27906976744185,
          "velocity": 0.08661417322834646
        },
        {
          "duration": 0.023255813953483084,
          "durationTicks": 2,
          "midi": 44,
          "name": "G#2",
          "ticks": 8797,
          "time": 102.29069767441861,
          "velocity": 0.25984251968503935
        },
        {
          "duration": 0.023255813953483084,
          "durationTicks": 2,
          "midi": 69,
          "name": "A4",
          "ticks": 8797,
          "time": 102.29069767441861,
          "velocity": 0.2755905511811024
        },
        {
          "duration": 0.03488372093023884,
          "durationTicks": 3,
          "midi": 44,
          "name": "G#2",
          "ticks": 8801,
          "time": 102.33720930232558,
          "velocity": 0.25984251968503935
        },
        {
          "duration": 0.12790697674418539,
          "durationTicks": 11,
          "midi": 88,
          "name": "E6",
          "ticks": 8804,
          "time": 102.37209302325581,
          "velocity": 0.07874015748031496
        },
        {
          "duration": 0.03488372093023884,
          "durationTicks": 3,
          "midi": 44,
          "name": "G#2",
          "ticks": 8805,
          "time": 102.38372093023256,
          "velocity": 0.30708661417322836
        },
        {
          "duration": 0.12790697674418539,
          "durationTicks": 11,
          "midi": 74,
          "name": "D5",
          "ticks": 8805,
          "time": 102.38372093023256,
          "velocity": 0.2125984251968504
        },
        {
          "duration": 0.06976744186046346,
          "durationTicks": 6,
          "midi": 69,
          "name": "A4",
          "ticks": 8806,
          "time": 102.3953488372093,
          "velocity": 0.2677165354330709
        },
        {
          "duration": 0.06976744186046346,
          "durationTicks": 6,
          "midi": 62,
          "name": "D4",
          "ticks": 8809,
          "time": 102.43023255813954,
          "velocity": 0.08661417322834646
        },
        {
          "duration": 0.023255813953483084,
          "durationTicks": 2,
          "midi": 44,
          "name": "G#2",
          "ticks": 8810,
          "time": 102.44186046511628,
          "velocity": 0.29133858267716534
        },
        {
          "duration": 0.03488372093023884,
          "durationTicks": 3,
          "midi": 43,
          "name": "G2",
          "ticks": 8812,
          "time": 102.46511627906976,
          "velocity": 0.2992125984251969
        },
        {
          "duration": 0.03488372093023884,
          "durationTicks": 3,
          "midi": 50,
          "name": "D3",
          "ticks": 8812,
          "time": 102.46511627906976,
          "velocity": 0.1968503937007874
        },
        {
          "duration": 0.023255813953483084,
          "durationTicks": 2,
          "midi": 69,
          "name": "A4",
          "ticks": 8813,
          "time": 102.47674418604652,
          "velocity": 0.2283464566929134
        },
        {
          "duration": 0.04651162790698038,
          "durationTicks": 4,
          "midi": 83,
          "name": "B5",
          "ticks": 8815,
          "time": 102.5,
          "velocity": 0.13385826771653545
        },
        {
          "duration": 0.023255813953497295,
          "durationTicks": 2,
          "midi": 43,
          "name": "G2",
          "ticks": 8816,
          "time": 102.51162790697674,
          "velocity": 0.25196850393700787
        },
        {
          "duration": 0.03488372093023884,
          "durationTicks": 3,
          "midi": 69,
          "name": "A4",
          "ticks": 8816,
          "time": 102.51162790697674,
          "velocity": 0.2283464566929134
        },
        {
          "duration": 0.023255813953483084,
          "durationTicks": 2,
          "midi": 44,
          "name": "G#2",
          "ticks": 8819,
          "time": 102.54651162790698,
          "velocity": 0.2992125984251969
        },
        {
          "duration": 1.2558139534883708,
          "durationTicks": 108,
          "midi": 74,
          "name": "D5",
          "ticks": 8819,
          "time": 102.54651162790698,
          "velocity": 0.25984251968503935
        },
        {
          "duration": 0.1046511627907023,
          "durationTicks": 9,
          "midi": 69,
          "name": "A4",
          "ticks": 8820,
          "time": 102.55813953488372,
          "velocity": 0.2047244094488189
        },
        {
          "duration": 0.04651162790698038,
          "durationTicks": 4,
          "midi": 83,
          "name": "B5",
          "ticks": 8820,
          "time": 102.55813953488372,
          "velocity": 0.12598425196850394
        },
        {
          "duration": 0.11627906976744384,
          "durationTicks": 10,
          "midi": 84,
          "name": "C6",
          "ticks": 8820,
          "time": 102.55813953488372,
          "velocity": 0.09448818897637795
        },
        {
          "duration": 0.06976744186046346,
          "durationTicks": 6,
          "midi": 50,
          "name": "D3",
          "ticks": 8821,
          "time": 102.56976744186046,
          "velocity": 0.2440944881889764
        },
        {
          "duration": 0.06976744186046346,
          "durationTicks": 6,
          "midi": 58,
          "name": "A#3",
          "ticks": 8824,
          "time": 102.6046511627907,
          "velocity": 0.2125984251968504
        },
        {
          "duration": 0.2674418604651265,
          "durationTicks": 23,
          "midi": 83,
          "name": "B5",
          "ticks": 8827,
          "time": 102.63953488372093,
          "velocity": 0.1889763779527559
        },
        {
          "duration": 0.03488372093023884,
          "durationTicks": 3,
          "midi": 50,
          "name": "D3",
          "ticks": 8828,
          "time": 102.65116279069767,
          "velocity": 0.3228346456692913
        },
        {
          "duration": 0.034883720930224626,
          "durationTicks": 3,
          "midi": 65,
          "name": "F4",
          "ticks": 8830,
          "time": 102.67441860465117,
          "velocity": 0.2440944881889764
        },
        {
          "duration": 0.034883720930224626,
          "durationTicks": 3,
          "midi": 69,
          "name": "A4",
          "ticks": 8830,
          "time": 102.67441860465117,
          "velocity": 0.2677165354330709
        },
        {
          "duration": 0.3372093023255758,
          "durationTicks": 29,
          "midi": 88,
          "name": "E6",
          "ticks": 8830,
          "time": 102.67441860465117,
          "velocity": 0.14173228346456693
        },
        {
          "duration": 0.04651162790698038,
          "durationTicks": 4,
          "midi": 44,
          "name": "G#2",
          "ticks": 8831,
          "time": 102.68604651162791,
          "velocity": 0.4409448818897638
        },
        {
          "duration": 0.03488372093023884,
          "durationTicks": 3,
          "midi": 55,
          "name": "G3",
          "ticks": 8831,
          "time": 102.68604651162791,
          "velocity": 0.23622047244094488
        },
        {
          "duration": 0.04651162790698038,
          "durationTicks": 4,
          "midi": 89,
          "name": "F6",
          "ticks": 8831,
          "time": 102.68604651162791,
          "velocity": 0.10236220472440945
        },
        {
          "duration": 0.09302325581396076,
          "durationTicks": 8,
          "midi": 50,
          "name": "D3",
          "ticks": 8833,
          "time": 102.70930232558139,
          "velocity": 0.3464566929133858
        },
        {
          "duration": 0.023255813953483084,
          "durationTicks": 2,
          "midi": 43,
          "name": "G2",
          "ticks": 8835,
          "time": 102.73255813953489,
          "velocity": 0.3228346456692913
        },
        {
          "duration": 0.04651162790698038,
          "durationTicks": 4,
          "midi": 89,
          "name": "F6",
          "ticks": 8837,
          "time": 102.75581395348837,
          "velocity": 0.09448818897637795
        },
        {
          "duration": 0.03488372093023884,
          "durationTicks": 3,
          "midi": 81,
          "name": "A5",
          "ticks": 8839,
          "time": 102.77906976744185,
          "velocity": 0.09448818897637795
        },
        {
          "duration": 0.13953488372094114,
          "durationTicks": 12,
          "midi": 84,
          "name": "C6",
          "ticks": 8839,
          "time": 102.77906976744185,
          "velocity": 0.11023622047244094
        },
        {
          "duration": 0.04651162790698038,
          "durationTicks": 4,
          "midi": 50,
          "name": "D3",
          "ticks": 8842,
          "time": 102.81395348837209,
          "velocity": 0.33858267716535434
        },
        {
          "duration": 0.04651162790698038,
          "durationTicks": 4,
          "midi": 55,
          "name": "G3",
          "ticks": 8842,
          "time": 102.81395348837209,
          "velocity": 0.2283464566929134
        },
        {
          "duration": 0.03488372093023884,
          "durationTicks": 3,
          "midi": 65,
          "name": "F4",
          "ticks": 8844,
          "time": 102.83720930232558,
          "velocity": 0.16535433070866143
        },
        {
          "duration": 0.023255813953483084,
          "durationTicks": 2,
          "midi": 44,
          "name": "G#2",
          "ticks": 8845,
          "time": 102.84883720930233,
          "velocity": 0.36220472440944884
        },
        {
          "duration": 0.3372093023255758,
          "durationTicks": 29,
          "midi": 69,
          "name": "A4",
          "ticks": 8845,
          "time": 102.84883720930233,
          "velocity": 0.2992125984251969
        },
        {
          "duration": 0.03488372093023884,
          "durationTicks": 3,
          "midi": 50,
          "name": "D3",
          "ticks": 8847,
          "time": 102.87209302325581,
          "velocity": 0.33858267716535434
        },
        {
          "duration": 0.023255813953497295,
          "durationTicks": 2,
          "midi": 42,
          "name": "F#2",
          "ticks": 8848,
          "time": 102.88372093023256,
          "velocity": 0.31496062992125984
        },
        {
          "duration": 0.034883720930224626,
          "durationTicks": 3,
          "midi": 44,
          "name": "G#2",
          "ticks": 8850,
          "time": 102.90697674418605,
          "velocity": 0.3937007874015748
        },
        {
          "duration": 0.04651162790696617,
          "durationTicks": 4,
          "midi": 50,
          "name": "D3",
          "ticks": 8851,
          "time": 102.9186046511628,
          "velocity": 0.33070866141732286
        },
        {
          "duration": 0.04651162790696617,
          "durationTicks": 4,
          "midi": 83,
          "name": "B5",
          "ticks": 8851,
          "time": 102.9186046511628,
          "velocity": 0.1968503937007874
        },
        {
          "duration": 0.023255813953483084,
          "durationTicks": 2,
          "midi": 43,
          "name": "G2",
          "ticks": 8853,
          "time": 102.94186046511628,
          "velocity": 0.3228346456692913
        },
        {
          "duration": 0.05813953488372192,
          "durationTicks": 5,
          "midi": 65,
          "name": "F4",
          "ticks": 8855,
          "time": 102.96511627906976,
          "velocity": 0.18110236220472442
        },
        {
          "duration": 0.023255813953483084,
          "durationTicks": 2,
          "midi": 43,
          "name": "G2",
          "ticks": 8856,
          "time": 102.97674418604652,
          "velocity": 0.28346456692913385
        },
        {
          "duration": 0.09302325581394655,
          "durationTicks": 8,
          "midi": 50,
          "name": "D3",
          "ticks": 8856,
          "time": 102.97674418604652,
          "velocity": 0.3228346456692913
        },
        {
          "duration": 0.05813953488372192,
          "durationTicks": 5,
          "midi": 83,
          "name": "B5",
          "ticks": 8857,
          "time": 102.98837209302326,
          "velocity": 0.2125984251968504
        },
        {
          "duration": 0.023255813953497295,
          "durationTicks": 2,
          "midi": 44,
          "name": "G#2",
          "ticks": 8859,
          "time": 103.01162790697674,
          "velocity": 0.3464566929133858
        },
        {
          "duration": 0.034883720930224626,
          "durationTicks": 3,
          "midi": 43,
          "name": "G2",
          "ticks": 8861,
          "time": 103.03488372093024,
          "velocity": 0.33858267716535434
        },
        {
          "duration": 0.04651162790698038,
          "durationTicks": 4,
          "midi": 83,
          "name": "B5",
          "ticks": 8863,
          "time": 103.05813953488372,
          "velocity": 0.2047244094488189
        },
        {
          "duration": 0.023255813953483084,
          "durationTicks": 2,
          "midi": 44,
          "name": "G#2",
          "ticks": 8864,
          "time": 103.06976744186046,
          "velocity": 0.36220472440944884
        },
        {
          "duration": 0.023255813953497295,
          "durationTicks": 2,
          "midi": 50,
          "name": "D3",
          "ticks": 8865,
          "time": 103.0813953488372,
          "velocity": 0.28346456692913385
        },
        {
          "duration": 0.023255813953483084,
          "durationTicks": 2,
          "midi": 45,
          "name": "A2",
          "ticks": 8868,
          "time": 103.11627906976744,
          "velocity": 0.36220472440944884
        },
        {
          "duration": 0.03488372093023884,
          "durationTicks": 3,
          "midi": 62,
          "name": "D4",
          "ticks": 8869,
          "time": 103.12790697674419,
          "velocity": 0.14173228346456693
        },
        {
          "duration": 0.3953488372092977,
          "durationTicks": 34,
          "midi": 83,
          "name": "B5",
          "ticks": 8869,
          "time": 103.12790697674419,
          "velocity": 0.25196850393700787
        },
        {
          "duration": 0.023255813953483084,
          "durationTicks": 2,
          "midi": 45,
          "name": "A2",
          "ticks": 8872,
          "time": 103.16279069767442,
          "velocity": 0.33070866141732286
        },
        {
          "duration": 0.40697674418603924,
          "durationTicks": 35,
          "midi": 62,
          "name": "D4",
          "ticks": 8873,
          "time": 103.17441860465117,
          "velocity": 0.16535433070866143
        },
        {
          "duration": 0.3720930232558146,
          "durationTicks": 32,
          "midi": 55,
          "name": "G3",
          "ticks": 8876,
          "time": 103.20930232558139,
          "velocity": 0.18110236220472442
        },
        {
          "duration": 0.023255813953483084,
          "durationTicks": 2,
          "midi": 45,
          "name": "A2",
          "ticks": 8877,
          "time": 103.22093023255815,
          "velocity": 0.30708661417322836
        },
        {
          "duration": 0.4186046511627808,
          "durationTicks": 36,
          "midi": 69,
          "name": "A4",
          "ticks": 8877,
          "time": 103.22093023255815,
          "velocity": 0.28346456692913385
        },
        {
          "duration": 0.023255813953497295,
          "durationTicks": 2,
          "midi": 45,
          "name": "A2",
          "ticks": 8882,
          "time": 103.27906976744185,
          "velocity": 0.30708661417322836
        },
        {
          "duration": 0.04651162790698038,
          "durationTicks": 4,
          "midi": 45,
          "name": "A2",
          "ticks": 8885,
          "time": 103.31395348837209,
          "velocity": 0.31496062992125984
        },
        {
          "duration": 0.05813953488372192,
          "durationTicks": 5,
          "midi": 75,
          "name": "D#5",
          "ticks": 8889,
          "time": 103.36046511627907,
          "velocity": 0.13385826771653545
        },
        {
          "duration": 0.04651162790698038,
          "durationTicks": 4,
          "midi": 58,
          "name": "A#3",
          "ticks": 8892,
          "time": 103.3953488372093,
          "velocity": 0.14173228346456693
        },
        {
          "duration": 0.13953488372092693,
          "durationTicks": 12,
          "midi": 75,
          "name": "D#5",
          "ticks": 8895,
          "time": 103.43023255813954,
          "velocity": 0.12598425196850394
        },
        {
          "duration": 0.04651162790698038,
          "durationTicks": 4,
          "midi": 71,
          "name": "B4",
          "ticks": 8897,
          "time": 103.45348837209302,
          "velocity": 0.11023622047244094
        },
        {
          "duration": 0.023255813953497295,
          "durationTicks": 2,
          "midi": 47,
          "name": "B2",
          "ticks": 8898,
          "time": 103.46511627906976,
          "velocity": 0.2283464566929134
        },
        {
          "duration": 0.023255813953483084,
          "durationTicks": 2,
          "midi": 45,
          "name": "A2",
          "ticks": 8900,
          "time": 103.48837209302326,
          "velocity": 0.2283464566929134
        },
        {
          "duration": 0.06976744186046346,
          "durationTicks": 6,
          "midi": 71,
          "name": "B4",
          "ticks": 8902,
          "time": 103.51162790697674,
          "velocity": 0.11023622047244094
        },
        {
          "duration": 0.023255813953483084,
          "durationTicks": 2,
          "midi": 45,
          "name": "A2",
          "ticks": 8904,
          "time": 103.53488372093024,
          "velocity": 0.2283464566929134
        },
        {
          "duration": 0.2674418604651123,
          "durationTicks": 23,
          "midi": 83,
          "name": "B5",
          "ticks": 8905,
          "time": 103.54651162790698,
          "velocity": 0.25196850393700787
        },
        {
          "duration": 0.023255813953483084,
          "durationTicks": 2,
          "midi": 46,
          "name": "A#2",
          "ticks": 8907,
          "time": 103.56976744186046,
          "velocity": 0.3228346456692913
        },
        {
          "duration": 0.04651162790698038,
          "durationTicks": 4,
          "midi": 45,
          "name": "A2",
          "ticks": 8909,
          "time": 103.59302325581395,
          "velocity": 0.3858267716535433
        },
        {
          "duration": 0.05813953488372192,
          "durationTicks": 5,
          "midi": 89,
          "name": "F6",
          "ticks": 8909,
          "time": 103.59302325581395,
          "velocity": 0.11023622047244094
        },
        {
          "duration": 0.04651162790696617,
          "durationTicks": 4,
          "midi": 75,
          "name": "D#5",
          "ticks": 8910,
          "time": 103.6046511627907,
          "velocity": 0.08661417322834646
        },
        {
          "duration": 0.06976744186046346,
          "durationTicks": 6,
          "midi": 55,
          "name": "G3",
          "ticks": 8911,
          "time": 103.61627906976744,
          "velocity": 0.2204724409448819
        },
        {
          "duration": 0.16279069767442422,
          "durationTicks": 14,
          "midi": 88,
          "name": "E6",
          "ticks": 8912,
          "time": 103.62790697674419,
          "velocity": 0.09448818897637795
        },
        {
          "duration": 0.13953488372094114,
          "durationTicks": 12,
          "midi": 62,
          "name": "D4",
          "ticks": 8914,
          "time": 103.65116279069767,
          "velocity": 0.13385826771653545
        },
        {
          "duration": 0.03488372093023884,
          "durationTicks": 3,
          "midi": 71,
          "name": "B4",
          "ticks": 8914,
          "time": 103.65116279069767,
          "velocity": 0.11811023622047244
        },
        {
          "duration": 0.04651162790698038,
          "durationTicks": 4,
          "midi": 69,
          "name": "A4",
          "ticks": 8916,
          "time": 103.67441860465117,
          "velocity": 0.2440944881889764
        },
        {
          "duration": 0.06976744186046346,
          "durationTicks": 6,
          "midi": 55,
          "name": "G3",
          "ticks": 8918,
          "time": 103.69767441860465,
          "velocity": 0.2440944881889764
        },
        {
          "duration": 0.081395348837205,
          "durationTicks": 7,
          "midi": 75,
          "name": "D#5",
          "ticks": 8918,
          "time": 103.69767441860465,
          "velocity": 0.09448818897637795
        },
        {
          "duration": 0.034883720930224626,
          "durationTicks": 3,
          "midi": 71,
          "name": "B4",
          "ticks": 8921,
          "time": 103.73255813953489,
          "velocity": 0.09448818897637795
        },
        {
          "duration": 0.023255813953483084,
          "durationTicks": 2,
          "midi": 45,
          "name": "A2",
          "ticks": 8923,
          "time": 103.75581395348837,
          "velocity": 0.28346456692913385
        },
        {
          "duration": 0.3953488372092977,
          "durationTicks": 34,
          "midi": 69,
          "name": "A4",
          "ticks": 8923,
          "time": 103.75581395348837,
          "velocity": 0.3543307086614173
        },
        {
          "duration": 0.4767441860465027,
          "durationTicks": 41,
          "midi": 77,
          "name": "F5",
          "ticks": 8926,
          "time": 103.79069767441861,
          "velocity": 0.3937007874015748
        },
        {
          "duration": 0.06976744186046346,
          "durationTicks": 6,
          "midi": 84,
          "name": "C6",
          "ticks": 8926,
          "time": 103.79069767441861,
          "velocity": 0.11811023622047244
        },
        {
          "duration": 0.30232558139535115,
          "durationTicks": 26,
          "midi": 87,
          "name": "D#6",
          "ticks": 8927,
          "time": 103.80232558139535,
          "velocity": 0.33858267716535434
        },
        {
          "duration": 0.43023255813953654,
          "durationTicks": 37,
          "midi": 88,
          "name": "E6",
          "ticks": 8927,
          "time": 103.80232558139535,
          "velocity": 0.31496062992125984
        },
        {
          "duration": 0.19767441860464885,
          "durationTicks": 17,
          "midi": 91,
          "name": "G6",
          "ticks": 8927,
          "time": 103.80232558139535,
          "velocity": 0.13385826771653545
        },
        {
          "duration": 0.023255813953483084,
          "durationTicks": 2,
          "midi": 45,
          "name": "A2",
          "ticks": 8928,
          "time": 103.81395348837209,
          "velocity": 0.25196850393700787
        },
        {
          "duration": 0.05813953488372192,
          "durationTicks": 5,
          "midi": 65,
          "name": "F4",
          "ticks": 8928,
          "time": 103.81395348837209,
          "velocity": 0.2755905511811024
        },
        {
          "duration": 1.8139534883720927,
          "durationTicks": 156,
          "midi": 74,
          "name": "D5",
          "ticks": 8928,
          "time": 103.81395348837209,
          "velocity": 0.4094488188976378
        },
        {
          "duration": 0.1046511627907023,
          "durationTicks": 9,
          "midi": 85,
          "name": "C#6",
          "ticks": 8929,
          "time": 103.82558139534883,
          "velocity": 0.10236220472440945
        },
        {
          "duration": 0.15116279069768268,
          "durationTicks": 13,
          "midi": 53,
          "name": "F3",
          "ticks": 8930,
          "time": 103.83720930232558,
          "velocity": 0.2755905511811024
        },
        {
          "duration": 0.034883720930224626,
          "durationTicks": 3,
          "midi": 60,
          "name": "C4",
          "ticks": 8931,
          "time": 103.84883720930233,
          "velocity": 0.1732283464566929
        },
        {
          "duration": 0.15116279069768268,
          "durationTicks": 13,
          "midi": 65,
          "name": "F4",
          "ticks": 8934,
          "time": 103.88372093023256,
          "velocity": 0.2755905511811024
        },
        {
          "duration": 0.034883720930224626,
          "durationTicks": 3,
          "midi": 48,
          "name": "C3",
          "ticks": 8936,
          "time": 103.90697674418605,
          "velocity": 0.23622047244094488
        },
        {
          "duration": 0.06976744186046346,
          "durationTicks": 6,
          "midi": 48,
          "name": "C3",
          "ticks": 8940,
          "time": 103.95348837209302,
          "velocity": 0.23622047244094488
        },
        {
          "duration": 0.04651162790698038,
          "durationTicks": 4,
          "midi": 57,
          "name": "A3",
          "ticks": 8941,
          "time": 103.96511627906976,
          "velocity": 0.14960629921259844
        },
        {
          "duration": 0.04651162790696617,
          "durationTicks": 4,
          "midi": 48,
          "name": "C3",
          "ticks": 8947,
          "time": 104.03488372093024,
          "velocity": 0.3464566929133858
        },
        {
          "duration": 0.32558139534883423,
          "durationTicks": 28,
          "midi": 67,
          "name": "G4",
          "ticks": 8947,
          "time": 104.03488372093024,
          "velocity": 0.33858267716535434
        },
        {
          "duration": 0.034883720930224626,
          "durationTicks": 3,
          "midi": 83,
          "name": "B5",
          "ticks": 8947,
          "time": 104.03488372093024,
          "velocity": 0.16535433070866143
        },
        {
          "duration": 0.4534883720930196,
          "durationTicks": 39,
          "midi": 84,
          "name": "C6",
          "ticks": 8947,
          "time": 104.03488372093024,
          "velocity": 0.13385826771653545
        },
        {
          "duration": 0.11627906976742963,
          "durationTicks": 10,
          "midi": 91,
          "name": "G6",
          "ticks": 8947,
          "time": 104.03488372093024,
          "velocity": 0.11811023622047244
        },
        {
          "duration": 0.023255813953483084,
          "durationTicks": 2,
          "midi": 65,
          "name": "F4",
          "ticks": 8948,
          "time": 104.04651162790698,
          "velocity": 0.36220472440944884
        },
        {
          "duration": 0.023255813953483084,
          "durationTicks": 2,
          "midi": 53,
          "name": "F3",
          "ticks": 8949,
          "time": 104.05813953488372,
          "velocity": 0.3228346456692913
        },
        {
          "duration": 0.023255813953483084,
          "durationTicks": 2,
          "midi": 64,
          "name": "E4",
          "ticks": 8950,
          "time": 104.06976744186046,
          "velocity": 0.30708661417322836
        },
        {
          "duration": 0.24418604651162923,
          "durationTicks": 21,
          "midi": 89,
          "name": "F6",
          "ticks": 8951,
          "time": 104.0813953488372,
          "velocity": 0.4330708661417323
        },
        {
          "duration": 0.3139534883721069,
          "durationTicks": 27,
          "midi": 83,
          "name": "B5",
          "ticks": 8952,
          "time": 104.09302325581395,
          "velocity": 0.15748031496062992
        },
        {
          "duration": 0.023255813953483084,
          "durationTicks": 2,
          "midi": 64,
          "name": "E4",
          "ticks": 8954,
          "time": 104.11627906976744,
          "velocity": 0.30708661417322836
        },
        {
          "duration": 0.13953488372092693,
          "durationTicks": 12,
          "midi": 48,
          "name": "C3",
          "ticks": 8955,
          "time": 104.12790697674419,
          "velocity": 0.2755905511811024
        },
        {
          "duration": 0.023255813953497295,
          "durationTicks": 2,
          "midi": 65,
          "name": "F4",
          "ticks": 8957,
          "time": 104.15116279069767,
          "velocity": 0.30708661417322836
        },
        {
          "duration": 0.023255813953497295,
          "durationTicks": 2,
          "midi": 65,
          "name": "F4",
          "ticks": 8961,
          "time": 104.19767441860465,
          "velocity": 0.29133858267716534
        },
        {
          "duration": 0.2674418604651123,
          "durationTicks": 23,
          "midi": 72,
          "name": "C5",
          "ticks": 8963,
          "time": 104.22093023255815,
          "velocity": 0.4409448818897638
        },
        {
          "duration": 0.1860465116279073,
          "durationTicks": 16,
          "midi": 90,
          "name": "F#6",
          "ticks": 8965,
          "time": 104.24418604651163,
          "velocity": 0.4251968503937008
        },
        {
          "duration": 0.03488372093023884,
          "durationTicks": 3,
          "midi": 65,
          "name": "F4",
          "ticks": 8966,
          "time": 104.25581395348837,
          "velocity": 0.2677165354330709
        },
        {
          "duration": 0.9883720930232585,
          "durationTicks": 85,
          "midi": 79,
          "name": "G5",
          "ticks": 8966,
          "time": 104.25581395348837,
          "velocity": 0.4251968503937008
        },
        {
          "duration": 0.06976744186046346,
          "durationTicks": 6,
          "midi": 88,
          "name": "E6",
          "ticks": 8966,
          "time": 104.25581395348837,
          "velocity": 0.2125984251968504
        },
        {
          "duration": 0.22093023255814614,
          "durationTicks": 19,
          "midi": 76,
          "name": "E5",
          "ticks": 8967,
          "time": 104.26744186046511,
          "velocity": 0.4015748031496063
        },
        {
          "duration": 0.05813953488372192,
          "durationTicks": 5,
          "midi": 81,
          "name": "A5",
          "ticks": 8968,
          "time": 104.27906976744185,
          "velocity": 0.09448818897637795
        },
        {
          "duration": 0.09302325581396076,
          "durationTicks": 8,
          "midi": 64,
          "name": "E4",
          "ticks": 8971,
          "time": 104.31395348837209,
          "velocity": 0.31496062992125984
        },
        {
          "duration": 0.03488372093023884,
          "durationTicks": 3,
          "midi": 82,
          "name": "A#5",
          "ticks": 8972,
          "time": 104.32558139534883,
          "velocity": 0.07086614173228346
        },
        {
          "duration": 0.6511627906976827,
          "durationTicks": 56,
          "midi": 69,
          "name": "A4",
          "ticks": 8973,
          "time": 104.33720930232558,
          "velocity": 0.3543307086614173
        },
        {
          "duration": 0.13953488372092693,
          "durationTicks": 12,
          "midi": 89,
          "name": "F6",
          "ticks": 8975,
          "time": 104.36046511627907,
          "velocity": 0.4330708661417323
        },
        {
          "duration": 0.04651162790698038,
          "durationTicks": 4,
          "midi": 48,
          "name": "C3",
          "ticks": 8978,
          "time": 104.3953488372093,
          "velocity": 0.16535433070866143
        },
        {
          "duration": 0.034883720930224626,
          "durationTicks": 3,
          "midi": 65,
          "name": "F4",
          "ticks": 8979,
          "time": 104.40697674418605,
          "velocity": 0.2755905511811024
        },
        {
          "duration": 0.03488372093023884,
          "durationTicks": 3,
          "midi": 65,
          "name": "F4",
          "ticks": 8983,
          "time": 104.45348837209302,
          "velocity": 0.23622047244094488
        },
        {
          "duration": 1.1279069767441854,
          "durationTicks": 97,
          "midi": 83,
          "name": "B5",
          "ticks": 8983,
          "time": 104.45348837209302,
          "velocity": 0.2440944881889764
        },
        {
          "duration": 0.023255813953483084,
          "durationTicks": 2,
          "midi": 61,
          "name": "C#4",
          "ticks": 8985,
          "time": 104.47674418604652,
          "velocity": 0.25984251968503935
        },
        {
          "duration": 0.25581395348837077,
          "durationTicks": 22,
          "midi": 77,
          "name": "F5",
          "ticks": 8985,
          "time": 104.47674418604652,
          "velocity": 0.4566929133858268
        },
        {
          "duration": 0.2674418604651123,
          "durationTicks": 23,
          "midi": 90,
          "name": "F#6",
          "ticks": 8985,
          "time": 104.47674418604652,
          "velocity": 0.4566929133858268
        },
        {
          "duration": 0.023255813953483084,
          "durationTicks": 2,
          "midi": 56,
          "name": "G#3",
          "ticks": 8986,
          "time": 104.48837209302326,
          "velocity": 0.25196850393700787
        },
        {
          "duration": 0.11627906976744384,
          "durationTicks": 10,
          "midi": 88,
          "name": "E6",
          "ticks": 8986,
          "time": 104.48837209302326,
          "velocity": 0.1968503937007874
        },
        {
          "duration": 0.2093023255813904,
          "durationTicks": 18,
          "midi": 60,
          "name": "C4",
          "ticks": 8987,
          "time": 104.5,
          "velocity": 0.31496062992125984
        },
        {
          "duration": 0.023255813953483084,
          "durationTicks": 2,
          "midi": 65,
          "name": "F4",
          "ticks": 8987,
          "time": 104.5,
          "velocity": 0.33070866141732286
        },
        {
          "duration": 0.8720930232558146,
          "durationTicks": 75,
          "midi": 84,
          "name": "C6",
          "ticks": 8988,
          "time": 104.51162790697674,
          "velocity": 0.2125984251968504
        },
        {
          "duration": 0.023255813953497295,
          "durationTicks": 2,
          "midi": 54,
          "name": "F#3",
          "ticks": 8989,
          "time": 104.52325581395348,
          "velocity": 0.23622047244094488
        },
        {
          "duration": 0.023255813953483084,
          "durationTicks": 2,
          "midi": 65,
          "name": "F4",
          "ticks": 8990,
          "time": 104.53488372093024,
          "velocity": 0.36220472440944884
        },
        {
          "duration": 0.17441860465116577,
          "durationTicks": 15,
          "midi": 67,
          "name": "G4",
          "ticks": 8991,
          "time": 104.54651162790698,
          "velocity": 0.33070866141732286
        },
        {
          "duration": 0.023255813953483084,
          "durationTicks": 2,
          "midi": 64,
          "name": "E4",
          "ticks": 8992,
          "time": 104.55813953488372,
          "velocity": 0.2440944881889764
        },
        {
          "duration": 0.023255813953483084,
          "durationTicks": 2,
          "midi": 55,
          "name": "G3",
          "ticks": 8993,
          "time": 104.56976744186046,
          "velocity": 0.23622047244094488
        },
        {
          "duration": 0.03488372093023884,
          "durationTicks": 3,
          "midi": 65,
          "name": "F4",
          "ticks": 8994,
          "time": 104.5813953488372,
          "velocity": 0.33858267716535434
        },
        {
          "duration": 0.081395348837205,
          "durationTicks": 7,
          "midi": 48,
          "name": "C3",
          "ticks": 8997,
          "time": 104.61627906976744,
          "velocity": 0.1889763779527559
        },
        {
          "duration": 0.03488372093023884,
          "durationTicks": 3,
          "midi": 65,
          "name": "F4",
          "ticks": 8998,
          "time": 104.62790697674419,
          "velocity": 0.33858267716535434
        },
        {
          "duration": 0.03488372093023884,
          "durationTicks": 3,
          "midi": 55,
          "name": "G3",
          "ticks": 8999,
          "time": 104.63953488372093,
          "velocity": 0.2047244094488189
        },
        {
          "duration": 0.16279069767442422,
          "durationTicks": 14,
          "midi": 88,
          "name": "E6",
          "ticks": 8999,
          "time": 104.63953488372093,
          "velocity": 0.25984251968503935
        },
        {
          "duration": 0.034883720930224626,
          "durationTicks": 3,
          "midi": 65,
          "name": "F4",
          "ticks": 9002,
          "time": 104.67441860465117,
          "velocity": 0.2992125984251969
        },
        {
          "duration": 0.6046511627907023,
          "durationTicks": 52,
          "midi": 72,
          "name": "C5",
          "ticks": 9005,
          "time": 104.70930232558139,
          "velocity": 0.49606299212598426
        },
        {
          "duration": 0.1046511627907023,
          "durationTicks": 9,
          "midi": 76,
          "name": "E5",
          "ticks": 9005,
          "time": 104.70930232558139,
          "velocity": 0.3858267716535433
        },
        {
          "duration": 0.5348837209302388,
          "durationTicks": 46,
          "midi": 92,
          "name": "G#6",
          "ticks": 9005,
          "time": 104.70930232558139,
          "velocity": 0.3543307086614173
        },
        {
          "duration": 0.22093023255813193,
          "durationTicks": 19,
          "midi": 48,
          "name": "C3",
          "ticks": 9006,
          "time": 104.72093023255815,
          "velocity": 0.3779527559055118
        },
        {
          "duration": 0.10465116279068809,
          "durationTicks": 9,
          "midi": 65,
          "name": "F4",
          "ticks": 9006,
          "time": 104.72093023255815,
          "velocity": 0.33070866141732286
        },
        {
          "duration": 0.09302325581394655,
          "durationTicks": 8,
          "midi": 82,
          "name": "A#5",
          "ticks": 9008,
          "time": 104.74418604651163,
          "velocity": 0.10236220472440945
        },
        {
          "duration": 0.1046511627907023,
          "durationTicks": 9,
          "midi": 90,
          "name": "F#6",
          "ticks": 9009,
          "time": 104.75581395348837,
          "velocity": 0.16535433070866143
        },
        {
          "duration": 0.03488372093023884,
          "durationTicks": 3,
          "midi": 65,
          "name": "F4",
          "ticks": 9016,
          "time": 104.83720930232558,
          "velocity": 0.25984251968503935
        },
        {
          "duration": 0.09302325581396076,
          "durationTicks": 8,
          "midi": 88,
          "name": "E6",
          "ticks": 9016,
          "time": 104.83720930232558,
          "velocity": 0.1732283464566929
        },
        {
          "duration": 0.1860465116279073,
          "durationTicks": 16,
          "midi": 76,
          "name": "E5",
          "ticks": 9018,
          "time": 104.86046511627907,
          "velocity": 0.3464566929133858
        },
        {
          "duration": 0.09302325581396076,
          "durationTicks": 8,
          "midi": 65,
          "name": "F4",
          "ticks": 9020,
          "time": 104.88372093023256,
          "velocity": 0.3228346456692913
        },
        {
          "duration": 0.1046511627907023,
          "durationTicks": 9,
          "midi": 82,
          "name": "A#5",
          "ticks": 9024,
          "time": 104.93023255813954,
          "velocity": 0.09448818897637795
        },
        {
          "duration": 0.081395348837205,
          "durationTicks": 7,
          "midi": 90,
          "name": "F#6",
          "ticks": 9025,
          "time": 104.94186046511628,
          "velocity": 0.1889763779527559
        },
        {
          "duration": 0.09302325581396076,
          "durationTicks": 8,
          "midi": 60,
          "name": "C4",
          "ticks": 9026,
          "time": 104.95348837209302,
          "velocity": 0.33070866141732286
        },
        {
          "duration": 0.22093023255814614,
          "durationTicks": 19,
          "midi": 55,
          "name": "G3",
          "ticks": 9027,
          "time": 104.96511627906976,
          "velocity": 0.2992125984251969
        },
        {
          "duration": 0.023255813953483084,
          "durationTicks": 2,
          "midi": 64,
          "name": "E4",
          "ticks": 9028,
          "time": 104.97674418604652,
          "velocity": 0.2677165354330709
        },
        {
          "duration": 0.66279069767441,
          "durationTicks": 57,
          "midi": 67,
          "name": "G4",
          "ticks": 9028,
          "time": 104.97674418604652,
          "velocity": 0.3700787401574803
        },
        {
          "duration": 0.06976744186046346,
          "durationTicks": 6,
          "midi": 89,
          "name": "F6",
          "ticks": 9030,
          "time": 105,
          "velocity": 0.10236220472440945
        },
        {
          "duration": 0.11627906976742963,
          "durationTicks": 10,
          "midi": 81,
          "name": "A5",
          "ticks": 9033,
          "time": 105.03488372093024,
          "velocity": 0.12598425196850394
        },
        {
          "duration": 0.16279069767441,
          "durationTicks": 14,
          "midi": 93,
          "name": "A6",
          "ticks": 9033,
          "time": 105.03488372093024,
          "velocity": 0.3858267716535433
        },
        {
          "duration": 0.04651162790698038,
          "durationTicks": 4,
          "midi": 60,
          "name": "C4",
          "ticks": 9035,
          "time": 105.05813953488372,
          "velocity": 0.28346456692913385
        },
        {
          "duration": 0.2325581395348877,
          "durationTicks": 20,
          "midi": 76,
          "name": "E5",
          "ticks": 9035,
          "time": 105.05813953488372,
          "velocity": 0.2677165354330709
        },
        {
          "duration": 0.1046511627907023,
          "durationTicks": 9,
          "midi": 90,
          "name": "F#6",
          "ticks": 9035,
          "time": 105.05813953488372,
          "velocity": 0.15748031496062992
        },
        {
          "duration": 0.1046511627907023,
          "durationTicks": 9,
          "midi": 60,
          "name": "C4",
          "ticks": 9040,
          "time": 105.11627906976744,
          "velocity": 0.23622047244094488
        },
        {
          "duration": 0.023255813953483084,
          "durationTicks": 2,
          "midi": 50,
          "name": "D3",
          "ticks": 9041,
          "time": 105.12790697674419,
          "velocity": 0.2677165354330709
        },
        {
          "duration": 0.15116279069766847,
          "durationTicks": 13,
          "midi": 94,
          "name": "A#6",
          "ticks": 9044,
          "time": 105.16279069767442,
          "velocity": 0.3937007874015748
        },
        {
          "duration": 0.11627906976744384,
          "durationTicks": 10,
          "midi": 82,
          "name": "A#5",
          "ticks": 9045,
          "time": 105.17441860465117,
          "velocity": 0.11811023622047244
        },
        {
          "duration": 0.2093023255813904,
          "durationTicks": 18,
          "midi": 89,
          "name": "F6",
          "ticks": 9045,
          "time": 105.17441860465117,
          "velocity": 0.12598425196850394
        },
        {
          "duration": 0.04651162790698038,
          "durationTicks": 4,
          "midi": 48,
          "name": "C3",
          "ticks": 9047,
          "time": 105.19767441860465,
          "velocity": 0.2755905511811024
        },
        {
          "duration": 0.11627906976744384,
          "durationTicks": 10,
          "midi": 55,
          "name": "G3",
          "ticks": 9047,
          "time": 105.19767441860465,
          "velocity": 0.2677165354330709
        },
        {
          "duration": 0.03488372093023884,
          "durationTicks": 3,
          "midi": 64,
          "name": "E4",
          "ticks": 9052,
          "time": 105.25581395348837,
          "velocity": 0.2283464566929134
        },
        {
          "duration": 0.04651162790698038,
          "durationTicks": 4,
          "midi": 90,
          "name": "F#6",
          "ticks": 9052,
          "time": 105.25581395348837,
          "velocity": 0.16535433070866143
        },
        {
          "duration": 0.023255813953497295,
          "durationTicks": 2,
          "midi": 49,
          "name": "C#3",
          "ticks": 9053,
          "time": 105.26744186046511,
          "velocity": 0.28346456692913385
        },
        {
          "duration": 0.3139534883720927,
          "durationTicks": 27,
          "midi": 93,
          "name": "A6",
          "ticks": 9053,
          "time": 105.26744186046511,
          "velocity": 0.4015748031496063
        },
        {
          "duration": 0.081395348837205,
          "durationTicks": 7,
          "midi": 64,
          "name": "E4",
          "ticks": 9057,
          "time": 105.31395348837209,
          "velocity": 0.2992125984251969
        },
        {
          "duration": 0.9302325581395365,
          "durationTicks": 80,
          "midi": 76,
          "name": "E5",
          "ticks": 9057,
          "time": 105.31395348837209,
          "velocity": 0.3228346456692913
        },
        {
          "duration": 0.08139534883721922,
          "durationTicks": 7,
          "midi": 71,
          "name": "B4",
          "ticks": 9058,
          "time": 105.32558139534883,
          "velocity": 0.11811023622047244
        },
        {
          "duration": 0.32558139534883423,
          "durationTicks": 28,
          "midi": 90,
          "name": "F#6",
          "ticks": 9058,
          "time": 105.32558139534883,
          "velocity": 0.23622047244094488
        },
        {
          "duration": 0.023255813953483084,
          "durationTicks": 2,
          "midi": 51,
          "name": "D#3",
          "ticks": 9061,
          "time": 105.36046511627907,
          "velocity": 0.29133858267716534
        },
        {
          "duration": 0.023255813953497295,
          "durationTicks": 2,
          "midi": 49,
          "name": "C#3",
          "ticks": 9063,
          "time": 105.38372093023256,
          "velocity": 0.3464566929133858
        },
        {
          "duration": 0.17441860465116577,
          "durationTicks": 15,
          "midi": 94,
          "name": "A#6",
          "ticks": 9063,
          "time": 105.38372093023256,
          "velocity": 0.4094488188976378
        },
        {
          "duration": 0.023255813953483084,
          "durationTicks": 2,
          "midi": 48,
          "name": "C3",
          "ticks": 9065,
          "time": 105.40697674418605,
          "velocity": 0.3779527559055118
        },
        {
          "duration": 0.7093023255813904,
          "durationTicks": 61,
          "midi": 60,
          "name": "C4",
          "ticks": 9065,
          "time": 105.40697674418605,
          "velocity": 0.4094488188976378
        },
        {
          "duration": 0.22093023255813193,
          "durationTicks": 19,
          "midi": 55,
          "name": "G3",
          "ticks": 9066,
          "time": 105.4186046511628,
          "velocity": 0.33070866141732286
        },
        {
          "duration": 0.43023255813953654,
          "durationTicks": 37,
          "midi": 64,
          "name": "E4",
          "ticks": 9066,
          "time": 105.4186046511628,
          "velocity": 0.3700787401574803
        },
        {
          "duration": 0.023255813953483084,
          "durationTicks": 2,
          "midi": 48,
          "name": "C3",
          "ticks": 9068,
          "time": 105.44186046511628,
          "velocity": 0.3543307086614173
        },
        {
          "duration": 0.023255813953497295,
          "durationTicks": 2,
          "midi": 49,
          "name": "C#3",
          "ticks": 9070,
          "time": 105.46511627906976,
          "velocity": 0.33070866141732286
        },
        {
          "duration": 0.11627906976742963,
          "durationTicks": 10,
          "midi": 82,
          "name": "A#5",
          "ticks": 9071,
          "time": 105.47674418604652,
          "velocity": 0.09448818897637795
        },
        {
          "duration": 0.15116279069766847,
          "durationTicks": 13,
          "midi": 95,
          "name": "B6",
          "ticks": 9073,
          "time": 105.5,
          "velocity": 0.33858267716535434
        },
        {
          "duration": 0.04651162790698038,
          "durationTicks": 4,
          "midi": 48,
          "name": "C3",
          "ticks": 9074,
          "time": 105.51162790697674,
          "velocity": 0.36220472440944884
        },
        {
          "duration": 0.05813953488370771,
          "durationTicks": 5,
          "midi": 89,
          "name": "F6",
          "ticks": 9076,
          "time": 105.53488372093024,
          "velocity": 0.07874015748031496
        },
        {
          "duration": 0.023255813953483084,
          "durationTicks": 2,
          "midi": 48,
          "name": "C3",
          "ticks": 9079,
          "time": 105.56976744186046,
          "velocity": 0.3464566929133858
        },
        {
          "duration": 0.023255813953483084,
          "durationTicks": 2,
          "midi": 47,
          "name": "B2",
          "ticks": 9083,
          "time": 105.61627906976744,
          "velocity": 0.2283464566929134
        },
        {
          "duration": 0.6395348837209269,
          "durationTicks": 55,
          "midi": 69,
          "name": "A4",
          "ticks": 9083,
          "time": 105.61627906976744,
          "velocity": 0.36220472440944884
        },
        {
          "duration": 0.2674418604651123,
          "durationTicks": 23,
          "midi": 84,
          "name": "C6",
          "ticks": 9083,
          "time": 105.61627906976744,
          "velocity": 0.3700787401574803
        },
        {
          "duration": 0.12790697674418539,
          "durationTicks": 11,
          "midi": 96,
          "name": "C7",
          "ticks": 9083,
          "time": 105.61627906976744,
          "velocity": 0.3779527559055118
        },
        {
          "duration": 0.2674418604651123,
          "durationTicks": 23,
          "midi": 72,
          "name": "C5",
          "ticks": 9084,
          "time": 105.62790697674419,
          "velocity": 0.4330708661417323
        },
        {
          "duration": 0.16279069767442422,
          "durationTicks": 14,
          "midi": 86,
          "name": "D6",
          "ticks": 9084,
          "time": 105.62790697674419,
          "velocity": 0.14960629921259844
        },
        {
          "duration": 0.06976744186046346,
          "durationTicks": 6,
          "midi": 91,
          "name": "G6",
          "ticks": 9084,
          "time": 105.62790697674419,
          "velocity": 0.10236220472440945
        },
        {
          "duration": 0.11627906976744384,
          "durationTicks": 10,
          "midi": 74,
          "name": "D5",
          "ticks": 9085,
          "time": 105.63953488372093,
          "velocity": 0.18110236220472442
        },
        {
          "duration": 0.1860465116279073,
          "durationTicks": 16,
          "midi": 45,
          "name": "A2",
          "ticks": 9090,
          "time": 105.69767441860465,
          "velocity": 0.4330708661417323
        },
        {
          "duration": 0.3488372093023173,
          "durationTicks": 30,
          "midi": 85,
          "name": "C#6",
          "ticks": 9103,
          "time": 105.84883720930233,
          "velocity": 0.1732283464566929
        },
        {
          "duration": 0.4534883720930196,
          "durationTicks": 39,
          "midi": 64,
          "name": "E4",
          "ticks": 9104,
          "time": 105.86046511627907,
          "velocity": 0.3700787401574803
        },
        {
          "duration": 0.13953488372092693,
          "durationTicks": 12,
          "midi": 86,
          "name": "D6",
          "ticks": 9104,
          "time": 105.86046511627907,
          "velocity": 0.12598425196850394
        },
        {
          "duration": 0.023255813953497295,
          "durationTicks": 2,
          "midi": 44,
          "name": "G#2",
          "ticks": 9106,
          "time": 105.88372093023256,
          "velocity": 0.4015748031496063
        },
        {
          "duration": 0.04651162790698038,
          "durationTicks": 4,
          "midi": 52,
          "name": "E3",
          "ticks": 9106,
          "time": 105.88372093023256,
          "velocity": 0.25984251968503935
        },
        {
          "duration": 0.11627906976742963,
          "durationTicks": 10,
          "midi": 45,
          "name": "A2",
          "ticks": 9108,
          "time": 105.90697674418605,
          "velocity": 0.4094488188976378
        },
        {
          "duration": 0.023255813953483084,
          "durationTicks": 2,
          "midi": 71,
          "name": "B4",
          "ticks": 9109,
          "time": 105.9186046511628,
          "velocity": 0.36220472440944884
        },
        {
          "duration": 0.023255813953483084,
          "durationTicks": 2,
          "midi": 52,
          "name": "E3",
          "ticks": 9111,
          "time": 105.94186046511628,
          "velocity": 0.25196850393700787
        },
        {
          "duration": 1.5,
          "durationTicks": 129,
          "midi": 72,
          "name": "C5",
          "ticks": 9111,
          "time": 105.94186046511628,
          "velocity": 0.48031496062992124
        },
        {
          "duration": 0.3720930232558146,
          "durationTicks": 32,
          "midi": 83,
          "name": "B5",
          "ticks": 9112,
          "time": 105.95348837209302,
          "velocity": 0.13385826771653545
        },
        {
          "duration": 0.11627906976744384,
          "durationTicks": 10,
          "midi": 91,
          "name": "G6",
          "ticks": 9117,
          "time": 106.01162790697674,
          "velocity": 0.10236220472440945
        },
        {
          "duration": 0.034883720930224626,
          "durationTicks": 3,
          "midi": 45,
          "name": "A2",
          "ticks": 9119,
          "time": 106.03488372093024,
          "velocity": 0.36220472440944884
        },
        {
          "duration": 0.023255813953497295,
          "durationTicks": 2,
          "midi": 46,
          "name": "A#2",
          "ticks": 9124,
          "time": 106.09302325581395,
          "velocity": 0.33858267716535434
        },
        {
          "duration": 0.03488372093023884,
          "durationTicks": 3,
          "midi": 45,
          "name": "A2",
          "ticks": 9128,
          "time": 106.13953488372093,
          "velocity": 0.3543307086614173
        },
        {
          "duration": 0.04651162790698038,
          "durationTicks": 4,
          "midi": 60,
          "name": "C4",
          "ticks": 9128,
          "time": 106.13953488372093,
          "velocity": 0.2204724409448819
        },
        {
          "duration": 0.03488372093023884,
          "durationTicks": 3,
          "midi": 45,
          "name": "A2",
          "ticks": 9132,
          "time": 106.18604651162791,
          "velocity": 0.36220472440944884
        },
        {
          "duration": 0.04651162790698038,
          "durationTicks": 4,
          "midi": 61,
          "name": "C#4",
          "ticks": 9133,
          "time": 106.19767441860465,
          "velocity": 0.2283464566929134
        },
        {
          "duration": 0.034883720930224626,
          "durationTicks": 3,
          "midi": 45,
          "name": "A2",
          "ticks": 9136,
          "time": 106.23255813953489,
          "velocity": 0.33070866141732286
        },
        {
          "duration": 0.32558139534883423,
          "durationTicks": 28,
          "midi": 79,
          "name": "G5",
          "ticks": 9136,
          "time": 106.23255813953489,
          "velocity": 0.3858267716535433
        },
        {
          "duration": 0.38372093023255616,
          "durationTicks": 33,
          "midi": 67,
          "name": "G4",
          "ticks": 9137,
          "time": 106.24418604651163,
          "velocity": 0.41732283464566927
        },
        {
          "duration": 0.04651162790698038,
          "durationTicks": 4,
          "midi": 45,
          "name": "A2",
          "ticks": 9140,
          "time": 106.27906976744185,
          "velocity": 0.3228346456692913
        },
        {
          "duration": 0.09302325581394655,
          "durationTicks": 8,
          "midi": 52,
          "name": "E3",
          "ticks": 9142,
          "time": 106.30232558139535,
          "velocity": 0.2755905511811024
        },
        {
          "duration": 0.2093023255813904,
          "durationTicks": 18,
          "midi": 85,
          "name": "C#6",
          "ticks": 9143,
          "time": 106.31395348837209,
          "velocity": 0.15748031496062992
        },
        {
          "duration": 0.13953488372092693,
          "durationTicks": 12,
          "midi": 86,
          "name": "D6",
          "ticks": 9143,
          "time": 106.31395348837209,
          "velocity": 0.16535433070866143
        },
        {
          "duration": 0.2325581395348877,
          "durationTicks": 20,
          "midi": 90,
          "name": "F#6",
          "ticks": 9143,
          "time": 106.31395348837209,
          "velocity": 0.11023622047244094
        },
        {
          "duration": 0.03488372093023884,
          "durationTicks": 3,
          "midi": 44,
          "name": "G#2",
          "ticks": 9144,
          "time": 106.32558139534883,
          "velocity": 0.4015748031496063
        },
        {
          "duration": 0.1860465116279073,
          "durationTicks": 16,
          "midi": 45,
          "name": "A2",
          "ticks": 9147,
          "time": 106.36046511627907,
          "velocity": 0.3858267716535433
        },
        {
          "duration": 0.023255813953483084,
          "durationTicks": 2,
          "midi": 52,
          "name": "E3",
          "ticks": 9151,
          "time": 106.40697674418605,
          "velocity": 0.2440944881889764
        },
        {
          "duration": 0.05813953488372192,
          "durationTicks": 5,
          "midi": 61,
          "name": "C#4",
          "ticks": 9153,
          "time": 106.43023255813954,
          "velocity": 0.1889763779527559
        },
        {
          "duration": 0.1046511627907023,
          "durationTicks": 9,
          "midi": 83,
          "name": "B5",
          "ticks": 9159,
          "time": 106.5,
          "velocity": 0.08661417322834646
        },
        {
          "duration": 0.04651162790698038,
          "durationTicks": 4,
          "midi": 86,
          "name": "D6",
          "ticks": 9160,
          "time": 106.51162790697674,
          "velocity": 0.07874015748031496
        },
        {
          "duration": 0.023255813953497295,
          "durationTicks": 2,
          "midi": 61,
          "name": "C#4",
          "ticks": 9161,
          "time": 106.52325581395348,
          "velocity": 0.2992125984251969
        },
        {
          "duration": 1.6511627906976827,
          "durationTicks": 142,
          "midi": 77,
          "name": "F5",
          "ticks": 9161,
          "time": 106.52325581395348,
          "velocity": 0.41732283464566927
        },
        {
          "duration": 0.6046511627906881,
          "durationTicks": 52,
          "midi": 74,
          "name": "D5",
          "ticks": 9162,
          "time": 106.53488372093024,
          "velocity": 0.29133858267716534
        },
        {
          "duration": 0.023255813953483084,
          "durationTicks": 2,
          "midi": 44,
          "name": "G#2",
          "ticks": 9163,
          "time": 106.54651162790698,
          "velocity": 0.30708661417322836
        },
        {
          "duration": 0.09302325581394655,
          "durationTicks": 8,
          "midi": 81,
          "name": "A5",
          "ticks": 9163,
          "time": 106.54651162790698,
          "velocity": 0.11811023622047244
        },
        {
          "duration": 0.17441860465116577,
          "durationTicks": 15,
          "midi": 87,
          "name": "D#6",
          "ticks": 9163,
          "time": 106.54651162790698,
          "velocity": 0.07874015748031496
        },
        {
          "duration": 0.081395348837205,
          "durationTicks": 7,
          "midi": 96,
          "name": "C7",
          "ticks": 9163,
          "time": 106.54651162790698,
          "velocity": 0.11811023622047244
        },
        {
          "duration": 0.023255813953483084,
          "durationTicks": 2,
          "midi": 63,
          "name": "D#4",
          "ticks": 9164,
          "time": 106.55813953488372,
          "velocity": 0.25196850393700787
        },
        {
          "duration": 0.023255813953483084,
          "durationTicks": 2,
          "midi": 53,
          "name": "F3",
          "ticks": 9165,
          "time": 106.56976744186046,
          "velocity": 0.25984251968503935
        },
        {
          "duration": 0.023255813953497295,
          "durationTicks": 2,
          "midi": 45,
          "name": "A2",
          "ticks": 9166,
          "time": 106.5813953488372,
          "velocity": 0.31496062992125984
        },
        {
          "duration": 0.05813953488372192,
          "durationTicks": 5,
          "midi": 62,
          "name": "D4",
          "ticks": 9166,
          "time": 106.5813953488372,
          "velocity": 0.3228346456692913
        },
        {
          "duration": 0.6046511627907023,
          "durationTicks": 52,
          "midi": 65,
          "name": "F4",
          "ticks": 9169,
          "time": 106.61627906976744,
          "velocity": 0.41732283464566927
        },
        {
          "duration": 0.023255813953483084,
          "durationTicks": 2,
          "midi": 53,
          "name": "F3",
          "ticks": 9170,
          "time": 106.62790697674419,
          "velocity": 0.31496062992125984
        },
        {
          "duration": 0.04651162790698038,
          "durationTicks": 4,
          "midi": 45,
          "name": "A2",
          "ticks": 9171,
          "time": 106.63953488372093,
          "velocity": 0.2677165354330709
        },
        {
          "duration": 0.023255813953497295,
          "durationTicks": 2,
          "midi": 52,
          "name": "E3",
          "ticks": 9172,
          "time": 106.65116279069767,
          "velocity": 0.31496062992125984
        },
        {
          "duration": 0.04651162790698038,
          "durationTicks": 4,
          "midi": 62,
          "name": "D4",
          "ticks": 9172,
          "time": 106.65116279069767,
          "velocity": 0.25984251968503935
        },
        {
          "duration": 0.03488372093023884,
          "durationTicks": 3,
          "midi": 45,
          "name": "A2",
          "ticks": 9177,
          "time": 106.70930232558139,
          "velocity": 0.2440944881889764
        },
        {
          "duration": 0.023255813953483084,
          "durationTicks": 2,
          "midi": 53,
          "name": "F3",
          "ticks": 9180,
          "time": 106.74418604651163,
          "velocity": 0.25196850393700787
        },
        {
          "duration": 0.6976744186046488,
          "durationTicks": 60,
          "midi": 69,
          "name": "A4",
          "ticks": 9181,
          "time": 106.75581395348837,
          "velocity": 0.3937007874015748
        },
        {
          "duration": 0.22093023255814614,
          "durationTicks": 19,
          "midi": 87,
          "name": "D#6",
          "ticks": 9181,
          "time": 106.75581395348837,
          "velocity": 0.07874015748031496
        },
        {
          "duration": 0.24418604651162923,
          "durationTicks": 21,
          "midi": 88,
          "name": "E6",
          "ticks": 9181,
          "time": 106.75581395348837,
          "velocity": 0.2047244094488189
        },
        {
          "duration": 0.023255813953497295,
          "durationTicks": 2,
          "midi": 51,
          "name": "D#3",
          "ticks": 9182,
          "time": 106.76744186046511,
          "velocity": 0.2440944881889764
        },
        {
          "duration": 0.1046511627907023,
          "durationTicks": 9,
          "midi": 91,
          "name": "G6",
          "ticks": 9182,
          "time": 106.76744186046511,
          "velocity": 0.12598425196850394
        },
        {
          "duration": 0.04651162790696617,
          "durationTicks": 4,
          "midi": 62,
          "name": "D4",
          "ticks": 9184,
          "time": 106.79069767441861,
          "velocity": 0.33070866141732286
        },
        {
          "duration": 0.09302325581394655,
          "durationTicks": 8,
          "midi": 62,
          "name": "D4",
          "ticks": 9189,
          "time": 106.84883720930233,
          "velocity": 0.33858267716535434
        },
        {
          "duration": 0.12790697674418539,
          "durationTicks": 11,
          "midi": 85,
          "name": "C#6",
          "ticks": 9189,
          "time": 106.84883720930233,
          "velocity": 0.12598425196850394
        },
        {
          "duration": 0.04651162790698038,
          "durationTicks": 4,
          "midi": 50,
          "name": "D3",
          "ticks": 9199,
          "time": 106.96511627906976,
          "velocity": 0.25984251968503935
        },
        {
          "duration": 0.2674418604651123,
          "durationTicks": 23,
          "midi": 86,
          "name": "D6",
          "ticks": 9200,
          "time": 106.97674418604652,
          "velocity": 0.3464566929133858
        },
        {
          "duration": 0.04651162790698038,
          "durationTicks": 4,
          "midi": 38,
          "name": "D2",
          "ticks": 9204,
          "time": 107.02325581395348,
          "velocity": 0.18110236220472442
        },
        {
          "duration": 0.04651162790698038,
          "durationTicks": 4,
          "midi": 62,
          "name": "D4",
          "ticks": 9209,
          "time": 107.0813953488372,
          "velocity": 0.2125984251968504
        },
        {
          "duration": 0.023255813953483084,
          "durationTicks": 2,
          "midi": 49,
          "name": "C#3",
          "ticks": 9213,
          "time": 107.12790697674419,
          "velocity": 0.2440944881889764
        },
        {
          "duration": 0.06976744186046346,
          "durationTicks": 6,
          "midi": 38,
          "name": "D2",
          "ticks": 9214,
          "time": 107.13953488372093,
          "velocity": 0.1732283464566929
        },
        {
          "duration": 0.03488372093023884,
          "durationTicks": 3,
          "midi": 88,
          "name": "E6",
          "ticks": 9214,
          "time": 107.13953488372093,
          "velocity": 0.09448818897637795
        },
        {
          "duration": 0.05813953488372192,
          "durationTicks": 5,
          "midi": 50,
          "name": "D3",
          "ticks": 9215,
          "time": 107.15116279069767,
          "velocity": 0.2440944881889764
        },
        {
          "duration": 0.12790697674418539,
          "durationTicks": 11,
          "midi": 60,
          "name": "C4",
          "ticks": 9215,
          "time": 107.15116279069767,
          "velocity": 0.3937007874015748
        },
        {
          "duration": 0.5465116279069804,
          "durationTicks": 47,
          "midi": 74,
          "name": "D5",
          "ticks": 9215,
          "time": 107.15116279069767,
          "velocity": 0.3543307086614173
        },
        {
          "duration": 0.03488372093023884,
          "durationTicks": 3,
          "midi": 87,
          "name": "D#6",
          "ticks": 9215,
          "time": 107.15116279069767,
          "velocity": 0.08661417322834646
        },
        {
          "duration": 1.5813953488372192,
          "durationTicks": 136,
          "midi": 88,
          "name": "E6",
          "ticks": 9220,
          "time": 107.20930232558139,
          "velocity": 0.23622047244094488
        },
        {
          "duration": 0.15116279069766847,
          "durationTicks": 13,
          "midi": 87,
          "name": "D#6",
          "ticks": 9221,
          "time": 107.22093023255815,
          "velocity": 0.14960629921259844
        },
        {
          "duration": 0.2674418604651123,
          "durationTicks": 23,
          "midi": 65,
          "name": "F4",
          "ticks": 9222,
          "time": 107.23255813953489,
          "velocity": 0.30708661417322836
        },
        {
          "duration": 0.11627906976744384,
          "durationTicks": 10,
          "midi": 85,
          "name": "C#6",
          "ticks": 9222,
          "time": 107.23255813953489,
          "velocity": 0.07086614173228346
        },
        {
          "duration": 0.034883720930224626,
          "durationTicks": 3,
          "midi": 91,
          "name": "G6",
          "ticks": 9223,
          "time": 107.24418604651163,
          "velocity": 0.07874015748031496
        },
        {
          "duration": 0.05813953488372192,
          "durationTicks": 5,
          "midi": 93,
          "name": "A6",
          "ticks": 9225,
          "time": 107.26744186046511,
          "velocity": 0.15748031496062992
        },
        {
          "duration": 0.09302325581396076,
          "durationTicks": 8,
          "midi": 53,
          "name": "F3",
          "ticks": 9226,
          "time": 107.27906976744185,
          "velocity": 0.28346456692913385
        },
        {
          "duration": 0.034883720930224626,
          "durationTicks": 3,
          "midi": 57,
          "name": "A3",
          "ticks": 9227,
          "time": 107.29069767441861,
          "velocity": 0.2992125984251969
        },
        {
          "duration": 0.023255813953497295,
          "durationTicks": 2,
          "midi": 60,
          "name": "C4",
          "ticks": 9230,
          "time": 107.32558139534883,
          "velocity": 0.2992125984251969
        },
        {
          "duration": 0.13953488372094114,
          "durationTicks": 12,
          "midi": 57,
          "name": "A3",
          "ticks": 9231,
          "time": 107.33720930232558,
          "velocity": 0.3228346456692913
        },
        {
          "duration": 0.023255813953483084,
          "durationTicks": 2,
          "midi": 61,
          "name": "C#4",
          "ticks": 9237,
          "time": 107.40697674418605,
          "velocity": 0.28346456692913385
        },
        {
          "duration": 0.6860465116279073,
          "durationTicks": 59,
          "midi": 62,
          "name": "D4",
          "ticks": 9239,
          "time": 107.43023255813954,
          "velocity": 0.3700787401574803
        },
        {
          "duration": 0.15116279069766847,
          "durationTicks": 13,
          "midi": 89,
          "name": "F6",
          "ticks": 9239,
          "time": 107.43023255813954,
          "velocity": 0.47244094488188976
        },
        {
          "duration": 0.05813953488372192,
          "durationTicks": 5,
          "midi": 93,
          "name": "A6",
          "ticks": 9239,
          "time": 107.43023255813954,
          "velocity": 0.1968503937007874
        },
        {
          "duration": 0.17441860465116577,
          "durationTicks": 15,
          "midi": 67,
          "name": "G4",
          "ticks": 9241,
          "time": 107.45348837209302,
          "velocity": 0.30708661417322836
        },
        {
          "duration": 0.5348837209302388,
          "durationTicks": 46,
          "midi": 70,
          "name": "A#4",
          "ticks": 9241,
          "time": 107.45348837209302,
          "velocity": 0.4251968503937008
        },
        {
          "duration": 0.023255813953497295,
          "durationTicks": 2,
          "midi": 44,
          "name": "G#2",
          "ticks": 9242,
          "time": 107.46511627906976,
          "velocity": 0.3464566929133858
        },
        {
          "duration": 0.023255813953483084,
          "durationTicks": 2,
          "midi": 58,
          "name": "A#3",
          "ticks": 9243,
          "time": 107.47674418604652,
          "velocity": 0.28346456692913385
        },
        {
          "duration": 0.023255813953483084,
          "durationTicks": 2,
          "midi": 44,
          "name": "G#2",
          "ticks": 9245,
          "time": 107.5,
          "velocity": 0.28346456692913385
        },
        {
          "duration": 0.023255813953497295,
          "durationTicks": 2,
          "midi": 50,
          "name": "D3",
          "ticks": 9246,
          "time": 107.51162790697674,
          "velocity": 0.2440944881889764
        },
        {
          "duration": 0.04651162790698038,
          "durationTicks": 4,
          "midi": 83,
          "name": "B5",
          "ticks": 9246,
          "time": 107.51162790697674,
          "velocity": 0.1968503937007874
        },
        {
          "duration": 0.03488372093023884,
          "durationTicks": 3,
          "midi": 65,
          "name": "F4",
          "ticks": 9247,
          "time": 107.52325581395348,
          "velocity": 0.25196850393700787
        },
        {
          "duration": 0.05813953488370771,
          "durationTicks": 5,
          "midi": 58,
          "name": "A#3",
          "ticks": 9248,
          "time": 107.53488372093024,
          "velocity": 0.28346456692913385
        },
        {
          "duration": 0.081395348837205,
          "durationTicks": 7,
          "midi": 50,
          "name": "D3",
          "ticks": 9250,
          "time": 107.55813953488372,
          "velocity": 0.2204724409448819
        },
        {
          "duration": 0.9418604651162781,
          "durationTicks": 81,
          "midi": 85,
          "name": "C#6",
          "ticks": 9251,
          "time": 107.56976744186046,
          "velocity": 0.14960629921259844
        },
        {
          "duration": 0.04651162790698038,
          "durationTicks": 4,
          "midi": 83,
          "name": "B5",
          "ticks": 9252,
          "time": 107.5813953488372,
          "velocity": 0.1889763779527559
        },
        {
          "duration": 0.04651162790698038,
          "durationTicks": 4,
          "midi": 58,
          "name": "A#3",
          "ticks": 9255,
          "time": 107.61627906976744,
          "velocity": 0.2283464566929134
        },
        {
          "duration": 0.11627906976744384,
          "durationTicks": 10,
          "midi": 65,
          "name": "F4",
          "ticks": 9255,
          "time": 107.61627906976744,
          "velocity": 0.25196850393700787
        },
        {
          "duration": 0.04651162790698038,
          "durationTicks": 4,
          "midi": 44,
          "name": "G#2",
          "ticks": 9256,
          "time": 107.62790697674419,
          "velocity": 0.2283464566929134
        },
        {
          "duration": 0.04651162790698038,
          "durationTicks": 4,
          "midi": 83,
          "name": "B5",
          "ticks": 9258,
          "time": 107.65116279069767,
          "velocity": 0.18110236220472442
        },
        {
          "duration": 0.05813953488372192,
          "durationTicks": 5,
          "midi": 81,
          "name": "A5",
          "ticks": 9259,
          "time": 107.66279069767442,
          "velocity": 0.15748031496062992
        },
        {
          "duration": 0.03488372093023884,
          "durationTicks": 3,
          "midi": 44,
          "name": "G#2",
          "ticks": 9262,
          "time": 107.69767441860465,
          "velocity": 0.3464566929133858
        },
        {
          "duration": 0.24418604651162923,
          "durationTicks": 21,
          "midi": 67,
          "name": "G4",
          "ticks": 9262,
          "time": 107.69767441860465,
          "velocity": 0.2047244094488189
        },
        {
          "duration": 0.04651162790698038,
          "durationTicks": 4,
          "midi": 80,
          "name": "G#5",
          "ticks": 9262,
          "time": 107.69767441860465,
          "velocity": 0.15748031496062992
        },
        {
          "duration": 0.5232558139534831,
          "durationTicks": 45,
          "midi": 83,
          "name": "B5",
          "ticks": 9264,
          "time": 107.72093023255815,
          "velocity": 0.2125984251968504
        },
        {
          "duration": 0.034883720930224626,
          "durationTicks": 3,
          "midi": 43,
          "name": "G2",
          "ticks": 9265,
          "time": 107.73255813953489,
          "velocity": 0.2047244094488189
        },
        {
          "duration": 0.04651162790696617,
          "durationTicks": 4,
          "midi": 58,
          "name": "A#3",
          "ticks": 9265,
          "time": 107.73255813953489,
          "velocity": 0.1968503937007874
        },
        {
          "duration": 0.2325581395348877,
          "durationTicks": 20,
          "midi": 80,
          "name": "G#5",
          "ticks": 9267,
          "time": 107.75581395348837,
          "velocity": 0.13385826771653545
        },
        {
          "duration": 0.15116279069768268,
          "durationTicks": 13,
          "midi": 55,
          "name": "G3",
          "ticks": 9268,
          "time": 107.76744186046511,
          "velocity": 0.15748031496062992
        },
        {
          "duration": 0.05813953488372192,
          "durationTicks": 5,
          "midi": 65,
          "name": "F4",
          "ticks": 9268,
          "time": 107.76744186046511,
          "velocity": 0.2047244094488189
        },
        {
          "duration": 0.03488372093023884,
          "durationTicks": 3,
          "midi": 43,
          "name": "G2",
          "ticks": 9269,
          "time": 107.77906976744185,
          "velocity": 0.2047244094488189
        },
        {
          "duration": 0.1860465116279073,
          "durationTicks": 16,
          "midi": 81,
          "name": "A5",
          "ticks": 9272,
          "time": 107.81395348837209,
          "velocity": 0.13385826771653545
        },
        {
          "duration": 0.03488372093023884,
          "durationTicks": 3,
          "midi": 43,
          "name": "G2",
          "ticks": 9273,
          "time": 107.82558139534883,
          "velocity": 0.1889763779527559
        },
        {
          "duration": 0.04651162790698038,
          "durationTicks": 4,
          "midi": 43,
          "name": "G2",
          "ticks": 9277,
          "time": 107.87209302325581,
          "velocity": 0.2047244094488189
        },
        {
          "duration": 0.034883720930224626,
          "durationTicks": 3,
          "midi": 58,
          "name": "A#3",
          "ticks": 9280,
          "time": 107.90697674418605,
          "velocity": 0.1968503937007874
        },
        {
          "duration": 0.023255813953483084,
          "durationTicks": 2,
          "midi": 42,
          "name": "F#2",
          "ticks": 9281,
          "time": 107.9186046511628,
          "velocity": 0.23622047244094488
        },
        {
          "duration": 0.081395348837205,
          "durationTicks": 7,
          "midi": 65,
          "name": "F4",
          "ticks": 9282,
          "time": 107.93023255813954,
          "velocity": 0.2204724409448819
        },
        {
          "duration": 0.1860465116279073,
          "durationTicks": 16,
          "midi": 43,
          "name": "G2",
          "ticks": 9283,
          "time": 107.94186046511628,
          "velocity": 0.25196850393700787
        },
        {
          "duration": 0.03488372093023884,
          "durationTicks": 3,
          "midi": 59,
          "name": "B3",
          "ticks": 9283,
          "time": 107.94186046511628,
          "velocity": 0.15748031496062992
        },
        {
          "duration": 0.081395348837205,
          "durationTicks": 7,
          "midi": 67,
          "name": "G4",
          "ticks": 9286,
          "time": 107.97674418604652,
          "velocity": 0.15748031496062992
        },
        {
          "duration": 0.34883720930233153,
          "durationTicks": 30,
          "midi": 80,
          "name": "G#5",
          "ticks": 9288,
          "time": 108,
          "velocity": 0.13385826771653545
        },
        {
          "duration": 0.05813953488372192,
          "durationTicks": 5,
          "midi": 69,
          "name": "A4",
          "ticks": 9289,
          "time": 108.01162790697674,
          "velocity": 0.16535433070866143
        },
        {
          "duration": 0.03488372093023884,
          "durationTicks": 3,
          "midi": 59,
          "name": "B3",
          "ticks": 9290,
          "time": 108.02325581395348,
          "velocity": 0.16535433070866143
        },
        {
          "duration": 0.081395348837205,
          "durationTicks": 7,
          "midi": 65,
          "name": "F4",
          "ticks": 9292,
          "time": 108.04651162790698,
          "velocity": 0.2047244094488189
        },
        {
          "duration": 0.03488372093023884,
          "durationTicks": 3,
          "midi": 69,
          "name": "A4",
          "ticks": 9295,
          "time": 108.0813953488372,
          "velocity": 0.14173228346456693
        },
        {
          "duration": 1.16279069767441,
          "durationTicks": 100,
          "midi": 67,
          "name": "G4",
          "ticks": 9298,
          "time": 108.11627906976744,
          "velocity": 0.31496062992125984
        },
        {
          "duration": 0.11627906976744384,
          "durationTicks": 10,
          "midi": 81,
          "name": "A5",
          "ticks": 9299,
          "time": 108.12790697674419,
          "velocity": 0.09448818897637795
        },
        {
          "duration": 0.023255813953497295,
          "durationTicks": 2,
          "midi": 43,
          "name": "G2",
          "ticks": 9300,
          "time": 108.13953488372093,
          "velocity": 0.2992125984251969
        },
        {
          "duration": 0.03488372093023884,
          "durationTicks": 3,
          "midi": 57,
          "name": "A3",
          "ticks": 9300,
          "time": 108.13953488372093,
          "velocity": 0.2047244094488189
        },
        {
          "duration": 0.023255813953483084,
          "durationTicks": 2,
          "midi": 44,
          "name": "G#2",
          "ticks": 9302,
          "time": 108.16279069767442,
          "velocity": 0.3228346456692913
        },
        {
          "duration": 0.034883720930224626,
          "durationTicks": 3,
          "midi": 62,
          "name": "D4",
          "ticks": 9302,
          "time": 108.16279069767442,
          "velocity": 0.15748031496062992
        },
        {
          "duration": 2.0116279069767415,
          "durationTicks": 173,
          "midi": 74,
          "name": "D5",
          "ticks": 9302,
          "time": 108.16279069767442,
          "velocity": 0.36220472440944884
        },
        {
          "duration": 0.06976744186046346,
          "durationTicks": 6,
          "midi": 58,
          "name": "A#3",
          "ticks": 9303,
          "time": 108.17441860465117,
          "velocity": 0.2755905511811024
        },
        {
          "duration": 0.04651162790698038,
          "durationTicks": 4,
          "midi": 84,
          "name": "C6",
          "ticks": 9305,
          "time": 108.19767441860465,
          "velocity": 0.07874015748031496
        },
        {
          "duration": 0.04651162790698038,
          "durationTicks": 4,
          "midi": 90,
          "name": "F#6",
          "ticks": 9305,
          "time": 108.19767441860465,
          "velocity": 0.10236220472440945
        },
        {
          "duration": 0.081395348837205,
          "durationTicks": 7,
          "midi": 50,
          "name": "D3",
          "ticks": 9308,
          "time": 108.23255813953489,
          "velocity": 0.23622047244094488
        },
        {
          "duration": 0.034883720930224626,
          "durationTicks": 3,
          "midi": 77,
          "name": "F5",
          "ticks": 9308,
          "time": 108.23255813953489,
          "velocity": 0.07874015748031496
        },
        {
          "duration": 0.05813953488372192,
          "durationTicks": 5,
          "midi": 58,
          "name": "A#3",
          "ticks": 9311,
          "time": 108.26744186046511,
          "velocity": 0.25196850393700787
        },
        {
          "duration": 0.03488372093023884,
          "durationTicks": 3,
          "midi": 83,
          "name": "B5",
          "ticks": 9311,
          "time": 108.26744186046511,
          "velocity": 0.11023622047244094
        },
        {
          "duration": 0.04651162790698038,
          "durationTicks": 4,
          "midi": 90,
          "name": "F#6",
          "ticks": 9314,
          "time": 108.30232558139535,
          "velocity": 0.07874015748031496
        },
        {
          "duration": 0.03488372093023884,
          "durationTicks": 3,
          "midi": 44,
          "name": "G#2",
          "ticks": 9315,
          "time": 108.31395348837209,
          "velocity": 0.2440944881889764
        },
        {
          "duration": 0.25581395348837077,
          "durationTicks": 22,
          "midi": 50,
          "name": "D3",
          "ticks": 9316,
          "time": 108.32558139534883,
          "velocity": 0.2440944881889764
        },
        {
          "duration": 0.034883720930224626,
          "durationTicks": 3,
          "midi": 65,
          "name": "F4",
          "ticks": 9318,
          "time": 108.34883720930233,
          "velocity": 0.14960629921259844
        },
        {
          "duration": 0.05813953488372192,
          "durationTicks": 5,
          "midi": 58,
          "name": "A#3",
          "ticks": 9319,
          "time": 108.36046511627907,
          "velocity": 0.28346456692913385
        },
        {
          "duration": 0.15116279069766847,
          "durationTicks": 13,
          "midi": 83,
          "name": "B5",
          "ticks": 9319,
          "time": 108.36046511627907,
          "velocity": 0.12598425196850394
        },
        {
          "duration": 0.12790697674418539,
          "durationTicks": 11,
          "midi": 84,
          "name": "C6",
          "ticks": 9325,
          "time": 108.43023255813954,
          "velocity": 0.10236220472440945
        },
        {
          "duration": 0.06976744186046346,
          "durationTicks": 6,
          "midi": 58,
          "name": "A#3",
          "ticks": 9326,
          "time": 108.44186046511628,
          "velocity": 0.28346456692913385
        },
        {
          "duration": 0.1046511627907023,
          "durationTicks": 9,
          "midi": 65,
          "name": "F4",
          "ticks": 9326,
          "time": 108.44186046511628,
          "velocity": 0.14960629921259844
        },
        {
          "duration": 0.034883720930224626,
          "durationTicks": 3,
          "midi": 69,
          "name": "A4",
          "ticks": 9330,
          "time": 108.48837209302326,
          "velocity": 0.11811023622047244
        },
        {
          "duration": 0.05813953488370771,
          "durationTicks": 5,
          "midi": 58,
          "name": "A#3",
          "ticks": 9334,
          "time": 108.53488372093024,
          "velocity": 0.28346456692913385
        },
        {
          "duration": 0.7674418604651123,
          "durationTicks": 66,
          "midi": 83,
          "name": "B5",
          "ticks": 9334,
          "time": 108.53488372093024,
          "velocity": 0.2283464566929134
        },
        {
          "duration": 0.04651162790698038,
          "durationTicks": 4,
          "midi": 44,
          "name": "G#2",
          "ticks": 9339,
          "time": 108.59302325581395,
          "velocity": 0.36220472440944884
        },
        {
          "duration": 0.15116279069766847,
          "durationTicks": 13,
          "midi": 58,
          "name": "A#3",
          "ticks": 9341,
          "time": 108.61627906976744,
          "velocity": 0.31496062992125984
        },
        {
          "duration": 0.03488372093023884,
          "durationTicks": 3,
          "midi": 43,
          "name": "G2",
          "ticks": 9343,
          "time": 108.63953488372093,
          "velocity": 0.2047244094488189
        },
        {
          "duration": 0.12790697674418539,
          "durationTicks": 11,
          "midi": 84,
          "name": "C6",
          "ticks": 9344,
          "time": 108.65116279069767,
          "velocity": 0.12598425196850394
        },
        {
          "duration": 0.04651162790698038,
          "durationTicks": 4,
          "midi": 50,
          "name": "D3",
          "ticks": 9349,
          "time": 108.70930232558139,
          "velocity": 0.11811023622047244
        },
        {
          "duration": 0.034883720930224626,
          "durationTicks": 3,
          "midi": 43,
          "name": "G2",
          "ticks": 9351,
          "time": 108.73255813953489,
          "velocity": 0.2047244094488189
        },
        {
          "duration": 0.06976744186046346,
          "durationTicks": 6,
          "midi": 62,
          "name": "D4",
          "ticks": 9352,
          "time": 108.74418604651163,
          "velocity": 0.14960629921259844
        },
        {
          "duration": 0.023255813953497295,
          "durationTicks": 2,
          "midi": 44,
          "name": "G#2",
          "ticks": 9354,
          "time": 108.76744186046511,
          "velocity": 0.2283464566929134
        },
        {
          "duration": 0.06976744186046346,
          "durationTicks": 6,
          "midi": 58,
          "name": "A#3",
          "ticks": 9356,
          "time": 108.79069767441861,
          "velocity": 0.31496062992125984
        },
        {
          "duration": 0.023255813953483084,
          "durationTicks": 2,
          "midi": 43,
          "name": "G2",
          "ticks": 9358,
          "time": 108.81395348837209,
          "velocity": 0.2283464566929134
        },
        {
          "duration": 0.05813953488372192,
          "durationTicks": 5,
          "midi": 71,
          "name": "B4",
          "ticks": 9359,
          "time": 108.82558139534883,
          "velocity": 0.15748031496062992
        },
        {
          "duration": 0.023255813953497295,
          "durationTicks": 2,
          "midi": 43,
          "name": "G2",
          "ticks": 9364,
          "time": 108.88372093023256,
          "velocity": 0.23622047244094488
        },
        {
          "duration": 0.09302325581396076,
          "durationTicks": 8,
          "midi": 50,
          "name": "D3",
          "ticks": 9364,
          "time": 108.88372093023256,
          "velocity": 0.1889763779527559
        },
        {
          "duration": 0.06976744186046346,
          "durationTicks": 6,
          "midi": 58,
          "name": "A#3",
          "ticks": 9364,
          "time": 108.88372093023256,
          "velocity": 0.33070866141732286
        },
        {
          "duration": 0.05813953488372192,
          "durationTicks": 5,
          "midi": 43,
          "name": "G2",
          "ticks": 9367,
          "time": 108.9186046511628,
          "velocity": 0.25196850393700787
        },
        {
          "duration": 0.06976744186047767,
          "durationTicks": 6,
          "midi": 58,
          "name": "A#3",
          "ticks": 9371,
          "time": 108.96511627906976,
          "velocity": 0.31496062992125984
        },
        {
          "duration": 0.04651162790698038,
          "durationTicks": 4,
          "midi": 50,
          "name": "D3",
          "ticks": 9373,
          "time": 108.98837209302326,
          "velocity": 0.1968503937007874
        },
        {
          "duration": 0.034883720930224626,
          "durationTicks": 3,
          "midi": 69,
          "name": "A4",
          "ticks": 9373,
          "time": 108.98837209302326,
          "velocity": 0.14960629921259844
        },
        {
          "duration": 0.2093023255813904,
          "durationTicks": 18,
          "midi": 80,
          "name": "G#5",
          "ticks": 9378,
          "time": 109.04651162790698,
          "velocity": 0.11811023622047244
        },
        {
          "duration": 0.034883720930224626,
          "durationTicks": 3,
          "midi": 44,
          "name": "G#2",
          "ticks": 9379,
          "time": 109.05813953488372,
          "velocity": 0.4251968503937008
        },
        {
          "duration": 0.05813953488372192,
          "durationTicks": 5,
          "midi": 58,
          "name": "A#3",
          "ticks": 9379,
          "time": 109.05813953488372,
          "velocity": 0.3543307086614173
        },
        {
          "duration": 0.034883720930224626,
          "durationTicks": 3,
          "midi": 65,
          "name": "F4",
          "ticks": 9379,
          "time": 109.05813953488372,
          "velocity": 0.15748031496062992
        },
        {
          "duration": 0.05813953488372192,
          "durationTicks": 5,
          "midi": 89,
          "name": "F6",
          "ticks": 9379,
          "time": 109.05813953488372,
          "velocity": 0.09448818897637795
        },
        {
          "duration": 0.03488372093023884,
          "durationTicks": 3,
          "midi": 69,
          "name": "A4",
          "ticks": 9380,
          "time": 109.06976744186046,
          "velocity": 0.2440944881889764
        },
        {
          "duration": 0.17441860465116577,
          "durationTicks": 15,
          "midi": 88,
          "name": "E6",
          "ticks": 9381,
          "time": 109.0813953488372,
          "velocity": 0.11023622047244094
        },
        {
          "duration": 0.023255813953497295,
          "durationTicks": 2,
          "midi": 43,
          "name": "G2",
          "ticks": 9382,
          "time": 109.09302325581395,
          "velocity": 0.28346456692913385
        },
        {
          "duration": 0.15116279069768268,
          "durationTicks": 13,
          "midi": 62,
          "name": "D4",
          "ticks": 9382,
          "time": 109.09302325581395,
          "velocity": 0.14960629921259844
        },
        {
          "duration": 0.04651162790698038,
          "durationTicks": 4,
          "midi": 58,
          "name": "A#3",
          "ticks": 9387,
          "time": 109.15116279069767,
          "velocity": 0.33070866141732286
        },
        {
          "duration": 0.023255813953483084,
          "durationTicks": 2,
          "midi": 44,
          "name": "G#2",
          "ticks": 9389,
          "time": 109.17441860465117,
          "velocity": 0.31496062992125984
        },
        {
          "duration": 0.034883720930224626,
          "durationTicks": 3,
          "midi": 69,
          "name": "A4",
          "ticks": 9389,
          "time": 109.17441860465117,
          "velocity": 0.2283464566929134
        },
        {
          "duration": 0.023255813953497295,
          "durationTicks": 2,
          "midi": 55,
          "name": "G3",
          "ticks": 9392,
          "time": 109.20930232558139,
          "velocity": 0.2283464566929134
        },
        {
          "duration": 0.023255813953483084,
          "durationTicks": 2,
          "midi": 44,
          "name": "G#2",
          "ticks": 9393,
          "time": 109.22093023255815,
          "velocity": 0.33070866141732286
        },
        {
          "duration": 0.4534883720930196,
          "durationTicks": 39,
          "midi": 69,
          "name": "A4",
          "ticks": 9393,
          "time": 109.22093023255815,
          "velocity": 0.3464566929133858
        },
        {
          "duration": 0.034883720930224626,
          "durationTicks": 3,
          "midi": 43,
          "name": "G2",
          "ticks": 9395,
          "time": 109.24418604651163,
          "velocity": 0.3543307086614173
        },
        {
          "duration": 0.06976744186046346,
          "durationTicks": 6,
          "midi": 58,
          "name": "A#3",
          "ticks": 9395,
          "time": 109.24418604651163,
          "velocity": 0.2992125984251969
        },
        {
          "duration": 0.2325581395348877,
          "durationTicks": 20,
          "midi": 72,
          "name": "C5",
          "ticks": 9397,
          "time": 109.26744186046511,
          "velocity": 0.2047244094488189
        },
        {
          "duration": 0.6976744186046488,
          "durationTicks": 60,
          "midi": 77,
          "name": "F5",
          "ticks": 9397,
          "time": 109.26744186046511,
          "velocity": 0.44881889763779526
        },
        {
          "duration": 0.04651162790698038,
          "durationTicks": 4,
          "midi": 87,
          "name": "D#6",
          "ticks": 9397,
          "time": 109.26744186046511,
          "velocity": 0.09448818897637795
        },
        {
          "duration": 0.43023255813953654,
          "durationTicks": 37,
          "midi": 88,
          "name": "E6",
          "ticks": 9397,
          "time": 109.26744186046511,
          "velocity": 0.3228346456692913
        },
        {
          "duration": 0.255813953488385,
          "durationTicks": 22,
          "midi": 65,
          "name": "F4",
          "ticks": 9398,
          "time": 109.27906976744185,
          "velocity": 0.36220472440944884
        },
        {
          "duration": 0.06976744186047767,
          "durationTicks": 6,
          "midi": 80,
          "name": "G#5",
          "ticks": 9398,
          "time": 109.27906976744185,
          "velocity": 0.07086614173228346
        },
        {
          "duration": 0.1046511627907023,
          "durationTicks": 9,
          "midi": 53,
          "name": "F3",
          "ticks": 9400,
          "time": 109.30232558139535,
          "velocity": 0.2755905511811024
        },
        {
          "duration": 0.034883720930224626,
          "durationTicks": 3,
          "midi": 85,
          "name": "C#6",
          "ticks": 9400,
          "time": 109.30232558139535,
          "velocity": 0.07874015748031496
        },
        {
          "duration": 0.023255813953497295,
          "durationTicks": 2,
          "midi": 48,
          "name": "C3",
          "ticks": 9403,
          "time": 109.33720930232558,
          "velocity": 0.25984251968503935
        },
        {
          "duration": 0.05813953488372192,
          "durationTicks": 5,
          "midi": 83,
          "name": "B5",
          "ticks": 9403,
          "time": 109.33720930232558,
          "velocity": 0.07086614173228346
        },
        {
          "duration": 0.034883720930224626,
          "durationTicks": 3,
          "midi": 58,
          "name": "A#3",
          "ticks": 9404,
          "time": 109.34883720930233,
          "velocity": 0.23622047244094488
        },
        {
          "duration": 0.19767441860464885,
          "durationTicks": 17,
          "midi": 87,
          "name": "D#6",
          "ticks": 9406,
          "time": 109.37209302325581,
          "velocity": 0.33858267716535434
        },
        {
          "duration": 0.05813953488372192,
          "durationTicks": 5,
          "midi": 57,
          "name": "A3",
          "ticks": 9411,
          "time": 109.43023255813954,
          "velocity": 0.1732283464566929
        },
        {
          "duration": 0.06976744186046346,
          "durationTicks": 6,
          "midi": 48,
          "name": "C3",
          "ticks": 9412,
          "time": 109.44186046511628,
          "velocity": 0.3228346456692913
        },
        {
          "duration": 0.2674418604651123,
          "durationTicks": 23,
          "midi": 83,
          "name": "B5",
          "ticks": 9416,
          "time": 109.48837209302326,
          "velocity": 0.1889763779527559
        },
        {
          "duration": 1.360465116279073,
          "durationTicks": 117,
          "midi": 60,
          "name": "C4",
          "ticks": 9417,
          "time": 109.5,
          "velocity": 0.4094488188976378
        },
        {
          "duration": 0.3604651162790731,
          "durationTicks": 31,
          "midi": 84,
          "name": "C6",
          "ticks": 9417,
          "time": 109.5,
          "velocity": 0.11811023622047244
        },
        {
          "duration": 0.03488372093023884,
          "durationTicks": 3,
          "midi": 53,
          "name": "F3",
          "ticks": 9418,
          "time": 109.51162790697674,
          "velocity": 0.31496062992125984
        },
        {
          "duration": 0.023255813953497295,
          "durationTicks": 2,
          "midi": 48,
          "name": "C3",
          "ticks": 9419,
          "time": 109.52325581395348,
          "velocity": 0.3228346456692913
        },
        {
          "duration": 1.5813953488372192,
          "durationTicks": 136,
          "midi": 67,
          "name": "G4",
          "ticks": 9419,
          "time": 109.52325581395348,
          "velocity": 0.4409448818897638
        },
        {
          "duration": 0.023255813953483084,
          "durationTicks": 2,
          "midi": 64,
          "name": "E4",
          "ticks": 9420,
          "time": 109.53488372093024,
          "velocity": 0.29133858267716534
        },
        {
          "duration": 0.034883720930224626,
          "durationTicks": 3,
          "midi": 90,
          "name": "F#6",
          "ticks": 9421,
          "time": 109.54651162790698,
          "velocity": 0.07086614173228346
        },
        {
          "duration": 0.023255813953483084,
          "durationTicks": 2,
          "midi": 53,
          "name": "F3",
          "ticks": 9422,
          "time": 109.55813953488372,
          "velocity": 0.30708661417322836
        },
        {
          "duration": 0.17441860465116577,
          "durationTicks": 15,
          "midi": 48,
          "name": "C3",
          "ticks": 9424,
          "time": 109.5813953488372,
          "velocity": 0.3228346456692913
        },
        {
          "duration": 0.023255813953483084,
          "durationTicks": 2,
          "midi": 65,
          "name": "F4",
          "ticks": 9427,
          "time": 109.61627906976744,
          "velocity": 0.30708661417322836
        },
        {
          "duration": 0.023255813953483084,
          "durationTicks": 2,
          "midi": 65,
          "name": "F4",
          "ticks": 9431,
          "time": 109.66279069767442,
          "velocity": 0.28346456692913385
        },
        {
          "duration": 0.2093023255814046,
          "durationTicks": 18,
          "midi": 90,
          "name": "F#6",
          "ticks": 9435,
          "time": 109.70930232558139,
          "velocity": 0.4094488188976378
        },
        {
          "duration": 0.034883720930224626,
          "durationTicks": 3,
          "midi": 65,
          "name": "F4",
          "ticks": 9436,
          "time": 109.72093023255815,
          "velocity": 0.2677165354330709
        },
        {
          "duration": 0.05813953488370771,
          "durationTicks": 5,
          "midi": 88,
          "name": "E6",
          "ticks": 9436,
          "time": 109.72093023255815,
          "velocity": 0.14960629921259844
        },
        {
          "duration": 0.023255813953497295,
          "durationTicks": 2,
          "midi": 65,
          "name": "F4",
          "ticks": 9440,
          "time": 109.76744186046511,
          "velocity": 0.2992125984251969
        },
        {
          "duration": 0.081395348837205,
          "durationTicks": 7,
          "midi": 64,
          "name": "E4",
          "ticks": 9442,
          "time": 109.79069767441861,
          "velocity": 0.30708661417322836
        },
        {
          "duration": 0.06976744186046346,
          "durationTicks": 6,
          "midi": 83,
          "name": "B5",
          "ticks": 9442,
          "time": 109.79069767441861,
          "velocity": 0.15748031496062992
        },
        {
          "duration": 0.04651162790698038,
          "durationTicks": 4,
          "midi": 48,
          "name": "C3",
          "ticks": 9443,
          "time": 109.80232558139535,
          "velocity": 0.16535433070866143
        },
        {
          "duration": 0.03488372093023884,
          "durationTicks": 3,
          "midi": 88,
          "name": "E6",
          "ticks": 9444,
          "time": 109.81395348837209,
          "velocity": 0.11023622047244094
        },
        {
          "duration": 0.06976744186046346,
          "durationTicks": 6,
          "midi": 48,
          "name": "C3",
          "ticks": 9448,
          "time": 109.86046511627907,
          "velocity": 0.1732283464566929
        },
        {
          "duration": 0.023255813953483084,
          "durationTicks": 2,
          "midi": 65,
          "name": "F4",
          "ticks": 9449,
          "time": 109.87209302325581,
          "velocity": 0.2755905511811024
        },
        {
          "duration": 1.3139534883720927,
          "durationTicks": 113,
          "midi": 83,
          "name": "B5",
          "ticks": 9452,
          "time": 109.90697674418605,
          "velocity": 0.30708661417322836
        },
        {
          "duration": 0.023255813953483084,
          "durationTicks": 2,
          "midi": 65,
          "name": "F4",
          "ticks": 9453,
          "time": 109.9186046511628,
          "velocity": 0.2440944881889764
        },
        {
          "duration": 0.7325581395348877,
          "durationTicks": 63,
          "midi": 72,
          "name": "C5",
          "ticks": 9455,
          "time": 109.94186046511628,
          "velocity": 0.44881889763779526
        },
        {
          "duration": 0.13953488372092693,
          "durationTicks": 12,
          "midi": 82,
          "name": "A#5",
          "ticks": 9455,
          "time": 109.94186046511628,
          "velocity": 0.07874015748031496
        },
        {
          "duration": 0.24418604651162923,
          "durationTicks": 21,
          "midi": 90,
          "name": "F#6",
          "ticks": 9455,
          "time": 109.94186046511628,
          "velocity": 0.4566929133858268
        },
        {
          "duration": 0.023255813953497295,
          "durationTicks": 2,
          "midi": 52,
          "name": "E3",
          "ticks": 9456,
          "time": 109.95348837209302,
          "velocity": 0.25196850393700787
        },
        {
          "duration": 0.19767441860464885,
          "durationTicks": 17,
          "midi": 64,
          "name": "E4",
          "ticks": 9456,
          "time": 109.95348837209302,
          "velocity": 0.2992125984251969
        },
        {
          "duration": 0.3139534883720927,
          "durationTicks": 27,
          "midi": 88,
          "name": "E6",
          "ticks": 9456,
          "time": 109.95348837209302,
          "velocity": 0.1889763779527559
        },
        {
          "duration": 0.24418604651162923,
          "durationTicks": 21,
          "midi": 91,
          "name": "G6",
          "ticks": 9456,
          "time": 109.95348837209302,
          "velocity": 0.2677165354330709
        },
        {
          "duration": 0.023255813953483084,
          "durationTicks": 2,
          "midi": 55,
          "name": "G3",
          "ticks": 9463,
          "time": 110.03488372093024,
          "velocity": 0.23622047244094488
        },
        {
          "duration": 0.034883720930224626,
          "durationTicks": 3,
          "midi": 55,
          "name": "G3",
          "ticks": 9469,
          "time": 110.1046511627907,
          "velocity": 0.2125984251968504
        },
        {
          "duration": 0.13953488372092693,
          "durationTicks": 12,
          "midi": 89,
          "name": "F6",
          "ticks": 9470,
          "time": 110.11627906976744,
          "velocity": 0.11023622047244094
        },
        {
          "duration": 0.10465116279068809,
          "durationTicks": 9,
          "midi": 82,
          "name": "A#5",
          "ticks": 9475,
          "time": 110.17441860465117,
          "velocity": 0.12598425196850394
        },
        {
          "duration": 0.10465116279068809,
          "durationTicks": 9,
          "midi": 86,
          "name": "D6",
          "ticks": 9475,
          "time": 110.17441860465117,
          "velocity": 0.15748031496062992
        },
        {
          "duration": 0.5232558139534831,
          "durationTicks": 45,
          "midi": 92,
          "name": "G#6",
          "ticks": 9475,
          "time": 110.17441860465117,
          "velocity": 0.36220472440944884
        },
        {
          "duration": 0.03488372093023884,
          "durationTicks": 3,
          "midi": 40,
          "name": "E2",
          "ticks": 9476,
          "time": 110.18604651162791,
          "velocity": 0.13385826771653545
        },
        {
          "duration": 0.8488372093023315,
          "durationTicks": 73,
          "midi": 76,
          "name": "E5",
          "ticks": 9476,
          "time": 110.18604651162791,
          "velocity": 0.36220472440944884
        },
        {
          "duration": 0.19767441860464885,
          "durationTicks": 17,
          "midi": 64,
          "name": "E4",
          "ticks": 9477,
          "time": 110.19767441860465,
          "velocity": 0.3543307086614173
        },
        {
          "duration": 0.15116279069768268,
          "durationTicks": 13,
          "midi": 74,
          "name": "D5",
          "ticks": 9477,
          "time": 110.19767441860465,
          "velocity": 0.12598425196850394
        },
        {
          "duration": 0.023255813953497295,
          "durationTicks": 2,
          "midi": 52,
          "name": "E3",
          "ticks": 9478,
          "time": 110.20930232558139,
          "velocity": 0.23622047244094488
        },
        {
          "duration": 0.04651162790698038,
          "durationTicks": 4,
          "midi": 52,
          "name": "E3",
          "ticks": 9481,
          "time": 110.24418604651163,
          "velocity": 0.30708661417322836
        },
        {
          "duration": 0.023255813953497295,
          "durationTicks": 2,
          "midi": 48,
          "name": "C3",
          "ticks": 9483,
          "time": 110.26744186046511,
          "velocity": 0.25984251968503935
        },
        {
          "duration": 0.04651162790698038,
          "durationTicks": 4,
          "midi": 90,
          "name": "F#6",
          "ticks": 9483,
          "time": 110.26744186046511,
          "velocity": 0.07086614173228346
        },
        {
          "duration": 0.1046511627907023,
          "durationTicks": 9,
          "midi": 48,
          "name": "C3",
          "ticks": 9486,
          "time": 110.30232558139535,
          "velocity": 0.2677165354330709
        },
        {
          "duration": 0.05813953488372192,
          "durationTicks": 5,
          "midi": 86,
          "name": "D6",
          "ticks": 9486,
          "time": 110.30232558139535,
          "velocity": 0.13385826771653545
        },
        {
          "duration": 0.1046511627907023,
          "durationTicks": 9,
          "midi": 89,
          "name": "F6",
          "ticks": 9489,
          "time": 110.33720930232558,
          "velocity": 0.12598425196850394
        },
        {
          "duration": 0.19767441860464885,
          "durationTicks": 17,
          "midi": 82,
          "name": "A#5",
          "ticks": 9491,
          "time": 110.36046511627907,
          "velocity": 0.11811023622047244
        },
        {
          "duration": 0.023255813953483084,
          "durationTicks": 2,
          "midi": 49,
          "name": "C#3",
          "ticks": 9495,
          "time": 110.40697674418605,
          "velocity": 0.29133858267716534
        },
        {
          "duration": 0.081395348837205,
          "durationTicks": 7,
          "midi": 90,
          "name": "F#6",
          "ticks": 9495,
          "time": 110.40697674418605,
          "velocity": 0.11811023622047244
        },
        {
          "duration": 0.2093023255813904,
          "durationTicks": 18,
          "midi": 64,
          "name": "E4",
          "ticks": 9496,
          "time": 110.4186046511628,
          "velocity": 0.3228346456692913
        },
        {
          "duration": 0.2093023255813904,
          "durationTicks": 18,
          "midi": 74,
          "name": "D5",
          "ticks": 9496,
          "time": 110.4186046511628,
          "velocity": 0.13385826771653545
        },
        {
          "duration": 0.2093023255813904,
          "durationTicks": 18,
          "midi": 48,
          "name": "C3",
          "ticks": 9497,
          "time": 110.43023255813954,
          "velocity": 0.31496062992125984
        },
        {
          "duration": 0.3139534883720927,
          "durationTicks": 27,
          "midi": 86,
          "name": "D6",
          "ticks": 9497,
          "time": 110.43023255813954,
          "velocity": 0.14173228346456693
        },
        {
          "duration": 0.04651162790698038,
          "durationTicks": 4,
          "midi": 55,
          "name": "G3",
          "ticks": 9502,
          "time": 110.48837209302326,
          "velocity": 0.23622047244094488
        },
        {
          "duration": 0.17441860465116577,
          "durationTicks": 15,
          "midi": 93,
          "name": "A6",
          "ticks": 9504,
          "time": 110.51162790697674,
          "velocity": 0.3937007874015748
        },
        {
          "duration": 0.10465116279068809,
          "durationTicks": 9,
          "midi": 90,
          "name": "F#6",
          "ticks": 9506,
          "time": 110.53488372093024,
          "velocity": 0.08661417322834646
        },
        {
          "duration": 0.06976744186046346,
          "durationTicks": 6,
          "midi": 55,
          "name": "G3",
          "ticks": 9509,
          "time": 110.56976744186046,
          "velocity": 0.1732283464566929
        },
        {
          "duration": 0.11627906976744384,
          "durationTicks": 10,
          "midi": 89,
          "name": "F6",
          "ticks": 9509,
          "time": 110.56976744186046,
          "velocity": 0.09448818897637795
        },
        {
          "duration": 0.15116279069766847,
          "durationTicks": 13,
          "midi": 94,
          "name": "A#6",
          "ticks": 9514,
          "time": 110.62790697674419,
          "velocity": 0.2677165354330709
        },
        {
          "duration": 0.15116279069768268,
          "durationTicks": 13,
          "midi": 55,
          "name": "G3",
          "ticks": 9516,
          "time": 110.65116279069767,
          "velocity": 0.25196850393700787
        },
        {
          "duration": 0.6395348837209269,
          "durationTicks": 55,
          "midi": 64,
          "name": "E4",
          "ticks": 9518,
          "time": 110.67441860465117,
          "velocity": 0.3228346456692913
        },
        {
          "duration": 0.034883720930224626,
          "durationTicks": 3,
          "midi": 90,
          "name": "F#6",
          "ticks": 9523,
          "time": 110.73255813953489,
          "velocity": 0.10236220472440945
        },
        {
          "duration": 0.15116279069766847,
          "durationTicks": 13,
          "midi": 93,
          "name": "A6",
          "ticks": 9523,
          "time": 110.73255813953489,
          "velocity": 0.3937007874015748
        },
        {
          "duration": 0.12790697674418539,
          "durationTicks": 11,
          "midi": 48,
          "name": "C3",
          "ticks": 9524,
          "time": 110.74418604651163,
          "velocity": 0.2677165354330709
        },
        {
          "duration": 0.17441860465116577,
          "durationTicks": 15,
          "midi": 82,
          "name": "A#5",
          "ticks": 9532,
          "time": 110.83720930232558,
          "velocity": 0.09448818897637795
        },
        {
          "duration": 0.15116279069766847,
          "durationTicks": 13,
          "midi": 94,
          "name": "A#6",
          "ticks": 9533,
          "time": 110.84883720930233,
          "velocity": 0.3937007874015748
        },
        {
          "duration": 1.139534883720927,
          "durationTicks": 98,
          "midi": 72,
          "name": "C5",
          "ticks": 9534,
          "time": 110.86046511627907,
          "velocity": 0.4330708661417323
        },
        {
          "duration": 0.3139534883720927,
          "durationTicks": 27,
          "midi": 74,
          "name": "D5",
          "ticks": 9534,
          "time": 110.86046511627907,
          "velocity": 0.2125984251968504
        },
        {
          "duration": 0.10465116279068809,
          "durationTicks": 9,
          "midi": 90,
          "name": "F#6",
          "ticks": 9534,
          "time": 110.86046511627907,
          "velocity": 0.14960629921259844
        },
        {
          "duration": 0.2093023255813904,
          "durationTicks": 18,
          "midi": 60,
          "name": "C4",
          "ticks": 9535,
          "time": 110.87209302325581,
          "velocity": 0.25984251968503935
        },
        {
          "duration": 0.023255813953497295,
          "durationTicks": 2,
          "midi": 48,
          "name": "C3",
          "ticks": 9537,
          "time": 110.8953488372093,
          "velocity": 0.2283464566929134
        },
        {
          "duration": 0.15116279069768268,
          "durationTicks": 13,
          "midi": 48,
          "name": "C3",
          "ticks": 9542,
          "time": 110.95348837209302,
          "velocity": 0.28346456692913385
        },
        {
          "duration": 0.06976744186046346,
          "durationTicks": 6,
          "midi": 55,
          "name": "G3",
          "ticks": 9546,
          "time": 111,
          "velocity": 0.1968503937007874
        },
        {
          "duration": 0.04651162790696617,
          "durationTicks": 4,
          "midi": 90,
          "name": "F#6",
          "ticks": 9550,
          "time": 111.04651162790698,
          "velocity": 0.11811023622047244
        },
        {
          "duration": 0.023255813953497295,
          "durationTicks": 2,
          "midi": 59,
          "name": "B3",
          "ticks": 9553,
          "time": 111.0813953488372,
          "velocity": 0.30708661417322836
        },
        {
          "duration": 0.5697674418604635,
          "durationTicks": 49,
          "midi": 77,
          "name": "F5",
          "ticks": 9553,
          "time": 111.0813953488372,
          "velocity": 0.41732283464566927
        },
        {
          "duration": 0.9302325581395365,
          "durationTicks": 80,
          "midi": 69,
          "name": "A4",
          "ticks": 9554,
          "time": 111.09302325581395,
          "velocity": 0.41732283464566927
        },
        {
          "duration": 0.22093023255813193,
          "durationTicks": 19,
          "midi": 60,
          "name": "C4",
          "ticks": 9555,
          "time": 111.1046511627907,
          "velocity": 0.36220472440944884
        },
        {
          "duration": 0.05813953488372192,
          "durationTicks": 5,
          "midi": 45,
          "name": "A2",
          "ticks": 9556,
          "time": 111.11627906976744,
          "velocity": 0.28346456692913385
        },
        {
          "duration": 0.04651162790698038,
          "durationTicks": 4,
          "midi": 88,
          "name": "E6",
          "ticks": 9557,
          "time": 111.12790697674419,
          "velocity": 0.13385826771653545
        },
        {
          "duration": 0.12790697674418539,
          "durationTicks": 11,
          "midi": 45,
          "name": "A2",
          "ticks": 9562,
          "time": 111.18604651162791,
          "velocity": 0.28346456692913385
        },
        {
          "duration": 0.06976744186046346,
          "durationTicks": 6,
          "midi": 88,
          "name": "E6",
          "ticks": 9564,
          "time": 111.20930232558139,
          "velocity": 0.11023622047244094
        },
        {
          "duration": 0.03488372093023884,
          "durationTicks": 3,
          "midi": 83,
          "name": "B5",
          "ticks": 9569,
          "time": 111.26744186046511,
          "velocity": 0.11811023622047244
        },
        {
          "duration": 0.023255813953497295,
          "durationTicks": 2,
          "midi": 45,
          "name": "A2",
          "ticks": 9574,
          "time": 111.32558139534883,
          "velocity": 0.33858267716535434
        },
        {
          "duration": 0.03488372093023884,
          "durationTicks": 3,
          "midi": 91,
          "name": "G6",
          "ticks": 9574,
          "time": 111.32558139534883,
          "velocity": 0.10236220472440945
        },
        {
          "duration": 0.8837209302325704,
          "durationTicks": 76,
          "midi": 57,
          "name": "A3",
          "ticks": 9575,
          "time": 111.33720930232558,
          "velocity": 0.3464566929133858
        },
        {
          "duration": 0.6860465116279073,
          "durationTicks": 59,
          "midi": 64,
          "name": "E4",
          "ticks": 9575,
          "time": 111.33720930232558,
          "velocity": 0.3700787401574803
        },
        {
          "duration": 0.09302325581396076,
          "durationTicks": 8,
          "midi": 86,
          "name": "D6",
          "ticks": 9575,
          "time": 111.33720930232558,
          "velocity": 0.09448818897637795
        },
        {
          "duration": 0.11627906976744384,
          "durationTicks": 10,
          "midi": 88,
          "name": "E6",
          "ticks": 9575,
          "time": 111.33720930232558,
          "velocity": 0.10236220472440945
        },
        {
          "duration": 0.023255813953483084,
          "durationTicks": 2,
          "midi": 44,
          "name": "G#2",
          "ticks": 9576,
          "time": 111.34883720930233,
          "velocity": 0.3700787401574803
        },
        {
          "duration": 0.034883720930224626,
          "durationTicks": 3,
          "midi": 95,
          "name": "B6",
          "ticks": 9576,
          "time": 111.34883720930233,
          "velocity": 0.09448818897637795
        },
        {
          "duration": 0.034883720930224626,
          "durationTicks": 3,
          "midi": 60,
          "name": "C4",
          "ticks": 9577,
          "time": 111.36046511627907,
          "velocity": 0.2677165354330709
        },
        {
          "duration": 0.023255813953483084,
          "durationTicks": 2,
          "midi": 45,
          "name": "A2",
          "ticks": 9578,
          "time": 111.37209302325581,
          "velocity": 0.3543307086614173
        },
        {
          "duration": 0.04651162790698038,
          "durationTicks": 4,
          "midi": 52,
          "name": "E3",
          "ticks": 9578,
          "time": 111.37209302325581,
          "velocity": 0.2283464566929134
        },
        {
          "duration": 0.30232558139535115,
          "durationTicks": 26,
          "midi": 79,
          "name": "G5",
          "ticks": 9578,
          "time": 111.37209302325581,
          "velocity": 0.30708661417322836
        },
        {
          "duration": 0.33720930232559,
          "durationTicks": 29,
          "midi": 82,
          "name": "A#5",
          "ticks": 9579,
          "time": 111.38372093023256,
          "velocity": 0.36220472440944884
        },
        {
          "duration": 0.034883720930224626,
          "durationTicks": 3,
          "midi": 45,
          "name": "A2",
          "ticks": 9581,
          "time": 111.40697674418605,
          "velocity": 0.3464566929133858
        },
        {
          "duration": 0.03488372093023884,
          "durationTicks": 3,
          "midi": 45,
          "name": "A2",
          "ticks": 9585,
          "time": 111.45348837209302,
          "velocity": 0.2992125984251969
        },
        {
          "duration": 0.03488372093023884,
          "durationTicks": 3,
          "midi": 45,
          "name": "A2",
          "ticks": 9589,
          "time": 111.5,
          "velocity": 0.3228346456692913
        },
        {
          "duration": 0.03488372093023884,
          "durationTicks": 3,
          "midi": 83,
          "name": "B5",
          "ticks": 9591,
          "time": 111.52325581395348,
          "velocity": 0.1732283464566929
        },
        {
          "duration": 0.04651162790696617,
          "durationTicks": 4,
          "midi": 44,
          "name": "G#2",
          "ticks": 9592,
          "time": 111.53488372093024,
          "velocity": 0.3464566929133858
        },
        {
          "duration": 0.081395348837205,
          "durationTicks": 7,
          "midi": 88,
          "name": "E6",
          "ticks": 9595,
          "time": 111.56976744186046,
          "velocity": 0.13385826771653545
        },
        {
          "duration": 0.19767441860464885,
          "durationTicks": 17,
          "midi": 45,
          "name": "A2",
          "ticks": 9596,
          "time": 111.5813953488372,
          "velocity": 0.3464566929133858
        },
        {
          "duration": 0.04651162790698038,
          "durationTicks": 4,
          "midi": 67,
          "name": "G4",
          "ticks": 9596,
          "time": 111.5813953488372,
          "velocity": 0.11023622047244094
        },
        {
          "duration": 0.09302325581394655,
          "durationTicks": 8,
          "midi": 83,
          "name": "B5",
          "ticks": 9598,
          "time": 111.6046511627907,
          "velocity": 0.11811023622047244
        },
        {
          "duration": 0.11627906976744384,
          "durationTicks": 10,
          "midi": 61,
          "name": "C#4",
          "ticks": 9604,
          "time": 111.67441860465117,
          "velocity": 0.2204724409448819
        },
        {
          "duration": 0.581395348837205,
          "durationTicks": 50,
          "midi": 77,
          "name": "F5",
          "ticks": 9604,
          "time": 111.67441860465117,
          "velocity": 0.4094488188976378
        },
        {
          "duration": 0.034883720930224626,
          "durationTicks": 3,
          "midi": 88,
          "name": "E6",
          "ticks": 9604,
          "time": 111.67441860465117,
          "velocity": 0.13385826771653545
        },
        {
          "duration": 0.12790697674418539,
          "durationTicks": 11,
          "midi": 93,
          "name": "A6",
          "ticks": 9606,
          "time": 111.69767441860465,
          "velocity": 0.2047244094488189
        },
        {
          "duration": 0.03488372093023884,
          "durationTicks": 3,
          "midi": 83,
          "name": "B5",
          "ticks": 9611,
          "time": 111.75581395348837,
          "velocity": 0.11023622047244094
        },
        {
          "duration": 0.04651162790698038,
          "durationTicks": 4,
          "midi": 67,
          "name": "G4",
          "ticks": 9612,
          "time": 111.76744186046511,
          "velocity": 0.2283464566929134
        },
        {
          "duration": 0.06976744186047767,
          "durationTicks": 6,
          "midi": 91,
          "name": "G6",
          "ticks": 9613,
          "time": 111.77906976744185,
          "velocity": 0.12598425196850394
        },
        {
          "duration": 0.2093023255813904,
          "durationTicks": 18,
          "midi": 85,
          "name": "C#6",
          "ticks": 9614,
          "time": 111.79069767441861,
          "velocity": 0.13385826771653545
        },
        {
          "duration": 0.023255813953483084,
          "durationTicks": 2,
          "midi": 52,
          "name": "E3",
          "ticks": 9615,
          "time": 111.80232558139535,
          "velocity": 0.28346456692913385
        },
        {
          "duration": 0.05813953488372192,
          "durationTicks": 5,
          "midi": 86,
          "name": "D6",
          "ticks": 9615,
          "time": 111.80232558139535,
          "velocity": 0.11023622047244094
        },
        {
          "duration": 0.04651162790698038,
          "durationTicks": 4,
          "midi": 90,
          "name": "F#6",
          "ticks": 9615,
          "time": 111.80232558139535,
          "velocity": 0.07086614173228346
        },
        {
          "duration": 0.04651162790698038,
          "durationTicks": 4,
          "midi": 83,
          "name": "B5",
          "ticks": 9616,
          "time": 111.81395348837209,
          "velocity": 0.08661417322834646
        },
        {
          "duration": 0.04651162790698038,
          "durationTicks": 4,
          "midi": 52,
          "name": "E3",
          "ticks": 9618,
          "time": 111.83720930232558,
          "velocity": 0.2992125984251969
        },
        {
          "duration": 0.09302325581394655,
          "durationTicks": 8,
          "midi": 67,
          "name": "G4",
          "ticks": 9619,
          "time": 111.84883720930233,
          "velocity": 0.23622047244094488
        },
        {
          "duration": 0.11627906976744384,
          "durationTicks": 10,
          "midi": 83,
          "name": "B5",
          "ticks": 9622,
          "time": 111.88372093023256,
          "velocity": 0.15748031496062992
        },
        {
          "duration": 0.05813953488372192,
          "durationTicks": 5,
          "midi": 88,
          "name": "E6",
          "ticks": 9623,
          "time": 111.8953488372093,
          "velocity": 0.11811023622047244
        },
        {
          "duration": 0.27906976744186807,
          "durationTicks": 24,
          "midi": 67,
          "name": "G4",
          "ticks": 9628,
          "time": 111.95348837209302,
          "velocity": 0.4251968503937008
        },
        {
          "duration": 0.03488372093023884,
          "durationTicks": 3,
          "midi": 48,
          "name": "C3",
          "ticks": 9629,
          "time": 111.96511627906976,
          "velocity": 0.25984251968503935
        },
        {
          "duration": 0.034883720930224626,
          "durationTicks": 3,
          "midi": 88,
          "name": "E6",
          "ticks": 9630,
          "time": 111.97674418604652,
          "velocity": 0.07086614173228346
        },
        {
          "duration": 0.5465116279069804,
          "durationTicks": 47,
          "midi": 79,
          "name": "G5",
          "ticks": 9631,
          "time": 111.98837209302326,
          "velocity": 0.4330708661417323
        },
        {
          "duration": 0.06976744186046346,
          "durationTicks": 6,
          "midi": 86,
          "name": "D6",
          "ticks": 9631,
          "time": 111.98837209302326,
          "velocity": 0.18110236220472442
        },
        {
          "duration": 0.13953488372092693,
          "durationTicks": 12,
          "midi": 96,
          "name": "C7",
          "ticks": 9631,
          "time": 111.98837209302326,
          "velocity": 0.3543307086614173
        },
        {
          "duration": 0.6046511627907023,
          "durationTicks": 52,
          "midi": 74,
          "name": "D5",
          "ticks": 9632,
          "time": 112,
          "velocity": 0.3858267716535433
        },
        {
          "duration": 0.03488372093023884,
          "durationTicks": 3,
          "midi": 62,
          "name": "D4",
          "ticks": 9633,
          "time": 112.01162790697674,
          "velocity": 0.31496062992125984
        },
        {
          "duration": 0.03488372093023884,
          "durationTicks": 3,
          "midi": 72,
          "name": "C5",
          "ticks": 9633,
          "time": 112.01162790697674,
          "velocity": 0.2204724409448819
        },
        {
          "duration": 0.418604651162795,
          "durationTicks": 36,
          "midi": 85,
          "name": "C#6",
          "ticks": 9633,
          "time": 112.01162790697674,
          "velocity": 0.1968503937007874
        },
        {
          "duration": 0.19767441860464885,
          "durationTicks": 17,
          "midi": 38,
          "name": "D2",
          "ticks": 9635,
          "time": 112.03488372093024,
          "velocity": 0.1732283464566929
        },
        {
          "duration": 0.023255813953483084,
          "durationTicks": 2,
          "midi": 52,
          "name": "E3",
          "ticks": 9636,
          "time": 112.04651162790698,
          "velocity": 0.2440944881889764
        },
        {
          "duration": 0.05813953488372192,
          "durationTicks": 5,
          "midi": 62,
          "name": "D4",
          "ticks": 9637,
          "time": 112.05813953488372,
          "velocity": 0.33858267716535434
        },
        {
          "duration": 0.034883720930224626,
          "durationTicks": 3,
          "midi": 65,
          "name": "F4",
          "ticks": 9637,
          "time": 112.05813953488372,
          "velocity": 0.3543307086614173
        },
        {
          "duration": 0.081395348837205,
          "durationTicks": 7,
          "midi": 72,
          "name": "C5",
          "ticks": 9638,
          "time": 112.06976744186046,
          "velocity": 0.2125984251968504
        },
        {
          "duration": 0.04651162790698038,
          "durationTicks": 4,
          "midi": 52,
          "name": "E3",
          "ticks": 9639,
          "time": 112.0813953488372,
          "velocity": 0.2204724409448819
        },
        {
          "duration": 0.034883720930224626,
          "durationTicks": 3,
          "midi": 65,
          "name": "F4",
          "ticks": 9641,
          "time": 112.1046511627907,
          "velocity": 0.3464566929133858
        },
        {
          "duration": 0.023255813953483084,
          "durationTicks": 2,
          "midi": 62,
          "name": "D4",
          "ticks": 9643,
          "time": 112.12790697674419,
          "velocity": 0.23622047244094488
        },
        {
          "duration": 0.03488372093023884,
          "durationTicks": 3,
          "midi": 65,
          "name": "F4",
          "ticks": 9645,
          "time": 112.15116279069767,
          "velocity": 0.33070866141732286
        },
        {
          "duration": 0.023255813953483084,
          "durationTicks": 2,
          "midi": 62,
          "name": "D4",
          "ticks": 9646,
          "time": 112.16279069767442,
          "velocity": 0.2440944881889764
        },
        {
          "duration": 0.11627906976744384,
          "durationTicks": 10,
          "midi": 84,
          "name": "C6",
          "ticks": 9647,
          "time": 112.17441860465117,
          "velocity": 0.11023622047244094
        },
        {
          "duration": 0.04651162790698038,
          "durationTicks": 4,
          "midi": 72,
          "name": "C5",
          "ticks": 9648,
          "time": 112.18604651162791,
          "velocity": 0.1732283464566929
        },
        {
          "duration": 0.43023255813953654,
          "durationTicks": 37,
          "midi": 65,
          "name": "F4",
          "ticks": 9649,
          "time": 112.19767441860465,
          "velocity": 0.4251968503937008
        },
        {
          "duration": 0.023255813953497295,
          "durationTicks": 2,
          "midi": 61,
          "name": "C#4",
          "ticks": 9650,
          "time": 112.20930232558139,
          "velocity": 0.2755905511811024
        },
        {
          "duration": 0.023255813953483084,
          "durationTicks": 2,
          "midi": 52,
          "name": "E3",
          "ticks": 9651,
          "time": 112.22093023255815,
          "velocity": 0.2755905511811024
        },
        {
          "duration": 0.05813953488372192,
          "durationTicks": 5,
          "midi": 57,
          "name": "A3",
          "ticks": 9652,
          "time": 112.23255813953489,
          "velocity": 0.1889763779527559
        },
        {
          "duration": 0.04651162790696617,
          "durationTicks": 4,
          "midi": 87,
          "name": "D#6",
          "ticks": 9652,
          "time": 112.23255813953489,
          "velocity": 0.15748031496062992
        },
        {
          "duration": 0.023255813953483084,
          "durationTicks": 2,
          "midi": 50,
          "name": "D3",
          "ticks": 9653,
          "time": 112.24418604651163,
          "velocity": 0.28346456692913385
        },
        {
          "duration": 0.023255813953497295,
          "durationTicks": 2,
          "midi": 49,
          "name": "C#3",
          "ticks": 9655,
          "time": 112.26744186046511,
          "velocity": 0.29133858267716534
        },
        {
          "duration": 0.023255813953483084,
          "durationTicks": 2,
          "midi": 52,
          "name": "E3",
          "ticks": 9657,
          "time": 112.29069767441861,
          "velocity": 0.33858267716535434
        },
        {
          "duration": 1.66279069767441,
          "durationTicks": 143,
          "midi": 77,
          "name": "F5",
          "ticks": 9657,
          "time": 112.29069767441861,
          "velocity": 0.4409448818897638
        },
        {
          "duration": 0.46511627906976116,
          "durationTicks": 40,
          "midi": 72,
          "name": "C5",
          "ticks": 9658,
          "time": 112.30232558139535,
          "velocity": 0.4409448818897638
        },
        {
          "duration": 0.04651162790698038,
          "durationTicks": 4,
          "midi": 87,
          "name": "D#6",
          "ticks": 9659,
          "time": 112.31395348837209,
          "velocity": 0.13385826771653545
        },
        {
          "duration": 0.03488372093023884,
          "durationTicks": 3,
          "midi": 50,
          "name": "D3",
          "ticks": 9660,
          "time": 112.32558139534883,
          "velocity": 0.36220472440944884
        },
        {
          "duration": 0.16279069767442422,
          "durationTicks": 14,
          "midi": 57,
          "name": "A3",
          "ticks": 9660,
          "time": 112.32558139534883,
          "velocity": 0.2204724409448819
        },
        {
          "duration": 0.023255813953483084,
          "durationTicks": 2,
          "midi": 51,
          "name": "D#3",
          "ticks": 9663,
          "time": 112.36046511627907,
          "velocity": 0.2755905511811024
        },
        {
          "duration": 0.023255813953483084,
          "durationTicks": 2,
          "midi": 51,
          "name": "D#3",
          "ticks": 9667,
          "time": 112.40697674418605,
          "velocity": 0.3228346456692913
        },
        {
          "duration": 0.04651162790696617,
          "durationTicks": 4,
          "midi": 87,
          "name": "D#6",
          "ticks": 9667,
          "time": 112.40697674418605,
          "velocity": 0.09448818897637795
        },
        {
          "duration": 0.023255813953483084,
          "durationTicks": 2,
          "midi": 61,
          "name": "C#4",
          "ticks": 9669,
          "time": 112.43023255813954,
          "velocity": 0.23622047244094488
        },
        {
          "duration": 0.03488372093023884,
          "durationTicks": 3,
          "midi": 50,
          "name": "D3",
          "ticks": 9670,
          "time": 112.44186046511628,
          "velocity": 0.2992125984251969
        },
        {
          "duration": 0.04651162790696617,
          "durationTicks": 4,
          "midi": 87,
          "name": "D#6",
          "ticks": 9673,
          "time": 112.47674418604652,
          "velocity": 0.07874015748031496
        },
        {
          "duration": 0.09302325581396076,
          "durationTicks": 8,
          "midi": 50,
          "name": "D3",
          "ticks": 9676,
          "time": 112.51162790697674,
          "velocity": 0.36220472440944884
        },
        {
          "duration": 0.13953488372094114,
          "durationTicks": 12,
          "midi": 57,
          "name": "A3",
          "ticks": 9677,
          "time": 112.52325581395348,
          "velocity": 0.15748031496062992
        },
        {
          "duration": 0.034883720930224626,
          "durationTicks": 3,
          "midi": 87,
          "name": "D#6",
          "ticks": 9680,
          "time": 112.55813953488372,
          "velocity": 0.08661417322834646
        },
        {
          "duration": 0.418604651162795,
          "durationTicks": 36,
          "midi": 79,
          "name": "G5",
          "ticks": 9683,
          "time": 112.59302325581395,
          "velocity": 0.4251968503937008
        },
        {
          "duration": 0.05813953488372192,
          "durationTicks": 5,
          "midi": 50,
          "name": "D3",
          "ticks": 9685,
          "time": 112.61627906976744,
          "velocity": 0.33070866141732286
        },
        {
          "duration": 2.2558139534883708,
          "durationTicks": 194,
          "midi": 74,
          "name": "D5",
          "ticks": 9685,
          "time": 112.61627906976744,
          "velocity": 0.48031496062992124
        },
        {
          "duration": 0.09302325581396076,
          "durationTicks": 8,
          "midi": 67,
          "name": "G4",
          "ticks": 9686,
          "time": 112.62790697674419,
          "velocity": 0.36220472440944884
        },
        {
          "duration": 0.12790697674418539,
          "durationTicks": 11,
          "midi": 87,
          "name": "D#6",
          "ticks": 9688,
          "time": 112.65116279069767,
          "velocity": 0.07086614173228346
        },
        {
          "duration": 0.023255813953483084,
          "durationTicks": 2,
          "midi": 50,
          "name": "D3",
          "ticks": 9691,
          "time": 112.68604651162791,
          "velocity": 0.3779527559055118
        },
        {
          "duration": 0.34883720930233153,
          "durationTicks": 30,
          "midi": 88,
          "name": "E6",
          "ticks": 9691,
          "time": 112.68604651162791,
          "velocity": 0.2125984251968504
        },
        {
          "duration": 0.24418604651162923,
          "durationTicks": 21,
          "midi": 65,
          "name": "F4",
          "ticks": 9692,
          "time": 112.69767441860465,
          "velocity": 0.3543307086614173
        },
        {
          "duration": 0.023255813953497295,
          "durationTicks": 2,
          "midi": 51,
          "name": "D#3",
          "ticks": 9693,
          "time": 112.70930232558139,
          "velocity": 0.29133858267716534
        },
        {
          "duration": 0.03488372093023884,
          "durationTicks": 3,
          "midi": 62,
          "name": "D4",
          "ticks": 9698,
          "time": 112.76744186046511,
          "velocity": 0.18110236220472442
        },
        {
          "duration": 0.16279069767442422,
          "durationTicks": 14,
          "midi": 72,
          "name": "C5",
          "ticks": 9699,
          "time": 112.77906976744185,
          "velocity": 0.18110236220472442
        },
        {
          "duration": 0.03488372093023884,
          "durationTicks": 3,
          "midi": 90,
          "name": "F#6",
          "ticks": 9699,
          "time": 112.77906976744185,
          "velocity": 0.07086614173228346
        },
        {
          "duration": 0.43023255813953654,
          "durationTicks": 37,
          "midi": 69,
          "name": "A4",
          "ticks": 9701,
          "time": 112.80232558139535,
          "velocity": 0.3937007874015748
        },
        {
          "duration": 0.05813953488372192,
          "durationTicks": 5,
          "midi": 50,
          "name": "D3",
          "ticks": 9705,
          "time": 112.84883720930233,
          "velocity": 0.3779527559055118
        },
        {
          "duration": 0.034883720930224626,
          "durationTicks": 3,
          "midi": 58,
          "name": "A#3",
          "ticks": 9710,
          "time": 112.90697674418605,
          "velocity": 0.15748031496062992
        },
        {
          "duration": 0.12790697674418539,
          "durationTicks": 11,
          "midi": 62,
          "name": "D4",
          "ticks": 9710,
          "time": 112.90697674418605,
          "velocity": 0.2283464566929134
        },
        {
          "duration": 0.06976744186046346,
          "durationTicks": 6,
          "midi": 90,
          "name": "F#6",
          "ticks": 9710,
          "time": 112.90697674418605,
          "velocity": 0.1732283464566929
        },
        {
          "duration": 0.10465116279068809,
          "durationTicks": 9,
          "midi": 50,
          "name": "D3",
          "ticks": 9711,
          "time": 112.9186046511628,
          "velocity": 0.3228346456692913
        },
        {
          "duration": 0.25581395348837077,
          "durationTicks": 22,
          "midi": 67,
          "name": "G4",
          "ticks": 9711,
          "time": 112.9186046511628,
          "velocity": 0.2755905511811024
        },
        {
          "duration": 0.2906976744186096,
          "durationTicks": 25,
          "midi": 83,
          "name": "B5",
          "ticks": 9712,
          "time": 112.93023255813954,
          "velocity": 0.2125984251968504
        },
        {
          "duration": 0.05813953488372192,
          "durationTicks": 5,
          "midi": 58,
          "name": "A#3",
          "ticks": 9715,
          "time": 112.96511627906976,
          "velocity": 0.2047244094488189
        },
        {
          "duration": 0.05813953488372192,
          "durationTicks": 5,
          "midi": 90,
          "name": "F#6",
          "ticks": 9719,
          "time": 113.01162790697674,
          "velocity": 0.15748031496062992
        },
        {
          "duration": 0.081395348837205,
          "durationTicks": 7,
          "midi": 50,
          "name": "D3",
          "ticks": 9721,
          "time": 113.03488372093024,
          "velocity": 0.16535433070866143
        },
        {
          "duration": 0.09302325581394655,
          "durationTicks": 8,
          "midi": 58,
          "name": "A#3",
          "ticks": 9721,
          "time": 113.03488372093024,
          "velocity": 0.2125984251968504
        },
        {
          "duration": 0.081395348837205,
          "durationTicks": 7,
          "midi": 43,
          "name": "G2",
          "ticks": 9723,
          "time": 113.05813953488372,
          "velocity": 0.14173228346456693
        },
        {
          "duration": 0.7558139534883708,
          "durationTicks": 65,
          "midi": 62,
          "name": "D4",
          "ticks": 9724,
          "time": 113.06976744186046,
          "velocity": 0.3228346456692913
        },
        {
          "duration": 0.04651162790698038,
          "durationTicks": 4,
          "midi": 90,
          "name": "F#6",
          "ticks": 9728,
          "time": 113.11627906976744,
          "velocity": 0.07874015748031496
        },
        {
          "duration": 0.03488372093023884,
          "durationTicks": 3,
          "midi": 44,
          "name": "G#2",
          "ticks": 9730,
          "time": 113.13953488372093,
          "velocity": 0.1732283464566929
        },
        {
          "duration": 0.13953488372094114,
          "durationTicks": 12,
          "midi": 92,
          "name": "G#6",
          "ticks": 9731,
          "time": 113.15116279069767,
          "velocity": 0.07874015748031496
        },
        {
          "duration": 0.19767441860464885,
          "durationTicks": 17,
          "midi": 67,
          "name": "G4",
          "ticks": 9734,
          "time": 113.18604651162791,
          "velocity": 0.2204724409448819
        },
        {
          "duration": 0.3139534883720927,
          "durationTicks": 27,
          "midi": 88,
          "name": "E6",
          "ticks": 9734,
          "time": 113.18604651162791,
          "velocity": 0.12598425196850394
        },
        {
          "duration": 0.5581395348837219,
          "durationTicks": 48,
          "midi": 79,
          "name": "G5",
          "ticks": 9735,
          "time": 113.19767441860465,
          "velocity": 0.3937007874015748
        },
        {
          "duration": 0.04651162790698038,
          "durationTicks": 4,
          "midi": 55,
          "name": "G3",
          "ticks": 9736,
          "time": 113.20930232558139,
          "velocity": 0.10236220472440945
        },
        {
          "duration": 0.3139534883720927,
          "durationTicks": 27,
          "midi": 82,
          "name": "A#5",
          "ticks": 9736,
          "time": 113.20930232558139,
          "velocity": 0.3937007874015748
        },
        {
          "duration": 0.32558139534883423,
          "durationTicks": 28,
          "midi": 70,
          "name": "A#4",
          "ticks": 9738,
          "time": 113.23255813953489,
          "velocity": 0.4251968503937008
        },
        {
          "duration": 0.04651162790698038,
          "durationTicks": 4,
          "midi": 50,
          "name": "D3",
          "ticks": 9744,
          "time": 113.30232558139535,
          "velocity": 0.08661417322834646
        },
        {
          "duration": 0.04651162790698038,
          "durationTicks": 4,
          "midi": 83,
          "name": "B5",
          "ticks": 9747,
          "time": 113.33720930232558,
          "velocity": 0.14960629921259844
        },
        {
          "duration": 0.04651162790698038,
          "durationTicks": 4,
          "midi": 44,
          "name": "G#2",
          "ticks": 9749,
          "time": 113.36046511627907,
          "velocity": 0.2204724409448819
        },
        {
          "duration": 0.081395348837205,
          "durationTicks": 7,
          "midi": 90,
          "name": "F#6",
          "ticks": 9749,
          "time": 113.36046511627907,
          "velocity": 0.15748031496062992
        },
        {
          "duration": 0.2325581395348877,
          "durationTicks": 20,
          "midi": 55,
          "name": "G3",
          "ticks": 9750,
          "time": 113.37209302325581,
          "velocity": 0.2125984251968504
        },
        {
          "duration": 0.05813953488370771,
          "durationTicks": 5,
          "midi": 50,
          "name": "D3",
          "ticks": 9753,
          "time": 113.40697674418605,
          "velocity": 0.11811023622047244
        },
        {
          "duration": 0.04651162790698038,
          "durationTicks": 4,
          "midi": 43,
          "name": "G2",
          "ticks": 9756,
          "time": 113.44186046511628,
          "velocity": 0.11811023622047244
        },
        {
          "duration": 0.03488372093023884,
          "durationTicks": 3,
          "midi": 83,
          "name": "B5",
          "ticks": 9757,
          "time": 113.45348837209302,
          "velocity": 0.07086614173228346
        },
        {
          "duration": 0.06976744186047767,
          "durationTicks": 6,
          "midi": 90,
          "name": "F#6",
          "ticks": 9758,
          "time": 113.46511627906976,
          "velocity": 0.13385826771653545
        },
        {
          "duration": 0.034883720930224626,
          "durationTicks": 3,
          "midi": 42,
          "name": "F#2",
          "ticks": 9760,
          "time": 113.48837209302326,
          "velocity": 0.07874015748031496
        },
        {
          "duration": 0.06976744186046346,
          "durationTicks": 6,
          "midi": 50,
          "name": "D3",
          "ticks": 9761,
          "time": 113.5,
          "velocity": 0.14960629921259844
        },
        {
          "duration": 0.081395348837205,
          "durationTicks": 7,
          "midi": 93,
          "name": "A6",
          "ticks": 9762,
          "time": 113.51162790697674,
          "velocity": 0.1732283464566929
        },
        {
          "duration": 0.25581395348837077,
          "durationTicks": 22,
          "midi": 81,
          "name": "A5",
          "ticks": 9763,
          "time": 113.52325581395348,
          "velocity": 0.28346456692913385
        },
        {
          "duration": 0.04651162790696617,
          "durationTicks": 4,
          "midi": 43,
          "name": "G2",
          "ticks": 9765,
          "time": 113.54651162790698,
          "velocity": 0.14173228346456693
        },
        {
          "duration": 0.12790697674418539,
          "durationTicks": 11,
          "midi": 69,
          "name": "A4",
          "ticks": 9765,
          "time": 113.54651162790698,
          "velocity": 0.3779527559055118
        },
        {
          "duration": 1.139534883720927,
          "durationTicks": 98,
          "midi": 67,
          "name": "G4",
          "ticks": 9770,
          "time": 113.6046511627907,
          "velocity": 0.4645669291338583
        },
        {
          "duration": 0.034883720930224626,
          "durationTicks": 3,
          "midi": 55,
          "name": "G3",
          "ticks": 9771,
          "time": 113.61627906976744,
          "velocity": 0.2204724409448819
        },
        {
          "duration": 0.081395348837205,
          "durationTicks": 7,
          "midi": 82,
          "name": "A#5",
          "ticks": 9771,
          "time": 113.61627906976744,
          "velocity": 0.10236220472440945
        },
        {
          "duration": 0.13953488372092693,
          "durationTicks": 12,
          "midi": 88,
          "name": "E6",
          "ticks": 9771,
          "time": 113.61627906976744,
          "velocity": 0.13385826771653545
        },
        {
          "duration": 0.03488372093023884,
          "durationTicks": 3,
          "midi": 42,
          "name": "F#2",
          "ticks": 9772,
          "time": 113.62790697674419,
          "velocity": 0.11811023622047244
        },
        {
          "duration": 0.04651162790698038,
          "durationTicks": 4,
          "midi": 58,
          "name": "A#3",
          "ticks": 9777,
          "time": 113.68604651162791,
          "velocity": 0.1968503937007874
        },
        {
          "duration": 0.13953488372092693,
          "durationTicks": 12,
          "midi": 69,
          "name": "A4",
          "ticks": 9777,
          "time": 113.68604651162791,
          "velocity": 0.3464566929133858
        },
        {
          "duration": 0.03488372093023884,
          "durationTicks": 3,
          "midi": 43,
          "name": "G2",
          "ticks": 9779,
          "time": 113.70930232558139,
          "velocity": 0.07874015748031496
        },
        {
          "duration": 0.04651162790698038,
          "durationTicks": 4,
          "midi": 55,
          "name": "G3",
          "ticks": 9779,
          "time": 113.70930232558139,
          "velocity": 0.1889763779527559
        },
        {
          "duration": 1.0581395348837077,
          "durationTicks": 91,
          "midi": 83,
          "name": "B5",
          "ticks": 9780,
          "time": 113.72093023255815,
          "velocity": 0.29133858267716534
        },
        {
          "duration": 0.06976744186046346,
          "durationTicks": 6,
          "midi": 43,
          "name": "G2",
          "ticks": 9783,
          "time": 113.75581395348837,
          "velocity": 0.11811023622047244
        },
        {
          "duration": 0.04651162790696617,
          "durationTicks": 4,
          "midi": 55,
          "name": "G3",
          "ticks": 9786,
          "time": 113.79069767441861,
          "velocity": 0.1732283464566929
        },
        {
          "duration": 0.13953488372092693,
          "durationTicks": 12,
          "midi": 88,
          "name": "E6",
          "ticks": 9788,
          "time": 113.81395348837209,
          "velocity": 0.1732283464566929
        },
        {
          "duration": 0.17441860465116577,
          "durationTicks": 15,
          "midi": 60,
          "name": "C4",
          "ticks": 9789,
          "time": 113.82558139534883,
          "velocity": 0.3543307086614173
        },
        {
          "duration": 0.06976744186046346,
          "durationTicks": 6,
          "midi": 64,
          "name": "E4",
          "ticks": 9789,
          "time": 113.82558139534883,
          "velocity": 0.3228346456692913
        },
        {
          "duration": 0.25581395348837077,
          "durationTicks": 22,
          "midi": 81,
          "name": "A5",
          "ticks": 9790,
          "time": 113.83720930232558,
          "velocity": 0.13385826771653545
        },
        {
          "duration": 0.03488372093023884,
          "durationTicks": 3,
          "midi": 82,
          "name": "A#5",
          "ticks": 9790,
          "time": 113.83720930232558,
          "velocity": 0.10236220472440945
        },
        {
          "duration": 0.034883720930224626,
          "durationTicks": 3,
          "midi": 82,
          "name": "A#5",
          "ticks": 9796,
          "time": 113.90697674418605,
          "velocity": 0.09448818897637795
        },
        {
          "duration": 0.13953488372092693,
          "durationTicks": 12,
          "midi": 64,
          "name": "E4",
          "ticks": 9797,
          "time": 113.9186046511628,
          "velocity": 0.25196850393700787
        },
        {
          "duration": 0.06976744186046346,
          "durationTicks": 6,
          "midi": 55,
          "name": "G3",
          "ticks": 9798,
          "time": 113.93023255813954,
          "velocity": 0.18110236220472442
        },
        {
          "duration": 0.06976744186046346,
          "durationTicks": 6,
          "midi": 76,
          "name": "E5",
          "ticks": 9799,
          "time": 113.94186046511628,
          "velocity": 0.25984251968503935
        },
        {
          "duration": 0.03488372093023884,
          "durationTicks": 3,
          "midi": 60,
          "name": "C4",
          "ticks": 9805,
          "time": 114.01162790697674,
          "velocity": 0.2755905511811024
        },
        {
          "duration": 0.5116279069767415,
          "durationTicks": 44,
          "midi": 77,
          "name": "F5",
          "ticks": 9805,
          "time": 114.01162790697674,
          "velocity": 0.3937007874015748
        },
        {
          "duration": 1.0116279069767558,
          "durationTicks": 87,
          "midi": 72,
          "name": "C5",
          "ticks": 9806,
          "time": 114.02325581395348,
          "velocity": 0.4645669291338583
        },
        {
          "duration": 0.034883720930224626,
          "durationTicks": 3,
          "midi": 90,
          "name": "F#6",
          "ticks": 9808,
          "time": 114.04651162790698,
          "velocity": 0.09448818897637795
        },
        {
          "duration": 0.034883720930224626,
          "durationTicks": 3,
          "midi": 48,
          "name": "C3",
          "ticks": 9809,
          "time": 114.05813953488372,
          "velocity": 0.23622047244094488
        },
        {
          "duration": 0.04651162790698038,
          "durationTicks": 4,
          "midi": 60,
          "name": "C4",
          "ticks": 9809,
          "time": 114.05813953488372,
          "velocity": 0.33858267716535434
        },
        {
          "duration": 0.03488372093023884,
          "durationTicks": 3,
          "midi": 55,
          "name": "G3",
          "ticks": 9810,
          "time": 114.06976744186046,
          "velocity": 0.2440944881889764
        },
        {
          "duration": 0.081395348837205,
          "durationTicks": 7,
          "midi": 88,
          "name": "E6",
          "ticks": 9810,
          "time": 114.06976744186046,
          "velocity": 0.1889763779527559
        },
        {
          "duration": 0.05813953488372192,
          "durationTicks": 5,
          "midi": 64,
          "name": "E4",
          "ticks": 9811,
          "time": 114.0813953488372,
          "velocity": 0.33858267716535434
        },
        {
          "duration": 0.1279069767441996,
          "durationTicks": 11,
          "midi": 82,
          "name": "A#5",
          "ticks": 9812,
          "time": 114.09302325581395,
          "velocity": 0.11811023622047244
        },
        {
          "duration": 0.06976744186046346,
          "durationTicks": 6,
          "midi": 55,
          "name": "G3",
          "ticks": 9814,
          "time": 114.11627906976744,
          "velocity": 0.2125984251968504
        },
        {
          "duration": 0.034883720930224626,
          "durationTicks": 3,
          "midi": 60,
          "name": "C4",
          "ticks": 9814,
          "time": 114.11627906976744,
          "velocity": 0.2440944881889764
        },
        {
          "duration": 0.16279069767441,
          "durationTicks": 14,
          "midi": 88,
          "name": "E6",
          "ticks": 9819,
          "time": 114.17441860465117,
          "velocity": 0.16535433070866143
        },
        {
          "duration": 0.03488372093023884,
          "durationTicks": 3,
          "midi": 60,
          "name": "C4",
          "ticks": 9821,
          "time": 114.19767441860465,
          "velocity": 0.1732283464566929
        },
        {
          "duration": 0.03488372093023884,
          "durationTicks": 3,
          "midi": 65,
          "name": "F4",
          "ticks": 9822,
          "time": 114.20930232558139,
          "velocity": 0.30708661417322836
        },
        {
          "duration": 0.11627906976744384,
          "durationTicks": 10,
          "midi": 58,
          "name": "A#3",
          "ticks": 9824,
          "time": 114.23255813953489,
          "velocity": 0.16535433070866143
        },
        {
          "duration": 0.03488372093023884,
          "durationTicks": 3,
          "midi": 48,
          "name": "C3",
          "ticks": 9831,
          "time": 114.31395348837209,
          "velocity": 0.1968503937007874
        },
        {
          "duration": 0.09302325581396076,
          "durationTicks": 8,
          "midi": 82,
          "name": "A#5",
          "ticks": 9832,
          "time": 114.32558139534883,
          "velocity": 0.14173228346456693
        },
        {
          "duration": 0.04651162790698038,
          "durationTicks": 4,
          "midi": 48,
          "name": "C3",
          "ticks": 9835,
          "time": 114.36046511627907,
          "velocity": 0.1889763779527559
        },
        {
          "duration": 0.081395348837205,
          "durationTicks": 7,
          "midi": 55,
          "name": "G3",
          "ticks": 9842,
          "time": 114.44186046511628,
          "velocity": 0.1732283464566929
        },
        {
          "duration": 0.023255813953483084,
          "durationTicks": 2,
          "midi": 61,
          "name": "C#4",
          "ticks": 9846,
          "time": 114.48837209302326,
          "velocity": 0.2440944881889764
        },
        {
          "duration": 0.17441860465116577,
          "durationTicks": 15,
          "midi": 93,
          "name": "A6",
          "ticks": 9846,
          "time": 114.48837209302326,
          "velocity": 0.4015748031496063
        },
        {
          "duration": 0.2325581395348877,
          "durationTicks": 20,
          "midi": 76,
          "name": "E5",
          "ticks": 9847,
          "time": 114.5,
          "velocity": 0.2125984251968504
        },
        {
          "duration": 0.023255813953497295,
          "durationTicks": 2,
          "midi": 47,
          "name": "B2",
          "ticks": 9848,
          "time": 114.51162790697674,
          "velocity": 0.25196850393700787
        },
        {
          "duration": 0.2093023255814046,
          "durationTicks": 18,
          "midi": 60,
          "name": "C4",
          "ticks": 9848,
          "time": 114.51162790697674,
          "velocity": 0.33858267716535434
        },
        {
          "duration": 0.2093023255814046,
          "durationTicks": 18,
          "midi": 81,
          "name": "A5",
          "ticks": 9848,
          "time": 114.51162790697674,
          "velocity": 0.1968503937007874
        },
        {
          "duration": 0.023255813953483084,
          "durationTicks": 2,
          "midi": 48,
          "name": "C3",
          "ticks": 9850,
          "time": 114.53488372093024,
          "velocity": 0.2283464566929134
        },
        {
          "duration": 0.17441860465116577,
          "durationTicks": 15,
          "midi": 90,
          "name": "F#6",
          "ticks": 9851,
          "time": 114.54651162790698,
          "velocity": 0.08661417322834646
        },
        {
          "duration": 0.034883720930224626,
          "durationTicks": 3,
          "midi": 64,
          "name": "E4",
          "ticks": 9852,
          "time": 114.55813953488372,
          "velocity": 0.2204724409448819
        },
        {
          "duration": 0.1860465116279073,
          "durationTicks": 16,
          "midi": 55,
          "name": "G3",
          "ticks": 9853,
          "time": 114.56976744186046,
          "velocity": 0.2755905511811024
        },
        {
          "duration": 0.023255813953497295,
          "durationTicks": 2,
          "midi": 48,
          "name": "C3",
          "ticks": 9855,
          "time": 114.59302325581395,
          "velocity": 0.23622047244094488
        },
        {
          "duration": 0.09302325581396076,
          "durationTicks": 8,
          "midi": 48,
          "name": "C3",
          "ticks": 9858,
          "time": 114.62790697674419,
          "velocity": 0.2677165354330709
        },
        {
          "duration": 0.03488372093023884,
          "durationTicks": 3,
          "midi": 64,
          "name": "E4",
          "ticks": 9860,
          "time": 114.65116279069767,
          "velocity": 0.2204724409448819
        },
        {
          "duration": 0.24418604651162923,
          "durationTicks": 21,
          "midi": 89,
          "name": "F6",
          "ticks": 9861,
          "time": 114.66279069767442,
          "velocity": 0.10236220472440945
        },
        {
          "duration": 0.7093023255814046,
          "durationTicks": 61,
          "midi": 64,
          "name": "E4",
          "ticks": 9864,
          "time": 114.69767441860465,
          "velocity": 0.3700787401574803
        },
        {
          "duration": 0.023255813953497295,
          "durationTicks": 2,
          "midi": 70,
          "name": "A#4",
          "ticks": 9865,
          "time": 114.70930232558139,
          "velocity": 0.2440944881889764
        },
        {
          "duration": 0.023255813953483084,
          "durationTicks": 2,
          "midi": 59,
          "name": "B3",
          "ticks": 9866,
          "time": 114.72093023255815,
          "velocity": 0.31496062992125984
        },
        {
          "duration": 0.05813953488370771,
          "durationTicks": 5,
          "midi": 98,
          "name": "D7",
          "ticks": 9866,
          "time": 114.72093023255815,
          "velocity": 0.2440944881889764
        },
        {
          "duration": 0.25581395348837077,
          "durationTicks": 22,
          "midi": 77,
          "name": "F5",
          "ticks": 9867,
          "time": 114.73255813953489,
          "velocity": 0.4251968503937008
        },
        {
          "duration": 0.1860465116279073,
          "durationTicks": 16,
          "midi": 91,
          "name": "G6",
          "ticks": 9867,
          "time": 114.73255813953489,
          "velocity": 0.13385826771653545
        },
        {
          "duration": 0.25581395348837077,
          "durationTicks": 22,
          "midi": 93,
          "name": "A6",
          "ticks": 9867,
          "time": 114.73255813953489,
          "velocity": 0.2283464566929134
        },
        {
          "duration": 0.8953488372092977,
          "durationTicks": 77,
          "midi": 60,
          "name": "C4",
          "ticks": 9868,
          "time": 114.74418604651163,
          "velocity": 0.3937007874015748
        },
        {
          "duration": 0.30232558139535115,
          "durationTicks": 26,
          "midi": 69,
          "name": "A4",
          "ticks": 9868,
          "time": 114.74418604651163,
          "velocity": 0.3858267716535433
        },
        {
          "duration": 0.25581395348837077,
          "durationTicks": 22,
          "midi": 79,
          "name": "G5",
          "ticks": 9868,
          "time": 114.74418604651163,
          "velocity": 0.1732283464566929
        },
        {
          "duration": 0.06976744186046346,
          "durationTicks": 6,
          "midi": 88,
          "name": "E6",
          "ticks": 9870,
          "time": 114.76744186046511,
          "velocity": 0.12598425196850394
        },
        {
          "duration": 0.06976744186046346,
          "durationTicks": 6,
          "midi": 67,
          "name": "G4",
          "ticks": 9872,
          "time": 114.79069767441861,
          "velocity": 0.31496062992125984
        },
        {
          "duration": 0.11627906976744384,
          "durationTicks": 10,
          "midi": 83,
          "name": "B5",
          "ticks": 9872,
          "time": 114.79069767441861,
          "velocity": 0.18110236220472442
        },
        {
          "duration": 0.15116279069766847,
          "durationTicks": 13,
          "midi": 52,
          "name": "E3",
          "ticks": 9874,
          "time": 114.81395348837209,
          "velocity": 0.18110236220472442
        },
        {
          "duration": 0.16279069767442422,
          "durationTicks": 14,
          "midi": 40,
          "name": "E2",
          "ticks": 9875,
          "time": 114.82558139534883,
          "velocity": 0.14173228346456693
        },
        {
          "duration": 0.1046511627907023,
          "durationTicks": 9,
          "midi": 67,
          "name": "G4",
          "ticks": 9879,
          "time": 114.87209302325581,
          "velocity": 0.29133858267716534
        },
        {
          "duration": 0.05813953488372192,
          "durationTicks": 5,
          "midi": 88,
          "name": "E6",
          "ticks": 9879,
          "time": 114.87209302325581,
          "velocity": 0.13385826771653545
        },
        {
          "duration": 0.05813953488370771,
          "durationTicks": 5,
          "midi": 74,
          "name": "D5",
          "ticks": 9882,
          "time": 114.90697674418605,
          "velocity": 0.12598425196850394
        },
        {
          "duration": 0.11627906976744384,
          "durationTicks": 10,
          "midi": 83,
          "name": "B5",
          "ticks": 9885,
          "time": 114.94186046511628,
          "velocity": 0.2283464566929134
        },
        {
          "duration": 0.06976744186046346,
          "durationTicks": 6,
          "midi": 86,
          "name": "D6",
          "ticks": 9886,
          "time": 114.95348837209302,
          "velocity": 0.14173228346456693
        },
        {
          "duration": 1.5465116279069662,
          "durationTicks": 133,
          "midi": 74,
          "name": "D5",
          "ticks": 9888,
          "time": 114.97674418604652,
          "velocity": 0.4645669291338583
        },
        {
          "duration": 0.03488372093023884,
          "durationTicks": 3,
          "midi": 67,
          "name": "G4",
          "ticks": 9891,
          "time": 115.01162790697674,
          "velocity": 0.2125984251968504
        },
        {
          "duration": 0.2906976744186096,
          "durationTicks": 25,
          "midi": 77,
          "name": "F5",
          "ticks": 9891,
          "time": 115.01162790697674,
          "velocity": 0.28346456692913385
        },
        {
          "duration": 0.023255813953497295,
          "durationTicks": 2,
          "midi": 52,
          "name": "E3",
          "ticks": 9892,
          "time": 115.02325581395348,
          "velocity": 0.25196850393700787
        },
        {
          "duration": 0.22093023255814614,
          "durationTicks": 19,
          "midi": 82,
          "name": "A#5",
          "ticks": 9892,
          "time": 115.02325581395348,
          "velocity": 0.36220472440944884
        },
        {
          "duration": 0.05813953488370771,
          "durationTicks": 5,
          "midi": 40,
          "name": "E2",
          "ticks": 9893,
          "time": 115.03488372093024,
          "velocity": 0.14173228346456693
        },
        {
          "duration": 0.5348837209302246,
          "durationTicks": 46,
          "midi": 79,
          "name": "G5",
          "ticks": 9893,
          "time": 115.03488372093024,
          "velocity": 0.3937007874015748
        },
        {
          "duration": 0.3139534883720927,
          "durationTicks": 27,
          "midi": 70,
          "name": "A#4",
          "ticks": 9894,
          "time": 115.04651162790698,
          "velocity": 0.4330708661417323
        },
        {
          "duration": 0.05813953488372192,
          "durationTicks": 5,
          "midi": 52,
          "name": "E3",
          "ticks": 9895,
          "time": 115.05813953488372,
          "velocity": 0.25196850393700787
        },
        {
          "duration": 0.04651162790698038,
          "durationTicks": 4,
          "midi": 67,
          "name": "G4",
          "ticks": 9895,
          "time": 115.05813953488372,
          "velocity": 0.1732283464566929
        },
        {
          "duration": 0.16279069767442422,
          "durationTicks": 14,
          "midi": 84,
          "name": "C6",
          "ticks": 9895,
          "time": 115.05813953488372,
          "velocity": 0.3228346456692913
        },
        {
          "duration": 0.2093023255813904,
          "durationTicks": 18,
          "midi": 96,
          "name": "C7",
          "ticks": 9896,
          "time": 115.06976744186046,
          "velocity": 0.36220472440944884
        },
        {
          "duration": 0.05813953488372192,
          "durationTicks": 5,
          "midi": 88,
          "name": "E6",
          "ticks": 9898,
          "time": 115.09302325581395,
          "velocity": 0.11023622047244094
        },
        {
          "duration": 0.06976744186046346,
          "durationTicks": 6,
          "midi": 40,
          "name": "E2",
          "ticks": 9900,
          "time": 115.11627906976744,
          "velocity": 0.11811023622047244
        },
        {
          "duration": 0.09302325581394655,
          "durationTicks": 8,
          "midi": 67,
          "name": "G4",
          "ticks": 9900,
          "time": 115.11627906976744,
          "velocity": 0.18110236220472442
        },
        {
          "duration": 0.05813953488372192,
          "durationTicks": 5,
          "midi": 83,
          "name": "B5",
          "ticks": 9903,
          "time": 115.15116279069767,
          "velocity": 0.16535433070866143
        },
        {
          "duration": 0.034883720930224626,
          "durationTicks": 3,
          "midi": 81,
          "name": "A5",
          "ticks": 9905,
          "time": 115.17441860465117,
          "velocity": 0.11023622047244094
        },
        {
          "duration": 0.03488372093023884,
          "durationTicks": 3,
          "midi": 41,
          "name": "F2",
          "ticks": 9906,
          "time": 115.18604651162791,
          "velocity": 0.14173228346456693
        },
        {
          "duration": 0.03488372093023884,
          "durationTicks": 3,
          "midi": 88,
          "name": "E6",
          "ticks": 9907,
          "time": 115.19767441860465,
          "velocity": 0.09448818897637795
        },
        {
          "duration": 0.03488372093023884,
          "durationTicks": 3,
          "midi": 55,
          "name": "G3",
          "ticks": 9908,
          "time": 115.20930232558139,
          "velocity": 0.14960629921259844
        },
        {
          "duration": 0.11627906976742963,
          "durationTicks": 10,
          "midi": 40,
          "name": "E2",
          "ticks": 9909,
          "time": 115.22093023255815,
          "velocity": 0.18110236220472442
        },
        {
          "duration": 0.25581395348837077,
          "durationTicks": 22,
          "midi": 83,
          "name": "B5",
          "ticks": 9909,
          "time": 115.22093023255815,
          "velocity": 0.2125984251968504
        },
        {
          "duration": 0.40697674418605345,
          "durationTicks": 35,
          "midi": 81,
          "name": "A5",
          "ticks": 9918,
          "time": 115.32558139534883,
          "velocity": 0.33070866141732286
        },
        {
          "duration": 0.2906976744186096,
          "durationTicks": 25,
          "midi": 72,
          "name": "C5",
          "ticks": 9919,
          "time": 115.33720930232558,
          "velocity": 0.4330708661417323
        },
        {
          "duration": 0.32558139534884845,
          "durationTicks": 28,
          "midi": 77,
          "name": "F5",
          "ticks": 9919,
          "time": 115.33720930232558,
          "velocity": 0.3937007874015748
        },
        {
          "duration": 0.19767441860466306,
          "durationTicks": 17,
          "midi": 96,
          "name": "C7",
          "ticks": 9919,
          "time": 115.33720930232558,
          "velocity": 0.10236220472440945
        },
        {
          "duration": 0.05813953488372192,
          "durationTicks": 5,
          "midi": 55,
          "name": "G3",
          "ticks": 9920,
          "time": 115.34883720930233,
          "velocity": 0.07874015748031496
        },
        {
          "duration": 0.24418604651161502,
          "durationTicks": 21,
          "midi": 93,
          "name": "A6",
          "ticks": 9920,
          "time": 115.34883720930233,
          "velocity": 0.3543307086614173
        },
        {
          "duration": 0.30232558139535115,
          "durationTicks": 26,
          "midi": 69,
          "name": "A4",
          "ticks": 9921,
          "time": 115.36046511627907,
          "velocity": 0.4645669291338583
        },
        {
          "duration": 0.24418604651161502,
          "durationTicks": 21,
          "midi": 90,
          "name": "F#6",
          "ticks": 9925,
          "time": 115.40697674418605,
          "velocity": 0.11811023622047244
        },
        {
          "duration": 0.8720930232558146,
          "durationTicks": 75,
          "midi": 64,
          "name": "E4",
          "ticks": 9928,
          "time": 115.44186046511628,
          "velocity": 0.4094488188976378
        },
        {
          "duration": 0.04651162790698038,
          "durationTicks": 4,
          "midi": 67,
          "name": "G4",
          "ticks": 9932,
          "time": 115.48837209302326,
          "velocity": 0.23622047244094488
        },
        {
          "duration": 0.04651162790698038,
          "durationTicks": 4,
          "midi": 40,
          "name": "E2",
          "ticks": 9933,
          "time": 115.5,
          "velocity": 0.15748031496062992
        },
        {
          "duration": 0.27906976744185386,
          "durationTicks": 24,
          "midi": 83,
          "name": "B5",
          "ticks": 9933,
          "time": 115.5,
          "velocity": 0.23622047244094488
        },
        {
          "duration": 0.06976744186046346,
          "durationTicks": 6,
          "midi": 67,
          "name": "G4",
          "ticks": 9937,
          "time": 115.54651162790698,
          "velocity": 0.2204724409448819
        },
        {
          "duration": 0.06976744186046346,
          "durationTicks": 6,
          "midi": 40,
          "name": "E2",
          "ticks": 9938,
          "time": 115.55813953488372,
          "velocity": 0.14960629921259844
        },
        {
          "duration": 0.081395348837205,
          "durationTicks": 7,
          "midi": 55,
          "name": "G3",
          "ticks": 9938,
          "time": 115.55813953488372,
          "velocity": 0.1732283464566929
        },
        {
          "duration": 0.03488372093023884,
          "durationTicks": 3,
          "midi": 88,
          "name": "E6",
          "ticks": 9940,
          "time": 115.5813953488372,
          "velocity": 0.07874015748031496
        },
        {
          "duration": 0.5232558139534831,
          "durationTicks": 45,
          "midi": 79,
          "name": "G5",
          "ticks": 9944,
          "time": 115.62790697674419,
          "velocity": 0.4409448818897638
        },
        {
          "duration": 0.04651162790696617,
          "durationTicks": 4,
          "midi": 55,
          "name": "G3",
          "ticks": 9947,
          "time": 115.66279069767442,
          "velocity": 0.23622047244094488
        },
        {
          "duration": 0.19767441860464885,
          "durationTicks": 17,
          "midi": 60,
          "name": "C4",
          "ticks": 9947,
          "time": 115.66279069767442,
          "velocity": 0.3543307086614173
        },
        {
          "duration": 0.04651162790696617,
          "durationTicks": 4,
          "midi": 70,
          "name": "A#4",
          "ticks": 9947,
          "time": 115.66279069767442,
          "velocity": 0.49606299212598426
        },
        {
          "duration": 0.034883720930224626,
          "durationTicks": 3,
          "midi": 94,
          "name": "A#6",
          "ticks": 9947,
          "time": 115.66279069767442,
          "velocity": 0.08661417322834646
        },
        {
          "duration": 0.023255813953483084,
          "durationTicks": 2,
          "midi": 69,
          "name": "A4",
          "ticks": 9948,
          "time": 115.67441860465117,
          "velocity": 0.4015748031496063
        },
        {
          "duration": 0.023255813953497295,
          "durationTicks": 2,
          "midi": 45,
          "name": "A2",
          "ticks": 9950,
          "time": 115.69767441860465,
          "velocity": 0.3228346456692913
        },
        {
          "duration": 0.09302325581396076,
          "durationTicks": 8,
          "midi": 69,
          "name": "A4",
          "ticks": 9951,
          "time": 115.70930232558139,
          "velocity": 0.47244094488188976
        },
        {
          "duration": 0.06976744186046346,
          "durationTicks": 6,
          "midi": 67,
          "name": "G4",
          "ticks": 9952,
          "time": 115.72093023255815,
          "velocity": 0.36220472440944884
        },
        {
          "duration": 0.04651162790696617,
          "durationTicks": 4,
          "midi": 45,
          "name": "A2",
          "ticks": 9953,
          "time": 115.73255813953489,
          "velocity": 0.31496062992125984
        },
        {
          "duration": 0.023255813953483084,
          "durationTicks": 2,
          "midi": 45,
          "name": "A2",
          "ticks": 9958,
          "time": 115.79069767441861,
          "velocity": 0.2755905511811024
        },
        {
          "duration": 0.5581395348837219,
          "durationTicks": 48,
          "midi": 69,
          "name": "A4",
          "ticks": 9960,
          "time": 115.81395348837209,
          "velocity": 0.4645669291338583
        },
        {
          "duration": 0.023255813953497295,
          "durationTicks": 2,
          "midi": 45,
          "name": "A2",
          "ticks": 9961,
          "time": 115.82558139534883,
          "velocity": 0.28346456692913385
        },
        {
          "duration": 0.04651162790698038,
          "durationTicks": 4,
          "midi": 67,
          "name": "G4",
          "ticks": 9961,
          "time": 115.82558139534883,
          "velocity": 0.25984251968503935
        },
        {
          "duration": 0.023255813953497295,
          "durationTicks": 2,
          "midi": 70,
          "name": "A#4",
          "ticks": 9961,
          "time": 115.82558139534883,
          "velocity": 0.33070866141732286
        },
        {
          "duration": 0.744186046511615,
          "durationTicks": 64,
          "midi": 72,
          "name": "C5",
          "ticks": 9963,
          "time": 115.84883720930233,
          "velocity": 0.4645669291338583
        },
        {
          "duration": 0.4186046511627808,
          "durationTicks": 36,
          "midi": 90,
          "name": "F#6",
          "ticks": 9964,
          "time": 115.86046511627907,
          "velocity": 0.14173228346456693
        },
        {
          "duration": 0.13953488372092693,
          "durationTicks": 12,
          "midi": 96,
          "name": "C7",
          "ticks": 9964,
          "time": 115.86046511627907,
          "velocity": 0.4015748031496063
        },
        {
          "duration": 0.4418604651162781,
          "durationTicks": 38,
          "midi": 60,
          "name": "C4",
          "ticks": 9965,
          "time": 115.87209302325581,
          "velocity": 0.3937007874015748
        },
        {
          "duration": 0.5,
          "durationTicks": 43,
          "midi": 77,
          "name": "F5",
          "ticks": 9965,
          "time": 115.87209302325581,
          "velocity": 0.4566929133858268
        },
        {
          "duration": 0.04651162790698038,
          "durationTicks": 4,
          "midi": 83,
          "name": "B5",
          "ticks": 9965,
          "time": 115.87209302325581,
          "velocity": 0.2047244094488189
        },
        {
          "duration": 0.03488372093023884,
          "durationTicks": 3,
          "midi": 52,
          "name": "E3",
          "ticks": 9966,
          "time": 115.88372093023256,
          "velocity": 0.2440944881889764
        },
        {
          "duration": 0.06976744186046346,
          "durationTicks": 6,
          "midi": 52,
          "name": "E3",
          "ticks": 9970,
          "time": 115.93023255813954,
          "velocity": 0.2440944881889764
        },
        {
          "duration": 0.2093023255813904,
          "durationTicks": 18,
          "midi": 88,
          "name": "E6",
          "ticks": 9970,
          "time": 115.93023255813954,
          "velocity": 0.2047244094488189
        },
        {
          "duration": 0.081395348837205,
          "durationTicks": 7,
          "midi": 83,
          "name": "B5",
          "ticks": 9971,
          "time": 115.94186046511628,
          "velocity": 0.14173228346456693
        },
        {
          "duration": 0.03488372093023884,
          "durationTicks": 3,
          "midi": 52,
          "name": "E3",
          "ticks": 9977,
          "time": 116.01162790697674,
          "velocity": 0.15748031496062992
        },
        {
          "duration": 0.03488372093023884,
          "durationTicks": 3,
          "midi": 83,
          "name": "B5",
          "ticks": 9983,
          "time": 116.0813953488372,
          "velocity": 0.1889763779527559
        },
        {
          "duration": 0.2093023255814046,
          "durationTicks": 18,
          "midi": 96,
          "name": "C7",
          "ticks": 9983,
          "time": 116.0813953488372,
          "velocity": 0.3779527559055118
        },
        {
          "duration": 0.023255813953483084,
          "durationTicks": 2,
          "midi": 45,
          "name": "A2",
          "ticks": 9986,
          "time": 116.11627906976744,
          "velocity": 0.2677165354330709
        },
        {
          "duration": 0.1860465116279073,
          "durationTicks": 16,
          "midi": 83,
          "name": "B5",
          "ticks": 9987,
          "time": 116.12790697674419,
          "velocity": 0.15748031496062992
        },
        {
          "duration": 0.023255813953497295,
          "durationTicks": 2,
          "midi": 45,
          "name": "A2",
          "ticks": 9989,
          "time": 116.15116279069767,
          "velocity": 0.2755905511811024
        },
        {
          "duration": 0.023255813953483084,
          "durationTicks": 2,
          "midi": 44,
          "name": "G#2",
          "ticks": 9991,
          "time": 116.17441860465117,
          "velocity": 0.29133858267716534
        },
        {
          "duration": 0.03488372093023884,
          "durationTicks": 3,
          "midi": 45,
          "name": "A2",
          "ticks": 9993,
          "time": 116.19767441860465,
          "velocity": 0.25984251968503935
        },
        {
          "duration": 0.03488372093023884,
          "durationTicks": 3,
          "midi": 65,
          "name": "F4",
          "ticks": 10003,
          "time": 116.31395348837209,
          "velocity": 0.29133858267716534
        },
        {
          "duration": 0.46511627906976116,
          "durationTicks": 40,
          "midi": 79,
          "name": "G5",
          "ticks": 10003,
          "time": 116.31395348837209,
          "velocity": 0.3700787401574803
        },
        {
          "duration": 0.27906976744185386,
          "durationTicks": 24,
          "midi": 90,
          "name": "F#6",
          "ticks": 10003,
          "time": 116.31395348837209,
          "velocity": 0.11811023622047244
        },
        {
          "duration": 0.12790697674418539,
          "durationTicks": 11,
          "midi": 94,
          "name": "A#6",
          "ticks": 10003,
          "time": 116.31395348837209,
          "velocity": 0.4015748031496063
        },
        {
          "duration": 0.3139534883720927,
          "durationTicks": 27,
          "midi": 82,
          "name": "A#5",
          "ticks": 10004,
          "time": 116.32558139534883,
          "velocity": 0.3858267716535433
        },
        {
          "duration": 0.22093023255814614,
          "durationTicks": 19,
          "midi": 67,
          "name": "G4",
          "ticks": 10005,
          "time": 116.33720930232558,
          "velocity": 0.3779527559055118
        },
        {
          "duration": 0.12790697674418539,
          "durationTicks": 11,
          "midi": 60,
          "name": "C4",
          "ticks": 10006,
          "time": 116.34883720930233,
          "velocity": 0.33070866141732286
        },
        {
          "duration": 0.22093023255813193,
          "durationTicks": 19,
          "midi": 64,
          "name": "E4",
          "ticks": 10006,
          "time": 116.34883720930233,
          "velocity": 0.31496062992125984
        },
        {
          "duration": 0.034883720930224626,
          "durationTicks": 3,
          "midi": 95,
          "name": "B6",
          "ticks": 10006,
          "time": 116.34883720930233,
          "velocity": 0.11023622047244094
        },
        {
          "duration": 0.034883720930224626,
          "durationTicks": 3,
          "midi": 52,
          "name": "E3",
          "ticks": 10007,
          "time": 116.36046511627907,
          "velocity": 0.1968503937007874
        },
        {
          "duration": 0.36046511627905886,
          "durationTicks": 31,
          "midi": 69,
          "name": "A4",
          "ticks": 10011,
          "time": 116.40697674418605,
          "velocity": 0.33070866141732286
        },
        {
          "duration": 0.04651162790696617,
          "durationTicks": 4,
          "midi": 52,
          "name": "E3",
          "ticks": 10012,
          "time": 116.4186046511628,
          "velocity": 0.1889763779527559
        },
        {
          "duration": 0.03488372093023884,
          "durationTicks": 3,
          "midi": 57,
          "name": "A3",
          "ticks": 10016,
          "time": 116.46511627906976,
          "velocity": 0.25984251968503935
        },
        {
          "duration": 0.03488372093023884,
          "durationTicks": 3,
          "midi": 57,
          "name": "A3",
          "ticks": 10020,
          "time": 116.51162790697674,
          "velocity": 0.25984251968503935
        },
        {
          "duration": 0.023255813953483084,
          "durationTicks": 2,
          "midi": 60,
          "name": "C4",
          "ticks": 10022,
          "time": 116.53488372093024,
          "velocity": 0.3228346456692913
        },
        {
          "duration": 1.1511627906976685,
          "durationTicks": 99,
          "midi": 74,
          "name": "D5",
          "ticks": 10023,
          "time": 116.54651162790698,
          "velocity": 0.31496062992125984
        },
        {
          "duration": 0.22093023255813193,
          "durationTicks": 19,
          "midi": 57,
          "name": "A3",
          "ticks": 10024,
          "time": 116.55813953488372,
          "velocity": 0.29133858267716534
        },
        {
          "duration": 0.12790697674418539,
          "durationTicks": 11,
          "midi": 85,
          "name": "C#6",
          "ticks": 10024,
          "time": 116.55813953488372,
          "velocity": 0.11023622047244094
        },
        {
          "duration": 1.418604651162795,
          "durationTicks": 122,
          "midi": 62,
          "name": "D4",
          "ticks": 10025,
          "time": 116.56976744186046,
          "velocity": 0.3858267716535433
        },
        {
          "duration": 0.3720930232558146,
          "durationTicks": 32,
          "midi": 65,
          "name": "F4",
          "ticks": 10025,
          "time": 116.56976744186046,
          "velocity": 0.3937007874015748
        },
        {
          "duration": 0.03488372093023884,
          "durationTicks": 3,
          "midi": 39,
          "name": "D#2",
          "ticks": 10026,
          "time": 116.5813953488372,
          "velocity": 0.14173228346456693
        },
        {
          "duration": 0.13953488372094114,
          "durationTicks": 12,
          "midi": 50,
          "name": "D3",
          "ticks": 10026,
          "time": 116.5813953488372,
          "velocity": 0.2283464566929134
        },
        {
          "duration": 0.16279069767441,
          "durationTicks": 14,
          "midi": 38,
          "name": "D2",
          "ticks": 10029,
          "time": 116.61627906976744,
          "velocity": 0.1732283464566929
        },
        {
          "duration": 0.04651162790698038,
          "durationTicks": 4,
          "midi": 72,
          "name": "C5",
          "ticks": 10031,
          "time": 116.63953488372093,
          "velocity": 0.08661417322834646
        },
        {
          "duration": 0.1860465116279073,
          "durationTicks": 16,
          "midi": 96,
          "name": "C7",
          "ticks": 10042,
          "time": 116.76744186046511,
          "velocity": 0.3779527559055118
        },
        {
          "duration": 0.1860465116279073,
          "durationTicks": 16,
          "midi": 93,
          "name": "A6",
          "ticks": 10043,
          "time": 116.77906976744185,
          "velocity": 0.2440944881889764
        },
        {
          "duration": 0.6279069767441854,
          "durationTicks": 54,
          "midi": 79,
          "name": "G5",
          "ticks": 10044,
          "time": 116.79069767441861,
          "velocity": 0.4251968503937008
        },
        {
          "duration": 0.5697674418604635,
          "durationTicks": 49,
          "midi": 87,
          "name": "D#6",
          "ticks": 10044,
          "time": 116.79069767441861,
          "velocity": 0.10236220472440945
        },
        {
          "duration": 0.43023255813953654,
          "durationTicks": 37,
          "midi": 57,
          "name": "A3",
          "ticks": 10045,
          "time": 116.80232558139535,
          "velocity": 0.2677165354330709
        },
        {
          "duration": 0.11627906976744384,
          "durationTicks": 10,
          "midi": 69,
          "name": "A4",
          "ticks": 10045,
          "time": 116.80232558139535,
          "velocity": 0.28346456692913385
        },
        {
          "duration": 0.418604651162795,
          "durationTicks": 36,
          "midi": 88,
          "name": "E6",
          "ticks": 10045,
          "time": 116.80232558139535,
          "velocity": 0.15748031496062992
        },
        {
          "duration": 0.023255813953483084,
          "durationTicks": 2,
          "midi": 53,
          "name": "F3",
          "ticks": 10046,
          "time": 116.81395348837209,
          "velocity": 0.25196850393700787
        },
        {
          "duration": 0.24418604651162923,
          "durationTicks": 21,
          "midi": 85,
          "name": "C#6",
          "ticks": 10046,
          "time": 116.81395348837209,
          "velocity": 0.11023622047244094
        },
        {
          "duration": 0.081395348837205,
          "durationTicks": 7,
          "midi": 72,
          "name": "C5",
          "ticks": 10049,
          "time": 116.84883720930233,
          "velocity": 0.1732283464566929
        },
        {
          "duration": 0.04651162790698038,
          "durationTicks": 4,
          "midi": 53,
          "name": "F3",
          "ticks": 10050,
          "time": 116.86046511627907,
          "velocity": 0.2992125984251969
        },
        {
          "duration": 0.3720930232558146,
          "durationTicks": 32,
          "midi": 82,
          "name": "A#5",
          "ticks": 10052,
          "time": 116.88372093023256,
          "velocity": 0.3858267716535433
        },
        {
          "duration": 0.13953488372092693,
          "durationTicks": 12,
          "midi": 94,
          "name": "A#6",
          "ticks": 10052,
          "time": 116.88372093023256,
          "velocity": 0.4094488188976378
        },
        {
          "duration": 0.05813953488372192,
          "durationTicks": 5,
          "midi": 67,
          "name": "G4",
          "ticks": 10056,
          "time": 116.93023255813954,
          "velocity": 0.36220472440944884
        },
        {
          "duration": 0.16279069767441,
          "durationTicks": 14,
          "midi": 65,
          "name": "F4",
          "ticks": 10060,
          "time": 116.97674418604652,
          "velocity": 0.33858267716535434
        },
        {
          "duration": 2.081395348837205,
          "durationTicks": 179,
          "midi": 69,
          "name": "A4",
          "ticks": 10060,
          "time": 116.97674418604652,
          "velocity": 0.3464566929133858
        },
        {
          "duration": 0.16279069767441,
          "durationTicks": 14,
          "midi": 93,
          "name": "A6",
          "ticks": 10061,
          "time": 116.98837209302326,
          "velocity": 0.3464566929133858
        },
        {
          "duration": 0.04651162790698038,
          "durationTicks": 4,
          "midi": 90,
          "name": "F#6",
          "ticks": 10062,
          "time": 117,
          "velocity": 0.07086614173228346
        },
        {
          "duration": 0.22093023255814614,
          "durationTicks": 19,
          "midi": 72,
          "name": "C5",
          "ticks": 10063,
          "time": 117.01162790697674,
          "velocity": 0.15748031496062992
        },
        {
          "duration": 0.12790697674418539,
          "durationTicks": 11,
          "midi": 67,
          "name": "G4",
          "ticks": 10064,
          "time": 117.02325581395348,
          "velocity": 0.30708661417322836
        },
        {
          "duration": 0.023255813953483084,
          "durationTicks": 2,
          "midi": 50,
          "name": "D3",
          "ticks": 10065,
          "time": 117.03488372093024,
          "velocity": 0.2755905511811024
        },
        {
          "duration": 0.2093023255813904,
          "durationTicks": 18,
          "midi": 38,
          "name": "D2",
          "ticks": 10066,
          "time": 117.04651162790698,
          "velocity": 0.1732283464566929
        },
        {
          "duration": 0.023255813953483084,
          "durationTicks": 2,
          "midi": 50,
          "name": "D3",
          "ticks": 10068,
          "time": 117.06976744186046,
          "velocity": 0.2440944881889764
        },
        {
          "duration": 0.023255813953483084,
          "durationTicks": 2,
          "midi": 50,
          "name": "D3",
          "ticks": 10071,
          "time": 117.1046511627907,
          "velocity": 0.25196850393700787
        },
        {
          "duration": 0.023255813953497295,
          "durationTicks": 2,
          "midi": 50,
          "name": "D3",
          "ticks": 10074,
          "time": 117.13953488372093,
          "velocity": 0.25984251968503935
        },
        {
          "duration": 0.03488372093023884,
          "durationTicks": 3,
          "midi": 65,
          "name": "F4",
          "ticks": 10075,
          "time": 117.15116279069767,
          "velocity": 0.14173228346456693
        },
        {
          "duration": 0.09302325581394655,
          "durationTicks": 8,
          "midi": 67,
          "name": "G4",
          "ticks": 10076,
          "time": 117.16279069767442,
          "velocity": 0.23622047244094488
        },
        {
          "duration": 0.023255813953483084,
          "durationTicks": 2,
          "midi": 50,
          "name": "D3",
          "ticks": 10077,
          "time": 117.17441860465117,
          "velocity": 0.25196850393700787
        },
        {
          "duration": 0.08139534883721922,
          "durationTicks": 7,
          "midi": 50,
          "name": "D3",
          "ticks": 10080,
          "time": 117.20930232558139,
          "velocity": 0.29133858267716534
        },
        {
          "duration": 0.4534883720930196,
          "durationTicks": 39,
          "midi": 57,
          "name": "A3",
          "ticks": 10083,
          "time": 117.24418604651163,
          "velocity": 0.23622047244094488
        },
        {
          "duration": 0.4418604651162781,
          "durationTicks": 38,
          "midi": 65,
          "name": "F4",
          "ticks": 10083,
          "time": 117.24418604651163,
          "velocity": 0.2992125984251969
        },
        {
          "duration": 0.06976744186046346,
          "durationTicks": 6,
          "midi": 72,
          "name": "C5",
          "ticks": 10087,
          "time": 117.29069767441861,
          "velocity": 0.16535433070866143
        },
        {
          "duration": 0.19767441860464885,
          "durationTicks": 17,
          "midi": 88,
          "name": "E6",
          "ticks": 10087,
          "time": 117.29069767441861,
          "velocity": 0.08661417322834646
        },
        {
          "duration": 0.15116279069768268,
          "durationTicks": 13,
          "midi": 50,
          "name": "D3",
          "ticks": 10090,
          "time": 117.32558139534883,
          "velocity": 0.31496062992125984
        },
        {
          "duration": 0.05813953488372192,
          "durationTicks": 5,
          "midi": 72,
          "name": "C5",
          "ticks": 10096,
          "time": 117.3953488372093,
          "velocity": 0.13385826771653545
        },
        {
          "duration": 0.2093023255813904,
          "durationTicks": 18,
          "midi": 50,
          "name": "D3",
          "ticks": 10104,
          "time": 117.48837209302326,
          "velocity": 0.28346456692913385
        },
        {
          "duration": 0.081395348837205,
          "durationTicks": 7,
          "midi": 72,
          "name": "C5",
          "ticks": 10104,
          "time": 117.48837209302326,
          "velocity": 0.2283464566929134
        },
        {
          "duration": 0.19767441860464885,
          "durationTicks": 17,
          "midi": 38,
          "name": "D2",
          "ticks": 10105,
          "time": 117.5,
          "velocity": 0.14173228346456693
        },
        {
          "duration": 0.09302325581396076,
          "durationTicks": 8,
          "midi": 72,
          "name": "C5",
          "ticks": 10112,
          "time": 117.5813953488372,
          "velocity": 0.1968503937007874
        },
        {
          "duration": 0.023255813953483084,
          "durationTicks": 2,
          "midi": 66,
          "name": "F#4",
          "ticks": 10121,
          "time": 117.68604651162791,
          "velocity": 0.2440944881889764
        },
        {
          "duration": 0.4534883720930196,
          "durationTicks": 39,
          "midi": 72,
          "name": "C5",
          "ticks": 10121,
          "time": 117.68604651162791,
          "velocity": 0.1889763779527559
        },
        {
          "duration": 0.6627906976744242,
          "durationTicks": 57,
          "midi": 57,
          "name": "A3",
          "ticks": 10123,
          "time": 117.70930232558139,
          "velocity": 0.29133858267716534
        },
        {
          "duration": 0.43023255813953654,
          "durationTicks": 37,
          "midi": 65,
          "name": "F4",
          "ticks": 10123,
          "time": 117.70930232558139,
          "velocity": 0.30708661417322836
        },
        {
          "duration": 0.04651162790698038,
          "durationTicks": 4,
          "midi": 91,
          "name": "G6",
          "ticks": 10123,
          "time": 117.70930232558139,
          "velocity": 0.07086614173228346
        },
        {
          "duration": 0.034883720930224626,
          "durationTicks": 3,
          "midi": 53,
          "name": "F3",
          "ticks": 10124,
          "time": 117.72093023255815,
          "velocity": 0.2283464566929134
        },
        {
          "duration": 0.034883720930224626,
          "durationTicks": 3,
          "midi": 85,
          "name": "C#6",
          "ticks": 10124,
          "time": 117.72093023255815,
          "velocity": 0.08661417322834646
        },
        {
          "duration": 0.22093023255813193,
          "durationTicks": 19,
          "midi": 88,
          "name": "E6",
          "ticks": 10126,
          "time": 117.74418604651163,
          "velocity": 0.07086614173228346
        },
        {
          "duration": 0.05813953488372192,
          "durationTicks": 5,
          "midi": 53,
          "name": "F3",
          "ticks": 10128,
          "time": 117.76744186046511,
          "velocity": 0.2440944881889764
        },
        {
          "duration": 0.04651162790698038,
          "durationTicks": 4,
          "midi": 53,
          "name": "F3",
          "ticks": 10134,
          "time": 117.83720930232558,
          "velocity": 0.15748031496062992
        },
        {
          "duration": 0.2093023255814046,
          "durationTicks": 18,
          "midi": 38,
          "name": "D2",
          "ticks": 10144,
          "time": 117.95348837209302,
          "velocity": 0.16535433070866143
        },
        {
          "duration": 0.034883720930224626,
          "durationTicks": 3,
          "midi": 53,
          "name": "F3",
          "ticks": 10147,
          "time": 117.98837209302326,
          "velocity": 0.13385826771653545
        },
        {
          "duration": 0.06976744186046346,
          "durationTicks": 6,
          "midi": 53,
          "name": "F3",
          "ticks": 10151,
          "time": 118.03488372093024,
          "velocity": 0.12598425196850394
        },
        {
          "duration": 0.24418604651162923,
          "durationTicks": 21,
          "midi": 62,
          "name": "D4",
          "ticks": 10159,
          "time": 118.12790697674419,
          "velocity": 0.2992125984251969
        },
        {
          "duration": 0.22093023255814614,
          "durationTicks": 19,
          "midi": 74,
          "name": "D5",
          "ticks": 10160,
          "time": 118.13953488372093,
          "velocity": 0.30708661417322836
        },
        {
          "duration": 0.22093023255814614,
          "durationTicks": 19,
          "midi": 77,
          "name": "F5",
          "ticks": 10161,
          "time": 118.15116279069767,
          "velocity": 0.18110236220472442
        },
        {
          "duration": 0.12790697674418539,
          "durationTicks": 11,
          "midi": 53,
          "name": "F3",
          "ticks": 10163,
          "time": 118.17441860465117,
          "velocity": 0.31496062992125984
        },
        {
          "duration": 0.05813953488372192,
          "durationTicks": 5,
          "midi": 72,
          "name": "C5",
          "ticks": 10163,
          "time": 118.17441860465117,
          "velocity": 0.18110236220472442
        },
        {
          "duration": 0.2906976744186096,
          "durationTicks": 25,
          "midi": 88,
          "name": "E6",
          "ticks": 10165,
          "time": 118.19767441860465,
          "velocity": 0.10236220472440945
        },
        {
          "duration": 0.05813953488372192,
          "durationTicks": 5,
          "midi": 72,
          "name": "C5",
          "ticks": 10172,
          "time": 118.27906976744185,
          "velocity": 0.11811023622047244
        },
        {
          "duration": 0.46511627906976116,
          "durationTicks": 40,
          "midi": 72,
          "name": "C5",
          "ticks": 10180,
          "time": 118.37209302325581,
          "velocity": 0.4330708661417323
        },
        {
          "duration": 0.3720930232558146,
          "durationTicks": 32,
          "midi": 76,
          "name": "E5",
          "ticks": 10180,
          "time": 118.37209302325581,
          "velocity": 0.23622047244094488
        },
        {
          "duration": 0.2093023255813904,
          "durationTicks": 18,
          "midi": 60,
          "name": "C4",
          "ticks": 10181,
          "time": 118.38372093023256,
          "velocity": 0.33858267716535434
        },
        {
          "duration": 0.22093023255814614,
          "durationTicks": 19,
          "midi": 64,
          "name": "E4",
          "ticks": 10181,
          "time": 118.38372093023256,
          "velocity": 0.33070866141732286
        },
        {
          "duration": 0.2906976744186096,
          "durationTicks": 25,
          "midi": 74,
          "name": "D5",
          "ticks": 10181,
          "time": 118.38372093023256,
          "velocity": 0.1889763779527559
        },
        {
          "duration": 0.15116279069768268,
          "durationTicks": 13,
          "midi": 83,
          "name": "B5",
          "ticks": 10181,
          "time": 118.38372093023256,
          "velocity": 0.14960629921259844
        },
        {
          "duration": 0.04651162790698038,
          "durationTicks": 4,
          "midi": 91,
          "name": "G6",
          "ticks": 10182,
          "time": 118.3953488372093,
          "velocity": 0.09448818897637795
        },
        {
          "duration": 0.034883720930224626,
          "durationTicks": 3,
          "midi": 48,
          "name": "C3",
          "ticks": 10185,
          "time": 118.43023255813954,
          "velocity": 0.1968503937007874
        },
        {
          "duration": 0.06976744186046346,
          "durationTicks": 6,
          "midi": 48,
          "name": "C3",
          "ticks": 10198,
          "time": 118.5813953488372,
          "velocity": 0.2992125984251969
        },
        {
          "duration": 0.255813953488385,
          "durationTicks": 22,
          "midi": 88,
          "name": "E6",
          "ticks": 10199,
          "time": 118.59302325581395,
          "velocity": 0.2440944881889764
        },
        {
          "duration": 0.05813953488372192,
          "durationTicks": 5,
          "midi": 60,
          "name": "C4",
          "ticks": 10200,
          "time": 118.6046511627907,
          "velocity": 0.31496062992125984
        },
        {
          "duration": 0.418604651162795,
          "durationTicks": 36,
          "midi": 64,
          "name": "E4",
          "ticks": 10202,
          "time": 118.62790697674419,
          "velocity": 0.2677165354330709
        },
        {
          "duration": 0.10465116279068809,
          "durationTicks": 9,
          "midi": 57,
          "name": "A3",
          "ticks": 10206,
          "time": 118.67441860465117,
          "velocity": 0.25196850393700787
        },
        {
          "duration": 0.05813953488372192,
          "durationTicks": 5,
          "midi": 86,
          "name": "D6",
          "ticks": 10206,
          "time": 118.67441860465117,
          "velocity": 0.07874015748031496
        },
        {
          "duration": 0.04651162790698038,
          "durationTicks": 4,
          "midi": 52,
          "name": "E3",
          "ticks": 10208,
          "time": 118.69767441860465,
          "velocity": 0.25984251968503935
        },
        {
          "duration": 0.06976744186046346,
          "durationTicks": 6,
          "midi": 48,
          "name": "C3",
          "ticks": 10213,
          "time": 118.75581395348837,
          "velocity": 0.2125984251968504
        },
        {
          "duration": 0.05813953488372192,
          "durationTicks": 5,
          "midi": 57,
          "name": "A3",
          "ticks": 10216,
          "time": 118.79069767441861,
          "velocity": 0.2283464566929134
        },
        {
          "duration": 0.023255813953497295,
          "durationTicks": 2,
          "midi": 47,
          "name": "B2",
          "ticks": 10219,
          "time": 118.82558139534883,
          "velocity": 0.25196850393700787
        },
        {
          "duration": 0.034883720930224626,
          "durationTicks": 3,
          "midi": 67,
          "name": "G4",
          "ticks": 10221,
          "time": 118.84883720930233,
          "velocity": 0.13385826771653545
        },
        {
          "duration": 0.1860465116279073,
          "durationTicks": 16,
          "midi": 57,
          "name": "A3",
          "ticks": 10222,
          "time": 118.86046511627907,
          "velocity": 0.2125984251968504
        },
        {
          "duration": 0.06976744186046346,
          "durationTicks": 6,
          "midi": 60,
          "name": "C4",
          "ticks": 10222,
          "time": 118.86046511627907,
          "velocity": 0.1732283464566929
        },
        {
          "duration": 0.03488372093023884,
          "durationTicks": 3,
          "midi": 88,
          "name": "E6",
          "ticks": 10223,
          "time": 118.87209302325581,
          "velocity": 0.07086614173228346
        },
        {
          "duration": 0.11627906976744384,
          "durationTicks": 10,
          "midi": 67,
          "name": "G4",
          "ticks": 10225,
          "time": 118.8953488372093,
          "velocity": 0.13385826771653545
        },
        {
          "duration": 0.8255813953488342,
          "durationTicks": 71,
          "midi": 72,
          "name": "C5",
          "ticks": 10229,
          "time": 118.94186046511628,
          "velocity": 0.30708661417322836
        },
        {
          "duration": 0.04651162790698038,
          "durationTicks": 4,
          "midi": 52,
          "name": "E3",
          "ticks": 10231,
          "time": 118.96511627906976,
          "velocity": 0.13385826771653545
        },
        {
          "duration": 0.04651162790698038,
          "durationTicks": 4,
          "midi": 52,
          "name": "E3",
          "ticks": 10236,
          "time": 119.02325581395348,
          "velocity": 0.2047244094488189
        },
        {
          "duration": 0.24418604651162923,
          "durationTicks": 21,
          "midi": 60,
          "name": "C4",
          "ticks": 10238,
          "time": 119.04651162790698,
          "velocity": 0.3464566929133858
        },
        {
          "duration": 0.23255813953487348,
          "durationTicks": 20,
          "midi": 67,
          "name": "G4",
          "ticks": 10238,
          "time": 119.04651162790698,
          "velocity": 0.2440944881889764
        },
        {
          "duration": 0.19767441860464885,
          "durationTicks": 17,
          "midi": 64,
          "name": "E4",
          "ticks": 10239,
          "time": 119.05813953488372,
          "velocity": 0.28346456692913385
        },
        {
          "duration": 0.09302325581394655,
          "durationTicks": 8,
          "midi": 90,
          "name": "F#6",
          "ticks": 10239,
          "time": 119.05813953488372,
          "velocity": 0.08661417322834646
        },
        {
          "duration": 0.13953488372092693,
          "durationTicks": 12,
          "midi": 91,
          "name": "G6",
          "ticks": 10239,
          "time": 119.05813953488372,
          "velocity": 0.11811023622047244
        },
        {
          "duration": 0.04651162790698038,
          "durationTicks": 4,
          "midi": 83,
          "name": "B5",
          "ticks": 10240,
          "time": 119.06976744186046,
          "velocity": 0.07874015748031496
        },
        {
          "duration": 0.13953488372092693,
          "durationTicks": 12,
          "midi": 86,
          "name": "D6",
          "ticks": 10240,
          "time": 119.06976744186046,
          "velocity": 0.14960629921259844
        },
        {
          "duration": 0.03488372093023884,
          "durationTicks": 3,
          "midi": 52,
          "name": "E3",
          "ticks": 10242,
          "time": 119.09302325581395,
          "velocity": 0.2047244094488189
        },
        {
          "duration": 0.10465116279068809,
          "durationTicks": 9,
          "midi": 82,
          "name": "A#5",
          "ticks": 10243,
          "time": 119.1046511627907,
          "velocity": 0.07874015748031496
        },
        {
          "duration": 0.3372093023255758,
          "durationTicks": 29,
          "midi": 57,
          "name": "A3",
          "ticks": 10249,
          "time": 119.17441860465117,
          "velocity": 0.25984251968503935
        },
        {
          "duration": 0.2674418604651265,
          "durationTicks": 23,
          "midi": 77,
          "name": "F5",
          "ticks": 10258,
          "time": 119.27906976744185,
          "velocity": 0.36220472440944884
        },
        {
          "duration": 0.2674418604651123,
          "durationTicks": 23,
          "midi": 65,
          "name": "F4",
          "ticks": 10259,
          "time": 119.29069767441861,
          "velocity": 0.33070866141732286
        },
        {
          "duration": 0.12790697674418539,
          "durationTicks": 11,
          "midi": 82,
          "name": "A#5",
          "ticks": 10259,
          "time": 119.29069767441861,
          "velocity": 0.12598425196850394
        },
        {
          "duration": 0.06976744186046346,
          "durationTicks": 6,
          "midi": 91,
          "name": "G6",
          "ticks": 10265,
          "time": 119.36046511627907,
          "velocity": 0.07086614173228346
        },
        {
          "duration": 0.04651162790698038,
          "durationTicks": 4,
          "midi": 53,
          "name": "F3",
          "ticks": 10277,
          "time": 119.5,
          "velocity": 0.13385826771653545
        },
        {
          "duration": 0.12790697674418539,
          "durationTicks": 11,
          "midi": 81,
          "name": "A5",
          "ticks": 10278,
          "time": 119.51162790697674,
          "velocity": 0.11811023622047244
        },
        {
          "duration": 0.22093023255814614,
          "durationTicks": 19,
          "midi": 90,
          "name": "F#6",
          "ticks": 10278,
          "time": 119.51162790697674,
          "velocity": 0.14173228346456693
        },
        {
          "duration": 0.13953488372092693,
          "durationTicks": 12,
          "midi": 91,
          "name": "G6",
          "ticks": 10278,
          "time": 119.51162790697674,
          "velocity": 0.07086614173228346
        },
        {
          "duration": 0.03488372093023884,
          "durationTicks": 3,
          "midi": 57,
          "name": "A3",
          "ticks": 10279,
          "time": 119.52325581395348,
          "velocity": 0.1889763779527559
        },
        {
          "duration": 0.3720930232558146,
          "durationTicks": 32,
          "midi": 79,
          "name": "G5",
          "ticks": 10279,
          "time": 119.52325581395348,
          "velocity": 0.11811023622047244
        },
        {
          "duration": 0.48837209302325846,
          "durationTicks": 42,
          "midi": 88,
          "name": "E6",
          "ticks": 10279,
          "time": 119.52325581395348,
          "velocity": 0.1732283464566929
        },
        {
          "duration": 0.04651162790698038,
          "durationTicks": 4,
          "midi": 95,
          "name": "B6",
          "ticks": 10279,
          "time": 119.52325581395348,
          "velocity": 0.09448818897637795
        },
        {
          "duration": 0.05813953488370771,
          "durationTicks": 5,
          "midi": 67,
          "name": "G4",
          "ticks": 10280,
          "time": 119.53488372093024,
          "velocity": 0.2440944881889764
        },
        {
          "duration": 0.17441860465115155,
          "durationTicks": 15,
          "midi": 76,
          "name": "E5",
          "ticks": 10280,
          "time": 119.53488372093024,
          "velocity": 0.1968503937007874
        },
        {
          "duration": 0.05813953488372192,
          "durationTicks": 5,
          "midi": 86,
          "name": "D6",
          "ticks": 10281,
          "time": 119.54651162790698,
          "velocity": 0.11023622047244094
        },
        {
          "duration": 0.2093023255813904,
          "durationTicks": 18,
          "midi": 89,
          "name": "F6",
          "ticks": 10281,
          "time": 119.54651162790698,
          "velocity": 0.11023622047244094
        },
        {
          "duration": 0.04651162790698038,
          "durationTicks": 4,
          "midi": 64,
          "name": "E4",
          "ticks": 10282,
          "time": 119.55813953488372,
          "velocity": 0.28346456692913385
        },
        {
          "duration": 0.13953488372092693,
          "durationTicks": 12,
          "midi": 57,
          "name": "A3",
          "ticks": 10283,
          "time": 119.56976744186046,
          "velocity": 0.2440944881889764
        },
        {
          "duration": 0.05813953488372192,
          "durationTicks": 5,
          "midi": 67,
          "name": "G4",
          "ticks": 10286,
          "time": 119.6046511627907,
          "velocity": 0.16535433070866143
        },
        {
          "duration": 0.081395348837205,
          "durationTicks": 7,
          "midi": 65,
          "name": "F4",
          "ticks": 10288,
          "time": 119.62790697674419,
          "velocity": 0.2440944881889764
        },
        {
          "duration": 0.08139534883721922,
          "durationTicks": 7,
          "midi": 48,
          "name": "C3",
          "ticks": 10289,
          "time": 119.63953488372093,
          "velocity": 0.07086614173228346
        },
        {
          "duration": 0.05813953488372192,
          "durationTicks": 5,
          "midi": 82,
          "name": "A#5",
          "ticks": 10292,
          "time": 119.67441860465117,
          "velocity": 0.11811023622047244
        },
        {
          "duration": 0.34883720930233153,
          "durationTicks": 30,
          "midi": 81,
          "name": "A5",
          "ticks": 10294,
          "time": 119.69767441860465,
          "velocity": 0.33070866141732286
        },
        {
          "duration": 0.034883720930224626,
          "durationTicks": 3,
          "midi": 57,
          "name": "A3",
          "ticks": 10296,
          "time": 119.72093023255815,
          "velocity": 0.1732283464566929
        },
        {
          "duration": 0.09302325581394655,
          "durationTicks": 8,
          "midi": 65,
          "name": "F4",
          "ticks": 10296,
          "time": 119.72093023255815,
          "velocity": 0.23622047244094488
        },
        {
          "duration": 0.4534883720930196,
          "durationTicks": 39,
          "midi": 69,
          "name": "A4",
          "ticks": 10297,
          "time": 119.73255813953489,
          "velocity": 0.3464566929133858
        },
        {
          "duration": 0.3372093023255758,
          "durationTicks": 29,
          "midi": 76,
          "name": "E5",
          "ticks": 10297,
          "time": 119.73255813953489,
          "velocity": 0.25984251968503935
        },
        {
          "duration": 0.034883720930224626,
          "durationTicks": 3,
          "midi": 48,
          "name": "C3",
          "ticks": 10298,
          "time": 119.74418604651163,
          "velocity": 0.25984251968503935
        },
        {
          "duration": 0.13953488372092693,
          "durationTicks": 12,
          "midi": 83,
          "name": "B5",
          "ticks": 10299,
          "time": 119.75581395348837,
          "velocity": 0.08661417322834646
        },
        {
          "duration": 0.03488372093023884,
          "durationTicks": 3,
          "midi": 90,
          "name": "F#6",
          "ticks": 10299,
          "time": 119.75581395348837,
          "velocity": 0.10236220472440945
        },
        {
          "duration": 0.418604651162795,
          "durationTicks": 36,
          "midi": 72,
          "name": "C5",
          "ticks": 10301,
          "time": 119.77906976744185,
          "velocity": 0.33858267716535434
        },
        {
          "duration": 0.25581395348837077,
          "durationTicks": 22,
          "midi": 48,
          "name": "C3",
          "ticks": 10302,
          "time": 119.79069767441861,
          "velocity": 0.33070866141732286
        },
        {
          "duration": 0.17441860465116577,
          "durationTicks": 15,
          "midi": 57,
          "name": "A3",
          "ticks": 10303,
          "time": 119.80232558139535,
          "velocity": 0.1968503937007874
        },
        {
          "duration": 0.03488372093023884,
          "durationTicks": 3,
          "midi": 90,
          "name": "F#6",
          "ticks": 10305,
          "time": 119.82558139534883,
          "velocity": 0.11023622047244094
        },
        {
          "duration": 0.023255813953497295,
          "durationTicks": 2,
          "midi": 65,
          "name": "F4",
          "ticks": 10306,
          "time": 119.83720930232558,
          "velocity": 0.2283464566929134
        },
        {
          "duration": 0.03488372093023884,
          "durationTicks": 3,
          "midi": 90,
          "name": "F#6",
          "ticks": 10311,
          "time": 119.8953488372093,
          "velocity": 0.09448818897637795
        },
        {
          "duration": 0.04651162790696617,
          "durationTicks": 4,
          "midi": 65,
          "name": "F4",
          "ticks": 10313,
          "time": 119.9186046511628,
          "velocity": 0.14960629921259844
        },
        {
          "duration": 0.25581395348837077,
          "durationTicks": 22,
          "midi": 90,
          "name": "F#6",
          "ticks": 10316,
          "time": 119.95348837209302,
          "velocity": 0.16535433070866143
        },
        {
          "duration": 0.3953488372093119,
          "durationTicks": 34,
          "midi": 91,
          "name": "G6",
          "ticks": 10316,
          "time": 119.95348837209302,
          "velocity": 0.13385826771653545
        },
        {
          "duration": 0.22093023255814614,
          "durationTicks": 19,
          "midi": 64,
          "name": "E4",
          "ticks": 10317,
          "time": 119.96511627906976,
          "velocity": 0.30708661417322836
        },
        {
          "duration": 0.19767441860466306,
          "durationTicks": 17,
          "midi": 86,
          "name": "D6",
          "ticks": 10317,
          "time": 119.96511627906976,
          "velocity": 0.14960629921259844
        },
        {
          "duration": 0.10465116279068809,
          "durationTicks": 9,
          "midi": 83,
          "name": "B5",
          "ticks": 10318,
          "time": 119.97674418604652,
          "velocity": 0.11023622047244094
        },
        {
          "duration": 0.034883720930224626,
          "durationTicks": 3,
          "midi": 57,
          "name": "A3",
          "ticks": 10323,
          "time": 120.03488372093024,
          "velocity": 0.1889763779527559
        },
        {
          "duration": 0.04651162790696617,
          "durationTicks": 4,
          "midi": 67,
          "name": "G4",
          "ticks": 10323,
          "time": 120.03488372093024,
          "velocity": 0.1889763779527559
        },
        {
          "duration": 0.04651162790696617,
          "durationTicks": 4,
          "midi": 82,
          "name": "A#5",
          "ticks": 10323,
          "time": 120.03488372093024,
          "velocity": 0.13385826771653545
        },
        {
          "duration": 0.13953488372092693,
          "durationTicks": 12,
          "midi": 48,
          "name": "C3",
          "ticks": 10325,
          "time": 120.05813953488372,
          "velocity": 0.2677165354330709
        },
        {
          "duration": 0.03488372093023884,
          "durationTicks": 3,
          "midi": 57,
          "name": "A3",
          "ticks": 10327,
          "time": 120.0813953488372,
          "velocity": 0.14960629921259844
        },
        {
          "duration": 0.03488372093023884,
          "durationTicks": 3,
          "midi": 67,
          "name": "G4",
          "ticks": 10332,
          "time": 120.13953488372093,
          "velocity": 0.1732283464566929
        },
        {
          "duration": 1.604651162790688,
          "durationTicks": 138,
          "midi": 74,
          "name": "D5",
          "ticks": 10335,
          "time": 120.17441860465117,
          "velocity": 0.3937007874015748
        },
        {
          "duration": 0.4534883720930196,
          "durationTicks": 39,
          "midi": 67,
          "name": "G4",
          "ticks": 10336,
          "time": 120.18604651162791,
          "velocity": 0.48031496062992124
        },
        {
          "duration": 0.5,
          "durationTicks": 43,
          "midi": 70,
          "name": "A#4",
          "ticks": 10336,
          "time": 120.18604651162791,
          "velocity": 0.44881889763779526
        },
        {
          "duration": 0.22093023255814614,
          "durationTicks": 19,
          "midi": 62,
          "name": "D4",
          "ticks": 10337,
          "time": 120.19767441860465,
          "velocity": 0.33070866141732286
        },
        {
          "duration": 0.16279069767442422,
          "durationTicks": 14,
          "midi": 95,
          "name": "B6",
          "ticks": 10337,
          "time": 120.19767441860465,
          "velocity": 0.13385826771653545
        },
        {
          "duration": 0.05813953488372192,
          "durationTicks": 5,
          "midi": 58,
          "name": "A#3",
          "ticks": 10341,
          "time": 120.24418604651163,
          "velocity": 0.2125984251968504
        },
        {
          "duration": 0.13953488372092693,
          "durationTicks": 12,
          "midi": 43,
          "name": "G2",
          "ticks": 10342,
          "time": 120.25581395348837,
          "velocity": 0.18110236220472442
        },
        {
          "duration": 0.05813953488372192,
          "durationTicks": 5,
          "midi": 58,
          "name": "A#3",
          "ticks": 10347,
          "time": 120.31395348837209,
          "velocity": 0.2125984251968504
        },
        {
          "duration": 0.27906976744186807,
          "durationTicks": 24,
          "midi": 58,
          "name": "A#3",
          "ticks": 10353,
          "time": 120.38372093023256,
          "velocity": 0.2755905511811024
        },
        {
          "duration": 0.12790697674418539,
          "durationTicks": 11,
          "midi": 62,
          "name": "D4",
          "ticks": 10357,
          "time": 120.43023255813954,
          "velocity": 0.2283464566929134
        },
        {
          "duration": 0.034883720930224626,
          "durationTicks": 3,
          "midi": 83,
          "name": "B5",
          "ticks": 10357,
          "time": 120.43023255813954,
          "velocity": 0.09448818897637795
        },
        {
          "duration": 0.11627906976744384,
          "durationTicks": 10,
          "midi": 92,
          "name": "G#6",
          "ticks": 10357,
          "time": 120.43023255813954,
          "velocity": 0.07874015748031496
        },
        {
          "duration": 0.34883720930233153,
          "durationTicks": 30,
          "midi": 88,
          "name": "E6",
          "ticks": 10359,
          "time": 120.45348837209302,
          "velocity": 0.11811023622047244
        },
        {
          "duration": 0.19767441860464885,
          "durationTicks": 17,
          "midi": 50,
          "name": "D3",
          "ticks": 10361,
          "time": 120.47674418604652,
          "velocity": 0.2283464566929134
        },
        {
          "duration": 0.034883720930224626,
          "durationTicks": 3,
          "midi": 44,
          "name": "G#2",
          "ticks": 10377,
          "time": 120.66279069767442,
          "velocity": 0.1889763779527559
        },
        {
          "duration": 0.04651162790696617,
          "durationTicks": 4,
          "midi": 90,
          "name": "F#6",
          "ticks": 10377,
          "time": 120.66279069767442,
          "velocity": 0.11023622047244094
        },
        {
          "duration": 0.034883720930224626,
          "durationTicks": 3,
          "midi": 58,
          "name": "A#3",
          "ticks": 10378,
          "time": 120.67441860465117,
          "velocity": 0.2677165354330709
        },
        {
          "duration": 0.04651162790698038,
          "durationTicks": 4,
          "midi": 43,
          "name": "G2",
          "ticks": 10380,
          "time": 120.69767441860465,
          "velocity": 0.16535433070866143
        },
        {
          "duration": 0.04651162790698038,
          "durationTicks": 4,
          "midi": 55,
          "name": "G3",
          "ticks": 10380,
          "time": 120.69767441860465,
          "velocity": 0.2755905511811024
        },
        {
          "duration": 0.03488372093023884,
          "durationTicks": 3,
          "midi": 77,
          "name": "F5",
          "ticks": 10380,
          "time": 120.69767441860465,
          "velocity": 0.07086614173228346
        },
        {
          "duration": 0.023255813953483084,
          "durationTicks": 2,
          "midi": 58,
          "name": "A#3",
          "ticks": 10382,
          "time": 120.72093023255815,
          "velocity": 0.25196850393700787
        },
        {
          "duration": 0.15116279069766847,
          "durationTicks": 13,
          "midi": 69,
          "name": "A4",
          "ticks": 10382,
          "time": 120.72093023255815,
          "velocity": 0.18110236220472442
        },
        {
          "duration": 0.16279069767441,
          "durationTicks": 14,
          "midi": 50,
          "name": "D3",
          "ticks": 10383,
          "time": 120.73255813953489,
          "velocity": 0.2125984251968504
        },
        {
          "duration": 0.04651162790698038,
          "durationTicks": 4,
          "midi": 90,
          "name": "F#6",
          "ticks": 10385,
          "time": 120.75581395348837,
          "velocity": 0.07874015748031496
        },
        {
          "duration": 0.15116279069768268,
          "durationTicks": 13,
          "midi": 67,
          "name": "G4",
          "ticks": 10386,
          "time": 120.76744186046511,
          "velocity": 0.2677165354330709
        },
        {
          "duration": 0.023255813953483084,
          "durationTicks": 2,
          "midi": 55,
          "name": "G3",
          "ticks": 10389,
          "time": 120.80232558139535,
          "velocity": 0.2283464566929134
        },
        {
          "duration": 0.023255813953483084,
          "durationTicks": 2,
          "midi": 58,
          "name": "A#3",
          "ticks": 10389,
          "time": 120.80232558139535,
          "velocity": 0.2283464566929134
        },
        {
          "duration": 0.04651162790698038,
          "durationTicks": 4,
          "midi": 58,
          "name": "A#3",
          "ticks": 10394,
          "time": 120.86046511627907,
          "velocity": 0.29133858267716534
        },
        {
          "duration": 0.2325581395348877,
          "durationTicks": 20,
          "midi": 62,
          "name": "D4",
          "ticks": 10395,
          "time": 120.87209302325581,
          "velocity": 0.2755905511811024
        },
        {
          "duration": 0.4534883720930196,
          "durationTicks": 39,
          "midi": 81,
          "name": "A5",
          "ticks": 10395,
          "time": 120.87209302325581,
          "velocity": 0.25984251968503935
        },
        {
          "duration": 0.418604651162795,
          "durationTicks": 36,
          "midi": 88,
          "name": "E6",
          "ticks": 10395,
          "time": 120.87209302325581,
          "velocity": 0.16535433070866143
        },
        {
          "duration": 0.023255813953497295,
          "durationTicks": 2,
          "midi": 55,
          "name": "G3",
          "ticks": 10396,
          "time": 120.88372093023256,
          "velocity": 0.2992125984251969
        },
        {
          "duration": 0.15116279069768268,
          "durationTicks": 13,
          "midi": 69,
          "name": "A4",
          "ticks": 10396,
          "time": 120.88372093023256,
          "velocity": 0.3937007874015748
        },
        {
          "duration": 0.05813953488372192,
          "durationTicks": 5,
          "midi": 90,
          "name": "F#6",
          "ticks": 10396,
          "time": 120.88372093023256,
          "velocity": 0.09448818897637795
        },
        {
          "duration": 0.48837209302325846,
          "durationTicks": 42,
          "midi": 83,
          "name": "B5",
          "ticks": 10397,
          "time": 120.8953488372093,
          "velocity": 0.1968503937007874
        },
        {
          "duration": 0.04651162790698038,
          "durationTicks": 4,
          "midi": 67,
          "name": "G4",
          "ticks": 10400,
          "time": 120.93023255813954,
          "velocity": 0.28346456692913385
        },
        {
          "duration": 0.06976744186046346,
          "durationTicks": 6,
          "midi": 58,
          "name": "A#3",
          "ticks": 10401,
          "time": 120.94186046511628,
          "velocity": 0.31496062992125984
        },
        {
          "duration": 0.023255813953497295,
          "durationTicks": 2,
          "midi": 55,
          "name": "G3",
          "ticks": 10403,
          "time": 120.96511627906976,
          "velocity": 0.2677165354330709
        },
        {
          "duration": 0.12790697674418539,
          "durationTicks": 11,
          "midi": 67,
          "name": "G4",
          "ticks": 10405,
          "time": 120.98837209302326,
          "velocity": 0.44881889763779526
        },
        {
          "duration": 0.17441860465116577,
          "durationTicks": 15,
          "midi": 90,
          "name": "F#6",
          "ticks": 10405,
          "time": 120.98837209302326,
          "velocity": 0.14173228346456693
        },
        {
          "duration": 0.04651162790696617,
          "durationTicks": 4,
          "midi": 58,
          "name": "A#3",
          "ticks": 10410,
          "time": 121.04651162790698,
          "velocity": 0.28346456692913385
        },
        {
          "duration": 0.023255813953483084,
          "durationTicks": 2,
          "midi": 69,
          "name": "A4",
          "ticks": 10411,
          "time": 121.05813953488372,
          "velocity": 0.3779527559055118
        },
        {
          "duration": 0.43023255813953654,
          "durationTicks": 37,
          "midi": 77,
          "name": "F5",
          "ticks": 10414,
          "time": 121.09302325581395,
          "velocity": 0.3858267716535433
        },
        {
          "duration": 0.04651162790696617,
          "durationTicks": 4,
          "midi": 44,
          "name": "G#2",
          "ticks": 10415,
          "time": 121.1046511627907,
          "velocity": 0.1889763779527559
        },
        {
          "duration": 0.2093023255813904,
          "durationTicks": 18,
          "midi": 84,
          "name": "C6",
          "ticks": 10415,
          "time": 121.1046511627907,
          "velocity": 0.12598425196850394
        },
        {
          "duration": 0.06976744186046346,
          "durationTicks": 6,
          "midi": 69,
          "name": "A4",
          "ticks": 10416,
          "time": 121.11627906976744,
          "velocity": 0.3228346456692913
        },
        {
          "duration": 0.11627906976744384,
          "durationTicks": 10,
          "midi": 62,
          "name": "D4",
          "ticks": 10417,
          "time": 121.12790697674419,
          "velocity": 0.2440944881889764
        },
        {
          "duration": 0.06976744186046346,
          "durationTicks": 6,
          "midi": 65,
          "name": "F4",
          "ticks": 10417,
          "time": 121.12790697674419,
          "velocity": 0.31496062992125984
        },
        {
          "duration": 0.023255813953497295,
          "durationTicks": 2,
          "midi": 55,
          "name": "G3",
          "ticks": 10419,
          "time": 121.15116279069767,
          "velocity": 0.2440944881889764
        },
        {
          "duration": 0.023255813953497295,
          "durationTicks": 2,
          "midi": 58,
          "name": "A#3",
          "ticks": 10419,
          "time": 121.15116279069767,
          "velocity": 0.25984251968503935
        },
        {
          "duration": 0.17441860465116577,
          "durationTicks": 15,
          "midi": 67,
          "name": "G4",
          "ticks": 10419,
          "time": 121.15116279069767,
          "velocity": 0.3543307086614173
        },
        {
          "duration": 0.04651162790698038,
          "durationTicks": 4,
          "midi": 43,
          "name": "G2",
          "ticks": 10421,
          "time": 121.17441860465117,
          "velocity": 0.14960629921259844
        },
        {
          "duration": 0.023255813953497295,
          "durationTicks": 2,
          "midi": 69,
          "name": "A4",
          "ticks": 10423,
          "time": 121.19767441860465,
          "velocity": 0.30708661417322836
        },
        {
          "duration": 0.05813953488372192,
          "durationTicks": 5,
          "midi": 90,
          "name": "F#6",
          "ticks": 10424,
          "time": 121.20930232558139,
          "velocity": 0.10236220472440945
        },
        {
          "duration": 0.09302325581394655,
          "durationTicks": 8,
          "midi": 43,
          "name": "G2",
          "ticks": 10426,
          "time": 121.23255813953489,
          "velocity": 0.12598425196850394
        },
        {
          "duration": 0.023255813953483084,
          "durationTicks": 2,
          "midi": 55,
          "name": "G3",
          "ticks": 10426,
          "time": 121.23255813953489,
          "velocity": 0.25196850393700787
        },
        {
          "duration": 0.023255813953483084,
          "durationTicks": 2,
          "midi": 58,
          "name": "A#3",
          "ticks": 10426,
          "time": 121.23255813953489,
          "velocity": 0.2440944881889764
        },
        {
          "duration": 0.034883720930224626,
          "durationTicks": 3,
          "midi": 69,
          "name": "A4",
          "ticks": 10426,
          "time": 121.23255813953489,
          "velocity": 0.29133858267716534
        },
        {
          "duration": 0.03488372093023884,
          "durationTicks": 3,
          "midi": 65,
          "name": "F4",
          "ticks": 10428,
          "time": 121.25581395348837,
          "velocity": 0.2677165354330709
        },
        {
          "duration": 0.08139534883721922,
          "durationTicks": 7,
          "midi": 69,
          "name": "A4",
          "ticks": 10430,
          "time": 121.27906976744185,
          "velocity": 0.2755905511811024
        },
        {
          "duration": 0.06976744186046346,
          "durationTicks": 6,
          "midi": 55,
          "name": "G3",
          "ticks": 10433,
          "time": 121.31395348837209,
          "velocity": 0.23622047244094488
        },
        {
          "duration": 0.023255813953483084,
          "durationTicks": 2,
          "midi": 58,
          "name": "A#3",
          "ticks": 10433,
          "time": 121.31395348837209,
          "velocity": 0.2283464566929134
        },
        {
          "duration": 0.05813953488372192,
          "durationTicks": 5,
          "midi": 65,
          "name": "F4",
          "ticks": 10434,
          "time": 121.32558139534883,
          "velocity": 0.2755905511811024
        },
        {
          "duration": 0.4651162790697754,
          "durationTicks": 40,
          "midi": 72,
          "name": "C5",
          "ticks": 10434,
          "time": 121.32558139534883,
          "velocity": 0.41732283464566927
        },
        {
          "duration": 0.19767441860466306,
          "durationTicks": 17,
          "midi": 67,
          "name": "G4",
          "ticks": 10435,
          "time": 121.33720930232558,
          "velocity": 0.29133858267716534
        },
        {
          "duration": 0.034883720930224626,
          "durationTicks": 3,
          "midi": 58,
          "name": "A#3",
          "ticks": 10436,
          "time": 121.34883720930233,
          "velocity": 0.1889763779527559
        },
        {
          "duration": 0.17441860465116577,
          "durationTicks": 15,
          "midi": 62,
          "name": "D4",
          "ticks": 10437,
          "time": 121.36046511627907,
          "velocity": 0.18110236220472442
        },
        {
          "duration": 0.22093023255813193,
          "durationTicks": 19,
          "midi": 50,
          "name": "D3",
          "ticks": 10438,
          "time": 121.37209302325581,
          "velocity": 0.2204724409448819
        },
        {
          "duration": 0.081395348837205,
          "durationTicks": 7,
          "midi": 82,
          "name": "A#5",
          "ticks": 10438,
          "time": 121.37209302325581,
          "velocity": 0.11811023622047244
        },
        {
          "duration": 0.16279069767442422,
          "durationTicks": 14,
          "midi": 93,
          "name": "A6",
          "ticks": 10438,
          "time": 121.37209302325581,
          "velocity": 0.1889763779527559
        },
        {
          "duration": 0.6744186046511658,
          "durationTicks": 58,
          "midi": 88,
          "name": "E6",
          "ticks": 10439,
          "time": 121.38372093023256,
          "velocity": 0.1732283464566929
        },
        {
          "duration": 0.04651162790698038,
          "durationTicks": 4,
          "midi": 58,
          "name": "A#3",
          "ticks": 10440,
          "time": 121.3953488372093,
          "velocity": 0.2047244094488189
        },
        {
          "duration": 0.034883720930224626,
          "durationTicks": 3,
          "midi": 65,
          "name": "F4",
          "ticks": 10442,
          "time": 121.4186046511628,
          "velocity": 0.2047244094488189
        },
        {
          "duration": 0.2093023255813904,
          "durationTicks": 18,
          "midi": 69,
          "name": "A4",
          "ticks": 10442,
          "time": 121.4186046511628,
          "velocity": 0.3543307086614173
        },
        {
          "duration": 0.04651162790698038,
          "durationTicks": 4,
          "midi": 58,
          "name": "A#3",
          "ticks": 10449,
          "time": 121.5,
          "velocity": 0.15748031496062992
        },
        {
          "duration": 0.05813953488370771,
          "durationTicks": 5,
          "midi": 77,
          "name": "F5",
          "ticks": 10452,
          "time": 121.53488372093024,
          "velocity": 0.1732283464566929
        },
        {
          "duration": 0.4767441860465027,
          "durationTicks": 41,
          "midi": 79,
          "name": "G5",
          "ticks": 10453,
          "time": 121.54651162790698,
          "velocity": 0.4251968503937008
        },
        {
          "duration": 0.22093023255813193,
          "durationTicks": 19,
          "midi": 43,
          "name": "G2",
          "ticks": 10454,
          "time": 121.55813953488372,
          "velocity": 0.28346456692913385
        },
        {
          "duration": 0.04651162790698038,
          "durationTicks": 4,
          "midi": 58,
          "name": "A#3",
          "ticks": 10454,
          "time": 121.55813953488372,
          "velocity": 0.1732283464566929
        },
        {
          "duration": 0.5348837209302388,
          "durationTicks": 46,
          "midi": 83,
          "name": "B5",
          "ticks": 10455,
          "time": 121.56976744186046,
          "velocity": 0.33070866141732286
        },
        {
          "duration": 0.06976744186046346,
          "durationTicks": 6,
          "midi": 58,
          "name": "A#3",
          "ticks": 10459,
          "time": 121.61627906976744,
          "velocity": 0.12598425196850394
        },
        {
          "duration": 0.11627906976744384,
          "durationTicks": 10,
          "midi": 67,
          "name": "G4",
          "ticks": 10459,
          "time": 121.61627906976744,
          "velocity": 0.3228346456692913
        },
        {
          "duration": 0.38372093023255616,
          "durationTicks": 33,
          "midi": 50,
          "name": "D3",
          "ticks": 10460,
          "time": 121.62790697674419,
          "velocity": 0.2992125984251969
        },
        {
          "duration": 0.03488372093023884,
          "durationTicks": 3,
          "midi": 77,
          "name": "F5",
          "ticks": 10460,
          "time": 121.62790697674419,
          "velocity": 0.11811023622047244
        },
        {
          "duration": 0.3720930232558146,
          "durationTicks": 32,
          "midi": 69,
          "name": "A4",
          "ticks": 10461,
          "time": 121.63953488372093,
          "velocity": 0.2992125984251969
        },
        {
          "duration": 0.09302325581396076,
          "durationTicks": 8,
          "midi": 58,
          "name": "A#3",
          "ticks": 10466,
          "time": 121.69767441860465,
          "velocity": 0.11811023622047244
        },
        {
          "duration": 0.04651162790698038,
          "durationTicks": 4,
          "midi": 67,
          "name": "G4",
          "ticks": 10470,
          "time": 121.74418604651163,
          "velocity": 0.2047244094488189
        },
        {
          "duration": 0.25581395348837077,
          "durationTicks": 22,
          "midi": 65,
          "name": "F4",
          "ticks": 10471,
          "time": 121.75581395348837,
          "velocity": 0.3464566929133858
        },
        {
          "duration": 0.2325581395348877,
          "durationTicks": 20,
          "midi": 77,
          "name": "F5",
          "ticks": 10473,
          "time": 121.77906976744185,
          "velocity": 0.3543307086614173
        },
        {
          "duration": 0.22093023255813193,
          "durationTicks": 19,
          "midi": 84,
          "name": "C6",
          "ticks": 10474,
          "time": 121.79069767441861,
          "velocity": 0.18110236220472442
        },
        {
          "duration": 0.5232558139534831,
          "durationTicks": 45,
          "midi": 74,
          "name": "D5",
          "ticks": 10475,
          "time": 121.80232558139535,
          "velocity": 0.5196850393700787
        },
        {
          "duration": 0.04651162790698038,
          "durationTicks": 4,
          "midi": 72,
          "name": "C5",
          "ticks": 10478,
          "time": 121.83720930232558,
          "velocity": 0.11023622047244094
        },
        {
          "duration": 0.04651162790696617,
          "durationTicks": 4,
          "midi": 58,
          "name": "A#3",
          "ticks": 10479,
          "time": 121.84883720930233,
          "velocity": 0.07086614173228346
        },
        {
          "duration": 0.034883720930224626,
          "durationTicks": 3,
          "midi": 58,
          "name": "A#3",
          "ticks": 10485,
          "time": 121.9186046511628,
          "velocity": 0.07874015748031496
        },
        {
          "duration": 0.081395348837205,
          "durationTicks": 7,
          "midi": 85,
          "name": "C#6",
          "ticks": 10492,
          "time": 122,
          "velocity": 0.2047244094488189
        },
        {
          "duration": 0.22093023255814614,
          "durationTicks": 19,
          "midi": 61,
          "name": "C#4",
          "ticks": 10493,
          "time": 122.01162790697674,
          "velocity": 0.4330708661417323
        },
        {
          "duration": 0.4767441860465169,
          "durationTicks": 41,
          "midi": 76,
          "name": "E5",
          "ticks": 10493,
          "time": 122.01162790697674,
          "velocity": 0.4094488188976378
        },
        {
          "duration": 0.023255813953497295,
          "durationTicks": 2,
          "midi": 57,
          "name": "A3",
          "ticks": 10494,
          "time": 122.02325581395348,
          "velocity": 0.25196850393700787
        },
        {
          "duration": 0.023255813953497295,
          "durationTicks": 2,
          "midi": 65,
          "name": "F4",
          "ticks": 10494,
          "time": 122.02325581395348,
          "velocity": 0.3858267716535433
        },
        {
          "duration": 0.05813953488372192,
          "durationTicks": 5,
          "midi": 71,
          "name": "B4",
          "ticks": 10494,
          "time": 122.02325581395348,
          "velocity": 0.1732283464566929
        },
        {
          "duration": 0.7093023255814046,
          "durationTicks": 61,
          "midi": 89,
          "name": "F6",
          "ticks": 10494,
          "time": 122.02325581395348,
          "velocity": 0.49606299212598426
        },
        {
          "duration": 0.023255813953483084,
          "durationTicks": 2,
          "midi": 44,
          "name": "G#2",
          "ticks": 10495,
          "time": 122.03488372093024,
          "velocity": 0.48031496062992124
        },
        {
          "duration": 0.4186046511627808,
          "durationTicks": 36,
          "midi": 64,
          "name": "E4",
          "ticks": 10496,
          "time": 122.04651162790698,
          "velocity": 0.4330708661417323
        },
        {
          "duration": 0.10465116279068809,
          "durationTicks": 9,
          "midi": 90,
          "name": "F#6",
          "ticks": 10496,
          "time": 122.04651162790698,
          "velocity": 0.11023622047244094
        },
        {
          "duration": 0.9651162790697612,
          "durationTicks": 83,
          "midi": 45,
          "name": "A2",
          "ticks": 10497,
          "time": 122.05813953488372,
          "velocity": 0.5039370078740157
        },
        {
          "duration": 0.03488372093023884,
          "durationTicks": 3,
          "midi": 52,
          "name": "E3",
          "ticks": 10500,
          "time": 122.09302325581395,
          "velocity": 0.25196850393700787
        },
        {
          "duration": 0.05813953488372192,
          "durationTicks": 5,
          "midi": 79,
          "name": "G5",
          "ticks": 10500,
          "time": 122.09302325581395,
          "velocity": 0.12598425196850394
        },
        {
          "duration": 0.09302325581396076,
          "durationTicks": 8,
          "midi": 85,
          "name": "C#6",
          "ticks": 10500,
          "time": 122.09302325581395,
          "velocity": 0.2125984251968504
        },
        {
          "duration": 0.2906976744186096,
          "durationTicks": 25,
          "midi": 83,
          "name": "B5",
          "ticks": 10503,
          "time": 122.12790697674419,
          "velocity": 0.2992125984251969
        },
        {
          "duration": 0.05813953488372192,
          "durationTicks": 5,
          "midi": 91,
          "name": "G6",
          "ticks": 10505,
          "time": 122.15116279069767,
          "velocity": 0.07086614173228346
        },
        {
          "duration": 0.04651162790698038,
          "durationTicks": 4,
          "midi": 90,
          "name": "F#6",
          "ticks": 10507,
          "time": 122.17441860465117,
          "velocity": 0.10236220472440945
        },
        {
          "duration": 0.034883720930224626,
          "durationTicks": 3,
          "midi": 85,
          "name": "C#6",
          "ticks": 10511,
          "time": 122.22093023255815,
          "velocity": 0.13385826771653545
        },
        {
          "duration": 0.7325581395348877,
          "durationTicks": 63,
          "midi": 69,
          "name": "A4",
          "ticks": 10513,
          "time": 122.24418604651163,
          "velocity": 0.2992125984251969
        },
        {
          "duration": 0.5581395348837219,
          "durationTicks": 48,
          "midi": 61,
          "name": "C#4",
          "ticks": 10514,
          "time": 122.25581395348837,
          "velocity": 0.41732283464566927
        },
        {
          "duration": 0.11627906976744384,
          "durationTicks": 10,
          "midi": 79,
          "name": "G5",
          "ticks": 10514,
          "time": 122.25581395348837,
          "velocity": 0.14173228346456693
        },
        {
          "duration": 0.05813953488372192,
          "durationTicks": 5,
          "midi": 71,
          "name": "B4",
          "ticks": 10515,
          "time": 122.26744186046511,
          "velocity": 0.14960629921259844
        },
        {
          "duration": 0.06976744186046346,
          "durationTicks": 6,
          "midi": 85,
          "name": "C#6",
          "ticks": 10515,
          "time": 122.26744186046511,
          "velocity": 0.2125984251968504
        },
        {
          "duration": 0.04651162790698038,
          "durationTicks": 4,
          "midi": 73,
          "name": "C#5",
          "ticks": 10520,
          "time": 122.32558139534883,
          "velocity": 0.44881889763779526
        },
        {
          "duration": 0.03488372093023884,
          "durationTicks": 3,
          "midi": 92,
          "name": "G#6",
          "ticks": 10520,
          "time": 122.32558139534883,
          "velocity": 0.07086614173228346
        },
        {
          "duration": 0.06976744186046346,
          "durationTicks": 6,
          "midi": 71,
          "name": "B4",
          "ticks": 10524,
          "time": 122.37209302325581,
          "velocity": 0.11023622047244094
        },
        {
          "duration": 0.13953488372092693,
          "durationTicks": 12,
          "midi": 74,
          "name": "D5",
          "ticks": 10524,
          "time": 122.37209302325581,
          "velocity": 0.4251968503937008
        },
        {
          "duration": 0.43023255813953654,
          "durationTicks": 37,
          "midi": 85,
          "name": "C#6",
          "ticks": 10524,
          "time": 122.37209302325581,
          "velocity": 0.31496062992125984
        },
        {
          "duration": 0.03488372093023884,
          "durationTicks": 3,
          "midi": 90,
          "name": "F#6",
          "ticks": 10526,
          "time": 122.3953488372093,
          "velocity": 0.07086614173228346
        },
        {
          "duration": 0.2093023255813904,
          "durationTicks": 18,
          "midi": 83,
          "name": "B5",
          "ticks": 10529,
          "time": 122.43023255813954,
          "velocity": 0.2755905511811024
        },
        {
          "duration": 0.04651162790698038,
          "durationTicks": 4,
          "midi": 91,
          "name": "G6",
          "ticks": 10532,
          "time": 122.46511627906976,
          "velocity": 0.11023622047244094
        },
        {
          "duration": 0.034883720930224626,
          "durationTicks": 3,
          "midi": 80,
          "name": "G#5",
          "ticks": 10533,
          "time": 122.47674418604652,
          "velocity": 0.14173228346456693
        },
        {
          "duration": 0.2674418604651123,
          "durationTicks": 23,
          "midi": 90,
          "name": "F#6",
          "ticks": 10533,
          "time": 122.47674418604652,
          "velocity": 0.16535433070866143
        },
        {
          "duration": 0.12790697674418539,
          "durationTicks": 11,
          "midi": 77,
          "name": "F5",
          "ticks": 10534,
          "time": 122.48837209302326,
          "velocity": 0.41732283464566927
        },
        {
          "duration": 0.12790697674418539,
          "durationTicks": 11,
          "midi": 79,
          "name": "G5",
          "ticks": 10534,
          "time": 122.48837209302326,
          "velocity": 0.11023622047244094
        },
        {
          "duration": 0.13953488372092693,
          "durationTicks": 12,
          "midi": 92,
          "name": "G#6",
          "ticks": 10534,
          "time": 122.48837209302326,
          "velocity": 0.18110236220472442
        },
        {
          "duration": 0.09302325581396076,
          "durationTicks": 8,
          "midi": 86,
          "name": "D6",
          "ticks": 10537,
          "time": 122.52325581395348,
          "velocity": 0.10236220472440945
        },
        {
          "duration": 0.11627906976744384,
          "durationTicks": 10,
          "midi": 52,
          "name": "E3",
          "ticks": 10541,
          "time": 122.56976744186046,
          "velocity": 0.12598425196850394
        },
        {
          "duration": 0.05813953488372192,
          "durationTicks": 5,
          "midi": 91,
          "name": "G6",
          "ticks": 10542,
          "time": 122.5813953488372,
          "velocity": 0.11811023622047244
        },
        {
          "duration": 0.06976744186046346,
          "durationTicks": 6,
          "midi": 71,
          "name": "B4",
          "ticks": 10544,
          "time": 122.6046511627907,
          "velocity": 0.07086614173228346
        },
        {
          "duration": 0.06976744186046346,
          "durationTicks": 6,
          "midi": 76,
          "name": "E5",
          "ticks": 10545,
          "time": 122.61627906976744,
          "velocity": 0.36220472440944884
        },
        {
          "duration": 0.034883720930224626,
          "durationTicks": 3,
          "midi": 77,
          "name": "F5",
          "ticks": 10550,
          "time": 122.67441860465117,
          "velocity": 0.3464566929133858
        },
        {
          "duration": 0.023255813953497295,
          "durationTicks": 2,
          "midi": 76,
          "name": "E5",
          "ticks": 10552,
          "time": 122.69767441860465,
          "velocity": 0.3228346456692913
        },
        {
          "duration": 0.034883720930224626,
          "durationTicks": 3,
          "midi": 77,
          "name": "F5",
          "ticks": 10554,
          "time": 122.72093023255815,
          "velocity": 0.29133858267716534
        },
        {
          "duration": 0.034883720930224626,
          "durationTicks": 3,
          "midi": 92,
          "name": "G#6",
          "ticks": 10555,
          "time": 122.73255813953489,
          "velocity": 0.07086614173228346
        },
        {
          "duration": 0.17441860465116577,
          "durationTicks": 15,
          "midi": 64,
          "name": "E4",
          "ticks": 10558,
          "time": 122.76744186046511,
          "velocity": 0.14960629921259844
        },
        {
          "duration": 0.32558139534883423,
          "durationTicks": 28,
          "midi": 77,
          "name": "F5",
          "ticks": 10558,
          "time": 122.76744186046511,
          "velocity": 0.30708661417322836
        },
        {
          "duration": 0.03488372093023884,
          "durationTicks": 3,
          "midi": 90,
          "name": "F#6",
          "ticks": 10559,
          "time": 122.77906976744185,
          "velocity": 0.07086614173228346
        },
        {
          "duration": 0.05813953488372192,
          "durationTicks": 5,
          "midi": 71,
          "name": "B4",
          "ticks": 10568,
          "time": 122.88372093023256,
          "velocity": 0.07874015748031496
        },
        {
          "duration": 0.11627906976744384,
          "durationTicks": 10,
          "midi": 61,
          "name": "C#4",
          "ticks": 10569,
          "time": 122.8953488372093,
          "velocity": 0.11023622047244094
        },
        {
          "duration": 0.6279069767441854,
          "durationTicks": 54,
          "midi": 61,
          "name": "C#4",
          "ticks": 10590,
          "time": 123.13953488372093,
          "velocity": 0.44881889763779526
        },
        {
          "duration": 0.5813953488372192,
          "durationTicks": 50,
          "midi": 76,
          "name": "E5",
          "ticks": 10590,
          "time": 123.13953488372093,
          "velocity": 0.3700787401574803
        },
        {
          "duration": 0.48837209302325846,
          "durationTicks": 42,
          "midi": 86,
          "name": "D6",
          "ticks": 10590,
          "time": 123.13953488372093,
          "velocity": 0.3858267716535433
        },
        {
          "duration": 0.22093023255814614,
          "durationTicks": 19,
          "midi": 74,
          "name": "D5",
          "ticks": 10591,
          "time": 123.15116279069767,
          "velocity": 0.5039370078740157
        },
        {
          "duration": 0.17441860465116577,
          "durationTicks": 15,
          "midi": 83,
          "name": "B5",
          "ticks": 10591,
          "time": 123.15116279069767,
          "velocity": 0.2992125984251969
        },
        {
          "duration": 0.43023255813953654,
          "durationTicks": 37,
          "midi": 89,
          "name": "F6",
          "ticks": 10591,
          "time": 123.15116279069767,
          "velocity": 0.16535433070866143
        },
        {
          "duration": 0.2093023255814046,
          "durationTicks": 18,
          "midi": 90,
          "name": "F#6",
          "ticks": 10591,
          "time": 123.15116279069767,
          "velocity": 0.13385826771653545
        },
        {
          "duration": 0.08139534883721922,
          "durationTicks": 7,
          "midi": 93,
          "name": "A6",
          "ticks": 10591,
          "time": 123.15116279069767,
          "velocity": 0.13385826771653545
        },
        {
          "duration": 0.22093023255813193,
          "durationTicks": 19,
          "midi": 45,
          "name": "A2",
          "ticks": 10592,
          "time": 123.16279069767442,
          "velocity": 0.4566929133858268
        },
        {
          "duration": 0.081395348837205,
          "durationTicks": 7,
          "midi": 52,
          "name": "E3",
          "ticks": 10592,
          "time": 123.16279069767442,
          "velocity": 0.25196850393700787
        },
        {
          "duration": 0.22093023255813193,
          "durationTicks": 19,
          "midi": 64,
          "name": "E4",
          "ticks": 10592,
          "time": 123.16279069767442,
          "velocity": 0.3858267716535433
        },
        {
          "duration": 0.40697674418603924,
          "durationTicks": 35,
          "midi": 69,
          "name": "A4",
          "ticks": 10592,
          "time": 123.16279069767442,
          "velocity": 0.18110236220472442
        },
        {
          "duration": 0.081395348837205,
          "durationTicks": 7,
          "midi": 85,
          "name": "C#6",
          "ticks": 10592,
          "time": 123.16279069767442,
          "velocity": 0.25196850393700787
        },
        {
          "duration": 0.034883720930224626,
          "durationTicks": 3,
          "midi": 91,
          "name": "G6",
          "ticks": 10592,
          "time": 123.16279069767442,
          "velocity": 0.08661417322834646
        },
        {
          "duration": 0.06976744186046346,
          "durationTicks": 6,
          "midi": 79,
          "name": "G5",
          "ticks": 10596,
          "time": 123.20930232558139,
          "velocity": 0.11023622047244094
        },
        {
          "duration": 0.034883720930224626,
          "durationTicks": 3,
          "midi": 71,
          "name": "B4",
          "ticks": 10598,
          "time": 123.23255813953489,
          "velocity": 0.08661417322834646
        },
        {
          "duration": 0.023255813953483084,
          "durationTicks": 2,
          "midi": 52,
          "name": "E3",
          "ticks": 10600,
          "time": 123.25581395348837,
          "velocity": 0.25196850393700787
        },
        {
          "duration": 0.06976744186047767,
          "durationTicks": 6,
          "midi": 85,
          "name": "C#6",
          "ticks": 10602,
          "time": 123.27906976744185,
          "velocity": 0.2047244094488189
        },
        {
          "duration": 0.05813953488372192,
          "durationTicks": 5,
          "midi": 91,
          "name": "G6",
          "ticks": 10603,
          "time": 123.29069767441861,
          "velocity": 0.07874015748031496
        },
        {
          "duration": 0.03488372093023884,
          "durationTicks": 3,
          "midi": 52,
          "name": "E3",
          "ticks": 10606,
          "time": 123.32558139534883,
          "velocity": 0.14960629921259844
        },
        {
          "duration": 0.13953488372094114,
          "durationTicks": 12,
          "midi": 83,
          "name": "B5",
          "ticks": 10607,
          "time": 123.33720930232558,
          "velocity": 0.2677165354330709
        },
        {
          "duration": 0.023255813953483084,
          "durationTicks": 2,
          "midi": 73,
          "name": "C#5",
          "ticks": 10610,
          "time": 123.37209302325581,
          "velocity": 0.44881889763779526
        },
        {
          "duration": 1.5697674418604635,
          "durationTicks": 135,
          "midi": 74,
          "name": "D5",
          "ticks": 10611,
          "time": 123.38372093023256,
          "velocity": 0.4881889763779528
        },
        {
          "duration": 0.3604651162790731,
          "durationTicks": 31,
          "midi": 45,
          "name": "A2",
          "ticks": 10612,
          "time": 123.3953488372093,
          "velocity": 0.5039370078740157
        },
        {
          "duration": 0.12790697674418539,
          "durationTicks": 11,
          "midi": 52,
          "name": "E3",
          "ticks": 10612,
          "time": 123.3953488372093,
          "velocity": 0.28346456692913385
        },
        {
          "duration": 0.27906976744186807,
          "durationTicks": 24,
          "midi": 64,
          "name": "E4",
          "ticks": 10612,
          "time": 123.3953488372093,
          "velocity": 0.3779527559055118
        },
        {
          "duration": 0.1046511627907023,
          "durationTicks": 9,
          "midi": 79,
          "name": "G5",
          "ticks": 10612,
          "time": 123.3953488372093,
          "velocity": 0.14960629921259844
        },
        {
          "duration": 0.05813953488370771,
          "durationTicks": 5,
          "midi": 85,
          "name": "C#6",
          "ticks": 10613,
          "time": 123.40697674418605,
          "velocity": 0.2047244094488189
        },
        {
          "duration": 0.034883720930224626,
          "durationTicks": 3,
          "midi": 90,
          "name": "F#6",
          "ticks": 10619,
          "time": 123.47674418604652,
          "velocity": 0.07086614173228346
        },
        {
          "duration": 0.05813953488372192,
          "durationTicks": 5,
          "midi": 83,
          "name": "B5",
          "ticks": 10620,
          "time": 123.48837209302326,
          "velocity": 0.14173228346456693
        },
        {
          "duration": 0.081395348837205,
          "durationTicks": 7,
          "midi": 85,
          "name": "C#6",
          "ticks": 10621,
          "time": 123.5,
          "velocity": 0.18110236220472442
        },
        {
          "duration": 0.06976744186046346,
          "durationTicks": 6,
          "midi": 52,
          "name": "E3",
          "ticks": 10624,
          "time": 123.53488372093024,
          "velocity": 0.14960629921259844
        },
        {
          "duration": 0.034883720930224626,
          "durationTicks": 3,
          "midi": 90,
          "name": "F#6",
          "ticks": 10625,
          "time": 123.54651162790698,
          "velocity": 0.07086614173228346
        },
        {
          "duration": 0.05813953488372192,
          "durationTicks": 5,
          "midi": 52,
          "name": "E3",
          "ticks": 10631,
          "time": 123.61627906976744,
          "velocity": 0.12598425196850394
        },
        {
          "duration": 0.06976744186046346,
          "durationTicks": 6,
          "midi": 85,
          "name": "C#6",
          "ticks": 10631,
          "time": 123.61627906976744,
          "velocity": 0.12598425196850394
        },
        {
          "duration": 0.06976744186047767,
          "durationTicks": 6,
          "midi": 45,
          "name": "A2",
          "ticks": 10645,
          "time": 123.77906976744185,
          "velocity": 0.11023622047244094
        },
        {
          "duration": 0.48837209302325846,
          "durationTicks": 42,
          "midi": 69,
          "name": "A4",
          "ticks": 10649,
          "time": 123.82558139534883,
          "velocity": 0.3700787401574803
        },
        {
          "duration": 0.3720930232558146,
          "durationTicks": 32,
          "midi": 77,
          "name": "F5",
          "ticks": 10649,
          "time": 123.82558139534883,
          "velocity": 0.44881889763779526
        },
        {
          "duration": 0.30232558139535115,
          "durationTicks": 26,
          "midi": 65,
          "name": "F4",
          "ticks": 10650,
          "time": 123.83720930232558,
          "velocity": 0.33070866141732286
        },
        {
          "duration": 0.1860465116279073,
          "durationTicks": 16,
          "midi": 84,
          "name": "C6",
          "ticks": 10651,
          "time": 123.84883720930233,
          "velocity": 0.14173228346456693
        },
        {
          "duration": 0.36046511627905886,
          "durationTicks": 31,
          "midi": 88,
          "name": "E6",
          "ticks": 10651,
          "time": 123.84883720930233,
          "velocity": 0.2204724409448819
        },
        {
          "duration": 0.023255813953483084,
          "durationTicks": 2,
          "midi": 45,
          "name": "A2",
          "ticks": 10652,
          "time": 123.86046511627907,
          "velocity": 0.23622047244094488
        },
        {
          "duration": 0.09302325581396076,
          "durationTicks": 8,
          "midi": 45,
          "name": "A2",
          "ticks": 10655,
          "time": 123.8953488372093,
          "velocity": 0.2677165354330709
        },
        {
          "duration": 0.12790697674418539,
          "durationTicks": 11,
          "midi": 72,
          "name": "C5",
          "ticks": 10655,
          "time": 123.8953488372093,
          "velocity": 0.13385826771653545
        },
        {
          "duration": 0.034883720930224626,
          "durationTicks": 3,
          "midi": 59,
          "name": "B3",
          "ticks": 10668,
          "time": 124.04651162790698,
          "velocity": 0.25196850393700787
        },
        {
          "duration": 0.023255813953483084,
          "durationTicks": 2,
          "midi": 63,
          "name": "D#4",
          "ticks": 10669,
          "time": 124.05813953488372,
          "velocity": 0.2677165354330709
        },
        {
          "duration": 0.2325581395348877,
          "durationTicks": 20,
          "midi": 84,
          "name": "C6",
          "ticks": 10669,
          "time": 124.05813953488372,
          "velocity": 0.2440944881889764
        },
        {
          "duration": 0.06976744186046346,
          "durationTicks": 6,
          "midi": 85,
          "name": "C#6",
          "ticks": 10671,
          "time": 124.0813953488372,
          "velocity": 0.09448818897637795
        },
        {
          "duration": 0.023255813953497295,
          "durationTicks": 2,
          "midi": 60,
          "name": "C4",
          "ticks": 10672,
          "time": 124.09302325581395,
          "velocity": 0.3464566929133858
        },
        {
          "duration": 0.034883720930224626,
          "durationTicks": 3,
          "midi": 50,
          "name": "D3",
          "ticks": 10674,
          "time": 124.11627906976744,
          "velocity": 0.08661417322834646
        },
        {
          "duration": 0.081395348837205,
          "durationTicks": 7,
          "midi": 72,
          "name": "C5",
          "ticks": 10675,
          "time": 124.12790697674419,
          "velocity": 0.2047244094488189
        },
        {
          "duration": 0.03488372093023884,
          "durationTicks": 3,
          "midi": 38,
          "name": "D2",
          "ticks": 10677,
          "time": 124.15116279069767,
          "velocity": 0.15748031496062992
        },
        {
          "duration": 0.023255813953497295,
          "durationTicks": 2,
          "midi": 60,
          "name": "C4",
          "ticks": 10677,
          "time": 124.15116279069767,
          "velocity": 0.30708661417322836
        },
        {
          "duration": 0.023255813953497295,
          "durationTicks": 2,
          "midi": 62,
          "name": "D4",
          "ticks": 10677,
          "time": 124.15116279069767,
          "velocity": 0.29133858267716534
        },
        {
          "duration": 0.04651162790698038,
          "durationTicks": 4,
          "midi": 65,
          "name": "F4",
          "ticks": 10677,
          "time": 124.15116279069767,
          "velocity": 0.16535433070866143
        },
        {
          "duration": 0.10465116279068809,
          "durationTicks": 9,
          "midi": 50,
          "name": "D3",
          "ticks": 10679,
          "time": 124.17441860465117,
          "velocity": 0.1732283464566929
        },
        {
          "duration": 0.05813953488372192,
          "durationTicks": 5,
          "midi": 57,
          "name": "A3",
          "ticks": 10680,
          "time": 124.18604651162791,
          "velocity": 0.1889763779527559
        },
        {
          "duration": 0.023255813953483084,
          "durationTicks": 2,
          "midi": 62,
          "name": "D4",
          "ticks": 10680,
          "time": 124.18604651162791,
          "velocity": 0.2755905511811024
        },
        {
          "duration": 0.08139534883721922,
          "durationTicks": 7,
          "midi": 38,
          "name": "D2",
          "ticks": 10682,
          "time": 124.20930232558139,
          "velocity": 0.14960629921259844
        },
        {
          "duration": 0.09302325581396076,
          "durationTicks": 8,
          "midi": 65,
          "name": "F4",
          "ticks": 10682,
          "time": 124.20930232558139,
          "velocity": 0.25984251968503935
        },
        {
          "duration": 0.023255813953483084,
          "durationTicks": 2,
          "midi": 62,
          "name": "D4",
          "ticks": 10683,
          "time": 124.22093023255815,
          "velocity": 0.25196850393700787
        },
        {
          "duration": 0.05813953488370771,
          "durationTicks": 5,
          "midi": 88,
          "name": "E6",
          "ticks": 10683,
          "time": 124.22093023255815,
          "velocity": 0.2204724409448819
        },
        {
          "duration": 0.081395348837205,
          "durationTicks": 7,
          "midi": 60,
          "name": "C4",
          "ticks": 10685,
          "time": 124.24418604651163,
          "velocity": 0.3937007874015748
        },
        {
          "duration": 0.03488372093023884,
          "durationTicks": 3,
          "midi": 57,
          "name": "A3",
          "ticks": 10686,
          "time": 124.25581395348837,
          "velocity": 0.2283464566929134
        },
        {
          "duration": 0.023255813953497295,
          "durationTicks": 2,
          "midi": 71,
          "name": "B4",
          "ticks": 10688,
          "time": 124.27906976744185,
          "velocity": 0.25196850393700787
        },
        {
          "duration": 0.23255813953487348,
          "durationTicks": 20,
          "midi": 76,
          "name": "E5",
          "ticks": 10689,
          "time": 124.29069767441861,
          "velocity": 0.25196850393700787
        },
        {
          "duration": 0.2093023255813904,
          "durationTicks": 18,
          "midi": 64,
          "name": "E4",
          "ticks": 10690,
          "time": 124.30232558139535,
          "velocity": 0.2992125984251969
        },
        {
          "duration": 0.2325581395348877,
          "durationTicks": 20,
          "midi": 67,
          "name": "G4",
          "ticks": 10690,
          "time": 124.30232558139535,
          "velocity": 0.2992125984251969
        },
        {
          "duration": 0.06976744186047767,
          "durationTicks": 6,
          "midi": 82,
          "name": "A#5",
          "ticks": 10693,
          "time": 124.33720930232558,
          "velocity": 0.11023622047244094
        },
        {
          "duration": 0.10465116279068809,
          "durationTicks": 9,
          "midi": 60,
          "name": "C4",
          "ticks": 10695,
          "time": 124.36046511627907,
          "velocity": 0.3700787401574803
        },
        {
          "duration": 0.034883720930224626,
          "durationTicks": 3,
          "midi": 95,
          "name": "B6",
          "ticks": 10695,
          "time": 124.36046511627907,
          "velocity": 0.07086614173228346
        },
        {
          "duration": 0.1046511627907023,
          "durationTicks": 9,
          "midi": 55,
          "name": "G3",
          "ticks": 10696,
          "time": 124.37209302325581,
          "velocity": 0.14173228346456693
        },
        {
          "duration": 0.1860465116279073,
          "durationTicks": 16,
          "midi": 83,
          "name": "B5",
          "ticks": 10696,
          "time": 124.37209302325581,
          "velocity": 0.16535433070866143
        },
        {
          "duration": 0.12790697674418539,
          "durationTicks": 11,
          "midi": 48,
          "name": "C3",
          "ticks": 10697,
          "time": 124.38372093023256,
          "velocity": 0.25984251968503935
        },
        {
          "duration": 0.11627906976744384,
          "durationTicks": 10,
          "midi": 71,
          "name": "B4",
          "ticks": 10700,
          "time": 124.4186046511628,
          "velocity": 0.2204724409448819
        },
        {
          "duration": 0.034883720930224626,
          "durationTicks": 3,
          "midi": 60,
          "name": "C4",
          "ticks": 10705,
          "time": 124.47674418604652,
          "velocity": 0.3228346456692913
        },
        {
          "duration": 0.023255813953497295,
          "durationTicks": 2,
          "midi": 49,
          "name": "C#3",
          "ticks": 10708,
          "time": 124.51162790697674,
          "velocity": 0.2440944881889764
        },
        {
          "duration": 0.023255813953497295,
          "durationTicks": 2,
          "midi": 59,
          "name": "B3",
          "ticks": 10708,
          "time": 124.51162790697674,
          "velocity": 0.25984251968503935
        },
        {
          "duration": 0.6976744186046488,
          "durationTicks": 60,
          "midi": 77,
          "name": "F5",
          "ticks": 10708,
          "time": 124.51162790697674,
          "velocity": 0.4330708661417323
        },
        {
          "duration": 0.19767441860464885,
          "durationTicks": 17,
          "midi": 84,
          "name": "C6",
          "ticks": 10708,
          "time": 124.51162790697674,
          "velocity": 0.2125984251968504
        },
        {
          "duration": 0.2906976744186096,
          "durationTicks": 25,
          "midi": 65,
          "name": "F4",
          "ticks": 10709,
          "time": 124.52325581395348,
          "velocity": 0.30708661417322836
        },
        {
          "duration": 0.08139534883721922,
          "durationTicks": 7,
          "midi": 81,
          "name": "A5",
          "ticks": 10709,
          "time": 124.52325581395348,
          "velocity": 0.09448818897637795
        },
        {
          "duration": 0.03488372093023884,
          "durationTicks": 3,
          "midi": 85,
          "name": "C#6",
          "ticks": 10709,
          "time": 124.52325581395348,
          "velocity": 0.09448818897637795
        },
        {
          "duration": 0.034883720930224626,
          "durationTicks": 3,
          "midi": 39,
          "name": "D#2",
          "ticks": 10710,
          "time": 124.53488372093024,
          "velocity": 0.18110236220472442
        },
        {
          "duration": 0.1860465116279073,
          "durationTicks": 16,
          "midi": 72,
          "name": "C5",
          "ticks": 10710,
          "time": 124.53488372093024,
          "velocity": 0.33070866141732286
        },
        {
          "duration": 0.2093023255813904,
          "durationTicks": 18,
          "midi": 88,
          "name": "E6",
          "ticks": 10710,
          "time": 124.53488372093024,
          "velocity": 0.1889763779527559
        },
        {
          "duration": 0.11627906976744384,
          "durationTicks": 10,
          "midi": 60,
          "name": "C4",
          "ticks": 10711,
          "time": 124.54651162790698,
          "velocity": 0.3228346456692913
        },
        {
          "duration": 0.04651162790698038,
          "durationTicks": 4,
          "midi": 38,
          "name": "D2",
          "ticks": 10713,
          "time": 124.56976744186046,
          "velocity": 0.18110236220472442
        },
        {
          "duration": 0.1860465116279073,
          "durationTicks": 16,
          "midi": 50,
          "name": "D3",
          "ticks": 10713,
          "time": 124.56976744186046,
          "velocity": 0.1968503937007874
        },
        {
          "duration": 0.11627906976744384,
          "durationTicks": 10,
          "midi": 38,
          "name": "D2",
          "ticks": 10718,
          "time": 124.62790697674419,
          "velocity": 0.18110236220472442
        },
        {
          "duration": 0.04651162790698038,
          "durationTicks": 4,
          "midi": 60,
          "name": "C4",
          "ticks": 10722,
          "time": 124.67441860465117,
          "velocity": 0.25984251968503935
        },
        {
          "duration": 0.04651162790696617,
          "durationTicks": 4,
          "midi": 60,
          "name": "C4",
          "ticks": 10727,
          "time": 124.73255813953489,
          "velocity": 0.2047244094488189
        },
        {
          "duration": 0.40697674418603924,
          "durationTicks": 35,
          "midi": 81,
          "name": "A5",
          "ticks": 10727,
          "time": 124.73255813953489,
          "velocity": 0.2204724409448819
        },
        {
          "duration": 0.03488372093023884,
          "durationTicks": 3,
          "midi": 45,
          "name": "A2",
          "ticks": 10730,
          "time": 124.76744186046511,
          "velocity": 0.23622047244094488
        },
        {
          "duration": 0.11627906976744384,
          "durationTicks": 10,
          "midi": 60,
          "name": "C4",
          "ticks": 10735,
          "time": 124.82558139534883,
          "velocity": 0.13385826771653545
        },
        {
          "duration": 0.034883720930224626,
          "durationTicks": 3,
          "midi": 45,
          "name": "A2",
          "ticks": 10744,
          "time": 124.93023255813954,
          "velocity": 0.2204724409448819
        },
        {
          "duration": 0.2325581395348877,
          "durationTicks": 20,
          "midi": 65,
          "name": "F4",
          "ticks": 10747,
          "time": 124.96511627906976,
          "velocity": 0.3228346456692913
        },
        {
          "duration": 0.04651162790698038,
          "durationTicks": 4,
          "midi": 71,
          "name": "B4",
          "ticks": 10747,
          "time": 124.96511627906976,
          "velocity": 0.12598425196850394
        },
        {
          "duration": 0.5232558139534973,
          "durationTicks": 45,
          "midi": 74,
          "name": "D5",
          "ticks": 10747,
          "time": 124.96511627906976,
          "velocity": 0.3228346456692913
        },
        {
          "duration": 0.19767441860464885,
          "durationTicks": 17,
          "midi": 88,
          "name": "E6",
          "ticks": 10748,
          "time": 124.97674418604652,
          "velocity": 0.16535433070866143
        },
        {
          "duration": 0.05813953488372192,
          "durationTicks": 5,
          "midi": 53,
          "name": "F3",
          "ticks": 10749,
          "time": 124.98837209302326,
          "velocity": 0.2283464566929134
        },
        {
          "duration": 0.2325581395348877,
          "durationTicks": 20,
          "midi": 87,
          "name": "D#6",
          "ticks": 10749,
          "time": 124.98837209302326,
          "velocity": 0.11811023622047244
        },
        {
          "duration": 0.04651162790698038,
          "durationTicks": 4,
          "midi": 91,
          "name": "G6",
          "ticks": 10749,
          "time": 124.98837209302326,
          "velocity": 0.07874015748031496
        },
        {
          "duration": 0.03488372093023884,
          "durationTicks": 3,
          "midi": 84,
          "name": "C6",
          "ticks": 10750,
          "time": 125,
          "velocity": 0.14173228346456693
        },
        {
          "duration": 0.081395348837205,
          "durationTicks": 7,
          "midi": 62,
          "name": "D4",
          "ticks": 10751,
          "time": 125.01162790697674,
          "velocity": 0.23622047244094488
        },
        {
          "duration": 0.06976744186046346,
          "durationTicks": 6,
          "midi": 72,
          "name": "C5",
          "ticks": 10751,
          "time": 125.01162790697674,
          "velocity": 0.2047244094488189
        },
        {
          "duration": 0.15116279069766847,
          "durationTicks": 13,
          "midi": 38,
          "name": "D2",
          "ticks": 10753,
          "time": 125.03488372093024,
          "velocity": 0.16535433070866143
        },
        {
          "duration": 0.06976744186046346,
          "durationTicks": 6,
          "midi": 53,
          "name": "F3",
          "ticks": 10755,
          "time": 125.05813953488372,
          "velocity": 0.2677165354330709
        },
        {
          "duration": 0.081395348837205,
          "durationTicks": 7,
          "midi": 62,
          "name": "D4",
          "ticks": 10759,
          "time": 125.1046511627907,
          "velocity": 0.16535433070866143
        },
        {
          "duration": 0.05813953488372192,
          "durationTicks": 5,
          "midi": 72,
          "name": "C5",
          "ticks": 10761,
          "time": 125.12790697674419,
          "velocity": 0.11023622047244094
        },
        {
          "duration": 0.023255813953497295,
          "durationTicks": 2,
          "midi": 51,
          "name": "D#3",
          "ticks": 10767,
          "time": 125.19767441860465,
          "velocity": 0.2440944881889764
        },
        {
          "duration": 0.2674418604651123,
          "durationTicks": 23,
          "midi": 64,
          "name": "E4",
          "ticks": 10767,
          "time": 125.19767441860465,
          "velocity": 0.33858267716535434
        },
        {
          "duration": 0.2325581395348877,
          "durationTicks": 20,
          "midi": 59,
          "name": "B3",
          "ticks": 10768,
          "time": 125.20930232558139,
          "velocity": 0.28346456692913385
        },
        {
          "duration": 0.22093023255814614,
          "durationTicks": 19,
          "midi": 82,
          "name": "A#5",
          "ticks": 10768,
          "time": 125.20930232558139,
          "velocity": 0.14173228346456693
        },
        {
          "duration": 0.23255813953487348,
          "durationTicks": 20,
          "midi": 67,
          "name": "G4",
          "ticks": 10769,
          "time": 125.22093023255815,
          "velocity": 0.25196850393700787
        },
        {
          "duration": 0.023255813953483084,
          "durationTicks": 2,
          "midi": 39,
          "name": "D#2",
          "ticks": 10770,
          "time": 125.23255813953489,
          "velocity": 0.2440944881889764
        },
        {
          "duration": 0.03488372093023884,
          "durationTicks": 3,
          "midi": 40,
          "name": "E2",
          "ticks": 10772,
          "time": 125.25581395348837,
          "velocity": 0.23622047244094488
        },
        {
          "duration": 0.06976744186046346,
          "durationTicks": 6,
          "midi": 87,
          "name": "D#6",
          "ticks": 10773,
          "time": 125.26744186046511,
          "velocity": 0.15748031496062992
        },
        {
          "duration": 0.04651162790696617,
          "durationTicks": 4,
          "midi": 52,
          "name": "E3",
          "ticks": 10775,
          "time": 125.29069767441861,
          "velocity": 0.18110236220472442
        },
        {
          "duration": 0.22093023255813193,
          "durationTicks": 19,
          "midi": 40,
          "name": "E2",
          "ticks": 10776,
          "time": 125.30232558139535,
          "velocity": 0.2440944881889764
        },
        {
          "duration": 0.04651162790696617,
          "durationTicks": 4,
          "midi": 55,
          "name": "G3",
          "ticks": 10780,
          "time": 125.34883720930233,
          "velocity": 0.15748031496062992
        },
        {
          "duration": 0.24418604651162923,
          "durationTicks": 21,
          "midi": 86,
          "name": "D6",
          "ticks": 10786,
          "time": 125.4186046511628,
          "velocity": 0.33070866141732286
        },
        {
          "duration": 0.6860465116279073,
          "durationTicks": 59,
          "midi": 77,
          "name": "F5",
          "ticks": 10787,
          "time": 125.43023255813954,
          "velocity": 0.41732283464566927
        },
        {
          "duration": 0.24418604651162923,
          "durationTicks": 21,
          "midi": 81,
          "name": "A5",
          "ticks": 10787,
          "time": 125.43023255813954,
          "velocity": 0.2204724409448819
        },
        {
          "duration": 0.2325581395348877,
          "durationTicks": 20,
          "midi": 60,
          "name": "C4",
          "ticks": 10806,
          "time": 125.65116279069767,
          "velocity": 0.36220472440944884
        },
        {
          "duration": 0.2325581395348877,
          "durationTicks": 20,
          "midi": 65,
          "name": "F4",
          "ticks": 10806,
          "time": 125.65116279069767,
          "velocity": 0.33858267716535434
        },
        {
          "duration": 0.04651162790696617,
          "durationTicks": 4,
          "midi": 45,
          "name": "A2",
          "ticks": 10807,
          "time": 125.66279069767442,
          "velocity": 0.2047244094488189
        },
        {
          "duration": 0.17441860465115155,
          "durationTicks": 15,
          "midi": 69,
          "name": "A4",
          "ticks": 10807,
          "time": 125.66279069767442,
          "velocity": 0.14960629921259844
        },
        {
          "duration": 0.04651162790696617,
          "durationTicks": 4,
          "midi": 88,
          "name": "E6",
          "ticks": 10807,
          "time": 125.66279069767442,
          "velocity": 0.12598425196850394
        },
        {
          "duration": 0.06976744186046346,
          "durationTicks": 6,
          "midi": 45,
          "name": "A2",
          "ticks": 10812,
          "time": 125.72093023255815,
          "velocity": 0.23622047244094488
        },
        {
          "duration": 0.03488372093023884,
          "durationTicks": 3,
          "midi": 88,
          "name": "E6",
          "ticks": 10816,
          "time": 125.76744186046511,
          "velocity": 0.07086614173228346
        },
        {
          "duration": 0.04651162790698038,
          "durationTicks": 4,
          "midi": 45,
          "name": "A2",
          "ticks": 10819,
          "time": 125.80232558139535,
          "velocity": 0.2204724409448819
        },
        {
          "duration": 0.22093023255814614,
          "durationTicks": 19,
          "midi": 60,
          "name": "C4",
          "ticks": 10827,
          "time": 125.8953488372093,
          "velocity": 0.3858267716535433
        },
        {
          "duration": 0.24418604651162923,
          "durationTicks": 21,
          "midi": 65,
          "name": "F4",
          "ticks": 10827,
          "time": 125.8953488372093,
          "velocity": 0.3464566929133858
        },
        {
          "duration": 0.22093023255813193,
          "durationTicks": 19,
          "midi": 69,
          "name": "A4",
          "ticks": 10828,
          "time": 125.90697674418605,
          "velocity": 0.13385826771653545
        },
        {
          "duration": 0.04651162790698038,
          "durationTicks": 4,
          "midi": 38,
          "name": "D2",
          "ticks": 10831,
          "time": 125.94186046511628,
          "velocity": 0.18110236220472442
        },
        {
          "duration": 0.12790697674418539,
          "durationTicks": 11,
          "midi": 88,
          "name": "E6",
          "ticks": 10832,
          "time": 125.95348837209302,
          "velocity": 0.08661417322834646
        },
        {
          "duration": 0.11627906976744384,
          "durationTicks": 10,
          "midi": 38,
          "name": "D2",
          "ticks": 10836,
          "time": 126,
          "velocity": 0.14960629921259844
        },
        {
          "duration": 0.034883720930224626,
          "durationTicks": 3,
          "midi": 47,
          "name": "B2",
          "ticks": 10846,
          "time": 126.11627906976744,
          "velocity": 0.29133858267716534
        },
        {
          "duration": 0.023255813953483084,
          "durationTicks": 2,
          "midi": 58,
          "name": "A#3",
          "ticks": 10846,
          "time": 126.11627906976744,
          "velocity": 0.2992125984251969
        },
        {
          "duration": 0.2093023255813904,
          "durationTicks": 18,
          "midi": 76,
          "name": "E5",
          "ticks": 10846,
          "time": 126.11627906976744,
          "velocity": 0.2440944881889764
        },
        {
          "duration": 0.04651162790698038,
          "durationTicks": 4,
          "midi": 83,
          "name": "B5",
          "ticks": 10846,
          "time": 126.11627906976744,
          "velocity": 0.1968503937007874
        },
        {
          "duration": 0.19767441860464885,
          "durationTicks": 17,
          "midi": 67,
          "name": "G4",
          "ticks": 10847,
          "time": 126.12790697674419,
          "velocity": 0.28346456692913385
        },
        {
          "duration": 0.22093023255814614,
          "durationTicks": 19,
          "midi": 71,
          "name": "B4",
          "ticks": 10847,
          "time": 126.12790697674419,
          "velocity": 0.28346456692913385
        },
        {
          "duration": 0.023255813953497295,
          "durationTicks": 2,
          "midi": 59,
          "name": "B3",
          "ticks": 10848,
          "time": 126.13953488372093,
          "velocity": 0.33070866141732286
        },
        {
          "duration": 0.19767441860464885,
          "durationTicks": 17,
          "midi": 64,
          "name": "E4",
          "ticks": 10848,
          "time": 126.13953488372093,
          "velocity": 0.25196850393700787
        },
        {
          "duration": 0.2674418604651265,
          "durationTicks": 23,
          "midi": 74,
          "name": "D5",
          "ticks": 10848,
          "time": 126.13953488372093,
          "velocity": 0.14960629921259844
        },
        {
          "duration": 0.023255813953497295,
          "durationTicks": 2,
          "midi": 48,
          "name": "C3",
          "ticks": 10849,
          "time": 126.15116279069767,
          "velocity": 0.2440944881889764
        },
        {
          "duration": 0.04651162790698038,
          "durationTicks": 4,
          "midi": 48,
          "name": "C3",
          "ticks": 10852,
          "time": 126.18604651162791,
          "velocity": 0.23622047244094488
        },
        {
          "duration": 0.11627906976744384,
          "durationTicks": 10,
          "midi": 59,
          "name": "B3",
          "ticks": 10853,
          "time": 126.19767441860465,
          "velocity": 0.2755905511811024
        },
        {
          "duration": 0.03488372093023884,
          "durationTicks": 3,
          "midi": 55,
          "name": "G3",
          "ticks": 10854,
          "time": 126.20930232558139,
          "velocity": 0.15748031496062992
        },
        {
          "duration": 0.04651162790698038,
          "durationTicks": 4,
          "midi": 48,
          "name": "C3",
          "ticks": 10857,
          "time": 126.24418604651163,
          "velocity": 0.1889763779527559
        },
        {
          "duration": 0.05813953488372192,
          "durationTicks": 5,
          "midi": 48,
          "name": "C3",
          "ticks": 10862,
          "time": 126.30232558139535,
          "velocity": 0.1889763779527559
        },
        {
          "duration": 0.2674418604651265,
          "durationTicks": 23,
          "midi": 60,
          "name": "C4",
          "ticks": 10865,
          "time": 126.33720930232558,
          "velocity": 0.3464566929133858
        },
        {
          "duration": 0.2674418604651265,
          "durationTicks": 23,
          "midi": 65,
          "name": "F4",
          "ticks": 10865,
          "time": 126.33720930232558,
          "velocity": 0.33858267716535434
        },
        {
          "duration": 0.04651162790698038,
          "durationTicks": 4,
          "midi": 88,
          "name": "E6",
          "ticks": 10865,
          "time": 126.33720930232558,
          "velocity": 0.13385826771653545
        },
        {
          "duration": 0.04651162790698038,
          "durationTicks": 4,
          "midi": 91,
          "name": "G6",
          "ticks": 10865,
          "time": 126.33720930232558,
          "velocity": 0.08661417322834646
        },
        {
          "duration": 0.48837209302324425,
          "durationTicks": 42,
          "midi": 69,
          "name": "A4",
          "ticks": 10866,
          "time": 126.34883720930233,
          "velocity": 0.36220472440944884
        },
        {
          "duration": 0.46511627906976116,
          "durationTicks": 40,
          "midi": 77,
          "name": "F5",
          "ticks": 10866,
          "time": 126.34883720930233,
          "velocity": 0.4409448818897638
        },
        {
          "duration": 0.04651162790696617,
          "durationTicks": 4,
          "midi": 85,
          "name": "C#6",
          "ticks": 10866,
          "time": 126.34883720930233,
          "velocity": 0.08661417322834646
        },
        {
          "duration": 0.04651162790698038,
          "durationTicks": 4,
          "midi": 88,
          "name": "E6",
          "ticks": 10873,
          "time": 126.43023255813954,
          "velocity": 0.08661417322834646
        },
        {
          "duration": 0.081395348837205,
          "durationTicks": 7,
          "midi": 57,
          "name": "A3",
          "ticks": 10884,
          "time": 126.55813953488372,
          "velocity": 0.18110236220472442
        },
        {
          "duration": 1.1976744186046488,
          "durationTicks": 103,
          "midi": 74,
          "name": "D5",
          "ticks": 10884,
          "time": 126.55813953488372,
          "velocity": 0.49606299212598426
        },
        {
          "duration": 0.023255813953483084,
          "durationTicks": 2,
          "midi": 48,
          "name": "C3",
          "ticks": 10885,
          "time": 126.56976744186046,
          "velocity": 0.2440944881889764
        },
        {
          "duration": 0.19767441860464885,
          "durationTicks": 17,
          "midi": 45,
          "name": "A2",
          "ticks": 10889,
          "time": 126.61627906976744,
          "velocity": 0.2440944881889764
        },
        {
          "duration": 0.034883720930224626,
          "durationTicks": 3,
          "midi": 65,
          "name": "F4",
          "ticks": 10889,
          "time": 126.61627906976744,
          "velocity": 0.13385826771653545
        },
        {
          "duration": 0.15116279069768268,
          "durationTicks": 13,
          "midi": 72,
          "name": "C5",
          "ticks": 10891,
          "time": 126.63953488372093,
          "velocity": 0.18110236220472442
        },
        {
          "duration": 0.06976744186046346,
          "durationTicks": 6,
          "midi": 60,
          "name": "C4",
          "ticks": 10894,
          "time": 126.67441860465117,
          "velocity": 0.15748031496062992
        },
        {
          "duration": 0.23255813953487348,
          "durationTicks": 20,
          "midi": 62,
          "name": "D4",
          "ticks": 10904,
          "time": 126.79069767441861,
          "velocity": 0.30708661417322836
        },
        {
          "duration": 0.081395348837205,
          "durationTicks": 7,
          "midi": 88,
          "name": "E6",
          "ticks": 10904,
          "time": 126.79069767441861,
          "velocity": 0.18110236220472442
        },
        {
          "duration": 0.2325581395348877,
          "durationTicks": 20,
          "midi": 72,
          "name": "C5",
          "ticks": 10905,
          "time": 126.80232558139535,
          "velocity": 0.44881889763779526
        },
        {
          "duration": 0.25581395348837077,
          "durationTicks": 22,
          "midi": 76,
          "name": "E5",
          "ticks": 10905,
          "time": 126.80232558139535,
          "velocity": 0.41732283464566927
        },
        {
          "duration": 0.2674418604651123,
          "durationTicks": 23,
          "midi": 79,
          "name": "G5",
          "ticks": 10905,
          "time": 126.80232558139535,
          "velocity": 0.16535433070866143
        },
        {
          "duration": 0.081395348837205,
          "durationTicks": 7,
          "midi": 85,
          "name": "C#6",
          "ticks": 10906,
          "time": 126.81395348837209,
          "velocity": 0.11023622047244094
        },
        {
          "duration": 0.34883720930233153,
          "durationTicks": 30,
          "midi": 87,
          "name": "D#6",
          "ticks": 10906,
          "time": 126.81395348837209,
          "velocity": 0.10236220472440945
        },
        {
          "duration": 0.19767441860464885,
          "durationTicks": 17,
          "midi": 67,
          "name": "G4",
          "ticks": 10907,
          "time": 126.82558139534883,
          "velocity": 0.3779527559055118
        },
        {
          "duration": 0.17441860465116577,
          "durationTicks": 15,
          "midi": 53,
          "name": "F3",
          "ticks": 10908,
          "time": 126.83720930232558,
          "velocity": 0.25984251968503935
        },
        {
          "duration": 0.04651162790696617,
          "durationTicks": 4,
          "midi": 45,
          "name": "A2",
          "ticks": 10909,
          "time": 126.84883720930233,
          "velocity": 0.11023622047244094
        },
        {
          "duration": 0.06976744186046346,
          "durationTicks": 6,
          "midi": 57,
          "name": "A3",
          "ticks": 10915,
          "time": 126.9186046511628,
          "velocity": 0.13385826771653545
        },
        {
          "duration": 0.04651162790698038,
          "durationTicks": 4,
          "midi": 65,
          "name": "F4",
          "ticks": 10923,
          "time": 127.01162790697674,
          "velocity": 0.4330708661417323
        },
        {
          "duration": 0.2674418604651123,
          "durationTicks": 23,
          "midi": 69,
          "name": "A4",
          "ticks": 10923,
          "time": 127.01162790697674,
          "velocity": 0.3464566929133858
        },
        {
          "duration": 0.05813953488372192,
          "durationTicks": 5,
          "midi": 83,
          "name": "B5",
          "ticks": 10924,
          "time": 127.02325581395348,
          "velocity": 0.2204724409448819
        },
        {
          "duration": 0.19767441860464885,
          "durationTicks": 17,
          "midi": 59,
          "name": "B3",
          "ticks": 10925,
          "time": 127.03488372093024,
          "velocity": 0.30708661417322836
        },
        {
          "duration": 0.2093023255813904,
          "durationTicks": 18,
          "midi": 84,
          "name": "C6",
          "ticks": 10925,
          "time": 127.03488372093024,
          "velocity": 0.15748031496062992
        },
        {
          "duration": 0.081395348837205,
          "durationTicks": 7,
          "midi": 88,
          "name": "E6",
          "ticks": 10927,
          "time": 127.05813953488372,
          "velocity": 0.07086614173228346
        },
        {
          "duration": 0.12790697674418539,
          "durationTicks": 11,
          "midi": 40,
          "name": "E2",
          "ticks": 10928,
          "time": 127.06976744186046,
          "velocity": 0.2440944881889764
        },
        {
          "duration": 0.13953488372092693,
          "durationTicks": 12,
          "midi": 65,
          "name": "F4",
          "ticks": 10928,
          "time": 127.06976744186046,
          "velocity": 0.41732283464566927
        },
        {
          "duration": 0.05813953488372192,
          "durationTicks": 5,
          "midi": 76,
          "name": "E5",
          "ticks": 10928,
          "time": 127.06976744186046,
          "velocity": 0.2440944881889764
        },
        {
          "duration": 0.08139534883721922,
          "durationTicks": 7,
          "midi": 40,
          "name": "E2",
          "ticks": 10940,
          "time": 127.20930232558139,
          "velocity": 0.23622047244094488
        },
        {
          "duration": 0.2674418604651265,
          "durationTicks": 23,
          "midi": 76,
          "name": "E5",
          "ticks": 10940,
          "time": 127.20930232558139,
          "velocity": 0.4251968503937008
        },
        {
          "duration": 0.05813953488370771,
          "durationTicks": 5,
          "midi": 65,
          "name": "F4",
          "ticks": 10941,
          "time": 127.22093023255815,
          "velocity": 0.3228346456692913
        },
        {
          "duration": 0.034883720930224626,
          "durationTicks": 3,
          "midi": 59,
          "name": "B3",
          "ticks": 10943,
          "time": 127.24418604651163,
          "velocity": 0.13385826771653545
        },
        {
          "duration": 0.27906976744185386,
          "durationTicks": 24,
          "midi": 72,
          "name": "C5",
          "ticks": 10943,
          "time": 127.24418604651163,
          "velocity": 0.44881889763779526
        },
        {
          "duration": 0.25581395348837077,
          "durationTicks": 22,
          "midi": 79,
          "name": "G5",
          "ticks": 10944,
          "time": 127.25581395348837,
          "velocity": 0.16535433070866143
        },
        {
          "duration": 0.22093023255814614,
          "durationTicks": 19,
          "midi": 67,
          "name": "G4",
          "ticks": 10945,
          "time": 127.26744186046511,
          "velocity": 0.3700787401574803
        },
        {
          "duration": 0.04651162790698038,
          "durationTicks": 4,
          "midi": 40,
          "name": "E2",
          "ticks": 10949,
          "time": 127.31395348837209,
          "velocity": 0.13385826771653545
        },
        {
          "duration": 0.023255813953483084,
          "durationTicks": 2,
          "midi": 44,
          "name": "G#2",
          "ticks": 10963,
          "time": 127.47674418604652,
          "velocity": 0.2755905511811024
        },
        {
          "duration": 0.081395348837205,
          "durationTicks": 7,
          "midi": 77,
          "name": "F5",
          "ticks": 10963,
          "time": 127.47674418604652,
          "velocity": 0.41732283464566927
        },
        {
          "duration": 0.1860465116279073,
          "durationTicks": 16,
          "midi": 83,
          "name": "B5",
          "ticks": 10963,
          "time": 127.47674418604652,
          "velocity": 0.2125984251968504
        },
        {
          "duration": 0.2674418604651123,
          "durationTicks": 23,
          "midi": 43,
          "name": "G2",
          "ticks": 10965,
          "time": 127.5,
          "velocity": 0.3228346456692913
        },
        {
          "duration": 0.40697674418605345,
          "durationTicks": 35,
          "midi": 67,
          "name": "G4",
          "ticks": 10967,
          "time": 127.52325581395348,
          "velocity": 0.3937007874015748
        },
        {
          "duration": 0.17441860465116577,
          "durationTicks": 15,
          "midi": 76,
          "name": "E5",
          "ticks": 10969,
          "time": 127.54651162790698,
          "velocity": 0.4409448818897638
        },
        {
          "duration": 0.13953488372092693,
          "durationTicks": 12,
          "midi": 62,
          "name": "D4",
          "ticks": 10970,
          "time": 127.55813953488372,
          "velocity": 0.09448818897637795
        },
        {
          "duration": 0.13953488372092693,
          "durationTicks": 12,
          "midi": 72,
          "name": "C5",
          "ticks": 10970,
          "time": 127.55813953488372,
          "velocity": 0.1968503937007874
        },
        {
          "duration": 0.04651162790696617,
          "durationTicks": 4,
          "midi": 50,
          "name": "D3",
          "ticks": 10974,
          "time": 127.6046511627907,
          "velocity": 0.09448818897637795
        },
        {
          "duration": 0.03488372093023884,
          "durationTicks": 3,
          "midi": 54,
          "name": "F#3",
          "ticks": 10982,
          "time": 127.69767441860465,
          "velocity": 0.14960629921259844
        },
        {
          "duration": 0.2906976744186096,
          "durationTicks": 25,
          "midi": 82,
          "name": "A#5",
          "ticks": 10982,
          "time": 127.69767441860465,
          "velocity": 0.41732283464566927
        },
        {
          "duration": 0.2325581395348877,
          "durationTicks": 20,
          "midi": 62,
          "name": "D4",
          "ticks": 10983,
          "time": 127.70930232558139,
          "velocity": 0.3228346456692913
        },
        {
          "duration": 0.16279069767442422,
          "durationTicks": 14,
          "midi": 70,
          "name": "A#4",
          "ticks": 10983,
          "time": 127.70930232558139,
          "velocity": 0.1889763779527559
        },
        {
          "duration": 0.22093023255814614,
          "durationTicks": 19,
          "midi": 77,
          "name": "F5",
          "ticks": 10983,
          "time": 127.70930232558139,
          "velocity": 0.4251968503937008
        },
        {
          "duration": 0.03488372093023884,
          "durationTicks": 3,
          "midi": 95,
          "name": "B6",
          "ticks": 10983,
          "time": 127.70930232558139,
          "velocity": 0.07086614173228346
        },
        {
          "duration": 0.19767441860464885,
          "durationTicks": 17,
          "midi": 72,
          "name": "C5",
          "ticks": 10984,
          "time": 127.72093023255815,
          "velocity": 0.1968503937007874
        },
        {
          "duration": 0.081395348837205,
          "durationTicks": 7,
          "midi": 90,
          "name": "F#6",
          "ticks": 10984,
          "time": 127.72093023255815,
          "velocity": 0.12598425196850394
        },
        {
          "duration": 0.09302325581396076,
          "durationTicks": 8,
          "midi": 58,
          "name": "A#3",
          "ticks": 10988,
          "time": 127.76744186046511,
          "velocity": 0.2047244094488189
        },
        {
          "duration": 0.15116279069768268,
          "durationTicks": 13,
          "midi": 43,
          "name": "G2",
          "ticks": 10989,
          "time": 127.77906976744185,
          "velocity": 0.2047244094488189
        },
        {
          "duration": 0.034883720930224626,
          "durationTicks": 3,
          "midi": 90,
          "name": "F#6",
          "ticks": 10995,
          "time": 127.84883720930233,
          "velocity": 0.07874015748031496
        },
        {
          "duration": 0.05813953488372192,
          "durationTicks": 5,
          "midi": 58,
          "name": "A#3",
          "ticks": 10997,
          "time": 127.87209302325581,
          "velocity": 0.2125984251968504
        },
        {
          "duration": 0.5465116279069662,
          "durationTicks": 47,
          "midi": 70,
          "name": "A#4",
          "ticks": 10998,
          "time": 127.88372093023256,
          "velocity": 0.4251968503937008
        },
        {
          "duration": 1.1511627906976827,
          "durationTicks": 99,
          "midi": 74,
          "name": "D5",
          "ticks": 11001,
          "time": 127.9186046511628,
          "velocity": 0.4251968503937008
        },
        {
          "duration": 0.22093023255813193,
          "durationTicks": 19,
          "midi": 53,
          "name": "F3",
          "ticks": 11002,
          "time": 127.93023255813954,
          "velocity": 0.29133858267716534
        },
        {
          "duration": 0.3488372093023173,
          "durationTicks": 30,
          "midi": 84,
          "name": "C6",
          "ticks": 11002,
          "time": 127.93023255813954,
          "velocity": 0.2677165354330709
        },
        {
          "duration": 0.06976744186046346,
          "durationTicks": 6,
          "midi": 88,
          "name": "E6",
          "ticks": 11002,
          "time": 127.93023255813954,
          "velocity": 0.16535433070866143
        },
        {
          "duration": 0.22093023255813193,
          "durationTicks": 19,
          "midi": 60,
          "name": "C4",
          "ticks": 11003,
          "time": 127.94186046511628,
          "velocity": 0.36220472440944884
        },
        {
          "duration": 0.06976744186046346,
          "durationTicks": 6,
          "midi": 87,
          "name": "D#6",
          "ticks": 11003,
          "time": 127.94186046511628,
          "velocity": 0.15748031496062992
        },
        {
          "duration": 0.04651162790698038,
          "durationTicks": 4,
          "midi": 93,
          "name": "A6",
          "ticks": 11003,
          "time": 127.94186046511628,
          "velocity": 0.11023622047244094
        },
        {
          "duration": 0.2906976744186096,
          "durationTicks": 25,
          "midi": 65,
          "name": "F4",
          "ticks": 11004,
          "time": 127.95348837209302,
          "velocity": 0.41732283464566927
        },
        {
          "duration": 0.05813953488370771,
          "durationTicks": 5,
          "midi": 41,
          "name": "F2",
          "ticks": 11006,
          "time": 127.97674418604652,
          "velocity": 0.13385826771653545
        },
        {
          "duration": 0.04651162790696617,
          "durationTicks": 4,
          "midi": 83,
          "name": "B5",
          "ticks": 11007,
          "time": 127.98837209302326,
          "velocity": 0.13385826771653545
        },
        {
          "duration": 0.3720930232558146,
          "durationTicks": 32,
          "midi": 81,
          "name": "A5",
          "ticks": 11008,
          "time": 128,
          "velocity": 0.14173228346456693
        },
        {
          "duration": 0.04651162790699459,
          "durationTicks": 4,
          "midi": 88,
          "name": "E6",
          "ticks": 11011,
          "time": 128.03488372093022,
          "velocity": 0.11023622047244094
        },
        {
          "duration": 0.03488372093025305,
          "durationTicks": 3,
          "midi": 83,
          "name": "B5",
          "ticks": 11012,
          "time": 128.04651162790697,
          "velocity": 0.09448818897637795
        },
        {
          "duration": 0.05813953488373613,
          "durationTicks": 5,
          "midi": 87,
          "name": "D#6",
          "ticks": 11013,
          "time": 128.0581395348837,
          "velocity": 0.12598425196850394
        },
        {
          "duration": 0.05813953488370771,
          "durationTicks": 5,
          "midi": 41,
          "name": "F2",
          "ticks": 11016,
          "time": 128.09302325581396,
          "velocity": 0.11811023622047244
        },
        {
          "duration": 0.04651162790696617,
          "durationTicks": 4,
          "midi": 88,
          "name": "E6",
          "ticks": 11018,
          "time": 128.11627906976744,
          "velocity": 0.11023622047244094
        },
        {
          "duration": 0.03488372093025305,
          "durationTicks": 3,
          "midi": 44,
          "name": "G#2",
          "ticks": 11022,
          "time": 128.1627906976744,
          "velocity": 0.2204724409448819
        },
        {
          "duration": 0.4418604651162923,
          "durationTicks": 38,
          "midi": 62,
          "name": "D4",
          "ticks": 11022,
          "time": 128.1627906976744,
          "velocity": 0.3228346456692913
        },
        {
          "duration": 0.2790697674418823,
          "durationTicks": 24,
          "midi": 79,
          "name": "G5",
          "ticks": 11022,
          "time": 128.1627906976744,
          "velocity": 0.14960629921259844
        },
        {
          "duration": 0.22093023255814614,
          "durationTicks": 19,
          "midi": 83,
          "name": "B5",
          "ticks": 11022,
          "time": 128.1627906976744,
          "velocity": 0.15748031496062992
        },
        {
          "duration": 0.2093023255814046,
          "durationTicks": 18,
          "midi": 67,
          "name": "G4",
          "ticks": 11024,
          "time": 128.1860465116279,
          "velocity": 0.33070866141732286
        },
        {
          "duration": 0.04651162790696617,
          "durationTicks": 4,
          "midi": 58,
          "name": "A#3",
          "ticks": 11025,
          "time": 128.19767441860466,
          "velocity": 0.2283464566929134
        },
        {
          "duration": 0.6511627906976685,
          "durationTicks": 56,
          "midi": 77,
          "name": "F5",
          "ticks": 11025,
          "time": 128.19767441860466,
          "velocity": 0.4330708661417323
        },
        {
          "duration": 0.0813953488371908,
          "durationTicks": 7,
          "midi": 43,
          "name": "G2",
          "ticks": 11027,
          "time": 128.22093023255815,
          "velocity": 0.1732283464566929
        },
        {
          "duration": 0.04651162790696617,
          "durationTicks": 4,
          "midi": 65,
          "name": "F4",
          "ticks": 11030,
          "time": 128.25581395348837,
          "velocity": 0.2047244094488189
        },
        {
          "duration": 0.03488372093025305,
          "durationTicks": 3,
          "midi": 58,
          "name": "A#3",
          "ticks": 11033,
          "time": 128.2906976744186,
          "velocity": 0.1889763779527559
        },
        {
          "duration": 0.034883720930224626,
          "durationTicks": 3,
          "midi": 65,
          "name": "F4",
          "ticks": 11035,
          "time": 128.3139534883721,
          "velocity": 0.16535433070866143
        },
        {
          "duration": 0.05813953488370771,
          "durationTicks": 5,
          "midi": 43,
          "name": "G2",
          "ticks": 11036,
          "time": 128.32558139534885,
          "velocity": 0.11811023622047244
        },
        {
          "duration": 0.1046511627907023,
          "durationTicks": 9,
          "midi": 65,
          "name": "F4",
          "ticks": 11039,
          "time": 128.36046511627907,
          "velocity": 0.16535433070866143
        },
        {
          "duration": 0.023255813953483084,
          "durationTicks": 2,
          "midi": 42,
          "name": "F#2",
          "ticks": 11041,
          "time": 128.38372093023256,
          "velocity": 0.25984251968503935
        },
        {
          "duration": 0.04651162790699459,
          "durationTicks": 4,
          "midi": 83,
          "name": "B5",
          "ticks": 11042,
          "time": 128.3953488372093,
          "velocity": 0.18110236220472442
        },
        {
          "duration": 0.19767441860466306,
          "durationTicks": 17,
          "midi": 43,
          "name": "G2",
          "ticks": 11043,
          "time": 128.40697674418604,
          "velocity": 0.33070866141732286
        },
        {
          "duration": 0.04651162790696617,
          "durationTicks": 4,
          "midi": 83,
          "name": "B5",
          "ticks": 11048,
          "time": 128.46511627906978,
          "velocity": 0.1732283464566929
        },
        {
          "duration": 0.17441860465115155,
          "durationTicks": 15,
          "midi": 85,
          "name": "C#6",
          "ticks": 11048,
          "time": 128.46511627906978,
          "velocity": 0.08661417322834646
        },
        {
          "duration": 0.04651162790696617,
          "durationTicks": 4,
          "midi": 50,
          "name": "D3",
          "ticks": 11051,
          "time": 128.5,
          "velocity": 0.09448818897637795
        },
        {
          "duration": 0.06976744186047767,
          "durationTicks": 6,
          "midi": 65,
          "name": "F4",
          "ticks": 11053,
          "time": 128.52325581395348,
          "velocity": 0.11023622047244094
        },
        {
          "duration": 0.05813953488373613,
          "durationTicks": 5,
          "midi": 83,
          "name": "B5",
          "ticks": 11054,
          "time": 128.53488372093022,
          "velocity": 0.15748031496062992
        },
        {
          "duration": 0.06976744186047767,
          "durationTicks": 6,
          "midi": 50,
          "name": "D3",
          "ticks": 11056,
          "time": 128.5581395348837,
          "velocity": 0.2283464566929134
        },
        {
          "duration": 0.04651162790696617,
          "durationTicks": 4,
          "midi": 59,
          "name": "B3",
          "ticks": 11058,
          "time": 128.58139534883722,
          "velocity": 0.16535433070866143
        },
        {
          "duration": 0.023255813953483084,
          "durationTicks": 2,
          "midi": 63,
          "name": "D#4",
          "ticks": 11060,
          "time": 128.6046511627907,
          "velocity": 0.2283464566929134
        },
        {
          "duration": 0.05813953488370771,
          "durationTicks": 5,
          "midi": 72,
          "name": "C5",
          "ticks": 11061,
          "time": 128.61627906976744,
          "velocity": 0.18110236220472442
        },
        {
          "duration": 0.034883720930224626,
          "durationTicks": 3,
          "midi": 83,
          "name": "B5",
          "ticks": 11061,
          "time": 128.61627906976744,
          "velocity": 0.13385826771653545
        },
        {
          "duration": 0.023255813953483084,
          "durationTicks": 2,
          "midi": 62,
          "name": "D4",
          "ticks": 11062,
          "time": 128.62790697674419,
          "velocity": 0.23622047244094488
        },
        {
          "duration": 0.25581395348837077,
          "durationTicks": 22,
          "midi": 65,
          "name": "F4",
          "ticks": 11062,
          "time": 128.62790697674419,
          "velocity": 0.4409448818897638
        },
        {
          "duration": 0.3139534883721069,
          "durationTicks": 27,
          "midi": 87,
          "name": "D#6",
          "ticks": 11062,
          "time": 128.62790697674419,
          "velocity": 0.1732283464566929
        },
        {
          "duration": 0.2325581395348877,
          "durationTicks": 20,
          "midi": 88,
          "name": "E6",
          "ticks": 11064,
          "time": 128.65116279069767,
          "velocity": 0.13385826771653545
        },
        {
          "duration": 0.08139534883721922,
          "durationTicks": 7,
          "midi": 62,
          "name": "D4",
          "ticks": 11065,
          "time": 128.6627906976744,
          "velocity": 0.2440944881889764
        },
        {
          "duration": 0.023255813953511506,
          "durationTicks": 2,
          "midi": 51,
          "name": "D#3",
          "ticks": 11066,
          "time": 128.67441860465115,
          "velocity": 0.2677165354330709
        },
        {
          "duration": 0.08139534883721922,
          "durationTicks": 7,
          "midi": 72,
          "name": "C5",
          "ticks": 11067,
          "time": 128.6860465116279,
          "velocity": 0.1732283464566929
        },
        {
          "duration": 0.11627906976744384,
          "durationTicks": 10,
          "midi": 38,
          "name": "D2",
          "ticks": 11070,
          "time": 128.72093023255815,
          "velocity": 0.18110236220472442
        },
        {
          "duration": 0.023255813953483084,
          "durationTicks": 2,
          "midi": 53,
          "name": "F3",
          "ticks": 11071,
          "time": 128.7325581395349,
          "velocity": 0.2283464566929134
        },
        {
          "duration": 0.08139534883721922,
          "durationTicks": 7,
          "midi": 62,
          "name": "D4",
          "ticks": 11073,
          "time": 128.75581395348837,
          "velocity": 0.16535433070866143
        },
        {
          "duration": 0.06976744186047767,
          "durationTicks": 6,
          "midi": 81,
          "name": "A5",
          "ticks": 11076,
          "time": 128.7906976744186,
          "velocity": 0.09448818897637795
        },
        {
          "duration": 0.05813953488373613,
          "durationTicks": 5,
          "midi": 69,
          "name": "A4",
          "ticks": 11077,
          "time": 128.80232558139534,
          "velocity": 0.14960629921259844
        },
        {
          "duration": 0.03488372093025305,
          "durationTicks": 3,
          "midi": 72,
          "name": "C5",
          "ticks": 11077,
          "time": 128.80232558139534,
          "velocity": 0.10236220472440945
        },
        {
          "duration": 0.023255813953483084,
          "durationTicks": 2,
          "midi": 50,
          "name": "D3",
          "ticks": 11079,
          "time": 128.82558139534885,
          "velocity": 0.2677165354330709
        },
        {
          "duration": 0.2674418604651123,
          "durationTicks": 23,
          "midi": 59,
          "name": "B3",
          "ticks": 11080,
          "time": 128.8372093023256,
          "velocity": 0.29133858267716534
        },
        {
          "duration": 0.2674418604651123,
          "durationTicks": 23,
          "midi": 76,
          "name": "E5",
          "ticks": 11080,
          "time": 128.8372093023256,
          "velocity": 0.2204724409448819
        },
        {
          "duration": 0.11627906976744384,
          "durationTicks": 10,
          "midi": 83,
          "name": "B5",
          "ticks": 11081,
          "time": 128.84883720930233,
          "velocity": 0.18110236220472442
        },
        {
          "duration": 0.09302325581396076,
          "durationTicks": 8,
          "midi": 84,
          "name": "C6",
          "ticks": 11081,
          "time": 128.84883720930233,
          "velocity": 0.09448818897637795
        },
        {
          "duration": 0.06976744186044925,
          "durationTicks": 6,
          "midi": 91,
          "name": "G6",
          "ticks": 11081,
          "time": 128.84883720930233,
          "velocity": 0.07874015748031496
        },
        {
          "duration": 0.05813953488370771,
          "durationTicks": 5,
          "midi": 72,
          "name": "C5",
          "ticks": 11082,
          "time": 128.86046511627907,
          "velocity": 0.28346456692913385
        },
        {
          "duration": 0.023255813953483084,
          "durationTicks": 2,
          "midi": 64,
          "name": "E4",
          "ticks": 11084,
          "time": 128.88372093023256,
          "velocity": 0.29133858267716534
        },
        {
          "duration": 0.12790697674418539,
          "durationTicks": 11,
          "midi": 53,
          "name": "F3",
          "ticks": 11085,
          "time": 128.8953488372093,
          "velocity": 0.30708661417322836
        },
        {
          "duration": 0.1046511627907023,
          "durationTicks": 9,
          "midi": 65,
          "name": "F4",
          "ticks": 11085,
          "time": 128.8953488372093,
          "velocity": 0.3700787401574803
        },
        {
          "duration": 0.023255813953483084,
          "durationTicks": 2,
          "midi": 67,
          "name": "G4",
          "ticks": 11086,
          "time": 128.90697674418604,
          "velocity": 0.25984251968503935
        },
        {
          "duration": 0.12790697674418539,
          "durationTicks": 11,
          "midi": 41,
          "name": "F2",
          "ticks": 11089,
          "time": 128.9418604651163,
          "velocity": 0.14173228346456693
        },
        {
          "duration": 0.023255813953483084,
          "durationTicks": 2,
          "midi": 67,
          "name": "G4",
          "ticks": 11090,
          "time": 128.95348837209303,
          "velocity": 0.2440944881889764
        },
        {
          "duration": 0.06976744186044925,
          "durationTicks": 6,
          "midi": 87,
          "name": "D#6",
          "ticks": 11091,
          "time": 128.96511627906978,
          "velocity": 0.15748031496062992
        },
        {
          "duration": 0.034883720930224626,
          "durationTicks": 3,
          "midi": 67,
          "name": "G4",
          "ticks": 11094,
          "time": 129,
          "velocity": 0.2204724409448819
        },
        {
          "duration": 0.034883720930224626,
          "durationTicks": 3,
          "midi": 65,
          "name": "F4",
          "ticks": 11095,
          "time": 129.01162790697674,
          "velocity": 0.33070866141732286
        },
        {
          "duration": 0.04651162790699459,
          "durationTicks": 4,
          "midi": 53,
          "name": "F3",
          "ticks": 11097,
          "time": 129.03488372093022,
          "velocity": 0.2204724409448819
        },
        {
          "duration": 0.03488372093025305,
          "durationTicks": 3,
          "midi": 67,
          "name": "G4",
          "ticks": 11098,
          "time": 129.04651162790697,
          "velocity": 0.2047244094488189
        },
        {
          "duration": 0.04651162790699459,
          "durationTicks": 4,
          "midi": 65,
          "name": "F4",
          "ticks": 11099,
          "time": 129.0581395348837,
          "velocity": 0.2992125984251969
        },
        {
          "duration": 0.04651162790696617,
          "durationTicks": 4,
          "midi": 44,
          "name": "G#2",
          "ticks": 11101,
          "time": 129.08139534883722,
          "velocity": 0.2125984251968504
        },
        {
          "duration": 0.19767441860463464,
          "durationTicks": 17,
          "midi": 67,
          "name": "G4",
          "ticks": 11102,
          "time": 129.09302325581396,
          "velocity": 0.25196850393700787
        },
        {
          "duration": 0.034883720930224626,
          "durationTicks": 3,
          "midi": 43,
          "name": "G2",
          "ticks": 11105,
          "time": 129.12790697674419,
          "velocity": 0.2125984251968504
        },
        {
          "duration": 0.16279069767441,
          "durationTicks": 14,
          "midi": 74,
          "name": "D5",
          "ticks": 11105,
          "time": 129.12790697674419,
          "velocity": 0.08661417322834646
        },
        {
          "duration": 0.13953488372092693,
          "durationTicks": 12,
          "midi": 55,
          "name": "G3",
          "ticks": 11108,
          "time": 129.1627906976744,
          "velocity": 0.2125984251968504
        },
        {
          "duration": 0.11627906976744384,
          "durationTicks": 10,
          "midi": 43,
          "name": "G2",
          "ticks": 11109,
          "time": 129.17441860465115,
          "velocity": 0.13385826771653545
        },
        {
          "duration": 0.2790697674418823,
          "durationTicks": 24,
          "midi": 62,
          "name": "D4",
          "ticks": 11119,
          "time": 129.2906976744186,
          "velocity": 0.2755905511811024
        },
        {
          "duration": 0.13953488372092693,
          "durationTicks": 12,
          "midi": 70,
          "name": "A#4",
          "ticks": 11119,
          "time": 129.2906976744186,
          "velocity": 0.4566929133858268
        },
        {
          "duration": 0.5232558139535115,
          "durationTicks": 45,
          "midi": 77,
          "name": "F5",
          "ticks": 11119,
          "time": 129.2906976744186,
          "velocity": 0.3700787401574803
        },
        {
          "duration": 0.17441860465117998,
          "durationTicks": 15,
          "midi": 86,
          "name": "D6",
          "ticks": 11119,
          "time": 129.2906976744186,
          "velocity": 0.3464566929133858
        },
        {
          "duration": 0.16279069767443843,
          "durationTicks": 14,
          "midi": 93,
          "name": "A6",
          "ticks": 11119,
          "time": 129.2906976744186,
          "velocity": 0.1732283464566929
        },
        {
          "duration": 0.023255813953511506,
          "durationTicks": 2,
          "midi": 65,
          "name": "F4",
          "ticks": 11120,
          "time": 129.30232558139534,
          "velocity": 0.2440944881889764
        },
        {
          "duration": 0.8837209302325562,
          "durationTicks": 76,
          "midi": 74,
          "name": "D5",
          "ticks": 11120,
          "time": 129.30232558139534,
          "velocity": 0.3858267716535433
        },
        {
          "duration": 0.3604651162790731,
          "durationTicks": 31,
          "midi": 79,
          "name": "G5",
          "ticks": 11120,
          "time": 129.30232558139534,
          "velocity": 0.1968503937007874
        },
        {
          "duration": 0.1511627906976969,
          "durationTicks": 13,
          "midi": 84,
          "name": "C6",
          "ticks": 11120,
          "time": 129.30232558139534,
          "velocity": 0.14960629921259844
        },
        {
          "duration": 0.023255813953483084,
          "durationTicks": 2,
          "midi": 45,
          "name": "A2",
          "ticks": 11121,
          "time": 129.3139534883721,
          "velocity": 0.3779527559055118
        },
        {
          "duration": 0.7558139534883708,
          "durationTicks": 65,
          "midi": 67,
          "name": "G4",
          "ticks": 11121,
          "time": 129.3139534883721,
          "velocity": 0.3858267716535433
        },
        {
          "duration": 0.06976744186044925,
          "durationTicks": 6,
          "midi": 46,
          "name": "A#2",
          "ticks": 11123,
          "time": 129.3372093023256,
          "velocity": 0.3464566929133858
        },
        {
          "duration": 0.06976744186047767,
          "durationTicks": 6,
          "midi": 53,
          "name": "F3",
          "ticks": 11128,
          "time": 129.3953488372093,
          "velocity": 0.09448818897637795
        },
        {
          "duration": 0.09302325581396076,
          "durationTicks": 8,
          "midi": 69,
          "name": "A4",
          "ticks": 11129,
          "time": 129.40697674418604,
          "velocity": 0.41732283464566927
        },
        {
          "duration": 0.1511627906976969,
          "durationTicks": 13,
          "midi": 46,
          "name": "A#2",
          "ticks": 11130,
          "time": 129.41860465116278,
          "velocity": 0.23622047244094488
        },
        {
          "duration": 0.04651162790696617,
          "durationTicks": 4,
          "midi": 84,
          "name": "C6",
          "ticks": 11135,
          "time": 129.47674418604652,
          "velocity": 0.11023622047244094
        },
        {
          "duration": 0.06976744186047767,
          "durationTicks": 6,
          "midi": 65,
          "name": "F4",
          "ticks": 11137,
          "time": 129.5,
          "velocity": 0.2125984251968504
        },
        {
          "duration": 0.034883720930224626,
          "durationTicks": 3,
          "midi": 69,
          "name": "A4",
          "ticks": 11138,
          "time": 129.51162790697674,
          "velocity": 0.3858267716535433
        },
        {
          "duration": 0.24418604651162923,
          "durationTicks": 21,
          "midi": 70,
          "name": "A#4",
          "ticks": 11139,
          "time": 129.52325581395348,
          "velocity": 0.3700787401574803
        },
        {
          "duration": 0.023255813953483084,
          "durationTicks": 2,
          "midi": 58,
          "name": "A#3",
          "ticks": 11159,
          "time": 129.75581395348837,
          "velocity": 0.2440944881889764
        },
        {
          "duration": 0.2906976744185954,
          "durationTicks": 25,
          "midi": 62,
          "name": "D4",
          "ticks": 11159,
          "time": 129.75581395348837,
          "velocity": 0.2677165354330709
        },
        {
          "duration": 0.08139534883721922,
          "durationTicks": 7,
          "midi": 53,
          "name": "F3",
          "ticks": 11160,
          "time": 129.7674418604651,
          "velocity": 0.14173228346456693
        },
        {
          "duration": 0.05813953488373613,
          "durationTicks": 5,
          "midi": 81,
          "name": "A5",
          "ticks": 11160,
          "time": 129.7674418604651,
          "velocity": 0.08661417322834646
        },
        {
          "duration": 0.03488372093025305,
          "durationTicks": 3,
          "midi": 85,
          "name": "C#6",
          "ticks": 11161,
          "time": 129.77906976744185,
          "velocity": 0.07874015748031496
        },
        {
          "duration": 0.06976744186044925,
          "durationTicks": 6,
          "midi": 58,
          "name": "A#3",
          "ticks": 11164,
          "time": 129.8139534883721,
          "velocity": 0.25984251968503935
        },
        {
          "duration": 0.05813953488373613,
          "durationTicks": 5,
          "midi": 58,
          "name": "A#3",
          "ticks": 11171,
          "time": 129.8953488372093,
          "velocity": 0.2283464566929134
        },
        {
          "duration": 0.05813953488370771,
          "durationTicks": 5,
          "midi": 46,
          "name": "A#2",
          "ticks": 11175,
          "time": 129.9418604651163,
          "velocity": 0.08661417322834646
        },
        {
          "duration": 0.05813953488370771,
          "durationTicks": 5,
          "midi": 58,
          "name": "A#3",
          "ticks": 11178,
          "time": 129.97674418604652,
          "velocity": 0.1732283464566929
        },
        {
          "duration": 0.4767441860464885,
          "durationTicks": 41,
          "midi": 69,
          "name": "A4",
          "ticks": 11197,
          "time": 130.19767441860466,
          "velocity": 0.33070866141732286
        },
        {
          "duration": 0.46511627906974695,
          "durationTicks": 40,
          "midi": 73,
          "name": "C#5",
          "ticks": 11197,
          "time": 130.19767441860466,
          "velocity": 0.4645669291338583
        },
        {
          "duration": 0.48837209302323004,
          "durationTicks": 42,
          "midi": 79,
          "name": "G5",
          "ticks": 11197,
          "time": 130.19767441860466,
          "velocity": 0.4015748031496063
        },
        {
          "duration": 0.30232558139533694,
          "durationTicks": 26,
          "midi": 65,
          "name": "F4",
          "ticks": 11198,
          "time": 130.2093023255814,
          "velocity": 0.3543307086614173
        },
        {
          "duration": 0.46511627906974695,
          "durationTicks": 40,
          "midi": 77,
          "name": "F5",
          "ticks": 11198,
          "time": 130.2093023255814,
          "velocity": 0.3700787401574803
        },
        {
          "duration": 0.20930232558137618,
          "durationTicks": 18,
          "midi": 45,
          "name": "A2",
          "ticks": 11199,
          "time": 130.22093023255815,
          "velocity": 0.41732283464566927
        },
        {
          "duration": 0.0813953488371908,
          "durationTicks": 7,
          "midi": 52,
          "name": "E3",
          "ticks": 11199,
          "time": 130.22093023255815,
          "velocity": 0.23622047244094488
        },
        {
          "duration": 0.023255813953483084,
          "durationTicks": 2,
          "midi": 62,
          "name": "D4",
          "ticks": 11199,
          "time": 130.22093023255815,
          "velocity": 0.28346456692913385
        },
        {
          "duration": 0.0813953488371908,
          "durationTicks": 7,
          "midi": 71,
          "name": "B4",
          "ticks": 11199,
          "time": 130.22093023255815,
          "velocity": 0.1889763779527559
        },
        {
          "duration": 0.034883720930224626,
          "durationTicks": 3,
          "midi": 84,
          "name": "C6",
          "ticks": 11200,
          "time": 130.2325581395349,
          "velocity": 0.11811023622047244
        },
        {
          "duration": 0.17441860465115155,
          "durationTicks": 15,
          "midi": 62,
          "name": "D4",
          "ticks": 11202,
          "time": 130.25581395348837,
          "velocity": 0.29133858267716534
        },
        {
          "duration": 0.13953488372092693,
          "durationTicks": 12,
          "midi": 84,
          "name": "C6",
          "ticks": 11205,
          "time": 130.2906976744186,
          "velocity": 0.12598425196850394
        },
        {
          "duration": 0.04651162790696617,
          "durationTicks": 4,
          "midi": 52,
          "name": "E3",
          "ticks": 11207,
          "time": 130.3139534883721,
          "velocity": 0.1732283464566929
        },
        {
          "duration": 0.04651162790696617,
          "durationTicks": 4,
          "midi": 71,
          "name": "B4",
          "ticks": 11207,
          "time": 130.3139534883721,
          "velocity": 0.13385826771653545
        },
        {
          "duration": 0.11627906976744384,
          "durationTicks": 10,
          "midi": 52,
          "name": "E3",
          "ticks": 11212,
          "time": 130.37209302325581,
          "velocity": 0.15748031496062992
        },
        {
          "duration": 0.0813953488371908,
          "durationTicks": 7,
          "midi": 45,
          "name": "A2",
          "ticks": 11218,
          "time": 130.4418604651163,
          "velocity": 0.3228346456692913
        },
        {
          "duration": 0.023255813953483084,
          "durationTicks": 2,
          "midi": 46,
          "name": "A#2",
          "ticks": 11236,
          "time": 130.65116279069767,
          "velocity": 0.25196850393700787
        },
        {
          "duration": 0.05813953488373613,
          "durationTicks": 5,
          "midi": 65,
          "name": "F4",
          "ticks": 11236,
          "time": 130.65116279069767,
          "velocity": 0.36220472440944884
        },
        {
          "duration": 0.5465116279069946,
          "durationTicks": 47,
          "midi": 74,
          "name": "D5",
          "ticks": 11236,
          "time": 130.65116279069767,
          "velocity": 0.31496062992125984
        },
        {
          "duration": 0.25581395348837077,
          "durationTicks": 22,
          "midi": 45,
          "name": "A2",
          "ticks": 11238,
          "time": 130.67441860465115,
          "velocity": 0.41732283464566927
        },
        {
          "duration": 0.16279069767443843,
          "durationTicks": 14,
          "midi": 53,
          "name": "F3",
          "ticks": 11238,
          "time": 130.67441860465115,
          "velocity": 0.29133858267716534
        },
        {
          "duration": 0.1511627906976969,
          "durationTicks": 13,
          "midi": 62,
          "name": "D4",
          "ticks": 11238,
          "time": 130.67441860465115,
          "velocity": 0.31496062992125984
        },
        {
          "duration": 0.13953488372095535,
          "durationTicks": 12,
          "midi": 71,
          "name": "B4",
          "ticks": 11238,
          "time": 130.67441860465115,
          "velocity": 0.2047244094488189
        },
        {
          "duration": 0.06976744186047767,
          "durationTicks": 6,
          "midi": 87,
          "name": "D#6",
          "ticks": 11239,
          "time": 130.6860465116279,
          "velocity": 0.1732283464566929
        },
        {
          "duration": 0.10465116279067388,
          "durationTicks": 9,
          "midi": 85,
          "name": "C#6",
          "ticks": 11240,
          "time": 130.69767441860466,
          "velocity": 0.11811023622047244
        },
        {
          "duration": 0.11627906976744384,
          "durationTicks": 10,
          "midi": 65,
          "name": "F4",
          "ticks": 11243,
          "time": 130.7325581395349,
          "velocity": 0.29133858267716534
        },
        {
          "duration": 0.034883720930224626,
          "durationTicks": 3,
          "midi": 62,
          "name": "D4",
          "ticks": 11252,
          "time": 130.8372093023256,
          "velocity": 0.12598425196850394
        },
        {
          "duration": 0.16279069767441,
          "durationTicks": 14,
          "midi": 62,
          "name": "D4",
          "ticks": 11256,
          "time": 130.88372093023256,
          "velocity": 0.28346456692913385
        },
        {
          "duration": 0.6046511627907023,
          "durationTicks": 52,
          "midi": 69,
          "name": "A4",
          "ticks": 11257,
          "time": 130.8953488372093,
          "velocity": 0.4409448818897638
        },
        {
          "duration": 0.04651162790699459,
          "durationTicks": 4,
          "midi": 84,
          "name": "C6",
          "ticks": 11259,
          "time": 130.91860465116278,
          "velocity": 0.09448818897637795
        },
        {
          "duration": 0.7441860465116292,
          "durationTicks": 64,
          "midi": 88,
          "name": "E6",
          "ticks": 11260,
          "time": 130.93023255813952,
          "velocity": 0.30708661417322836
        },
        {
          "duration": 0.15116279069766847,
          "durationTicks": 13,
          "midi": 38,
          "name": "D2",
          "ticks": 11261,
          "time": 130.9418604651163,
          "velocity": 0.2755905511811024
        },
        {
          "duration": 0.1046511627907023,
          "durationTicks": 9,
          "midi": 72,
          "name": "C5",
          "ticks": 11268,
          "time": 131.02325581395348,
          "velocity": 0.14173228346456693
        },
        {
          "duration": 0.023255813953511506,
          "durationTicks": 2,
          "midi": 61,
          "name": "C#4",
          "ticks": 11270,
          "time": 131.04651162790697,
          "velocity": 0.25196850393700787
        },
        {
          "duration": 0.03488372093025305,
          "durationTicks": 3,
          "midi": 62,
          "name": "D4",
          "ticks": 11271,
          "time": 131.0581395348837,
          "velocity": 0.2204724409448819
        },
        {
          "duration": 0.09302325581393234,
          "durationTicks": 8,
          "midi": 84,
          "name": "C6",
          "ticks": 11272,
          "time": 131.06976744186048,
          "velocity": 0.14960629921259844
        },
        {
          "duration": 0.023255813953483084,
          "durationTicks": 2,
          "midi": 61,
          "name": "C#4",
          "ticks": 11274,
          "time": 131.09302325581396,
          "velocity": 0.2440944881889764
        },
        {
          "duration": 0.25581395348837077,
          "durationTicks": 22,
          "midi": 86,
          "name": "D6",
          "ticks": 11275,
          "time": 131.1046511627907,
          "velocity": 0.3779527559055118
        },
        {
          "duration": 0.3953488372092977,
          "durationTicks": 34,
          "midi": 89,
          "name": "F6",
          "ticks": 11275,
          "time": 131.1046511627907,
          "velocity": 0.4881889763779528
        },
        {
          "duration": 0.034883720930224626,
          "durationTicks": 3,
          "midi": 62,
          "name": "D4",
          "ticks": 11276,
          "time": 131.11627906976744,
          "velocity": 0.23622047244094488
        },
        {
          "duration": 0.34883720930233153,
          "durationTicks": 30,
          "midi": 77,
          "name": "F5",
          "ticks": 11276,
          "time": 131.11627906976744,
          "velocity": 0.47244094488188976
        },
        {
          "duration": 0.034883720930224626,
          "durationTicks": 3,
          "midi": 50,
          "name": "D3",
          "ticks": 11277,
          "time": 131.12790697674419,
          "velocity": 0.29133858267716534
        },
        {
          "duration": 0.023255813953483084,
          "durationTicks": 2,
          "midi": 44,
          "name": "G#2",
          "ticks": 11280,
          "time": 131.1627906976744,
          "velocity": 0.33070866141732286
        },
        {
          "duration": 0.04651162790699459,
          "durationTicks": 4,
          "midi": 91,
          "name": "G6",
          "ticks": 11280,
          "time": 131.1627906976744,
          "velocity": 0.08661417322834646
        },
        {
          "duration": 0.16279069767443843,
          "durationTicks": 14,
          "midi": 72,
          "name": "C5",
          "ticks": 11281,
          "time": 131.17441860465115,
          "velocity": 0.1732283464566929
        },
        {
          "duration": 0.06976744186047767,
          "durationTicks": 6,
          "midi": 45,
          "name": "A2",
          "ticks": 11282,
          "time": 131.1860465116279,
          "velocity": 0.31496062992125984
        },
        {
          "duration": 0.03488372093025305,
          "durationTicks": 3,
          "midi": 60,
          "name": "C4",
          "ticks": 11282,
          "time": 131.1860465116279,
          "velocity": 0.15748031496062992
        },
        {
          "duration": 0.034883720930224626,
          "durationTicks": 3,
          "midi": 60,
          "name": "C4",
          "ticks": 11289,
          "time": 131.2674418604651,
          "velocity": 0.12598425196850394
        },
        {
          "duration": 0.023255813953511506,
          "durationTicks": 2,
          "midi": 45,
          "name": "A2",
          "ticks": 11292,
          "time": 131.30232558139534,
          "velocity": 0.28346456692913385
        },
        {
          "duration": 0.023255813953511506,
          "durationTicks": 2,
          "midi": 50,
          "name": "D3",
          "ticks": 11292,
          "time": 131.30232558139534,
          "velocity": 0.28346456692913385
        },
        {
          "duration": 0.04651162790699459,
          "durationTicks": 4,
          "midi": 59,
          "name": "B3",
          "ticks": 11292,
          "time": 131.30232558139534,
          "velocity": 0.2677165354330709
        },
        {
          "duration": 0.8139534883720785,
          "durationTicks": 70,
          "midi": 74,
          "name": "D5",
          "ticks": 11295,
          "time": 131.3372093023256,
          "velocity": 0.5118110236220472
        },
        {
          "duration": 0.11627906976744384,
          "durationTicks": 10,
          "midi": 60,
          "name": "C4",
          "ticks": 11296,
          "time": 131.34883720930233,
          "velocity": 0.4251968503937008
        },
        {
          "duration": 0.04651162790696617,
          "durationTicks": 4,
          "midi": 96,
          "name": "C7",
          "ticks": 11296,
          "time": 131.34883720930233,
          "velocity": 0.07874015748031496
        },
        {
          "duration": 0.12790697674418539,
          "durationTicks": 11,
          "midi": 65,
          "name": "F4",
          "ticks": 11297,
          "time": 131.36046511627907,
          "velocity": 0.33858267716535434
        },
        {
          "duration": 0.08139534883721922,
          "durationTicks": 7,
          "midi": 85,
          "name": "C#6",
          "ticks": 11297,
          "time": 131.36046511627907,
          "velocity": 0.10236220472440945
        },
        {
          "duration": 0.17441860465117998,
          "durationTicks": 15,
          "midi": 50,
          "name": "D3",
          "ticks": 11300,
          "time": 131.3953488372093,
          "velocity": 0.25196850393700787
        },
        {
          "duration": 0.23255813953485927,
          "durationTicks": 20,
          "midi": 72,
          "name": "C5",
          "ticks": 11305,
          "time": 131.45348837209303,
          "velocity": 0.49606299212598426
        },
        {
          "duration": 0.20930232558137618,
          "durationTicks": 18,
          "midi": 76,
          "name": "E5",
          "ticks": 11306,
          "time": 131.46511627906978,
          "velocity": 0.4645669291338583
        },
        {
          "duration": 0.06976744186044925,
          "durationTicks": 6,
          "midi": 91,
          "name": "G6",
          "ticks": 11306,
          "time": 131.46511627906978,
          "velocity": 0.1889763779527559
        },
        {
          "duration": 0.06976744186044925,
          "durationTicks": 6,
          "midi": 95,
          "name": "B6",
          "ticks": 11306,
          "time": 131.46511627906978,
          "velocity": 0.09448818897637795
        },
        {
          "duration": 0.04651162790696617,
          "durationTicks": 4,
          "midi": 96,
          "name": "C7",
          "ticks": 11306,
          "time": 131.46511627906978,
          "velocity": 0.11811023622047244
        },
        {
          "duration": 0.09302325581396076,
          "durationTicks": 8,
          "midi": 60,
          "name": "C4",
          "ticks": 11307,
          "time": 131.47674418604652,
          "velocity": 0.31496062992125984
        },
        {
          "duration": 0.5581395348837077,
          "durationTicks": 48,
          "midi": 67,
          "name": "G4",
          "ticks": 11307,
          "time": 131.47674418604652,
          "velocity": 0.48031496062992124
        },
        {
          "duration": 0.023255813953511506,
          "durationTicks": 2,
          "midi": 69,
          "name": "A4",
          "ticks": 11314,
          "time": 131.5581395348837,
          "velocity": 0.31496062992125984
        },
        {
          "duration": 0.05813953488370771,
          "durationTicks": 5,
          "midi": 83,
          "name": "B5",
          "ticks": 11316,
          "time": 131.58139534883722,
          "velocity": 0.2677165354330709
        },
        {
          "duration": 0.023255813953483084,
          "durationTicks": 2,
          "midi": 50,
          "name": "D3",
          "ticks": 11317,
          "time": 131.59302325581396,
          "velocity": 0.2283464566929134
        },
        {
          "duration": 0.034883720930224626,
          "durationTicks": 3,
          "midi": 59,
          "name": "B3",
          "ticks": 11317,
          "time": 131.59302325581396,
          "velocity": 0.4015748031496063
        },
        {
          "duration": 0.09302325581393234,
          "durationTicks": 8,
          "midi": 82,
          "name": "A#5",
          "ticks": 11317,
          "time": 131.59302325581396,
          "velocity": 0.1732283464566929
        },
        {
          "duration": 0.20930232558137618,
          "durationTicks": 18,
          "midi": 89,
          "name": "F6",
          "ticks": 11317,
          "time": 131.59302325581396,
          "velocity": 0.2204724409448819
        },
        {
          "duration": 0.04651162790696617,
          "durationTicks": 4,
          "midi": 55,
          "name": "G3",
          "ticks": 11318,
          "time": 131.6046511627907,
          "velocity": 0.2204724409448819
        },
        {
          "duration": 0.023255813953483084,
          "durationTicks": 2,
          "midi": 49,
          "name": "C#3",
          "ticks": 11319,
          "time": 131.61627906976744,
          "velocity": 0.23622047244094488
        },
        {
          "duration": 0.034883720930224626,
          "durationTicks": 3,
          "midi": 64,
          "name": "E4",
          "ticks": 11319,
          "time": 131.61627906976744,
          "velocity": 0.29133858267716534
        },
        {
          "duration": 0.04651162790696617,
          "durationTicks": 4,
          "midi": 95,
          "name": "B6",
          "ticks": 11321,
          "time": 131.63953488372093,
          "velocity": 0.16535433070866143
        },
        {
          "duration": 0.05813953488373613,
          "durationTicks": 5,
          "midi": 60,
          "name": "C4",
          "ticks": 11322,
          "time": 131.65116279069767,
          "velocity": 0.33858267716535434
        },
        {
          "duration": 0.12790697674418539,
          "durationTicks": 11,
          "midi": 48,
          "name": "C3",
          "ticks": 11323,
          "time": 131.6627906976744,
          "velocity": 0.3228346456692913
        },
        {
          "duration": 0.12790697674418539,
          "durationTicks": 11,
          "midi": 64,
          "name": "E4",
          "ticks": 11323,
          "time": 131.6627906976744,
          "velocity": 0.2992125984251969
        },
        {
          "duration": 0.17441860465117998,
          "durationTicks": 15,
          "midi": 83,
          "name": "B5",
          "ticks": 11323,
          "time": 131.6627906976744,
          "velocity": 0.2047244094488189
        },
        {
          "duration": 0.12790697674418539,
          "durationTicks": 11,
          "midi": 71,
          "name": "B4",
          "ticks": 11324,
          "time": 131.67441860465115,
          "velocity": 0.30708661417322836
        },
        {
          "duration": 0.13953488372095535,
          "durationTicks": 12,
          "midi": 77,
          "name": "F5",
          "ticks": 11324,
          "time": 131.67441860465115,
          "velocity": 0.47244094488188976
        },
        {
          "duration": 0.12790697674418539,
          "durationTicks": 11,
          "midi": 93,
          "name": "A6",
          "ticks": 11324,
          "time": 131.67441860465115,
          "velocity": 0.25984251968503935
        },
        {
          "duration": 0.1511627906976969,
          "durationTicks": 13,
          "midi": 81,
          "name": "A5",
          "ticks": 11325,
          "time": 131.6860465116279,
          "velocity": 0.28346456692913385
        },
        {
          "duration": 0.06976744186044925,
          "durationTicks": 6,
          "midi": 55,
          "name": "G3",
          "ticks": 11328,
          "time": 131.72093023255815,
          "velocity": 0.13385826771653545
        },
        {
          "duration": 0.09302325581396076,
          "durationTicks": 8,
          "midi": 69,
          "name": "A4",
          "ticks": 11328,
          "time": 131.72093023255815,
          "velocity": 0.3858267716535433
        },
        {
          "duration": 0.034883720930224626,
          "durationTicks": 3,
          "midi": 88,
          "name": "E6",
          "ticks": 11330,
          "time": 131.74418604651163,
          "velocity": 0.10236220472440945
        },
        {
          "duration": 0.023255813953511506,
          "durationTicks": 2,
          "midi": 49,
          "name": "C#3",
          "ticks": 11334,
          "time": 131.7906976744186,
          "velocity": 0.30708661417322836
        },
        {
          "duration": 0.2325581395348877,
          "durationTicks": 20,
          "midi": 72,
          "name": "C5",
          "ticks": 11335,
          "time": 131.80232558139534,
          "velocity": 0.48031496062992124
        },
        {
          "duration": 0.26744186046514073,
          "durationTicks": 23,
          "midi": 76,
          "name": "E5",
          "ticks": 11335,
          "time": 131.80232558139534,
          "velocity": 0.48031496062992124
        },
        {
          "duration": 0.08139534883721922,
          "durationTicks": 7,
          "midi": 91,
          "name": "G6",
          "ticks": 11335,
          "time": 131.80232558139534,
          "velocity": 0.2047244094488189
        },
        {
          "duration": 0.20930232558137618,
          "durationTicks": 18,
          "midi": 60,
          "name": "C4",
          "ticks": 11336,
          "time": 131.8139534883721,
          "velocity": 0.3858267716535433
        },
        {
          "duration": 0.034883720930224626,
          "durationTicks": 3,
          "midi": 65,
          "name": "F4",
          "ticks": 11337,
          "time": 131.82558139534885,
          "velocity": 0.36220472440944884
        },
        {
          "duration": 0.04651162790696617,
          "durationTicks": 4,
          "midi": 85,
          "name": "C#6",
          "ticks": 11337,
          "time": 131.82558139534885,
          "velocity": 0.15748031496062992
        },
        {
          "duration": 0.0813953488371908,
          "durationTicks": 7,
          "midi": 89,
          "name": "F6",
          "ticks": 11338,
          "time": 131.8372093023256,
          "velocity": 0.07874015748031496
        },
        {
          "duration": 0.16279069767441,
          "durationTicks": 14,
          "midi": 38,
          "name": "D2",
          "ticks": 11340,
          "time": 131.86046511627907,
          "velocity": 0.2283464566929134
        },
        {
          "duration": 0.16279069767441,
          "durationTicks": 14,
          "midi": 50,
          "name": "D3",
          "ticks": 11340,
          "time": 131.86046511627907,
          "velocity": 0.2755905511811024
        },
        {
          "duration": 0.16279069767441,
          "durationTicks": 14,
          "midi": 85,
          "name": "C#6",
          "ticks": 11342,
          "time": 131.88372093023256,
          "velocity": 0.1732283464566929
        },
        {
          "duration": 0.1046511627907023,
          "durationTicks": 9,
          "midi": 95,
          "name": "B6",
          "ticks": 11343,
          "time": 131.8953488372093,
          "velocity": 0.11811023622047244
        },
        {
          "duration": 0.05813953488370771,
          "durationTicks": 5,
          "midi": 65,
          "name": "F4",
          "ticks": 11350,
          "time": 131.97674418604652,
          "velocity": 0.30708661417322836
        },
        {
          "duration": 0.04651162790696617,
          "durationTicks": 4,
          "midi": 81,
          "name": "A5",
          "ticks": 11350,
          "time": 131.97674418604652,
          "velocity": 0.10236220472440945
        },
        {
          "duration": 0.4767441860465169,
          "durationTicks": 41,
          "midi": 69,
          "name": "A4",
          "ticks": 11354,
          "time": 132.02325581395348,
          "velocity": 0.23622047244094488
        },
        {
          "duration": 0.22093023255814614,
          "durationTicks": 19,
          "midi": 60,
          "name": "C4",
          "ticks": 11355,
          "time": 132.03488372093022,
          "velocity": 0.3858267716535433
        },
        {
          "duration": 0.03488372093025305,
          "durationTicks": 3,
          "midi": 65,
          "name": "F4",
          "ticks": 11356,
          "time": 132.04651162790697,
          "velocity": 0.2204724409448819
        },
        {
          "duration": 0.04651162790699459,
          "durationTicks": 4,
          "midi": 67,
          "name": "G4",
          "ticks": 11356,
          "time": 132.04651162790697,
          "velocity": 0.1889763779527559
        },
        {
          "duration": 0.1860465116278931,
          "durationTicks": 16,
          "midi": 45,
          "name": "A2",
          "ticks": 11360,
          "time": 132.09302325581396,
          "velocity": 0.2992125984251969
        },
        {
          "duration": 0.09302325581393234,
          "durationTicks": 8,
          "midi": 65,
          "name": "F4",
          "ticks": 11360,
          "time": 132.09302325581396,
          "velocity": 0.11023622047244094
        },
        {
          "duration": 0.2674418604651123,
          "durationTicks": 23,
          "midi": 65,
          "name": "F4",
          "ticks": 11372,
          "time": 132.2325581395349,
          "velocity": 0.3779527559055118
        },
        {
          "duration": 3.546511627906966,
          "durationTicks": 305,
          "midi": 74,
          "name": "D5",
          "ticks": 11373,
          "time": 132.24418604651163,
          "velocity": 0.5905511811023622
        },
        {
          "duration": 0.6976744186046631,
          "durationTicks": 60,
          "midi": 77,
          "name": "F5",
          "ticks": 11373,
          "time": 132.24418604651163,
          "velocity": 0.5039370078740157
        },
        {
          "duration": 0.11627906976744384,
          "durationTicks": 10,
          "midi": 81,
          "name": "A5",
          "ticks": 11374,
          "time": 132.25581395348837,
          "velocity": 0.31496062992125984
        },
        {
          "duration": 0.38372093023255616,
          "durationTicks": 33,
          "midi": 87,
          "name": "D#6",
          "ticks": 11374,
          "time": 132.25581395348837,
          "velocity": 0.14960629921259844
        },
        {
          "duration": 0.023255813953483084,
          "durationTicks": 2,
          "midi": 62,
          "name": "D4",
          "ticks": 11375,
          "time": 132.2674418604651,
          "velocity": 0.3228346456692913
        },
        {
          "duration": 0.04651162790699459,
          "durationTicks": 4,
          "midi": 80,
          "name": "G#5",
          "ticks": 11375,
          "time": 132.2674418604651,
          "velocity": 0.15748031496062992
        },
        {
          "duration": 0.034883720930224626,
          "durationTicks": 3,
          "midi": 85,
          "name": "C#6",
          "ticks": 11375,
          "time": 132.2674418604651,
          "velocity": 0.1732283464566929
        },
        {
          "duration": 0.13953488372092693,
          "durationTicks": 12,
          "midi": 53,
          "name": "F3",
          "ticks": 11376,
          "time": 132.27906976744185,
          "velocity": 0.30708661417322836
        },
        {
          "duration": 0.05813953488373613,
          "durationTicks": 5,
          "midi": 100,
          "name": "E7",
          "ticks": 11376,
          "time": 132.27906976744185,
          "velocity": 0.07874015748031496
        },
        {
          "duration": 0.17441860465117998,
          "durationTicks": 15,
          "midi": 62,
          "name": "D4",
          "ticks": 11378,
          "time": 132.30232558139534,
          "velocity": 0.3228346456692913
        },
        {
          "duration": 0.06976744186047767,
          "durationTicks": 6,
          "midi": 72,
          "name": "C5",
          "ticks": 11378,
          "time": 132.30232558139534,
          "velocity": 0.1968503937007874
        },
        {
          "duration": 0.17441860465117998,
          "durationTicks": 15,
          "midi": 88,
          "name": "E6",
          "ticks": 11378,
          "time": 132.30232558139534,
          "velocity": 0.15748031496062992
        },
        {
          "duration": 0.034883720930224626,
          "durationTicks": 3,
          "midi": 38,
          "name": "D2",
          "ticks": 11379,
          "time": 132.3139534883721,
          "velocity": 0.25984251968503935
        },
        {
          "duration": 0.04651162790696617,
          "durationTicks": 4,
          "midi": 91,
          "name": "G6",
          "ticks": 11379,
          "time": 132.3139534883721,
          "velocity": 0.07874015748031496
        },
        {
          "duration": 0.034883720930224626,
          "durationTicks": 3,
          "midi": 37,
          "name": "C#2",
          "ticks": 11382,
          "time": 132.34883720930233,
          "velocity": 0.23622047244094488
        },
        {
          "duration": 0.04651162790696617,
          "durationTicks": 4,
          "midi": 80,
          "name": "G#5",
          "ticks": 11384,
          "time": 132.37209302325581,
          "velocity": 0.18110236220472442
        },
        {
          "duration": 0.09302325581396076,
          "durationTicks": 8,
          "midi": 38,
          "name": "D2",
          "ticks": 11385,
          "time": 132.38372093023256,
          "velocity": 0.25984251968503935
        },
        {
          "duration": 0.11627906976744384,
          "durationTicks": 10,
          "midi": 81,
          "name": "A5",
          "ticks": 11385,
          "time": 132.38372093023256,
          "velocity": 0.25196850393700787
        },
        {
          "duration": 0.06976744186047767,
          "durationTicks": 6,
          "midi": 95,
          "name": "B6",
          "ticks": 11385,
          "time": 132.38372093023256,
          "velocity": 0.09448818897637795
        },
        {
          "duration": 0.08139534883721922,
          "durationTicks": 7,
          "midi": 72,
          "name": "C5",
          "ticks": 11388,
          "time": 132.41860465116278,
          "velocity": 0.23622047244094488
        },
        {
          "duration": 0.023255813953511506,
          "durationTicks": 2,
          "midi": 51,
          "name": "D#3",
          "ticks": 11389,
          "time": 132.43023255813952,
          "velocity": 0.25196850393700787
        },
        {
          "duration": 0.034883720930224626,
          "durationTicks": 3,
          "midi": 50,
          "name": "D3",
          "ticks": 11392,
          "time": 132.46511627906978,
          "velocity": 0.2677165354330709
        },
        {
          "duration": 0.2093023255814046,
          "durationTicks": 18,
          "midi": 59,
          "name": "B3",
          "ticks": 11395,
          "time": 132.5,
          "velocity": 0.3779527559055118
        },
        {
          "duration": 0.2093023255814046,
          "durationTicks": 18,
          "midi": 64,
          "name": "E4",
          "ticks": 11395,
          "time": 132.5,
          "velocity": 0.4094488188976378
        },
        {
          "duration": 0.2093023255814046,
          "durationTicks": 18,
          "midi": 67,
          "name": "G4",
          "ticks": 11396,
          "time": 132.51162790697674,
          "velocity": 0.31496062992125984
        },
        {
          "duration": 0.023255813953483084,
          "durationTicks": 2,
          "midi": 39,
          "name": "D#2",
          "ticks": 11397,
          "time": 132.52325581395348,
          "velocity": 0.30708661417322836
        },
        {
          "duration": 0.03488372093025305,
          "durationTicks": 3,
          "midi": 40,
          "name": "E2",
          "ticks": 11399,
          "time": 132.54651162790697,
          "velocity": 0.30708661417322836
        },
        {
          "duration": 0.04651162790696617,
          "durationTicks": 4,
          "midi": 82,
          "name": "A#5",
          "ticks": 11401,
          "time": 132.56976744186048,
          "velocity": 0.2440944881889764
        },
        {
          "duration": 0.04651162790696617,
          "durationTicks": 4,
          "midi": 40,
          "name": "E2",
          "ticks": 11403,
          "time": 132.59302325581396,
          "velocity": 0.2755905511811024
        },
        {
          "duration": 0.20930232558137618,
          "durationTicks": 18,
          "midi": 93,
          "name": "A6",
          "ticks": 11403,
          "time": 132.59302325581396,
          "velocity": 0.13385826771653545
        },
        {
          "duration": 0.09302325581396076,
          "durationTicks": 8,
          "midi": 81,
          "name": "A5",
          "ticks": 11405,
          "time": 132.61627906976744,
          "velocity": 0.29133858267716534
        },
        {
          "duration": 0.034883720930224626,
          "durationTicks": 3,
          "midi": 55,
          "name": "G3",
          "ticks": 11407,
          "time": 132.63953488372093,
          "velocity": 0.2125984251968504
        },
        {
          "duration": 0.023255813953511506,
          "durationTicks": 2,
          "midi": 40,
          "name": "E2",
          "ticks": 11410,
          "time": 132.67441860465115,
          "velocity": 0.28346456692913385
        },
        {
          "duration": 0.04651162790699459,
          "durationTicks": 4,
          "midi": 87,
          "name": "D#6",
          "ticks": 11410,
          "time": 132.67441860465115,
          "velocity": 0.12598425196850394
        },
        {
          "duration": 0.023255813953483084,
          "durationTicks": 2,
          "midi": 62,
          "name": "D4",
          "ticks": 11413,
          "time": 132.7093023255814,
          "velocity": 0.33858267716535434
        },
        {
          "duration": 0.22093023255811772,
          "durationTicks": 19,
          "midi": 65,
          "name": "F4",
          "ticks": 11413,
          "time": 132.7093023255814,
          "velocity": 0.4094488188976378
        },
        {
          "duration": 0.034883720930224626,
          "durationTicks": 3,
          "midi": 88,
          "name": "E6",
          "ticks": 11413,
          "time": 132.7093023255814,
          "velocity": 0.08661417322834646
        },
        {
          "duration": 0.1046511627907023,
          "durationTicks": 9,
          "midi": 60,
          "name": "C4",
          "ticks": 11414,
          "time": 132.72093023255815,
          "velocity": 0.41732283464566927
        },
        {
          "duration": 0.20930232558137618,
          "durationTicks": 18,
          "midi": 81,
          "name": "A5",
          "ticks": 11414,
          "time": 132.72093023255815,
          "velocity": 0.2677165354330709
        },
        {
          "duration": 0.023255813953483084,
          "durationTicks": 2,
          "midi": 41,
          "name": "F2",
          "ticks": 11415,
          "time": 132.7325581395349,
          "velocity": 0.28346456692913385
        },
        {
          "duration": 0.6976744186046346,
          "durationTicks": 60,
          "midi": 69,
          "name": "A4",
          "ticks": 11415,
          "time": 132.7325581395349,
          "velocity": 0.41732283464566927
        },
        {
          "duration": 0.4418604651162923,
          "durationTicks": 38,
          "midi": 88,
          "name": "E6",
          "ticks": 11419,
          "time": 132.77906976744185,
          "velocity": 0.1889763779527559
        },
        {
          "duration": 0.023255813953483084,
          "durationTicks": 2,
          "midi": 60,
          "name": "C4",
          "ticks": 11424,
          "time": 132.8372093023256,
          "velocity": 0.30708661417322836
        },
        {
          "duration": 0.023255813953483084,
          "durationTicks": 2,
          "midi": 62,
          "name": "D4",
          "ticks": 11424,
          "time": 132.8372093023256,
          "velocity": 0.3228346456692913
        },
        {
          "duration": 0.05813953488370771,
          "durationTicks": 5,
          "midi": 60,
          "name": "C4",
          "ticks": 11427,
          "time": 132.87209302325581,
          "velocity": 0.31496062992125984
        },
        {
          "duration": 0.43023255813955075,
          "durationTicks": 37,
          "midi": 72,
          "name": "C5",
          "ticks": 11432,
          "time": 132.93023255813952,
          "velocity": 0.3858267716535433
        },
        {
          "duration": 0.11627906976741542,
          "durationTicks": 10,
          "midi": 85,
          "name": "C#6",
          "ticks": 11433,
          "time": 132.9418604651163,
          "velocity": 0.18110236220472442
        },
        {
          "duration": 0.023255813953483084,
          "durationTicks": 2,
          "midi": 45,
          "name": "A2",
          "ticks": 11434,
          "time": 132.95348837209303,
          "velocity": 0.2440944881889764
        },
        {
          "duration": 0.05813953488370771,
          "durationTicks": 5,
          "midi": 60,
          "name": "C4",
          "ticks": 11434,
          "time": 132.95348837209303,
          "velocity": 0.4409448818897638
        },
        {
          "duration": 0.20930232558137618,
          "durationTicks": 18,
          "midi": 65,
          "name": "F4",
          "ticks": 11434,
          "time": 132.95348837209303,
          "velocity": 0.3464566929133858
        },
        {
          "duration": 0.09302325581396076,
          "durationTicks": 8,
          "midi": 91,
          "name": "G6",
          "ticks": 11436,
          "time": 132.97674418604652,
          "velocity": 0.16535433070866143
        },
        {
          "duration": 0.4186046511627808,
          "durationTicks": 36,
          "midi": 77,
          "name": "F5",
          "ticks": 11437,
          "time": 132.98837209302326,
          "velocity": 0.5118110236220472
        },
        {
          "duration": 0.03488372093025305,
          "durationTicks": 3,
          "midi": 57,
          "name": "A3",
          "ticks": 11441,
          "time": 133.03488372093022,
          "velocity": 0.25196850393700787
        },
        {
          "duration": 0.023255813953511506,
          "durationTicks": 2,
          "midi": 62,
          "name": "D4",
          "ticks": 11442,
          "time": 133.04651162790697,
          "velocity": 0.31496062992125984
        },
        {
          "duration": 0.04651162790696617,
          "durationTicks": 4,
          "midi": 50,
          "name": "D3",
          "ticks": 11444,
          "time": 133.06976744186048,
          "velocity": 0.18110236220472442
        },
        {
          "duration": 0.06976744186044925,
          "durationTicks": 6,
          "midi": 60,
          "name": "C4",
          "ticks": 11445,
          "time": 133.08139534883722,
          "velocity": 0.33070866141732286
        },
        {
          "duration": 0.034883720930224626,
          "durationTicks": 3,
          "midi": 50,
          "name": "D3",
          "ticks": 11449,
          "time": 133.12790697674419,
          "velocity": 0.16535433070866143
        },
        {
          "duration": 0.034883720930224626,
          "durationTicks": 3,
          "midi": 59,
          "name": "B3",
          "ticks": 11451,
          "time": 133.15116279069767,
          "velocity": 0.41732283464566927
        },
        {
          "duration": 0.023255813953483084,
          "durationTicks": 2,
          "midi": 63,
          "name": "D#4",
          "ticks": 11452,
          "time": 133.1627906976744,
          "velocity": 0.25196850393700787
        },
        {
          "duration": 0.04651162790699459,
          "durationTicks": 4,
          "midi": 80,
          "name": "G#5",
          "ticks": 11452,
          "time": 133.1627906976744,
          "velocity": 0.16535433070866143
        },
        {
          "duration": 0.08139534883721922,
          "durationTicks": 7,
          "midi": 85,
          "name": "C#6",
          "ticks": 11452,
          "time": 133.1627906976744,
          "velocity": 0.18110236220472442
        },
        {
          "duration": 0.05813953488373613,
          "durationTicks": 5,
          "midi": 91,
          "name": "G6",
          "ticks": 11452,
          "time": 133.1627906976744,
          "velocity": 0.10236220472440945
        },
        {
          "duration": 0.06976744186047767,
          "durationTicks": 6,
          "midi": 50,
          "name": "D3",
          "ticks": 11453,
          "time": 133.17441860465115,
          "velocity": 0.25984251968503935
        },
        {
          "duration": 0.2093023255814046,
          "durationTicks": 18,
          "midi": 60,
          "name": "C4",
          "ticks": 11454,
          "time": 133.1860465116279,
          "velocity": 0.4094488188976378
        },
        {
          "duration": 0.24418604651162923,
          "durationTicks": 21,
          "midi": 65,
          "name": "F4",
          "ticks": 11454,
          "time": 133.1860465116279,
          "velocity": 0.4094488188976378
        },
        {
          "duration": 0.04651162790696617,
          "durationTicks": 4,
          "midi": 82,
          "name": "A#5",
          "ticks": 11459,
          "time": 133.24418604651163,
          "velocity": 0.10236220472440945
        },
        {
          "duration": 0.45348837209303383,
          "durationTicks": 39,
          "midi": 88,
          "name": "E6",
          "ticks": 11459,
          "time": 133.24418604651163,
          "velocity": 0.2992125984251969
        },
        {
          "duration": 0.03488372093025305,
          "durationTicks": 3,
          "midi": 57,
          "name": "A3",
          "ticks": 11462,
          "time": 133.27906976744185,
          "velocity": 0.2677165354330709
        },
        {
          "duration": 0.03488372093025305,
          "durationTicks": 3,
          "midi": 50,
          "name": "D3",
          "ticks": 11463,
          "time": 133.2906976744186,
          "velocity": 0.12598425196850394
        },
        {
          "duration": 0.15116279069766847,
          "durationTicks": 13,
          "midi": 72,
          "name": "C5",
          "ticks": 11471,
          "time": 133.38372093023256,
          "velocity": 0.49606299212598426
        },
        {
          "duration": 0.023255813953483084,
          "durationTicks": 2,
          "midi": 58,
          "name": "A#3",
          "ticks": 11472,
          "time": 133.3953488372093,
          "velocity": 0.31496062992125984
        },
        {
          "duration": 0.32558139534884845,
          "durationTicks": 28,
          "midi": 83,
          "name": "B5",
          "ticks": 11472,
          "time": 133.3953488372093,
          "velocity": 0.2283464566929134
        },
        {
          "duration": 0.09302325581396076,
          "durationTicks": 8,
          "midi": 91,
          "name": "G6",
          "ticks": 11472,
          "time": 133.3953488372093,
          "velocity": 0.09448818897637795
        },
        {
          "duration": 0.023255813953483084,
          "durationTicks": 2,
          "midi": 47,
          "name": "B2",
          "ticks": 11473,
          "time": 133.40697674418604,
          "velocity": 0.33858267716535434
        },
        {
          "duration": 0.11627906976744384,
          "durationTicks": 10,
          "midi": 76,
          "name": "E5",
          "ticks": 11473,
          "time": 133.40697674418604,
          "velocity": 0.4094488188976378
        },
        {
          "duration": 0.13953488372092693,
          "durationTicks": 12,
          "midi": 79,
          "name": "G5",
          "ticks": 11473,
          "time": 133.40697674418604,
          "velocity": 0.2204724409448819
        },
        {
          "duration": 0.023255813953511506,
          "durationTicks": 2,
          "midi": 59,
          "name": "B3",
          "ticks": 11474,
          "time": 133.41860465116278,
          "velocity": 0.36220472440944884
        },
        {
          "duration": 0.023255813953511506,
          "durationTicks": 2,
          "midi": 48,
          "name": "C3",
          "ticks": 11475,
          "time": 133.43023255813952,
          "velocity": 0.2992125984251969
        },
        {
          "duration": 0.19767441860466306,
          "durationTicks": 17,
          "midi": 64,
          "name": "E4",
          "ticks": 11475,
          "time": 133.43023255813952,
          "velocity": 0.28346456692913385
        },
        {
          "duration": 0.06976744186047767,
          "durationTicks": 6,
          "midi": 67,
          "name": "G4",
          "ticks": 11475,
          "time": 133.43023255813952,
          "velocity": 0.30708661417322836
        },
        {
          "duration": 0.06976744186044925,
          "durationTicks": 6,
          "midi": 82,
          "name": "A#5",
          "ticks": 11476,
          "time": 133.4418604651163,
          "velocity": 0.11811023622047244
        },
        {
          "duration": 0.034883720930224626,
          "durationTicks": 3,
          "midi": 85,
          "name": "C#6",
          "ticks": 11476,
          "time": 133.4418604651163,
          "velocity": 0.11811023622047244
        },
        {
          "duration": 0.11627906976741542,
          "durationTicks": 10,
          "midi": 93,
          "name": "A6",
          "ticks": 11476,
          "time": 133.4418604651163,
          "velocity": 0.18110236220472442
        },
        {
          "duration": 0.023255813953483084,
          "durationTicks": 2,
          "midi": 59,
          "name": "B3",
          "ticks": 11477,
          "time": 133.45348837209303,
          "velocity": 0.2677165354330709
        },
        {
          "duration": 0.16279069767441,
          "durationTicks": 14,
          "midi": 89,
          "name": "F6",
          "ticks": 11477,
          "time": 133.45348837209303,
          "velocity": 0.2283464566929134
        },
        {
          "duration": 0.04651162790696617,
          "durationTicks": 4,
          "midi": 48,
          "name": "C3",
          "ticks": 11478,
          "time": 133.46511627906978,
          "velocity": 0.29133858267716534
        },
        {
          "duration": 0.12790697674418539,
          "durationTicks": 11,
          "midi": 59,
          "name": "B3",
          "ticks": 11480,
          "time": 133.48837209302326,
          "velocity": 0.31496062992125984
        },
        {
          "duration": 0.17441860465115155,
          "durationTicks": 15,
          "midi": 69,
          "name": "A4",
          "ticks": 11480,
          "time": 133.48837209302326,
          "velocity": 0.4330708661417323
        },
        {
          "duration": 0.1046511627907023,
          "durationTicks": 9,
          "midi": 55,
          "name": "G3",
          "ticks": 11481,
          "time": 133.5,
          "velocity": 0.2047244094488189
        },
        {
          "duration": 0.12790697674418539,
          "durationTicks": 11,
          "midi": 77,
          "name": "F5",
          "ticks": 11481,
          "time": 133.5,
          "velocity": 0.4330708661417323
        },
        {
          "duration": 0.05813953488373613,
          "durationTicks": 5,
          "midi": 48,
          "name": "C3",
          "ticks": 11485,
          "time": 133.54651162790697,
          "velocity": 0.25196850393700787
        },
        {
          "duration": 0.023255813953483084,
          "durationTicks": 2,
          "midi": 72,
          "name": "C5",
          "ticks": 11489,
          "time": 133.59302325581396,
          "velocity": 0.2677165354330709
        },
        {
          "duration": 0.023255813953483084,
          "durationTicks": 2,
          "midi": 48,
          "name": "C3",
          "ticks": 11491,
          "time": 133.61627906976744,
          "velocity": 0.2440944881889764
        },
        {
          "duration": 0.1860465116278931,
          "durationTicks": 16,
          "midi": 79,
          "name": "G5",
          "ticks": 11491,
          "time": 133.61627906976744,
          "velocity": 0.23622047244094488
        },
        {
          "duration": 0.08139534883721922,
          "durationTicks": 7,
          "midi": 85,
          "name": "C#6",
          "ticks": 11491,
          "time": 133.61627906976744,
          "velocity": 0.11023622047244094
        },
        {
          "duration": 0.22093023255814614,
          "durationTicks": 19,
          "midi": 60,
          "name": "C4",
          "ticks": 11492,
          "time": 133.62790697674419,
          "velocity": 0.3937007874015748
        },
        {
          "duration": 0.023255813953483084,
          "durationTicks": 2,
          "midi": 65,
          "name": "F4",
          "ticks": 11492,
          "time": 133.62790697674419,
          "velocity": 0.3228346456692913
        },
        {
          "duration": 0.1046511627907023,
          "durationTicks": 9,
          "midi": 72,
          "name": "C5",
          "ticks": 11492,
          "time": 133.62790697674419,
          "velocity": 0.48031496062992124
        },
        {
          "duration": 0.1046511627907023,
          "durationTicks": 9,
          "midi": 76,
          "name": "E5",
          "ticks": 11492,
          "time": 133.62790697674419,
          "velocity": 0.47244094488188976
        },
        {
          "duration": 0.09302325581396076,
          "durationTicks": 8,
          "midi": 67,
          "name": "G4",
          "ticks": 11493,
          "time": 133.63953488372093,
          "velocity": 0.41732283464566927
        },
        {
          "duration": 0.4651162790697754,
          "durationTicks": 40,
          "midi": 89,
          "name": "F6",
          "ticks": 11493,
          "time": 133.63953488372093,
          "velocity": 0.4566929133858268
        },
        {
          "duration": 0.19767441860463464,
          "durationTicks": 17,
          "midi": 69,
          "name": "A4",
          "ticks": 11500,
          "time": 133.72093023255815,
          "velocity": 0.4251968503937008
        },
        {
          "duration": 0.4767441860465169,
          "durationTicks": 41,
          "midi": 77,
          "name": "F5",
          "ticks": 11500,
          "time": 133.72093023255815,
          "velocity": 0.49606299212598426
        },
        {
          "duration": 0.15116279069766847,
          "durationTicks": 13,
          "midi": 88,
          "name": "E6",
          "ticks": 11501,
          "time": 133.7325581395349,
          "velocity": 0.1968503937007874
        },
        {
          "duration": 0.034883720930224626,
          "durationTicks": 3,
          "midi": 57,
          "name": "A3",
          "ticks": 11502,
          "time": 133.74418604651163,
          "velocity": 0.2125984251968504
        },
        {
          "duration": 0.09302325581396076,
          "durationTicks": 8,
          "midi": 65,
          "name": "F4",
          "ticks": 11503,
          "time": 133.75581395348837,
          "velocity": 0.30708661417322836
        },
        {
          "duration": 0.04651162790696617,
          "durationTicks": 4,
          "midi": 80,
          "name": "G#5",
          "ticks": 11511,
          "time": 133.84883720930233,
          "velocity": 0.1732283464566929
        },
        {
          "duration": 0.25581395348837077,
          "durationTicks": 22,
          "midi": 91,
          "name": "G6",
          "ticks": 11511,
          "time": 133.84883720930233,
          "velocity": 0.1889763779527559
        },
        {
          "duration": 0.023255813953483084,
          "durationTicks": 2,
          "midi": 60,
          "name": "C4",
          "ticks": 11512,
          "time": 133.86046511627907,
          "velocity": 0.3779527559055118
        },
        {
          "duration": 0.12790697674418539,
          "durationTicks": 11,
          "midi": 65,
          "name": "F4",
          "ticks": 11513,
          "time": 133.87209302325581,
          "velocity": 0.44881889763779526
        },
        {
          "duration": 0.034883720930224626,
          "durationTicks": 3,
          "midi": 85,
          "name": "C#6",
          "ticks": 11513,
          "time": 133.87209302325581,
          "velocity": 0.18110236220472442
        },
        {
          "duration": 0.05813953488373613,
          "durationTicks": 5,
          "midi": 53,
          "name": "F3",
          "ticks": 11514,
          "time": 133.88372093023256,
          "velocity": 0.30708661417322836
        },
        {
          "duration": 0.08139534883721922,
          "durationTicks": 7,
          "midi": 60,
          "name": "C4",
          "ticks": 11515,
          "time": 133.8953488372093,
          "velocity": 0.4409448818897638
        },
        {
          "duration": 0.023255813953483084,
          "durationTicks": 2,
          "midi": 62,
          "name": "D4",
          "ticks": 11515,
          "time": 133.8953488372093,
          "velocity": 0.3543307086614173
        },
        {
          "duration": 0.11627906976744384,
          "durationTicks": 10,
          "midi": 95,
          "name": "B6",
          "ticks": 11517,
          "time": 133.91860465116278,
          "velocity": 0.10236220472440945
        },
        {
          "duration": 0.023255813953511506,
          "durationTicks": 2,
          "midi": 38,
          "name": "D2",
          "ticks": 11518,
          "time": 133.93023255813952,
          "velocity": 0.30708661417322836
        },
        {
          "duration": 0.06976744186047767,
          "durationTicks": 6,
          "midi": 88,
          "name": "E6",
          "ticks": 11518,
          "time": 133.93023255813952,
          "velocity": 0.13385826771653545
        },
        {
          "duration": 0.05813953488370771,
          "durationTicks": 5,
          "midi": 85,
          "name": "C#6",
          "ticks": 11519,
          "time": 133.9418604651163,
          "velocity": 0.12598425196850394
        },
        {
          "duration": 0.06976744186044925,
          "durationTicks": 6,
          "midi": 38,
          "name": "D2",
          "ticks": 11521,
          "time": 133.96511627906978,
          "velocity": 0.33858267716535434
        },
        {
          "duration": 0.44186046511626387,
          "durationTicks": 38,
          "midi": 79,
          "name": "G5",
          "ticks": 11521,
          "time": 133.96511627906978,
          "velocity": 0.4330708661417323
        },
        {
          "duration": 0.13953488372092693,
          "durationTicks": 12,
          "midi": 57,
          "name": "A3",
          "ticks": 11522,
          "time": 133.97674418604652,
          "velocity": 0.29133858267716534
        },
        {
          "duration": 0.3139534883720785,
          "durationTicks": 27,
          "midi": 87,
          "name": "D#6",
          "ticks": 11522,
          "time": 133.97674418604652,
          "velocity": 0.2047244094488189
        },
        {
          "duration": 0.023255813953483084,
          "durationTicks": 2,
          "midi": 62,
          "name": "D4",
          "ticks": 11523,
          "time": 133.98837209302326,
          "velocity": 0.33858267716535434
        },
        {
          "duration": 0.08139534883721922,
          "durationTicks": 7,
          "midi": 67,
          "name": "G4",
          "ticks": 11523,
          "time": 133.98837209302326,
          "velocity": 0.4409448818897638
        },
        {
          "duration": 0.8837209302325562,
          "durationTicks": 76,
          "midi": 88,
          "name": "E6",
          "ticks": 11526,
          "time": 134.02325581395348,
          "velocity": 0.3700787401574803
        },
        {
          "duration": 0.04651162790699459,
          "durationTicks": 4,
          "midi": 85,
          "name": "C#6",
          "ticks": 11527,
          "time": 134.03488372093022,
          "velocity": 0.11023622047244094
        },
        {
          "duration": 0.023255813953511506,
          "durationTicks": 2,
          "midi": 60,
          "name": "C4",
          "ticks": 11528,
          "time": 134.04651162790697,
          "velocity": 0.25196850393700787
        },
        {
          "duration": 0.26744186046514073,
          "durationTicks": 23,
          "midi": 62,
          "name": "D4",
          "ticks": 11528,
          "time": 134.04651162790697,
          "velocity": 0.3937007874015748
        },
        {
          "duration": 0.13953488372095535,
          "durationTicks": 12,
          "midi": 65,
          "name": "F4",
          "ticks": 11529,
          "time": 134.0581395348837,
          "velocity": 0.3858267716535433
        },
        {
          "duration": 0.023255813953483084,
          "durationTicks": 2,
          "midi": 38,
          "name": "D2",
          "ticks": 11530,
          "time": 134.06976744186048,
          "velocity": 0.2677165354330709
        },
        {
          "duration": 0.24418604651162923,
          "durationTicks": 21,
          "midi": 69,
          "name": "A4",
          "ticks": 11530,
          "time": 134.06976744186048,
          "velocity": 0.3858267716535433
        },
        {
          "duration": 0.04651162790696617,
          "durationTicks": 4,
          "midi": 72,
          "name": "C5",
          "ticks": 11530,
          "time": 134.06976744186048,
          "velocity": 0.1968503937007874
        },
        {
          "duration": 0.24418604651162923,
          "durationTicks": 21,
          "midi": 84,
          "name": "C6",
          "ticks": 11530,
          "time": 134.06976744186048,
          "velocity": 0.3700787401574803
        },
        {
          "duration": 0.034883720930224626,
          "durationTicks": 3,
          "midi": 38,
          "name": "D2",
          "ticks": 11533,
          "time": 134.1046511627907,
          "velocity": 0.2440944881889764
        },
        {
          "duration": 0.023255813953483084,
          "durationTicks": 2,
          "midi": 60,
          "name": "C4",
          "ticks": 11533,
          "time": 134.1046511627907,
          "velocity": 0.2677165354330709
        },
        {
          "duration": 0.06976744186047767,
          "durationTicks": 6,
          "midi": 57,
          "name": "A3",
          "ticks": 11535,
          "time": 134.12790697674419,
          "velocity": 0.2440944881889764
        },
        {
          "duration": 0.16279069767443843,
          "durationTicks": 14,
          "midi": 72,
          "name": "C5",
          "ticks": 11538,
          "time": 134.1627906976744,
          "velocity": 0.48031496062992124
        },
        {
          "duration": 0.11627906976744384,
          "durationTicks": 10,
          "midi": 90,
          "name": "F#6",
          "ticks": 11540,
          "time": 134.1860465116279,
          "velocity": 0.15748031496062992
        },
        {
          "duration": 0.11627906976744384,
          "durationTicks": 10,
          "midi": 53,
          "name": "F3",
          "ticks": 11542,
          "time": 134.2093023255814,
          "velocity": 0.30708661417322836
        },
        {
          "duration": 0.09302325581393234,
          "durationTicks": 8,
          "midi": 65,
          "name": "F4",
          "ticks": 11542,
          "time": 134.2093023255814,
          "velocity": 0.33070866141732286
        },
        {
          "duration": 0.2325581395348877,
          "durationTicks": 20,
          "midi": 77,
          "name": "F5",
          "ticks": 11542,
          "time": 134.2093023255814,
          "velocity": 0.4566929133858268
        },
        {
          "duration": 0.22093023255814614,
          "durationTicks": 19,
          "midi": 64,
          "name": "E4",
          "ticks": 11550,
          "time": 134.30232558139534,
          "velocity": 0.41732283464566927
        },
        {
          "duration": 0.24418604651162923,
          "durationTicks": 21,
          "midi": 83,
          "name": "B5",
          "ticks": 11550,
          "time": 134.30232558139534,
          "velocity": 0.29133858267716534
        },
        {
          "duration": 0.2441860465116008,
          "durationTicks": 21,
          "midi": 59,
          "name": "B3",
          "ticks": 11551,
          "time": 134.3139534883721,
          "velocity": 0.33858267716535434
        },
        {
          "duration": 0.22093023255811772,
          "durationTicks": 19,
          "midi": 67,
          "name": "G4",
          "ticks": 11551,
          "time": 134.3139534883721,
          "velocity": 0.31496062992125984
        },
        {
          "duration": 0.023255813953483084,
          "durationTicks": 2,
          "midi": 82,
          "name": "A#5",
          "ticks": 11551,
          "time": 134.3139534883721,
          "velocity": 0.23622047244094488
        },
        {
          "duration": 0.023255813953483084,
          "durationTicks": 2,
          "midi": 39,
          "name": "D#2",
          "ticks": 11553,
          "time": 134.3372093023256,
          "velocity": 0.2992125984251969
        },
        {
          "duration": 0.023255813953483084,
          "durationTicks": 2,
          "midi": 53,
          "name": "F3",
          "ticks": 11553,
          "time": 134.3372093023256,
          "velocity": 0.2755905511811024
        },
        {
          "duration": 0.2906976744185954,
          "durationTicks": 25,
          "midi": 81,
          "name": "A5",
          "ticks": 11553,
          "time": 134.3372093023256,
          "velocity": 0.29133858267716534
        },
        {
          "duration": 0.1046511627907023,
          "durationTicks": 9,
          "midi": 87,
          "name": "D#6",
          "ticks": 11554,
          "time": 134.34883720930233,
          "velocity": 0.16535433070866143
        },
        {
          "duration": 0.1860465116278931,
          "durationTicks": 16,
          "midi": 40,
          "name": "E2",
          "ticks": 11555,
          "time": 134.36046511627907,
          "velocity": 0.29133858267716534
        },
        {
          "duration": 0.034883720930224626,
          "durationTicks": 3,
          "midi": 55,
          "name": "G3",
          "ticks": 11557,
          "time": 134.38372093023256,
          "velocity": 0.2440944881889764
        },
        {
          "duration": 0.13953488372092693,
          "durationTicks": 12,
          "midi": 76,
          "name": "E5",
          "ticks": 11559,
          "time": 134.40697674418604,
          "velocity": 0.48031496062992124
        },
        {
          "duration": 0.1860465116278931,
          "durationTicks": 16,
          "midi": 89,
          "name": "F6",
          "ticks": 11565,
          "time": 134.47674418604652,
          "velocity": 0.23622047244094488
        },
        {
          "duration": 0.034883720930224626,
          "durationTicks": 3,
          "midi": 87,
          "name": "D#6",
          "ticks": 11567,
          "time": 134.5,
          "velocity": 0.11811023622047244
        },
        {
          "duration": 0.5348837209302246,
          "durationTicks": 46,
          "midi": 77,
          "name": "F5",
          "ticks": 11569,
          "time": 134.52325581395348,
          "velocity": 0.5118110236220472
        },
        {
          "duration": 0.8604651162790731,
          "durationTicks": 74,
          "midi": 79,
          "name": "G5",
          "ticks": 11569,
          "time": 134.52325581395348,
          "velocity": 0.44881889763779526
        },
        {
          "duration": 0.24418604651162923,
          "durationTicks": 21,
          "midi": 84,
          "name": "C6",
          "ticks": 11569,
          "time": 134.52325581395348,
          "velocity": 0.4251968503937008
        },
        {
          "duration": 0.023255813953483084,
          "durationTicks": 2,
          "midi": 62,
          "name": "D4",
          "ticks": 11570,
          "time": 134.53488372093022,
          "velocity": 0.3779527559055118
        },
        {
          "duration": 0.24418604651162923,
          "durationTicks": 21,
          "midi": 65,
          "name": "F4",
          "ticks": 11570,
          "time": 134.53488372093022,
          "velocity": 0.4094488188976378
        },
        {
          "duration": 0.2790697674418823,
          "durationTicks": 24,
          "midi": 90,
          "name": "F#6",
          "ticks": 11570,
          "time": 134.53488372093022,
          "velocity": 0.18110236220472442
        },
        {
          "duration": 0.03488372093025305,
          "durationTicks": 3,
          "midi": 47,
          "name": "B2",
          "ticks": 11571,
          "time": 134.54651162790697,
          "velocity": 0.2204724409448819
        },
        {
          "duration": 0.24418604651162923,
          "durationTicks": 21,
          "midi": 69,
          "name": "A4",
          "ticks": 11571,
          "time": 134.54651162790697,
          "velocity": 0.33070866141732286
        },
        {
          "duration": 0.25581395348837077,
          "durationTicks": 22,
          "midi": 72,
          "name": "C5",
          "ticks": 11571,
          "time": 134.54651162790697,
          "velocity": 0.33070866141732286
        },
        {
          "duration": 0.09302325581396076,
          "durationTicks": 8,
          "midi": 83,
          "name": "B5",
          "ticks": 11572,
          "time": 134.5581395348837,
          "velocity": 0.11023622047244094
        },
        {
          "duration": 0.17441860465115155,
          "durationTicks": 15,
          "midi": 62,
          "name": "D4",
          "ticks": 11573,
          "time": 134.56976744186048,
          "velocity": 0.3543307086614173
        },
        {
          "duration": 0.05813953488373613,
          "durationTicks": 5,
          "midi": 57,
          "name": "A3",
          "ticks": 11583,
          "time": 134.6860465116279,
          "velocity": 0.1732283464566929
        },
        {
          "duration": 0.24418604651162923,
          "durationTicks": 21,
          "midi": 82,
          "name": "A#5",
          "ticks": 11589,
          "time": 134.75581395348837,
          "velocity": 0.44881889763779526
        },
        {
          "duration": 0.05813953488373613,
          "durationTicks": 5,
          "midi": 92,
          "name": "G#6",
          "ticks": 11590,
          "time": 134.7674418604651,
          "velocity": 0.07086614173228346
        },
        {
          "duration": 0.023255813953483084,
          "durationTicks": 2,
          "midi": 58,
          "name": "A#3",
          "ticks": 11591,
          "time": 134.77906976744185,
          "velocity": 0.2283464566929134
        },
        {
          "duration": 0.45348837209303383,
          "durationTicks": 39,
          "midi": 67,
          "name": "G4",
          "ticks": 11591,
          "time": 134.77906976744185,
          "velocity": 0.47244094488188976
        },
        {
          "duration": 0.03488372093025305,
          "durationTicks": 3,
          "midi": 95,
          "name": "B6",
          "ticks": 11591,
          "time": 134.77906976744185,
          "velocity": 0.10236220472440945
        },
        {
          "duration": 0.2674418604651123,
          "durationTicks": 23,
          "midi": 62,
          "name": "D4",
          "ticks": 11592,
          "time": 134.7906976744186,
          "velocity": 0.36220472440944884
        },
        {
          "duration": 0.023255813953511506,
          "durationTicks": 2,
          "midi": 43,
          "name": "G2",
          "ticks": 11593,
          "time": 134.80232558139534,
          "velocity": 0.2755905511811024
        },
        {
          "duration": 0.03488372093025305,
          "durationTicks": 3,
          "midi": 50,
          "name": "D3",
          "ticks": 11593,
          "time": 134.80232558139534,
          "velocity": 0.23622047244094488
        },
        {
          "duration": 0.25581395348837077,
          "durationTicks": 22,
          "midi": 85,
          "name": "C#6",
          "ticks": 11593,
          "time": 134.80232558139534,
          "velocity": 0.16535433070866143
        },
        {
          "duration": 0.0813953488371908,
          "durationTicks": 7,
          "midi": 58,
          "name": "A#3",
          "ticks": 11595,
          "time": 134.82558139534885,
          "velocity": 0.28346456692913385
        },
        {
          "duration": 0.09302325581393234,
          "durationTicks": 8,
          "midi": 83,
          "name": "B5",
          "ticks": 11596,
          "time": 134.8372093023256,
          "velocity": 0.1732283464566929
        },
        {
          "duration": 0.034883720930224626,
          "durationTicks": 3,
          "midi": 50,
          "name": "D3",
          "ticks": 11598,
          "time": 134.86046511627907,
          "velocity": 0.18110236220472442
        },
        {
          "duration": 0.05813953488370771,
          "durationTicks": 5,
          "midi": 43,
          "name": "G2",
          "ticks": 11599,
          "time": 134.87209302325581,
          "velocity": 0.1732283464566929
        },
        {
          "duration": 0.04651162790699459,
          "durationTicks": 4,
          "midi": 50,
          "name": "D3",
          "ticks": 11602,
          "time": 134.90697674418604,
          "velocity": 0.15748031496062992
        },
        {
          "duration": 0.05813953488373613,
          "durationTicks": 5,
          "midi": 58,
          "name": "A#3",
          "ticks": 11603,
          "time": 134.91860465116278,
          "velocity": 0.25984251968503935
        },
        {
          "duration": 0.04651162790699459,
          "durationTicks": 4,
          "midi": 81,
          "name": "A5",
          "ticks": 11604,
          "time": 134.93023255813952,
          "velocity": 0.16535433070866143
        },
        {
          "duration": 0.7674418604651123,
          "durationTicks": 66,
          "midi": 83,
          "name": "B5",
          "ticks": 11606,
          "time": 134.95348837209303,
          "velocity": 0.29133858267716534
        },
        {
          "duration": 0.17441860465115155,
          "durationTicks": 15,
          "midi": 69,
          "name": "A4",
          "ticks": 11608,
          "time": 134.97674418604652,
          "velocity": 0.4015748031496063
        },
        {
          "duration": 0.09302325581396076,
          "durationTicks": 8,
          "midi": 90,
          "name": "F#6",
          "ticks": 11608,
          "time": 134.97674418604652,
          "velocity": 0.28346456692913385
        },
        {
          "duration": 0.04651162790696617,
          "durationTicks": 4,
          "midi": 58,
          "name": "A#3",
          "ticks": 11610,
          "time": 135,
          "velocity": 0.2283464566929134
        },
        {
          "duration": 0.24418604651162923,
          "durationTicks": 21,
          "midi": 76,
          "name": "E5",
          "ticks": 11614,
          "time": 135.04651162790697,
          "velocity": 0.41732283464566927
        },
        {
          "duration": 0.03488372093025305,
          "durationTicks": 3,
          "midi": 96,
          "name": "C7",
          "ticks": 11614,
          "time": 135.04651162790697,
          "velocity": 0.07086614173228346
        },
        {
          "duration": 0.13953488372095535,
          "durationTicks": 12,
          "midi": 64,
          "name": "E4",
          "ticks": 11615,
          "time": 135.0581395348837,
          "velocity": 0.3937007874015748
        },
        {
          "duration": 0.16279069767443843,
          "durationTicks": 14,
          "midi": 84,
          "name": "C6",
          "ticks": 11615,
          "time": 135.0581395348837,
          "velocity": 0.1889763779527559
        },
        {
          "duration": 0.13953488372092693,
          "durationTicks": 12,
          "midi": 60,
          "name": "C4",
          "ticks": 11616,
          "time": 135.06976744186048,
          "velocity": 0.41732283464566927
        },
        {
          "duration": 0.32558139534882,
          "durationTicks": 28,
          "midi": 72,
          "name": "C5",
          "ticks": 11616,
          "time": 135.06976744186048,
          "velocity": 0.47244094488188976
        },
        {
          "duration": 0.04651162790696617,
          "durationTicks": 4,
          "midi": 85,
          "name": "C#6",
          "ticks": 11616,
          "time": 135.06976744186048,
          "velocity": 0.10236220472440945
        },
        {
          "duration": 0.04651162790696617,
          "durationTicks": 4,
          "midi": 43,
          "name": "G2",
          "ticks": 11618,
          "time": 135.09302325581396,
          "velocity": 0.2283464566929134
        },
        {
          "duration": 0.12790697674418539,
          "durationTicks": 11,
          "midi": 90,
          "name": "F#6",
          "ticks": 11618,
          "time": 135.09302325581396,
          "velocity": 0.16535433070866143
        },
        {
          "duration": 0.0813953488371908,
          "durationTicks": 7,
          "midi": 64,
          "name": "E4",
          "ticks": 11628,
          "time": 135.2093023255814,
          "velocity": 0.4251968503937008
        },
        {
          "duration": 0.023255813953483084,
          "durationTicks": 2,
          "midi": 60,
          "name": "C4",
          "ticks": 11629,
          "time": 135.22093023255815,
          "velocity": 0.33070866141732286
        },
        {
          "duration": 0.1860465116278931,
          "durationTicks": 16,
          "midi": 87,
          "name": "D#6",
          "ticks": 11629,
          "time": 135.22093023255815,
          "velocity": 0.1968503937007874
        },
        {
          "duration": 0.023255813953483084,
          "durationTicks": 2,
          "midi": 54,
          "name": "F#3",
          "ticks": 11630,
          "time": 135.2325581395349,
          "velocity": 0.3228346456692913
        },
        {
          "duration": 0.034883720930224626,
          "durationTicks": 3,
          "midi": 59,
          "name": "B3",
          "ticks": 11631,
          "time": 135.24418604651163,
          "velocity": 0.4094488188976378
        },
        {
          "duration": 0.034883720930224626,
          "durationTicks": 3,
          "midi": 69,
          "name": "A4",
          "ticks": 11631,
          "time": 135.24418604651163,
          "velocity": 0.2283464566929134
        },
        {
          "duration": 0.19767441860466306,
          "durationTicks": 17,
          "midi": 53,
          "name": "F3",
          "ticks": 11632,
          "time": 135.25581395348837,
          "velocity": 0.3464566929133858
        },
        {
          "duration": 0.023255813953483084,
          "durationTicks": 2,
          "midi": 58,
          "name": "A#3",
          "ticks": 11634,
          "time": 135.27906976744185,
          "velocity": 0.2440944881889764
        },
        {
          "duration": 0.03488372093025305,
          "durationTicks": 3,
          "midi": 65,
          "name": "F4",
          "ticks": 11635,
          "time": 135.2906976744186,
          "velocity": 0.3543307086614173
        },
        {
          "duration": 0.17441860465117998,
          "durationTicks": 15,
          "midi": 81,
          "name": "A5",
          "ticks": 11635,
          "time": 135.2906976744186,
          "velocity": 0.2204724409448819
        },
        {
          "duration": 0.18604651162792152,
          "durationTicks": 16,
          "midi": 93,
          "name": "A6",
          "ticks": 11635,
          "time": 135.2906976744186,
          "velocity": 0.23622047244094488
        },
        {
          "duration": 0.06976744186044925,
          "durationTicks": 6,
          "midi": 41,
          "name": "F2",
          "ticks": 11637,
          "time": 135.3139534883721,
          "velocity": 0.15748031496062992
        },
        {
          "duration": 0.04651162790696617,
          "durationTicks": 4,
          "midi": 59,
          "name": "B3",
          "ticks": 11637,
          "time": 135.3139534883721,
          "velocity": 0.31496062992125984
        },
        {
          "duration": 0.13953488372092693,
          "durationTicks": 12,
          "midi": 77,
          "name": "F5",
          "ticks": 11637,
          "time": 135.3139534883721,
          "velocity": 0.48031496062992124
        },
        {
          "duration": 0.04651162790696617,
          "durationTicks": 4,
          "midi": 98,
          "name": "D7",
          "ticks": 11638,
          "time": 135.32558139534885,
          "velocity": 0.07086614173228346
        },
        {
          "duration": 0.034883720930224626,
          "durationTicks": 3,
          "midi": 65,
          "name": "F4",
          "ticks": 11639,
          "time": 135.3372093023256,
          "velocity": 0.36220472440944884
        },
        {
          "duration": 0.12790697674418539,
          "durationTicks": 11,
          "midi": 69,
          "name": "A4",
          "ticks": 11639,
          "time": 135.3372093023256,
          "velocity": 0.3779527559055118
        },
        {
          "duration": 0.034883720930224626,
          "durationTicks": 3,
          "midi": 65,
          "name": "F4",
          "ticks": 11643,
          "time": 135.38372093023256,
          "velocity": 0.3464566929133858
        },
        {
          "duration": 0.05813953488373613,
          "durationTicks": 5,
          "midi": 41,
          "name": "F2",
          "ticks": 11644,
          "time": 135.3953488372093,
          "velocity": 0.15748031496062992
        },
        {
          "duration": 0.023255813953483084,
          "durationTicks": 2,
          "midi": 59,
          "name": "B3",
          "ticks": 11644,
          "time": 135.3953488372093,
          "velocity": 0.30708661417322836
        },
        {
          "duration": 0.023255813953511506,
          "durationTicks": 2,
          "midi": 58,
          "name": "A#3",
          "ticks": 11646,
          "time": 135.41860465116278,
          "velocity": 0.25196850393700787
        },
        {
          "duration": 0.03488372093025305,
          "durationTicks": 3,
          "midi": 66,
          "name": "F#4",
          "ticks": 11647,
          "time": 135.43023255813952,
          "velocity": 0.3464566929133858
        },
        {
          "duration": 0.09302325581396076,
          "durationTicks": 8,
          "midi": 88,
          "name": "E6",
          "ticks": 11647,
          "time": 135.43023255813952,
          "velocity": 0.30708661417322836
        },
        {
          "duration": 0.23255813953485927,
          "durationTicks": 20,
          "midi": 60,
          "name": "C4",
          "ticks": 11648,
          "time": 135.4418604651163,
          "velocity": 0.4015748031496063
        },
        {
          "duration": 0.7093023255813762,
          "durationTicks": 61,
          "midi": 72,
          "name": "C5",
          "ticks": 11648,
          "time": 135.4418604651163,
          "velocity": 0.5118110236220472
        },
        {
          "duration": 0.05813953488370771,
          "durationTicks": 5,
          "midi": 87,
          "name": "D#6",
          "ticks": 11648,
          "time": 135.4418604651163,
          "velocity": 0.14173228346456693
        },
        {
          "duration": 0.22093023255811772,
          "durationTicks": 19,
          "midi": 76,
          "name": "E5",
          "ticks": 11649,
          "time": 135.45348837209303,
          "velocity": 0.4566929133858268
        },
        {
          "duration": 0.3139534883720785,
          "durationTicks": 27,
          "midi": 67,
          "name": "G4",
          "ticks": 11650,
          "time": 135.46511627906978,
          "velocity": 0.44881889763779526
        },
        {
          "duration": 0.09302325581393234,
          "durationTicks": 8,
          "midi": 85,
          "name": "C#6",
          "ticks": 11650,
          "time": 135.46511627906978,
          "velocity": 0.15748031496062992
        },
        {
          "duration": 0.24418604651162923,
          "durationTicks": 21,
          "midi": 81,
          "name": "A5",
          "ticks": 11656,
          "time": 135.53488372093022,
          "velocity": 0.31496062992125984
        },
        {
          "duration": 0.06976744186044925,
          "durationTicks": 6,
          "midi": 89,
          "name": "F6",
          "ticks": 11659,
          "time": 135.56976744186048,
          "velocity": 0.11023622047244094
        },
        {
          "duration": 0.034883720930224626,
          "durationTicks": 3,
          "midi": 65,
          "name": "F4",
          "ticks": 11666,
          "time": 135.65116279069767,
          "velocity": 0.25984251968503935
        },
        {
          "duration": 0.67441860465118,
          "durationTicks": 58,
          "midi": 77,
          "name": "F5",
          "ticks": 11667,
          "time": 135.6627906976744,
          "velocity": 0.5039370078740157
        },
        {
          "duration": 0.03488372093025305,
          "durationTicks": 3,
          "midi": 44,
          "name": "G#2",
          "ticks": 11669,
          "time": 135.6860465116279,
          "velocity": 0.3700787401574803
        },
        {
          "duration": 0.22093023255814614,
          "durationTicks": 19,
          "midi": 60,
          "name": "C4",
          "ticks": 11669,
          "time": 135.6860465116279,
          "velocity": 0.4330708661417323
        },
        {
          "duration": 0.22093023255814614,
          "durationTicks": 19,
          "midi": 88,
          "name": "E6",
          "ticks": 11669,
          "time": 135.6860465116279,
          "velocity": 0.1732283464566929
        },
        {
          "duration": 0.04651162790696617,
          "durationTicks": 4,
          "midi": 90,
          "name": "F#6",
          "ticks": 11670,
          "time": 135.69767441860466,
          "velocity": 0.08661417322834646
        },
        {
          "duration": 0.034883720930224626,
          "durationTicks": 3,
          "midi": 82,
          "name": "A#5",
          "ticks": 11671,
          "time": 135.7093023255814,
          "velocity": 0.08661417322834646
        },
        {
          "duration": 0.24418604651162923,
          "durationTicks": 21,
          "midi": 85,
          "name": "C#6",
          "ticks": 11671,
          "time": 135.7093023255814,
          "velocity": 0.14173228346456693
        },
        {
          "duration": 0.17441860465115155,
          "durationTicks": 15,
          "midi": 43,
          "name": "G2",
          "ticks": 11672,
          "time": 135.72093023255815,
          "velocity": 0.3543307086614173
        },
        {
          "duration": 0.12790697674418539,
          "durationTicks": 11,
          "midi": 83,
          "name": "B5",
          "ticks": 11674,
          "time": 135.74418604651163,
          "velocity": 0.1889763779527559
        },
        {
          "duration": 0.09302325581396076,
          "durationTicks": 8,
          "midi": 65,
          "name": "F4",
          "ticks": 11675,
          "time": 135.75581395348837,
          "velocity": 0.1968503937007874
        },
        {
          "duration": 0.03488372093025305,
          "durationTicks": 3,
          "midi": 82,
          "name": "A#5",
          "ticks": 11677,
          "time": 135.77906976744185,
          "velocity": 0.1732283464566929
        },
        {
          "duration": 0.05813953488373613,
          "durationTicks": 5,
          "midi": 96,
          "name": "C7",
          "ticks": 11677,
          "time": 135.77906976744185,
          "velocity": 0.13385826771653545
        },
        {
          "duration": 0.04651162790699459,
          "durationTicks": 4,
          "midi": 90,
          "name": "F#6",
          "ticks": 11678,
          "time": 135.7906976744186,
          "velocity": 0.08661417322834646
        },
        {
          "duration": 0.1046511627907023,
          "durationTicks": 9,
          "midi": 74,
          "name": "D5",
          "ticks": 11679,
          "time": 135.80232558139534,
          "velocity": 0.3858267716535433
        },
        {
          "duration": 0.22093023255814614,
          "durationTicks": 19,
          "midi": 81,
          "name": "A5",
          "ticks": 11679,
          "time": 135.80232558139534,
          "velocity": 0.30708661417322836
        },
        {
          "duration": 0.08139534883721922,
          "durationTicks": 7,
          "midi": 91,
          "name": "G6",
          "ticks": 11687,
          "time": 135.8953488372093,
          "velocity": 0.16535433070866143
        },
        {
          "duration": 0.1046511627907023,
          "durationTicks": 9,
          "midi": 62,
          "name": "D4",
          "ticks": 11688,
          "time": 135.90697674418604,
          "velocity": 0.2992125984251969
        },
        {
          "duration": 0.3139534883721069,
          "durationTicks": 27,
          "midi": 65,
          "name": "F4",
          "ticks": 11688,
          "time": 135.90697674418604,
          "velocity": 0.47244094488188976
        },
        {
          "duration": 0.09302325581396076,
          "durationTicks": 8,
          "midi": 69,
          "name": "A4",
          "ticks": 11688,
          "time": 135.90697674418604,
          "velocity": 0.14173228346456693
        },
        {
          "duration": 0.22093023255814614,
          "durationTicks": 19,
          "midi": 87,
          "name": "D#6",
          "ticks": 11688,
          "time": 135.90697674418604,
          "velocity": 0.14960629921259844
        },
        {
          "duration": 0.03488372093025305,
          "durationTicks": 3,
          "midi": 53,
          "name": "F3",
          "ticks": 11690,
          "time": 135.93023255813952,
          "velocity": 0.30708661417322836
        },
        {
          "duration": 0.1860465116278931,
          "durationTicks": 16,
          "midi": 88,
          "name": "E6",
          "ticks": 11691,
          "time": 135.9418604651163,
          "velocity": 0.18110236220472442
        },
        {
          "duration": 0.09302325581393234,
          "durationTicks": 8,
          "midi": 95,
          "name": "B6",
          "ticks": 11691,
          "time": 135.9418604651163,
          "velocity": 0.08661417322834646
        },
        {
          "duration": 0.4767441860464885,
          "durationTicks": 41,
          "midi": 74,
          "name": "D5",
          "ticks": 11692,
          "time": 135.95348837209303,
          "velocity": 0.33858267716535434
        },
        {
          "duration": 0.023255813953483084,
          "durationTicks": 2,
          "midi": 53,
          "name": "F3",
          "ticks": 11694,
          "time": 135.97674418604652,
          "velocity": 0.33070866141732286
        },
        {
          "duration": 0.034883720930224626,
          "durationTicks": 3,
          "midi": 85,
          "name": "C#6",
          "ticks": 11696,
          "time": 136,
          "velocity": 0.10236220472440945
        },
        {
          "duration": 0.034883720930224626,
          "durationTicks": 3,
          "midi": 38,
          "name": "D2",
          "ticks": 11698,
          "time": 136.02325581395348,
          "velocity": 0.2047244094488189
        },
        {
          "duration": 0.1046511627907023,
          "durationTicks": 9,
          "midi": 62,
          "name": "D4",
          "ticks": 11698,
          "time": 136.02325581395348,
          "velocity": 0.2677165354330709
        },
        {
          "duration": 0.023255813953483084,
          "durationTicks": 2,
          "midi": 51,
          "name": "D#3",
          "ticks": 11699,
          "time": 136.03488372093022,
          "velocity": 0.31496062992125984
        },
        {
          "duration": 0.03488372093025305,
          "durationTicks": 3,
          "midi": 57,
          "name": "A3",
          "ticks": 11699,
          "time": 136.03488372093022,
          "velocity": 0.18110236220472442
        },
        {
          "duration": 0.05813953488370771,
          "durationTicks": 5,
          "midi": 38,
          "name": "D2",
          "ticks": 11702,
          "time": 136.06976744186048,
          "velocity": 0.18110236220472442
        },
        {
          "duration": 0.04651162790696617,
          "durationTicks": 4,
          "midi": 57,
          "name": "A3",
          "ticks": 11703,
          "time": 136.08139534883722,
          "velocity": 0.2440944881889764
        },
        {
          "duration": 0.04651162790696617,
          "durationTicks": 4,
          "midi": 85,
          "name": "C#6",
          "ticks": 11703,
          "time": 136.08139534883722,
          "velocity": 0.11023622047244094
        },
        {
          "duration": 0.06976744186044925,
          "durationTicks": 6,
          "midi": 91,
          "name": "G6",
          "ticks": 11703,
          "time": 136.08139534883722,
          "velocity": 0.10236220472440945
        },
        {
          "duration": 0.023255813953483084,
          "durationTicks": 2,
          "midi": 51,
          "name": "D#3",
          "ticks": 11706,
          "time": 136.11627906976744,
          "velocity": 0.25984251968503935
        },
        {
          "duration": 0.04651162790696617,
          "durationTicks": 4,
          "midi": 82,
          "name": "A#5",
          "ticks": 11706,
          "time": 136.11627906976744,
          "velocity": 0.14173228346456693
        },
        {
          "duration": 0.16279069767441,
          "durationTicks": 14,
          "midi": 86,
          "name": "D6",
          "ticks": 11706,
          "time": 136.11627906976744,
          "velocity": 0.3779527559055118
        },
        {
          "duration": 0.034883720930224626,
          "durationTicks": 3,
          "midi": 93,
          "name": "A6",
          "ticks": 11706,
          "time": 136.11627906976744,
          "velocity": 0.11811023622047244
        },
        {
          "duration": 0.18604651162792152,
          "durationTicks": 16,
          "midi": 59,
          "name": "B3",
          "ticks": 11708,
          "time": 136.13953488372093,
          "velocity": 0.33070866141732286
        },
        {
          "duration": 0.18604651162792152,
          "durationTicks": 16,
          "midi": 85,
          "name": "C#6",
          "ticks": 11708,
          "time": 136.13953488372093,
          "velocity": 0.4015748031496063
        },
        {
          "duration": 0.034883720930224626,
          "durationTicks": 3,
          "midi": 95,
          "name": "B6",
          "ticks": 11708,
          "time": 136.13953488372093,
          "velocity": 0.12598425196850394
        },
        {
          "duration": 0.12790697674418539,
          "durationTicks": 11,
          "midi": 83,
          "name": "B5",
          "ticks": 11710,
          "time": 136.1627906976744,
          "velocity": 0.41732283464566927
        },
        {
          "duration": 0.16279069767443843,
          "durationTicks": 14,
          "midi": 53,
          "name": "F3",
          "ticks": 11711,
          "time": 136.17441860465115,
          "velocity": 0.3779527559055118
        },
        {
          "duration": 0.1511627906976969,
          "durationTicks": 13,
          "midi": 84,
          "name": "C6",
          "ticks": 11711,
          "time": 136.17441860465115,
          "velocity": 0.3937007874015748
        },
        {
          "duration": 0.09302325581396076,
          "durationTicks": 8,
          "midi": 87,
          "name": "D#6",
          "ticks": 11711,
          "time": 136.17441860465115,
          "velocity": 0.1889763779527559
        },
        {
          "duration": 0.17441860465117998,
          "durationTicks": 15,
          "midi": 88,
          "name": "E6",
          "ticks": 11711,
          "time": 136.17441860465115,
          "velocity": 0.11811023622047244
        },
        {
          "duration": 0.03488372093025305,
          "durationTicks": 3,
          "midi": 93,
          "name": "A6",
          "ticks": 11711,
          "time": 136.17441860465115,
          "velocity": 0.11023622047244094
        },
        {
          "duration": 0.034883720930224626,
          "durationTicks": 3,
          "midi": 67,
          "name": "G4",
          "ticks": 11713,
          "time": 136.19767441860466,
          "velocity": 0.2992125984251969
        },
        {
          "duration": 0.11627906976744384,
          "durationTicks": 10,
          "midi": 41,
          "name": "F2",
          "ticks": 11716,
          "time": 136.2325581395349,
          "velocity": 0.1732283464566929
        },
        {
          "duration": 0.034883720930224626,
          "durationTicks": 3,
          "midi": 65,
          "name": "F4",
          "ticks": 11716,
          "time": 136.2325581395349,
          "velocity": 0.3858267716535433
        },
        {
          "duration": 0.13953488372092693,
          "durationTicks": 12,
          "midi": 82,
          "name": "A#5",
          "ticks": 11716,
          "time": 136.2325581395349,
          "velocity": 0.4251968503937008
        },
        {
          "duration": 0.13953488372092693,
          "durationTicks": 12,
          "midi": 91,
          "name": "G6",
          "ticks": 11716,
          "time": 136.2325581395349,
          "velocity": 0.13385826771653545
        },
        {
          "duration": 0.33720930232559,
          "durationTicks": 29,
          "midi": 67,
          "name": "G4",
          "ticks": 11717,
          "time": 136.24418604651163,
          "velocity": 0.30708661417322836
        },
        {
          "duration": 0.08139534883721922,
          "durationTicks": 7,
          "midi": 93,
          "name": "A6",
          "ticks": 11717,
          "time": 136.24418604651163,
          "velocity": 0.2440944881889764
        },
        {
          "duration": 0.06976744186047767,
          "durationTicks": 6,
          "midi": 79,
          "name": "G5",
          "ticks": 11721,
          "time": 136.2906976744186,
          "velocity": 0.44881889763779526
        },
        {
          "duration": 0.08139534883721922,
          "durationTicks": 7,
          "midi": 92,
          "name": "G#6",
          "ticks": 11721,
          "time": 136.2906976744186,
          "velocity": 0.1968503937007874
        },
        {
          "duration": 0.06976744186047767,
          "durationTicks": 6,
          "midi": 87,
          "name": "D#6",
          "ticks": 11722,
          "time": 136.30232558139534,
          "velocity": 0.14173228346456693
        },
        {
          "duration": 0.023255813953483084,
          "durationTicks": 2,
          "midi": 52,
          "name": "E3",
          "ticks": 11725,
          "time": 136.3372093023256,
          "velocity": 0.2283464566929134
        },
        {
          "duration": 0.023255813953483084,
          "durationTicks": 2,
          "midi": 59,
          "name": "B3",
          "ticks": 11725,
          "time": 136.3372093023256,
          "velocity": 0.23622047244094488
        },
        {
          "duration": 0.11627906976744384,
          "durationTicks": 10,
          "midi": 72,
          "name": "C5",
          "ticks": 11726,
          "time": 136.34883720930233,
          "velocity": 0.3464566929133858
        },
        {
          "duration": 0.04651162790696617,
          "durationTicks": 4,
          "midi": 78,
          "name": "F#5",
          "ticks": 11726,
          "time": 136.34883720930233,
          "velocity": 0.4330708661417323
        },
        {
          "duration": 0.19767441860463464,
          "durationTicks": 17,
          "midi": 83,
          "name": "B5",
          "ticks": 11727,
          "time": 136.36046511627907,
          "velocity": 0.23622047244094488
        },
        {
          "duration": 0.09302325581396076,
          "durationTicks": 8,
          "midi": 89,
          "name": "F6",
          "ticks": 11727,
          "time": 136.36046511627907,
          "velocity": 0.2125984251968504
        },
        {
          "duration": 0.04651162790696617,
          "durationTicks": 4,
          "midi": 43,
          "name": "G2",
          "ticks": 11728,
          "time": 136.37209302325581,
          "velocity": 0.29133858267716534
        },
        {
          "duration": 0.22093023255814614,
          "durationTicks": 19,
          "midi": 60,
          "name": "C4",
          "ticks": 11728,
          "time": 136.37209302325581,
          "velocity": 0.4015748031496063
        },
        {
          "duration": 0.034883720930224626,
          "durationTicks": 3,
          "midi": 53,
          "name": "F3",
          "ticks": 11729,
          "time": 136.38372093023256,
          "velocity": 0.2283464566929134
        },
        {
          "duration": 0.034883720930224626,
          "durationTicks": 3,
          "midi": 65,
          "name": "F4",
          "ticks": 11729,
          "time": 136.38372093023256,
          "velocity": 0.23622047244094488
        },
        {
          "duration": 0.2093023255814046,
          "durationTicks": 18,
          "midi": 88,
          "name": "E6",
          "ticks": 11729,
          "time": 136.38372093023256,
          "velocity": 0.2283464566929134
        },
        {
          "duration": 0.04651162790699459,
          "durationTicks": 4,
          "midi": 76,
          "name": "E5",
          "ticks": 11730,
          "time": 136.3953488372093,
          "velocity": 0.4645669291338583
        },
        {
          "duration": 0.08139534883721922,
          "durationTicks": 7,
          "midi": 87,
          "name": "D#6",
          "ticks": 11732,
          "time": 136.41860465116278,
          "velocity": 0.1889763779527559
        },
        {
          "duration": 0.06976744186047767,
          "durationTicks": 6,
          "midi": 43,
          "name": "G2",
          "ticks": 11733,
          "time": 136.43023255813952,
          "velocity": 0.2125984251968504
        },
        {
          "duration": 0.03488372093025305,
          "durationTicks": 3,
          "midi": 75,
          "name": "D#5",
          "ticks": 11733,
          "time": 136.43023255813952,
          "velocity": 0.47244094488188976
        },
        {
          "duration": 0.5465116279069662,
          "durationTicks": 47,
          "midi": 79,
          "name": "G5",
          "ticks": 11734,
          "time": 136.4418604651163,
          "velocity": 0.4881889763779528
        },
        {
          "duration": 0.04651162790696617,
          "durationTicks": 4,
          "midi": 86,
          "name": "D6",
          "ticks": 11734,
          "time": 136.4418604651163,
          "velocity": 0.08661417322834646
        },
        {
          "duration": 0.06976744186044925,
          "durationTicks": 6,
          "midi": 93,
          "name": "A6",
          "ticks": 11735,
          "time": 136.45348837209303,
          "velocity": 0.1732283464566929
        },
        {
          "duration": 0.023255813953483084,
          "durationTicks": 2,
          "midi": 72,
          "name": "C5",
          "ticks": 11737,
          "time": 136.47674418604652,
          "velocity": 0.4251968503937008
        },
        {
          "duration": 0.04651162790696617,
          "durationTicks": 4,
          "midi": 92,
          "name": "G#6",
          "ticks": 11737,
          "time": 136.47674418604652,
          "velocity": 0.09448818897637795
        },
        {
          "duration": 0.08139534883721922,
          "durationTicks": 7,
          "midi": 55,
          "name": "G3",
          "ticks": 11738,
          "time": 136.48837209302326,
          "velocity": 0.2125984251968504
        },
        {
          "duration": 0.034883720930224626,
          "durationTicks": 3,
          "midi": 73,
          "name": "C#5",
          "ticks": 11738,
          "time": 136.48837209302326,
          "velocity": 0.4566929133858268
        },
        {
          "duration": 0.034883720930224626,
          "durationTicks": 3,
          "midi": 72,
          "name": "C5",
          "ticks": 11740,
          "time": 136.51162790697674,
          "velocity": 0.49606299212598426
        },
        {
          "duration": 0.03488372093025305,
          "durationTicks": 3,
          "midi": 43,
          "name": "G2",
          "ticks": 11742,
          "time": 136.53488372093022,
          "velocity": 0.2047244094488189
        },
        {
          "duration": 0.04651162790699459,
          "durationTicks": 4,
          "midi": 76,
          "name": "E5",
          "ticks": 11742,
          "time": 136.53488372093022,
          "velocity": 0.2204724409448819
        },
        {
          "duration": 0.023255813953511506,
          "durationTicks": 2,
          "midi": 73,
          "name": "C#5",
          "ticks": 11743,
          "time": 136.54651162790697,
          "velocity": 0.4015748031496063
        },
        {
          "duration": 0.1046511627907023,
          "durationTicks": 9,
          "midi": 70,
          "name": "A#4",
          "ticks": 11744,
          "time": 136.5581395348837,
          "velocity": 0.5196850393700787
        },
        {
          "duration": 0.06976744186044925,
          "durationTicks": 6,
          "midi": 65,
          "name": "F4",
          "ticks": 11745,
          "time": 136.56976744186048,
          "velocity": 0.4015748031496063
        },
        {
          "duration": 0.9302325581395223,
          "durationTicks": 80,
          "midi": 74,
          "name": "D5",
          "ticks": 11745,
          "time": 136.56976744186048,
          "velocity": 0.5275590551181102
        },
        {
          "duration": 0.05813953488370771,
          "durationTicks": 5,
          "midi": 81,
          "name": "A5",
          "ticks": 11745,
          "time": 136.56976744186048,
          "velocity": 0.3228346456692913
        },
        {
          "duration": 0.034883720930224626,
          "durationTicks": 3,
          "midi": 90,
          "name": "F#6",
          "ticks": 11745,
          "time": 136.56976744186048,
          "velocity": 0.14173228346456693
        },
        {
          "duration": 0.04651162790696617,
          "durationTicks": 4,
          "midi": 94,
          "name": "A#6",
          "ticks": 11745,
          "time": 136.56976744186048,
          "velocity": 0.13385826771653545
        },
        {
          "duration": 0.023255813953483084,
          "durationTicks": 2,
          "midi": 42,
          "name": "F#2",
          "ticks": 11746,
          "time": 136.58139534883722,
          "velocity": 0.25196850393700787
        },
        {
          "duration": 0.09302325581393234,
          "durationTicks": 8,
          "midi": 89,
          "name": "F6",
          "ticks": 11746,
          "time": 136.58139534883722,
          "velocity": 0.1889763779527559
        },
        {
          "duration": 0.05813953488370771,
          "durationTicks": 5,
          "midi": 92,
          "name": "G#6",
          "ticks": 11746,
          "time": 136.58139534883722,
          "velocity": 0.14173228346456693
        },
        {
          "duration": 0.2325581395348877,
          "durationTicks": 20,
          "midi": 62,
          "name": "D4",
          "ticks": 11747,
          "time": 136.59302325581396,
          "velocity": 0.41732283464566927
        },
        {
          "duration": 0.2674418604651123,
          "durationTicks": 23,
          "midi": 87,
          "name": "D#6",
          "ticks": 11747,
          "time": 136.59302325581396,
          "velocity": 0.12598425196850394
        },
        {
          "duration": 0.05813953488370771,
          "durationTicks": 5,
          "midi": 98,
          "name": "D7",
          "ticks": 11747,
          "time": 136.59302325581396,
          "velocity": 0.11811023622047244
        },
        {
          "duration": 0.19767441860463464,
          "durationTicks": 17,
          "midi": 53,
          "name": "F3",
          "ticks": 11748,
          "time": 136.6046511627907,
          "velocity": 0.2992125984251969
        },
        {
          "duration": 0.17441860465115155,
          "durationTicks": 15,
          "midi": 67,
          "name": "G4",
          "ticks": 11749,
          "time": 136.61627906976744,
          "velocity": 0.41732283464566927
        },
        {
          "duration": 0.17441860465115155,
          "durationTicks": 15,
          "midi": 58,
          "name": "A#3",
          "ticks": 11750,
          "time": 136.62790697674419,
          "velocity": 0.33070866141732286
        },
        {
          "duration": 0.023255813953483084,
          "durationTicks": 2,
          "midi": 69,
          "name": "A4",
          "ticks": 11753,
          "time": 136.6627906976744,
          "velocity": 0.48031496062992124
        },
        {
          "duration": 0.05813953488373613,
          "durationTicks": 5,
          "midi": 70,
          "name": "A#4",
          "ticks": 11754,
          "time": 136.67441860465115,
          "velocity": 0.47244094488188976
        },
        {
          "duration": 0.09302325581393234,
          "durationTicks": 8,
          "midi": 69,
          "name": "A4",
          "ticks": 11757,
          "time": 136.7093023255814,
          "velocity": 0.44881889763779526
        },
        {
          "duration": 0.034883720930224626,
          "durationTicks": 3,
          "midi": 46,
          "name": "A#2",
          "ticks": 11758,
          "time": 136.72093023255815,
          "velocity": 0.14173228346456693
        },
        {
          "duration": 0.034883720930224626,
          "durationTicks": 3,
          "midi": 92,
          "name": "G#6",
          "ticks": 11758,
          "time": 136.72093023255815,
          "velocity": 0.07086614173228346
        },
        {
          "duration": 0.06976744186047767,
          "durationTicks": 6,
          "midi": 46,
          "name": "A#2",
          "ticks": 11763,
          "time": 136.77906976744185,
          "velocity": 0.13385826771653545
        },
        {
          "duration": 0.04651162790699459,
          "durationTicks": 4,
          "midi": 67,
          "name": "G4",
          "ticks": 11765,
          "time": 136.80232558139534,
          "velocity": 0.30708661417322836
        },
        {
          "duration": 0.19767441860463464,
          "durationTicks": 17,
          "midi": 60,
          "name": "C4",
          "ticks": 11766,
          "time": 136.8139534883721,
          "velocity": 0.41732283464566927
        },
        {
          "duration": 0.13953488372092693,
          "durationTicks": 12,
          "midi": 65,
          "name": "F4",
          "ticks": 11766,
          "time": 136.8139534883721,
          "velocity": 0.2440944881889764
        },
        {
          "duration": 0.22093023255811772,
          "durationTicks": 19,
          "midi": 69,
          "name": "A4",
          "ticks": 11766,
          "time": 136.8139534883721,
          "velocity": 0.3937007874015748
        },
        {
          "duration": 0.12790697674418539,
          "durationTicks": 11,
          "midi": 88,
          "name": "E6",
          "ticks": 11766,
          "time": 136.8139534883721,
          "velocity": 0.14173228346456693
        },
        {
          "duration": 0.05813953488370771,
          "durationTicks": 5,
          "midi": 53,
          "name": "F3",
          "ticks": 11767,
          "time": 136.82558139534885,
          "velocity": 0.11811023622047244
        },
        {
          "duration": 0.10465116279067388,
          "durationTicks": 9,
          "midi": 85,
          "name": "C#6",
          "ticks": 11777,
          "time": 136.9418604651163,
          "velocity": 0.11811023622047244
        },
        {
          "duration": 0.023255813953483084,
          "durationTicks": 2,
          "midi": 66,
          "name": "F#4",
          "ticks": 11784,
          "time": 137.02325581395348,
          "velocity": 0.2677165354330709
        },
        {
          "duration": 0.25581395348837077,
          "durationTicks": 22,
          "midi": 79,
          "name": "G5",
          "ticks": 11785,
          "time": 137.03488372093022,
          "velocity": 0.3937007874015748
        },
        {
          "duration": 0.2906976744186238,
          "durationTicks": 25,
          "midi": 88,
          "name": "E6",
          "ticks": 11785,
          "time": 137.03488372093022,
          "velocity": 0.18110236220472442
        },
        {
          "duration": 0.03488372093025305,
          "durationTicks": 3,
          "midi": 89,
          "name": "F6",
          "ticks": 11785,
          "time": 137.03488372093022,
          "velocity": 0.07086614173228346
        },
        {
          "duration": 0.3139534883721069,
          "durationTicks": 27,
          "midi": 62,
          "name": "D4",
          "ticks": 11786,
          "time": 137.04651162790697,
          "velocity": 0.3937007874015748
        },
        {
          "duration": 0.2093023255814046,
          "durationTicks": 18,
          "midi": 67,
          "name": "G4",
          "ticks": 11786,
          "time": 137.04651162790697,
          "velocity": 0.3700787401574803
        },
        {
          "duration": 0.3139534883721069,
          "durationTicks": 27,
          "midi": 70,
          "name": "A#4",
          "ticks": 11786,
          "time": 137.04651162790697,
          "velocity": 0.4251968503937008
        },
        {
          "duration": 0.03488372093025305,
          "durationTicks": 3,
          "midi": 84,
          "name": "C6",
          "ticks": 11786,
          "time": 137.04651162790697,
          "velocity": 0.12598425196850394
        },
        {
          "duration": 0.034883720930224626,
          "durationTicks": 3,
          "midi": 50,
          "name": "D3",
          "ticks": 11789,
          "time": 137.08139534883722,
          "velocity": 0.2992125984251969
        },
        {
          "duration": 0.05813953488370771,
          "durationTicks": 5,
          "midi": 84,
          "name": "C6",
          "ticks": 11790,
          "time": 137.09302325581396,
          "velocity": 0.12598425196850394
        },
        {
          "duration": 0.4651162790697754,
          "durationTicks": 40,
          "midi": 83,
          "name": "B5",
          "ticks": 11791,
          "time": 137.1046511627907,
          "velocity": 0.2440944881889764
        },
        {
          "duration": 0.12790697674418539,
          "durationTicks": 11,
          "midi": 89,
          "name": "F6",
          "ticks": 11791,
          "time": 137.1046511627907,
          "velocity": 0.13385826771653545
        },
        {
          "duration": 0.04651162790696617,
          "durationTicks": 4,
          "midi": 92,
          "name": "G#6",
          "ticks": 11791,
          "time": 137.1046511627907,
          "velocity": 0.08661417322834646
        },
        {
          "duration": 0.08139534883721922,
          "durationTicks": 7,
          "midi": 50,
          "name": "D3",
          "ticks": 11793,
          "time": 137.12790697674419,
          "velocity": 0.2755905511811024
        },
        {
          "duration": 0.034883720930224626,
          "durationTicks": 3,
          "midi": 55,
          "name": "G3",
          "ticks": 11795,
          "time": 137.15116279069767,
          "velocity": 0.1732283464566929
        },
        {
          "duration": 0.023255813953483084,
          "durationTicks": 2,
          "midi": 50,
          "name": "D3",
          "ticks": 11801,
          "time": 137.22093023255815,
          "velocity": 0.25984251968503935
        },
        {
          "duration": 0.05813953488370771,
          "durationTicks": 5,
          "midi": 77,
          "name": "F5",
          "ticks": 11803,
          "time": 137.24418604651163,
          "velocity": 0.11811023622047244
        },
        {
          "duration": 0.034883720930224626,
          "durationTicks": 3,
          "midi": 92,
          "name": "G#6",
          "ticks": 11803,
          "time": 137.24418604651163,
          "velocity": 0.07086614173228346
        },
        {
          "duration": 0.023255813953483084,
          "durationTicks": 2,
          "midi": 50,
          "name": "D3",
          "ticks": 11804,
          "time": 137.25581395348837,
          "velocity": 0.2440944881889764
        },
        {
          "duration": 0.034883720930224626,
          "durationTicks": 3,
          "midi": 80,
          "name": "G#5",
          "ticks": 11805,
          "time": 137.2674418604651,
          "velocity": 0.14173228346456693
        },
        {
          "duration": 0.13953488372092693,
          "durationTicks": 12,
          "midi": 81,
          "name": "A5",
          "ticks": 11805,
          "time": 137.2674418604651,
          "velocity": 0.15748031496062992
        },
        {
          "duration": 0.023255813953483084,
          "durationTicks": 2,
          "midi": 57,
          "name": "A3",
          "ticks": 11806,
          "time": 137.27906976744185,
          "velocity": 0.23622047244094488
        },
        {
          "duration": 0.05813953488373613,
          "durationTicks": 5,
          "midi": 85,
          "name": "C#6",
          "ticks": 11806,
          "time": 137.27906976744185,
          "velocity": 0.13385826771653545
        },
        {
          "duration": 0.05813953488370771,
          "durationTicks": 5,
          "midi": 67,
          "name": "G4",
          "ticks": 11811,
          "time": 137.3372093023256,
          "velocity": 0.2992125984251969
        },
        {
          "duration": 0.1046511627907023,
          "durationTicks": 9,
          "midi": 72,
          "name": "C5",
          "ticks": 11815,
          "time": 137.38372093023256,
          "velocity": 0.11811023622047244
        },
        {
          "duration": 0.25581395348837077,
          "durationTicks": 22,
          "midi": 77,
          "name": "F5",
          "ticks": 11815,
          "time": 137.38372093023256,
          "velocity": 0.5511811023622047
        },
        {
          "duration": 0.25581395348837077,
          "durationTicks": 22,
          "midi": 87,
          "name": "D#6",
          "ticks": 11815,
          "time": 137.38372093023256,
          "velocity": 0.1889763779527559
        },
        {
          "duration": 0.15116279069766847,
          "durationTicks": 13,
          "midi": 91,
          "name": "G6",
          "ticks": 11815,
          "time": 137.38372093023256,
          "velocity": 0.10236220472440945
        },
        {
          "duration": 0.12790697674418539,
          "durationTicks": 11,
          "midi": 53,
          "name": "F3",
          "ticks": 11816,
          "time": 137.3953488372093,
          "velocity": 0.3779527559055118
        },
        {
          "duration": 0.13953488372092693,
          "durationTicks": 12,
          "midi": 65,
          "name": "F4",
          "ticks": 11816,
          "time": 137.3953488372093,
          "velocity": 0.4881889763779528
        },
        {
          "duration": 0.9651162790697754,
          "durationTicks": 83,
          "midi": 81,
          "name": "A5",
          "ticks": 11823,
          "time": 137.47674418604652,
          "velocity": 0.3779527559055118
        },
        {
          "duration": 0.023255813953483084,
          "durationTicks": 2,
          "midi": 61,
          "name": "C#4",
          "ticks": 11824,
          "time": 137.48837209302326,
          "velocity": 0.33070866141732286
        },
        {
          "duration": 1.9651162790697754,
          "durationTicks": 169,
          "midi": 69,
          "name": "A4",
          "ticks": 11824,
          "time": 137.48837209302326,
          "velocity": 0.4330708661417323
        },
        {
          "duration": 0.06976744186044925,
          "durationTicks": 6,
          "midi": 85,
          "name": "C#6",
          "ticks": 11824,
          "time": 137.48837209302326,
          "velocity": 0.1889763779527559
        },
        {
          "duration": 0.4186046511627808,
          "durationTicks": 36,
          "midi": 73,
          "name": "C#5",
          "ticks": 11825,
          "time": 137.5,
          "velocity": 0.4881889763779528
        },
        {
          "duration": 0.034883720930224626,
          "durationTicks": 3,
          "midi": 84,
          "name": "C6",
          "ticks": 11825,
          "time": 137.5,
          "velocity": 0.14960629921259844
        },
        {
          "duration": 0.034883720930224626,
          "durationTicks": 3,
          "midi": 90,
          "name": "F#6",
          "ticks": 11825,
          "time": 137.5,
          "velocity": 0.14960629921259844
        },
        {
          "duration": 0.1046511627907023,
          "durationTicks": 9,
          "midi": 92,
          "name": "G#6",
          "ticks": 11825,
          "time": 137.5,
          "velocity": 0.11811023622047244
        },
        {
          "duration": 0.04651162790696617,
          "durationTicks": 4,
          "midi": 100,
          "name": "E7",
          "ticks": 11825,
          "time": 137.5,
          "velocity": 0.10236220472440945
        },
        {
          "duration": 0.05813953488373613,
          "durationTicks": 5,
          "midi": 71,
          "name": "B4",
          "ticks": 11826,
          "time": 137.51162790697674,
          "velocity": 0.2992125984251969
        },
        {
          "duration": 0.06976744186047767,
          "durationTicks": 6,
          "midi": 86,
          "name": "D6",
          "ticks": 11826,
          "time": 137.51162790697674,
          "velocity": 0.1889763779527559
        },
        {
          "duration": 0.2674418604651123,
          "durationTicks": 23,
          "midi": 88,
          "name": "E6",
          "ticks": 11826,
          "time": 137.51162790697674,
          "velocity": 0.2204724409448819
        },
        {
          "duration": 0.19767441860466306,
          "durationTicks": 17,
          "midi": 52,
          "name": "E3",
          "ticks": 11827,
          "time": 137.52325581395348,
          "velocity": 0.3700787401574803
        },
        {
          "duration": 0.023255813953483084,
          "durationTicks": 2,
          "midi": 64,
          "name": "E4",
          "ticks": 11827,
          "time": 137.52325581395348,
          "velocity": 0.4094488188976378
        },
        {
          "duration": 0.04651162790699459,
          "durationTicks": 4,
          "midi": 61,
          "name": "C#4",
          "ticks": 11828,
          "time": 137.53488372093022,
          "velocity": 0.28346456692913385
        },
        {
          "duration": 0.023255813953511506,
          "durationTicks": 2,
          "midi": 45,
          "name": "A2",
          "ticks": 11829,
          "time": 137.54651162790697,
          "velocity": 0.4566929133858268
        },
        {
          "duration": 0.04651162790699459,
          "durationTicks": 4,
          "midi": 64,
          "name": "E4",
          "ticks": 11830,
          "time": 137.5581395348837,
          "velocity": 0.4330708661417323
        },
        {
          "duration": 0.18604651162792152,
          "durationTicks": 16,
          "midi": 84,
          "name": "C6",
          "ticks": 11830,
          "time": 137.5581395348837,
          "velocity": 0.14960629921259844
        },
        {
          "duration": 0.13953488372095535,
          "durationTicks": 12,
          "midi": 90,
          "name": "F#6",
          "ticks": 11830,
          "time": 137.5581395348837,
          "velocity": 0.13385826771653545
        },
        {
          "duration": 0.13953488372092693,
          "durationTicks": 12,
          "midi": 45,
          "name": "A2",
          "ticks": 11832,
          "time": 137.58139534883722,
          "velocity": 0.4566929133858268
        },
        {
          "duration": 0.17441860465115155,
          "durationTicks": 15,
          "midi": 71,
          "name": "B4",
          "ticks": 11832,
          "time": 137.58139534883722,
          "velocity": 0.25196850393700787
        },
        {
          "duration": 0.023255813953483084,
          "durationTicks": 2,
          "midi": 61,
          "name": "C#4",
          "ticks": 11833,
          "time": 137.59302325581396,
          "velocity": 0.2440944881889764
        },
        {
          "duration": 0.04651162790696617,
          "durationTicks": 4,
          "midi": 79,
          "name": "G5",
          "ticks": 11833,
          "time": 137.59302325581396,
          "velocity": 0.07086614173228346
        },
        {
          "duration": 0.2325581395348877,
          "durationTicks": 20,
          "midi": 64,
          "name": "E4",
          "ticks": 11835,
          "time": 137.61627906976744,
          "velocity": 0.4094488188976378
        },
        {
          "duration": 0.08139534883721922,
          "durationTicks": 7,
          "midi": 86,
          "name": "D6",
          "ticks": 11835,
          "time": 137.61627906976744,
          "velocity": 0.14960629921259844
        },
        {
          "duration": 0.034883720930224626,
          "durationTicks": 3,
          "midi": 80,
          "name": "G#5",
          "ticks": 11836,
          "time": 137.62790697674419,
          "velocity": 0.10236220472440945
        },
        {
          "duration": 0.2906976744186238,
          "durationTicks": 25,
          "midi": 77,
          "name": "F5",
          "ticks": 11838,
          "time": 137.65116279069767,
          "velocity": 0.44881889763779526
        },
        {
          "duration": 0.04651162790699459,
          "durationTicks": 4,
          "midi": 87,
          "name": "D#6",
          "ticks": 11839,
          "time": 137.6627906976744,
          "velocity": 0.10236220472440945
        },
        {
          "duration": 0.04651162790696617,
          "durationTicks": 4,
          "midi": 91,
          "name": "G6",
          "ticks": 11843,
          "time": 137.7093023255814,
          "velocity": 0.07086614173228346
        },
        {
          "duration": 0.15116279069766847,
          "durationTicks": 13,
          "midi": 45,
          "name": "A2",
          "ticks": 11845,
          "time": 137.7325581395349,
          "velocity": 0.3700787401574803
        },
        {
          "duration": 0.08139534883721922,
          "durationTicks": 7,
          "midi": 52,
          "name": "E3",
          "ticks": 11845,
          "time": 137.7325581395349,
          "velocity": 0.23622047244094488
        },
        {
          "duration": 0.0813953488371908,
          "durationTicks": 7,
          "midi": 52,
          "name": "E3",
          "ticks": 11853,
          "time": 137.82558139534885,
          "velocity": 0.11023622047244094
        },
        {
          "duration": 0.06976744186047767,
          "durationTicks": 6,
          "midi": 65,
          "name": "F4",
          "ticks": 11859,
          "time": 137.8953488372093,
          "velocity": 0.31496062992125984
        },
        {
          "duration": 0.24418604651162923,
          "durationTicks": 21,
          "midi": 73,
          "name": "C#5",
          "ticks": 11862,
          "time": 137.93023255813952,
          "velocity": 0.49606299212598426
        },
        {
          "duration": 0.23255813953485927,
          "durationTicks": 20,
          "midi": 61,
          "name": "C#4",
          "ticks": 11863,
          "time": 137.9418604651163,
          "velocity": 0.4015748031496063
        },
        {
          "duration": 0.22093023255811772,
          "durationTicks": 19,
          "midi": 76,
          "name": "E5",
          "ticks": 11863,
          "time": 137.9418604651163,
          "velocity": 0.4094488188976378
        },
        {
          "duration": 0.16279069767441,
          "durationTicks": 14,
          "midi": 83,
          "name": "B5",
          "ticks": 11863,
          "time": 137.9418604651163,
          "velocity": 0.31496062992125984
        },
        {
          "duration": 0.15116279069766847,
          "durationTicks": 13,
          "midi": 52,
          "name": "E3",
          "ticks": 11864,
          "time": 137.95348837209303,
          "velocity": 0.25984251968503935
        },
        {
          "duration": 0.034883720930224626,
          "durationTicks": 3,
          "midi": 86,
          "name": "D6",
          "ticks": 11864,
          "time": 137.95348837209303,
          "velocity": 0.2204724409448819
        },
        {
          "duration": 0.12790697674418539,
          "durationTicks": 11,
          "midi": 90,
          "name": "F#6",
          "ticks": 11864,
          "time": 137.95348837209303,
          "velocity": 0.11811023622047244
        },
        {
          "duration": 0.04651162790696617,
          "durationTicks": 4,
          "midi": 92,
          "name": "G#6",
          "ticks": 11864,
          "time": 137.95348837209303,
          "velocity": 0.08661417322834646
        },
        {
          "duration": 0.06976744186044925,
          "durationTicks": 6,
          "midi": 100,
          "name": "E7",
          "ticks": 11864,
          "time": 137.95348837209303,
          "velocity": 0.14173228346456693
        },
        {
          "duration": 0.20930232558137618,
          "durationTicks": 18,
          "midi": 64,
          "name": "E4",
          "ticks": 11865,
          "time": 137.96511627906978,
          "velocity": 0.3543307086614173
        },
        {
          "duration": 0.05813953488370771,
          "durationTicks": 5,
          "midi": 71,
          "name": "B4",
          "ticks": 11865,
          "time": 137.96511627906978,
          "velocity": 0.2755905511811024
        },
        {
          "duration": 0.11627906976744384,
          "durationTicks": 10,
          "midi": 89,
          "name": "F6",
          "ticks": 11865,
          "time": 137.96511627906978,
          "velocity": 0.11023622047244094
        },
        {
          "duration": 0.11627906976744384,
          "durationTicks": 10,
          "midi": 91,
          "name": "G6",
          "ticks": 11865,
          "time": 137.96511627906978,
          "velocity": 0.14173228346456693
        },
        {
          "duration": 0.06976744186044925,
          "durationTicks": 6,
          "midi": 79,
          "name": "G5",
          "ticks": 11866,
          "time": 137.97674418604652,
          "velocity": 0.12598425196850394
        },
        {
          "duration": 0.05813953488370771,
          "durationTicks": 5,
          "midi": 87,
          "name": "D#6",
          "ticks": 11868,
          "time": 138,
          "velocity": 0.14960629921259844
        },
        {
          "duration": 0.034883720930224626,
          "durationTicks": 3,
          "midi": 45,
          "name": "A2",
          "ticks": 11869,
          "time": 138.01162790697674,
          "velocity": 0.2204724409448819
        },
        {
          "duration": 0.06976744186047767,
          "durationTicks": 6,
          "midi": 92,
          "name": "G#6",
          "ticks": 11869,
          "time": 138.01162790697674,
          "velocity": 0.12598425196850394
        },
        {
          "duration": 0.08139534883721922,
          "durationTicks": 7,
          "midi": 71,
          "name": "B4",
          "ticks": 11871,
          "time": 138.03488372093022,
          "velocity": 0.2283464566929134
        },
        {
          "duration": 0.06976744186047767,
          "durationTicks": 6,
          "midi": 86,
          "name": "D6",
          "ticks": 11872,
          "time": 138.04651162790697,
          "velocity": 0.11023622047244094
        },
        {
          "duration": 0.04651162790699459,
          "durationTicks": 4,
          "midi": 41,
          "name": "F2",
          "ticks": 11882,
          "time": 138.1627906976744,
          "velocity": 0.25984251968503935
        },
        {
          "duration": 0.8604651162790731,
          "durationTicks": 74,
          "midi": 77,
          "name": "F5",
          "ticks": 11882,
          "time": 138.1627906976744,
          "velocity": 0.5039370078740157
        },
        {
          "duration": 0.25581395348837077,
          "durationTicks": 22,
          "midi": 86,
          "name": "D6",
          "ticks": 11882,
          "time": 138.1627906976744,
          "velocity": 0.3779527559055118
        },
        {
          "duration": 2.7325581395348877,
          "durationTicks": 235,
          "midi": 74,
          "name": "D5",
          "ticks": 11883,
          "time": 138.17441860465115,
          "velocity": 0.4566929133858268
        },
        {
          "duration": 0.04651162790699459,
          "durationTicks": 4,
          "midi": 80,
          "name": "G#5",
          "ticks": 11883,
          "time": 138.17441860465115,
          "velocity": 0.2204724409448819
        },
        {
          "duration": 0.25581395348837077,
          "durationTicks": 22,
          "midi": 84,
          "name": "C6",
          "ticks": 11883,
          "time": 138.17441860465115,
          "velocity": 0.1968503937007874
        },
        {
          "duration": 0.4767441860465169,
          "durationTicks": 41,
          "midi": 65,
          "name": "F4",
          "ticks": 11884,
          "time": 138.1860465116279,
          "velocity": 0.48031496062992124
        },
        {
          "duration": 0.1511627906976969,
          "durationTicks": 13,
          "midi": 91,
          "name": "G6",
          "ticks": 11884,
          "time": 138.1860465116279,
          "velocity": 0.1968503937007874
        },
        {
          "duration": 0.04651162790699459,
          "durationTicks": 4,
          "midi": 100,
          "name": "E7",
          "ticks": 11884,
          "time": 138.1860465116279,
          "velocity": 0.11023622047244094
        },
        {
          "duration": 0.023255813953483084,
          "durationTicks": 2,
          "midi": 57,
          "name": "A3",
          "ticks": 11885,
          "time": 138.19767441860466,
          "velocity": 0.2283464566929134
        },
        {
          "duration": 0.05813953488370771,
          "durationTicks": 5,
          "midi": 85,
          "name": "C#6",
          "ticks": 11887,
          "time": 138.22093023255815,
          "velocity": 0.14173228346456693
        },
        {
          "duration": 0.05813953488370771,
          "durationTicks": 5,
          "midi": 53,
          "name": "F3",
          "ticks": 11888,
          "time": 138.2325581395349,
          "velocity": 0.31496062992125984
        },
        {
          "duration": 0.05813953488370771,
          "durationTicks": 5,
          "midi": 62,
          "name": "D4",
          "ticks": 11888,
          "time": 138.2325581395349,
          "velocity": 0.33858267716535434
        },
        {
          "duration": 0.034883720930224626,
          "durationTicks": 3,
          "midi": 80,
          "name": "G#5",
          "ticks": 11888,
          "time": 138.2325581395349,
          "velocity": 0.07086614173228346
        },
        {
          "duration": 0.1046511627907023,
          "durationTicks": 9,
          "midi": 95,
          "name": "B6",
          "ticks": 11890,
          "time": 138.25581395348837,
          "velocity": 0.07874015748031496
        },
        {
          "duration": 0.06976744186047767,
          "durationTicks": 6,
          "midi": 57,
          "name": "A3",
          "ticks": 11892,
          "time": 138.27906976744185,
          "velocity": 0.2755905511811024
        },
        {
          "duration": 0.1046511627907023,
          "durationTicks": 9,
          "midi": 72,
          "name": "C5",
          "ticks": 11894,
          "time": 138.30232558139534,
          "velocity": 0.1968503937007874
        },
        {
          "duration": 0.04651162790699459,
          "durationTicks": 4,
          "midi": 87,
          "name": "D#6",
          "ticks": 11894,
          "time": 138.30232558139534,
          "velocity": 0.15748031496062992
        },
        {
          "duration": 0.023255813953483084,
          "durationTicks": 2,
          "midi": 38,
          "name": "D2",
          "ticks": 11900,
          "time": 138.37209302325581,
          "velocity": 0.28346456692913385
        },
        {
          "duration": 0.03488372093025305,
          "durationTicks": 3,
          "midi": 37,
          "name": "C#2",
          "ticks": 11904,
          "time": 138.41860465116278,
          "velocity": 0.1732283464566929
        },
        {
          "duration": 0.05813953488373613,
          "durationTicks": 5,
          "midi": 50,
          "name": "D3",
          "ticks": 11905,
          "time": 138.43023255813952,
          "velocity": 0.2440944881889764
        },
        {
          "duration": 0.1860465116278931,
          "durationTicks": 16,
          "midi": 88,
          "name": "E6",
          "ticks": 11907,
          "time": 138.45348837209303,
          "velocity": 0.11023622047244094
        },
        {
          "duration": 0.034883720930224626,
          "durationTicks": 3,
          "midi": 84,
          "name": "C6",
          "ticks": 11909,
          "time": 138.47674418604652,
          "velocity": 0.08661417322834646
        },
        {
          "duration": 0.11627906976744384,
          "durationTicks": 10,
          "midi": 72,
          "name": "C5",
          "ticks": 11910,
          "time": 138.48837209302326,
          "velocity": 0.1732283464566929
        },
        {
          "duration": 0.023255813953483084,
          "durationTicks": 2,
          "midi": 50,
          "name": "D3",
          "ticks": 11911,
          "time": 138.5,
          "velocity": 0.25196850393700787
        },
        {
          "duration": 0.04651162790699459,
          "durationTicks": 4,
          "midi": 50,
          "name": "D3",
          "ticks": 11916,
          "time": 138.5581395348837,
          "velocity": 0.25196850393700787
        },
        {
          "duration": 0.05813953488370771,
          "durationTicks": 5,
          "midi": 85,
          "name": "C#6",
          "ticks": 11922,
          "time": 138.62790697674419,
          "velocity": 0.14173228346456693
        },
        {
          "duration": 0.13953488372092693,
          "durationTicks": 12,
          "midi": 72,
          "name": "C5",
          "ticks": 11924,
          "time": 138.65116279069767,
          "velocity": 0.12598425196850394
        },
        {
          "duration": 0.18604651162792152,
          "durationTicks": 16,
          "midi": 38,
          "name": "D2",
          "ticks": 11926,
          "time": 138.67441860465115,
          "velocity": 0.1732283464566929
        },
        {
          "duration": 0.09302325581396076,
          "durationTicks": 8,
          "midi": 62,
          "name": "D4",
          "ticks": 11927,
          "time": 138.6860465116279,
          "velocity": 0.11811023622047244
        },
        {
          "duration": 0.06976744186047767,
          "durationTicks": 6,
          "midi": 65,
          "name": "F4",
          "ticks": 11927,
          "time": 138.6860465116279,
          "velocity": 0.11811023622047244
        },
        {
          "duration": 0.17441860465115155,
          "durationTicks": 15,
          "midi": 88,
          "name": "E6",
          "ticks": 11932,
          "time": 138.74418604651163,
          "velocity": 0.10236220472440945
        },
        {
          "duration": 0.1046511627907023,
          "durationTicks": 9,
          "midi": 50,
          "name": "D3",
          "ticks": 11934,
          "time": 138.7674418604651,
          "velocity": 0.23622047244094488
        },
        {
          "duration": 0.034883720930224626,
          "durationTicks": 3,
          "midi": 48,
          "name": "C3",
          "ticks": 11943,
          "time": 138.87209302325581,
          "velocity": 0.31496062992125984
        },
        {
          "duration": 0.2325581395348877,
          "durationTicks": 20,
          "midi": 57,
          "name": "A3",
          "ticks": 11943,
          "time": 138.87209302325581,
          "velocity": 0.18110236220472442
        },
        {
          "duration": 0.09302325581396076,
          "durationTicks": 8,
          "midi": 64,
          "name": "E4",
          "ticks": 11945,
          "time": 138.8953488372093,
          "velocity": 0.10236220472440945
        },
        {
          "duration": 0.05813953488373613,
          "durationTicks": 5,
          "midi": 72,
          "name": "C5",
          "ticks": 11945,
          "time": 138.8953488372093,
          "velocity": 0.11023622047244094
        },
        {
          "duration": 0.034883720930224626,
          "durationTicks": 3,
          "midi": 82,
          "name": "A#5",
          "ticks": 11950,
          "time": 138.95348837209303,
          "velocity": 0.07086614173228346
        },
        {
          "duration": 0.06976744186047767,
          "durationTicks": 6,
          "midi": 48,
          "name": "C3",
          "ticks": 11954,
          "time": 139,
          "velocity": 0.12598425196850394
        },
        {
          "duration": 0.4302325581395223,
          "durationTicks": 37,
          "midi": 77,
          "name": "F5",
          "ticks": 11960,
          "time": 139.06976744186048,
          "velocity": 0.41732283464566927
        },
        {
          "duration": 0.40697674418603924,
          "durationTicks": 35,
          "midi": 79,
          "name": "G5",
          "ticks": 11961,
          "time": 139.08139534883722,
          "velocity": 0.16535433070866143
        },
        {
          "duration": 0.22093023255814614,
          "durationTicks": 19,
          "midi": 72,
          "name": "C5",
          "ticks": 11962,
          "time": 139.09302325581396,
          "velocity": 0.16535433070866143
        },
        {
          "duration": 0.44186046511626387,
          "durationTicks": 38,
          "midi": 83,
          "name": "B5",
          "ticks": 11962,
          "time": 139.09302325581396,
          "velocity": 0.11811023622047244
        },
        {
          "duration": 0.2674418604651123,
          "durationTicks": 23,
          "midi": 88,
          "name": "E6",
          "ticks": 11962,
          "time": 139.09302325581396,
          "velocity": 0.11811023622047244
        },
        {
          "duration": 0.034883720930224626,
          "durationTicks": 3,
          "midi": 39,
          "name": "D#2",
          "ticks": 11963,
          "time": 139.1046511627907,
          "velocity": 0.1968503937007874
        },
        {
          "duration": 0.05813953488370771,
          "durationTicks": 5,
          "midi": 55,
          "name": "G3",
          "ticks": 11963,
          "time": 139.1046511627907,
          "velocity": 0.16535433070866143
        },
        {
          "duration": 0.034883720930224626,
          "durationTicks": 3,
          "midi": 67,
          "name": "G4",
          "ticks": 11964,
          "time": 139.11627906976744,
          "velocity": 0.33070866141732286
        },
        {
          "duration": 0.04651162790696617,
          "durationTicks": 4,
          "midi": 38,
          "name": "D2",
          "ticks": 11966,
          "time": 139.13953488372093,
          "velocity": 0.18110236220472442
        },
        {
          "duration": 0.08139534883721922,
          "durationTicks": 7,
          "midi": 62,
          "name": "D4",
          "ticks": 11968,
          "time": 139.1627906976744,
          "velocity": 0.10236220472440945
        },
        {
          "duration": 0.13953488372095535,
          "durationTicks": 12,
          "midi": 50,
          "name": "D3",
          "ticks": 11969,
          "time": 139.17441860465115,
          "velocity": 0.1968503937007874
        },
        {
          "duration": 0.12790697674418539,
          "durationTicks": 11,
          "midi": 38,
          "name": "D2",
          "ticks": 11971,
          "time": 139.19767441860466,
          "velocity": 0.1732283464566929
        },
        {
          "duration": 0.16279069767441,
          "durationTicks": 14,
          "midi": 72,
          "name": "C5",
          "ticks": 11986,
          "time": 139.37209302325581,
          "velocity": 0.11811023622047244
        },
        {
          "duration": 0.12790697674418539,
          "durationTicks": 11,
          "midi": 45,
          "name": "A2",
          "ticks": 11989,
          "time": 139.40697674418604,
          "velocity": 0.23622047244094488
        },
        {
          "duration": 0.3139534883721069,
          "durationTicks": 27,
          "midi": 69,
          "name": "A4",
          "ticks": 12000,
          "time": 139.53488372093022,
          "velocity": 0.33858267716535434
        },
        {
          "duration": 0.2325581395348877,
          "durationTicks": 20,
          "midi": 77,
          "name": "F5",
          "ticks": 12000,
          "time": 139.53488372093022,
          "velocity": 0.3228346456692913
        },
        {
          "duration": 0.023255813953511506,
          "durationTicks": 2,
          "midi": 45,
          "name": "A2",
          "ticks": 12001,
          "time": 139.54651162790697,
          "velocity": 0.33858267716535434
        },
        {
          "duration": 0.16279069767443843,
          "durationTicks": 14,
          "midi": 53,
          "name": "F3",
          "ticks": 12001,
          "time": 139.54651162790697,
          "velocity": 0.2440944881889764
        },
        {
          "duration": 0.24418604651162923,
          "durationTicks": 21,
          "midi": 84,
          "name": "C6",
          "ticks": 12001,
          "time": 139.54651162790697,
          "velocity": 0.18110236220472442
        },
        {
          "duration": 1.0465116279069662,
          "durationTicks": 90,
          "midi": 65,
          "name": "F4",
          "ticks": 12003,
          "time": 139.56976744186048,
          "velocity": 0.33858267716535434
        },
        {
          "duration": 0.19767441860463464,
          "durationTicks": 17,
          "midi": 45,
          "name": "A2",
          "ticks": 12004,
          "time": 139.58139534883722,
          "velocity": 0.3464566929133858
        },
        {
          "duration": 0.0813953488371908,
          "durationTicks": 7,
          "midi": 72,
          "name": "C5",
          "ticks": 12005,
          "time": 139.59302325581396,
          "velocity": 0.1732283464566929
        },
        {
          "duration": 0.06976744186044925,
          "durationTicks": 6,
          "midi": 87,
          "name": "D#6",
          "ticks": 12005,
          "time": 139.59302325581396,
          "velocity": 0.10236220472440945
        },
        {
          "duration": 0.04651162790696617,
          "durationTicks": 4,
          "midi": 83,
          "name": "B5",
          "ticks": 12008,
          "time": 139.62790697674419,
          "velocity": 0.07874015748031496
        },
        {
          "duration": 0.06976744186044925,
          "durationTicks": 6,
          "midi": 72,
          "name": "C5",
          "ticks": 12015,
          "time": 139.7093023255814,
          "velocity": 0.11023622047244094
        },
        {
          "duration": 0.06976744186044925,
          "durationTicks": 6,
          "midi": 87,
          "name": "D#6",
          "ticks": 12015,
          "time": 139.7093023255814,
          "velocity": 0.07086614173228346
        },
        {
          "duration": 0.04651162790696617,
          "durationTicks": 4,
          "midi": 53,
          "name": "F3",
          "ticks": 12016,
          "time": 139.72093023255815,
          "velocity": 0.14173228346456693
        },
        {
          "duration": 0.023255813953483084,
          "durationTicks": 2,
          "midi": 47,
          "name": "B2",
          "ticks": 12021,
          "time": 139.77906976744185,
          "velocity": 0.3228346456692913
        },
        {
          "duration": 0.2093023255814046,
          "durationTicks": 18,
          "midi": 71,
          "name": "B4",
          "ticks": 12021,
          "time": 139.77906976744185,
          "velocity": 0.2204724409448819
        },
        {
          "duration": 0.04651162790699459,
          "durationTicks": 4,
          "midi": 53,
          "name": "F3",
          "ticks": 12022,
          "time": 139.7906976744186,
          "velocity": 0.23622047244094488
        },
        {
          "duration": 0.2093023255814046,
          "durationTicks": 18,
          "midi": 82,
          "name": "A#5",
          "ticks": 12022,
          "time": 139.7906976744186,
          "velocity": 0.13385826771653545
        },
        {
          "duration": 0.40697674418603924,
          "durationTicks": 35,
          "midi": 77,
          "name": "F5",
          "ticks": 12024,
          "time": 139.8139534883721,
          "velocity": 0.33858267716535434
        },
        {
          "duration": 0.5,
          "durationTicks": 43,
          "midi": 84,
          "name": "C6",
          "ticks": 12024,
          "time": 139.8139534883721,
          "velocity": 0.1968503937007874
        },
        {
          "duration": 0.023255813953483084,
          "durationTicks": 2,
          "midi": 47,
          "name": "B2",
          "ticks": 12025,
          "time": 139.82558139534885,
          "velocity": 0.2283464566929134
        },
        {
          "duration": 0.1046511627907023,
          "durationTicks": 9,
          "midi": 60,
          "name": "C4",
          "ticks": 12026,
          "time": 139.8372093023256,
          "velocity": 0.11023622047244094
        },
        {
          "duration": 0.08139534883721922,
          "durationTicks": 7,
          "midi": 48,
          "name": "C3",
          "ticks": 12031,
          "time": 139.8953488372093,
          "velocity": 0.2125984251968504
        },
        {
          "duration": 0.05813953488370771,
          "durationTicks": 5,
          "midi": 40,
          "name": "E2",
          "ticks": 12036,
          "time": 139.95348837209303,
          "velocity": 0.14960629921259844
        },
        {
          "duration": 0.2906976744185954,
          "durationTicks": 25,
          "midi": 87,
          "name": "D#6",
          "ticks": 12039,
          "time": 139.98837209302326,
          "velocity": 0.11811023622047244
        },
        {
          "duration": 1.2441860465116292,
          "durationTicks": 107,
          "midi": 69,
          "name": "A4",
          "ticks": 12040,
          "time": 140,
          "velocity": 0.3937007874015748
        },
        {
          "duration": 0.2325581395348877,
          "durationTicks": 20,
          "midi": 93,
          "name": "A6",
          "ticks": 12040,
          "time": 140,
          "velocity": 0.23622047244094488
        },
        {
          "duration": 0.43023255813955075,
          "durationTicks": 37,
          "midi": 88,
          "name": "E6",
          "ticks": 12043,
          "time": 140.03488372093022,
          "velocity": 0.14960629921259844
        },
        {
          "duration": 0.023255813953511506,
          "durationTicks": 2,
          "midi": 53,
          "name": "F3",
          "ticks": 12045,
          "time": 140.0581395348837,
          "velocity": 0.2677165354330709
        },
        {
          "duration": 0.034883720930224626,
          "durationTicks": 3,
          "midi": 62,
          "name": "D4",
          "ticks": 12051,
          "time": 140.12790697674419,
          "velocity": 0.11811023622047244
        },
        {
          "duration": 0.023255813953483084,
          "durationTicks": 2,
          "midi": 51,
          "name": "D#3",
          "ticks": 12053,
          "time": 140.15116279069767,
          "velocity": 0.25984251968503935
        },
        {
          "duration": 0.023255813953511506,
          "durationTicks": 2,
          "midi": 50,
          "name": "D3",
          "ticks": 12056,
          "time": 140.1860465116279,
          "velocity": 0.2440944881889764
        },
        {
          "duration": 0.034883720930224626,
          "durationTicks": 3,
          "midi": 49,
          "name": "C#3",
          "ticks": 12063,
          "time": 140.2674418604651,
          "velocity": 0.2440944881889764
        },
        {
          "duration": 0.11627906976744384,
          "durationTicks": 10,
          "midi": 72,
          "name": "C5",
          "ticks": 12063,
          "time": 140.2674418604651,
          "velocity": 0.1732283464566929
        },
        {
          "duration": 0.5813953488372192,
          "durationTicks": 50,
          "midi": 77,
          "name": "F5",
          "ticks": 12063,
          "time": 140.2674418604651,
          "velocity": 0.4251968503937008
        },
        {
          "duration": 0.023255813953483084,
          "durationTicks": 2,
          "midi": 50,
          "name": "D3",
          "ticks": 12068,
          "time": 140.32558139534885,
          "velocity": 0.2283464566929134
        },
        {
          "duration": 0.04651162790696617,
          "durationTicks": 4,
          "midi": 50,
          "name": "D3",
          "ticks": 12073,
          "time": 140.38372093023256,
          "velocity": 0.23622047244094488
        },
        {
          "duration": 0.03488372093025305,
          "durationTicks": 3,
          "midi": 84,
          "name": "C6",
          "ticks": 12075,
          "time": 140.40697674418604,
          "velocity": 0.08661417322834646
        },
        {
          "duration": 0.034883720930224626,
          "durationTicks": 3,
          "midi": 80,
          "name": "G#5",
          "ticks": 12078,
          "time": 140.4418604651163,
          "velocity": 0.07874015748031496
        },
        {
          "duration": 0.04651162790696617,
          "durationTicks": 4,
          "midi": 85,
          "name": "C#6",
          "ticks": 12079,
          "time": 140.45348837209303,
          "velocity": 0.09448818897637795
        },
        {
          "duration": 0.023255813953483084,
          "durationTicks": 2,
          "midi": 41,
          "name": "F2",
          "ticks": 12080,
          "time": 140.46511627906978,
          "velocity": 0.2440944881889764
        },
        {
          "duration": 0.0813953488371908,
          "durationTicks": 7,
          "midi": 84,
          "name": "C6",
          "ticks": 12080,
          "time": 140.46511627906978,
          "velocity": 0.13385826771653545
        },
        {
          "duration": 0.15116279069766847,
          "durationTicks": 13,
          "midi": 72,
          "name": "C5",
          "ticks": 12082,
          "time": 140.48837209302326,
          "velocity": 0.18110236220472442
        },
        {
          "duration": 0.04651162790699459,
          "durationTicks": 4,
          "midi": 38,
          "name": "D2",
          "ticks": 12086,
          "time": 140.53488372093022,
          "velocity": 0.14960629921259844
        },
        {
          "duration": 0.13953488372092693,
          "durationTicks": 12,
          "midi": 50,
          "name": "D3",
          "ticks": 12086,
          "time": 140.53488372093022,
          "velocity": 0.15748031496062992
        },
        {
          "duration": 0.0813953488371908,
          "durationTicks": 7,
          "midi": 38,
          "name": "D2",
          "ticks": 12091,
          "time": 140.59302325581396,
          "velocity": 0.14173228346456693
        },
        {
          "duration": 0.09302325581396076,
          "durationTicks": 8,
          "midi": 88,
          "name": "E6",
          "ticks": 12094,
          "time": 140.62790697674419,
          "velocity": 0.11811023622047244
        },
        {
          "duration": 0.04651162790699459,
          "durationTicks": 4,
          "midi": 60,
          "name": "C4",
          "ticks": 12099,
          "time": 140.6860465116279,
          "velocity": 0.18110236220472442
        },
        {
          "duration": 0.034883720930224626,
          "durationTicks": 3,
          "midi": 64,
          "name": "E4",
          "ticks": 12101,
          "time": 140.7093023255814,
          "velocity": 0.11811023622047244
        },
        {
          "duration": 0.023255813953483084,
          "durationTicks": 2,
          "midi": 67,
          "name": "G4",
          "ticks": 12101,
          "time": 140.7093023255814,
          "velocity": 0.2283464566929134
        },
        {
          "duration": 0.05813953488370771,
          "durationTicks": 5,
          "midi": 72,
          "name": "C5",
          "ticks": 12102,
          "time": 140.72093023255815,
          "velocity": 0.2283464566929134
        },
        {
          "duration": 0.06976744186044925,
          "durationTicks": 6,
          "midi": 82,
          "name": "A#5",
          "ticks": 12102,
          "time": 140.72093023255815,
          "velocity": 0.11023622047244094
        },
        {
          "duration": 0.023255813953483084,
          "durationTicks": 2,
          "midi": 48,
          "name": "C3",
          "ticks": 12103,
          "time": 140.7325581395349,
          "velocity": 0.2283464566929134
        },
        {
          "duration": 0.034883720930224626,
          "durationTicks": 3,
          "midi": 57,
          "name": "A3",
          "ticks": 12104,
          "time": 140.74418604651163,
          "velocity": 0.18110236220472442
        },
        {
          "duration": 0.023255813953483084,
          "durationTicks": 2,
          "midi": 47,
          "name": "B2",
          "ticks": 12105,
          "time": 140.75581395348837,
          "velocity": 0.2755905511811024
        },
        {
          "duration": 0.034883720930224626,
          "durationTicks": 3,
          "midi": 91,
          "name": "G6",
          "ticks": 12105,
          "time": 140.75581395348837,
          "velocity": 0.07874015748031496
        },
        {
          "duration": 0.05813953488373613,
          "durationTicks": 5,
          "midi": 60,
          "name": "C4",
          "ticks": 12106,
          "time": 140.7674418604651,
          "velocity": 0.1732283464566929
        },
        {
          "duration": 0.12790697674418539,
          "durationTicks": 11,
          "midi": 48,
          "name": "C3",
          "ticks": 12107,
          "time": 140.77906976744185,
          "velocity": 0.30708661417322836
        },
        {
          "duration": 0.04651162790696617,
          "durationTicks": 4,
          "midi": 57,
          "name": "A3",
          "ticks": 12112,
          "time": 140.8372093023256,
          "velocity": 0.1732283464566929
        },
        {
          "duration": 0.4302325581395223,
          "durationTicks": 37,
          "midi": 77,
          "name": "F5",
          "ticks": 12115,
          "time": 140.87209302325581,
          "velocity": 0.41732283464566927
        },
        {
          "duration": 0.023255813953483084,
          "durationTicks": 2,
          "midi": 59,
          "name": "B3",
          "ticks": 12117,
          "time": 140.8953488372093,
          "velocity": 0.2677165354330709
        },
        {
          "duration": 0.4651162790697754,
          "durationTicks": 40,
          "midi": 72,
          "name": "C5",
          "ticks": 12117,
          "time": 140.8953488372093,
          "velocity": 0.47244094488188976
        },
        {
          "duration": 0.11627906976744384,
          "durationTicks": 10,
          "midi": 88,
          "name": "E6",
          "ticks": 12118,
          "time": 140.90697674418604,
          "velocity": 0.1732283464566929
        },
        {
          "duration": 0.3604651162790731,
          "durationTicks": 31,
          "midi": 60,
          "name": "C4",
          "ticks": 12119,
          "time": 140.91860465116278,
          "velocity": 0.3464566929133858
        },
        {
          "duration": 1.3488372093023315,
          "durationTicks": 116,
          "midi": 74,
          "name": "D5",
          "ticks": 12119,
          "time": 140.91860465116278,
          "velocity": 0.4251968503937008
        },
        {
          "duration": 0.17441860465115155,
          "durationTicks": 15,
          "midi": 38,
          "name": "D2",
          "ticks": 12123,
          "time": 140.96511627906978,
          "velocity": 0.1889763779527559
        },
        {
          "duration": 0.1860465116278931,
          "durationTicks": 16,
          "midi": 50,
          "name": "D3",
          "ticks": 12123,
          "time": 140.96511627906978,
          "velocity": 0.23622047244094488
        },
        {
          "duration": 0.11627906976744384,
          "durationTicks": 10,
          "midi": 88,
          "name": "E6",
          "ticks": 12130,
          "time": 141.04651162790697,
          "velocity": 0.14173228346456693
        },
        {
          "duration": 0.13953488372092693,
          "durationTicks": 12,
          "midi": 45,
          "name": "A2",
          "ticks": 12144,
          "time": 141.2093023255814,
          "velocity": 0.2283464566929134
        },
        {
          "duration": 0.11627906976744384,
          "durationTicks": 10,
          "midi": 60,
          "name": "C4",
          "ticks": 12154,
          "time": 141.32558139534885,
          "velocity": 0.1732283464566929
        },
        {
          "duration": 0.05813953488370771,
          "durationTicks": 5,
          "midi": 44,
          "name": "G#2",
          "ticks": 12156,
          "time": 141.34883720930233,
          "velocity": 0.3228346456692913
        },
        {
          "duration": 0.3139534883720785,
          "durationTicks": 27,
          "midi": 69,
          "name": "A4",
          "ticks": 12156,
          "time": 141.34883720930233,
          "velocity": 0.3228346456692913
        },
        {
          "duration": 0.023255813953483084,
          "durationTicks": 2,
          "midi": 66,
          "name": "F#4",
          "ticks": 12157,
          "time": 141.36046511627907,
          "velocity": 0.2283464566929134
        },
        {
          "duration": 0.2325581395348877,
          "durationTicks": 20,
          "midi": 77,
          "name": "F5",
          "ticks": 12157,
          "time": 141.36046511627907,
          "velocity": 0.3228346456692913
        },
        {
          "duration": 0.22093023255814614,
          "durationTicks": 19,
          "midi": 53,
          "name": "F3",
          "ticks": 12158,
          "time": 141.37209302325581,
          "velocity": 0.25196850393700787
        },
        {
          "duration": 0.034883720930224626,
          "durationTicks": 3,
          "midi": 72,
          "name": "C5",
          "ticks": 12158,
          "time": 141.37209302325581,
          "velocity": 0.2677165354330709
        },
        {
          "duration": 0.2093023255814046,
          "durationTicks": 18,
          "midi": 65,
          "name": "F4",
          "ticks": 12159,
          "time": 141.38372093023256,
          "velocity": 0.33858267716535434
        },
        {
          "duration": 0.1046511627907023,
          "durationTicks": 9,
          "midi": 87,
          "name": "D#6",
          "ticks": 12159,
          "time": 141.38372093023256,
          "velocity": 0.11023622047244094
        },
        {
          "duration": 0.22093023255814614,
          "durationTicks": 19,
          "midi": 45,
          "name": "A2",
          "ticks": 12161,
          "time": 141.40697674418604,
          "velocity": 0.33858267716535434
        },
        {
          "duration": 0.06976744186044925,
          "durationTicks": 6,
          "midi": 72,
          "name": "C5",
          "ticks": 12164,
          "time": 141.4418604651163,
          "velocity": 0.15748031496062992
        },
        {
          "duration": 0.22093023255814614,
          "durationTicks": 19,
          "midi": 87,
          "name": "D#6",
          "ticks": 12170,
          "time": 141.51162790697674,
          "velocity": 0.15748031496062992
        },
        {
          "duration": 0.2325581395348877,
          "durationTicks": 20,
          "midi": 72,
          "name": "C5",
          "ticks": 12176,
          "time": 141.58139534883722,
          "velocity": 0.3858267716535433
        },
        {
          "duration": 0.5232558139534831,
          "durationTicks": 45,
          "midi": 79,
          "name": "G5",
          "ticks": 12176,
          "time": 141.58139534883722,
          "velocity": 0.4015748031496063
        },
        {
          "duration": 0.2325581395348877,
          "durationTicks": 20,
          "midi": 76,
          "name": "E5",
          "ticks": 12177,
          "time": 141.59302325581396,
          "velocity": 0.41732283464566927
        },
        {
          "duration": 0.05813953488370771,
          "durationTicks": 5,
          "midi": 53,
          "name": "F3",
          "ticks": 12178,
          "time": 141.6046511627907,
          "velocity": 0.25196850393700787
        },
        {
          "duration": 0.2325581395348877,
          "durationTicks": 20,
          "midi": 65,
          "name": "F4",
          "ticks": 12178,
          "time": 141.6046511627907,
          "velocity": 0.3700787401574803
        },
        {
          "duration": 0.2093023255814046,
          "durationTicks": 18,
          "midi": 82,
          "name": "A#5",
          "ticks": 12178,
          "time": 141.6046511627907,
          "velocity": 0.16535433070866143
        },
        {
          "duration": 0.034883720930224626,
          "durationTicks": 3,
          "midi": 60,
          "name": "C4",
          "ticks": 12180,
          "time": 141.62790697674419,
          "velocity": 0.13385826771653545
        },
        {
          "duration": 0.023255813953483084,
          "durationTicks": 2,
          "midi": 52,
          "name": "E3",
          "ticks": 12183,
          "time": 141.6627906976744,
          "velocity": 0.3228346456692913
        },
        {
          "duration": 0.03488372093025305,
          "durationTicks": 3,
          "midi": 53,
          "name": "F3",
          "ticks": 12185,
          "time": 141.6860465116279,
          "velocity": 0.31496062992125984
        },
        {
          "duration": 0.05813953488370771,
          "durationTicks": 5,
          "midi": 48,
          "name": "C3",
          "ticks": 12186,
          "time": 141.69767441860466,
          "velocity": 0.2047244094488189
        },
        {
          "duration": 0.08139534883721922,
          "durationTicks": 7,
          "midi": 40,
          "name": "E2",
          "ticks": 12193,
          "time": 141.77906976744185,
          "velocity": 0.14960629921259844
        },
        {
          "duration": 0.03488372093025305,
          "durationTicks": 3,
          "midi": 87,
          "name": "D#6",
          "ticks": 12194,
          "time": 141.7906976744186,
          "velocity": 0.08661417322834646
        },
        {
          "duration": 0.034883720930224626,
          "durationTicks": 3,
          "midi": 51,
          "name": "D#3",
          "ticks": 12196,
          "time": 141.8139534883721,
          "velocity": 0.2047244094488189
        },
        {
          "duration": 0.7906976744185954,
          "durationTicks": 68,
          "midi": 77,
          "name": "F5",
          "ticks": 12196,
          "time": 141.8139534883721,
          "velocity": 0.4330708661417323
        },
        {
          "duration": 0.27906976744185386,
          "durationTicks": 24,
          "midi": 81,
          "name": "A5",
          "ticks": 12196,
          "time": 141.8139534883721,
          "velocity": 0.2440944881889764
        },
        {
          "duration": 0.22093023255811772,
          "durationTicks": 19,
          "midi": 67,
          "name": "G4",
          "ticks": 12198,
          "time": 141.8372093023256,
          "velocity": 0.4330708661417323
        },
        {
          "duration": 0.1860465116278931,
          "durationTicks": 16,
          "midi": 83,
          "name": "B5",
          "ticks": 12200,
          "time": 141.86046511627907,
          "velocity": 0.09448818897637795
        },
        {
          "duration": 0.1860465116278931,
          "durationTicks": 16,
          "midi": 88,
          "name": "E6",
          "ticks": 12200,
          "time": 141.86046511627907,
          "velocity": 0.11811023622047244
        },
        {
          "duration": 0.09302325581396076,
          "durationTicks": 8,
          "midi": 62,
          "name": "D4",
          "ticks": 12202,
          "time": 141.88372093023256,
          "velocity": 0.12598425196850394
        },
        {
          "duration": 0.11627906976744384,
          "durationTicks": 10,
          "midi": 50,
          "name": "D3",
          "ticks": 12206,
          "time": 141.93023255813952,
          "velocity": 0.23622047244094488
        },
        {
          "duration": 0.034883720930224626,
          "durationTicks": 3,
          "midi": 55,
          "name": "G3",
          "ticks": 12209,
          "time": 141.96511627906978,
          "velocity": 0.08661417322834646
        },
        {
          "duration": 0.17441860465117998,
          "durationTicks": 15,
          "midi": 84,
          "name": "C6",
          "ticks": 12216,
          "time": 142.04651162790697,
          "velocity": 0.16535433070866143
        },
        {
          "duration": 0.0813953488371908,
          "durationTicks": 7,
          "midi": 43,
          "name": "G2",
          "ticks": 12218,
          "time": 142.06976744186048,
          "velocity": 0.1968503937007874
        },
        {
          "duration": 0.1860465116278931,
          "durationTicks": 16,
          "midi": 65,
          "name": "F4",
          "ticks": 12218,
          "time": 142.06976744186048,
          "velocity": 0.33070866141732286
        },
        {
          "duration": 0.034883720930224626,
          "durationTicks": 3,
          "midi": 83,
          "name": "B5",
          "ticks": 12218,
          "time": 142.06976744186048,
          "velocity": 0.14960629921259844
        },
        {
          "duration": 0.20930232558137618,
          "durationTicks": 18,
          "midi": 87,
          "name": "D#6",
          "ticks": 12218,
          "time": 142.06976744186048,
          "velocity": 0.08661417322834646
        },
        {
          "duration": 0.10465116279067388,
          "durationTicks": 9,
          "midi": 53,
          "name": "F3",
          "ticks": 12219,
          "time": 142.08139534883722,
          "velocity": 0.29133858267716534
        },
        {
          "duration": 0.11627906976744384,
          "durationTicks": 10,
          "midi": 59,
          "name": "B3",
          "ticks": 12220,
          "time": 142.09302325581396,
          "velocity": 0.08661417322834646
        },
        {
          "duration": 0.04651162790696617,
          "durationTicks": 4,
          "midi": 83,
          "name": "B5",
          "ticks": 12223,
          "time": 142.12790697674419,
          "velocity": 0.15748031496062992
        },
        {
          "duration": 0.11627906976744384,
          "durationTicks": 10,
          "midi": 43,
          "name": "G2",
          "ticks": 12226,
          "time": 142.1627906976744,
          "velocity": 0.14960629921259844
        },
        {
          "duration": 0.06976744186047767,
          "durationTicks": 6,
          "midi": 85,
          "name": "C#6",
          "ticks": 12228,
          "time": 142.1860465116279,
          "velocity": 0.07086614173228346
        },
        {
          "duration": 0.04651162790696617,
          "durationTicks": 4,
          "midi": 83,
          "name": "B5",
          "ticks": 12229,
          "time": 142.19767441860466,
          "velocity": 0.16535433070866143
        },
        {
          "duration": 0.034883720930224626,
          "durationTicks": 3,
          "midi": 53,
          "name": "F3",
          "ticks": 12234,
          "time": 142.25581395348837,
          "velocity": 0.14960629921259844
        },
        {
          "duration": 0.034883720930224626,
          "durationTicks": 3,
          "midi": 59,
          "name": "B3",
          "ticks": 12234,
          "time": 142.25581395348837,
          "velocity": 0.12598425196850394
        },
        {
          "duration": 0.023255813953483084,
          "durationTicks": 2,
          "midi": 69,
          "name": "A4",
          "ticks": 12235,
          "time": 142.2674418604651,
          "velocity": 0.4251968503937008
        },
        {
          "duration": 0.3139534883721069,
          "durationTicks": 27,
          "midi": 79,
          "name": "G5",
          "ticks": 12235,
          "time": 142.2674418604651,
          "velocity": 0.3937007874015748
        },
        {
          "duration": 0.27906976744185386,
          "durationTicks": 24,
          "midi": 83,
          "name": "B5",
          "ticks": 12235,
          "time": 142.2674418604651,
          "velocity": 0.1889763779527559
        },
        {
          "duration": 0.4418604651162923,
          "durationTicks": 38,
          "midi": 74,
          "name": "D5",
          "ticks": 12236,
          "time": 142.27906976744185,
          "velocity": 0.4015748031496063
        },
        {
          "duration": 0.03488372093025305,
          "durationTicks": 3,
          "midi": 65,
          "name": "F4",
          "ticks": 12237,
          "time": 142.2906976744186,
          "velocity": 0.2440944881889764
        },
        {
          "duration": 0.09302325581396076,
          "durationTicks": 8,
          "midi": 70,
          "name": "A#4",
          "ticks": 12237,
          "time": 142.2906976744186,
          "velocity": 0.4645669291338583
        },
        {
          "duration": 0.03488372093025305,
          "durationTicks": 3,
          "midi": 94,
          "name": "A#6",
          "ticks": 12237,
          "time": 142.2906976744186,
          "velocity": 0.07874015748031496
        },
        {
          "duration": 0.04651162790696617,
          "durationTicks": 4,
          "midi": 67,
          "name": "G4",
          "ticks": 12239,
          "time": 142.3139534883721,
          "velocity": 0.25984251968503935
        },
        {
          "duration": 0.15116279069766847,
          "durationTicks": 13,
          "midi": 43,
          "name": "G2",
          "ticks": 12241,
          "time": 142.3372093023256,
          "velocity": 0.2125984251968504
        },
        {
          "duration": 0.034883720930224626,
          "durationTicks": 3,
          "midi": 65,
          "name": "F4",
          "ticks": 12243,
          "time": 142.36046511627907,
          "velocity": 0.2677165354330709
        },
        {
          "duration": 0.08139534883721922,
          "durationTicks": 7,
          "midi": 84,
          "name": "C6",
          "ticks": 12244,
          "time": 142.37209302325581,
          "velocity": 0.07086614173228346
        },
        {
          "duration": 0.09302325581396076,
          "durationTicks": 8,
          "midi": 67,
          "name": "G4",
          "ticks": 12246,
          "time": 142.3953488372093,
          "velocity": 0.25196850393700787
        },
        {
          "duration": 0.1046511627907023,
          "durationTicks": 9,
          "midi": 69,
          "name": "A4",
          "ticks": 12246,
          "time": 142.3953488372093,
          "velocity": 0.4251968503937008
        },
        {
          "duration": 0.023255813953483084,
          "durationTicks": 2,
          "midi": 70,
          "name": "A#4",
          "ticks": 12247,
          "time": 142.40697674418604,
          "velocity": 0.3228346456692913
        },
        {
          "duration": 0.27906976744185386,
          "durationTicks": 24,
          "midi": 65,
          "name": "F4",
          "ticks": 12253,
          "time": 142.47674418604652,
          "velocity": 0.3779527559055118
        },
        {
          "duration": 0.034883720930224626,
          "durationTicks": 3,
          "midi": 42,
          "name": "F#2",
          "ticks": 12254,
          "time": 142.48837209302326,
          "velocity": 0.15748031496062992
        },
        {
          "duration": 0.22093023255814614,
          "durationTicks": 19,
          "midi": 72,
          "name": "C5",
          "ticks": 12255,
          "time": 142.5,
          "velocity": 0.2283464566929134
        },
        {
          "duration": 0.2093023255814046,
          "durationTicks": 18,
          "midi": 53,
          "name": "F3",
          "ticks": 12256,
          "time": 142.51162790697674,
          "velocity": 0.29133858267716534
        },
        {
          "duration": 0.2093023255814046,
          "durationTicks": 18,
          "midi": 69,
          "name": "A4",
          "ticks": 12256,
          "time": 142.51162790697674,
          "velocity": 0.33858267716535434
        },
        {
          "duration": 0.06976744186047767,
          "durationTicks": 6,
          "midi": 87,
          "name": "D#6",
          "ticks": 12256,
          "time": 142.51162790697674,
          "velocity": 0.14960629921259844
        },
        {
          "duration": 0.17441860465117998,
          "durationTicks": 15,
          "midi": 41,
          "name": "F2",
          "ticks": 12259,
          "time": 142.54651162790697,
          "velocity": 0.11811023622047244
        },
        {
          "duration": 0.04651162790699459,
          "durationTicks": 4,
          "midi": 83,
          "name": "B5",
          "ticks": 12260,
          "time": 142.5581395348837,
          "velocity": 0.13385826771653545
        },
        {
          "duration": 0.034883720930224626,
          "durationTicks": 3,
          "midi": 83,
          "name": "B5",
          "ticks": 12265,
          "time": 142.61627906976744,
          "velocity": 0.08661417322834646
        },
        {
          "duration": 0.06976744186044925,
          "durationTicks": 6,
          "midi": 87,
          "name": "D#6",
          "ticks": 12265,
          "time": 142.61627906976744,
          "velocity": 0.12598425196850394
        },
        {
          "duration": 0.24418604651162923,
          "durationTicks": 21,
          "midi": 70,
          "name": "A#4",
          "ticks": 12274,
          "time": 142.72093023255815,
          "velocity": 0.41732283464566927
        },
        {
          "duration": 0.3720930232558146,
          "durationTicks": 32,
          "midi": 77,
          "name": "F5",
          "ticks": 12274,
          "time": 142.72093023255815,
          "velocity": 0.4409448818897638
        },
        {
          "duration": 0.7558139534883708,
          "durationTicks": 65,
          "midi": 79,
          "name": "G5",
          "ticks": 12274,
          "time": 142.72093023255815,
          "velocity": 0.4409448818897638
        },
        {
          "duration": 0.034883720930224626,
          "durationTicks": 3,
          "midi": 44,
          "name": "G#2",
          "ticks": 12275,
          "time": 142.7325581395349,
          "velocity": 0.1889763779527559
        },
        {
          "duration": 2.046511627906966,
          "durationTicks": 176,
          "midi": 74,
          "name": "D5",
          "ticks": 12275,
          "time": 142.7325581395349,
          "velocity": 0.5039370078740157
        },
        {
          "duration": 0.17441860465115155,
          "durationTicks": 15,
          "midi": 83,
          "name": "B5",
          "ticks": 12275,
          "time": 142.7325581395349,
          "velocity": 0.25196850393700787
        },
        {
          "duration": 0.034883720930224626,
          "durationTicks": 3,
          "midi": 88,
          "name": "E6",
          "ticks": 12275,
          "time": 142.7325581395349,
          "velocity": 0.07086614173228346
        },
        {
          "duration": 0.034883720930224626,
          "durationTicks": 3,
          "midi": 93,
          "name": "A6",
          "ticks": 12275,
          "time": 142.7325581395349,
          "velocity": 0.07874015748031496
        },
        {
          "duration": 0.04651162790696617,
          "durationTicks": 4,
          "midi": 94,
          "name": "A#6",
          "ticks": 12276,
          "time": 142.74418604651163,
          "velocity": 0.07874015748031496
        },
        {
          "duration": 0.22093023255814614,
          "durationTicks": 19,
          "midi": 55,
          "name": "G3",
          "ticks": 12277,
          "time": 142.75581395348837,
          "velocity": 0.18110236220472442
        },
        {
          "duration": 0.2093023255814046,
          "durationTicks": 18,
          "midi": 64,
          "name": "E4",
          "ticks": 12277,
          "time": 142.75581395348837,
          "velocity": 0.33070866141732286
        },
        {
          "duration": 0.19767441860466306,
          "durationTicks": 17,
          "midi": 67,
          "name": "G4",
          "ticks": 12277,
          "time": 142.75581395348837,
          "velocity": 0.31496062992125984
        },
        {
          "duration": 0.023255813953483084,
          "durationTicks": 2,
          "midi": 42,
          "name": "F#2",
          "ticks": 12279,
          "time": 142.77906976744185,
          "velocity": 0.2283464566929134
        },
        {
          "duration": 0.06976744186047767,
          "durationTicks": 6,
          "midi": 43,
          "name": "G2",
          "ticks": 12281,
          "time": 142.80232558139534,
          "velocity": 0.14960629921259844
        },
        {
          "duration": 0.04651162790696617,
          "durationTicks": 4,
          "midi": 93,
          "name": "A6",
          "ticks": 12283,
          "time": 142.82558139534885,
          "velocity": 0.07086614173228346
        },
        {
          "duration": 0.06976744186047767,
          "durationTicks": 6,
          "midi": 43,
          "name": "G2",
          "ticks": 12289,
          "time": 142.8953488372093,
          "velocity": 0.11811023622047244
        },
        {
          "duration": 0.13953488372092693,
          "durationTicks": 12,
          "midi": 69,
          "name": "A4",
          "ticks": 12294,
          "time": 142.95348837209303,
          "velocity": 0.3779527559055118
        },
        {
          "duration": 0.1046511627907023,
          "durationTicks": 9,
          "midi": 65,
          "name": "F4",
          "ticks": 12295,
          "time": 142.96511627906978,
          "velocity": 0.2992125984251969
        },
        {
          "duration": 0.1046511627907023,
          "durationTicks": 9,
          "midi": 84,
          "name": "C6",
          "ticks": 12295,
          "time": 142.96511627906978,
          "velocity": 0.11023622047244094
        },
        {
          "duration": 0.034883720930224626,
          "durationTicks": 3,
          "midi": 83,
          "name": "B5",
          "ticks": 12296,
          "time": 142.97674418604652,
          "velocity": 0.11023622047244094
        },
        {
          "duration": 0.08139534883721922,
          "durationTicks": 7,
          "midi": 59,
          "name": "B3",
          "ticks": 12297,
          "time": 142.98837209302326,
          "velocity": 0.10236220472440945
        },
        {
          "duration": 0.13953488372092693,
          "durationTicks": 12,
          "midi": 50,
          "name": "D3",
          "ticks": 12298,
          "time": 143,
          "velocity": 0.11023622047244094
        },
        {
          "duration": 0.17441860465115155,
          "durationTicks": 15,
          "midi": 43,
          "name": "G2",
          "ticks": 12299,
          "time": 143.01162790697674,
          "velocity": 0.1889763779527559
        },
        {
          "duration": 0.12790697674418539,
          "durationTicks": 11,
          "midi": 83,
          "name": "B5",
          "ticks": 12301,
          "time": 143.03488372093022,
          "velocity": 0.1968503937007874
        },
        {
          "duration": 0.16279069767443843,
          "durationTicks": 14,
          "midi": 85,
          "name": "C#6",
          "ticks": 12302,
          "time": 143.04651162790697,
          "velocity": 0.09448818897637795
        },
        {
          "duration": 0.11627906976744384,
          "durationTicks": 10,
          "midi": 67,
          "name": "G4",
          "ticks": 12305,
          "time": 143.08139534883722,
          "velocity": 0.3700787401574803
        },
        {
          "duration": 0.09302325581393234,
          "durationTicks": 8,
          "midi": 64,
          "name": "E4",
          "ticks": 12306,
          "time": 143.09302325581396,
          "velocity": 0.33858267716535434
        },
        {
          "duration": 0.32558139534884845,
          "durationTicks": 28,
          "midi": 70,
          "name": "A#4",
          "ticks": 12313,
          "time": 143.17441860465115,
          "velocity": 0.41732283464566927
        },
        {
          "duration": 0.04651162790699459,
          "durationTicks": 4,
          "midi": 81,
          "name": "A5",
          "ticks": 12313,
          "time": 143.17441860465115,
          "velocity": 0.10236220472440945
        },
        {
          "duration": 0.9302325581395507,
          "durationTicks": 80,
          "midi": 65,
          "name": "F4",
          "ticks": 12314,
          "time": 143.1860465116279,
          "velocity": 0.3858267716535433
        },
        {
          "duration": 0.2093023255814046,
          "durationTicks": 18,
          "midi": 84,
          "name": "C6",
          "ticks": 12314,
          "time": 143.1860465116279,
          "velocity": 0.14960629921259844
        },
        {
          "duration": 0.24418604651162923,
          "durationTicks": 21,
          "midi": 62,
          "name": "D4",
          "ticks": 12315,
          "time": 143.19767441860466,
          "velocity": 0.2992125984251969
        },
        {
          "duration": 0.04651162790696617,
          "durationTicks": 4,
          "midi": 94,
          "name": "A#6",
          "ticks": 12315,
          "time": 143.19767441860466,
          "velocity": 0.07086614173228346
        },
        {
          "duration": 0.17441860465115155,
          "durationTicks": 15,
          "midi": 38,
          "name": "D2",
          "ticks": 12318,
          "time": 143.2325581395349,
          "velocity": 0.1732283464566929
        },
        {
          "duration": 0.12790697674418539,
          "durationTicks": 11,
          "midi": 57,
          "name": "A3",
          "ticks": 12320,
          "time": 143.25581395348837,
          "velocity": 0.07874015748031496
        },
        {
          "duration": 0.04651162790699459,
          "durationTicks": 4,
          "midi": 72,
          "name": "C5",
          "ticks": 12334,
          "time": 143.41860465116278,
          "velocity": 0.2047244094488189
        },
        {
          "duration": 0.19767441860466306,
          "durationTicks": 17,
          "midi": 83,
          "name": "B5",
          "ticks": 12334,
          "time": 143.41860465116278,
          "velocity": 0.09448818897637795
        },
        {
          "duration": 0.22093023255814614,
          "durationTicks": 19,
          "midi": 48,
          "name": "C3",
          "ticks": 12335,
          "time": 143.43023255813952,
          "velocity": 0.25984251968503935
        },
        {
          "duration": 0.034883720930224626,
          "durationTicks": 3,
          "midi": 88,
          "name": "E6",
          "ticks": 12336,
          "time": 143.4418604651163,
          "velocity": 0.09448818897637795
        },
        {
          "duration": 0.11627906976744384,
          "durationTicks": 10,
          "midi": 62,
          "name": "D4",
          "ticks": 12337,
          "time": 143.45348837209303,
          "velocity": 0.14960629921259844
        },
        {
          "duration": 0.034883720930224626,
          "durationTicks": 3,
          "midi": 40,
          "name": "E2",
          "ticks": 12338,
          "time": 143.46511627906978,
          "velocity": 0.1732283464566929
        },
        {
          "duration": 0.04651162790696617,
          "durationTicks": 4,
          "midi": 53,
          "name": "F3",
          "ticks": 12340,
          "time": 143.48837209302326,
          "velocity": 0.16535433070866143
        },
        {
          "duration": 0.03488372093025305,
          "durationTicks": 3,
          "midi": 41,
          "name": "F2",
          "ticks": 12344,
          "time": 143.53488372093022,
          "velocity": 0.12598425196850394
        },
        {
          "duration": 0.04651162790696617,
          "durationTicks": 4,
          "midi": 62,
          "name": "D4",
          "ticks": 12349,
          "time": 143.59302325581396,
          "velocity": 0.11811023622047244
        },
        {
          "duration": 0.023255813953483084,
          "durationTicks": 2,
          "midi": 71,
          "name": "B4",
          "ticks": 12352,
          "time": 143.62790697674419,
          "velocity": 0.29133858267716534
        },
        {
          "duration": 1.0697674418604777,
          "durationTicks": 92,
          "midi": 79,
          "name": "G5",
          "ticks": 12352,
          "time": 143.62790697674419,
          "velocity": 0.4094488188976378
        },
        {
          "duration": 0.16279069767441,
          "durationTicks": 14,
          "midi": 81,
          "name": "A5",
          "ticks": 12352,
          "time": 143.62790697674419,
          "velocity": 0.2204724409448819
        },
        {
          "duration": 0.09302325581396076,
          "durationTicks": 8,
          "midi": 70,
          "name": "A#4",
          "ticks": 12354,
          "time": 143.65116279069767,
          "velocity": 0.47244094488188976
        },
        {
          "duration": 0.04651162790699459,
          "durationTicks": 4,
          "midi": 94,
          "name": "A#6",
          "ticks": 12354,
          "time": 143.65116279069767,
          "velocity": 0.07874015748031496
        },
        {
          "duration": 0.023255813953483084,
          "durationTicks": 2,
          "midi": 42,
          "name": "F#2",
          "ticks": 12358,
          "time": 143.69767441860466,
          "velocity": 0.23622047244094488
        },
        {
          "duration": 0.12790697674418539,
          "durationTicks": 11,
          "midi": 84,
          "name": "C6",
          "ticks": 12358,
          "time": 143.69767441860466,
          "velocity": 0.11811023622047244
        },
        {
          "duration": 0.22093023255811772,
          "durationTicks": 19,
          "midi": 88,
          "name": "E6",
          "ticks": 12358,
          "time": 143.69767441860466,
          "velocity": 0.13385826771653545
        },
        {
          "duration": 0.06976744186044925,
          "durationTicks": 6,
          "midi": 62,
          "name": "D4",
          "ticks": 12361,
          "time": 143.7325581395349,
          "velocity": 0.15748031496062992
        },
        {
          "duration": 0.05813953488370771,
          "durationTicks": 5,
          "midi": 69,
          "name": "A4",
          "ticks": 12362,
          "time": 143.74418604651163,
          "velocity": 0.4251968503937008
        },
        {
          "duration": 0.1046511627907023,
          "durationTicks": 9,
          "midi": 50,
          "name": "D3",
          "ticks": 12363,
          "time": 143.75581395348837,
          "velocity": 0.2125984251968504
        },
        {
          "duration": 0.034883720930224626,
          "durationTicks": 3,
          "midi": 55,
          "name": "G3",
          "ticks": 12364,
          "time": 143.7674418604651,
          "velocity": 0.11811023622047244
        },
        {
          "duration": 0.06976744186044925,
          "durationTicks": 6,
          "midi": 69,
          "name": "A4",
          "ticks": 12368,
          "time": 143.8139534883721,
          "velocity": 0.4251968503937008
        },
        {
          "duration": 0.023255813953483084,
          "durationTicks": 2,
          "midi": 49,
          "name": "C#3",
          "ticks": 12372,
          "time": 143.86046511627907,
          "velocity": 0.2992125984251969
        },
        {
          "duration": 0.08139534883721922,
          "durationTicks": 7,
          "midi": 93,
          "name": "A6",
          "ticks": 12372,
          "time": 143.86046511627907,
          "velocity": 0.10236220472440945
        },
        {
          "duration": 0.04651162790696617,
          "durationTicks": 4,
          "midi": 58,
          "name": "A#3",
          "ticks": 12373,
          "time": 143.87209302325581,
          "velocity": 0.11811023622047244
        },
        {
          "duration": 0.034883720930224626,
          "durationTicks": 3,
          "midi": 82,
          "name": "A#5",
          "ticks": 12373,
          "time": 143.87209302325581,
          "velocity": 0.07874015748031496
        },
        {
          "duration": 0.023255813953483084,
          "durationTicks": 2,
          "midi": 46,
          "name": "A#2",
          "ticks": 12374,
          "time": 143.88372093023256,
          "velocity": 0.31496062992125984
        },
        {
          "duration": 0.40697674418603924,
          "durationTicks": 35,
          "midi": 70,
          "name": "A#4",
          "ticks": 12374,
          "time": 143.88372093023256,
          "velocity": 0.4251968503937008
        },
        {
          "duration": 0.22093023255814614,
          "durationTicks": 19,
          "midi": 87,
          "name": "D#6",
          "ticks": 12375,
          "time": 143.8953488372093,
          "velocity": 0.08661417322834646
        },
        {
          "duration": 0.16279069767443843,
          "durationTicks": 14,
          "midi": 53,
          "name": "F3",
          "ticks": 12378,
          "time": 143.93023255813952,
          "velocity": 0.2440944881889764
        },
        {
          "duration": 0.05813953488370771,
          "durationTicks": 5,
          "midi": 58,
          "name": "A#3",
          "ticks": 12380,
          "time": 143.95348837209303,
          "velocity": 0.07086614173228346
        },
        {
          "duration": 0.04651162790696617,
          "durationTicks": 4,
          "midi": 93,
          "name": "A6",
          "ticks": 12381,
          "time": 143.96511627906978,
          "velocity": 0.11023622047244094
        },
        {
          "duration": 0.11627906976744384,
          "durationTicks": 10,
          "midi": 46,
          "name": "A#2",
          "ticks": 12385,
          "time": 144.01162790697674,
          "velocity": 0.2204724409448819
        },
        {
          "duration": 0.22093023255814614,
          "durationTicks": 19,
          "midi": 76,
          "name": "E5",
          "ticks": 12392,
          "time": 144.09302325581396,
          "velocity": 0.2125984251968504
        },
        {
          "duration": 0.0813953488371908,
          "durationTicks": 7,
          "midi": 83,
          "name": "B5",
          "ticks": 12393,
          "time": 144.1046511627907,
          "velocity": 0.13385826771653545
        },
        {
          "duration": 0.19767441860466306,
          "durationTicks": 17,
          "midi": 64,
          "name": "E4",
          "ticks": 12394,
          "time": 144.11627906976744,
          "velocity": 0.3228346456692913
        },
        {
          "duration": 0.2093023255814046,
          "durationTicks": 18,
          "midi": 67,
          "name": "G4",
          "ticks": 12394,
          "time": 144.11627906976744,
          "velocity": 0.3779527559055118
        },
        {
          "duration": 0.36046511627904465,
          "durationTicks": 31,
          "midi": 70,
          "name": "A#4",
          "ticks": 12411,
          "time": 144.3139534883721,
          "velocity": 0.3937007874015748
        },
        {
          "duration": 0.25581395348837077,
          "durationTicks": 22,
          "midi": 77,
          "name": "F5",
          "ticks": 12411,
          "time": 144.3139534883721,
          "velocity": 0.2677165354330709
        },
        {
          "duration": 0.034883720930224626,
          "durationTicks": 3,
          "midi": 62,
          "name": "D4",
          "ticks": 12412,
          "time": 144.32558139534885,
          "velocity": 0.2047244094488189
        },
        {
          "duration": 0.24418604651162923,
          "durationTicks": 21,
          "midi": 81,
          "name": "A5",
          "ticks": 12412,
          "time": 144.32558139534885,
          "velocity": 0.13385826771653545
        },
        {
          "duration": 0.06976744186044925,
          "durationTicks": 6,
          "midi": 84,
          "name": "C6",
          "ticks": 12412,
          "time": 144.32558139534885,
          "velocity": 0.1968503937007874
        },
        {
          "duration": 0.04651162790696617,
          "durationTicks": 4,
          "midi": 94,
          "name": "A#6",
          "ticks": 12412,
          "time": 144.32558139534885,
          "velocity": 0.10236220472440945
        },
        {
          "duration": 0.2674418604651123,
          "durationTicks": 23,
          "midi": 58,
          "name": "A#3",
          "ticks": 12413,
          "time": 144.3372093023256,
          "velocity": 0.1968503937007874
        },
        {
          "duration": 0.24418604651162923,
          "durationTicks": 21,
          "midi": 65,
          "name": "F4",
          "ticks": 12413,
          "time": 144.3372093023256,
          "velocity": 0.4015748031496063
        },
        {
          "duration": 0.023255813953483084,
          "durationTicks": 2,
          "midi": 46,
          "name": "A#2",
          "ticks": 12414,
          "time": 144.34883720930233,
          "velocity": 0.33858267716535434
        },
        {
          "duration": 0.1860465116278931,
          "durationTicks": 16,
          "midi": 88,
          "name": "E6",
          "ticks": 12416,
          "time": 144.37209302325581,
          "velocity": 0.11811023622047244
        },
        {
          "duration": 0.05813953488373613,
          "durationTicks": 5,
          "midi": 84,
          "name": "C6",
          "ticks": 12420,
          "time": 144.41860465116278,
          "velocity": 0.15748031496062992
        },
        {
          "duration": 0.023255813953483084,
          "durationTicks": 2,
          "midi": 46,
          "name": "A#2",
          "ticks": 12423,
          "time": 144.45348837209303,
          "velocity": 0.2677165354330709
        },
        {
          "duration": 0.09302325581393234,
          "durationTicks": 8,
          "midi": 62,
          "name": "D4",
          "ticks": 12424,
          "time": 144.46511627906978,
          "velocity": 0.2125984251968504
        },
        {
          "duration": 0.11627906976744384,
          "durationTicks": 10,
          "midi": 76,
          "name": "E5",
          "ticks": 12432,
          "time": 144.5581395348837,
          "velocity": 0.2204724409448819
        },
        {
          "duration": 0.09302325581396076,
          "durationTicks": 8,
          "midi": 83,
          "name": "B5",
          "ticks": 12432,
          "time": 144.5581395348837,
          "velocity": 0.11811023622047244
        },
        {
          "duration": 0.10465116279067388,
          "durationTicks": 9,
          "midi": 67,
          "name": "G4",
          "ticks": 12433,
          "time": 144.56976744186048,
          "velocity": 0.3858267716535433
        },
        {
          "duration": 0.05813953488370771,
          "durationTicks": 5,
          "midi": 64,
          "name": "E4",
          "ticks": 12434,
          "time": 144.58139534883722,
          "velocity": 0.3228346456692913
        },
        {
          "duration": 0.05813953488370771,
          "durationTicks": 5,
          "midi": 50,
          "name": "D3",
          "ticks": 12437,
          "time": 144.61627906976744,
          "velocity": 0.12598425196850394
        },
        {
          "duration": 0.3139534883721069,
          "durationTicks": 27,
          "midi": 65,
          "name": "F4",
          "ticks": 12441,
          "time": 144.6627906976744,
          "velocity": 0.3937007874015748
        },
        {
          "duration": 0.11627906976744384,
          "durationTicks": 10,
          "midi": 81,
          "name": "A5",
          "ticks": 12441,
          "time": 144.6627906976744,
          "velocity": 0.2125984251968504
        },
        {
          "duration": 0.5813953488372192,
          "durationTicks": 50,
          "midi": 69,
          "name": "A4",
          "ticks": 12442,
          "time": 144.67441860465115,
          "velocity": 0.33070866141732286
        },
        {
          "duration": 0.13953488372095535,
          "durationTicks": 12,
          "midi": 84,
          "name": "C6",
          "ticks": 12442,
          "time": 144.67441860465115,
          "velocity": 0.11023622047244094
        },
        {
          "duration": 0.27906976744185386,
          "durationTicks": 24,
          "midi": 76,
          "name": "E5",
          "ticks": 12450,
          "time": 144.7674418604651,
          "velocity": 0.3858267716535433
        },
        {
          "duration": 0.22093023255814614,
          "durationTicks": 19,
          "midi": 80,
          "name": "G#5",
          "ticks": 12450,
          "time": 144.7674418604651,
          "velocity": 0.2125984251968504
        },
        {
          "duration": 0.3720930232558146,
          "durationTicks": 32,
          "midi": 73,
          "name": "C#5",
          "ticks": 12451,
          "time": 144.77906976744185,
          "velocity": 0.4566929133858268
        },
        {
          "duration": 0.24418604651162923,
          "durationTicks": 21,
          "midi": 45,
          "name": "A2",
          "ticks": 12452,
          "time": 144.7906976744186,
          "velocity": 0.29133858267716534
        },
        {
          "duration": 0.2906976744186238,
          "durationTicks": 25,
          "midi": 52,
          "name": "E3",
          "ticks": 12452,
          "time": 144.7906976744186,
          "velocity": 0.2283464566929134
        },
        {
          "duration": 0.05813953488373613,
          "durationTicks": 5,
          "midi": 86,
          "name": "D6",
          "ticks": 12452,
          "time": 144.7906976744186,
          "velocity": 0.14173228346456693
        },
        {
          "duration": 0.1511627906976969,
          "durationTicks": 13,
          "midi": 83,
          "name": "B5",
          "ticks": 12453,
          "time": 144.80232558139534,
          "velocity": 0.1889763779527559
        },
        {
          "duration": 0.034883720930224626,
          "durationTicks": 3,
          "midi": 87,
          "name": "D#6",
          "ticks": 12458,
          "time": 144.86046511627907,
          "velocity": 0.08661417322834646
        },
        {
          "duration": 0.034883720930224626,
          "durationTicks": 3,
          "midi": 79,
          "name": "G5",
          "ticks": 12459,
          "time": 144.87209302325581,
          "velocity": 0.07874015748031496
        },
        {
          "duration": 0.05813953488373613,
          "durationTicks": 5,
          "midi": 86,
          "name": "D6",
          "ticks": 12462,
          "time": 144.90697674418604,
          "velocity": 0.10236220472440945
        },
        {
          "duration": 0.24418604651162923,
          "durationTicks": 21,
          "midi": 65,
          "name": "F4",
          "ticks": 12469,
          "time": 144.98837209302326,
          "velocity": 0.29133858267716534
        },
        {
          "duration": 0.2325581395348877,
          "durationTicks": 20,
          "midi": 73,
          "name": "C#5",
          "ticks": 12489,
          "time": 145.22093023255815,
          "velocity": 0.4566929133858268
        },
        {
          "duration": 0.2325581395348877,
          "durationTicks": 20,
          "midi": 76,
          "name": "E5",
          "ticks": 12489,
          "time": 145.22093023255815,
          "velocity": 0.3858267716535433
        },
        {
          "duration": 0.13953488372092693,
          "durationTicks": 12,
          "midi": 64,
          "name": "E4",
          "ticks": 12490,
          "time": 145.2325581395349,
          "velocity": 0.2992125984251969
        },
        {
          "duration": 0.22093023255814614,
          "durationTicks": 19,
          "midi": 45,
          "name": "A2",
          "ticks": 12491,
          "time": 145.24418604651163,
          "velocity": 0.4251968503937008
        },
        {
          "duration": 0.08139534883721922,
          "durationTicks": 7,
          "midi": 52,
          "name": "E3",
          "ticks": 12491,
          "time": 145.24418604651163,
          "velocity": 0.2283464566929134
        },
        {
          "duration": 0.16279069767441,
          "durationTicks": 14,
          "midi": 71,
          "name": "B4",
          "ticks": 12491,
          "time": 145.24418604651163,
          "velocity": 0.2125984251968504
        },
        {
          "duration": 0.05813953488370771,
          "durationTicks": 5,
          "midi": 86,
          "name": "D6",
          "ticks": 12491,
          "time": 145.24418604651163,
          "velocity": 0.14960629921259844
        },
        {
          "duration": 0.034883720930224626,
          "durationTicks": 3,
          "midi": 92,
          "name": "G#6",
          "ticks": 12491,
          "time": 145.24418604651163,
          "velocity": 0.09448818897637795
        },
        {
          "duration": 0.09302325581396076,
          "durationTicks": 8,
          "midi": 81,
          "name": "A5",
          "ticks": 12493,
          "time": 145.2674418604651,
          "velocity": 0.2283464566929134
        },
        {
          "duration": 0.04651162790696617,
          "durationTicks": 4,
          "midi": 52,
          "name": "E3",
          "ticks": 12499,
          "time": 145.3372093023256,
          "velocity": 0.2047244094488189
        },
        {
          "duration": 0.04651162790696617,
          "durationTicks": 4,
          "midi": 61,
          "name": "C#4",
          "ticks": 12500,
          "time": 145.34883720930233,
          "velocity": 0.07874015748031496
        },
        {
          "duration": 0.034883720930224626,
          "durationTicks": 3,
          "midi": 65,
          "name": "F4",
          "ticks": 12504,
          "time": 145.3953488372093,
          "velocity": 0.11811023622047244
        },
        {
          "duration": 0.38372093023255616,
          "durationTicks": 33,
          "midi": 77,
          "name": "F5",
          "ticks": 12508,
          "time": 145.4418604651163,
          "velocity": 0.4094488188976378
        },
        {
          "duration": 0.23255813953485927,
          "durationTicks": 20,
          "midi": 62,
          "name": "D4",
          "ticks": 12509,
          "time": 145.45348837209303,
          "velocity": 0.33070866141732286
        },
        {
          "duration": 0.8372093023255616,
          "durationTicks": 72,
          "midi": 74,
          "name": "D5",
          "ticks": 12509,
          "time": 145.45348837209303,
          "velocity": 0.3543307086614173
        },
        {
          "duration": 0.16279069767441,
          "durationTicks": 14,
          "midi": 81,
          "name": "A5",
          "ticks": 12509,
          "time": 145.45348837209303,
          "velocity": 0.23622047244094488
        },
        {
          "duration": 0.19767441860463464,
          "durationTicks": 17,
          "midi": 93,
          "name": "A6",
          "ticks": 12509,
          "time": 145.45348837209303,
          "velocity": 0.2677165354330709
        },
        {
          "duration": 0.023255813953483084,
          "durationTicks": 2,
          "midi": 54,
          "name": "F#3",
          "ticks": 12510,
          "time": 145.46511627906978,
          "velocity": 0.23622047244094488
        },
        {
          "duration": 0.034883720930224626,
          "durationTicks": 3,
          "midi": 80,
          "name": "G#5",
          "ticks": 12510,
          "time": 145.46511627906978,
          "velocity": 0.09448818897637795
        },
        {
          "duration": 0.05813953488370771,
          "durationTicks": 5,
          "midi": 85,
          "name": "C#6",
          "ticks": 12510,
          "time": 145.46511627906978,
          "velocity": 0.15748031496062992
        },
        {
          "duration": 0.04651162790696617,
          "durationTicks": 4,
          "midi": 65,
          "name": "F4",
          "ticks": 12511,
          "time": 145.47674418604652,
          "velocity": 0.2992125984251969
        },
        {
          "duration": 0.7906976744185954,
          "durationTicks": 68,
          "midi": 69,
          "name": "A4",
          "ticks": 12511,
          "time": 145.47674418604652,
          "velocity": 0.3700787401574803
        },
        {
          "duration": 0.023255813953483084,
          "durationTicks": 2,
          "midi": 44,
          "name": "G#2",
          "ticks": 12512,
          "time": 145.48837209302326,
          "velocity": 0.36220472440944884
        },
        {
          "duration": 0.04651162790696617,
          "durationTicks": 4,
          "midi": 84,
          "name": "C6",
          "ticks": 12512,
          "time": 145.48837209302326,
          "velocity": 0.16535433070866143
        },
        {
          "duration": 0.04651162790696617,
          "durationTicks": 4,
          "midi": 53,
          "name": "F3",
          "ticks": 12513,
          "time": 145.5,
          "velocity": 0.25196850393700787
        },
        {
          "duration": 0.18604651162792152,
          "durationTicks": 16,
          "midi": 45,
          "name": "A2",
          "ticks": 12514,
          "time": 145.51162790697674,
          "velocity": 0.3464566929133858
        },
        {
          "duration": 0.06976744186047767,
          "durationTicks": 6,
          "midi": 72,
          "name": "C5",
          "ticks": 12514,
          "time": 145.51162790697674,
          "velocity": 0.16535433070866143
        },
        {
          "duration": 0.05813953488373613,
          "durationTicks": 5,
          "midi": 87,
          "name": "D#6",
          "ticks": 12514,
          "time": 145.51162790697674,
          "velocity": 0.12598425196850394
        },
        {
          "duration": 0.25581395348837077,
          "durationTicks": 22,
          "midi": 65,
          "name": "F4",
          "ticks": 12516,
          "time": 145.53488372093022,
          "velocity": 0.29133858267716534
        },
        {
          "duration": 0.04651162790699459,
          "durationTicks": 4,
          "midi": 85,
          "name": "C#6",
          "ticks": 12518,
          "time": 145.5581395348837,
          "velocity": 0.10236220472440945
        },
        {
          "duration": 0.06976744186044925,
          "durationTicks": 6,
          "midi": 87,
          "name": "D#6",
          "ticks": 12522,
          "time": 145.6046511627907,
          "velocity": 0.08661417322834646
        },
        {
          "duration": 0.05813953488370771,
          "durationTicks": 5,
          "midi": 72,
          "name": "C5",
          "ticks": 12524,
          "time": 145.62790697674419,
          "velocity": 0.12598425196850394
        },
        {
          "duration": 0.2674418604651123,
          "durationTicks": 23,
          "midi": 88,
          "name": "E6",
          "ticks": 12525,
          "time": 145.63953488372093,
          "velocity": 0.11023622047244094
        },
        {
          "duration": 0.04651162790699459,
          "durationTicks": 4,
          "midi": 85,
          "name": "C#6",
          "ticks": 12526,
          "time": 145.65116279069767,
          "velocity": 0.08661417322834646
        },
        {
          "duration": 0.05813953488370771,
          "durationTicks": 5,
          "midi": 44,
          "name": "G#2",
          "ticks": 12530,
          "time": 145.69767441860466,
          "velocity": 0.2204724409448819
        },
        {
          "duration": 0.05813953488370771,
          "durationTicks": 5,
          "midi": 62,
          "name": "D4",
          "ticks": 12530,
          "time": 145.69767441860466,
          "velocity": 0.12598425196850394
        },
        {
          "duration": 0.034883720930224626,
          "durationTicks": 3,
          "midi": 50,
          "name": "D3",
          "ticks": 12532,
          "time": 145.72093023255815,
          "velocity": 0.2125984251968504
        },
        {
          "duration": 0.04651162790696617,
          "durationTicks": 4,
          "midi": 57,
          "name": "A3",
          "ticks": 12534,
          "time": 145.74418604651163,
          "velocity": 0.11811023622047244
        },
        {
          "duration": 0.12790697674418539,
          "durationTicks": 11,
          "midi": 72,
          "name": "C5",
          "ticks": 12535,
          "time": 145.75581395348837,
          "velocity": 0.15748031496062992
        },
        {
          "duration": 0.03488372093025305,
          "durationTicks": 3,
          "midi": 45,
          "name": "A2",
          "ticks": 12538,
          "time": 145.7906976744186,
          "velocity": 0.2204724409448819
        },
        {
          "duration": 0.04651162790699459,
          "durationTicks": 4,
          "midi": 50,
          "name": "D3",
          "ticks": 12538,
          "time": 145.7906976744186,
          "velocity": 0.2047244094488189
        },
        {
          "duration": 0.023255813953483084,
          "durationTicks": 2,
          "midi": 50,
          "name": "D3",
          "ticks": 12545,
          "time": 145.87209302325581,
          "velocity": 0.2283464566929134
        },
        {
          "duration": 0.24418604651162923,
          "durationTicks": 21,
          "midi": 65,
          "name": "F4",
          "ticks": 12548,
          "time": 145.90697674418604,
          "velocity": 0.3228346456692913
        },
        {
          "duration": 0.03488372093025305,
          "durationTicks": 3,
          "midi": 80,
          "name": "G#5",
          "ticks": 12548,
          "time": 145.90697674418604,
          "velocity": 0.11023622047244094
        },
        {
          "duration": 0.13953488372092693,
          "durationTicks": 12,
          "midi": 89,
          "name": "F6",
          "ticks": 12548,
          "time": 145.90697674418604,
          "velocity": 0.41732283464566927
        },
        {
          "duration": 0.1511627906976969,
          "durationTicks": 13,
          "midi": 62,
          "name": "D4",
          "ticks": 12549,
          "time": 145.91860465116278,
          "velocity": 0.2755905511811024
        },
        {
          "duration": 0.17441860465117998,
          "durationTicks": 15,
          "midi": 84,
          "name": "C6",
          "ticks": 12549,
          "time": 145.91860465116278,
          "velocity": 0.1968503937007874
        },
        {
          "duration": 0.19767441860466306,
          "durationTicks": 17,
          "midi": 57,
          "name": "A3",
          "ticks": 12550,
          "time": 145.93023255813952,
          "velocity": 0.11811023622047244
        },
        {
          "duration": 0.11627906976744384,
          "durationTicks": 10,
          "midi": 72,
          "name": "C5",
          "ticks": 12552,
          "time": 145.95348837209303,
          "velocity": 0.14173228346456693
        },
        {
          "duration": 0.22093023255811772,
          "durationTicks": 19,
          "midi": 88,
          "name": "E6",
          "ticks": 12553,
          "time": 145.96511627906978,
          "velocity": 0.09448818897637795
        },
        {
          "duration": 0.13953488372092693,
          "durationTicks": 12,
          "midi": 38,
          "name": "D2",
          "ticks": 12556,
          "time": 146,
          "velocity": 0.16535433070866143
        },
        {
          "duration": 0.05813953488370771,
          "durationTicks": 5,
          "midi": 62,
          "name": "D4",
          "ticks": 12563,
          "time": 146.08139534883722,
          "velocity": 0.16535433070866143
        },
        {
          "duration": 0.034883720930224626,
          "durationTicks": 3,
          "midi": 84,
          "name": "C6",
          "ticks": 12566,
          "time": 146.11627906976744,
          "velocity": 0.11811023622047244
        },
        {
          "duration": 0.2093023255814046,
          "durationTicks": 18,
          "midi": 67,
          "name": "G4",
          "ticks": 12569,
          "time": 146.15116279069767,
          "velocity": 0.2125984251968504
        },
        {
          "duration": 0.19767441860466306,
          "durationTicks": 17,
          "midi": 60,
          "name": "C4",
          "ticks": 12570,
          "time": 146.1627906976744,
          "velocity": 0.16535433070866143
        },
        {
          "duration": 0.03488372093025305,
          "durationTicks": 3,
          "midi": 65,
          "name": "F4",
          "ticks": 12570,
          "time": 146.1627906976744,
          "velocity": 0.1732283464566929
        },
        {
          "duration": 0.06976744186047767,
          "durationTicks": 6,
          "midi": 82,
          "name": "A#5",
          "ticks": 12572,
          "time": 146.1860465116279,
          "velocity": 0.11023622047244094
        },
        {
          "duration": 0.12790697674418539,
          "durationTicks": 11,
          "midi": 48,
          "name": "C3",
          "ticks": 12576,
          "time": 146.2325581395349,
          "velocity": 0.25196850393700787
        },
        {
          "duration": 0.023255813953483084,
          "durationTicks": 2,
          "midi": 49,
          "name": "C#3",
          "ticks": 12587,
          "time": 146.36046511627907,
          "velocity": 0.25196850393700787
        },
        {
          "duration": 0.25581395348837077,
          "durationTicks": 22,
          "midi": 62,
          "name": "D4",
          "ticks": 12587,
          "time": 146.36046511627907,
          "velocity": 0.33070866141732286
        },
        {
          "duration": 0.3720930232558146,
          "durationTicks": 32,
          "midi": 69,
          "name": "A4",
          "ticks": 12587,
          "time": 146.36046511627907,
          "velocity": 0.33858267716535434
        },
        {
          "duration": 0.4651162790697754,
          "durationTicks": 40,
          "midi": 74,
          "name": "D5",
          "ticks": 12587,
          "time": 146.36046511627907,
          "velocity": 0.4881889763779528
        },
        {
          "duration": 0.44186046511626387,
          "durationTicks": 38,
          "midi": 79,
          "name": "G5",
          "ticks": 12587,
          "time": 146.36046511627907,
          "velocity": 0.3937007874015748
        },
        {
          "duration": 0.22093023255814614,
          "durationTicks": 19,
          "midi": 84,
          "name": "C6",
          "ticks": 12587,
          "time": 146.36046511627907,
          "velocity": 0.3464566929133858
        },
        {
          "duration": 0.15116279069766847,
          "durationTicks": 13,
          "midi": 88,
          "name": "E6",
          "ticks": 12587,
          "time": 146.36046511627907,
          "velocity": 0.3543307086614173
        },
        {
          "duration": 0.3139534883720785,
          "durationTicks": 27,
          "midi": 65,
          "name": "F4",
          "ticks": 12588,
          "time": 146.37209302325581,
          "velocity": 0.30708661417322836
        },
        {
          "duration": 0.1046511627907023,
          "durationTicks": 9,
          "midi": 72,
          "name": "C5",
          "ticks": 12589,
          "time": 146.38372093023256,
          "velocity": 0.15748031496062992
        },
        {
          "duration": 0.19767441860466306,
          "durationTicks": 17,
          "midi": 38,
          "name": "D2",
          "ticks": 12591,
          "time": 146.40697674418604,
          "velocity": 0.18110236220472442
        },
        {
          "duration": 0.2325581395348877,
          "durationTicks": 20,
          "midi": 50,
          "name": "D3",
          "ticks": 12593,
          "time": 146.43023255813952,
          "velocity": 0.2047244094488189
        },
        {
          "duration": 0.09302325581393234,
          "durationTicks": 8,
          "midi": 57,
          "name": "A3",
          "ticks": 12596,
          "time": 146.46511627906978,
          "velocity": 0.08661417322834646
        },
        {
          "duration": 0.05813953488373613,
          "durationTicks": 5,
          "midi": 72,
          "name": "C5",
          "ticks": 12601,
          "time": 146.52325581395348,
          "velocity": 0.11811023622047244
        },
        {
          "duration": 0.04651162790699459,
          "durationTicks": 4,
          "midi": 93,
          "name": "A6",
          "ticks": 12603,
          "time": 146.54651162790697,
          "velocity": 0.08661417322834646
        },
        {
          "duration": 0.17441860465115155,
          "durationTicks": 15,
          "midi": 88,
          "name": "E6",
          "ticks": 12605,
          "time": 146.56976744186048,
          "velocity": 0.11023622047244094
        },
        {
          "duration": 0.17441860465117998,
          "durationTicks": 15,
          "midi": 72,
          "name": "C5",
          "ticks": 12611,
          "time": 146.63953488372093,
          "velocity": 0.13385826771653545
        },
        {
          "duration": 0.034883720930224626,
          "durationTicks": 3,
          "midi": 45,
          "name": "A2",
          "ticks": 12616,
          "time": 146.69767441860466,
          "velocity": 0.2204724409448819
        },
        {
          "duration": 0.03488372093025305,
          "durationTicks": 3,
          "midi": 45,
          "name": "A2",
          "ticks": 12623,
          "time": 146.77906976744185,
          "velocity": 0.2047244094488189
        },
        {
          "duration": 0.04651162790699459,
          "durationTicks": 4,
          "midi": 60,
          "name": "C4",
          "ticks": 12623,
          "time": 146.77906976744185,
          "velocity": 0.14960629921259844
        },
        {
          "duration": 0.023255813953483084,
          "durationTicks": 2,
          "midi": 66,
          "name": "F#4",
          "ticks": 12626,
          "time": 146.8139534883721,
          "velocity": 0.2755905511811024
        },
        {
          "duration": 0.2674418604651123,
          "durationTicks": 23,
          "midi": 69,
          "name": "A4",
          "ticks": 12626,
          "time": 146.8139534883721,
          "velocity": 0.36220472440944884
        },
        {
          "duration": 0.22093023255811772,
          "durationTicks": 19,
          "midi": 45,
          "name": "A2",
          "ticks": 12627,
          "time": 146.82558139534885,
          "velocity": 0.3543307086614173
        },
        {
          "duration": 0.1860465116278931,
          "durationTicks": 16,
          "midi": 62,
          "name": "D4",
          "ticks": 12627,
          "time": 146.82558139534885,
          "velocity": 0.2992125984251969
        },
        {
          "duration": 0.2674418604651123,
          "durationTicks": 23,
          "midi": 77,
          "name": "F5",
          "ticks": 12627,
          "time": 146.82558139534885,
          "velocity": 0.3858267716535433
        },
        {
          "duration": 0.1860465116278931,
          "durationTicks": 16,
          "midi": 84,
          "name": "C6",
          "ticks": 12627,
          "time": 146.82558139534885,
          "velocity": 0.14173228346456693
        },
        {
          "duration": 0.20930232558137618,
          "durationTicks": 18,
          "midi": 65,
          "name": "F4",
          "ticks": 12628,
          "time": 146.8372093023256,
          "velocity": 0.33858267716535434
        },
        {
          "duration": 3.1744186046511516,
          "durationTicks": 273,
          "midi": 74,
          "name": "D5",
          "ticks": 12628,
          "time": 146.8372093023256,
          "velocity": 0.49606299212598426
        },
        {
          "duration": 0.5,
          "durationTicks": 43,
          "midi": 72,
          "name": "C5",
          "ticks": 12629,
          "time": 146.84883720930233,
          "velocity": 0.3937007874015748
        },
        {
          "duration": 0.034883720930224626,
          "durationTicks": 3,
          "midi": 88,
          "name": "E6",
          "ticks": 12631,
          "time": 146.87209302325581,
          "velocity": 0.07086614173228346
        },
        {
          "duration": 0.023255813953511506,
          "durationTicks": 2,
          "midi": 44,
          "name": "G#2",
          "ticks": 12646,
          "time": 147.04651162790697,
          "velocity": 0.2677165354330709
        },
        {
          "duration": 0.22093023255814614,
          "durationTicks": 19,
          "midi": 60,
          "name": "C4",
          "ticks": 12647,
          "time": 147.0581395348837,
          "velocity": 0.3700787401574803
        },
        {
          "duration": 0.023255813953511506,
          "durationTicks": 2,
          "midi": 65,
          "name": "F4",
          "ticks": 12647,
          "time": 147.0581395348837,
          "velocity": 0.36220472440944884
        },
        {
          "duration": 0.22093023255814614,
          "durationTicks": 19,
          "midi": 79,
          "name": "G5",
          "ticks": 12647,
          "time": 147.0581395348837,
          "velocity": 0.2047244094488189
        },
        {
          "duration": 0.09302325581396076,
          "durationTicks": 8,
          "midi": 83,
          "name": "B5",
          "ticks": 12647,
          "time": 147.0581395348837,
          "velocity": 0.13385826771653545
        },
        {
          "duration": 0.023255813953483084,
          "durationTicks": 2,
          "midi": 47,
          "name": "B2",
          "ticks": 12648,
          "time": 147.06976744186048,
          "velocity": 0.2677165354330709
        },
        {
          "duration": 0.19767441860463464,
          "durationTicks": 17,
          "midi": 88,
          "name": "E6",
          "ticks": 12648,
          "time": 147.06976744186048,
          "velocity": 0.16535433070866143
        },
        {
          "duration": 0.19767441860463464,
          "durationTicks": 17,
          "midi": 64,
          "name": "E4",
          "ticks": 12649,
          "time": 147.08139534883722,
          "velocity": 0.33070866141732286
        },
        {
          "duration": 0.19767441860463464,
          "durationTicks": 17,
          "midi": 67,
          "name": "G4",
          "ticks": 12649,
          "time": 147.08139534883722,
          "velocity": 0.3464566929133858
        },
        {
          "duration": 0.8953488372092977,
          "durationTicks": 77,
          "midi": 77,
          "name": "F5",
          "ticks": 12652,
          "time": 147.11627906976744,
          "velocity": 0.4566929133858268
        },
        {
          "duration": 0.04651162790696617,
          "durationTicks": 4,
          "midi": 48,
          "name": "C3",
          "ticks": 12654,
          "time": 147.13953488372093,
          "velocity": 0.2125984251968504
        },
        {
          "duration": 0.04651162790696617,
          "durationTicks": 4,
          "midi": 40,
          "name": "E2",
          "ticks": 12659,
          "time": 147.19767441860466,
          "velocity": 0.1732283464566929
        },
        {
          "duration": 0.0813953488371908,
          "durationTicks": 7,
          "midi": 48,
          "name": "C3",
          "ticks": 12659,
          "time": 147.19767441860466,
          "velocity": 0.1968503937007874
        },
        {
          "duration": 0.05813953488370771,
          "durationTicks": 5,
          "midi": 82,
          "name": "A#5",
          "ticks": 12661,
          "time": 147.22093023255815,
          "velocity": 0.18110236220472442
        },
        {
          "duration": 0.8139534883721069,
          "durationTicks": 70,
          "midi": 69,
          "name": "A4",
          "ticks": 12665,
          "time": 147.2674418604651,
          "velocity": 0.3543307086614173
        },
        {
          "duration": 0.023255813953483084,
          "durationTicks": 2,
          "midi": 62,
          "name": "D4",
          "ticks": 12666,
          "time": 147.27906976744185,
          "velocity": 0.2992125984251969
        },
        {
          "duration": 0.30232558139536536,
          "durationTicks": 26,
          "midi": 65,
          "name": "F4",
          "ticks": 12667,
          "time": 147.2906976744186,
          "velocity": 0.33858267716535434
        },
        {
          "duration": 0.19767441860466306,
          "durationTicks": 17,
          "midi": 50,
          "name": "D3",
          "ticks": 12668,
          "time": 147.30232558139534,
          "velocity": 0.2755905511811024
        },
        {
          "duration": 0.43023255813955075,
          "durationTicks": 37,
          "midi": 88,
          "name": "E6",
          "ticks": 12668,
          "time": 147.30232558139534,
          "velocity": 0.13385826771653545
        },
        {
          "duration": 0.23255813953485927,
          "durationTicks": 20,
          "midi": 62,
          "name": "D4",
          "ticks": 12669,
          "time": 147.3139534883721,
          "velocity": 0.3228346456692913
        },
        {
          "duration": 0.18604651162792152,
          "durationTicks": 16,
          "midi": 72,
          "name": "C5",
          "ticks": 12687,
          "time": 147.52325581395348,
          "velocity": 0.11023622047244094
        },
        {
          "duration": 0.03488372093025305,
          "durationTicks": 3,
          "midi": 44,
          "name": "G#2",
          "ticks": 12688,
          "time": 147.53488372093022,
          "velocity": 0.2283464566929134
        },
        {
          "duration": 0.0813953488371908,
          "durationTicks": 7,
          "midi": 45,
          "name": "A2",
          "ticks": 12694,
          "time": 147.6046511627907,
          "velocity": 0.23622047244094488
        },
        {
          "duration": 0.06976744186047767,
          "durationTicks": 6,
          "midi": 60,
          "name": "C4",
          "ticks": 12698,
          "time": 147.65116279069767,
          "velocity": 0.08661417322834646
        },
        {
          "duration": 0.04651162790696617,
          "durationTicks": 4,
          "midi": 84,
          "name": "C6",
          "ticks": 12705,
          "time": 147.7325581395349,
          "velocity": 0.1968503937007874
        },
        {
          "duration": 0.08139534883721922,
          "durationTicks": 7,
          "midi": 93,
          "name": "A6",
          "ticks": 12705,
          "time": 147.7325581395349,
          "velocity": 0.2283464566929134
        },
        {
          "duration": 0.24418604651162923,
          "durationTicks": 21,
          "midi": 65,
          "name": "F4",
          "ticks": 12706,
          "time": 147.74418604651163,
          "velocity": 0.3228346456692913
        },
        {
          "duration": 0.04651162790696617,
          "durationTicks": 4,
          "midi": 50,
          "name": "D3",
          "ticks": 12707,
          "time": 147.75581395348837,
          "velocity": 0.2440944881889764
        },
        {
          "duration": 0.24418604651162923,
          "durationTicks": 21,
          "midi": 62,
          "name": "D4",
          "ticks": 12707,
          "time": 147.75581395348837,
          "velocity": 0.2677165354330709
        },
        {
          "duration": 0.034883720930224626,
          "durationTicks": 3,
          "midi": 72,
          "name": "C5",
          "ticks": 12707,
          "time": 147.75581395348837,
          "velocity": 0.09448818897637795
        },
        {
          "duration": 0.17441860465117998,
          "durationTicks": 15,
          "midi": 38,
          "name": "D2",
          "ticks": 12710,
          "time": 147.7906976744186,
          "velocity": 0.1968503937007874
        },
        {
          "duration": 0.13953488372092693,
          "durationTicks": 12,
          "midi": 84,
          "name": "C6",
          "ticks": 12710,
          "time": 147.7906976744186,
          "velocity": 0.14173228346456693
        },
        {
          "duration": 0.23255813953485927,
          "durationTicks": 20,
          "midi": 72,
          "name": "C5",
          "ticks": 12712,
          "time": 147.8139534883721,
          "velocity": 0.1889763779527559
        },
        {
          "duration": 0.19767441860463464,
          "durationTicks": 17,
          "midi": 88,
          "name": "E6",
          "ticks": 12713,
          "time": 147.82558139534885,
          "velocity": 0.07874015748031496
        },
        {
          "duration": 0.13953488372092693,
          "durationTicks": 12,
          "midi": 50,
          "name": "D3",
          "ticks": 12714,
          "time": 147.8372093023256,
          "velocity": 0.2755905511811024
        },
        {
          "duration": 0.04651162790696617,
          "durationTicks": 4,
          "midi": 48,
          "name": "C3",
          "ticks": 12726,
          "time": 147.97674418604652,
          "velocity": 0.3543307086614173
        },
        {
          "duration": 0.17441860465115155,
          "durationTicks": 15,
          "midi": 67,
          "name": "G4",
          "ticks": 12729,
          "time": 148.01162790697674,
          "velocity": 0.1889763779527559
        },
        {
          "duration": 0.06976744186047767,
          "durationTicks": 6,
          "midi": 82,
          "name": "A#5",
          "ticks": 12730,
          "time": 148.02325581395348,
          "velocity": 0.08661417322834646
        },
        {
          "duration": 0.04651162790696617,
          "durationTicks": 4,
          "midi": 72,
          "name": "C5",
          "ticks": 12736,
          "time": 148.09302325581396,
          "velocity": 0.14173228346456693
        },
        {
          "duration": 0.40697674418606766,
          "durationTicks": 35,
          "midi": 69,
          "name": "A4",
          "ticks": 12743,
          "time": 148.17441860465115,
          "velocity": 0.3700787401574803
        },
        {
          "duration": 0.5,
          "durationTicks": 43,
          "midi": 79,
          "name": "G5",
          "ticks": 12743,
          "time": 148.17441860465115,
          "velocity": 0.3937007874015748
        },
        {
          "duration": 0.33720930232559,
          "durationTicks": 29,
          "midi": 77,
          "name": "F5",
          "ticks": 12744,
          "time": 148.1860465116279,
          "velocity": 0.1968503937007874
        },
        {
          "duration": 0.19767441860466306,
          "durationTicks": 17,
          "midi": 84,
          "name": "C6",
          "ticks": 12744,
          "time": 148.1860465116279,
          "velocity": 0.33070866141732286
        },
        {
          "duration": 0.1511627906976969,
          "durationTicks": 13,
          "midi": 88,
          "name": "E6",
          "ticks": 12744,
          "time": 148.1860465116279,
          "velocity": 0.36220472440944884
        },
        {
          "duration": 0.30232558139533694,
          "durationTicks": 26,
          "midi": 65,
          "name": "F4",
          "ticks": 12745,
          "time": 148.19767441860466,
          "velocity": 0.3228346456692913
        },
        {
          "duration": 0.19767441860463464,
          "durationTicks": 17,
          "midi": 50,
          "name": "D3",
          "ticks": 12748,
          "time": 148.2325581395349,
          "velocity": 0.23622047244094488
        },
        {
          "duration": 0.034883720930224626,
          "durationTicks": 3,
          "midi": 72,
          "name": "C5",
          "ticks": 12748,
          "time": 148.2325581395349,
          "velocity": 0.16535433070866143
        },
        {
          "duration": 0.034883720930224626,
          "durationTicks": 3,
          "midi": 82,
          "name": "A#5",
          "ticks": 12751,
          "time": 148.2674418604651,
          "velocity": 0.13385826771653545
        },
        {
          "duration": 0.06976744186044925,
          "durationTicks": 6,
          "midi": 57,
          "name": "A3",
          "ticks": 12757,
          "time": 148.3372093023256,
          "velocity": 0.09448818897637795
        },
        {
          "duration": 0.06976744186044925,
          "durationTicks": 6,
          "midi": 72,
          "name": "C5",
          "ticks": 12757,
          "time": 148.3372093023256,
          "velocity": 0.09448818897637795
        },
        {
          "duration": 0.17441860465117998,
          "durationTicks": 15,
          "midi": 88,
          "name": "E6",
          "ticks": 12762,
          "time": 148.3953488372093,
          "velocity": 0.12598425196850394
        },
        {
          "duration": 0.03488372093025305,
          "durationTicks": 3,
          "midi": 82,
          "name": "A#5",
          "ticks": 12763,
          "time": 148.40697674418604,
          "velocity": 0.07874015748031496
        },
        {
          "duration": 0.04651162790699459,
          "durationTicks": 4,
          "midi": 84,
          "name": "C6",
          "ticks": 12764,
          "time": 148.41860465116278,
          "velocity": 0.14960629921259844
        },
        {
          "duration": 0.023255813953483084,
          "durationTicks": 2,
          "midi": 38,
          "name": "D2",
          "ticks": 12771,
          "time": 148.5,
          "velocity": 0.25196850393700787
        },
        {
          "duration": 0.034883720930224626,
          "durationTicks": 3,
          "midi": 84,
          "name": "C6",
          "ticks": 12772,
          "time": 148.51162790697674,
          "velocity": 0.07874015748031496
        },
        {
          "duration": 0.09302325581393234,
          "durationTicks": 8,
          "midi": 72,
          "name": "C5",
          "ticks": 12777,
          "time": 148.56976744186048,
          "velocity": 0.1889763779527559
        },
        {
          "duration": 0.023255813953483084,
          "durationTicks": 2,
          "midi": 38,
          "name": "D2",
          "ticks": 12778,
          "time": 148.58139534883722,
          "velocity": 0.2440944881889764
        },
        {
          "duration": 0.034883720930224626,
          "durationTicks": 3,
          "midi": 60,
          "name": "C4",
          "ticks": 12781,
          "time": 148.61627906976744,
          "velocity": 0.16535433070866143
        },
        {
          "duration": 0.04651162790696617,
          "durationTicks": 4,
          "midi": 44,
          "name": "G#2",
          "ticks": 12783,
          "time": 148.63953488372093,
          "velocity": 0.31496062992125984
        },
        {
          "duration": 0.2906976744185954,
          "durationTicks": 25,
          "midi": 77,
          "name": "F5",
          "ticks": 12783,
          "time": 148.63953488372093,
          "velocity": 0.3700787401574803
        },
        {
          "duration": 0.15116279069766847,
          "durationTicks": 13,
          "midi": 81,
          "name": "A5",
          "ticks": 12783,
          "time": 148.63953488372093,
          "velocity": 0.25196850393700787
        },
        {
          "duration": 0.22093023255814614,
          "durationTicks": 19,
          "midi": 62,
          "name": "D4",
          "ticks": 12784,
          "time": 148.65116279069767,
          "velocity": 0.28346456692913385
        },
        {
          "duration": 0.22093023255814614,
          "durationTicks": 19,
          "midi": 65,
          "name": "F4",
          "ticks": 12784,
          "time": 148.65116279069767,
          "velocity": 0.3228346456692913
        },
        {
          "duration": 0.25581395348837077,
          "durationTicks": 22,
          "midi": 69,
          "name": "A4",
          "ticks": 12784,
          "time": 148.65116279069767,
          "velocity": 0.3464566929133858
        },
        {
          "duration": 0.2093023255814046,
          "durationTicks": 18,
          "midi": 45,
          "name": "A2",
          "ticks": 12787,
          "time": 148.6860465116279,
          "velocity": 0.31496062992125984
        },
        {
          "duration": 0.2325581395348877,
          "durationTicks": 20,
          "midi": 72,
          "name": "C5",
          "ticks": 12802,
          "time": 148.86046511627907,
          "velocity": 0.4566929133858268
        },
        {
          "duration": 0.2325581395348877,
          "durationTicks": 20,
          "midi": 60,
          "name": "C4",
          "ticks": 12803,
          "time": 148.87209302325581,
          "velocity": 0.33070866141732286
        },
        {
          "duration": 0.25581395348837077,
          "durationTicks": 22,
          "midi": 79,
          "name": "G5",
          "ticks": 12803,
          "time": 148.87209302325581,
          "velocity": 0.2283464566929134
        },
        {
          "duration": 0.11627906976744384,
          "durationTicks": 10,
          "midi": 82,
          "name": "A#5",
          "ticks": 12803,
          "time": 148.87209302325581,
          "velocity": 0.1732283464566929
        },
        {
          "duration": 0.06976744186047767,
          "durationTicks": 6,
          "midi": 83,
          "name": "B5",
          "ticks": 12804,
          "time": 148.88372093023256,
          "velocity": 0.12598425196850394
        },
        {
          "duration": 0.2093023255814046,
          "durationTicks": 18,
          "midi": 64,
          "name": "E4",
          "ticks": 12805,
          "time": 148.8953488372093,
          "velocity": 0.31496062992125984
        },
        {
          "duration": 0.19767441860466306,
          "durationTicks": 17,
          "midi": 67,
          "name": "G4",
          "ticks": 12805,
          "time": 148.8953488372093,
          "velocity": 0.3464566929133858
        },
        {
          "duration": 0.4651162790697754,
          "durationTicks": 40,
          "midi": 88,
          "name": "E6",
          "ticks": 12805,
          "time": 148.8953488372093,
          "velocity": 0.1968503937007874
        },
        {
          "duration": 0.4186046511627808,
          "durationTicks": 36,
          "midi": 77,
          "name": "F5",
          "ticks": 12809,
          "time": 148.9418604651163,
          "velocity": 0.2677165354330709
        },
        {
          "duration": 0.1046511627907023,
          "durationTicks": 9,
          "midi": 48,
          "name": "C3",
          "ticks": 12816,
          "time": 149.02325581395348,
          "velocity": 0.2125984251968504
        },
        {
          "duration": 0.05813953488373613,
          "durationTicks": 5,
          "midi": 82,
          "name": "A#5",
          "ticks": 12817,
          "time": 149.03488372093022,
          "velocity": 0.11811023622047244
        },
        {
          "duration": 0.03488372093025305,
          "durationTicks": 3,
          "midi": 40,
          "name": "E2",
          "ticks": 12819,
          "time": 149.0581395348837,
          "velocity": 0.13385826771653545
        },
        {
          "duration": 0.33720930232556157,
          "durationTicks": 29,
          "midi": 69,
          "name": "A4",
          "ticks": 12822,
          "time": 149.09302325581396,
          "velocity": 0.3858267716535433
        },
        {
          "duration": 0.15116279069766847,
          "durationTicks": 13,
          "midi": 89,
          "name": "F6",
          "ticks": 12822,
          "time": 149.09302325581396,
          "velocity": 0.41732283464566927
        },
        {
          "duration": 0.24418604651162923,
          "durationTicks": 21,
          "midi": 65,
          "name": "F4",
          "ticks": 12823,
          "time": 149.1046511627907,
          "velocity": 0.33858267716535434
        },
        {
          "duration": 0.2093023255814046,
          "durationTicks": 18,
          "midi": 84,
          "name": "C6",
          "ticks": 12823,
          "time": 149.1046511627907,
          "velocity": 0.14960629921259844
        },
        {
          "duration": 0.1860465116278931,
          "durationTicks": 16,
          "midi": 62,
          "name": "D4",
          "ticks": 12824,
          "time": 149.11627906976744,
          "velocity": 0.2992125984251969
        },
        {
          "duration": 0.09302325581396076,
          "durationTicks": 8,
          "midi": 72,
          "name": "C5",
          "ticks": 12827,
          "time": 149.15116279069767,
          "velocity": 0.12598425196850394
        },
        {
          "duration": 0.3604651162790731,
          "durationTicks": 31,
          "midi": 50,
          "name": "D3",
          "ticks": 12830,
          "time": 149.1860465116279,
          "velocity": 0.23622047244094488
        },
        {
          "duration": 0.06976744186047767,
          "durationTicks": 6,
          "midi": 72,
          "name": "C5",
          "ticks": 12837,
          "time": 149.2674418604651,
          "velocity": 0.09448818897637795
        },
        {
          "duration": 0.034883720930224626,
          "durationTicks": 3,
          "midi": 83,
          "name": "B5",
          "ticks": 12843,
          "time": 149.3372093023256,
          "velocity": 0.1732283464566929
        },
        {
          "duration": 0.05813953488370771,
          "durationTicks": 5,
          "midi": 43,
          "name": "G2",
          "ticks": 12844,
          "time": 149.34883720930233,
          "velocity": 0.2047244094488189
        },
        {
          "duration": 0.034883720930224626,
          "durationTicks": 3,
          "midi": 72,
          "name": "C5",
          "ticks": 12845,
          "time": 149.36046511627907,
          "velocity": 0.07086614173228346
        },
        {
          "duration": 0.034883720930224626,
          "durationTicks": 3,
          "midi": 89,
          "name": "F6",
          "ticks": 12845,
          "time": 149.36046511627907,
          "velocity": 0.10236220472440945
        },
        {
          "duration": 0.16279069767441,
          "durationTicks": 14,
          "midi": 67,
          "name": "G4",
          "ticks": 12847,
          "time": 149.38372093023256,
          "velocity": 0.25196850393700787
        },
        {
          "duration": 0.11627906976744384,
          "durationTicks": 10,
          "midi": 83,
          "name": "B5",
          "ticks": 12848,
          "time": 149.3953488372093,
          "velocity": 0.1968503937007874
        },
        {
          "duration": 0.03488372093025305,
          "durationTicks": 3,
          "midi": 77,
          "name": "F5",
          "ticks": 12850,
          "time": 149.41860465116278,
          "velocity": 0.07874015748031496
        },
        {
          "duration": 0.03488372093025305,
          "durationTicks": 3,
          "midi": 81,
          "name": "A5",
          "ticks": 12851,
          "time": 149.43023255813952,
          "velocity": 0.07086614173228346
        },
        {
          "duration": 0.11627906976744384,
          "durationTicks": 10,
          "midi": 43,
          "name": "G2",
          "ticks": 12855,
          "time": 149.47674418604652,
          "velocity": 0.2755905511811024
        },
        {
          "duration": 0.4186046511628092,
          "durationTicks": 36,
          "midi": 69,
          "name": "A4",
          "ticks": 12860,
          "time": 149.53488372093022,
          "velocity": 0.3700787401574803
        },
        {
          "duration": 0.2906976744186238,
          "durationTicks": 25,
          "midi": 83,
          "name": "B5",
          "ticks": 12860,
          "time": 149.53488372093022,
          "velocity": 0.2125984251968504
        },
        {
          "duration": 0.2325581395348877,
          "durationTicks": 20,
          "midi": 65,
          "name": "F4",
          "ticks": 12861,
          "time": 149.54651162790697,
          "velocity": 0.31496062992125984
        },
        {
          "duration": 0.25581395348837077,
          "durationTicks": 22,
          "midi": 89,
          "name": "F6",
          "ticks": 12861,
          "time": 149.54651162790697,
          "velocity": 0.41732283464566927
        },
        {
          "duration": 0.24418604651162923,
          "durationTicks": 21,
          "midi": 62,
          "name": "D4",
          "ticks": 12862,
          "time": 149.5581395348837,
          "velocity": 0.30708661417322836
        },
        {
          "duration": 0.22093023255814614,
          "durationTicks": 19,
          "midi": 72,
          "name": "C5",
          "ticks": 12862,
          "time": 149.5581395348837,
          "velocity": 0.41732283464566927
        },
        {
          "duration": 0.09302325581396076,
          "durationTicks": 8,
          "midi": 91,
          "name": "G6",
          "ticks": 12862,
          "time": 149.5581395348837,
          "velocity": 0.11811023622047244
        },
        {
          "duration": 0.2674418604651123,
          "durationTicks": 23,
          "midi": 79,
          "name": "G5",
          "ticks": 12863,
          "time": 149.56976744186048,
          "velocity": 0.1732283464566929
        },
        {
          "duration": 0.05813953488370771,
          "durationTicks": 5,
          "midi": 67,
          "name": "G4",
          "ticks": 12865,
          "time": 149.59302325581396,
          "velocity": 0.31496062992125984
        },
        {
          "duration": 0.16279069767441,
          "durationTicks": 14,
          "midi": 43,
          "name": "G2",
          "ticks": 12866,
          "time": 149.6046511627907,
          "velocity": 0.2204724409448819
        },
        {
          "duration": 0.12790697674418539,
          "durationTicks": 11,
          "midi": 93,
          "name": "A6",
          "ticks": 12870,
          "time": 149.65116279069767,
          "velocity": 0.1968503937007874
        },
        {
          "duration": 0.034883720930224626,
          "durationTicks": 3,
          "midi": 42,
          "name": "F#2",
          "ticks": 12880,
          "time": 149.7674418604651,
          "velocity": 0.14173228346456693
        },
        {
          "duration": 0.45348837209303383,
          "durationTicks": 39,
          "midi": 72,
          "name": "C5",
          "ticks": 12883,
          "time": 149.80232558139534,
          "velocity": 0.4409448818897638
        },
        {
          "duration": 0.5813953488371908,
          "durationTicks": 50,
          "midi": 65,
          "name": "F4",
          "ticks": 12884,
          "time": 149.8139534883721,
          "velocity": 0.3464566929133858
        },
        {
          "duration": 0.0813953488371908,
          "durationTicks": 7,
          "midi": 87,
          "name": "D#6",
          "ticks": 12885,
          "time": 149.82558139534885,
          "velocity": 0.14960629921259844
        },
        {
          "duration": 0.16279069767441,
          "durationTicks": 14,
          "midi": 41,
          "name": "F2",
          "ticks": 12886,
          "time": 149.8372093023256,
          "velocity": 0.12598425196850394
        },
        {
          "duration": 0.04651162790696617,
          "durationTicks": 4,
          "midi": 83,
          "name": "B5",
          "ticks": 12886,
          "time": 149.8372093023256,
          "velocity": 0.14173228346456693
        },
        {
          "duration": 0.17441860465115155,
          "durationTicks": 15,
          "midi": 53,
          "name": "F3",
          "ticks": 12887,
          "time": 149.84883720930233,
          "velocity": 0.2204724409448819
        },
        {
          "duration": 0.03488372093025305,
          "durationTicks": 3,
          "midi": 83,
          "name": "B5",
          "ticks": 12892,
          "time": 149.90697674418604,
          "velocity": 0.10236220472440945
        },
        {
          "duration": 0.0813953488371908,
          "durationTicks": 7,
          "midi": 87,
          "name": "D#6",
          "ticks": 12895,
          "time": 149.9418604651163,
          "velocity": 0.11811023622047244
        },
        {
          "duration": 0.4186046511627808,
          "durationTicks": 36,
          "midi": 69,
          "name": "A4",
          "ticks": 12900,
          "time": 150,
          "velocity": 0.33858267716535434
        },
        {
          "duration": 0.04651162790696617,
          "durationTicks": 4,
          "midi": 44,
          "name": "G#2",
          "ticks": 12901,
          "time": 150.01162790697674,
          "velocity": 0.2283464566929134
        },
        {
          "duration": 0.25581395348837077,
          "durationTicks": 22,
          "midi": 62,
          "name": "D4",
          "ticks": 12901,
          "time": 150.01162790697674,
          "velocity": 0.30708661417322836
        },
        {
          "duration": 0.45348837209303383,
          "durationTicks": 39,
          "midi": 79,
          "name": "G5",
          "ticks": 12901,
          "time": 150.01162790697674,
          "velocity": 0.3858267716535433
        },
        {
          "duration": 0.3604651162790731,
          "durationTicks": 31,
          "midi": 88,
          "name": "E6",
          "ticks": 12901,
          "time": 150.01162790697674,
          "velocity": 0.3228346456692913
        },
        {
          "duration": 0.04651162790696617,
          "durationTicks": 4,
          "midi": 98,
          "name": "D7",
          "ticks": 12901,
          "time": 150.01162790697674,
          "velocity": 0.11811023622047244
        },
        {
          "duration": 0.8953488372092977,
          "durationTicks": 77,
          "midi": 74,
          "name": "D5",
          "ticks": 12902,
          "time": 150.02325581395348,
          "velocity": 0.41732283464566927
        },
        {
          "duration": 0.25581395348837077,
          "durationTicks": 22,
          "midi": 83,
          "name": "B5",
          "ticks": 12903,
          "time": 150.03488372093022,
          "velocity": 0.14173228346456693
        },
        {
          "duration": 0.19767441860466306,
          "durationTicks": 17,
          "midi": 55,
          "name": "G3",
          "ticks": 12904,
          "time": 150.04651162790697,
          "velocity": 0.1732283464566929
        },
        {
          "duration": 0.03488372093025305,
          "durationTicks": 3,
          "midi": 67,
          "name": "G4",
          "ticks": 12904,
          "time": 150.04651162790697,
          "velocity": 0.33070866141732286
        },
        {
          "duration": 0.03488372093025305,
          "durationTicks": 3,
          "midi": 43,
          "name": "G2",
          "ticks": 12905,
          "time": 150.0581395348837,
          "velocity": 0.2047244094488189
        },
        {
          "duration": 0.023255813953483084,
          "durationTicks": 2,
          "midi": 67,
          "name": "G4",
          "ticks": 12908,
          "time": 150.09302325581396,
          "velocity": 0.28346456692913385
        },
        {
          "duration": 0.11627906976744384,
          "durationTicks": 10,
          "midi": 43,
          "name": "G2",
          "ticks": 12910,
          "time": 150.11627906976744,
          "velocity": 0.12598425196850394
        },
        {
          "duration": 0.034883720930224626,
          "durationTicks": 3,
          "midi": 42,
          "name": "F#2",
          "ticks": 12920,
          "time": 150.2325581395349,
          "velocity": 0.1732283464566929
        },
        {
          "duration": 0.05813953488373613,
          "durationTicks": 5,
          "midi": 50,
          "name": "D3",
          "ticks": 12922,
          "time": 150.25581395348837,
          "velocity": 0.11811023622047244
        },
        {
          "duration": 0.2093023255814046,
          "durationTicks": 18,
          "midi": 43,
          "name": "G2",
          "ticks": 12923,
          "time": 150.2674418604651,
          "velocity": 0.2047244094488189
        },
        {
          "duration": 0.04651162790696617,
          "durationTicks": 4,
          "midi": 83,
          "name": "B5",
          "ticks": 12927,
          "time": 150.3139534883721,
          "velocity": 0.11811023622047244
        },
        {
          "duration": 0.12790697674418539,
          "durationTicks": 11,
          "midi": 50,
          "name": "D3",
          "ticks": 12928,
          "time": 150.32558139534885,
          "velocity": 0.11811023622047244
        },
        {
          "duration": 0.04651162790696617,
          "durationTicks": 4,
          "midi": 83,
          "name": "B5",
          "ticks": 12933,
          "time": 150.38372093023256,
          "velocity": 0.10236220472440945
        },
        {
          "duration": 0.05813953488373613,
          "durationTicks": 5,
          "midi": 85,
          "name": "C#6",
          "ticks": 12934,
          "time": 150.3953488372093,
          "velocity": 0.07086614173228346
        },
        {
          "duration": 0.05813953488370771,
          "durationTicks": 5,
          "midi": 69,
          "name": "A4",
          "ticks": 12939,
          "time": 150.45348837209303,
          "velocity": 0.3543307086614173
        },
        {
          "duration": 0.7093023255813762,
          "durationTicks": 61,
          "midi": 72,
          "name": "C5",
          "ticks": 12939,
          "time": 150.45348837209303,
          "velocity": 0.44881889763779526
        },
        {
          "duration": 0.9534883720930054,
          "durationTicks": 82,
          "midi": 77,
          "name": "F5",
          "ticks": 12939,
          "time": 150.45348837209303,
          "velocity": 0.3937007874015748
        },
        {
          "duration": 0.034883720930224626,
          "durationTicks": 3,
          "midi": 50,
          "name": "D3",
          "ticks": 12940,
          "time": 150.46511627906978,
          "velocity": 0.1732283464566929
        },
        {
          "duration": 0.2674418604651123,
          "durationTicks": 23,
          "midi": 62,
          "name": "D4",
          "ticks": 12940,
          "time": 150.46511627906978,
          "velocity": 0.29133858267716534
        },
        {
          "duration": 0.09302325581393234,
          "durationTicks": 8,
          "midi": 91,
          "name": "G6",
          "ticks": 12940,
          "time": 150.46511627906978,
          "velocity": 0.11023622047244094
        },
        {
          "duration": 0.09302325581396076,
          "durationTicks": 8,
          "midi": 65,
          "name": "F4",
          "ticks": 12941,
          "time": 150.47674418604652,
          "velocity": 0.3228346456692913
        },
        {
          "duration": 0.2674418604651123,
          "durationTicks": 23,
          "midi": 79,
          "name": "G5",
          "ticks": 12941,
          "time": 150.47674418604652,
          "velocity": 0.18110236220472442
        },
        {
          "duration": 0.1860465116278931,
          "durationTicks": 16,
          "midi": 67,
          "name": "G4",
          "ticks": 12943,
          "time": 150.5,
          "velocity": 0.3937007874015748
        },
        {
          "duration": 0.05813953488373613,
          "durationTicks": 5,
          "midi": 50,
          "name": "D3",
          "ticks": 12944,
          "time": 150.51162790697674,
          "velocity": 0.13385826771653545
        },
        {
          "duration": 0.26744186046514073,
          "durationTicks": 23,
          "midi": 69,
          "name": "A4",
          "ticks": 12947,
          "time": 150.54651162790697,
          "velocity": 0.33858267716535434
        },
        {
          "duration": 0.11627906976741542,
          "durationTicks": 10,
          "midi": 38,
          "name": "D2",
          "ticks": 12949,
          "time": 150.56976744186048,
          "velocity": 0.1732283464566929
        },
        {
          "duration": 0.12790697674418539,
          "durationTicks": 11,
          "midi": 57,
          "name": "A3",
          "ticks": 12949,
          "time": 150.56976744186048,
          "velocity": 0.08661417322834646
        },
        {
          "duration": 0.11627906976744384,
          "durationTicks": 10,
          "midi": 65,
          "name": "F4",
          "ticks": 12958,
          "time": 150.67441860465115,
          "velocity": 0.25196850393700787
        },
        {
          "duration": 0.04651162790696617,
          "durationTicks": 4,
          "midi": 88,
          "name": "E6",
          "ticks": 12960,
          "time": 150.69767441860466,
          "velocity": 0.12598425196850394
        },
        {
          "duration": 0.023255813953483084,
          "durationTicks": 2,
          "midi": 47,
          "name": "B2",
          "ticks": 12961,
          "time": 150.7093023255814,
          "velocity": 0.2283464566929134
        },
        {
          "duration": 0.1860465116278931,
          "durationTicks": 16,
          "midi": 83,
          "name": "B5",
          "ticks": 12961,
          "time": 150.7093023255814,
          "velocity": 0.10236220472440945
        },
        {
          "duration": 0.034883720930224626,
          "durationTicks": 3,
          "midi": 48,
          "name": "C3",
          "ticks": 12963,
          "time": 150.7325581395349,
          "velocity": 0.2047244094488189
        },
        {
          "duration": 0.05813953488373613,
          "durationTicks": 5,
          "midi": 53,
          "name": "F3",
          "ticks": 12966,
          "time": 150.7674418604651,
          "velocity": 0.16535433070866143
        },
        {
          "duration": 0.04651162790699459,
          "durationTicks": 4,
          "midi": 88,
          "name": "E6",
          "ticks": 12966,
          "time": 150.7674418604651,
          "velocity": 0.10236220472440945
        },
        {
          "duration": 0.13953488372092693,
          "durationTicks": 12,
          "midi": 48,
          "name": "C3",
          "ticks": 12967,
          "time": 150.77906976744185,
          "velocity": 0.2047244094488189
        },
        {
          "duration": 0.13953488372092693,
          "durationTicks": 12,
          "midi": 67,
          "name": "G4",
          "ticks": 12967,
          "time": 150.77906976744185,
          "velocity": 0.1889763779527559
        },
        {
          "duration": 0.27906976744185386,
          "durationTicks": 24,
          "midi": 81,
          "name": "A5",
          "ticks": 12978,
          "time": 150.90697674418604,
          "velocity": 0.3464566929133858
        },
        {
          "duration": 0.06976744186047767,
          "durationTicks": 6,
          "midi": 69,
          "name": "A4",
          "ticks": 12979,
          "time": 150.91860465116278,
          "velocity": 0.33070866141732286
        },
        {
          "duration": 0.12790697674418539,
          "durationTicks": 11,
          "midi": 89,
          "name": "F6",
          "ticks": 12979,
          "time": 150.91860465116278,
          "velocity": 0.4251968503937008
        },
        {
          "duration": 0.34883720930233153,
          "durationTicks": 30,
          "midi": 62,
          "name": "D4",
          "ticks": 12980,
          "time": 150.93023255813952,
          "velocity": 0.30708661417322836
        },
        {
          "duration": 0.023255813953511506,
          "durationTicks": 2,
          "midi": 65,
          "name": "F4",
          "ticks": 12980,
          "time": 150.93023255813952,
          "velocity": 0.31496062992125984
        },
        {
          "duration": 1.1279069767441854,
          "durationTicks": 97,
          "midi": 74,
          "name": "D5",
          "ticks": 12980,
          "time": 150.93023255813952,
          "velocity": 0.44881889763779526
        },
        {
          "duration": 0.6860465116279215,
          "durationTicks": 59,
          "midi": 79,
          "name": "G5",
          "ticks": 12980,
          "time": 150.93023255813952,
          "velocity": 0.41732283464566927
        },
        {
          "duration": 0.17441860465115155,
          "durationTicks": 15,
          "midi": 67,
          "name": "G4",
          "ticks": 12981,
          "time": 150.9418604651163,
          "velocity": 0.3779527559055118
        },
        {
          "duration": 0.19767441860463464,
          "durationTicks": 17,
          "midi": 88,
          "name": "E6",
          "ticks": 12983,
          "time": 150.96511627906978,
          "velocity": 0.11023622047244094
        },
        {
          "duration": 0.05813953488370771,
          "durationTicks": 5,
          "midi": 43,
          "name": "G2",
          "ticks": 12984,
          "time": 150.97674418604652,
          "velocity": 0.25196850393700787
        },
        {
          "duration": 0.15116279069766847,
          "durationTicks": 13,
          "midi": 50,
          "name": "D3",
          "ticks": 12985,
          "time": 150.98837209302326,
          "velocity": 0.2204724409448819
        },
        {
          "duration": 0.15116279069766847,
          "durationTicks": 13,
          "midi": 69,
          "name": "A4",
          "ticks": 12986,
          "time": 151,
          "velocity": 0.3228346456692913
        },
        {
          "duration": 0.03488372093025305,
          "durationTicks": 3,
          "midi": 43,
          "name": "G2",
          "ticks": 12990,
          "time": 151.04651162790697,
          "velocity": 0.08661417322834646
        },
        {
          "duration": 0.05813953488370771,
          "durationTicks": 5,
          "midi": 65,
          "name": "F4",
          "ticks": 12995,
          "time": 151.1046511627907,
          "velocity": 0.28346456692913385
        },
        {
          "duration": 0.3953488372092977,
          "durationTicks": 34,
          "midi": 67,
          "name": "G4",
          "ticks": 12997,
          "time": 151.12790697674419,
          "velocity": 0.3937007874015748
        },
        {
          "duration": 0.3953488372092977,
          "durationTicks": 34,
          "midi": 70,
          "name": "A#4",
          "ticks": 12998,
          "time": 151.13953488372093,
          "velocity": 0.44881889763779526
        },
        {
          "duration": 0.33720930232559,
          "durationTicks": 29,
          "midi": 58,
          "name": "A#3",
          "ticks": 12999,
          "time": 151.15116279069767,
          "velocity": 0.25196850393700787
        },
        {
          "duration": 0.03488372093025305,
          "durationTicks": 3,
          "midi": 95,
          "name": "B6",
          "ticks": 13000,
          "time": 151.1627906976744,
          "velocity": 0.07874015748031496
        },
        {
          "duration": 0.03488372093025305,
          "durationTicks": 3,
          "midi": 87,
          "name": "D#6",
          "ticks": 13001,
          "time": 151.17441860465115,
          "velocity": 0.10236220472440945
        },
        {
          "duration": 0.16279069767441,
          "durationTicks": 14,
          "midi": 53,
          "name": "F3",
          "ticks": 13004,
          "time": 151.2093023255814,
          "velocity": 0.25196850393700787
        },
        {
          "duration": 0.05813953488370771,
          "durationTicks": 5,
          "midi": 65,
          "name": "F4",
          "ticks": 13005,
          "time": 151.22093023255815,
          "velocity": 0.25984251968503935
        },
        {
          "duration": 0.034883720930224626,
          "durationTicks": 3,
          "midi": 84,
          "name": "C6",
          "ticks": 13005,
          "time": 151.22093023255815,
          "velocity": 0.08661417322834646
        },
        {
          "duration": 0.1860465116278931,
          "durationTicks": 16,
          "midi": 87,
          "name": "D#6",
          "ticks": 13005,
          "time": 151.22093023255815,
          "velocity": 0.11023622047244094
        },
        {
          "duration": 0.13953488372092693,
          "durationTicks": 12,
          "midi": 62,
          "name": "D4",
          "ticks": 13011,
          "time": 151.2906976744186,
          "velocity": 0.18110236220472442
        },
        {
          "duration": 0.034883720930224626,
          "durationTicks": 3,
          "midi": 45,
          "name": "A2",
          "ticks": 13013,
          "time": 151.3139534883721,
          "velocity": 0.09448818897637795
        },
        {
          "duration": 0.034883720930224626,
          "durationTicks": 3,
          "midi": 65,
          "name": "F4",
          "ticks": 13013,
          "time": 151.3139534883721,
          "velocity": 0.25196850393700787
        },
        {
          "duration": 0.2906976744185954,
          "durationTicks": 25,
          "midi": 84,
          "name": "C6",
          "ticks": 13017,
          "time": 151.36046511627907,
          "velocity": 0.33858267716535434
        },
        {
          "duration": 0.4767441860465169,
          "durationTicks": 41,
          "midi": 88,
          "name": "E6",
          "ticks": 13018,
          "time": 151.37209302325581,
          "velocity": 0.33070866141732286
        },
        {
          "duration": 0.09302325581396076,
          "durationTicks": 8,
          "midi": 65,
          "name": "F4",
          "ticks": 13019,
          "time": 151.38372093023256,
          "velocity": 0.1889763779527559
        },
        {
          "duration": 0.023255813953483084,
          "durationTicks": 2,
          "midi": 49,
          "name": "C#3",
          "ticks": 13037,
          "time": 151.59302325581396,
          "velocity": 0.25984251968503935
        },
        {
          "duration": 0.023255813953483084,
          "durationTicks": 2,
          "midi": 64,
          "name": "E4",
          "ticks": 13037,
          "time": 151.59302325581396,
          "velocity": 0.2677165354330709
        },
        {
          "duration": 0.32558139534882,
          "durationTicks": 28,
          "midi": 70,
          "name": "A#4",
          "ticks": 13038,
          "time": 151.6046511627907,
          "velocity": 0.4251968503937008
        },
        {
          "duration": 0.2674418604651123,
          "durationTicks": 23,
          "midi": 77,
          "name": "F5",
          "ticks": 13038,
          "time": 151.6046511627907,
          "velocity": 0.3858267716535433
        },
        {
          "duration": 0.2325581395348877,
          "durationTicks": 20,
          "midi": 81,
          "name": "A5",
          "ticks": 13038,
          "time": 151.6046511627907,
          "velocity": 0.2992125984251969
        },
        {
          "duration": 0.2906976744185954,
          "durationTicks": 25,
          "midi": 58,
          "name": "A#3",
          "ticks": 13039,
          "time": 151.61627906976744,
          "velocity": 0.1968503937007874
        },
        {
          "duration": 0.24418604651162923,
          "durationTicks": 21,
          "midi": 62,
          "name": "D4",
          "ticks": 13039,
          "time": 151.61627906976744,
          "velocity": 0.33858267716535434
        },
        {
          "duration": 0.034883720930224626,
          "durationTicks": 3,
          "midi": 80,
          "name": "G#5",
          "ticks": 13039,
          "time": 151.61627906976744,
          "velocity": 0.13385826771653545
        },
        {
          "duration": 0.22093023255814614,
          "durationTicks": 19,
          "midi": 67,
          "name": "G4",
          "ticks": 13040,
          "time": 151.62790697674419,
          "velocity": 0.3779527559055118
        },
        {
          "duration": 0.034883720930224626,
          "durationTicks": 3,
          "midi": 94,
          "name": "A#6",
          "ticks": 13040,
          "time": 151.62790697674419,
          "velocity": 0.07086614173228346
        },
        {
          "duration": 0.09302325581396076,
          "durationTicks": 8,
          "midi": 87,
          "name": "D#6",
          "ticks": 13049,
          "time": 151.7325581395349,
          "velocity": 0.08661417322834646
        },
        {
          "duration": 0.2906976744185954,
          "durationTicks": 25,
          "midi": 65,
          "name": "F4",
          "ticks": 13052,
          "time": 151.7674418604651,
          "velocity": 0.2992125984251969
        },
        {
          "duration": 0.32558139534882,
          "durationTicks": 28,
          "midi": 89,
          "name": "F6",
          "ticks": 13057,
          "time": 151.82558139534885,
          "velocity": 0.4330708661417323
        },
        {
          "duration": 0.5465116279069662,
          "durationTicks": 47,
          "midi": 81,
          "name": "A5",
          "ticks": 13059,
          "time": 151.84883720930233,
          "velocity": 0.25196850393700787
        },
        {
          "duration": 0.05813953488370771,
          "durationTicks": 5,
          "midi": 50,
          "name": "D3",
          "ticks": 13060,
          "time": 151.86046511627907,
          "velocity": 0.14960629921259844
        },
        {
          "duration": 0.04651162790696617,
          "durationTicks": 4,
          "midi": 70,
          "name": "A#4",
          "ticks": 13067,
          "time": 151.9418604651163,
          "velocity": 0.07874015748031496
        },
        {
          "duration": 0.03488372093025305,
          "durationTicks": 3,
          "midi": 44,
          "name": "G#2",
          "ticks": 13077,
          "time": 152.0581395348837,
          "velocity": 0.33070866141732286
        },
        {
          "duration": 0.24418604651162923,
          "durationTicks": 21,
          "midi": 61,
          "name": "C#4",
          "ticks": 13077,
          "time": 152.0581395348837,
          "velocity": 0.4015748031496063
        },
        {
          "duration": 0.3604651162790731,
          "durationTicks": 31,
          "midi": 64,
          "name": "E4",
          "ticks": 13077,
          "time": 152.0581395348837,
          "velocity": 0.41732283464566927
        },
        {
          "duration": 0.40697674418606766,
          "durationTicks": 35,
          "midi": 69,
          "name": "A4",
          "ticks": 13077,
          "time": 152.0581395348837,
          "velocity": 0.3464566929133858
        },
        {
          "duration": 0.034883720930224626,
          "durationTicks": 3,
          "midi": 80,
          "name": "G#5",
          "ticks": 13078,
          "time": 152.06976744186048,
          "velocity": 0.07874015748031496
        },
        {
          "duration": 0.05813953488370771,
          "durationTicks": 5,
          "midi": 83,
          "name": "B5",
          "ticks": 13078,
          "time": 152.06976744186048,
          "velocity": 0.25196850393700787
        },
        {
          "duration": 0.06976744186044925,
          "durationTicks": 6,
          "midi": 71,
          "name": "B4",
          "ticks": 13079,
          "time": 152.08139534883722,
          "velocity": 0.2125984251968504
        },
        {
          "duration": 0.023255813953483084,
          "durationTicks": 2,
          "midi": 45,
          "name": "A2",
          "ticks": 13080,
          "time": 152.09302325581396,
          "velocity": 0.31496062992125984
        },
        {
          "duration": 0.11627906976744384,
          "durationTicks": 10,
          "midi": 52,
          "name": "E3",
          "ticks": 13080,
          "time": 152.09302325581396,
          "velocity": 0.25984251968503935
        },
        {
          "duration": 0.04651162790696617,
          "durationTicks": 4,
          "midi": 92,
          "name": "G#6",
          "ticks": 13080,
          "time": 152.09302325581396,
          "velocity": 0.07874015748031496
        },
        {
          "duration": 0.2093023255814046,
          "durationTicks": 18,
          "midi": 57,
          "name": "A3",
          "ticks": 13082,
          "time": 152.11627906976744,
          "velocity": 0.2992125984251969
        },
        {
          "duration": 0.034883720930224626,
          "durationTicks": 3,
          "midi": 87,
          "name": "D#6",
          "ticks": 13082,
          "time": 152.11627906976744,
          "velocity": 0.07874015748031496
        },
        {
          "duration": 0.034883720930224626,
          "durationTicks": 3,
          "midi": 45,
          "name": "A2",
          "ticks": 13083,
          "time": 152.12790697674419,
          "velocity": 0.3228346456692913
        },
        {
          "duration": 0.04651162790699459,
          "durationTicks": 4,
          "midi": 67,
          "name": "G4",
          "ticks": 13085,
          "time": 152.15116279069767,
          "velocity": 0.25196850393700787
        },
        {
          "duration": 0.18604651162792152,
          "durationTicks": 16,
          "midi": 83,
          "name": "B5",
          "ticks": 13085,
          "time": 152.15116279069767,
          "velocity": 0.2283464566929134
        },
        {
          "duration": 0.05813953488373613,
          "durationTicks": 5,
          "midi": 86,
          "name": "D6",
          "ticks": 13085,
          "time": 152.15116279069767,
          "velocity": 0.14173228346456693
        },
        {
          "duration": 0.023255813953511506,
          "durationTicks": 2,
          "midi": 45,
          "name": "A2",
          "ticks": 13087,
          "time": 152.17441860465115,
          "velocity": 0.28346456692913385
        },
        {
          "duration": 0.05813953488370771,
          "durationTicks": 5,
          "midi": 45,
          "name": "A2",
          "ticks": 13090,
          "time": 152.2093023255814,
          "velocity": 0.28346456692913385
        },
        {
          "duration": 0.034883720930224626,
          "durationTicks": 3,
          "midi": 89,
          "name": "F6",
          "ticks": 13090,
          "time": 152.2093023255814,
          "velocity": 0.08661417322834646
        },
        {
          "duration": 0.1046511627907023,
          "durationTicks": 9,
          "midi": 71,
          "name": "B4",
          "ticks": 13092,
          "time": 152.2325581395349,
          "velocity": 0.1889763779527559
        },
        {
          "duration": 0.023255813953483084,
          "durationTicks": 2,
          "midi": 45,
          "name": "A2",
          "ticks": 13096,
          "time": 152.27906976744185,
          "velocity": 0.2440944881889764
        },
        {
          "duration": 0.023255813953511506,
          "durationTicks": 2,
          "midi": 44,
          "name": "G#2",
          "ticks": 13098,
          "time": 152.30232558139534,
          "velocity": 0.2440944881889764
        },
        {
          "duration": 0.04651162790696617,
          "durationTicks": 4,
          "midi": 52,
          "name": "E3",
          "ticks": 13101,
          "time": 152.3372093023256,
          "velocity": 0.09448818897637795
        },
        {
          "duration": 0.8255813953488484,
          "durationTicks": 71,
          "midi": 69,
          "name": "A4",
          "ticks": 13115,
          "time": 152.5,
          "velocity": 0.3700787401574803
        },
        {
          "duration": 0.2325581395348877,
          "durationTicks": 20,
          "midi": 61,
          "name": "C#4",
          "ticks": 13116,
          "time": 152.51162790697674,
          "velocity": 0.3464566929133858
        },
        {
          "duration": 0.023255813953483084,
          "durationTicks": 2,
          "midi": 65,
          "name": "F4",
          "ticks": 13116,
          "time": 152.51162790697674,
          "velocity": 0.28346456692913385
        },
        {
          "duration": 0.22093023255814614,
          "durationTicks": 19,
          "midi": 73,
          "name": "C#5",
          "ticks": 13116,
          "time": 152.51162790697674,
          "velocity": 0.44881889763779526
        },
        {
          "duration": 0.2325581395348877,
          "durationTicks": 20,
          "midi": 76,
          "name": "E5",
          "ticks": 13116,
          "time": 152.51162790697674,
          "velocity": 0.31496062992125984
        },
        {
          "duration": 0.15116279069766847,
          "durationTicks": 13,
          "midi": 83,
          "name": "B5",
          "ticks": 13116,
          "time": 152.51162790697674,
          "velocity": 0.2992125984251969
        },
        {
          "duration": 0.22093023255814614,
          "durationTicks": 19,
          "midi": 45,
          "name": "A2",
          "ticks": 13117,
          "time": 152.52325581395348,
          "velocity": 0.4251968503937008
        },
        {
          "duration": 0.18604651162792152,
          "durationTicks": 16,
          "midi": 71,
          "name": "B4",
          "ticks": 13117,
          "time": 152.52325581395348,
          "velocity": 0.2440944881889764
        },
        {
          "duration": 0.19767441860466306,
          "durationTicks": 17,
          "midi": 64,
          "name": "E4",
          "ticks": 13118,
          "time": 152.53488372093022,
          "velocity": 0.36220472440944884
        },
        {
          "duration": 0.04651162790699459,
          "durationTicks": 4,
          "midi": 86,
          "name": "D6",
          "ticks": 13118,
          "time": 152.53488372093022,
          "velocity": 0.1968503937007874
        },
        {
          "duration": 0.1046511627907023,
          "durationTicks": 9,
          "midi": 89,
          "name": "F6",
          "ticks": 13119,
          "time": 152.54651162790697,
          "velocity": 0.11811023622047244
        },
        {
          "duration": 0.04651162790696617,
          "durationTicks": 4,
          "midi": 67,
          "name": "G4",
          "ticks": 13121,
          "time": 152.56976744186048,
          "velocity": 0.23622047244094488
        },
        {
          "duration": 0.04651162790699459,
          "durationTicks": 4,
          "midi": 67,
          "name": "G4",
          "ticks": 13128,
          "time": 152.65116279069767,
          "velocity": 0.1732283464566929
        },
        {
          "duration": 0.2906976744185954,
          "durationTicks": 25,
          "midi": 74,
          "name": "D5",
          "ticks": 13135,
          "time": 152.7325581395349,
          "velocity": 0.3464566929133858
        },
        {
          "duration": 0.034883720930224626,
          "durationTicks": 3,
          "midi": 62,
          "name": "D4",
          "ticks": 13136,
          "time": 152.74418604651163,
          "velocity": 0.2283464566929134
        },
        {
          "duration": 0.034883720930224626,
          "durationTicks": 3,
          "midi": 72,
          "name": "C5",
          "ticks": 13136,
          "time": 152.74418604651163,
          "velocity": 0.2204724409448819
        },
        {
          "duration": 0.9302325581395223,
          "durationTicks": 80,
          "midi": 77,
          "name": "F5",
          "ticks": 13136,
          "time": 152.74418604651163,
          "velocity": 0.47244094488188976
        },
        {
          "duration": 0.034883720930224626,
          "durationTicks": 3,
          "midi": 83,
          "name": "B5",
          "ticks": 13136,
          "time": 152.74418604651163,
          "velocity": 0.10236220472440945
        },
        {
          "duration": 0.05813953488370771,
          "durationTicks": 5,
          "midi": 85,
          "name": "C#6",
          "ticks": 13136,
          "time": 152.74418604651163,
          "velocity": 0.14960629921259844
        },
        {
          "duration": 0.12790697674418539,
          "durationTicks": 11,
          "midi": 87,
          "name": "D#6",
          "ticks": 13136,
          "time": 152.74418604651163,
          "velocity": 0.11023622047244094
        },
        {
          "duration": 0.22093023255814614,
          "durationTicks": 19,
          "midi": 65,
          "name": "F4",
          "ticks": 13137,
          "time": 152.75581395348837,
          "velocity": 0.3700787401574803
        },
        {
          "duration": 0.04651162790696617,
          "durationTicks": 4,
          "midi": 91,
          "name": "G6",
          "ticks": 13137,
          "time": 152.75581395348837,
          "velocity": 0.10236220472440945
        },
        {
          "duration": 0.04651162790699459,
          "durationTicks": 4,
          "midi": 53,
          "name": "F3",
          "ticks": 13138,
          "time": 152.7674418604651,
          "velocity": 0.2755905511811024
        },
        {
          "duration": 0.17441860465117998,
          "durationTicks": 15,
          "midi": 45,
          "name": "A2",
          "ticks": 13140,
          "time": 152.7906976744186,
          "velocity": 0.33858267716535434
        },
        {
          "duration": 0.04651162790699459,
          "durationTicks": 4,
          "midi": 62,
          "name": "D4",
          "ticks": 13140,
          "time": 152.7906976744186,
          "velocity": 0.2677165354330709
        },
        {
          "duration": 0.05813953488373613,
          "durationTicks": 5,
          "midi": 72,
          "name": "C5",
          "ticks": 13141,
          "time": 152.80232558139534,
          "velocity": 0.16535433070866143
        },
        {
          "duration": 0.04651162790696617,
          "durationTicks": 4,
          "midi": 83,
          "name": "B5",
          "ticks": 13143,
          "time": 152.82558139534885,
          "velocity": 0.07874015748031496
        },
        {
          "duration": 0.034883720930224626,
          "durationTicks": 3,
          "midi": 85,
          "name": "C#6",
          "ticks": 13145,
          "time": 152.84883720930233,
          "velocity": 0.11023622047244094
        },
        {
          "duration": 0.04651162790696617,
          "durationTicks": 4,
          "midi": 62,
          "name": "D4",
          "ticks": 13148,
          "time": 152.88372093023256,
          "velocity": 0.10236220472440945
        },
        {
          "duration": 0.6860465116278931,
          "durationTicks": 59,
          "midi": 60,
          "name": "C4",
          "ticks": 13155,
          "time": 152.96511627906978,
          "velocity": 0.33858267716535434
        },
        {
          "duration": 0.17441860465115155,
          "durationTicks": 15,
          "midi": 72,
          "name": "C5",
          "ticks": 13155,
          "time": 152.96511627906978,
          "velocity": 0.3543307086614173
        },
        {
          "duration": 0.11627906976744384,
          "durationTicks": 10,
          "midi": 92,
          "name": "G#6",
          "ticks": 13156,
          "time": 152.97674418604652,
          "velocity": 0.14173228346456693
        },
        {
          "duration": 0.22093023255814614,
          "durationTicks": 19,
          "midi": 65,
          "name": "F4",
          "ticks": 13157,
          "time": 152.98837209302326,
          "velocity": 0.33070866141732286
        },
        {
          "duration": 0.05813953488373613,
          "durationTicks": 5,
          "midi": 88,
          "name": "E6",
          "ticks": 13160,
          "time": 153.02325581395348,
          "velocity": 0.11811023622047244
        },
        {
          "duration": 0.4534883720930054,
          "durationTicks": 39,
          "midi": 79,
          "name": "G5",
          "ticks": 13165,
          "time": 153.08139534883722,
          "velocity": 0.3858267716535433
        },
        {
          "duration": 0.05813953488370771,
          "durationTicks": 5,
          "midi": 88,
          "name": "E6",
          "ticks": 13167,
          "time": 153.1046511627907,
          "velocity": 0.11023622047244094
        },
        {
          "duration": 0.023255813953483084,
          "durationTicks": 2,
          "midi": 48,
          "name": "C3",
          "ticks": 13175,
          "time": 153.19767441860466,
          "velocity": 0.29133858267716534
        },
        {
          "duration": 0.04651162790696617,
          "durationTicks": 4,
          "midi": 83,
          "name": "B5",
          "ticks": 13175,
          "time": 153.19767441860466,
          "velocity": 0.15748031496062992
        },
        {
          "duration": 0.04651162790696617,
          "durationTicks": 4,
          "midi": 88,
          "name": "E6",
          "ticks": 13175,
          "time": 153.19767441860466,
          "velocity": 0.10236220472440945
        },
        {
          "duration": 0.0813953488371908,
          "durationTicks": 7,
          "midi": 92,
          "name": "G#6",
          "ticks": 13175,
          "time": 153.19767441860466,
          "velocity": 0.16535433070866143
        },
        {
          "duration": 0.12790697674418539,
          "durationTicks": 11,
          "midi": 64,
          "name": "E4",
          "ticks": 13176,
          "time": 153.2093023255814,
          "velocity": 0.3228346456692913
        },
        {
          "duration": 0.7325581395348877,
          "durationTicks": 63,
          "midi": 67,
          "name": "G4",
          "ticks": 13176,
          "time": 153.2093023255814,
          "velocity": 0.36220472440944884
        },
        {
          "duration": 0.32558139534882,
          "durationTicks": 28,
          "midi": 74,
          "name": "D5",
          "ticks": 13176,
          "time": 153.2093023255814,
          "velocity": 0.10236220472440945
        },
        {
          "duration": 0.13953488372092693,
          "durationTicks": 12,
          "midi": 86,
          "name": "D6",
          "ticks": 13176,
          "time": 153.2093023255814,
          "velocity": 0.11811023622047244
        },
        {
          "duration": 0.04651162790696617,
          "durationTicks": 4,
          "midi": 80,
          "name": "G#5",
          "ticks": 13177,
          "time": 153.22093023255815,
          "velocity": 0.25984251968503935
        },
        {
          "duration": 0.08139534883721922,
          "durationTicks": 7,
          "midi": 83,
          "name": "B5",
          "ticks": 13181,
          "time": 153.2674418604651,
          "velocity": 0.15748031496062992
        },
        {
          "duration": 0.04651162790699459,
          "durationTicks": 4,
          "midi": 88,
          "name": "E6",
          "ticks": 13182,
          "time": 153.27906976744185,
          "velocity": 0.11023622047244094
        },
        {
          "duration": 0.11627906976741542,
          "durationTicks": 10,
          "midi": 93,
          "name": "A6",
          "ticks": 13185,
          "time": 153.3139534883721,
          "velocity": 0.16535433070866143
        },
        {
          "duration": 0.10465116279067388,
          "durationTicks": 9,
          "midi": 48,
          "name": "C3",
          "ticks": 13186,
          "time": 153.32558139534885,
          "velocity": 0.2204724409448819
        },
        {
          "duration": 0.023255813953483084,
          "durationTicks": 2,
          "midi": 65,
          "name": "F4",
          "ticks": 13187,
          "time": 153.3372093023256,
          "velocity": 0.2755905511811024
        },
        {
          "duration": 0.1046511627907023,
          "durationTicks": 9,
          "midi": 81,
          "name": "A5",
          "ticks": 13187,
          "time": 153.3372093023256,
          "velocity": 0.2755905511811024
        },
        {
          "duration": 0.06976744186044925,
          "durationTicks": 6,
          "midi": 86,
          "name": "D6",
          "ticks": 13189,
          "time": 153.36046511627907,
          "velocity": 0.10236220472440945
        },
        {
          "duration": 0.06976744186047767,
          "durationTicks": 6,
          "midi": 83,
          "name": "B5",
          "ticks": 13190,
          "time": 153.37209302325581,
          "velocity": 0.15748031496062992
        },
        {
          "duration": 0.023255813953511506,
          "durationTicks": 2,
          "midi": 47,
          "name": "B2",
          "ticks": 13195,
          "time": 153.43023255813952,
          "velocity": 0.2440944881889764
        },
        {
          "duration": 0.34883720930233153,
          "durationTicks": 30,
          "midi": 82,
          "name": "A#5",
          "ticks": 13195,
          "time": 153.43023255813952,
          "velocity": 0.4251968503937008
        },
        {
          "duration": 0.023255813953483084,
          "durationTicks": 2,
          "midi": 65,
          "name": "F4",
          "ticks": 13196,
          "time": 153.4418604651163,
          "velocity": 0.25984251968503935
        },
        {
          "duration": 0.1860465116278931,
          "durationTicks": 16,
          "midi": 64,
          "name": "E4",
          "ticks": 13198,
          "time": 153.46511627906978,
          "velocity": 0.28346456692913385
        },
        {
          "duration": 0.04651162790696617,
          "durationTicks": 4,
          "midi": 81,
          "name": "A5",
          "ticks": 13198,
          "time": 153.46511627906978,
          "velocity": 0.2047244094488189
        },
        {
          "duration": 0.17441860465117998,
          "durationTicks": 15,
          "midi": 93,
          "name": "A6",
          "ticks": 13205,
          "time": 153.54651162790697,
          "velocity": 0.16535433070866143
        },
        {
          "duration": 0.09302325581396076,
          "durationTicks": 8,
          "midi": 81,
          "name": "A5",
          "ticks": 13206,
          "time": 153.5581395348837,
          "velocity": 0.2992125984251969
        },
        {
          "duration": 0.04651162790696617,
          "durationTicks": 4,
          "midi": 83,
          "name": "B5",
          "ticks": 13210,
          "time": 153.6046511627907,
          "velocity": 0.12598425196850394
        },
        {
          "duration": 0.034883720930224626,
          "durationTicks": 3,
          "midi": 52,
          "name": "E3",
          "ticks": 13213,
          "time": 153.63953488372093,
          "velocity": 0.1889763779527559
        },
        {
          "duration": 0.023255813953483084,
          "durationTicks": 2,
          "midi": 63,
          "name": "D#4",
          "ticks": 13214,
          "time": 153.65116279069767,
          "velocity": 0.2283464566929134
        },
        {
          "duration": 1.17441860465118,
          "durationTicks": 101,
          "midi": 74,
          "name": "D5",
          "ticks": 13214,
          "time": 153.65116279069767,
          "velocity": 0.2283464566929134
        },
        {
          "duration": 0.2906976744186238,
          "durationTicks": 25,
          "midi": 90,
          "name": "F#6",
          "ticks": 13214,
          "time": 153.65116279069767,
          "velocity": 0.12598425196850394
        },
        {
          "duration": 0.18604651162792152,
          "durationTicks": 16,
          "midi": 64,
          "name": "E4",
          "ticks": 13216,
          "time": 153.67441860465115,
          "velocity": 0.30708661417322836
        },
        {
          "duration": 0.08139534883721922,
          "durationTicks": 7,
          "midi": 72,
          "name": "C5",
          "ticks": 13216,
          "time": 153.67441860465115,
          "velocity": 0.08661417322834646
        },
        {
          "duration": 0.034883720930224626,
          "durationTicks": 3,
          "midi": 53,
          "name": "F3",
          "ticks": 13218,
          "time": 153.69767441860466,
          "velocity": 0.25984251968503935
        },
        {
          "duration": 0.11627906976744384,
          "durationTicks": 10,
          "midi": 77,
          "name": "F5",
          "ticks": 13218,
          "time": 153.69767441860466,
          "velocity": 0.14173228346456693
        },
        {
          "duration": 0.023255813953483084,
          "durationTicks": 2,
          "midi": 52,
          "name": "E3",
          "ticks": 13221,
          "time": 153.7325581395349,
          "velocity": 0.25984251968503935
        },
        {
          "duration": 0.24418604651162923,
          "durationTicks": 21,
          "midi": 83,
          "name": "B5",
          "ticks": 13221,
          "time": 153.7325581395349,
          "velocity": 0.41732283464566927
        },
        {
          "duration": 0.08139534883721922,
          "durationTicks": 7,
          "midi": 55,
          "name": "G3",
          "ticks": 13225,
          "time": 153.77906976744185,
          "velocity": 0.2204724409448819
        },
        {
          "duration": 0.09302325581396076,
          "durationTicks": 8,
          "midi": 82,
          "name": "A#5",
          "ticks": 13226,
          "time": 153.7906976744186,
          "velocity": 0.28346456692913385
        },
        {
          "duration": 0.5232558139534831,
          "durationTicks": 45,
          "midi": 81,
          "name": "A5",
          "ticks": 13231,
          "time": 153.84883720930233,
          "velocity": 0.33858267716535434
        },
        {
          "duration": 0.6976744186046631,
          "durationTicks": 60,
          "midi": 72,
          "name": "C5",
          "ticks": 13233,
          "time": 153.87209302325581,
          "velocity": 0.4881889763779528
        },
        {
          "duration": 0.5930232558139608,
          "durationTicks": 51,
          "midi": 77,
          "name": "F5",
          "ticks": 13233,
          "time": 153.87209302325581,
          "velocity": 0.4015748031496063
        },
        {
          "duration": 0.8953488372092977,
          "durationTicks": 77,
          "midi": 60,
          "name": "C4",
          "ticks": 13234,
          "time": 153.88372093023256,
          "velocity": 0.3543307086614173
        },
        {
          "duration": 0.32558139534884845,
          "durationTicks": 28,
          "midi": 69,
          "name": "A4",
          "ticks": 13234,
          "time": 153.88372093023256,
          "velocity": 0.3937007874015748
        },
        {
          "duration": 0.05813953488373613,
          "durationTicks": 5,
          "midi": 88,
          "name": "E6",
          "ticks": 13234,
          "time": 153.88372093023256,
          "velocity": 0.13385826771653545
        },
        {
          "duration": 0.11627906976744384,
          "durationTicks": 10,
          "midi": 91,
          "name": "G6",
          "ticks": 13236,
          "time": 153.90697674418604,
          "velocity": 0.11023622047244094
        },
        {
          "duration": 0.06976744186047767,
          "durationTicks": 6,
          "midi": 55,
          "name": "G3",
          "ticks": 13237,
          "time": 153.91860465116278,
          "velocity": 0.2204724409448819
        },
        {
          "duration": 0.06976744186044925,
          "durationTicks": 6,
          "midi": 67,
          "name": "G4",
          "ticks": 13240,
          "time": 153.95348837209303,
          "velocity": 0.31496062992125984
        },
        {
          "duration": 0.023255813953483084,
          "durationTicks": 2,
          "midi": 65,
          "name": "F4",
          "ticks": 13241,
          "time": 153.96511627906978,
          "velocity": 0.33070866141732286
        },
        {
          "duration": 0.04651162790696617,
          "durationTicks": 4,
          "midi": 88,
          "name": "E6",
          "ticks": 13241,
          "time": 153.96511627906978,
          "velocity": 0.13385826771653545
        },
        {
          "duration": 0.034883720930224626,
          "durationTicks": 3,
          "midi": 90,
          "name": "F#6",
          "ticks": 13241,
          "time": 153.96511627906978,
          "velocity": 0.09448818897637795
        },
        {
          "duration": 0.17441860465115155,
          "durationTicks": 15,
          "midi": 83,
          "name": "B5",
          "ticks": 13243,
          "time": 153.98837209302326,
          "velocity": 0.36220472440944884
        },
        {
          "duration": 0.1046511627907023,
          "durationTicks": 9,
          "midi": 55,
          "name": "G3",
          "ticks": 13245,
          "time": 154.01162790697674,
          "velocity": 0.2125984251968504
        },
        {
          "duration": 0.034883720930224626,
          "durationTicks": 3,
          "midi": 65,
          "name": "F4",
          "ticks": 13245,
          "time": 154.01162790697674,
          "velocity": 0.33858267716535434
        },
        {
          "duration": 0.03488372093025305,
          "durationTicks": 3,
          "midi": 90,
          "name": "F#6",
          "ticks": 13247,
          "time": 154.03488372093022,
          "velocity": 0.09448818897637795
        },
        {
          "duration": 0.04651162790699459,
          "durationTicks": 4,
          "midi": 88,
          "name": "E6",
          "ticks": 13248,
          "time": 154.04651162790697,
          "velocity": 0.12598425196850394
        },
        {
          "duration": 0.05813953488373613,
          "durationTicks": 5,
          "midi": 65,
          "name": "F4",
          "ticks": 13249,
          "time": 154.0581395348837,
          "velocity": 0.3228346456692913
        },
        {
          "duration": 0.7441860465116292,
          "durationTicks": 64,
          "midi": 67,
          "name": "G4",
          "ticks": 13249,
          "time": 154.0581395348837,
          "velocity": 0.3858267716535433
        },
        {
          "duration": 0.0813953488371908,
          "durationTicks": 7,
          "midi": 48,
          "name": "C3",
          "ticks": 13253,
          "time": 154.1046511627907,
          "velocity": 0.2992125984251969
        },
        {
          "duration": 0.2325581395348877,
          "durationTicks": 20,
          "midi": 90,
          "name": "F#6",
          "ticks": 13253,
          "time": 154.1046511627907,
          "velocity": 0.1732283464566929
        },
        {
          "duration": 0.04651162790696617,
          "durationTicks": 4,
          "midi": 55,
          "name": "G3",
          "ticks": 13255,
          "time": 154.12790697674419,
          "velocity": 0.30708661417322836
        },
        {
          "duration": 0.034883720930224626,
          "durationTicks": 3,
          "midi": 88,
          "name": "E6",
          "ticks": 13255,
          "time": 154.12790697674419,
          "velocity": 0.11023622047244094
        },
        {
          "duration": 0.023255813953483084,
          "durationTicks": 2,
          "midi": 65,
          "name": "F4",
          "ticks": 13256,
          "time": 154.13953488372093,
          "velocity": 0.3464566929133858
        },
        {
          "duration": 0.1511627906976969,
          "durationTicks": 13,
          "midi": 55,
          "name": "G3",
          "ticks": 13260,
          "time": 154.1860465116279,
          "velocity": 0.28346456692913385
        },
        {
          "duration": 0.05813953488373613,
          "durationTicks": 5,
          "midi": 64,
          "name": "E4",
          "ticks": 13260,
          "time": 154.1860465116279,
          "velocity": 0.30708661417322836
        },
        {
          "duration": 0.17441860465117998,
          "durationTicks": 15,
          "midi": 83,
          "name": "B5",
          "ticks": 13260,
          "time": 154.1860465116279,
          "velocity": 0.2125984251968504
        },
        {
          "duration": 0.05813953488370771,
          "durationTicks": 5,
          "midi": 88,
          "name": "E6",
          "ticks": 13261,
          "time": 154.19767441860466,
          "velocity": 0.09448818897637795
        },
        {
          "duration": 0.12790697674418539,
          "durationTicks": 11,
          "midi": 48,
          "name": "C3",
          "ticks": 13262,
          "time": 154.2093023255814,
          "velocity": 0.2440944881889764
        },
        {
          "duration": 0.034883720930224626,
          "durationTicks": 3,
          "midi": 82,
          "name": "A#5",
          "ticks": 13262,
          "time": 154.2093023255814,
          "velocity": 0.16535433070866143
        },
        {
          "duration": 0.3604651162790731,
          "durationTicks": 31,
          "midi": 85,
          "name": "C#6",
          "ticks": 13262,
          "time": 154.2093023255814,
          "velocity": 0.33070866141732286
        },
        {
          "duration": 0.05813953488373613,
          "durationTicks": 5,
          "midi": 88,
          "name": "E6",
          "ticks": 13269,
          "time": 154.2906976744186,
          "velocity": 0.08661417322834646
        },
        {
          "duration": 0.4186046511627808,
          "durationTicks": 36,
          "midi": 86,
          "name": "D6",
          "ticks": 13272,
          "time": 154.32558139534885,
          "velocity": 0.3700787401574803
        },
        {
          "duration": 0.023255813953483084,
          "durationTicks": 2,
          "midi": 49,
          "name": "C#3",
          "ticks": 13273,
          "time": 154.3372093023256,
          "velocity": 0.2283464566929134
        },
        {
          "duration": 0.05813953488370771,
          "durationTicks": 5,
          "midi": 48,
          "name": "C3",
          "ticks": 13275,
          "time": 154.36046511627907,
          "velocity": 0.25196850393700787
        },
        {
          "duration": 0.09302325581396076,
          "durationTicks": 8,
          "midi": 90,
          "name": "F#6",
          "ticks": 13275,
          "time": 154.36046511627907,
          "velocity": 0.08661417322834646
        },
        {
          "duration": 0.06976744186047767,
          "durationTicks": 6,
          "midi": 82,
          "name": "A#5",
          "ticks": 13276,
          "time": 154.37209302325581,
          "velocity": 0.08661417322834646
        },
        {
          "duration": 0.1046511627907023,
          "durationTicks": 9,
          "midi": 83,
          "name": "B5",
          "ticks": 13277,
          "time": 154.38372093023256,
          "velocity": 0.2440944881889764
        },
        {
          "duration": 0.06976744186047767,
          "durationTicks": 6,
          "midi": 88,
          "name": "E6",
          "ticks": 13278,
          "time": 154.3953488372093,
          "velocity": 0.07086614173228346
        },
        {
          "duration": 0.2093023255814046,
          "durationTicks": 18,
          "midi": 48,
          "name": "C3",
          "ticks": 13281,
          "time": 154.43023255813952,
          "velocity": 0.33858267716535434
        },
        {
          "duration": 0.034883720930224626,
          "durationTicks": 3,
          "midi": 81,
          "name": "A5",
          "ticks": 13282,
          "time": 154.4418604651163,
          "velocity": 0.09448818897637795
        },
        {
          "duration": 0.9883720930232585,
          "durationTicks": 85,
          "midi": 76,
          "name": "E5",
          "ticks": 13284,
          "time": 154.46511627906978,
          "velocity": 0.33858267716535434
        },
        {
          "duration": 0.11627906976744384,
          "durationTicks": 10,
          "midi": 55,
          "name": "G3",
          "ticks": 13286,
          "time": 154.48837209302326,
          "velocity": 0.23622047244094488
        },
        {
          "duration": 0.04651162790696617,
          "durationTicks": 4,
          "midi": 64,
          "name": "E4",
          "ticks": 13286,
          "time": 154.48837209302326,
          "velocity": 0.2047244094488189
        },
        {
          "duration": 0.08139534883721922,
          "durationTicks": 7,
          "midi": 83,
          "name": "B5",
          "ticks": 13288,
          "time": 154.51162790697674,
          "velocity": 0.1889763779527559
        },
        {
          "duration": 0.9302325581395507,
          "durationTicks": 80,
          "midi": 64,
          "name": "E4",
          "ticks": 13291,
          "time": 154.54651162790697,
          "velocity": 0.36220472440944884
        },
        {
          "duration": 0.2325581395348877,
          "durationTicks": 20,
          "midi": 90,
          "name": "F#6",
          "ticks": 13292,
          "time": 154.5581395348837,
          "velocity": 0.11811023622047244
        },
        {
          "duration": 0.0813953488371908,
          "durationTicks": 7,
          "midi": 85,
          "name": "C#6",
          "ticks": 13294,
          "time": 154.58139534883722,
          "velocity": 0.1968503937007874
        },
        {
          "duration": 0.05813953488370771,
          "durationTicks": 5,
          "midi": 83,
          "name": "B5",
          "ticks": 13297,
          "time": 154.61627906976744,
          "velocity": 0.11811023622047244
        },
        {
          "duration": 0.17441860465117998,
          "durationTicks": 15,
          "midi": 87,
          "name": "D#6",
          "ticks": 13302,
          "time": 154.67441860465115,
          "velocity": 0.3464566929133858
        },
        {
          "duration": 0.1046511627907023,
          "durationTicks": 9,
          "midi": 48,
          "name": "C3",
          "ticks": 13303,
          "time": 154.6860465116279,
          "velocity": 0.25984251968503935
        },
        {
          "duration": 0.1046511627907023,
          "durationTicks": 9,
          "midi": 85,
          "name": "C#6",
          "ticks": 13303,
          "time": 154.6860465116279,
          "velocity": 0.10236220472440945
        },
        {
          "duration": 0.16279069767441,
          "durationTicks": 14,
          "midi": 55,
          "name": "G3",
          "ticks": 13305,
          "time": 154.7093023255814,
          "velocity": 0.2440944881889764
        },
        {
          "duration": 0.06976744186044925,
          "durationTicks": 6,
          "midi": 83,
          "name": "B5",
          "ticks": 13305,
          "time": 154.7093023255814,
          "velocity": 0.12598425196850394
        },
        {
          "duration": 0.4418604651162923,
          "durationTicks": 38,
          "midi": 72,
          "name": "C5",
          "ticks": 13311,
          "time": 154.77906976744185,
          "velocity": 0.4251968503937008
        },
        {
          "duration": 0.8953488372092977,
          "durationTicks": 77,
          "midi": 60,
          "name": "C4",
          "ticks": 13312,
          "time": 154.7906976744186,
          "velocity": 0.3543307086614173
        },
        {
          "duration": 0.6046511627907023,
          "durationTicks": 52,
          "midi": 79,
          "name": "G5",
          "ticks": 13312,
          "time": 154.7906976744186,
          "velocity": 0.4015748031496063
        },
        {
          "duration": 0.43023255813955075,
          "durationTicks": 37,
          "midi": 88,
          "name": "E6",
          "ticks": 13312,
          "time": 154.7906976744186,
          "velocity": 0.4251968503937008
        },
        {
          "duration": 0.08139534883721922,
          "durationTicks": 7,
          "midi": 82,
          "name": "A#5",
          "ticks": 13313,
          "time": 154.80232558139534,
          "velocity": 0.11811023622047244
        },
        {
          "duration": 0.22093023255811772,
          "durationTicks": 19,
          "midi": 67,
          "name": "G4",
          "ticks": 13314,
          "time": 154.8139534883721,
          "velocity": 0.3543307086614173
        },
        {
          "duration": 0.17441860465115155,
          "durationTicks": 15,
          "midi": 83,
          "name": "B5",
          "ticks": 13314,
          "time": 154.8139534883721,
          "velocity": 0.1968503937007874
        },
        {
          "duration": 0.19767441860463464,
          "durationTicks": 17,
          "midi": 48,
          "name": "C3",
          "ticks": 13316,
          "time": 154.8372093023256,
          "velocity": 0.28346456692913385
        },
        {
          "duration": 0.2674418604651123,
          "durationTicks": 23,
          "midi": 87,
          "name": "D#6",
          "ticks": 13322,
          "time": 154.90697674418604,
          "velocity": 0.3543307086614173
        },
        {
          "duration": 0.2325581395348877,
          "durationTicks": 20,
          "midi": 74,
          "name": "D5",
          "ticks": 13332,
          "time": 155.02325581395348,
          "velocity": 0.11811023622047244
        },
        {
          "duration": 0.04651162790699459,
          "durationTicks": 4,
          "midi": 83,
          "name": "B5",
          "ticks": 13332,
          "time": 155.02325581395348,
          "velocity": 0.2047244094488189
        },
        {
          "duration": 0.023255813953483084,
          "durationTicks": 2,
          "midi": 53,
          "name": "F3",
          "ticks": 13333,
          "time": 155.03488372093022,
          "velocity": 0.2755905511811024
        },
        {
          "duration": 0.03488372093025305,
          "durationTicks": 3,
          "midi": 90,
          "name": "F#6",
          "ticks": 13333,
          "time": 155.03488372093022,
          "velocity": 0.07874015748031496
        },
        {
          "duration": 0.023255813953511506,
          "durationTicks": 2,
          "midi": 48,
          "name": "C3",
          "ticks": 13334,
          "time": 155.04651162790697,
          "velocity": 0.2755905511811024
        },
        {
          "duration": 0.8023255813953654,
          "durationTicks": 69,
          "midi": 67,
          "name": "G4",
          "ticks": 13334,
          "time": 155.04651162790697,
          "velocity": 0.3543307086614173
        },
        {
          "duration": 0.03488372093025305,
          "durationTicks": 3,
          "midi": 86,
          "name": "D6",
          "ticks": 13334,
          "time": 155.04651162790697,
          "velocity": 0.11811023622047244
        },
        {
          "duration": 0.0813953488371908,
          "durationTicks": 7,
          "midi": 83,
          "name": "B5",
          "ticks": 13339,
          "time": 155.1046511627907,
          "velocity": 0.1732283464566929
        },
        {
          "duration": 0.023255813953483084,
          "durationTicks": 2,
          "midi": 52,
          "name": "E3",
          "ticks": 13341,
          "time": 155.12790697674419,
          "velocity": 0.2677165354330709
        },
        {
          "duration": 0.15116279069766847,
          "durationTicks": 13,
          "midi": 86,
          "name": "D6",
          "ticks": 13341,
          "time": 155.12790697674419,
          "velocity": 0.11811023622047244
        },
        {
          "duration": 0.15116279069766847,
          "durationTicks": 13,
          "midi": 89,
          "name": "F6",
          "ticks": 13341,
          "time": 155.12790697674419,
          "velocity": 0.4409448818897638
        },
        {
          "duration": 0.08139534883721922,
          "durationTicks": 7,
          "midi": 48,
          "name": "C3",
          "ticks": 13342,
          "time": 155.13953488372093,
          "velocity": 0.23622047244094488
        },
        {
          "duration": 0.09302325581393234,
          "durationTicks": 8,
          "midi": 83,
          "name": "B5",
          "ticks": 13348,
          "time": 155.2093023255814,
          "velocity": 0.14960629921259844
        },
        {
          "duration": 0.4651162790697754,
          "durationTicks": 40,
          "midi": 90,
          "name": "F#6",
          "ticks": 13350,
          "time": 155.2325581395349,
          "velocity": 0.44881889763779526
        },
        {
          "duration": 0.19767441860466306,
          "durationTicks": 17,
          "midi": 48,
          "name": "C3",
          "ticks": 13353,
          "time": 155.2674418604651,
          "velocity": 0.29133858267716534
        },
        {
          "duration": 0.06976744186044925,
          "durationTicks": 6,
          "midi": 83,
          "name": "B5",
          "ticks": 13359,
          "time": 155.3372093023256,
          "velocity": 0.13385826771653545
        },
        {
          "duration": 0.15116279069766847,
          "durationTicks": 13,
          "midi": 89,
          "name": "F6",
          "ticks": 13360,
          "time": 155.34883720930233,
          "velocity": 0.4330708661417323
        },
        {
          "duration": 0.2906976744185954,
          "durationTicks": 25,
          "midi": 83,
          "name": "B5",
          "ticks": 13370,
          "time": 155.46511627906978,
          "velocity": 0.25196850393700787
        },
        {
          "duration": 0.023255813953483084,
          "durationTicks": 2,
          "midi": 63,
          "name": "D#4",
          "ticks": 13371,
          "time": 155.47674418604652,
          "velocity": 0.2283464566929134
        },
        {
          "duration": 0.22093023255814614,
          "durationTicks": 19,
          "midi": 74,
          "name": "D5",
          "ticks": 13371,
          "time": 155.47674418604652,
          "velocity": 0.2283464566929134
        },
        {
          "duration": 0.023255813953483084,
          "durationTicks": 2,
          "midi": 53,
          "name": "F3",
          "ticks": 13372,
          "time": 155.48837209302326,
          "velocity": 0.2677165354330709
        },
        {
          "duration": 0.2093023255814046,
          "durationTicks": 18,
          "midi": 76,
          "name": "E5",
          "ticks": 13372,
          "time": 155.48837209302326,
          "velocity": 0.14173228346456693
        },
        {
          "duration": 0.4418604651162923,
          "durationTicks": 38,
          "midi": 64,
          "name": "E4",
          "ticks": 13373,
          "time": 155.5,
          "velocity": 0.3464566929133858
        },
        {
          "duration": 0.06976744186047767,
          "durationTicks": 6,
          "midi": 89,
          "name": "F6",
          "ticks": 13374,
          "time": 155.51162790697674,
          "velocity": 0.09448818897637795
        },
        {
          "duration": 0.11627906976741542,
          "durationTicks": 10,
          "midi": 55,
          "name": "G3",
          "ticks": 13379,
          "time": 155.56976744186048,
          "velocity": 0.2440944881889764
        },
        {
          "duration": 0.6511627906976685,
          "durationTicks": 56,
          "midi": 91,
          "name": "G6",
          "ticks": 13380,
          "time": 155.58139534883722,
          "velocity": 0.3937007874015748
        },
        {
          "duration": 0.09302325581396076,
          "durationTicks": 8,
          "midi": 48,
          "name": "C3",
          "ticks": 13382,
          "time": 155.6046511627907,
          "velocity": 0.1732283464566929
        },
        {
          "duration": 0.5930232558139323,
          "durationTicks": 51,
          "midi": 72,
          "name": "C5",
          "ticks": 13390,
          "time": 155.69767441860466,
          "velocity": 0.5433070866141733
        },
        {
          "duration": 0.5348837209302246,
          "durationTicks": 46,
          "midi": 79,
          "name": "G5",
          "ticks": 13390,
          "time": 155.69767441860466,
          "velocity": 0.4330708661417323
        },
        {
          "duration": 0.12790697674418539,
          "durationTicks": 11,
          "midi": 82,
          "name": "A#5",
          "ticks": 13390,
          "time": 155.69767441860466,
          "velocity": 0.12598425196850394
        },
        {
          "duration": 0.19767441860463464,
          "durationTicks": 17,
          "midi": 88,
          "name": "E6",
          "ticks": 13390,
          "time": 155.69767441860466,
          "velocity": 0.14173228346456693
        },
        {
          "duration": 0.5348837209302246,
          "durationTicks": 46,
          "midi": 92,
          "name": "G#6",
          "ticks": 13390,
          "time": 155.69767441860466,
          "velocity": 0.3543307086614173
        },
        {
          "duration": 0.6395348837209269,
          "durationTicks": 55,
          "midi": 60,
          "name": "C4",
          "ticks": 13391,
          "time": 155.7093023255814,
          "velocity": 0.31496062992125984
        },
        {
          "duration": 0.2906976744185954,
          "durationTicks": 25,
          "midi": 74,
          "name": "D5",
          "ticks": 13391,
          "time": 155.7093023255814,
          "velocity": 0.2204724409448819
        },
        {
          "duration": 1.2093023255813762,
          "durationTicks": 104,
          "midi": 76,
          "name": "E5",
          "ticks": 13391,
          "time": 155.7093023255814,
          "velocity": 0.4094488188976378
        },
        {
          "duration": 0.09302325581396076,
          "durationTicks": 8,
          "midi": 55,
          "name": "G3",
          "ticks": 13392,
          "time": 155.72093023255815,
          "velocity": 0.2440944881889764
        },
        {
          "duration": 0.09302325581396076,
          "durationTicks": 8,
          "midi": 83,
          "name": "B5",
          "ticks": 13396,
          "time": 155.7674418604651,
          "velocity": 0.2125984251968504
        },
        {
          "duration": 0.04651162790699459,
          "durationTicks": 4,
          "midi": 90,
          "name": "F#6",
          "ticks": 13398,
          "time": 155.7906976744186,
          "velocity": 0.08661417322834646
        },
        {
          "duration": 0.034883720930224626,
          "durationTicks": 3,
          "midi": 89,
          "name": "F6",
          "ticks": 13400,
          "time": 155.8139534883721,
          "velocity": 0.08661417322834646
        },
        {
          "duration": 0.09302325581393234,
          "durationTicks": 8,
          "midi": 55,
          "name": "G3",
          "ticks": 13401,
          "time": 155.82558139534885,
          "velocity": 0.2047244094488189
        },
        {
          "duration": 0.05813953488373613,
          "durationTicks": 5,
          "midi": 83,
          "name": "B5",
          "ticks": 13406,
          "time": 155.88372093023256,
          "velocity": 0.13385826771653545
        },
        {
          "duration": 0.08139534883721922,
          "durationTicks": 7,
          "midi": 90,
          "name": "F#6",
          "ticks": 13409,
          "time": 155.91860465116278,
          "velocity": 0.11023622047244094
        },
        {
          "duration": 0.25581395348837077,
          "durationTicks": 22,
          "midi": 86,
          "name": "D6",
          "ticks": 13410,
          "time": 155.93023255813952,
          "velocity": 0.3543307086614173
        },
        {
          "duration": 0.04651162790696617,
          "durationTicks": 4,
          "midi": 63,
          "name": "D#4",
          "ticks": 13411,
          "time": 155.9418604651163,
          "velocity": 0.18110236220472442
        },
        {
          "duration": 0.6860465116278931,
          "durationTicks": 59,
          "midi": 67,
          "name": "G4",
          "ticks": 13411,
          "time": 155.9418604651163,
          "velocity": 0.33858267716535434
        },
        {
          "duration": 0.023255813953483084,
          "durationTicks": 2,
          "midi": 53,
          "name": "F3",
          "ticks": 13412,
          "time": 155.95348837209303,
          "velocity": 0.23622047244094488
        },
        {
          "duration": 0.16279069767441,
          "durationTicks": 14,
          "midi": 64,
          "name": "E4",
          "ticks": 13415,
          "time": 155.98837209302326,
          "velocity": 0.14960629921259844
        },
        {
          "duration": 0.11627906976744384,
          "durationTicks": 10,
          "midi": 82,
          "name": "A#5",
          "ticks": 13416,
          "time": 156,
          "velocity": 0.08661417322834646
        },
        {
          "duration": 0.8023255813953654,
          "durationTicks": 69,
          "midi": 74,
          "name": "D5",
          "ticks": 13417,
          "time": 156.01162790697674,
          "velocity": 0.4015748031496063
        },
        {
          "duration": 0.09302325581396076,
          "durationTicks": 8,
          "midi": 90,
          "name": "F#6",
          "ticks": 13419,
          "time": 156.03488372093022,
          "velocity": 0.11811023622047244
        },
        {
          "duration": 0.15116279069766847,
          "durationTicks": 13,
          "midi": 93,
          "name": "A6",
          "ticks": 13419,
          "time": 156.03488372093022,
          "velocity": 0.3858267716535433
        },
        {
          "duration": 0.09302325581396076,
          "durationTicks": 8,
          "midi": 55,
          "name": "G3",
          "ticks": 13421,
          "time": 156.0581395348837,
          "velocity": 0.1732283464566929
        },
        {
          "duration": 0.0813953488371908,
          "durationTicks": 7,
          "midi": 48,
          "name": "C3",
          "ticks": 13422,
          "time": 156.06976744186048,
          "velocity": 0.1732283464566929
        },
        {
          "duration": 0.04651162790696617,
          "durationTicks": 4,
          "midi": 83,
          "name": "B5",
          "ticks": 13422,
          "time": 156.06976744186048,
          "velocity": 0.07874015748031496
        },
        {
          "duration": 0.034883720930224626,
          "durationTicks": 3,
          "midi": 47,
          "name": "B2",
          "ticks": 13429,
          "time": 156.15116279069767,
          "velocity": 0.2283464566929134
        },
        {
          "duration": 0.15116279069766847,
          "durationTicks": 13,
          "midi": 94,
          "name": "A#6",
          "ticks": 13429,
          "time": 156.15116279069767,
          "velocity": 0.4015748031496063
        },
        {
          "duration": 0.12790697674418539,
          "durationTicks": 11,
          "midi": 82,
          "name": "A#5",
          "ticks": 13430,
          "time": 156.1627906976744,
          "velocity": 0.08661417322834646
        },
        {
          "duration": 0.09302325581396076,
          "durationTicks": 8,
          "midi": 55,
          "name": "G3",
          "ticks": 13431,
          "time": 156.17441860465115,
          "velocity": 0.15748031496062992
        },
        {
          "duration": 0.05813953488373613,
          "durationTicks": 5,
          "midi": 83,
          "name": "B5",
          "ticks": 13431,
          "time": 156.17441860465115,
          "velocity": 0.11811023622047244
        },
        {
          "duration": 0.18604651162792152,
          "durationTicks": 16,
          "midi": 89,
          "name": "F6",
          "ticks": 13431,
          "time": 156.17441860465115,
          "velocity": 0.11811023622047244
        },
        {
          "duration": 0.16279069767441,
          "durationTicks": 14,
          "midi": 64,
          "name": "E4",
          "ticks": 13435,
          "time": 156.22093023255815,
          "velocity": 0.15748031496062992
        },
        {
          "duration": 0.04651162790696617,
          "durationTicks": 4,
          "midi": 90,
          "name": "F#6",
          "ticks": 13436,
          "time": 156.2325581395349,
          "velocity": 0.11811023622047244
        },
        {
          "duration": 0.17441860465115155,
          "durationTicks": 15,
          "midi": 93,
          "name": "A6",
          "ticks": 13438,
          "time": 156.25581395348837,
          "velocity": 0.4015748031496063
        },
        {
          "duration": 0.0813953488371908,
          "durationTicks": 7,
          "midi": 55,
          "name": "G3",
          "ticks": 13443,
          "time": 156.3139534883721,
          "velocity": 0.14960629921259844
        },
        {
          "duration": 0.11627906976744384,
          "durationTicks": 10,
          "midi": 90,
          "name": "F#6",
          "ticks": 13448,
          "time": 156.37209302325581,
          "velocity": 0.1732283464566929
        },
        {
          "duration": 0.16279069767441,
          "durationTicks": 14,
          "midi": 94,
          "name": "A#6",
          "ticks": 13448,
          "time": 156.37209302325581,
          "velocity": 0.2283464566929134
        },
        {
          "duration": 0.04651162790696617,
          "durationTicks": 4,
          "midi": 83,
          "name": "B5",
          "ticks": 13449,
          "time": 156.38372093023256,
          "velocity": 0.15748031496062992
        },
        {
          "duration": 0.023255813953483084,
          "durationTicks": 2,
          "midi": 47,
          "name": "B2",
          "ticks": 13450,
          "time": 156.3953488372093,
          "velocity": 0.25984251968503935
        },
        {
          "duration": 0.19767441860466306,
          "durationTicks": 17,
          "midi": 64,
          "name": "E4",
          "ticks": 13450,
          "time": 156.3953488372093,
          "velocity": 0.33070866141732286
        },
        {
          "duration": 0.023255813953483084,
          "durationTicks": 2,
          "midi": 53,
          "name": "F3",
          "ticks": 13454,
          "time": 156.4418604651163,
          "velocity": 0.2755905511811024
        },
        {
          "duration": 0.0813953488371908,
          "durationTicks": 7,
          "midi": 83,
          "name": "B5",
          "ticks": 13455,
          "time": 156.45348837209303,
          "velocity": 0.15748031496062992
        },
        {
          "duration": 0.13953488372092693,
          "durationTicks": 12,
          "midi": 82,
          "name": "A#5",
          "ticks": 13456,
          "time": 156.46511627906978,
          "velocity": 0.09448818897637795
        },
        {
          "duration": 0.05813953488370771,
          "durationTicks": 5,
          "midi": 89,
          "name": "F6",
          "ticks": 13457,
          "time": 156.47674418604652,
          "velocity": 0.07086614173228346
        },
        {
          "duration": 0.2093023255814046,
          "durationTicks": 18,
          "midi": 95,
          "name": "B6",
          "ticks": 13458,
          "time": 156.48837209302326,
          "velocity": 0.33858267716535434
        },
        {
          "duration": 0.08139534883721922,
          "durationTicks": 7,
          "midi": 48,
          "name": "C3",
          "ticks": 13460,
          "time": 156.51162790697674,
          "velocity": 0.1889763779527559
        },
        {
          "duration": 0.12790697674418539,
          "durationTicks": 11,
          "midi": 55,
          "name": "G3",
          "ticks": 13460,
          "time": 156.51162790697674,
          "velocity": 0.23622047244094488
        },
        {
          "duration": 0.1046511627907023,
          "durationTicks": 9,
          "midi": 90,
          "name": "F#6",
          "ticks": 13460,
          "time": 156.51162790697674,
          "velocity": 0.14173228346456693
        },
        {
          "duration": 0.034883720930224626,
          "durationTicks": 3,
          "midi": 83,
          "name": "B5",
          "ticks": 13465,
          "time": 156.56976744186048,
          "velocity": 0.15748031496062992
        },
        {
          "duration": 0.6395348837209269,
          "durationTicks": 55,
          "midi": 81,
          "name": "A5",
          "ticks": 13468,
          "time": 156.6046511627907,
          "velocity": 0.31496062992125984
        },
        {
          "duration": 0.27906976744185386,
          "durationTicks": 24,
          "midi": 84,
          "name": "C6",
          "ticks": 13468,
          "time": 156.6046511627907,
          "velocity": 0.3779527559055118
        },
        {
          "duration": 0.22093023255814614,
          "durationTicks": 19,
          "midi": 60,
          "name": "C4",
          "ticks": 13469,
          "time": 156.61627906976744,
          "velocity": 0.36220472440944884
        },
        {
          "duration": 0.6860465116278931,
          "durationTicks": 59,
          "midi": 64,
          "name": "E4",
          "ticks": 13469,
          "time": 156.61627906976744,
          "velocity": 0.3937007874015748
        },
        {
          "duration": 0.5697674418604493,
          "durationTicks": 49,
          "midi": 69,
          "name": "A4",
          "ticks": 13469,
          "time": 156.61627906976744,
          "velocity": 0.3464566929133858
        },
        {
          "duration": 0.023255813953483084,
          "durationTicks": 2,
          "midi": 45,
          "name": "A2",
          "ticks": 13472,
          "time": 156.65116279069767,
          "velocity": 0.31496062992125984
        },
        {
          "duration": 0.11627906976744384,
          "durationTicks": 10,
          "midi": 52,
          "name": "E3",
          "ticks": 13474,
          "time": 156.67441860465115,
          "velocity": 0.2204724409448819
        },
        {
          "duration": 0.03488372093025305,
          "durationTicks": 3,
          "midi": 83,
          "name": "B5",
          "ticks": 13474,
          "time": 156.67441860465115,
          "velocity": 0.11811023622047244
        },
        {
          "duration": 0.19767441860466306,
          "durationTicks": 17,
          "midi": 45,
          "name": "A2",
          "ticks": 13475,
          "time": 156.6860465116279,
          "velocity": 0.4251968503937008
        },
        {
          "duration": 0.05813953488370771,
          "durationTicks": 5,
          "midi": 74,
          "name": "D5",
          "ticks": 13488,
          "time": 156.8372093023256,
          "velocity": 0.07874015748031496
        },
        {
          "duration": 0.09302325581396076,
          "durationTicks": 8,
          "midi": 60,
          "name": "C4",
          "ticks": 13489,
          "time": 156.84883720930233,
          "velocity": 0.28346456692913385
        },
        {
          "duration": 0.24418604651162923,
          "durationTicks": 21,
          "midi": 83,
          "name": "B5",
          "ticks": 13489,
          "time": 156.84883720930233,
          "velocity": 0.2283464566929134
        },
        {
          "duration": 0.13953488372092693,
          "durationTicks": 12,
          "midi": 86,
          "name": "D6",
          "ticks": 13489,
          "time": 156.84883720930233,
          "velocity": 0.12598425196850394
        },
        {
          "duration": 0.09302325581396076,
          "durationTicks": 8,
          "midi": 85,
          "name": "C#6",
          "ticks": 13490,
          "time": 156.86046511627907,
          "velocity": 0.10236220472440945
        },
        {
          "duration": 0.12790697674418539,
          "durationTicks": 11,
          "midi": 45,
          "name": "A2",
          "ticks": 13493,
          "time": 156.8953488372093,
          "velocity": 0.4094488188976378
        },
        {
          "duration": 0.023255813953483084,
          "durationTicks": 2,
          "midi": 52,
          "name": "E3",
          "ticks": 13493,
          "time": 156.8953488372093,
          "velocity": 0.25196850393700787
        },
        {
          "duration": 0.023255813953511506,
          "durationTicks": 2,
          "midi": 52,
          "name": "E3",
          "ticks": 13496,
          "time": 156.93023255813952,
          "velocity": 0.25196850393700787
        },
        {
          "duration": 0.04651162790696617,
          "durationTicks": 4,
          "midi": 60,
          "name": "C4",
          "ticks": 13500,
          "time": 156.97674418604652,
          "velocity": 0.2440944881889764
        },
        {
          "duration": 0.09302325581396076,
          "durationTicks": 8,
          "midi": 67,
          "name": "G4",
          "ticks": 13503,
          "time": 157.01162790697674,
          "velocity": 0.14173228346456693
        },
        {
          "duration": 0.04651162790699459,
          "durationTicks": 4,
          "midi": 45,
          "name": "A2",
          "ticks": 13505,
          "time": 157.03488372093022,
          "velocity": 0.3543307086614173
        },
        {
          "duration": 0.03488372093025305,
          "durationTicks": 3,
          "midi": 60,
          "name": "C4",
          "ticks": 13507,
          "time": 157.0581395348837,
          "velocity": 0.2125984251968504
        },
        {
          "duration": 0.023255813953483084,
          "durationTicks": 2,
          "midi": 46,
          "name": "A#2",
          "ticks": 13509,
          "time": 157.08139534883722,
          "velocity": 0.33070866141732286
        },
        {
          "duration": 0.1046511627907023,
          "durationTicks": 9,
          "midi": 71,
          "name": "B4",
          "ticks": 13510,
          "time": 157.09302325581396,
          "velocity": 0.15748031496062992
        },
        {
          "duration": 0.034883720930224626,
          "durationTicks": 3,
          "midi": 45,
          "name": "A2",
          "ticks": 13513,
          "time": 157.12790697674419,
          "velocity": 0.33858267716535434
        },
        {
          "duration": 0.45348837209303383,
          "durationTicks": 39,
          "midi": 67,
          "name": "G4",
          "ticks": 13515,
          "time": 157.15116279069767,
          "velocity": 0.4094488188976378
        },
        {
          "duration": 0.03488372093025305,
          "durationTicks": 3,
          "midi": 45,
          "name": "A2",
          "ticks": 13517,
          "time": 157.17441860465115,
          "velocity": 0.33070866141732286
        },
        {
          "duration": 0.46511627906974695,
          "durationTicks": 40,
          "midi": 79,
          "name": "G5",
          "ticks": 13520,
          "time": 157.2093023255814,
          "velocity": 0.4330708661417323
        },
        {
          "duration": 0.05813953488370771,
          "durationTicks": 5,
          "midi": 86,
          "name": "D6",
          "ticks": 13520,
          "time": 157.2093023255814,
          "velocity": 0.08661417322834646
        },
        {
          "duration": 0.034883720930224626,
          "durationTicks": 3,
          "midi": 45,
          "name": "A2",
          "ticks": 13521,
          "time": 157.22093023255815,
          "velocity": 0.2992125984251969
        },
        {
          "duration": 0.1046511627907023,
          "durationTicks": 9,
          "midi": 71,
          "name": "B4",
          "ticks": 13522,
          "time": 157.2325581395349,
          "velocity": 0.08661417322834646
        },
        {
          "duration": 0.023255813953483084,
          "durationTicks": 2,
          "midi": 46,
          "name": "A#2",
          "ticks": 13526,
          "time": 157.27906976744185,
          "velocity": 0.30708661417322836
        },
        {
          "duration": 0.023255813953483084,
          "durationTicks": 2,
          "midi": 52,
          "name": "E3",
          "ticks": 13526,
          "time": 157.27906976744185,
          "velocity": 0.2440944881889764
        },
        {
          "duration": 0.04651162790699459,
          "durationTicks": 4,
          "midi": 63,
          "name": "D#4",
          "ticks": 13528,
          "time": 157.30232558139534,
          "velocity": 0.11811023622047244
        },
        {
          "duration": 0.22093023255814614,
          "durationTicks": 19,
          "midi": 83,
          "name": "B5",
          "ticks": 13528,
          "time": 157.30232558139534,
          "velocity": 0.1968503937007874
        },
        {
          "duration": 0.1511627906976969,
          "durationTicks": 13,
          "midi": 85,
          "name": "C#6",
          "ticks": 13528,
          "time": 157.30232558139534,
          "velocity": 0.13385826771653545
        },
        {
          "duration": 0.17441860465117998,
          "durationTicks": 15,
          "midi": 90,
          "name": "F#6",
          "ticks": 13528,
          "time": 157.30232558139534,
          "velocity": 0.07874015748031496
        },
        {
          "duration": 0.034883720930224626,
          "durationTicks": 3,
          "midi": 45,
          "name": "A2",
          "ticks": 13530,
          "time": 157.32558139534885,
          "velocity": 0.3937007874015748
        },
        {
          "duration": 0.06976744186044925,
          "durationTicks": 6,
          "midi": 86,
          "name": "D6",
          "ticks": 13530,
          "time": 157.32558139534885,
          "velocity": 0.18110236220472442
        },
        {
          "duration": 0.06976744186044925,
          "durationTicks": 6,
          "midi": 64,
          "name": "E4",
          "ticks": 13532,
          "time": 157.34883720930233,
          "velocity": 0.14173228346456693
        },
        {
          "duration": 0.2674418604651123,
          "durationTicks": 23,
          "midi": 86,
          "name": "D6",
          "ticks": 13537,
          "time": 157.40697674418604,
          "velocity": 0.16535433070866143
        },
        {
          "duration": 0.034883720930224626,
          "durationTicks": 3,
          "midi": 64,
          "name": "E4",
          "ticks": 13543,
          "time": 157.47674418604652,
          "velocity": 0.07874015748031496
        },
        {
          "duration": 0.11627906976744384,
          "durationTicks": 10,
          "midi": 62,
          "name": "D4",
          "ticks": 13547,
          "time": 157.52325581395348,
          "velocity": 0.29133858267716534
        },
        {
          "duration": 0.034883720930224626,
          "durationTicks": 3,
          "midi": 71,
          "name": "B4",
          "ticks": 13547,
          "time": 157.52325581395348,
          "velocity": 0.11811023622047244
        },
        {
          "duration": 2.7325581395348877,
          "durationTicks": 235,
          "midi": 74,
          "name": "D5",
          "ticks": 13547,
          "time": 157.52325581395348,
          "velocity": 0.3700787401574803
        },
        {
          "duration": 0.48837209302325846,
          "durationTicks": 42,
          "midi": 77,
          "name": "F5",
          "ticks": 13547,
          "time": 157.52325581395348,
          "velocity": 0.33858267716535434
        },
        {
          "duration": 0.11627906976744384,
          "durationTicks": 10,
          "midi": 81,
          "name": "A5",
          "ticks": 13547,
          "time": 157.52325581395348,
          "velocity": 0.15748031496062992
        },
        {
          "duration": 0.034883720930224626,
          "durationTicks": 3,
          "midi": 90,
          "name": "F#6",
          "ticks": 13547,
          "time": 157.52325581395348,
          "velocity": 0.08661417322834646
        },
        {
          "duration": 0.15116279069766847,
          "durationTicks": 13,
          "midi": 84,
          "name": "C6",
          "ticks": 13548,
          "time": 157.53488372093022,
          "velocity": 0.15748031496062992
        },
        {
          "duration": 0.11627906976744384,
          "durationTicks": 10,
          "midi": 87,
          "name": "D#6",
          "ticks": 13548,
          "time": 157.53488372093022,
          "velocity": 0.11811023622047244
        },
        {
          "duration": 1.0116279069767415,
          "durationTicks": 87,
          "midi": 65,
          "name": "F4",
          "ticks": 13549,
          "time": 157.54651162790697,
          "velocity": 0.4015748031496063
        },
        {
          "duration": 0.5813953488372192,
          "durationTicks": 50,
          "midi": 57,
          "name": "A3",
          "ticks": 13550,
          "time": 157.5581395348837,
          "velocity": 0.2755905511811024
        },
        {
          "duration": 0.16279069767443843,
          "durationTicks": 14,
          "midi": 72,
          "name": "C5",
          "ticks": 13550,
          "time": 157.5581395348837,
          "velocity": 0.16535433070866143
        },
        {
          "duration": 0.023255813953483084,
          "durationTicks": 2,
          "midi": 53,
          "name": "F3",
          "ticks": 13555,
          "time": 157.61627906976744,
          "velocity": 0.29133858267716534
        },
        {
          "duration": 0.023255813953483084,
          "durationTicks": 2,
          "midi": 53,
          "name": "F3",
          "ticks": 13558,
          "time": 157.65116279069767,
          "velocity": 0.28346456692913385
        },
        {
          "duration": 0.023255813953483084,
          "durationTicks": 2,
          "midi": 47,
          "name": "B2",
          "ticks": 13559,
          "time": 157.6627906976744,
          "velocity": 0.28346456692913385
        },
        {
          "duration": 0.03488372093025305,
          "durationTicks": 3,
          "midi": 88,
          "name": "E6",
          "ticks": 13559,
          "time": 157.6627906976744,
          "velocity": 0.11023622047244094
        },
        {
          "duration": 0.05813953488373613,
          "durationTicks": 5,
          "midi": 62,
          "name": "D4",
          "ticks": 13561,
          "time": 157.6860465116279,
          "velocity": 0.2283464566929134
        },
        {
          "duration": 0.04651162790699459,
          "durationTicks": 4,
          "midi": 87,
          "name": "D#6",
          "ticks": 13561,
          "time": 157.6860465116279,
          "velocity": 0.11811023622047244
        },
        {
          "duration": 0.04651162790696617,
          "durationTicks": 4,
          "midi": 79,
          "name": "G5",
          "ticks": 13562,
          "time": 157.69767441860466,
          "velocity": 0.11023622047244094
        },
        {
          "duration": 0.04651162790696617,
          "durationTicks": 4,
          "midi": 84,
          "name": "C6",
          "ticks": 13564,
          "time": 157.72093023255815,
          "velocity": 0.11023622047244094
        },
        {
          "duration": 0.034883720930224626,
          "durationTicks": 3,
          "midi": 47,
          "name": "B2",
          "ticks": 13566,
          "time": 157.74418604651163,
          "velocity": 0.2755905511811024
        },
        {
          "duration": 0.11627906976744384,
          "durationTicks": 10,
          "midi": 81,
          "name": "A5",
          "ticks": 13566,
          "time": 157.74418604651163,
          "velocity": 0.13385826771653545
        },
        {
          "duration": 0.30232558139533694,
          "durationTicks": 26,
          "midi": 62,
          "name": "D4",
          "ticks": 13567,
          "time": 157.75581395348837,
          "velocity": 0.36220472440944884
        },
        {
          "duration": 0.04651162790699459,
          "durationTicks": 4,
          "midi": 87,
          "name": "D#6",
          "ticks": 13568,
          "time": 157.7674418604651,
          "velocity": 0.11023622047244094
        },
        {
          "duration": 0.04651162790699459,
          "durationTicks": 4,
          "midi": 72,
          "name": "C5",
          "ticks": 13569,
          "time": 157.77906976744185,
          "velocity": 0.14960629921259844
        },
        {
          "duration": 0.30232558139536536,
          "durationTicks": 26,
          "midi": 85,
          "name": "C#6",
          "ticks": 13569,
          "time": 157.77906976744185,
          "velocity": 0.12598425196850394
        },
        {
          "duration": 0.3604651162790731,
          "durationTicks": 31,
          "midi": 88,
          "name": "E6",
          "ticks": 13569,
          "time": 157.77906976744185,
          "velocity": 0.14960629921259844
        },
        {
          "duration": 0.034883720930224626,
          "durationTicks": 3,
          "midi": 93,
          "name": "A6",
          "ticks": 13573,
          "time": 157.82558139534885,
          "velocity": 0.14173228346456693
        },
        {
          "duration": 0.023255813953483084,
          "durationTicks": 2,
          "midi": 48,
          "name": "C3",
          "ticks": 13574,
          "time": 157.8372093023256,
          "velocity": 0.33070866141732286
        },
        {
          "duration": 0.11627906976744384,
          "durationTicks": 10,
          "midi": 87,
          "name": "D#6",
          "ticks": 13575,
          "time": 157.84883720930233,
          "velocity": 0.10236220472440945
        },
        {
          "duration": 0.05813953488370771,
          "durationTicks": 5,
          "midi": 84,
          "name": "C6",
          "ticks": 13577,
          "time": 157.87209302325581,
          "velocity": 0.13385826771653545
        },
        {
          "duration": 0.05813953488373613,
          "durationTicks": 5,
          "midi": 72,
          "name": "C5",
          "ticks": 13578,
          "time": 157.88372093023256,
          "velocity": 0.12598425196850394
        },
        {
          "duration": 0.05813953488373613,
          "durationTicks": 5,
          "midi": 93,
          "name": "A6",
          "ticks": 13578,
          "time": 157.88372093023256,
          "velocity": 0.12598425196850394
        },
        {
          "duration": 0.04651162790696617,
          "durationTicks": 4,
          "midi": 93,
          "name": "A6",
          "ticks": 13584,
          "time": 157.95348837209303,
          "velocity": 0.14960629921259844
        },
        {
          "duration": 0.12790697674418539,
          "durationTicks": 11,
          "midi": 84,
          "name": "C6",
          "ticks": 13585,
          "time": 157.96511627906978,
          "velocity": 0.1732283464566929
        },
        {
          "duration": 0.05813953488370771,
          "durationTicks": 5,
          "midi": 98,
          "name": "D7",
          "ticks": 13585,
          "time": 157.96511627906978,
          "velocity": 0.2440944881889764
        },
        {
          "duration": 0.05813953488373613,
          "durationTicks": 5,
          "midi": 76,
          "name": "E5",
          "ticks": 13589,
          "time": 158.01162790697674,
          "velocity": 0.09448818897637795
        },
        {
          "duration": 0.04651162790699459,
          "durationTicks": 4,
          "midi": 38,
          "name": "D2",
          "ticks": 13591,
          "time": 158.03488372093022,
          "velocity": 0.18110236220472442
        },
        {
          "duration": 0.023255813953483084,
          "durationTicks": 2,
          "midi": 49,
          "name": "C#3",
          "ticks": 13591,
          "time": 158.03488372093022,
          "velocity": 0.30708661417322836
        },
        {
          "duration": 0.32558139534884845,
          "durationTicks": 28,
          "midi": 72,
          "name": "C5",
          "ticks": 13591,
          "time": 158.03488372093022,
          "velocity": 0.4251968503937008
        },
        {
          "duration": 0.04651162790696617,
          "durationTicks": 4,
          "midi": 62,
          "name": "D4",
          "ticks": 13594,
          "time": 158.06976744186048,
          "velocity": 0.2283464566929134
        },
        {
          "duration": 0.09302325581393234,
          "durationTicks": 8,
          "midi": 38,
          "name": "D2",
          "ticks": 13596,
          "time": 158.09302325581396,
          "velocity": 0.1889763779527559
        },
        {
          "duration": 0.023255813953483084,
          "durationTicks": 2,
          "midi": 49,
          "name": "C#3",
          "ticks": 13596,
          "time": 158.09302325581396,
          "velocity": 0.2677165354330709
        },
        {
          "duration": 0.034883720930224626,
          "durationTicks": 3,
          "midi": 87,
          "name": "D#6",
          "ticks": 13596,
          "time": 158.09302325581396,
          "velocity": 0.08661417322834646
        },
        {
          "duration": 0.2674418604651123,
          "durationTicks": 23,
          "midi": 60,
          "name": "C4",
          "ticks": 13599,
          "time": 158.12790697674419,
          "velocity": 0.3779527559055118
        },
        {
          "duration": 0.023255813953483084,
          "durationTicks": 2,
          "midi": 49,
          "name": "C#3",
          "ticks": 13601,
          "time": 158.15116279069767,
          "velocity": 0.2755905511811024
        },
        {
          "duration": 0.06976744186047767,
          "durationTicks": 6,
          "midi": 88,
          "name": "E6",
          "ticks": 13602,
          "time": 158.1627906976744,
          "velocity": 0.1732283464566929
        },
        {
          "duration": 0.1860465116278931,
          "durationTicks": 16,
          "midi": 87,
          "name": "D#6",
          "ticks": 13605,
          "time": 158.19767441860466,
          "velocity": 0.11023622047244094
        },
        {
          "duration": 0.023255813953483084,
          "durationTicks": 2,
          "midi": 49,
          "name": "C#3",
          "ticks": 13606,
          "time": 158.2093023255814,
          "velocity": 0.33858267716535434
        },
        {
          "duration": 1.848837209302303,
          "durationTicks": 159,
          "midi": 77,
          "name": "F5",
          "ticks": 13606,
          "time": 158.2093023255814,
          "velocity": 0.49606299212598426
        },
        {
          "duration": 0.05813953488370771,
          "durationTicks": 5,
          "midi": 85,
          "name": "C#6",
          "ticks": 13606,
          "time": 158.2093023255814,
          "velocity": 0.14173228346456693
        },
        {
          "duration": 0.023255813953483084,
          "durationTicks": 2,
          "midi": 50,
          "name": "D3",
          "ticks": 13611,
          "time": 158.2674418604651,
          "velocity": 0.33858267716535434
        },
        {
          "duration": 0.034883720930224626,
          "durationTicks": 3,
          "midi": 88,
          "name": "E6",
          "ticks": 13611,
          "time": 158.2674418604651,
          "velocity": 0.15748031496062992
        },
        {
          "duration": 0.08139534883721922,
          "durationTicks": 7,
          "midi": 91,
          "name": "G6",
          "ticks": 13613,
          "time": 158.2906976744186,
          "velocity": 0.08661417322834646
        },
        {
          "duration": 0.023255813953483084,
          "durationTicks": 2,
          "midi": 52,
          "name": "E3",
          "ticks": 13615,
          "time": 158.3139534883721,
          "velocity": 0.29133858267716534
        },
        {
          "duration": 0.04651162790696617,
          "durationTicks": 4,
          "midi": 88,
          "name": "E6",
          "ticks": 13616,
          "time": 158.32558139534885,
          "velocity": 0.14960629921259844
        },
        {
          "duration": 0.023255813953483084,
          "durationTicks": 2,
          "midi": 50,
          "name": "D3",
          "ticks": 13617,
          "time": 158.3372093023256,
          "velocity": 0.3700787401574803
        },
        {
          "duration": 0.06976744186047767,
          "durationTicks": 6,
          "midi": 88,
          "name": "E6",
          "ticks": 13622,
          "time": 158.3953488372093,
          "velocity": 0.15748031496062992
        },
        {
          "duration": 0.06976744186047767,
          "durationTicks": 6,
          "midi": 60,
          "name": "C4",
          "ticks": 13623,
          "time": 158.40697674418604,
          "velocity": 0.2992125984251969
        },
        {
          "duration": 0.3604651162790731,
          "durationTicks": 31,
          "midi": 81,
          "name": "A5",
          "ticks": 13624,
          "time": 158.41860465116278,
          "velocity": 0.30708661417322836
        },
        {
          "duration": 0.2906976744186238,
          "durationTicks": 25,
          "midi": 70,
          "name": "A#4",
          "ticks": 13625,
          "time": 158.43023255813952,
          "velocity": 0.44881889763779526
        },
        {
          "duration": 0.16279069767441,
          "durationTicks": 14,
          "midi": 80,
          "name": "G#5",
          "ticks": 13626,
          "time": 158.4418604651163,
          "velocity": 0.1732283464566929
        },
        {
          "duration": 0.11627906976744384,
          "durationTicks": 10,
          "midi": 83,
          "name": "B5",
          "ticks": 13629,
          "time": 158.47674418604652,
          "velocity": 0.1889763779527559
        },
        {
          "duration": 0.023255813953483084,
          "durationTicks": 2,
          "midi": 45,
          "name": "A2",
          "ticks": 13630,
          "time": 158.48837209302326,
          "velocity": 0.31496062992125984
        },
        {
          "duration": 0.06976744186044925,
          "durationTicks": 6,
          "midi": 58,
          "name": "A#3",
          "ticks": 13630,
          "time": 158.48837209302326,
          "velocity": 0.29133858267716534
        },
        {
          "duration": 0.1860465116278931,
          "durationTicks": 16,
          "midi": 88,
          "name": "E6",
          "ticks": 13631,
          "time": 158.5,
          "velocity": 0.11023622047244094
        },
        {
          "duration": 0.04651162790699459,
          "durationTicks": 4,
          "midi": 50,
          "name": "D3",
          "ticks": 13635,
          "time": 158.54651162790697,
          "velocity": 0.16535433070866143
        },
        {
          "duration": 0.11627906976744384,
          "durationTicks": 10,
          "midi": 67,
          "name": "G4",
          "ticks": 13635,
          "time": 158.54651162790697,
          "velocity": 0.2283464566929134
        },
        {
          "duration": 0.06976744186044925,
          "durationTicks": 6,
          "midi": 58,
          "name": "A#3",
          "ticks": 13637,
          "time": 158.56976744186048,
          "velocity": 0.23622047244094488
        },
        {
          "duration": 0.19767441860463464,
          "durationTicks": 17,
          "midi": 85,
          "name": "C#6",
          "ticks": 13637,
          "time": 158.56976744186048,
          "velocity": 0.10236220472440945
        },
        {
          "duration": 0.0813953488371908,
          "durationTicks": 7,
          "midi": 65,
          "name": "F4",
          "ticks": 13639,
          "time": 158.59302325581396,
          "velocity": 0.1889763779527559
        },
        {
          "duration": 0.17441860465115155,
          "durationTicks": 15,
          "midi": 83,
          "name": "B5",
          "ticks": 13640,
          "time": 158.6046511627907,
          "velocity": 0.25196850393700787
        },
        {
          "duration": 0.4651162790697754,
          "durationTicks": 40,
          "midi": 58,
          "name": "A#3",
          "ticks": 13644,
          "time": 158.65116279069767,
          "velocity": 0.29133858267716534
        },
        {
          "duration": 0.17441860465117998,
          "durationTicks": 15,
          "midi": 67,
          "name": "G4",
          "ticks": 13646,
          "time": 158.67441860465115,
          "velocity": 0.2283464566929134
        },
        {
          "duration": 0.9883720930232585,
          "durationTicks": 85,
          "midi": 80,
          "name": "G#5",
          "ticks": 13647,
          "time": 158.6860465116279,
          "velocity": 0.1732283464566929
        },
        {
          "duration": 0.023255813953483084,
          "durationTicks": 2,
          "midi": 69,
          "name": "A4",
          "ticks": 13650,
          "time": 158.72093023255815,
          "velocity": 0.33858267716535434
        },
        {
          "duration": 0.034883720930224626,
          "durationTicks": 3,
          "midi": 90,
          "name": "F#6",
          "ticks": 13652,
          "time": 158.74418604651163,
          "velocity": 0.07874015748031496
        },
        {
          "duration": 0.034883720930224626,
          "durationTicks": 3,
          "midi": 69,
          "name": "A4",
          "ticks": 13653,
          "time": 158.75581395348837,
          "velocity": 0.3543307086614173
        },
        {
          "duration": 0.24418604651162923,
          "durationTicks": 21,
          "midi": 88,
          "name": "E6",
          "ticks": 13653,
          "time": 158.75581395348837,
          "velocity": 0.10236220472440945
        },
        {
          "duration": 0.034883720930224626,
          "durationTicks": 3,
          "midi": 70,
          "name": "A#4",
          "ticks": 13654,
          "time": 158.7674418604651,
          "velocity": 0.33858267716535434
        },
        {
          "duration": 0.32558139534884845,
          "durationTicks": 28,
          "midi": 84,
          "name": "C6",
          "ticks": 13654,
          "time": 158.7674418604651,
          "velocity": 0.36220472440944884
        },
        {
          "duration": 0.023255813953483084,
          "durationTicks": 2,
          "midi": 50,
          "name": "D3",
          "ticks": 13655,
          "time": 158.77906976744185,
          "velocity": 0.2283464566929134
        },
        {
          "duration": 0.1511627906976969,
          "durationTicks": 13,
          "midi": 81,
          "name": "A5",
          "ticks": 13656,
          "time": 158.7906976744186,
          "velocity": 0.2440944881889764
        },
        {
          "duration": 0.1511627906976969,
          "durationTicks": 13,
          "midi": 83,
          "name": "B5",
          "ticks": 13656,
          "time": 158.7906976744186,
          "velocity": 0.2204724409448819
        },
        {
          "duration": 0.05813953488373613,
          "durationTicks": 5,
          "midi": 69,
          "name": "A4",
          "ticks": 13657,
          "time": 158.80232558139534,
          "velocity": 0.2992125984251969
        },
        {
          "duration": 0.023255813953483084,
          "durationTicks": 2,
          "midi": 50,
          "name": "D3",
          "ticks": 13658,
          "time": 158.8139534883721,
          "velocity": 0.23622047244094488
        },
        {
          "duration": 0.17441860465115155,
          "durationTicks": 15,
          "midi": 67,
          "name": "G4",
          "ticks": 13662,
          "time": 158.86046511627907,
          "velocity": 0.1889763779527559
        },
        {
          "duration": 1.197674418604663,
          "durationTicks": 103,
          "midi": 69,
          "name": "A4",
          "ticks": 13663,
          "time": 158.87209302325581,
          "velocity": 0.2992125984251969
        },
        {
          "duration": 0.4418604651162923,
          "durationTicks": 38,
          "midi": 85,
          "name": "C#6",
          "ticks": 13666,
          "time": 158.90697674418604,
          "velocity": 0.11811023622047244
        },
        {
          "duration": 0.023255813953511506,
          "durationTicks": 2,
          "midi": 45,
          "name": "A2",
          "ticks": 13668,
          "time": 158.93023255813952,
          "velocity": 0.23622047244094488
        },
        {
          "duration": 0.09302325581393234,
          "durationTicks": 8,
          "midi": 50,
          "name": "D3",
          "ticks": 13669,
          "time": 158.9418604651163,
          "velocity": 0.2204724409448819
        },
        {
          "duration": 0.05813953488370771,
          "durationTicks": 5,
          "midi": 83,
          "name": "B5",
          "ticks": 13670,
          "time": 158.95348837209303,
          "velocity": 0.1968503937007874
        },
        {
          "duration": 0.7674418604651123,
          "durationTicks": 66,
          "midi": 81,
          "name": "A5",
          "ticks": 13671,
          "time": 158.96511627906978,
          "velocity": 0.30708661417322836
        },
        {
          "duration": 0.04651162790699459,
          "durationTicks": 4,
          "midi": 83,
          "name": "B5",
          "ticks": 13676,
          "time": 159.02325581395348,
          "velocity": 0.18110236220472442
        },
        {
          "duration": 0.04651162790699459,
          "durationTicks": 4,
          "midi": 50,
          "name": "D3",
          "ticks": 13678,
          "time": 159.04651162790697,
          "velocity": 0.2204724409448819
        },
        {
          "duration": 0.27906976744185386,
          "durationTicks": 24,
          "midi": 83,
          "name": "B5",
          "ticks": 13681,
          "time": 159.08139534883722,
          "velocity": 0.2283464566929134
        },
        {
          "duration": 0.30232558139533694,
          "durationTicks": 26,
          "midi": 67,
          "name": "G4",
          "ticks": 13683,
          "time": 159.1046511627907,
          "velocity": 0.2677165354330709
        },
        {
          "duration": 0.25581395348837077,
          "durationTicks": 22,
          "midi": 88,
          "name": "E6",
          "ticks": 13684,
          "time": 159.11627906976744,
          "velocity": 0.14173228346456693
        },
        {
          "duration": 0.023255813953483084,
          "durationTicks": 2,
          "midi": 45,
          "name": "A2",
          "ticks": 13685,
          "time": 159.12790697674419,
          "velocity": 0.3937007874015748
        },
        {
          "duration": 0.05813953488370771,
          "durationTicks": 5,
          "midi": 58,
          "name": "A#3",
          "ticks": 13685,
          "time": 159.12790697674419,
          "velocity": 0.2755905511811024
        },
        {
          "duration": 0.023255813953483084,
          "durationTicks": 2,
          "midi": 43,
          "name": "G2",
          "ticks": 13688,
          "time": 159.1627906976744,
          "velocity": 0.2283464566929134
        },
        {
          "duration": 0.08139534883721922,
          "durationTicks": 7,
          "midi": 50,
          "name": "D3",
          "ticks": 13689,
          "time": 159.17441860465115,
          "velocity": 0.30708661417322836
        },
        {
          "duration": 0.05813953488370771,
          "durationTicks": 5,
          "midi": 58,
          "name": "A#3",
          "ticks": 13692,
          "time": 159.2093023255814,
          "velocity": 0.2755905511811024
        },
        {
          "duration": 0.023255813953483084,
          "durationTicks": 2,
          "midi": 50,
          "name": "D3",
          "ticks": 13697,
          "time": 159.2674418604651,
          "velocity": 0.28346456692913385
        },
        {
          "duration": 0.04651162790699459,
          "durationTicks": 4,
          "midi": 50,
          "name": "D3",
          "ticks": 13700,
          "time": 159.30232558139534,
          "velocity": 0.28346456692913385
        },
        {
          "duration": 0.06976744186044925,
          "durationTicks": 6,
          "midi": 58,
          "name": "A#3",
          "ticks": 13701,
          "time": 159.3139534883721,
          "velocity": 0.25984251968503935
        },
        {
          "duration": 0.27906976744185386,
          "durationTicks": 24,
          "midi": 84,
          "name": "C6",
          "ticks": 13703,
          "time": 159.3372093023256,
          "velocity": 0.33858267716535434
        },
        {
          "duration": 0.15116279069766847,
          "durationTicks": 13,
          "midi": 50,
          "name": "D3",
          "ticks": 13706,
          "time": 159.37209302325581,
          "velocity": 0.31496062992125984
        },
        {
          "duration": 0.13953488372092693,
          "durationTicks": 12,
          "midi": 58,
          "name": "A#3",
          "ticks": 13709,
          "time": 159.40697674418604,
          "velocity": 0.2677165354330709
        },
        {
          "duration": 0.04651162790699459,
          "durationTicks": 4,
          "midi": 65,
          "name": "F4",
          "ticks": 13710,
          "time": 159.41860465116278,
          "velocity": 0.11811023622047244
        },
        {
          "duration": 0.09302325581396076,
          "durationTicks": 8,
          "midi": 67,
          "name": "G4",
          "ticks": 13710,
          "time": 159.41860465116278,
          "velocity": 0.1968503937007874
        },
        {
          "duration": 0.11627906976744384,
          "durationTicks": 10,
          "midi": 83,
          "name": "B5",
          "ticks": 13710,
          "time": 159.41860465116278,
          "velocity": 0.14960629921259844
        },
        {
          "duration": 0.023255813953483084,
          "durationTicks": 2,
          "midi": 44,
          "name": "G#2",
          "ticks": 13714,
          "time": 159.46511627906978,
          "velocity": 0.25196850393700787
        },
        {
          "duration": 0.7558139534883708,
          "durationTicks": 65,
          "midi": 67,
          "name": "G4",
          "ticks": 13719,
          "time": 159.52325581395348,
          "velocity": 0.30708661417322836
        },
        {
          "duration": 0.023255813953483084,
          "durationTicks": 2,
          "midi": 50,
          "name": "D3",
          "ticks": 13720,
          "time": 159.53488372093022,
          "velocity": 0.25984251968503935
        },
        {
          "duration": 0.2906976744186238,
          "durationTicks": 25,
          "midi": 83,
          "name": "B5",
          "ticks": 13721,
          "time": 159.54651162790697,
          "velocity": 0.2125984251968504
        },
        {
          "duration": 0.4418604651162923,
          "durationTicks": 38,
          "midi": 58,
          "name": "A#3",
          "ticks": 13722,
          "time": 159.5581395348837,
          "velocity": 0.3228346456692913
        },
        {
          "duration": 0.023255813953483084,
          "durationTicks": 2,
          "midi": 45,
          "name": "A2",
          "ticks": 13723,
          "time": 159.56976744186048,
          "velocity": 0.29133858267716534
        },
        {
          "duration": 0.023255813953483084,
          "durationTicks": 2,
          "midi": 55,
          "name": "G3",
          "ticks": 13724,
          "time": 159.58139534883722,
          "velocity": 0.25984251968503935
        },
        {
          "duration": 0.034883720930224626,
          "durationTicks": 3,
          "midi": 45,
          "name": "A2",
          "ticks": 13726,
          "time": 159.6046511627907,
          "velocity": 0.33070866141732286
        },
        {
          "duration": 0.12790697674418539,
          "durationTicks": 11,
          "midi": 88,
          "name": "E6",
          "ticks": 13732,
          "time": 159.67441860465115,
          "velocity": 0.07086614173228346
        },
        {
          "duration": 0.034883720930224626,
          "durationTicks": 3,
          "midi": 45,
          "name": "A2",
          "ticks": 13735,
          "time": 159.7093023255814,
          "velocity": 0.23622047244094488
        },
        {
          "duration": 0.023255813953483084,
          "durationTicks": 2,
          "midi": 55,
          "name": "G3",
          "ticks": 13738,
          "time": 159.74418604651163,
          "velocity": 0.23622047244094488
        },
        {
          "duration": 0.023255813953483084,
          "durationTicks": 2,
          "midi": 45,
          "name": "A2",
          "ticks": 13740,
          "time": 159.7674418604651,
          "velocity": 0.25984251968503935
        },
        {
          "duration": 0.034883720930224626,
          "durationTicks": 3,
          "midi": 65,
          "name": "F4",
          "ticks": 13748,
          "time": 159.86046511627907,
          "velocity": 0.2047244094488189
        },
        {
          "duration": 0.04651162790696617,
          "durationTicks": 4,
          "midi": 83,
          "name": "B5",
          "ticks": 13748,
          "time": 159.86046511627907,
          "velocity": 0.1968503937007874
        },
        {
          "duration": 0.33720930232559,
          "durationTicks": 29,
          "midi": 83,
          "name": "B5",
          "ticks": 13753,
          "time": 159.91860465116278,
          "velocity": 0.23622047244094488
        },
        {
          "duration": 0.034883720930224626,
          "durationTicks": 3,
          "midi": 65,
          "name": "F4",
          "ticks": 13758,
          "time": 159.97674418604652,
          "velocity": 0.1732283464566929
        },
        {
          "duration": 0.04651162790696617,
          "durationTicks": 4,
          "midi": 46,
          "name": "A#2",
          "ticks": 13760,
          "time": 160,
          "velocity": 0.3228346456692913
        },
        {
          "duration": 0.03488372093025305,
          "durationTicks": 3,
          "midi": 45,
          "name": "A2",
          "ticks": 13764,
          "time": 160.04651162790697,
          "velocity": 0.3937007874015748
        },
        {
          "duration": 0.06976744186044925,
          "durationTicks": 6,
          "midi": 55,
          "name": "G3",
          "ticks": 13766,
          "time": 160.06976744186048,
          "velocity": 0.28346456692913385
        },
        {
          "duration": 0.6046511627906739,
          "durationTicks": 52,
          "midi": 88,
          "name": "E6",
          "ticks": 13766,
          "time": 160.06976744186048,
          "velocity": 0.29133858267716534
        },
        {
          "duration": 0.034883720930224626,
          "durationTicks": 3,
          "midi": 69,
          "name": "A4",
          "ticks": 13767,
          "time": 160.08139534883722,
          "velocity": 0.25984251968503935
        },
        {
          "duration": 0.06976744186044925,
          "durationTicks": 6,
          "midi": 77,
          "name": "F5",
          "ticks": 13767,
          "time": 160.08139534883722,
          "velocity": 0.12598425196850394
        },
        {
          "duration": 0.034883720930224626,
          "durationTicks": 3,
          "midi": 62,
          "name": "D4",
          "ticks": 13768,
          "time": 160.09302325581396,
          "velocity": 0.11811023622047244
        },
        {
          "duration": 0.034883720930224626,
          "durationTicks": 3,
          "midi": 84,
          "name": "C6",
          "ticks": 13768,
          "time": 160.09302325581396,
          "velocity": 0.11023622047244094
        },
        {
          "duration": 0.023255813953483084,
          "durationTicks": 2,
          "midi": 69,
          "name": "A4",
          "ticks": 13771,
          "time": 160.12790697674419,
          "velocity": 0.23622047244094488
        },
        {
          "duration": 0.05813953488373613,
          "durationTicks": 5,
          "midi": 62,
          "name": "D4",
          "ticks": 13772,
          "time": 160.13953488372093,
          "velocity": 0.14173228346456693
        },
        {
          "duration": 0.06976744186047767,
          "durationTicks": 6,
          "midi": 55,
          "name": "G3",
          "ticks": 13773,
          "time": 160.15116279069767,
          "velocity": 0.28346456692913385
        },
        {
          "duration": 0.023255813953483084,
          "durationTicks": 2,
          "midi": 45,
          "name": "A2",
          "ticks": 13778,
          "time": 160.2093023255814,
          "velocity": 0.29133858267716534
        },
        {
          "duration": 0.04651162790696617,
          "durationTicks": 4,
          "midi": 69,
          "name": "A4",
          "ticks": 13778,
          "time": 160.2093023255814,
          "velocity": 0.2283464566929134
        },
        {
          "duration": 0.034883720930224626,
          "durationTicks": 3,
          "midi": 77,
          "name": "F5",
          "ticks": 13778,
          "time": 160.2093023255814,
          "velocity": 0.10236220472440945
        },
        {
          "duration": 0.05813953488370771,
          "durationTicks": 5,
          "midi": 55,
          "name": "G3",
          "ticks": 13780,
          "time": 160.2325581395349,
          "velocity": 0.25196850393700787
        },
        {
          "duration": 0.4302325581395223,
          "durationTicks": 37,
          "midi": 81,
          "name": "A5",
          "ticks": 13780,
          "time": 160.2325581395349,
          "velocity": 0.2440944881889764
        },
        {
          "duration": 0.45348837209303383,
          "durationTicks": 39,
          "midi": 77,
          "name": "F5",
          "ticks": 13782,
          "time": 160.25581395348837,
          "velocity": 0.3937007874015748
        },
        {
          "duration": 0.34883720930233153,
          "durationTicks": 30,
          "midi": 91,
          "name": "G6",
          "ticks": 13782,
          "time": 160.25581395348837,
          "velocity": 0.14960629921259844
        },
        {
          "duration": 0.023255813953483084,
          "durationTicks": 2,
          "midi": 44,
          "name": "G#2",
          "ticks": 13783,
          "time": 160.2674418604651,
          "velocity": 0.2677165354330709
        },
        {
          "duration": 0.25581395348837077,
          "durationTicks": 22,
          "midi": 65,
          "name": "F4",
          "ticks": 13783,
          "time": 160.2674418604651,
          "velocity": 0.36220472440944884
        },
        {
          "duration": 0.2093023255814046,
          "durationTicks": 18,
          "midi": 72,
          "name": "C5",
          "ticks": 13783,
          "time": 160.2674418604651,
          "velocity": 0.16535433070866143
        },
        {
          "duration": 1.5813953488372192,
          "durationTicks": 136,
          "midi": 74,
          "name": "D5",
          "ticks": 13783,
          "time": 160.2674418604651,
          "velocity": 0.49606299212598426
        },
        {
          "duration": 0.11627906976744384,
          "durationTicks": 10,
          "midi": 83,
          "name": "B5",
          "ticks": 13783,
          "time": 160.2674418604651,
          "velocity": 0.11023622047244094
        },
        {
          "duration": 0.13953488372092693,
          "durationTicks": 12,
          "midi": 53,
          "name": "F3",
          "ticks": 13785,
          "time": 160.2906976744186,
          "velocity": 0.29133858267716534
        },
        {
          "duration": 0.25581395348837077,
          "durationTicks": 22,
          "midi": 87,
          "name": "D#6",
          "ticks": 13786,
          "time": 160.30232558139534,
          "velocity": 0.33858267716535434
        },
        {
          "duration": 0.04651162790696617,
          "durationTicks": 4,
          "midi": 60,
          "name": "C4",
          "ticks": 13787,
          "time": 160.3139534883721,
          "velocity": 0.16535433070866143
        },
        {
          "duration": 0.034883720930224626,
          "durationTicks": 3,
          "midi": 82,
          "name": "A#5",
          "ticks": 13788,
          "time": 160.32558139534885,
          "velocity": 0.11023622047244094
        },
        {
          "duration": 0.1046511627907023,
          "durationTicks": 9,
          "midi": 48,
          "name": "C3",
          "ticks": 13792,
          "time": 160.37209302325581,
          "velocity": 0.2440944881889764
        },
        {
          "duration": 0.034883720930224626,
          "durationTicks": 3,
          "midi": 57,
          "name": "A3",
          "ticks": 13792,
          "time": 160.37209302325581,
          "velocity": 0.18110236220472442
        },
        {
          "duration": 0.04651162790699459,
          "durationTicks": 4,
          "midi": 57,
          "name": "A3",
          "ticks": 13796,
          "time": 160.41860465116278,
          "velocity": 0.15748031496062992
        },
        {
          "duration": 0.38372093023255616,
          "durationTicks": 33,
          "midi": 83,
          "name": "B5",
          "ticks": 13801,
          "time": 160.47674418604652,
          "velocity": 0.18110236220472442
        },
        {
          "duration": 0.06976744186044925,
          "durationTicks": 6,
          "midi": 48,
          "name": "C3",
          "ticks": 13802,
          "time": 160.48837209302326,
          "velocity": 0.33858267716535434
        },
        {
          "duration": 0.24418604651162923,
          "durationTicks": 21,
          "midi": 84,
          "name": "C6",
          "ticks": 13802,
          "time": 160.48837209302326,
          "velocity": 0.11811023622047244
        },
        {
          "duration": 1.5930232558139608,
          "durationTicks": 137,
          "midi": 67,
          "name": "G4",
          "ticks": 13803,
          "time": 160.5,
          "velocity": 0.4251968503937008
        },
        {
          "duration": 0.023255813953483084,
          "durationTicks": 2,
          "midi": 64,
          "name": "E4",
          "ticks": 13805,
          "time": 160.52325581395348,
          "velocity": 0.28346456692913385
        },
        {
          "duration": 0.24418604651162923,
          "durationTicks": 21,
          "midi": 89,
          "name": "F6",
          "ticks": 13806,
          "time": 160.53488372093022,
          "velocity": 0.4015748031496063
        },
        {
          "duration": 0.03488372093025305,
          "durationTicks": 3,
          "midi": 65,
          "name": "F4",
          "ticks": 13807,
          "time": 160.54651162790697,
          "velocity": 0.33858267716535434
        },
        {
          "duration": 0.023255813953483084,
          "durationTicks": 2,
          "midi": 48,
          "name": "C3",
          "ticks": 13809,
          "time": 160.56976744186048,
          "velocity": 0.25984251968503935
        },
        {
          "duration": 0.32558139534882,
          "durationTicks": 28,
          "midi": 48,
          "name": "C3",
          "ticks": 13812,
          "time": 160.6046511627907,
          "velocity": 0.30708661417322836
        },
        {
          "duration": 0.023255813953483084,
          "durationTicks": 2,
          "midi": 65,
          "name": "F4",
          "ticks": 13812,
          "time": 160.6046511627907,
          "velocity": 0.2992125984251969
        },
        {
          "duration": 0.023255813953483084,
          "durationTicks": 2,
          "midi": 65,
          "name": "F4",
          "ticks": 13816,
          "time": 160.65116279069767,
          "velocity": 0.29133858267716534
        },
        {
          "duration": 0.05813953488373613,
          "durationTicks": 5,
          "midi": 81,
          "name": "A5",
          "ticks": 13819,
          "time": 160.6860465116279,
          "velocity": 0.07086614173228346
        },
        {
          "duration": 0.19767441860463464,
          "durationTicks": 17,
          "midi": 90,
          "name": "F#6",
          "ticks": 13820,
          "time": 160.69767441860466,
          "velocity": 0.4094488188976378
        },
        {
          "duration": 0.2325581395348877,
          "durationTicks": 20,
          "midi": 76,
          "name": "E5",
          "ticks": 13821,
          "time": 160.7093023255814,
          "velocity": 0.4015748031496063
        },
        {
          "duration": 0.09302325581396076,
          "durationTicks": 8,
          "midi": 57,
          "name": "A3",
          "ticks": 13822,
          "time": 160.72093023255815,
          "velocity": 0.16535433070866143
        },
        {
          "duration": 0.12790697674418539,
          "durationTicks": 11,
          "midi": 72,
          "name": "C5",
          "ticks": 13822,
          "time": 160.72093023255815,
          "velocity": 0.23622047244094488
        },
        {
          "duration": 0.034883720930224626,
          "durationTicks": 3,
          "midi": 65,
          "name": "F4",
          "ticks": 13825,
          "time": 160.75581395348837,
          "velocity": 0.2677165354330709
        },
        {
          "duration": 0.023255813953511506,
          "durationTicks": 2,
          "midi": 65,
          "name": "F4",
          "ticks": 13829,
          "time": 160.80232558139534,
          "velocity": 0.30708661417322836
        },
        {
          "duration": 0.11627906976741542,
          "durationTicks": 10,
          "midi": 89,
          "name": "F6",
          "ticks": 13830,
          "time": 160.8139534883721,
          "velocity": 0.29133858267716534
        },
        {
          "duration": 0.10465116279067388,
          "durationTicks": 9,
          "midi": 64,
          "name": "E4",
          "ticks": 13831,
          "time": 160.82558139534885,
          "velocity": 0.2992125984251969
        },
        {
          "duration": 0.08139534883721922,
          "durationTicks": 7,
          "midi": 72,
          "name": "C5",
          "ticks": 13834,
          "time": 160.86046511627907,
          "velocity": 0.11811023622047244
        },
        {
          "duration": 1.197674418604663,
          "durationTicks": 103,
          "midi": 83,
          "name": "B5",
          "ticks": 13838,
          "time": 160.90697674418604,
          "velocity": 0.2677165354330709
        },
        {
          "duration": 0.7209302325581461,
          "durationTicks": 62,
          "midi": 91,
          "name": "G6",
          "ticks": 13839,
          "time": 160.91860465116278,
          "velocity": 0.3779527559055118
        },
        {
          "duration": 0.03488372093025305,
          "durationTicks": 3,
          "midi": 47,
          "name": "B2",
          "ticks": 13840,
          "time": 160.93023255813952,
          "velocity": 0.28346456692913385
        },
        {
          "duration": 0.24418604651162923,
          "durationTicks": 21,
          "midi": 60,
          "name": "C4",
          "ticks": 13840,
          "time": 160.93023255813952,
          "velocity": 0.33858267716535434
        },
        {
          "duration": 0.25581395348837077,
          "durationTicks": 22,
          "midi": 77,
          "name": "F5",
          "ticks": 13840,
          "time": 160.93023255813952,
          "velocity": 0.4330708661417323
        },
        {
          "duration": 0.6860465116279215,
          "durationTicks": 59,
          "midi": 81,
          "name": "A5",
          "ticks": 13840,
          "time": 160.93023255813952,
          "velocity": 0.25984251968503935
        },
        {
          "duration": 0.3139534883721069,
          "durationTicks": 27,
          "midi": 90,
          "name": "F#6",
          "ticks": 13840,
          "time": 160.93023255813952,
          "velocity": 0.3779527559055118
        },
        {
          "duration": 0.22093023255811772,
          "durationTicks": 19,
          "midi": 69,
          "name": "A4",
          "ticks": 13841,
          "time": 160.9418604651163,
          "velocity": 0.3543307086614173
        },
        {
          "duration": 0.48837209302325846,
          "durationTicks": 42,
          "midi": 48,
          "name": "C3",
          "ticks": 13844,
          "time": 160.97674418604652,
          "velocity": 0.4015748031496063
        },
        {
          "duration": 0.19767441860463464,
          "durationTicks": 17,
          "midi": 64,
          "name": "E4",
          "ticks": 13844,
          "time": 160.97674418604652,
          "velocity": 0.2992125984251969
        },
        {
          "duration": 0.023255813953483084,
          "durationTicks": 2,
          "midi": 55,
          "name": "G3",
          "ticks": 13848,
          "time": 161.02325581395348,
          "velocity": 0.2440944881889764
        },
        {
          "duration": 0.03488372093025305,
          "durationTicks": 3,
          "midi": 84,
          "name": "C6",
          "ticks": 13849,
          "time": 161.03488372093022,
          "velocity": 0.07086614173228346
        },
        {
          "duration": 0.06976744186044925,
          "durationTicks": 6,
          "midi": 55,
          "name": "G3",
          "ticks": 13854,
          "time": 161.09302325581396,
          "velocity": 0.2125984251968504
        },
        {
          "duration": 1.2209302325581461,
          "durationTicks": 105,
          "midi": 72,
          "name": "C5",
          "ticks": 13858,
          "time": 161.13953488372093,
          "velocity": 0.48031496062992124
        },
        {
          "duration": 0.6395348837209269,
          "durationTicks": 55,
          "midi": 79,
          "name": "G5",
          "ticks": 13859,
          "time": 161.15116279069767,
          "velocity": 0.47244094488188976
        },
        {
          "duration": 0.12790697674418539,
          "durationTicks": 11,
          "midi": 88,
          "name": "E6",
          "ticks": 13860,
          "time": 161.1627906976744,
          "velocity": 0.2125984251968504
        },
        {
          "duration": 0.534883720930253,
          "durationTicks": 46,
          "midi": 92,
          "name": "G#6",
          "ticks": 13860,
          "time": 161.1627906976744,
          "velocity": 0.3543307086614173
        },
        {
          "duration": 0.5581395348837361,
          "durationTicks": 48,
          "midi": 76,
          "name": "E5",
          "ticks": 13861,
          "time": 161.17441860465115,
          "velocity": 0.3937007874015748
        },
        {
          "duration": 0.12790697674418539,
          "durationTicks": 11,
          "midi": 89,
          "name": "F6",
          "ticks": 13870,
          "time": 161.27906976744185,
          "velocity": 0.11023622047244094
        },
        {
          "duration": 0.1046511627907023,
          "durationTicks": 9,
          "midi": 64,
          "name": "E4",
          "ticks": 13871,
          "time": 161.2906976744186,
          "velocity": 0.2283464566929134
        },
        {
          "duration": 0.034883720930224626,
          "durationTicks": 3,
          "midi": 55,
          "name": "G3",
          "ticks": 13878,
          "time": 161.37209302325581,
          "velocity": 0.2125984251968504
        },
        {
          "duration": 0.034883720930224626,
          "durationTicks": 3,
          "midi": 69,
          "name": "A4",
          "ticks": 13880,
          "time": 161.3953488372093,
          "velocity": 0.18110236220472442
        },
        {
          "duration": 0.08139534883721922,
          "durationTicks": 7,
          "midi": 90,
          "name": "F#6",
          "ticks": 13880,
          "time": 161.3953488372093,
          "velocity": 0.1732283464566929
        },
        {
          "duration": 0.05813953488373613,
          "durationTicks": 5,
          "midi": 55,
          "name": "G3",
          "ticks": 13882,
          "time": 161.41860465116278,
          "velocity": 0.29133858267716534
        },
        {
          "duration": 0.05813953488373613,
          "durationTicks": 5,
          "midi": 64,
          "name": "E4",
          "ticks": 13882,
          "time": 161.41860465116278,
          "velocity": 0.2440944881889764
        },
        {
          "duration": 0.023255813953483084,
          "durationTicks": 2,
          "midi": 49,
          "name": "C#3",
          "ticks": 13886,
          "time": 161.46511627906978,
          "velocity": 0.3228346456692913
        },
        {
          "duration": 0.023255813953483084,
          "durationTicks": 2,
          "midi": 47,
          "name": "B2",
          "ticks": 13888,
          "time": 161.48837209302326,
          "velocity": 0.2677165354330709
        },
        {
          "duration": 0.15116279069766847,
          "durationTicks": 13,
          "midi": 55,
          "name": "G3",
          "ticks": 13888,
          "time": 161.48837209302326,
          "velocity": 0.28346456692913385
        },
        {
          "duration": 0.023255813953483084,
          "durationTicks": 2,
          "midi": 62,
          "name": "D4",
          "ticks": 13888,
          "time": 161.48837209302326,
          "velocity": 0.25984251968503935
        },
        {
          "duration": 0.05813953488370771,
          "durationTicks": 5,
          "midi": 89,
          "name": "F6",
          "ticks": 13889,
          "time": 161.5,
          "velocity": 0.07874015748031496
        },
        {
          "duration": 0.11627906976744384,
          "durationTicks": 10,
          "midi": 90,
          "name": "F#6",
          "ticks": 13889,
          "time": 161.5,
          "velocity": 0.14960629921259844
        },
        {
          "duration": 0.13953488372092693,
          "durationTicks": 12,
          "midi": 93,
          "name": "A6",
          "ticks": 13889,
          "time": 161.5,
          "velocity": 0.3779527559055118
        },
        {
          "duration": 0.023255813953483084,
          "durationTicks": 2,
          "midi": 48,
          "name": "C3",
          "ticks": 13890,
          "time": 161.51162790697674,
          "velocity": 0.33858267716535434
        },
        {
          "duration": 0.1046511627907023,
          "durationTicks": 9,
          "midi": 62,
          "name": "D4",
          "ticks": 13891,
          "time": 161.52325581395348,
          "velocity": 0.33858267716535434
        },
        {
          "duration": 0.023255813953511506,
          "durationTicks": 2,
          "midi": 47,
          "name": "B2",
          "ticks": 13894,
          "time": 161.5581395348837,
          "velocity": 0.25196850393700787
        },
        {
          "duration": 0.023255813953483084,
          "durationTicks": 2,
          "midi": 49,
          "name": "C#3",
          "ticks": 13897,
          "time": 161.59302325581396,
          "velocity": 0.33858267716535434
        },
        {
          "duration": 0.17441860465115155,
          "durationTicks": 15,
          "midi": 94,
          "name": "A#6",
          "ticks": 13898,
          "time": 161.6046511627907,
          "velocity": 0.4015748031496063
        },
        {
          "duration": 0.11627906976744384,
          "durationTicks": 10,
          "midi": 82,
          "name": "A#5",
          "ticks": 13900,
          "time": 161.62790697674419,
          "velocity": 0.09448818897637795
        },
        {
          "duration": 0.04651162790696617,
          "durationTicks": 4,
          "midi": 90,
          "name": "F#6",
          "ticks": 13900,
          "time": 161.62790697674419,
          "velocity": 0.12598425196850394
        },
        {
          "duration": 0.04651162790696617,
          "durationTicks": 4,
          "midi": 48,
          "name": "C3",
          "ticks": 13901,
          "time": 161.63953488372093,
          "velocity": 0.3937007874015748
        },
        {
          "duration": 0.11627906976744384,
          "durationTicks": 10,
          "midi": 55,
          "name": "G3",
          "ticks": 13902,
          "time": 161.65116279069767,
          "velocity": 0.2677165354330709
        },
        {
          "duration": 0.1046511627907023,
          "durationTicks": 9,
          "midi": 62,
          "name": "D4",
          "ticks": 13903,
          "time": 161.6627906976744,
          "velocity": 0.2204724409448819
        },
        {
          "duration": 0.023255813953511506,
          "durationTicks": 2,
          "midi": 47,
          "name": "B2",
          "ticks": 13905,
          "time": 161.6860465116279,
          "velocity": 0.30708661417322836
        },
        {
          "duration": 0.034883720930224626,
          "durationTicks": 3,
          "midi": 90,
          "name": "F#6",
          "ticks": 13906,
          "time": 161.69767441860466,
          "velocity": 0.14960629921259844
        },
        {
          "duration": 0.32558139534882,
          "durationTicks": 28,
          "midi": 93,
          "name": "A6",
          "ticks": 13908,
          "time": 161.72093023255815,
          "velocity": 0.4015748031496063
        },
        {
          "duration": 0.023255813953483084,
          "durationTicks": 2,
          "midi": 48,
          "name": "C3",
          "ticks": 13909,
          "time": 161.7325581395349,
          "velocity": 0.2992125984251969
        },
        {
          "duration": 1.0116279069767415,
          "durationTicks": 87,
          "midi": 64,
          "name": "E4",
          "ticks": 13911,
          "time": 161.75581395348837,
          "velocity": 0.3700787401574803
        },
        {
          "duration": 0.034883720930224626,
          "durationTicks": 3,
          "midi": 48,
          "name": "C3",
          "ticks": 13912,
          "time": 161.7674418604651,
          "velocity": 0.3543307086614173
        },
        {
          "duration": 0.034883720930224626,
          "durationTicks": 3,
          "midi": 69,
          "name": "A4",
          "ticks": 13912,
          "time": 161.7674418604651,
          "velocity": 0.10236220472440945
        },
        {
          "duration": 0.3139534883721069,
          "durationTicks": 27,
          "midi": 90,
          "name": "F#6",
          "ticks": 13912,
          "time": 161.7674418604651,
          "velocity": 0.2204724409448819
        },
        {
          "duration": 0.023255813953483084,
          "durationTicks": 2,
          "midi": 55,
          "name": "G3",
          "ticks": 13913,
          "time": 161.77906976744185,
          "velocity": 0.25196850393700787
        },
        {
          "duration": 0.023255813953483084,
          "durationTicks": 2,
          "midi": 51,
          "name": "D#3",
          "ticks": 13916,
          "time": 161.8139534883721,
          "velocity": 0.3464566929133858
        },
        {
          "duration": 0.034883720930224626,
          "durationTicks": 3,
          "midi": 48,
          "name": "C3",
          "ticks": 13918,
          "time": 161.8372093023256,
          "velocity": 0.3543307086614173
        },
        {
          "duration": 0.5697674418604493,
          "durationTicks": 49,
          "midi": 60,
          "name": "C4",
          "ticks": 13918,
          "time": 161.8372093023256,
          "velocity": 0.4015748031496063
        },
        {
          "duration": 0.17441860465115155,
          "durationTicks": 15,
          "midi": 94,
          "name": "A#6",
          "ticks": 13918,
          "time": 161.8372093023256,
          "velocity": 0.4094488188976378
        },
        {
          "duration": 0.22093023255814614,
          "durationTicks": 19,
          "midi": 55,
          "name": "G3",
          "ticks": 13921,
          "time": 161.87209302325581,
          "velocity": 0.25196850393700787
        },
        {
          "duration": 0.19767441860466306,
          "durationTicks": 17,
          "midi": 74,
          "name": "D5",
          "ticks": 13921,
          "time": 161.87209302325581,
          "velocity": 0.09448818897637795
        },
        {
          "duration": 0.023255813953483084,
          "durationTicks": 2,
          "midi": 49,
          "name": "C#3",
          "ticks": 13923,
          "time": 161.8953488372093,
          "velocity": 0.33070866141732286
        },
        {
          "duration": 0.023255813953511506,
          "durationTicks": 2,
          "midi": 47,
          "name": "B2",
          "ticks": 13926,
          "time": 161.93023255813952,
          "velocity": 0.28346456692913385
        },
        {
          "duration": 0.15116279069766847,
          "durationTicks": 13,
          "midi": 95,
          "name": "B6",
          "ticks": 13928,
          "time": 161.95348837209303,
          "velocity": 0.3543307086614173
        },
        {
          "duration": 0.023255813953483084,
          "durationTicks": 2,
          "midi": 48,
          "name": "C3",
          "ticks": 13930,
          "time": 161.97674418604652,
          "velocity": 0.33070866141732286
        },
        {
          "duration": 0.05813953488373613,
          "durationTicks": 5,
          "midi": 48,
          "name": "C3",
          "ticks": 13933,
          "time": 162.01162790697674,
          "velocity": 0.3543307086614173
        },
        {
          "duration": 0.6395348837209269,
          "durationTicks": 55,
          "midi": 81,
          "name": "A5",
          "ticks": 13938,
          "time": 162.06976744186048,
          "velocity": 0.2992125984251969
        },
        {
          "duration": 0.0813953488371908,
          "durationTicks": 7,
          "midi": 91,
          "name": "G6",
          "ticks": 13938,
          "time": 162.06976744186048,
          "velocity": 0.12598425196850394
        },
        {
          "duration": 0.13953488372092693,
          "durationTicks": 12,
          "midi": 96,
          "name": "C7",
          "ticks": 13938,
          "time": 162.06976744186048,
          "velocity": 0.3937007874015748
        },
        {
          "duration": 0.5697674418604493,
          "durationTicks": 49,
          "midi": 69,
          "name": "A4",
          "ticks": 13939,
          "time": 162.08139534883722,
          "velocity": 0.33070866141732286
        },
        {
          "duration": 0.034883720930224626,
          "durationTicks": 3,
          "midi": 74,
          "name": "D5",
          "ticks": 13940,
          "time": 162.09302325581396,
          "velocity": 0.07086614173228346
        },
        {
          "duration": 0.1046511627907023,
          "durationTicks": 9,
          "midi": 86,
          "name": "D6",
          "ticks": 13940,
          "time": 162.09302325581396,
          "velocity": 0.14960629921259844
        },
        {
          "duration": 0.08139534883721922,
          "durationTicks": 7,
          "midi": 83,
          "name": "B5",
          "ticks": 13943,
          "time": 162.12790697674419,
          "velocity": 0.1889763779527559
        },
        {
          "duration": 0.04651162790699459,
          "durationTicks": 4,
          "midi": 52,
          "name": "E3",
          "ticks": 13946,
          "time": 162.1627906976744,
          "velocity": 0.2283464566929134
        },
        {
          "duration": 0.16279069767443843,
          "durationTicks": 14,
          "midi": 45,
          "name": "A2",
          "ticks": 13948,
          "time": 162.1860465116279,
          "velocity": 0.4251968503937008
        },
        {
          "duration": 0.27906976744185386,
          "durationTicks": 24,
          "midi": 83,
          "name": "B5",
          "ticks": 13956,
          "time": 162.27906976744185,
          "velocity": 0.23622047244094488
        },
        {
          "duration": 0.09302325581393234,
          "durationTicks": 8,
          "midi": 85,
          "name": "C#6",
          "ticks": 13960,
          "time": 162.32558139534885,
          "velocity": 0.10236220472440945
        },
        {
          "duration": 0.04651162790696617,
          "durationTicks": 4,
          "midi": 52,
          "name": "E3",
          "ticks": 13961,
          "time": 162.3372093023256,
          "velocity": 0.2677165354330709
        },
        {
          "duration": 0.09302325581396076,
          "durationTicks": 8,
          "midi": 86,
          "name": "D6",
          "ticks": 13962,
          "time": 162.34883720930233,
          "velocity": 0.13385826771653545
        },
        {
          "duration": 0.12790697674418539,
          "durationTicks": 11,
          "midi": 45,
          "name": "A2",
          "ticks": 13963,
          "time": 162.36046511627907,
          "velocity": 0.4094488188976378
        },
        {
          "duration": 0.023255813953483084,
          "durationTicks": 2,
          "midi": 71,
          "name": "B4",
          "ticks": 13963,
          "time": 162.36046511627907,
          "velocity": 0.2992125984251969
        },
        {
          "duration": 0.2906976744185954,
          "durationTicks": 25,
          "midi": 72,
          "name": "C5",
          "ticks": 13965,
          "time": 162.38372093023256,
          "velocity": 0.41732283464566927
        },
        {
          "duration": 0.023255813953511506,
          "durationTicks": 2,
          "midi": 52,
          "name": "E3",
          "ticks": 13968,
          "time": 162.41860465116278,
          "velocity": 0.2440944881889764
        },
        {
          "duration": 0.05813953488373613,
          "durationTicks": 5,
          "midi": 60,
          "name": "C4",
          "ticks": 13968,
          "time": 162.41860465116278,
          "velocity": 0.2677165354330709
        },
        {
          "duration": 0.04651162790696617,
          "durationTicks": 4,
          "midi": 67,
          "name": "G4",
          "ticks": 13973,
          "time": 162.47674418604652,
          "velocity": 0.11811023622047244
        },
        {
          "duration": 0.09302325581396076,
          "durationTicks": 8,
          "midi": 91,
          "name": "G6",
          "ticks": 13974,
          "time": 162.48837209302326,
          "velocity": 0.09448818897637795
        },
        {
          "duration": 0.04651162790696617,
          "durationTicks": 4,
          "midi": 45,
          "name": "A2",
          "ticks": 13975,
          "time": 162.5,
          "velocity": 0.3543307086614173
        },
        {
          "duration": 0.04651162790696617,
          "durationTicks": 4,
          "midi": 60,
          "name": "C4",
          "ticks": 13976,
          "time": 162.51162790697674,
          "velocity": 0.2204724409448819
        },
        {
          "duration": 0.03488372093025305,
          "durationTicks": 3,
          "midi": 67,
          "name": "G4",
          "ticks": 13978,
          "time": 162.53488372093022,
          "velocity": 0.11811023622047244
        },
        {
          "duration": 0.03488372093025305,
          "durationTicks": 3,
          "midi": 85,
          "name": "C#6",
          "ticks": 13978,
          "time": 162.53488372093022,
          "velocity": 0.07086614173228346
        },
        {
          "duration": 0.023255813953511506,
          "durationTicks": 2,
          "midi": 46,
          "name": "A#2",
          "ticks": 13979,
          "time": 162.54651162790697,
          "velocity": 0.3228346456692913
        },
        {
          "duration": 0.034883720930224626,
          "durationTicks": 3,
          "midi": 45,
          "name": "A2",
          "ticks": 13983,
          "time": 162.59302325581396,
          "velocity": 0.33070866141732286
        },
        {
          "duration": 0.5,
          "durationTicks": 43,
          "midi": 67,
          "name": "G4",
          "ticks": 13985,
          "time": 162.61627906976744,
          "velocity": 0.3937007874015748
        },
        {
          "duration": 0.034883720930224626,
          "durationTicks": 3,
          "midi": 45,
          "name": "A2",
          "ticks": 13987,
          "time": 162.63953488372093,
          "velocity": 0.3228346456692913
        },
        {
          "duration": 0.5697674418604777,
          "durationTicks": 49,
          "midi": 79,
          "name": "G5",
          "ticks": 13990,
          "time": 162.67441860465115,
          "velocity": 0.4330708661417323
        },
        {
          "duration": 0.04651162790699459,
          "durationTicks": 4,
          "midi": 86,
          "name": "D6",
          "ticks": 13990,
          "time": 162.67441860465115,
          "velocity": 0.08661417322834646
        },
        {
          "duration": 0.03488372093025305,
          "durationTicks": 3,
          "midi": 45,
          "name": "A2",
          "ticks": 13991,
          "time": 162.6860465116279,
          "velocity": 0.30708661417322836
        },
        {
          "duration": 0.30232558139536536,
          "durationTicks": 26,
          "midi": 72,
          "name": "C5",
          "ticks": 13991,
          "time": 162.6860465116279,
          "velocity": 0.4015748031496063
        },
        {
          "duration": 0.034883720930224626,
          "durationTicks": 3,
          "midi": 45,
          "name": "A2",
          "ticks": 13995,
          "time": 162.7325581395349,
          "velocity": 0.28346456692913385
        },
        {
          "duration": 0.08139534883721922,
          "durationTicks": 7,
          "midi": 86,
          "name": "D6",
          "ticks": 13997,
          "time": 162.75581395348837,
          "velocity": 0.15748031496062992
        },
        {
          "duration": 0.04651162790699459,
          "durationTicks": 4,
          "midi": 44,
          "name": "G#2",
          "ticks": 13998,
          "time": 162.7674418604651,
          "velocity": 0.33070866141732286
        },
        {
          "duration": 0.17441860465117998,
          "durationTicks": 15,
          "midi": 90,
          "name": "F#6",
          "ticks": 13998,
          "time": 162.7674418604651,
          "velocity": 0.07874015748031496
        },
        {
          "duration": 0.12790697674418539,
          "durationTicks": 11,
          "midi": 52,
          "name": "E3",
          "ticks": 13999,
          "time": 162.77906976744185,
          "velocity": 0.25984251968503935
        },
        {
          "duration": 0.12790697674418539,
          "durationTicks": 11,
          "midi": 85,
          "name": "C#6",
          "ticks": 14000,
          "time": 162.7906976744186,
          "velocity": 0.11023622047244094
        },
        {
          "duration": 0.18604651162792152,
          "durationTicks": 16,
          "midi": 57,
          "name": "A3",
          "ticks": 14001,
          "time": 162.80232558139534,
          "velocity": 0.2677165354330709
        },
        {
          "duration": 0.17441860465115155,
          "durationTicks": 15,
          "midi": 45,
          "name": "A2",
          "ticks": 14002,
          "time": 162.8139534883721,
          "velocity": 0.3228346456692913
        },
        {
          "duration": 0.15116279069766847,
          "durationTicks": 13,
          "midi": 86,
          "name": "D6",
          "ticks": 14005,
          "time": 162.84883720930233,
          "velocity": 0.11023622047244094
        },
        {
          "duration": 0.04651162790699459,
          "durationTicks": 4,
          "midi": 64,
          "name": "E4",
          "ticks": 14012,
          "time": 162.93023255813952,
          "velocity": 0.08661417322834646
        },
        {
          "duration": 0.04651162790699459,
          "durationTicks": 4,
          "midi": 83,
          "name": "B5",
          "ticks": 14012,
          "time": 162.93023255813952,
          "velocity": 0.10236220472440945
        },
        {
          "duration": 0.034883720930224626,
          "durationTicks": 3,
          "midi": 52,
          "name": "E3",
          "ticks": 14013,
          "time": 162.9418604651163,
          "velocity": 0.18110236220472442
        },
        {
          "duration": 1.2674418604651123,
          "durationTicks": 109,
          "midi": 77,
          "name": "F5",
          "ticks": 14017,
          "time": 162.98837209302326,
          "velocity": 0.4881889763779528
        },
        {
          "duration": 0.5813953488372192,
          "durationTicks": 50,
          "midi": 57,
          "name": "A3",
          "ticks": 14018,
          "time": 163,
          "velocity": 0.28346456692913385
        },
        {
          "duration": 0.15116279069766847,
          "durationTicks": 13,
          "midi": 62,
          "name": "D4",
          "ticks": 14018,
          "time": 163,
          "velocity": 0.3228346456692913
        },
        {
          "duration": 0.48837209302325846,
          "durationTicks": 42,
          "midi": 72,
          "name": "C5",
          "ticks": 14018,
          "time": 163,
          "velocity": 0.4251968503937008
        },
        {
          "duration": 0.09302325581396076,
          "durationTicks": 8,
          "midi": 81,
          "name": "A5",
          "ticks": 14018,
          "time": 163,
          "velocity": 0.11811023622047244
        },
        {
          "duration": 0.22093023255814614,
          "durationTicks": 19,
          "midi": 83,
          "name": "B5",
          "ticks": 14018,
          "time": 163,
          "velocity": 0.13385826771653545
        },
        {
          "duration": 0.04651162790696617,
          "durationTicks": 4,
          "midi": 87,
          "name": "D#6",
          "ticks": 14018,
          "time": 163,
          "velocity": 0.13385826771653545
        },
        {
          "duration": 0.034883720930224626,
          "durationTicks": 3,
          "midi": 53,
          "name": "F3",
          "ticks": 14019,
          "time": 163.01162790697674,
          "velocity": 0.2992125984251969
        },
        {
          "duration": 0.023255813953483084,
          "durationTicks": 2,
          "midi": 53,
          "name": "F3",
          "ticks": 14025,
          "time": 163.08139534883722,
          "velocity": 0.30708661417322836
        },
        {
          "duration": 0.8372093023255616,
          "durationTicks": 72,
          "midi": 65,
          "name": "F4",
          "ticks": 14025,
          "time": 163.08139534883722,
          "velocity": 0.4409448818897638
        },
        {
          "duration": 0.04651162790696617,
          "durationTicks": 4,
          "midi": 87,
          "name": "D#6",
          "ticks": 14025,
          "time": 163.08139534883722,
          "velocity": 0.13385826771653545
        },
        {
          "duration": 0.023255813953483084,
          "durationTicks": 2,
          "midi": 52,
          "name": "E3",
          "ticks": 14027,
          "time": 163.1046511627907,
          "velocity": 0.30708661417322836
        },
        {
          "duration": 0.04651162790696617,
          "durationTicks": 4,
          "midi": 88,
          "name": "E6",
          "ticks": 14029,
          "time": 163.12790697674419,
          "velocity": 0.07874015748031496
        },
        {
          "duration": 0.04651162790699459,
          "durationTicks": 4,
          "midi": 87,
          "name": "D#6",
          "ticks": 14032,
          "time": 163.1627906976744,
          "velocity": 0.11811023622047244
        },
        {
          "duration": 0.023255813953511506,
          "durationTicks": 2,
          "midi": 62,
          "name": "D4",
          "ticks": 14034,
          "time": 163.1860465116279,
          "velocity": 0.23622047244094488
        },
        {
          "duration": 0.023255813953483084,
          "durationTicks": 2,
          "midi": 53,
          "name": "F3",
          "ticks": 14035,
          "time": 163.19767441860466,
          "velocity": 0.2677165354330709
        },
        {
          "duration": 1.1279069767441854,
          "durationTicks": 97,
          "midi": 81,
          "name": "A5",
          "ticks": 14035,
          "time": 163.19767441860466,
          "velocity": 0.31496062992125984
        },
        {
          "duration": 0.04651162790696617,
          "durationTicks": 4,
          "midi": 87,
          "name": "D#6",
          "ticks": 14037,
          "time": 163.22093023255815,
          "velocity": 0.11811023622047244
        },
        {
          "duration": 0.023255813953483084,
          "durationTicks": 2,
          "midi": 51,
          "name": "D#3",
          "ticks": 14038,
          "time": 163.2325581395349,
          "velocity": 0.23622047244094488
        },
        {
          "duration": 0.3604651162790731,
          "durationTicks": 31,
          "midi": 74,
          "name": "D5",
          "ticks": 14038,
          "time": 163.2325581395349,
          "velocity": 0.2125984251968504
        },
        {
          "duration": 0.023255813953483084,
          "durationTicks": 2,
          "midi": 62,
          "name": "D4",
          "ticks": 14039,
          "time": 163.24418604651163,
          "velocity": 0.2755905511811024
        },
        {
          "duration": 0.023255813953483084,
          "durationTicks": 2,
          "midi": 51,
          "name": "D#3",
          "ticks": 14042,
          "time": 163.27906976744185,
          "velocity": 0.25984251968503935
        },
        {
          "duration": 0.023255813953483084,
          "durationTicks": 2,
          "midi": 62,
          "name": "D4",
          "ticks": 14042,
          "time": 163.27906976744185,
          "velocity": 0.2755905511811024
        },
        {
          "duration": 0.6162790697674438,
          "durationTicks": 53,
          "midi": 69,
          "name": "A4",
          "ticks": 14042,
          "time": 163.27906976744185,
          "velocity": 0.3543307086614173
        },
        {
          "duration": 0.25581395348837077,
          "durationTicks": 22,
          "midi": 88,
          "name": "E6",
          "ticks": 14042,
          "time": 163.27906976744185,
          "velocity": 0.14173228346456693
        },
        {
          "duration": 0.04651162790699459,
          "durationTicks": 4,
          "midi": 50,
          "name": "D3",
          "ticks": 14044,
          "time": 163.30232558139534,
          "velocity": 0.25984251968503935
        },
        {
          "duration": 0.05813953488373613,
          "durationTicks": 5,
          "midi": 87,
          "name": "D#6",
          "ticks": 14044,
          "time": 163.30232558139534,
          "velocity": 0.12598425196850394
        },
        {
          "duration": 0.034883720930224626,
          "durationTicks": 3,
          "midi": 38,
          "name": "D2",
          "ticks": 14046,
          "time": 163.32558139534885,
          "velocity": 0.07874015748031496
        },
        {
          "duration": 0.023255813953483084,
          "durationTicks": 2,
          "midi": 51,
          "name": "D#3",
          "ticks": 14052,
          "time": 163.3953488372093,
          "velocity": 0.25984251968503935
        },
        {
          "duration": 0.034883720930224626,
          "durationTicks": 3,
          "midi": 87,
          "name": "D#6",
          "ticks": 14052,
          "time": 163.3953488372093,
          "velocity": 0.11023622047244094
        },
        {
          "duration": 0.26744186046514073,
          "durationTicks": 23,
          "midi": 86,
          "name": "D6",
          "ticks": 14055,
          "time": 163.43023255813952,
          "velocity": 0.33858267716535434
        },
        {
          "duration": 0.1046511627907023,
          "durationTicks": 9,
          "midi": 50,
          "name": "D3",
          "ticks": 14060,
          "time": 163.48837209302326,
          "velocity": 0.2677165354330709
        },
        {
          "duration": 0.04651162790696617,
          "durationTicks": 4,
          "midi": 38,
          "name": "D2",
          "ticks": 14061,
          "time": 163.5,
          "velocity": 0.1732283464566929
        },
        {
          "duration": 0.30232558139536536,
          "durationTicks": 26,
          "midi": 72,
          "name": "C5",
          "ticks": 14063,
          "time": 163.52325581395348,
          "velocity": 0.4251968503937008
        },
        {
          "duration": 0.1046511627907023,
          "durationTicks": 9,
          "midi": 38,
          "name": "D2",
          "ticks": 14066,
          "time": 163.5581395348837,
          "velocity": 0.1889763779527559
        },
        {
          "duration": 0.2674418604651123,
          "durationTicks": 23,
          "midi": 60,
          "name": "C4",
          "ticks": 14069,
          "time": 163.59302325581396,
          "velocity": 0.3700787401574803
        },
        {
          "duration": 1.6976744186046346,
          "durationTicks": 146,
          "midi": 74,
          "name": "D5",
          "ticks": 14070,
          "time": 163.6046511627907,
          "velocity": 0.4330708661417323
        },
        {
          "duration": 0.034883720930224626,
          "durationTicks": 3,
          "midi": 50,
          "name": "D3",
          "ticks": 14072,
          "time": 163.62790697674419,
          "velocity": 0.2204724409448819
        },
        {
          "duration": 0.18604651162792152,
          "durationTicks": 16,
          "midi": 87,
          "name": "D#6",
          "ticks": 14075,
          "time": 163.6627906976744,
          "velocity": 0.11023622047244094
        },
        {
          "duration": 0.19767441860466306,
          "durationTicks": 17,
          "midi": 88,
          "name": "E6",
          "ticks": 14075,
          "time": 163.6627906976744,
          "velocity": 0.2204724409448819
        },
        {
          "duration": 0.11627906976744384,
          "durationTicks": 10,
          "midi": 53,
          "name": "F3",
          "ticks": 14077,
          "time": 163.6860465116279,
          "velocity": 0.29133858267716534
        },
        {
          "duration": 0.05813953488373613,
          "durationTicks": 5,
          "midi": 88,
          "name": "E6",
          "ticks": 14094,
          "time": 163.88372093023256,
          "velocity": 0.16535433070866143
        },
        {
          "duration": 0.24418604651162923,
          "durationTicks": 21,
          "midi": 62,
          "name": "D4",
          "ticks": 14095,
          "time": 163.8953488372093,
          "velocity": 0.3464566929133858
        },
        {
          "duration": 0.4651162790697754,
          "durationTicks": 40,
          "midi": 70,
          "name": "A#4",
          "ticks": 14095,
          "time": 163.8953488372093,
          "velocity": 0.4409448818897638
        },
        {
          "duration": 0.7674418604651123,
          "durationTicks": 66,
          "midi": 79,
          "name": "G5",
          "ticks": 14096,
          "time": 163.90697674418604,
          "velocity": 0.4094488188976378
        },
        {
          "duration": 1.139534883720927,
          "durationTicks": 98,
          "midi": 67,
          "name": "G4",
          "ticks": 14097,
          "time": 163.91860465116278,
          "velocity": 0.4409448818897638
        },
        {
          "duration": 0.03488372093025305,
          "durationTicks": 3,
          "midi": 83,
          "name": "B5",
          "ticks": 14097,
          "time": 163.91860465116278,
          "velocity": 0.14960629921259844
        },
        {
          "duration": 0.03488372093025305,
          "durationTicks": 3,
          "midi": 58,
          "name": "A#3",
          "ticks": 14098,
          "time": 163.93023255813952,
          "velocity": 0.29133858267716534
        },
        {
          "duration": 0.04651162790699459,
          "durationTicks": 4,
          "midi": 94,
          "name": "A#6",
          "ticks": 14098,
          "time": 163.93023255813952,
          "velocity": 0.07874015748031496
        },
        {
          "duration": 0.09302325581393234,
          "durationTicks": 8,
          "midi": 50,
          "name": "D3",
          "ticks": 14101,
          "time": 163.96511627906978,
          "velocity": 0.2204724409448819
        },
        {
          "duration": 0.034883720930224626,
          "durationTicks": 3,
          "midi": 58,
          "name": "A#3",
          "ticks": 14102,
          "time": 163.97674418604652,
          "velocity": 0.2047244094488189
        },
        {
          "duration": 0.34883720930233153,
          "durationTicks": 30,
          "midi": 88,
          "name": "E6",
          "ticks": 14102,
          "time": 163.97674418604652,
          "velocity": 0.23622047244094488
        },
        {
          "duration": 0.04651162790696617,
          "durationTicks": 4,
          "midi": 83,
          "name": "B5",
          "ticks": 14103,
          "time": 163.98837209302326,
          "velocity": 0.2047244094488189
        },
        {
          "duration": 0.06976744186047767,
          "durationTicks": 6,
          "midi": 58,
          "name": "A#3",
          "ticks": 14106,
          "time": 164.02325581395348,
          "velocity": 0.25984251968503935
        },
        {
          "duration": 0.04651162790699459,
          "durationTicks": 4,
          "midi": 83,
          "name": "B5",
          "ticks": 14109,
          "time": 164.0581395348837,
          "velocity": 0.1968503937007874
        },
        {
          "duration": 0.09302325581396076,
          "durationTicks": 8,
          "midi": 90,
          "name": "F#6",
          "ticks": 14109,
          "time": 164.0581395348837,
          "velocity": 0.07086614173228346
        },
        {
          "duration": 0.034883720930224626,
          "durationTicks": 3,
          "midi": 50,
          "name": "D3",
          "ticks": 14110,
          "time": 164.06976744186048,
          "velocity": 0.2047244094488189
        },
        {
          "duration": 0.0813953488371908,
          "durationTicks": 7,
          "midi": 58,
          "name": "A#3",
          "ticks": 14113,
          "time": 164.1046511627907,
          "velocity": 0.2755905511811024
        },
        {
          "duration": 0.023255813953483084,
          "durationTicks": 2,
          "midi": 45,
          "name": "A2",
          "ticks": 14114,
          "time": 164.11627906976744,
          "velocity": 0.2283464566929134
        },
        {
          "duration": 0.1046511627907023,
          "durationTicks": 9,
          "midi": 83,
          "name": "B5",
          "ticks": 14115,
          "time": 164.12790697674419,
          "velocity": 0.1968503937007874
        },
        {
          "duration": 0.023255813953483084,
          "durationTicks": 2,
          "midi": 45,
          "name": "A2",
          "ticks": 14117,
          "time": 164.15116279069767,
          "velocity": 0.2440944881889764
        },
        {
          "duration": 0.19767441860466306,
          "durationTicks": 17,
          "midi": 62,
          "name": "D4",
          "ticks": 14117,
          "time": 164.15116279069767,
          "velocity": 0.1732283464566929
        },
        {
          "duration": 0.03488372093025305,
          "durationTicks": 3,
          "midi": 44,
          "name": "G#2",
          "ticks": 14119,
          "time": 164.17441860465115,
          "velocity": 0.2677165354330709
        },
        {
          "duration": 0.04651162790699459,
          "durationTicks": 4,
          "midi": 55,
          "name": "G3",
          "ticks": 14119,
          "time": 164.17441860465115,
          "velocity": 0.23622047244094488
        },
        {
          "duration": 0.023255813953483084,
          "durationTicks": 2,
          "midi": 58,
          "name": "A#3",
          "ticks": 14121,
          "time": 164.19767441860466,
          "velocity": 0.2440944881889764
        },
        {
          "duration": 0.04651162790696617,
          "durationTicks": 4,
          "midi": 90,
          "name": "F#6",
          "ticks": 14121,
          "time": 164.19767441860466,
          "velocity": 0.09448818897637795
        },
        {
          "duration": 0.04651162790696617,
          "durationTicks": 4,
          "midi": 43,
          "name": "G2",
          "ticks": 14122,
          "time": 164.2093023255814,
          "velocity": 0.10236220472440945
        },
        {
          "duration": 0.33720930232559,
          "durationTicks": 29,
          "midi": 76,
          "name": "E5",
          "ticks": 14125,
          "time": 164.24418604651163,
          "velocity": 0.4251968503937008
        },
        {
          "duration": 0.04651162790696617,
          "durationTicks": 4,
          "midi": 55,
          "name": "G3",
          "ticks": 14126,
          "time": 164.25581395348837,
          "velocity": 0.2440944881889764
        },
        {
          "duration": 0.04651162790696617,
          "durationTicks": 4,
          "midi": 83,
          "name": "B5",
          "ticks": 14126,
          "time": 164.25581395348837,
          "velocity": 0.11811023622047244
        },
        {
          "duration": 0.034883720930224626,
          "durationTicks": 3,
          "midi": 58,
          "name": "A#3",
          "ticks": 14131,
          "time": 164.3139534883721,
          "velocity": 0.25984251968503935
        },
        {
          "duration": 0.04651162790696617,
          "durationTicks": 4,
          "midi": 83,
          "name": "B5",
          "ticks": 14132,
          "time": 164.32558139534885,
          "velocity": 0.12598425196850394
        },
        {
          "duration": 0.06976744186044925,
          "durationTicks": 6,
          "midi": 55,
          "name": "G3",
          "ticks": 14133,
          "time": 164.3372093023256,
          "velocity": 0.2283464566929134
        },
        {
          "duration": 0.034883720930224626,
          "durationTicks": 3,
          "midi": 43,
          "name": "G2",
          "ticks": 14137,
          "time": 164.38372093023256,
          "velocity": 0.14960629921259844
        },
        {
          "duration": 0.8953488372092977,
          "durationTicks": 77,
          "midi": 85,
          "name": "C#6",
          "ticks": 14137,
          "time": 164.38372093023256,
          "velocity": 0.11811023622047244
        },
        {
          "duration": 0.05813953488373613,
          "durationTicks": 5,
          "midi": 62,
          "name": "D4",
          "ticks": 14138,
          "time": 164.3953488372093,
          "velocity": 0.07086614173228346
        },
        {
          "duration": 0.04651162790699459,
          "durationTicks": 4,
          "midi": 83,
          "name": "B5",
          "ticks": 14138,
          "time": 164.3953488372093,
          "velocity": 0.2047244094488189
        },
        {
          "duration": 0.04651162790699459,
          "durationTicks": 4,
          "midi": 58,
          "name": "A#3",
          "ticks": 14140,
          "time": 164.41860465116278,
          "velocity": 0.23622047244094488
        },
        {
          "duration": 0.04651162790699459,
          "durationTicks": 4,
          "midi": 81,
          "name": "A5",
          "ticks": 14140,
          "time": 164.41860465116278,
          "velocity": 0.08661417322834646
        },
        {
          "duration": 0.04651162790699459,
          "durationTicks": 4,
          "midi": 43,
          "name": "G2",
          "ticks": 14141,
          "time": 164.43023255813952,
          "velocity": 0.10236220472440945
        },
        {
          "duration": 0.6976744186046346,
          "durationTicks": 60,
          "midi": 83,
          "name": "B5",
          "ticks": 14143,
          "time": 164.45348837209303,
          "velocity": 0.25984251968503935
        },
        {
          "duration": 0.08139534883721922,
          "durationTicks": 7,
          "midi": 55,
          "name": "G3",
          "ticks": 14147,
          "time": 164.5,
          "velocity": 0.25196850393700787
        },
        {
          "duration": 0.04651162790696617,
          "durationTicks": 4,
          "midi": 58,
          "name": "A#3",
          "ticks": 14147,
          "time": 164.5,
          "velocity": 0.2283464566929134
        },
        {
          "duration": 0.034883720930224626,
          "durationTicks": 3,
          "midi": 81,
          "name": "A5",
          "ticks": 14148,
          "time": 164.51162790697674,
          "velocity": 0.07086614173228346
        },
        {
          "duration": 0.24418604651162923,
          "durationTicks": 21,
          "midi": 77,
          "name": "F5",
          "ticks": 14153,
          "time": 164.56976744186048,
          "velocity": 0.4409448818897638
        },
        {
          "duration": 0.04651162790696617,
          "durationTicks": 4,
          "midi": 45,
          "name": "A2",
          "ticks": 14155,
          "time": 164.59302325581396,
          "velocity": 0.33070866141732286
        },
        {
          "duration": 0.22093023255814614,
          "durationTicks": 19,
          "midi": 62,
          "name": "D4",
          "ticks": 14155,
          "time": 164.59302325581396,
          "velocity": 0.2047244094488189
        },
        {
          "duration": 0.05813953488370771,
          "durationTicks": 5,
          "midi": 65,
          "name": "F4",
          "ticks": 14156,
          "time": 164.6046511627907,
          "velocity": 0.2283464566929134
        },
        {
          "duration": 0.05813953488370771,
          "durationTicks": 5,
          "midi": 81,
          "name": "A5",
          "ticks": 14157,
          "time": 164.61627906976744,
          "velocity": 0.11811023622047244
        },
        {
          "duration": 0.09302325581396076,
          "durationTicks": 8,
          "midi": 84,
          "name": "C6",
          "ticks": 14160,
          "time": 164.65116279069767,
          "velocity": 0.08661417322834646
        },
        {
          "duration": 0.08139534883721922,
          "durationTicks": 7,
          "midi": 50,
          "name": "D3",
          "ticks": 14162,
          "time": 164.67441860465115,
          "velocity": 0.2204724409448819
        },
        {
          "duration": 0.05813953488373613,
          "durationTicks": 5,
          "midi": 93,
          "name": "A6",
          "ticks": 14163,
          "time": 164.6860465116279,
          "velocity": 0.11811023622047244
        },
        {
          "duration": 0.06976744186044925,
          "durationTicks": 6,
          "midi": 55,
          "name": "G3",
          "ticks": 14164,
          "time": 164.69767441860466,
          "velocity": 0.2204724409448819
        },
        {
          "duration": 0.05813953488370771,
          "durationTicks": 5,
          "midi": 81,
          "name": "A5",
          "ticks": 14166,
          "time": 164.72093023255815,
          "velocity": 0.11811023622047244
        },
        {
          "duration": 0.04651162790699459,
          "durationTicks": 4,
          "midi": 50,
          "name": "D3",
          "ticks": 14170,
          "time": 164.7674418604651,
          "velocity": 0.1889763779527559
        },
        {
          "duration": 0.05813953488373613,
          "durationTicks": 5,
          "midi": 65,
          "name": "F4",
          "ticks": 14173,
          "time": 164.80232558139534,
          "velocity": 0.1732283464566929
        },
        {
          "duration": 0.2325581395348877,
          "durationTicks": 20,
          "midi": 76,
          "name": "E5",
          "ticks": 14173,
          "time": 164.80232558139534,
          "velocity": 0.4330708661417323
        },
        {
          "duration": 0.034883720930224626,
          "durationTicks": 3,
          "midi": 55,
          "name": "G3",
          "ticks": 14174,
          "time": 164.8139534883721,
          "velocity": 0.1732283464566929
        },
        {
          "duration": 0.0813953488371908,
          "durationTicks": 7,
          "midi": 81,
          "name": "A5",
          "ticks": 14174,
          "time": 164.8139534883721,
          "velocity": 0.12598425196850394
        },
        {
          "duration": 0.034883720930224626,
          "durationTicks": 3,
          "midi": 44,
          "name": "G#2",
          "ticks": 14175,
          "time": 164.82558139534885,
          "velocity": 0.2992125984251969
        },
        {
          "duration": 0.05813953488370771,
          "durationTicks": 5,
          "midi": 58,
          "name": "A#3",
          "ticks": 14176,
          "time": 164.8372093023256,
          "velocity": 0.25984251968503935
        },
        {
          "duration": 0.12790697674418539,
          "durationTicks": 11,
          "midi": 43,
          "name": "G2",
          "ticks": 14178,
          "time": 164.86046511627907,
          "velocity": 0.2204724409448819
        },
        {
          "duration": 0.1860465116278931,
          "durationTicks": 16,
          "midi": 50,
          "name": "D3",
          "ticks": 14178,
          "time": 164.86046511627907,
          "velocity": 0.30708661417322836
        },
        {
          "duration": 0.04651162790696617,
          "durationTicks": 4,
          "midi": 58,
          "name": "A#3",
          "ticks": 14185,
          "time": 164.9418604651163,
          "velocity": 0.2283464566929134
        },
        {
          "duration": 0.034883720930224626,
          "durationTicks": 3,
          "midi": 65,
          "name": "F4",
          "ticks": 14185,
          "time": 164.9418604651163,
          "velocity": 0.18110236220472442
        },
        {
          "duration": 0.06976744186044925,
          "durationTicks": 6,
          "midi": 81,
          "name": "A5",
          "ticks": 14185,
          "time": 164.9418604651163,
          "velocity": 0.11811023622047244
        },
        {
          "duration": 0.023255813953483084,
          "durationTicks": 2,
          "midi": 44,
          "name": "G#2",
          "ticks": 14189,
          "time": 164.98837209302326,
          "velocity": 0.2283464566929134
        },
        {
          "duration": 0.034883720930224626,
          "durationTicks": 3,
          "midi": 43,
          "name": "G2",
          "ticks": 14191,
          "time": 165.01162790697674,
          "velocity": 0.2283464566929134
        },
        {
          "duration": 0.03488372093025305,
          "durationTicks": 3,
          "midi": 59,
          "name": "B3",
          "ticks": 14193,
          "time": 165.03488372093022,
          "velocity": 0.25984251968503935
        },
        {
          "duration": 0.7209302325581461,
          "durationTicks": 62,
          "midi": 72,
          "name": "C5",
          "ticks": 14193,
          "time": 165.03488372093022,
          "velocity": 0.41732283464566927
        },
        {
          "duration": 0.1046511627907023,
          "durationTicks": 9,
          "midi": 89,
          "name": "F6",
          "ticks": 14193,
          "time": 165.03488372093022,
          "velocity": 0.08661417322834646
        },
        {
          "duration": 0.04651162790699459,
          "durationTicks": 4,
          "midi": 44,
          "name": "G#2",
          "ticks": 14194,
          "time": 165.04651162790697,
          "velocity": 0.4015748031496063
        },
        {
          "duration": 0.05813953488373613,
          "durationTicks": 5,
          "midi": 65,
          "name": "F4",
          "ticks": 14194,
          "time": 165.04651162790697,
          "velocity": 0.1732283464566929
        },
        {
          "duration": 0.22093023255814614,
          "durationTicks": 19,
          "midi": 76,
          "name": "E5",
          "ticks": 14194,
          "time": 165.04651162790697,
          "velocity": 0.33070866141732286
        },
        {
          "duration": 0.08139534883721922,
          "durationTicks": 7,
          "midi": 81,
          "name": "A5",
          "ticks": 14194,
          "time": 165.04651162790697,
          "velocity": 0.1968503937007874
        },
        {
          "duration": 0.06976744186047767,
          "durationTicks": 6,
          "midi": 55,
          "name": "G3",
          "ticks": 14195,
          "time": 165.0581395348837,
          "velocity": 0.25196850393700787
        },
        {
          "duration": 0.66279069767441,
          "durationTicks": 57,
          "midi": 67,
          "name": "G4",
          "ticks": 14196,
          "time": 165.06976744186048,
          "velocity": 0.2992125984251969
        },
        {
          "duration": 0.2325581395348877,
          "durationTicks": 20,
          "midi": 50,
          "name": "D3",
          "ticks": 14197,
          "time": 165.08139534883722,
          "velocity": 0.3228346456692913
        },
        {
          "duration": 0.023255813953483084,
          "durationTicks": 2,
          "midi": 43,
          "name": "G2",
          "ticks": 14201,
          "time": 165.12790697674419,
          "velocity": 0.2283464566929134
        },
        {
          "duration": 0.06976744186047767,
          "durationTicks": 6,
          "midi": 55,
          "name": "G3",
          "ticks": 14202,
          "time": 165.13953488372093,
          "velocity": 0.2677165354330709
        },
        {
          "duration": 0.06976744186047767,
          "durationTicks": 6,
          "midi": 81,
          "name": "A5",
          "ticks": 14203,
          "time": 165.15116279069767,
          "velocity": 0.16535433070866143
        },
        {
          "duration": 0.04651162790699459,
          "durationTicks": 4,
          "midi": 83,
          "name": "B5",
          "ticks": 14205,
          "time": 165.17441860465115,
          "velocity": 0.14960629921259844
        },
        {
          "duration": 0.023255813953511506,
          "durationTicks": 2,
          "midi": 43,
          "name": "G2",
          "ticks": 14206,
          "time": 165.1860465116279,
          "velocity": 0.23622047244094488
        },
        {
          "duration": 0.05813953488370771,
          "durationTicks": 5,
          "midi": 58,
          "name": "A#3",
          "ticks": 14208,
          "time": 165.2093023255814,
          "velocity": 0.2047244094488189
        },
        {
          "duration": 0.04651162790696617,
          "durationTicks": 4,
          "midi": 55,
          "name": "G3",
          "ticks": 14209,
          "time": 165.22093023255815,
          "velocity": 0.2440944881889764
        },
        {
          "duration": 0.023255813953483084,
          "durationTicks": 2,
          "midi": 43,
          "name": "G2",
          "ticks": 14210,
          "time": 165.2325581395349,
          "velocity": 0.2283464566929134
        },
        {
          "duration": 0.27906976744185386,
          "durationTicks": 24,
          "midi": 83,
          "name": "B5",
          "ticks": 14211,
          "time": 165.24418604651163,
          "velocity": 0.2283464566929134
        },
        {
          "duration": 1.0465116279069662,
          "durationTicks": 90,
          "midi": 77,
          "name": "F5",
          "ticks": 14212,
          "time": 165.25581395348837,
          "velocity": 0.44881889763779526
        },
        {
          "duration": 0.04651162790699459,
          "durationTicks": 4,
          "midi": 59,
          "name": "B3",
          "ticks": 14213,
          "time": 165.2674418604651,
          "velocity": 0.2283464566929134
        },
        {
          "duration": 0.05813953488373613,
          "durationTicks": 5,
          "midi": 81,
          "name": "A5",
          "ticks": 14213,
          "time": 165.2674418604651,
          "velocity": 0.12598425196850394
        },
        {
          "duration": 0.023255813953483084,
          "durationTicks": 2,
          "midi": 42,
          "name": "F#2",
          "ticks": 14214,
          "time": 165.27906976744185,
          "velocity": 0.28346456692913385
        },
        {
          "duration": 0.11627906976744384,
          "durationTicks": 10,
          "midi": 43,
          "name": "G2",
          "ticks": 14216,
          "time": 165.30232558139534,
          "velocity": 0.33070866141732286
        },
        {
          "duration": 0.034883720930224626,
          "durationTicks": 3,
          "midi": 58,
          "name": "A#3",
          "ticks": 14217,
          "time": 165.3139534883721,
          "velocity": 0.25196850393700787
        },
        {
          "duration": 0.16279069767441,
          "durationTicks": 14,
          "midi": 50,
          "name": "D3",
          "ticks": 14218,
          "time": 165.32558139534885,
          "velocity": 0.31496062992125984
        },
        {
          "duration": 0.034883720930224626,
          "durationTicks": 3,
          "midi": 65,
          "name": "F4",
          "ticks": 14218,
          "time": 165.32558139534885,
          "velocity": 0.18110236220472442
        },
        {
          "duration": 1.2906976744185954,
          "durationTicks": 111,
          "midi": 74,
          "name": "D5",
          "ticks": 14218,
          "time": 165.32558139534885,
          "velocity": 0.3779527559055118
        },
        {
          "duration": 0.04651162790699459,
          "durationTicks": 4,
          "midi": 43,
          "name": "G2",
          "ticks": 14227,
          "time": 165.43023255813952,
          "velocity": 0.28346456692913385
        },
        {
          "duration": 0.09302325581396076,
          "durationTicks": 8,
          "midi": 59,
          "name": "B3",
          "ticks": 14227,
          "time": 165.43023255813952,
          "velocity": 0.25196850393700787
        },
        {
          "duration": 0.27906976744185386,
          "durationTicks": 24,
          "midi": 55,
          "name": "G3",
          "ticks": 14228,
          "time": 165.4418604651163,
          "velocity": 0.28346456692913385
        },
        {
          "duration": 0.034883720930224626,
          "durationTicks": 3,
          "midi": 65,
          "name": "F4",
          "ticks": 14228,
          "time": 165.4418604651163,
          "velocity": 0.14173228346456693
        },
        {
          "duration": 0.8488372093023315,
          "durationTicks": 73,
          "midi": 81,
          "name": "A5",
          "ticks": 14231,
          "time": 165.47674418604652,
          "velocity": 0.3700787401574803
        },
        {
          "duration": 0.66279069767441,
          "durationTicks": 57,
          "midi": 69,
          "name": "A4",
          "ticks": 14232,
          "time": 165.48837209302326,
          "velocity": 0.3700787401574803
        },
        {
          "duration": 0.19767441860466306,
          "durationTicks": 17,
          "midi": 80,
          "name": "G#5",
          "ticks": 14233,
          "time": 165.5,
          "velocity": 0.10236220472440945
        },
        {
          "duration": 0.034883720930224626,
          "durationTicks": 3,
          "midi": 44,
          "name": "G#2",
          "ticks": 14234,
          "time": 165.51162790697674,
          "velocity": 0.4330708661417323
        },
        {
          "duration": 0.034883720930224626,
          "durationTicks": 3,
          "midi": 76,
          "name": "E5",
          "ticks": 14234,
          "time": 165.51162790697674,
          "velocity": 0.09448818897637795
        },
        {
          "duration": 0.09302325581396076,
          "durationTicks": 8,
          "midi": 88,
          "name": "E6",
          "ticks": 14234,
          "time": 165.51162790697674,
          "velocity": 0.14173228346456693
        },
        {
          "duration": 0.023255813953483084,
          "durationTicks": 2,
          "midi": 58,
          "name": "A#3",
          "ticks": 14235,
          "time": 165.52325581395348,
          "velocity": 0.23622047244094488
        },
        {
          "duration": 0.04651162790699459,
          "durationTicks": 4,
          "midi": 50,
          "name": "D3",
          "ticks": 14236,
          "time": 165.53488372093022,
          "velocity": 0.25984251968503935
        },
        {
          "duration": 0.04651162790699459,
          "durationTicks": 4,
          "midi": 83,
          "name": "B5",
          "ticks": 14236,
          "time": 165.53488372093022,
          "velocity": 0.1968503937007874
        },
        {
          "duration": 0.05813953488373613,
          "durationTicks": 5,
          "midi": 43,
          "name": "G2",
          "ticks": 14237,
          "time": 165.54651162790697,
          "velocity": 0.33858267716535434
        },
        {
          "duration": 0.05813953488370771,
          "durationTicks": 5,
          "midi": 83,
          "name": "B5",
          "ticks": 14242,
          "time": 165.6046511627907,
          "velocity": 0.18110236220472442
        },
        {
          "duration": 0.023255813953483084,
          "durationTicks": 2,
          "midi": 44,
          "name": "G#2",
          "ticks": 14244,
          "time": 165.62790697674419,
          "velocity": 0.33858267716535434
        },
        {
          "duration": 0.034883720930224626,
          "durationTicks": 3,
          "midi": 50,
          "name": "D3",
          "ticks": 14244,
          "time": 165.62790697674419,
          "velocity": 0.2125984251968504
        },
        {
          "duration": 0.023255813953511506,
          "durationTicks": 2,
          "midi": 44,
          "name": "G#2",
          "ticks": 14248,
          "time": 165.67441860465115,
          "velocity": 0.3464566929133858
        },
        {
          "duration": 0.03488372093025305,
          "durationTicks": 3,
          "midi": 83,
          "name": "B5",
          "ticks": 14248,
          "time": 165.67441860465115,
          "velocity": 0.14960629921259844
        },
        {
          "duration": 0.04651162790696617,
          "durationTicks": 4,
          "midi": 43,
          "name": "G2",
          "ticks": 14250,
          "time": 165.69767441860466,
          "velocity": 0.3464566929133858
        },
        {
          "duration": 0.04651162790696617,
          "durationTicks": 4,
          "midi": 59,
          "name": "B3",
          "ticks": 14250,
          "time": 165.69767441860466,
          "velocity": 0.2677165354330709
        },
        {
          "duration": 0.4186046511627808,
          "durationTicks": 36,
          "midi": 88,
          "name": "E6",
          "ticks": 14252,
          "time": 165.72093023255815,
          "velocity": 0.3228346456692913
        },
        {
          "duration": 0.38372093023255616,
          "durationTicks": 33,
          "midi": 91,
          "name": "G6",
          "ticks": 14252,
          "time": 165.72093023255815,
          "velocity": 0.15748031496062992
        },
        {
          "duration": 0.22093023255814614,
          "durationTicks": 19,
          "midi": 65,
          "name": "F4",
          "ticks": 14253,
          "time": 165.7325581395349,
          "velocity": 0.2992125984251969
        },
        {
          "duration": 0.04651162790696617,
          "durationTicks": 4,
          "midi": 60,
          "name": "C4",
          "ticks": 14254,
          "time": 165.74418604651163,
          "velocity": 0.14173228346456693
        },
        {
          "duration": 0.034883720930224626,
          "durationTicks": 3,
          "midi": 95,
          "name": "B6",
          "ticks": 14254,
          "time": 165.74418604651163,
          "velocity": 0.07086614173228346
        },
        {
          "duration": 0.27906976744185386,
          "durationTicks": 24,
          "midi": 87,
          "name": "D#6",
          "ticks": 14257,
          "time": 165.77906976744185,
          "velocity": 0.33858267716535434
        },
        {
          "duration": 0.03488372093025305,
          "durationTicks": 3,
          "midi": 53,
          "name": "F3",
          "ticks": 14258,
          "time": 165.7906976744186,
          "velocity": 0.28346456692913385
        },
        {
          "duration": 0.13953488372095535,
          "durationTicks": 12,
          "midi": 72,
          "name": "C5",
          "ticks": 14259,
          "time": 165.80232558139534,
          "velocity": 0.14173228346456693
        },
        {
          "duration": 0.04651162790696617,
          "durationTicks": 4,
          "midi": 48,
          "name": "C3",
          "ticks": 14261,
          "time": 165.82558139534885,
          "velocity": 0.25196850393700787
        },
        {
          "duration": 0.034883720930224626,
          "durationTicks": 3,
          "midi": 53,
          "name": "F3",
          "ticks": 14262,
          "time": 165.8372093023256,
          "velocity": 0.25196850393700787
        },
        {
          "duration": 0.05813953488370771,
          "durationTicks": 5,
          "midi": 57,
          "name": "A3",
          "ticks": 14262,
          "time": 165.8372093023256,
          "velocity": 0.18110236220472442
        },
        {
          "duration": 0.06976744186047767,
          "durationTicks": 6,
          "midi": 48,
          "name": "C3",
          "ticks": 14266,
          "time": 165.88372093023256,
          "velocity": 0.2440944881889764
        },
        {
          "duration": 0.023255813953511506,
          "durationTicks": 2,
          "midi": 61,
          "name": "C#4",
          "ticks": 14270,
          "time": 165.93023255813952,
          "velocity": 0.28346456692913385
        },
        {
          "duration": 0.04651162790696617,
          "durationTicks": 4,
          "midi": 83,
          "name": "B5",
          "ticks": 14271,
          "time": 165.9418604651163,
          "velocity": 0.1889763779527559
        },
        {
          "duration": 0.034883720930224626,
          "durationTicks": 3,
          "midi": 53,
          "name": "F3",
          "ticks": 14272,
          "time": 165.95348837209303,
          "velocity": 0.30708661417322836
        },
        {
          "duration": 0.44186046511626387,
          "durationTicks": 38,
          "midi": 60,
          "name": "C4",
          "ticks": 14272,
          "time": 165.95348837209303,
          "velocity": 0.3543307086614173
        },
        {
          "duration": 0.23255813953485927,
          "durationTicks": 20,
          "midi": 67,
          "name": "G4",
          "ticks": 14272,
          "time": 165.95348837209303,
          "velocity": 0.2992125984251969
        },
        {
          "duration": 0.023255813953483084,
          "durationTicks": 2,
          "midi": 48,
          "name": "C3",
          "ticks": 14273,
          "time": 165.96511627906978,
          "velocity": 0.2677165354330709
        },
        {
          "duration": 0.034883720930224626,
          "durationTicks": 3,
          "midi": 64,
          "name": "E4",
          "ticks": 14274,
          "time": 165.97674418604652,
          "velocity": 0.3464566929133858
        },
        {
          "duration": 0.023255813953483084,
          "durationTicks": 2,
          "midi": 52,
          "name": "E3",
          "ticks": 14275,
          "time": 165.98837209302326,
          "velocity": 0.28346456692913385
        },
        {
          "duration": 0.32558139534884845,
          "durationTicks": 28,
          "midi": 83,
          "name": "B5",
          "ticks": 14276,
          "time": 166,
          "velocity": 0.15748031496062992
        },
        {
          "duration": 0.023255813953483084,
          "durationTicks": 2,
          "midi": 65,
          "name": "F4",
          "ticks": 14277,
          "time": 166.01162790697674,
          "velocity": 0.33858267716535434
        },
        {
          "duration": 0.023255813953483084,
          "durationTicks": 2,
          "midi": 51,
          "name": "D#3",
          "ticks": 14278,
          "time": 166.02325581395348,
          "velocity": 0.2755905511811024
        },
        {
          "duration": 0.023255813953483084,
          "durationTicks": 2,
          "midi": 64,
          "name": "E4",
          "ticks": 14279,
          "time": 166.03488372093022,
          "velocity": 0.25984251968503935
        },
        {
          "duration": 0.03488372093025305,
          "durationTicks": 3,
          "midi": 65,
          "name": "F4",
          "ticks": 14281,
          "time": 166.0581395348837,
          "velocity": 0.30708661417322836
        },
        {
          "duration": 0.03488372093025305,
          "durationTicks": 3,
          "midi": 90,
          "name": "F#6",
          "ticks": 14281,
          "time": 166.0581395348837,
          "velocity": 0.07086614173228346
        },
        {
          "duration": 0.023255813953483084,
          "durationTicks": 2,
          "midi": 53,
          "name": "F3",
          "ticks": 14285,
          "time": 166.1046511627907,
          "velocity": 0.2283464566929134
        },
        {
          "duration": 0.023255813953483084,
          "durationTicks": 2,
          "midi": 65,
          "name": "F4",
          "ticks": 14286,
          "time": 166.11627906976744,
          "velocity": 0.28346456692913385
        },
        {
          "duration": 0.08139534883721922,
          "durationTicks": 7,
          "midi": 65,
          "name": "F4",
          "ticks": 14290,
          "time": 166.1627906976744,
          "velocity": 0.2755905511811024
        },
        {
          "duration": 0.24418604651162923,
          "durationTicks": 21,
          "midi": 69,
          "name": "A4",
          "ticks": 14290,
          "time": 166.1627906976744,
          "velocity": 0.2125984251968504
        },
        {
          "duration": 0.023255813953511506,
          "durationTicks": 2,
          "midi": 52,
          "name": "E3",
          "ticks": 14291,
          "time": 166.17441860465115,
          "velocity": 0.23622047244094488
        },
        {
          "duration": 0.11627906976744384,
          "durationTicks": 10,
          "midi": 90,
          "name": "F#6",
          "ticks": 14291,
          "time": 166.17441860465115,
          "velocity": 0.16535433070866143
        },
        {
          "duration": 0.04651162790699459,
          "durationTicks": 4,
          "midi": 48,
          "name": "C3",
          "ticks": 14292,
          "time": 166.1860465116279,
          "velocity": 0.2283464566929134
        },
        {
          "duration": 0.06976744186044925,
          "durationTicks": 6,
          "midi": 55,
          "name": "G3",
          "ticks": 14293,
          "time": 166.19767441860466,
          "velocity": 0.2677165354330709
        },
        {
          "duration": 0.12790697674418539,
          "durationTicks": 11,
          "midi": 64,
          "name": "E4",
          "ticks": 14297,
          "time": 166.24418604651163,
          "velocity": 0.2992125984251969
        },
        {
          "duration": 0.06976744186047767,
          "durationTicks": 6,
          "midi": 88,
          "name": "E6",
          "ticks": 14297,
          "time": 166.24418604651163,
          "velocity": 0.11811023622047244
        },
        {
          "duration": 0.8837209302325562,
          "durationTicks": 76,
          "midi": 72,
          "name": "C5",
          "ticks": 14298,
          "time": 166.25581395348837,
          "velocity": 0.44881889763779526
        },
        {
          "duration": 0.023255813953511506,
          "durationTicks": 2,
          "midi": 53,
          "name": "F3",
          "ticks": 14301,
          "time": 166.2906976744186,
          "velocity": 0.2440944881889764
        },
        {
          "duration": 0.034883720930224626,
          "durationTicks": 3,
          "midi": 55,
          "name": "G3",
          "ticks": 14303,
          "time": 166.3139534883721,
          "velocity": 0.2204724409448819
        },
        {
          "duration": 0.034883720930224626,
          "durationTicks": 3,
          "midi": 90,
          "name": "F#6",
          "ticks": 14304,
          "time": 166.32558139534885,
          "velocity": 0.08661417322834646
        },
        {
          "duration": 0.3720930232558146,
          "durationTicks": 32,
          "midi": 88,
          "name": "E6",
          "ticks": 14306,
          "time": 166.34883720930233,
          "velocity": 0.1968503937007874
        },
        {
          "duration": 0.034883720930224626,
          "durationTicks": 3,
          "midi": 65,
          "name": "F4",
          "ticks": 14308,
          "time": 166.37209302325581,
          "velocity": 0.2440944881889764
        },
        {
          "duration": 0.034883720930224626,
          "durationTicks": 3,
          "midi": 83,
          "name": "B5",
          "ticks": 14308,
          "time": 166.37209302325581,
          "velocity": 0.10236220472440945
        },
        {
          "duration": 0.023255813953483084,
          "durationTicks": 2,
          "midi": 53,
          "name": "F3",
          "ticks": 14309,
          "time": 166.38372093023256,
          "velocity": 0.25196850393700787
        },
        {
          "duration": 0.25581395348837077,
          "durationTicks": 22,
          "midi": 90,
          "name": "F#6",
          "ticks": 14309,
          "time": 166.38372093023256,
          "velocity": 0.4566929133858268
        },
        {
          "duration": 0.15116279069766847,
          "durationTicks": 13,
          "midi": 89,
          "name": "F6",
          "ticks": 14310,
          "time": 166.3953488372093,
          "velocity": 0.13385826771653545
        },
        {
          "duration": 0.2093023255814046,
          "durationTicks": 18,
          "midi": 64,
          "name": "E4",
          "ticks": 14311,
          "time": 166.40697674418604,
          "velocity": 0.3228346456692913
        },
        {
          "duration": 0.8837209302325562,
          "durationTicks": 76,
          "midi": 60,
          "name": "C4",
          "ticks": 14312,
          "time": 166.41860465116278,
          "velocity": 0.4015748031496063
        },
        {
          "duration": 1.139534883720927,
          "durationTicks": 98,
          "midi": 67,
          "name": "G4",
          "ticks": 14312,
          "time": 166.41860465116278,
          "velocity": 0.36220472440944884
        },
        {
          "duration": 0.4651162790697754,
          "durationTicks": 40,
          "midi": 83,
          "name": "B5",
          "ticks": 14313,
          "time": 166.43023255813952,
          "velocity": 0.2047244094488189
        },
        {
          "duration": 0.09302325581393234,
          "durationTicks": 8,
          "midi": 82,
          "name": "A#5",
          "ticks": 14315,
          "time": 166.45348837209303,
          "velocity": 0.07874015748031496
        },
        {
          "duration": 0.5116279069767415,
          "durationTicks": 44,
          "midi": 91,
          "name": "G6",
          "ticks": 14315,
          "time": 166.45348837209303,
          "velocity": 0.33070866141732286
        },
        {
          "duration": 0.08139534883721922,
          "durationTicks": 7,
          "midi": 48,
          "name": "C3",
          "ticks": 14322,
          "time": 166.53488372093022,
          "velocity": 0.1889763779527559
        },
        {
          "duration": 0.05813953488370771,
          "durationTicks": 5,
          "midi": 89,
          "name": "F6",
          "ticks": 14328,
          "time": 166.6046511627907,
          "velocity": 0.13385826771653545
        },
        {
          "duration": 0.5465116279069662,
          "durationTicks": 47,
          "midi": 76,
          "name": "E5",
          "ticks": 14329,
          "time": 166.61627906976744,
          "velocity": 0.3779527559055118
        },
        {
          "duration": 0.5930232558139608,
          "durationTicks": 51,
          "midi": 79,
          "name": "G5",
          "ticks": 14329,
          "time": 166.61627906976744,
          "velocity": 0.3858267716535433
        },
        {
          "duration": 0.5116279069767415,
          "durationTicks": 44,
          "midi": 92,
          "name": "G#6",
          "ticks": 14330,
          "time": 166.62790697674419,
          "velocity": 0.33070866141732286
        },
        {
          "duration": 0.25581395348837077,
          "durationTicks": 22,
          "midi": 74,
          "name": "D5",
          "ticks": 14331,
          "time": 166.63953488372093,
          "velocity": 0.2047244094488189
        },
        {
          "duration": 0.19767441860466306,
          "durationTicks": 17,
          "midi": 64,
          "name": "E4",
          "ticks": 14332,
          "time": 166.65116279069767,
          "velocity": 0.3543307086614173
        },
        {
          "duration": 0.24418604651162923,
          "durationTicks": 21,
          "midi": 86,
          "name": "D6",
          "ticks": 14334,
          "time": 166.67441860465115,
          "velocity": 0.2125984251968504
        },
        {
          "duration": 0.13953488372092693,
          "durationTicks": 12,
          "midi": 48,
          "name": "C3",
          "ticks": 14338,
          "time": 166.72093023255815,
          "velocity": 0.30708661417322836
        },
        {
          "duration": 0.04651162790696617,
          "durationTicks": 4,
          "midi": 90,
          "name": "F#6",
          "ticks": 14338,
          "time": 166.72093023255815,
          "velocity": 0.13385826771653545
        },
        {
          "duration": 0.06976744186044925,
          "durationTicks": 6,
          "midi": 82,
          "name": "A#5",
          "ticks": 14349,
          "time": 166.84883720930233,
          "velocity": 0.14173228346456693
        },
        {
          "duration": 0.023255813953483084,
          "durationTicks": 2,
          "midi": 49,
          "name": "C#3",
          "ticks": 14350,
          "time": 166.86046511627907,
          "velocity": 0.25196850393700787
        },
        {
          "duration": 0.09302325581396076,
          "durationTicks": 8,
          "midi": 90,
          "name": "F#6",
          "ticks": 14350,
          "time": 166.86046511627907,
          "velocity": 0.11023622047244094
        },
        {
          "duration": 0.06976744186047767,
          "durationTicks": 6,
          "midi": 55,
          "name": "G3",
          "ticks": 14351,
          "time": 166.87209302325581,
          "velocity": 0.2204724409448819
        },
        {
          "duration": 0.22093023255814614,
          "durationTicks": 19,
          "midi": 64,
          "name": "E4",
          "ticks": 14351,
          "time": 166.87209302325581,
          "velocity": 0.33070866141732286
        },
        {
          "duration": 0.08139534883721922,
          "durationTicks": 7,
          "midi": 48,
          "name": "C3",
          "ticks": 14352,
          "time": 166.88372093023256,
          "velocity": 0.2677165354330709
        },
        {
          "duration": 0.3139534883721069,
          "durationTicks": 27,
          "midi": 83,
          "name": "B5",
          "ticks": 14355,
          "time": 166.91860465116278,
          "velocity": 0.2204724409448819
        },
        {
          "duration": 0.17441860465115155,
          "durationTicks": 15,
          "midi": 93,
          "name": "A6",
          "ticks": 14358,
          "time": 166.95348837209303,
          "velocity": 0.4015748031496063
        },
        {
          "duration": 0.09302325581396076,
          "durationTicks": 8,
          "midi": 48,
          "name": "C3",
          "ticks": 14362,
          "time": 167,
          "velocity": 0.16535433070866143
        },
        {
          "duration": 0.08139534883721922,
          "durationTicks": 7,
          "midi": 82,
          "name": "A#5",
          "ticks": 14362,
          "time": 167,
          "velocity": 0.09448818897637795
        },
        {
          "duration": 0.25581395348837077,
          "durationTicks": 22,
          "midi": 55,
          "name": "G3",
          "ticks": 14365,
          "time": 167.03488372093022,
          "velocity": 0.25196850393700787
        },
        {
          "duration": 0.16279069767441,
          "durationTicks": 14,
          "midi": 94,
          "name": "A#6",
          "ticks": 14368,
          "time": 167.06976744186048,
          "velocity": 0.3700787401574803
        },
        {
          "duration": 0.6511627906976685,
          "durationTicks": 56,
          "midi": 64,
          "name": "E4",
          "ticks": 14373,
          "time": 167.12790697674419,
          "velocity": 0.33070866141732286
        },
        {
          "duration": 0.09302325581396076,
          "durationTicks": 8,
          "midi": 82,
          "name": "A#5",
          "ticks": 14374,
          "time": 167.13953488372093,
          "velocity": 0.13385826771653545
        },
        {
          "duration": 0.11627906976744384,
          "durationTicks": 10,
          "midi": 48,
          "name": "C3",
          "ticks": 14378,
          "time": 167.1860465116279,
          "velocity": 0.12598425196850394
        },
        {
          "duration": 0.03488372093025305,
          "durationTicks": 3,
          "midi": 90,
          "name": "F#6",
          "ticks": 14378,
          "time": 167.1860465116279,
          "velocity": 0.09448818897637795
        },
        {
          "duration": 0.1511627906976969,
          "durationTicks": 13,
          "midi": 93,
          "name": "A6",
          "ticks": 14378,
          "time": 167.1860465116279,
          "velocity": 0.3858267716535433
        },
        {
          "duration": 0.0813953488371908,
          "durationTicks": 7,
          "midi": 91,
          "name": "G6",
          "ticks": 14380,
          "time": 167.2093023255814,
          "velocity": 0.10236220472440945
        },
        {
          "duration": 0.3953488372092977,
          "durationTicks": 34,
          "midi": 83,
          "name": "B5",
          "ticks": 14385,
          "time": 167.2674418604651,
          "velocity": 0.2283464566929134
        },
        {
          "duration": 0.03488372093025305,
          "durationTicks": 3,
          "midi": 47,
          "name": "B2",
          "ticks": 14388,
          "time": 167.30232558139534,
          "velocity": 0.25984251968503935
        },
        {
          "duration": 0.67441860465118,
          "durationTicks": 58,
          "midi": 72,
          "name": "C5",
          "ticks": 14388,
          "time": 167.30232558139534,
          "velocity": 0.33858267716535434
        },
        {
          "duration": 0.38372093023255616,
          "durationTicks": 33,
          "midi": 74,
          "name": "D5",
          "ticks": 14388,
          "time": 167.30232558139534,
          "velocity": 0.2125984251968504
        },
        {
          "duration": 0.16279069767443843,
          "durationTicks": 14,
          "midi": 94,
          "name": "A#6",
          "ticks": 14388,
          "time": 167.30232558139534,
          "velocity": 0.3937007874015748
        },
        {
          "duration": 0.10465116279067388,
          "durationTicks": 9,
          "midi": 90,
          "name": "F#6",
          "ticks": 14389,
          "time": 167.3139534883721,
          "velocity": 0.15748031496062992
        },
        {
          "duration": 0.22093023255811772,
          "durationTicks": 19,
          "midi": 60,
          "name": "C4",
          "ticks": 14390,
          "time": 167.32558139534885,
          "velocity": 0.2992125984251969
        },
        {
          "duration": 0.023255813953483084,
          "durationTicks": 2,
          "midi": 53,
          "name": "F3",
          "ticks": 14391,
          "time": 167.3372093023256,
          "velocity": 0.2677165354330709
        },
        {
          "duration": 0.1046511627907023,
          "durationTicks": 9,
          "midi": 91,
          "name": "G6",
          "ticks": 14394,
          "time": 167.37209302325581,
          "velocity": 0.08661417322834646
        },
        {
          "duration": 0.08139534883721922,
          "durationTicks": 7,
          "midi": 93,
          "name": "A6",
          "ticks": 14396,
          "time": 167.3953488372093,
          "velocity": 0.07086614173228346
        },
        {
          "duration": 0.13953488372092693,
          "durationTicks": 12,
          "midi": 48,
          "name": "C3",
          "ticks": 14397,
          "time": 167.40697674418604,
          "velocity": 0.25984251968503935
        },
        {
          "duration": 0.12790697674418539,
          "durationTicks": 11,
          "midi": 95,
          "name": "B6",
          "ticks": 14398,
          "time": 167.41860465116278,
          "velocity": 0.33858267716535434
        },
        {
          "duration": 0.06976744186044925,
          "durationTicks": 6,
          "midi": 55,
          "name": "G3",
          "ticks": 14401,
          "time": 167.45348837209303,
          "velocity": 0.2047244094488189
        },
        {
          "duration": 0.04651162790696617,
          "durationTicks": 4,
          "midi": 90,
          "name": "F#6",
          "ticks": 14405,
          "time": 167.5,
          "velocity": 0.11023622047244094
        },
        {
          "duration": 0.4767441860465169,
          "durationTicks": 41,
          "midi": 77,
          "name": "F5",
          "ticks": 14408,
          "time": 167.53488372093022,
          "velocity": 0.4251968503937008
        },
        {
          "duration": 0.3139534883721069,
          "durationTicks": 27,
          "midi": 81,
          "name": "A5",
          "ticks": 14408,
          "time": 167.53488372093022,
          "velocity": 0.30708661417322836
        },
        {
          "duration": 0.40697674418606766,
          "durationTicks": 35,
          "midi": 69,
          "name": "A4",
          "ticks": 14409,
          "time": 167.54651162790697,
          "velocity": 0.3858267716535433
        },
        {
          "duration": 0.03488372093025305,
          "durationTicks": 3,
          "midi": 45,
          "name": "A2",
          "ticks": 14410,
          "time": 167.5581395348837,
          "velocity": 0.2992125984251969
        },
        {
          "duration": 0.22093023255814614,
          "durationTicks": 19,
          "midi": 60,
          "name": "C4",
          "ticks": 14410,
          "time": 167.5581395348837,
          "velocity": 0.3543307086614173
        },
        {
          "duration": 0.04651162790699459,
          "durationTicks": 4,
          "midi": 88,
          "name": "E6",
          "ticks": 14410,
          "time": 167.5581395348837,
          "velocity": 0.16535433070866143
        },
        {
          "duration": 0.16279069767441,
          "durationTicks": 14,
          "midi": 45,
          "name": "A2",
          "ticks": 14414,
          "time": 167.6046511627907,
          "velocity": 0.29133858267716534
        },
        {
          "duration": 0.034883720930224626,
          "durationTicks": 3,
          "midi": 88,
          "name": "E6",
          "ticks": 14416,
          "time": 167.62790697674419,
          "velocity": 0.11023622047244094
        },
        {
          "duration": 0.05813953488370771,
          "durationTicks": 5,
          "midi": 88,
          "name": "E6",
          "ticks": 14422,
          "time": 167.69767441860466,
          "velocity": 0.09448818897637795
        },
        {
          "duration": 0.034883720930224626,
          "durationTicks": 3,
          "midi": 83,
          "name": "B5",
          "ticks": 14423,
          "time": 167.7093023255814,
          "velocity": 0.09448818897637795
        },
        {
          "duration": 0.023255813953483084,
          "durationTicks": 2,
          "midi": 45,
          "name": "A2",
          "ticks": 14429,
          "time": 167.77906976744185,
          "velocity": 0.30708661417322836
        },
        {
          "duration": 0.023255813953511506,
          "durationTicks": 2,
          "midi": 52,
          "name": "E3",
          "ticks": 14430,
          "time": 167.7906976744186,
          "velocity": 0.2440944881889764
        },
        {
          "duration": 0.05813953488373613,
          "durationTicks": 5,
          "midi": 60,
          "name": "C4",
          "ticks": 14430,
          "time": 167.7906976744186,
          "velocity": 0.2677165354330709
        },
        {
          "duration": 0.04651162790699459,
          "durationTicks": 4,
          "midi": 83,
          "name": "B5",
          "ticks": 14430,
          "time": 167.7906976744186,
          "velocity": 0.13385826771653545
        },
        {
          "duration": 0.03488372093025305,
          "durationTicks": 3,
          "midi": 85,
          "name": "C#6",
          "ticks": 14431,
          "time": 167.80232558139534,
          "velocity": 0.09448818897637795
        },
        {
          "duration": 0.03488372093025305,
          "durationTicks": 3,
          "midi": 88,
          "name": "E6",
          "ticks": 14431,
          "time": 167.80232558139534,
          "velocity": 0.11023622047244094
        },
        {
          "duration": 0.04651162790696617,
          "durationTicks": 4,
          "midi": 45,
          "name": "A2",
          "ticks": 14432,
          "time": 167.8139534883721,
          "velocity": 0.2992125984251969
        },
        {
          "duration": 0.06976744186044925,
          "durationTicks": 6,
          "midi": 64,
          "name": "E4",
          "ticks": 14432,
          "time": 167.8139534883721,
          "velocity": 0.1732283464566929
        },
        {
          "duration": 0.10465116279067388,
          "durationTicks": 9,
          "midi": 52,
          "name": "E3",
          "ticks": 14433,
          "time": 167.82558139534885,
          "velocity": 0.2677165354330709
        },
        {
          "duration": 0.5697674418604493,
          "durationTicks": 49,
          "midi": 79,
          "name": "G5",
          "ticks": 14434,
          "time": 167.8372093023256,
          "velocity": 0.3700787401574803
        },
        {
          "duration": 0.30232558139533694,
          "durationTicks": 26,
          "midi": 82,
          "name": "A#5",
          "ticks": 14434,
          "time": 167.8372093023256,
          "velocity": 0.3937007874015748
        },
        {
          "duration": 0.22093023255811772,
          "durationTicks": 19,
          "midi": 86,
          "name": "D6",
          "ticks": 14434,
          "time": 167.8372093023256,
          "velocity": 0.10236220472440945
        },
        {
          "duration": 0.05813953488370771,
          "durationTicks": 5,
          "midi": 60,
          "name": "C4",
          "ticks": 14436,
          "time": 167.86046511627907,
          "velocity": 0.1732283464566929
        },
        {
          "duration": 0.034883720930224626,
          "durationTicks": 3,
          "midi": 45,
          "name": "A2",
          "ticks": 14437,
          "time": 167.87209302325581,
          "velocity": 0.2755905511811024
        },
        {
          "duration": 0.09302325581396076,
          "durationTicks": 8,
          "midi": 45,
          "name": "A2",
          "ticks": 14441,
          "time": 167.91860465116278,
          "velocity": 0.2992125984251969
        },
        {
          "duration": 0.04651162790696617,
          "durationTicks": 4,
          "midi": 60,
          "name": "C4",
          "ticks": 14443,
          "time": 167.9418604651163,
          "velocity": 0.14960629921259844
        },
        {
          "duration": 0.22093023255811772,
          "durationTicks": 19,
          "midi": 70,
          "name": "A#4",
          "ticks": 14443,
          "time": 167.9418604651163,
          "velocity": 0.2677165354330709
        },
        {
          "duration": 0.05813953488370771,
          "durationTicks": 5,
          "midi": 52,
          "name": "E3",
          "ticks": 14445,
          "time": 167.96511627906978,
          "velocity": 0.18110236220472442
        },
        {
          "duration": 0.09302325581396076,
          "durationTicks": 8,
          "midi": 76,
          "name": "E5",
          "ticks": 14448,
          "time": 168,
          "velocity": 0.25196850393700787
        },
        {
          "duration": 0.06976744186047767,
          "durationTicks": 6,
          "midi": 52,
          "name": "E3",
          "ticks": 14451,
          "time": 168.03488372093022,
          "velocity": 0.16535433070866143
        },
        {
          "duration": 0.17441860465117998,
          "durationTicks": 15,
          "midi": 45,
          "name": "A2",
          "ticks": 14452,
          "time": 168.04651162790697,
          "velocity": 0.2440944881889764
        },
        {
          "duration": 0.6162790697674438,
          "durationTicks": 53,
          "midi": 77,
          "name": "F5",
          "ticks": 14456,
          "time": 168.09302325581396,
          "velocity": 0.4251968503937008
        },
        {
          "duration": 0.7558139534883708,
          "durationTicks": 65,
          "midi": 81,
          "name": "A5",
          "ticks": 14460,
          "time": 168.13953488372093,
          "velocity": 0.2992125984251969
        },
        {
          "duration": 0.3139534883721069,
          "durationTicks": 27,
          "midi": 69,
          "name": "A4",
          "ticks": 14462,
          "time": 168.1627906976744,
          "velocity": 0.3228346456692913
        },
        {
          "duration": 0.03488372093025305,
          "durationTicks": 3,
          "midi": 52,
          "name": "E3",
          "ticks": 14464,
          "time": 168.1860465116279,
          "velocity": 0.16535433070866143
        },
        {
          "duration": 0.023255813953483084,
          "durationTicks": 2,
          "midi": 46,
          "name": "A#2",
          "ticks": 14467,
          "time": 168.22093023255815,
          "velocity": 0.3779527559055118
        },
        {
          "duration": 0.2325581395348877,
          "durationTicks": 20,
          "midi": 64,
          "name": "E4",
          "ticks": 14467,
          "time": 168.22093023255815,
          "velocity": 0.30708661417322836
        },
        {
          "duration": 0.1860465116278931,
          "durationTicks": 16,
          "midi": 88,
          "name": "E6",
          "ticks": 14467,
          "time": 168.22093023255815,
          "velocity": 0.1889763779527559
        },
        {
          "duration": 0.09302325581396076,
          "durationTicks": 8,
          "midi": 86,
          "name": "D6",
          "ticks": 14468,
          "time": 168.2325581395349,
          "velocity": 0.11811023622047244
        },
        {
          "duration": 0.04651162790696617,
          "durationTicks": 4,
          "midi": 72,
          "name": "C5",
          "ticks": 14469,
          "time": 168.24418604651163,
          "velocity": 0.15748031496062992
        },
        {
          "duration": 0.2325581395348877,
          "durationTicks": 20,
          "midi": 83,
          "name": "B5",
          "ticks": 14469,
          "time": 168.24418604651163,
          "velocity": 0.1732283464566929
        },
        {
          "duration": 0.023255813953483084,
          "durationTicks": 2,
          "midi": 44,
          "name": "G#2",
          "ticks": 14470,
          "time": 168.25581395348837,
          "velocity": 0.3464566929133858
        },
        {
          "duration": 0.08139534883721922,
          "durationTicks": 7,
          "midi": 52,
          "name": "E3",
          "ticks": 14470,
          "time": 168.25581395348837,
          "velocity": 0.28346456692913385
        },
        {
          "duration": 0.034883720930224626,
          "durationTicks": 3,
          "midi": 85,
          "name": "C#6",
          "ticks": 14470,
          "time": 168.25581395348837,
          "velocity": 0.07874015748031496
        },
        {
          "duration": 0.023255813953483084,
          "durationTicks": 2,
          "midi": 45,
          "name": "A2",
          "ticks": 14472,
          "time": 168.27906976744185,
          "velocity": 0.3700787401574803
        },
        {
          "duration": 0.034883720930224626,
          "durationTicks": 3,
          "midi": 45,
          "name": "A2",
          "ticks": 14475,
          "time": 168.3139534883721,
          "velocity": 0.3543307086614173
        },
        {
          "duration": 0.034883720930224626,
          "durationTicks": 3,
          "midi": 45,
          "name": "A2",
          "ticks": 14479,
          "time": 168.36046511627907,
          "velocity": 0.33070866141732286
        },
        {
          "duration": 0.023255813953483084,
          "durationTicks": 2,
          "midi": 44,
          "name": "G#2",
          "ticks": 14482,
          "time": 168.3953488372093,
          "velocity": 0.28346456692913385
        },
        {
          "duration": 0.023255813953511506,
          "durationTicks": 2,
          "midi": 45,
          "name": "A2",
          "ticks": 14484,
          "time": 168.41860465116278,
          "velocity": 0.31496062992125984
        },
        {
          "duration": 0.6046511627906739,
          "durationTicks": 52,
          "midi": 74,
          "name": "D5",
          "ticks": 14486,
          "time": 168.4418604651163,
          "velocity": 0.48031496062992124
        },
        {
          "duration": 1.0116279069767415,
          "durationTicks": 87,
          "midi": 79,
          "name": "G5",
          "ticks": 14486,
          "time": 168.4418604651163,
          "velocity": 0.41732283464566927
        },
        {
          "duration": 0.05813953488370771,
          "durationTicks": 5,
          "midi": 65,
          "name": "F4",
          "ticks": 14487,
          "time": 168.45348837209303,
          "velocity": 0.3543307086614173
        },
        {
          "duration": 0.023255813953483084,
          "durationTicks": 2,
          "midi": 62,
          "name": "D4",
          "ticks": 14488,
          "time": 168.46511627906978,
          "velocity": 0.3228346456692913
        },
        {
          "duration": 0.1860465116278931,
          "durationTicks": 16,
          "midi": 67,
          "name": "G4",
          "ticks": 14488,
          "time": 168.46511627906978,
          "velocity": 0.3858267716535433
        },
        {
          "duration": 0.034883720930224626,
          "durationTicks": 3,
          "midi": 52,
          "name": "E3",
          "ticks": 14489,
          "time": 168.47674418604652,
          "velocity": 0.16535433070866143
        },
        {
          "duration": 0.05813953488370771,
          "durationTicks": 5,
          "midi": 84,
          "name": "C6",
          "ticks": 14490,
          "time": 168.48837209302326,
          "velocity": 0.13385826771653545
        },
        {
          "duration": 0.023255813953483084,
          "durationTicks": 2,
          "midi": 47,
          "name": "B2",
          "ticks": 14491,
          "time": 168.5,
          "velocity": 0.2755905511811024
        },
        {
          "duration": 0.13953488372092693,
          "durationTicks": 12,
          "midi": 62,
          "name": "D4",
          "ticks": 14491,
          "time": 168.5,
          "velocity": 0.29133858267716534
        },
        {
          "duration": 0.04651162790696617,
          "durationTicks": 4,
          "midi": 83,
          "name": "B5",
          "ticks": 14491,
          "time": 168.5,
          "velocity": 0.08661417322834646
        },
        {
          "duration": 0.034883720930224626,
          "durationTicks": 3,
          "midi": 72,
          "name": "C5",
          "ticks": 14492,
          "time": 168.51162790697674,
          "velocity": 0.14173228346456693
        },
        {
          "duration": 0.04651162790696617,
          "durationTicks": 4,
          "midi": 84,
          "name": "C6",
          "ticks": 14497,
          "time": 168.56976744186048,
          "velocity": 0.12598425196850394
        },
        {
          "duration": 0.034883720930224626,
          "durationTicks": 3,
          "midi": 72,
          "name": "C5",
          "ticks": 14499,
          "time": 168.59302325581396,
          "velocity": 0.10236220472440945
        },
        {
          "duration": 0.43023255813955075,
          "durationTicks": 37,
          "midi": 65,
          "name": "F4",
          "ticks": 14503,
          "time": 168.63953488372093,
          "velocity": 0.4251968503937008
        },
        {
          "duration": 0.023255813953483084,
          "durationTicks": 2,
          "midi": 46,
          "name": "A#2",
          "ticks": 14504,
          "time": 168.65116279069767,
          "velocity": 0.2283464566929134
        },
        {
          "duration": 0.5581395348837361,
          "durationTicks": 48,
          "midi": 84,
          "name": "C6",
          "ticks": 14504,
          "time": 168.65116279069767,
          "velocity": 0.3779527559055118
        },
        {
          "duration": 0.2093023255814046,
          "durationTicks": 18,
          "midi": 87,
          "name": "D#6",
          "ticks": 14507,
          "time": 168.6860465116279,
          "velocity": 0.10236220472440945
        },
        {
          "duration": 0.7325581395348877,
          "durationTicks": 63,
          "midi": 88,
          "name": "E6",
          "ticks": 14507,
          "time": 168.6860465116279,
          "velocity": 0.23622047244094488
        },
        {
          "duration": 0.04651162790696617,
          "durationTicks": 4,
          "midi": 50,
          "name": "D3",
          "ticks": 14508,
          "time": 168.69767441860466,
          "velocity": 0.3543307086614173
        },
        {
          "duration": 0.034883720930224626,
          "durationTicks": 3,
          "midi": 72,
          "name": "C5",
          "ticks": 14509,
          "time": 168.7093023255814,
          "velocity": 0.11811023622047244
        },
        {
          "duration": 0.04651162790696617,
          "durationTicks": 4,
          "midi": 90,
          "name": "F#6",
          "ticks": 14509,
          "time": 168.7093023255814,
          "velocity": 0.10236220472440945
        },
        {
          "duration": 1.5697674418604777,
          "durationTicks": 135,
          "midi": 77,
          "name": "F5",
          "ticks": 14512,
          "time": 168.74418604651163,
          "velocity": 0.4251968503937008
        },
        {
          "duration": 0.034883720930224626,
          "durationTicks": 3,
          "midi": 62,
          "name": "D4",
          "ticks": 14513,
          "time": 168.75581395348837,
          "velocity": 0.25196850393700787
        },
        {
          "duration": 0.6511627906976685,
          "durationTicks": 56,
          "midi": 72,
          "name": "C5",
          "ticks": 14513,
          "time": 168.75581395348837,
          "velocity": 0.4566929133858268
        },
        {
          "duration": 0.03488372093025305,
          "durationTicks": 3,
          "midi": 50,
          "name": "D3",
          "ticks": 14515,
          "time": 168.77906976744185,
          "velocity": 0.3700787401574803
        },
        {
          "duration": 0.1046511627907023,
          "durationTicks": 9,
          "midi": 90,
          "name": "F#6",
          "ticks": 14516,
          "time": 168.7906976744186,
          "velocity": 0.11023622047244094
        },
        {
          "duration": 0.023255813953483084,
          "durationTicks": 2,
          "midi": 62,
          "name": "D4",
          "ticks": 14519,
          "time": 168.82558139534885,
          "velocity": 0.2283464566929134
        },
        {
          "duration": 0.04651162790696617,
          "durationTicks": 4,
          "midi": 50,
          "name": "D3",
          "ticks": 14523,
          "time": 168.87209302325581,
          "velocity": 0.30708661417322836
        },
        {
          "duration": 0.023255813953511506,
          "durationTicks": 2,
          "midi": 51,
          "name": "D#3",
          "ticks": 14527,
          "time": 168.91860465116278,
          "velocity": 0.2755905511811024
        },
        {
          "duration": 0.03488372093025305,
          "durationTicks": 3,
          "midi": 87,
          "name": "D#6",
          "ticks": 14528,
          "time": 168.93023255813952,
          "velocity": 0.10236220472440945
        },
        {
          "duration": 0.17441860465115155,
          "durationTicks": 15,
          "midi": 38,
          "name": "D2",
          "ticks": 14531,
          "time": 168.96511627906978,
          "velocity": 0.1968503937007874
        },
        {
          "duration": 0.09302325581393234,
          "durationTicks": 8,
          "midi": 50,
          "name": "D3",
          "ticks": 14531,
          "time": 168.96511627906978,
          "velocity": 0.3779527559055118
        },
        {
          "duration": 0.16279069767443843,
          "durationTicks": 14,
          "midi": 67,
          "name": "G4",
          "ticks": 14539,
          "time": 169.0581395348837,
          "velocity": 0.4015748031496063
        },
        {
          "duration": 2.2674418604651407,
          "durationTicks": 195,
          "midi": 74,
          "name": "D5",
          "ticks": 14539,
          "time": 169.0581395348837,
          "velocity": 0.5118110236220472
        },
        {
          "duration": 0.04651162790696617,
          "durationTicks": 4,
          "midi": 50,
          "name": "D3",
          "ticks": 14540,
          "time": 169.06976744186048,
          "velocity": 0.36220472440944884
        },
        {
          "duration": 0.034883720930224626,
          "durationTicks": 3,
          "midi": 93,
          "name": "A6",
          "ticks": 14540,
          "time": 169.06976744186048,
          "velocity": 0.07086614173228346
        },
        {
          "duration": 0.034883720930224626,
          "durationTicks": 3,
          "midi": 65,
          "name": "F4",
          "ticks": 14541,
          "time": 169.08139534883722,
          "velocity": 0.28346456692913385
        },
        {
          "duration": 0.023255813953483084,
          "durationTicks": 2,
          "midi": 51,
          "name": "D#3",
          "ticks": 14544,
          "time": 169.11627906976744,
          "velocity": 0.23622047244094488
        },
        {
          "duration": 0.034883720930224626,
          "durationTicks": 3,
          "midi": 87,
          "name": "D#6",
          "ticks": 14545,
          "time": 169.12790697674419,
          "velocity": 0.07874015748031496
        },
        {
          "duration": 0.034883720930224626,
          "durationTicks": 3,
          "midi": 93,
          "name": "A6",
          "ticks": 14546,
          "time": 169.13953488372093,
          "velocity": 0.13385826771653545
        },
        {
          "duration": 0.5348837209302246,
          "durationTicks": 46,
          "midi": 69,
          "name": "A4",
          "ticks": 14547,
          "time": 169.15116279069767,
          "velocity": 0.3937007874015748
        },
        {
          "duration": 0.034883720930224626,
          "durationTicks": 3,
          "midi": 85,
          "name": "C#6",
          "ticks": 14547,
          "time": 169.15116279069767,
          "velocity": 0.10236220472440945
        },
        {
          "duration": 0.023255813953483084,
          "durationTicks": 2,
          "midi": 53,
          "name": "F3",
          "ticks": 14548,
          "time": 169.1627906976744,
          "velocity": 0.25984251968503935
        },
        {
          "duration": 0.05813953488373613,
          "durationTicks": 5,
          "midi": 65,
          "name": "F4",
          "ticks": 14548,
          "time": 169.1627906976744,
          "velocity": 0.33858267716535434
        },
        {
          "duration": 0.023255813953483084,
          "durationTicks": 2,
          "midi": 49,
          "name": "C#3",
          "ticks": 14551,
          "time": 169.19767441860466,
          "velocity": 0.2755905511811024
        },
        {
          "duration": 0.0813953488371908,
          "durationTicks": 7,
          "midi": 62,
          "name": "D4",
          "ticks": 14552,
          "time": 169.2093023255814,
          "velocity": 0.2440944881889764
        },
        {
          "duration": 0.2093023255814046,
          "durationTicks": 18,
          "midi": 65,
          "name": "F4",
          "ticks": 14554,
          "time": 169.2325581395349,
          "velocity": 0.3228346456692913
        },
        {
          "duration": 0.023255813953483084,
          "durationTicks": 2,
          "midi": 50,
          "name": "D3",
          "ticks": 14558,
          "time": 169.27906976744185,
          "velocity": 0.2677165354330709
        },
        {
          "duration": 0.023255813953483084,
          "durationTicks": 2,
          "midi": 50,
          "name": "D3",
          "ticks": 14563,
          "time": 169.3372093023256,
          "velocity": 0.2755905511811024
        },
        {
          "duration": 0.13953488372092693,
          "durationTicks": 12,
          "midi": 96,
          "name": "C7",
          "ticks": 14564,
          "time": 169.34883720930233,
          "velocity": 0.3858267716535433
        },
        {
          "duration": 0.2093023255814046,
          "durationTicks": 18,
          "midi": 62,
          "name": "D4",
          "ticks": 14566,
          "time": 169.37209302325581,
          "velocity": 0.30708661417322836
        },
        {
          "duration": 0.04651162790699459,
          "durationTicks": 4,
          "midi": 42,
          "name": "F#2",
          "ticks": 14568,
          "time": 169.3953488372093,
          "velocity": 0.2440944881889764
        },
        {
          "duration": 0.034883720930224626,
          "durationTicks": 3,
          "midi": 82,
          "name": "A#5",
          "ticks": 14568,
          "time": 169.3953488372093,
          "velocity": 0.09448818897637795
        },
        {
          "duration": 0.18604651162792152,
          "durationTicks": 16,
          "midi": 83,
          "name": "B5",
          "ticks": 14568,
          "time": 169.3953488372093,
          "velocity": 0.14173228346456693
        },
        {
          "duration": 0.04651162790699459,
          "durationTicks": 4,
          "midi": 58,
          "name": "A#3",
          "ticks": 14570,
          "time": 169.41860465116278,
          "velocity": 0.2440944881889764
        },
        {
          "duration": 0.04651162790699459,
          "durationTicks": 4,
          "midi": 67,
          "name": "G4",
          "ticks": 14571,
          "time": 169.43023255813952,
          "velocity": 0.2283464566929134
        },
        {
          "duration": 0.034883720930224626,
          "durationTicks": 3,
          "midi": 82,
          "name": "A#5",
          "ticks": 14572,
          "time": 169.4418604651163,
          "velocity": 0.07874015748031496
        },
        {
          "duration": 0.034883720930224626,
          "durationTicks": 3,
          "midi": 43,
          "name": "G2",
          "ticks": 14573,
          "time": 169.45348837209303,
          "velocity": 0.16535433070866143
        },
        {
          "duration": 0.05813953488370771,
          "durationTicks": 5,
          "midi": 93,
          "name": "A6",
          "ticks": 14575,
          "time": 169.47674418604652,
          "velocity": 0.11023622047244094
        },
        {
          "duration": 0.034883720930224626,
          "durationTicks": 3,
          "midi": 42,
          "name": "F#2",
          "ticks": 14576,
          "time": 169.48837209302326,
          "velocity": 0.07874015748031496
        },
        {
          "duration": 0.04651162790696617,
          "durationTicks": 4,
          "midi": 55,
          "name": "G3",
          "ticks": 14577,
          "time": 169.5,
          "velocity": 0.1968503937007874
        },
        {
          "duration": 0.05813953488373613,
          "durationTicks": 5,
          "midi": 43,
          "name": "G2",
          "ticks": 14580,
          "time": 169.53488372093022,
          "velocity": 0.12598425196850394
        },
        {
          "duration": 0.023255813953483084,
          "durationTicks": 2,
          "midi": 55,
          "name": "G3",
          "ticks": 14584,
          "time": 169.58139534883722,
          "velocity": 0.2283464566929134
        },
        {
          "duration": 0.7093023255813762,
          "durationTicks": 61,
          "midi": 88,
          "name": "E6",
          "ticks": 14585,
          "time": 169.59302325581396,
          "velocity": 0.12598425196850394
        },
        {
          "duration": 0.44186046511626387,
          "durationTicks": 38,
          "midi": 62,
          "name": "D4",
          "ticks": 14586,
          "time": 169.6046511627907,
          "velocity": 0.2125984251968504
        },
        {
          "duration": 0.22093023255814614,
          "durationTicks": 19,
          "midi": 50,
          "name": "D3",
          "ticks": 14587,
          "time": 169.61627906976744,
          "velocity": 0.2204724409448819
        },
        {
          "duration": 0.034883720930224626,
          "durationTicks": 3,
          "midi": 96,
          "name": "C7",
          "ticks": 14587,
          "time": 169.61627906976744,
          "velocity": 0.08661417322834646
        },
        {
          "duration": 0.023255813953483084,
          "durationTicks": 2,
          "midi": 58,
          "name": "A#3",
          "ticks": 14588,
          "time": 169.62790697674419,
          "velocity": 0.2283464566929134
        },
        {
          "duration": 0.5348837209302246,
          "durationTicks": 46,
          "midi": 79,
          "name": "G5",
          "ticks": 14590,
          "time": 169.65116279069767,
          "velocity": 0.4015748031496063
        },
        {
          "duration": 0.2093023255814046,
          "durationTicks": 18,
          "midi": 82,
          "name": "A#5",
          "ticks": 14590,
          "time": 169.65116279069767,
          "velocity": 0.25984251968503935
        },
        {
          "duration": 0.03488372093025305,
          "durationTicks": 3,
          "midi": 58,
          "name": "A#3",
          "ticks": 14591,
          "time": 169.6627906976744,
          "velocity": 0.2204724409448819
        },
        {
          "duration": 0.2790697674418823,
          "durationTicks": 24,
          "midi": 70,
          "name": "A#4",
          "ticks": 14592,
          "time": 169.67441860465115,
          "velocity": 0.47244094488188976
        },
        {
          "duration": 0.023255813953483084,
          "durationTicks": 2,
          "midi": 58,
          "name": "A#3",
          "ticks": 14595,
          "time": 169.7093023255814,
          "velocity": 0.23622047244094488
        },
        {
          "duration": 0.45348837209303383,
          "durationTicks": 39,
          "midi": 83,
          "name": "B5",
          "ticks": 14602,
          "time": 169.7906976744186,
          "velocity": 0.1732283464566929
        },
        {
          "duration": 0.023255813953483084,
          "durationTicks": 2,
          "midi": 44,
          "name": "G#2",
          "ticks": 14604,
          "time": 169.8139534883721,
          "velocity": 0.23622047244094488
        },
        {
          "duration": 0.24418604651162923,
          "durationTicks": 21,
          "midi": 43,
          "name": "G2",
          "ticks": 14606,
          "time": 169.8372093023256,
          "velocity": 0.2440944881889764
        },
        {
          "duration": 0.17441860465115155,
          "durationTicks": 15,
          "midi": 50,
          "name": "D3",
          "ticks": 14607,
          "time": 169.84883720930233,
          "velocity": 0.2125984251968504
        },
        {
          "duration": 0.19767441860463464,
          "durationTicks": 17,
          "midi": 55,
          "name": "G3",
          "ticks": 14607,
          "time": 169.84883720930233,
          "velocity": 0.25984251968503935
        },
        {
          "duration": 0.023255813953483084,
          "durationTicks": 2,
          "midi": 69,
          "name": "A4",
          "ticks": 14608,
          "time": 169.86046511627907,
          "velocity": 0.2283464566929134
        },
        {
          "duration": 0.3139534883720785,
          "durationTicks": 27,
          "midi": 81,
          "name": "A5",
          "ticks": 14616,
          "time": 169.95348837209303,
          "velocity": 0.25196850393700787
        },
        {
          "duration": 0.30232558139533694,
          "durationTicks": 26,
          "midi": 69,
          "name": "A4",
          "ticks": 14618,
          "time": 169.97674418604652,
          "velocity": 0.3700787401574803
        },
        {
          "duration": 0.03488372093025305,
          "durationTicks": 3,
          "midi": 67,
          "name": "G4",
          "ticks": 14624,
          "time": 170.04651162790697,
          "velocity": 0.1732283464566929
        },
        {
          "duration": 0.04651162790699459,
          "durationTicks": 4,
          "midi": 55,
          "name": "G3",
          "ticks": 14625,
          "time": 170.0581395348837,
          "velocity": 0.25984251968503935
        },
        {
          "duration": 0.0813953488371908,
          "durationTicks": 7,
          "midi": 62,
          "name": "D4",
          "ticks": 14626,
          "time": 170.06976744186048,
          "velocity": 0.16535433070866143
        },
        {
          "duration": 0.20930232558137618,
          "durationTicks": 18,
          "midi": 50,
          "name": "D3",
          "ticks": 14627,
          "time": 170.08139534883722,
          "velocity": 0.30708661417322836
        },
        {
          "duration": 0.15116279069766847,
          "durationTicks": 13,
          "midi": 55,
          "name": "G3",
          "ticks": 14630,
          "time": 170.11627906976744,
          "velocity": 0.2204724409448819
        },
        {
          "duration": 1.0465116279069946,
          "durationTicks": 90,
          "midi": 67,
          "name": "G4",
          "ticks": 14633,
          "time": 170.15116279069767,
          "velocity": 0.47244094488188976
        },
        {
          "duration": 0.17441860465115155,
          "durationTicks": 15,
          "midi": 72,
          "name": "C5",
          "ticks": 14642,
          "time": 170.25581395348837,
          "velocity": 0.29133858267716534
        },
        {
          "duration": 0.9651162790697754,
          "durationTicks": 83,
          "midi": 83,
          "name": "B5",
          "ticks": 14643,
          "time": 170.2674418604651,
          "velocity": 0.29133858267716534
        },
        {
          "duration": 0.22093023255814614,
          "durationTicks": 19,
          "midi": 60,
          "name": "C4",
          "ticks": 14644,
          "time": 170.27906976744185,
          "velocity": 0.3543307086614173
        },
        {
          "duration": 0.2093023255814046,
          "durationTicks": 18,
          "midi": 64,
          "name": "E4",
          "ticks": 14644,
          "time": 170.27906976744185,
          "velocity": 0.2992125984251969
        },
        {
          "duration": 0.04651162790699459,
          "durationTicks": 4,
          "midi": 82,
          "name": "A#5",
          "ticks": 14644,
          "time": 170.27906976744185,
          "velocity": 0.09448818897637795
        },
        {
          "duration": 0.03488372093025305,
          "durationTicks": 3,
          "midi": 50,
          "name": "D3",
          "ticks": 14646,
          "time": 170.30232558139534,
          "velocity": 0.23622047244094488
        },
        {
          "duration": 0.04651162790696617,
          "durationTicks": 4,
          "midi": 55,
          "name": "G3",
          "ticks": 14648,
          "time": 170.32558139534885,
          "velocity": 0.18110236220472442
        },
        {
          "duration": 0.19767441860463464,
          "durationTicks": 17,
          "midi": 81,
          "name": "A5",
          "ticks": 14648,
          "time": 170.32558139534885,
          "velocity": 0.11023622047244094
        },
        {
          "duration": 0.023255813953483084,
          "durationTicks": 2,
          "midi": 50,
          "name": "D3",
          "ticks": 14650,
          "time": 170.34883720930233,
          "velocity": 0.2440944881889764
        },
        {
          "duration": 0.16279069767441,
          "durationTicks": 14,
          "midi": 77,
          "name": "F5",
          "ticks": 14650,
          "time": 170.34883720930233,
          "velocity": 0.25984251968503935
        },
        {
          "duration": 0.1046511627907023,
          "durationTicks": 9,
          "midi": 50,
          "name": "D3",
          "ticks": 14653,
          "time": 170.38372093023256,
          "velocity": 0.25984251968503935
        },
        {
          "duration": 0.12790697674418539,
          "durationTicks": 11,
          "midi": 55,
          "name": "G3",
          "ticks": 14653,
          "time": 170.38372093023256,
          "velocity": 0.2125984251968504
        },
        {
          "duration": 0.034883720930224626,
          "durationTicks": 3,
          "midi": 63,
          "name": "D#4",
          "ticks": 14662,
          "time": 170.48837209302326,
          "velocity": 0.2204724409448819
        },
        {
          "duration": 0.45348837209303383,
          "durationTicks": 39,
          "midi": 72,
          "name": "C5",
          "ticks": 14662,
          "time": 170.48837209302326,
          "velocity": 0.48031496062992124
        },
        {
          "duration": 0.06976744186047767,
          "durationTicks": 6,
          "midi": 76,
          "name": "E5",
          "ticks": 14663,
          "time": 170.5,
          "velocity": 0.1968503937007874
        },
        {
          "duration": 0.023255813953483084,
          "durationTicks": 2,
          "midi": 51,
          "name": "D#3",
          "ticks": 14664,
          "time": 170.51162790697674,
          "velocity": 0.33070866141732286
        },
        {
          "duration": 0.43023255813955075,
          "durationTicks": 37,
          "midi": 60,
          "name": "C4",
          "ticks": 14664,
          "time": 170.51162790697674,
          "velocity": 0.33070866141732286
        },
        {
          "duration": 0.04651162790699459,
          "durationTicks": 4,
          "midi": 64,
          "name": "E4",
          "ticks": 14665,
          "time": 170.52325581395348,
          "velocity": 0.25984251968503935
        },
        {
          "duration": 0.023255813953483084,
          "durationTicks": 2,
          "midi": 56,
          "name": "G#3",
          "ticks": 14666,
          "time": 170.53488372093022,
          "velocity": 0.23622047244094488
        },
        {
          "duration": 0.43023255813955075,
          "durationTicks": 37,
          "midi": 77,
          "name": "F5",
          "ticks": 14668,
          "time": 170.5581395348837,
          "velocity": 0.4094488188976378
        },
        {
          "duration": 0.03488372093025305,
          "durationTicks": 3,
          "midi": 90,
          "name": "F#6",
          "ticks": 14668,
          "time": 170.5581395348837,
          "velocity": 0.11023622047244094
        },
        {
          "duration": 0.023255813953483084,
          "durationTicks": 2,
          "midi": 51,
          "name": "D#3",
          "ticks": 14669,
          "time": 170.56976744186048,
          "velocity": 0.33858267716535434
        },
        {
          "duration": 0.023255813953483084,
          "durationTicks": 2,
          "midi": 51,
          "name": "D#3",
          "ticks": 14673,
          "time": 170.61627906976744,
          "velocity": 0.29133858267716534
        },
        {
          "duration": 0.034883720930224626,
          "durationTicks": 3,
          "midi": 90,
          "name": "F#6",
          "ticks": 14673,
          "time": 170.61627906976744,
          "velocity": 0.08661417322834646
        },
        {
          "duration": 0.04651162790696617,
          "durationTicks": 4,
          "midi": 55,
          "name": "G3",
          "ticks": 14675,
          "time": 170.63953488372093,
          "velocity": 0.2047244094488189
        },
        {
          "duration": 0.023255813953511506,
          "durationTicks": 2,
          "midi": 51,
          "name": "D#3",
          "ticks": 14678,
          "time": 170.67441860465115,
          "velocity": 0.25984251968503935
        },
        {
          "duration": 0.034883720930224626,
          "durationTicks": 3,
          "midi": 55,
          "name": "G3",
          "ticks": 14681,
          "time": 170.7093023255814,
          "velocity": 0.1889763779527559
        },
        {
          "duration": 0.023255813953483084,
          "durationTicks": 2,
          "midi": 51,
          "name": "D#3",
          "ticks": 14683,
          "time": 170.7325581395349,
          "velocity": 0.25196850393700787
        },
        {
          "duration": 0.04651162790696617,
          "durationTicks": 4,
          "midi": 55,
          "name": "G3",
          "ticks": 14685,
          "time": 170.75581395348837,
          "velocity": 0.2204724409448819
        },
        {
          "duration": 0.04651162790699459,
          "durationTicks": 4,
          "midi": 88,
          "name": "E6",
          "ticks": 14686,
          "time": 170.7674418604651,
          "velocity": 0.10236220472440945
        },
        {
          "duration": 0.023255813953511506,
          "durationTicks": 2,
          "midi": 51,
          "name": "D#3",
          "ticks": 14688,
          "time": 170.7906976744186,
          "velocity": 0.2677165354330709
        },
        {
          "duration": 0.12790697674418539,
          "durationTicks": 11,
          "midi": 64,
          "name": "E4",
          "ticks": 14688,
          "time": 170.7906976744186,
          "velocity": 0.25196850393700787
        },
        {
          "duration": 0.023255813953483084,
          "durationTicks": 2,
          "midi": 51,
          "name": "D#3",
          "ticks": 14693,
          "time": 170.84883720930233,
          "velocity": 0.25984251968503935
        },
        {
          "duration": 0.034883720930224626,
          "durationTicks": 3,
          "midi": 55,
          "name": "G3",
          "ticks": 14695,
          "time": 170.87209302325581,
          "velocity": 0.2204724409448819
        },
        {
          "duration": 0.04651162790699459,
          "durationTicks": 4,
          "midi": 55,
          "name": "G3",
          "ticks": 14699,
          "time": 170.91860465116278,
          "velocity": 0.2204724409448819
        },
        {
          "duration": 0.03488372093025305,
          "durationTicks": 3,
          "midi": 49,
          "name": "C#3",
          "ticks": 14700,
          "time": 170.93023255813952,
          "velocity": 0.2992125984251969
        },
        {
          "duration": 0.1860465116278931,
          "durationTicks": 16,
          "midi": 72,
          "name": "C5",
          "ticks": 14702,
          "time": 170.95348837209303,
          "velocity": 0.28346456692913385
        },
        {
          "duration": 0.24418604651162923,
          "durationTicks": 21,
          "midi": 90,
          "name": "F#6",
          "ticks": 14702,
          "time": 170.95348837209303,
          "velocity": 0.14173228346456693
        },
        {
          "duration": 0.17441860465115155,
          "durationTicks": 15,
          "midi": 91,
          "name": "G6",
          "ticks": 14702,
          "time": 170.95348837209303,
          "velocity": 0.10236220472440945
        },
        {
          "duration": 0.023255813953483084,
          "durationTicks": 2,
          "midi": 47,
          "name": "B2",
          "ticks": 14703,
          "time": 170.96511627906978,
          "velocity": 0.25196850393700787
        },
        {
          "duration": 0.20930232558137618,
          "durationTicks": 18,
          "midi": 60,
          "name": "C4",
          "ticks": 14703,
          "time": 170.96511627906978,
          "velocity": 0.3464566929133858
        },
        {
          "duration": 0.48837209302325846,
          "durationTicks": 42,
          "midi": 64,
          "name": "E4",
          "ticks": 14703,
          "time": 170.96511627906978,
          "velocity": 0.33858267716535434
        },
        {
          "duration": 0.2325581395348877,
          "durationTicks": 20,
          "midi": 88,
          "name": "E6",
          "ticks": 14703,
          "time": 170.96511627906978,
          "velocity": 0.1732283464566929
        },
        {
          "duration": 0.034883720930224626,
          "durationTicks": 3,
          "midi": 55,
          "name": "G3",
          "ticks": 14704,
          "time": 170.97674418604652,
          "velocity": 0.3228346456692913
        },
        {
          "duration": 0.08139534883721922,
          "durationTicks": 7,
          "midi": 77,
          "name": "F5",
          "ticks": 14706,
          "time": 171,
          "velocity": 0.16535433070866143
        },
        {
          "duration": 0.1046511627907023,
          "durationTicks": 9,
          "midi": 82,
          "name": "A#5",
          "ticks": 14706,
          "time": 171,
          "velocity": 0.11023622047244094
        },
        {
          "duration": 0.04651162790699459,
          "durationTicks": 4,
          "midi": 55,
          "name": "G3",
          "ticks": 14708,
          "time": 171.02325581395348,
          "velocity": 0.29133858267716534
        },
        {
          "duration": 0.023255813953511506,
          "durationTicks": 2,
          "midi": 50,
          "name": "D3",
          "ticks": 14711,
          "time": 171.0581395348837,
          "velocity": 0.31496062992125984
        },
        {
          "duration": 0.023255813953483084,
          "durationTicks": 2,
          "midi": 48,
          "name": "C3",
          "ticks": 14713,
          "time": 171.08139534883722,
          "velocity": 0.23622047244094488
        },
        {
          "duration": 0.12790697674418539,
          "durationTicks": 11,
          "midi": 55,
          "name": "G3",
          "ticks": 14713,
          "time": 171.08139534883722,
          "velocity": 0.2677165354330709
        },
        {
          "duration": 0.2093023255814046,
          "durationTicks": 18,
          "midi": 89,
          "name": "F6",
          "ticks": 14719,
          "time": 171.15116279069767,
          "velocity": 0.08661417322834646
        },
        {
          "duration": 0.023255813953483084,
          "durationTicks": 2,
          "midi": 82,
          "name": "A#5",
          "ticks": 14720,
          "time": 171.1627906976744,
          "velocity": 0.25984251968503935
        },
        {
          "duration": 0.24418604651162923,
          "durationTicks": 21,
          "midi": 72,
          "name": "C5",
          "ticks": 14721,
          "time": 171.17441860465115,
          "velocity": 0.4251968503937008
        },
        {
          "duration": 0.1046511627907023,
          "durationTicks": 9,
          "midi": 93,
          "name": "A6",
          "ticks": 14721,
          "time": 171.17441860465115,
          "velocity": 0.2204724409448819
        },
        {
          "duration": 0.05813953488373613,
          "durationTicks": 5,
          "midi": 98,
          "name": "D7",
          "ticks": 14721,
          "time": 171.17441860465115,
          "velocity": 0.2677165354330709
        },
        {
          "duration": 0.2093023255814046,
          "durationTicks": 18,
          "midi": 60,
          "name": "C4",
          "ticks": 14722,
          "time": 171.1860465116279,
          "velocity": 0.3543307086614173
        },
        {
          "duration": 0.2558139534883992,
          "durationTicks": 22,
          "midi": 77,
          "name": "F5",
          "ticks": 14722,
          "time": 171.1860465116279,
          "velocity": 0.4330708661417323
        },
        {
          "duration": 0.2906976744186238,
          "durationTicks": 25,
          "midi": 81,
          "name": "A5",
          "ticks": 14722,
          "time": 171.1860465116279,
          "velocity": 0.2992125984251969
        },
        {
          "duration": 0.17441860465117998,
          "durationTicks": 15,
          "midi": 91,
          "name": "G6",
          "ticks": 14722,
          "time": 171.1860465116279,
          "velocity": 0.11811023622047244
        },
        {
          "duration": 0.3139534883720785,
          "durationTicks": 27,
          "midi": 69,
          "name": "A4",
          "ticks": 14723,
          "time": 171.19767441860466,
          "velocity": 0.4094488188976378
        },
        {
          "duration": 0.33720930232556157,
          "durationTicks": 29,
          "midi": 79,
          "name": "G5",
          "ticks": 14723,
          "time": 171.19767441860466,
          "velocity": 0.15748031496062992
        },
        {
          "duration": 0.2325581395348877,
          "durationTicks": 20,
          "midi": 67,
          "name": "G4",
          "ticks": 14725,
          "time": 171.22093023255815,
          "velocity": 0.33858267716535434
        },
        {
          "duration": 0.05813953488370771,
          "durationTicks": 5,
          "midi": 88,
          "name": "E6",
          "ticks": 14726,
          "time": 171.2325581395349,
          "velocity": 0.14173228346456693
        },
        {
          "duration": 0.023255813953483084,
          "durationTicks": 2,
          "midi": 51,
          "name": "D#3",
          "ticks": 14727,
          "time": 171.24418604651163,
          "velocity": 0.23622047244094488
        },
        {
          "duration": 0.1046511627907023,
          "durationTicks": 9,
          "midi": 83,
          "name": "B5",
          "ticks": 14727,
          "time": 171.24418604651163,
          "velocity": 0.1889763779527559
        },
        {
          "duration": 0.1046511627907023,
          "durationTicks": 9,
          "midi": 40,
          "name": "E2",
          "ticks": 14729,
          "time": 171.2674418604651,
          "velocity": 0.14960629921259844
        },
        {
          "duration": 0.04651162790696617,
          "durationTicks": 4,
          "midi": 88,
          "name": "E6",
          "ticks": 14734,
          "time": 171.32558139534885,
          "velocity": 0.13385826771653545
        },
        {
          "duration": 0.05813953488370771,
          "durationTicks": 5,
          "midi": 74,
          "name": "D5",
          "ticks": 14736,
          "time": 171.34883720930233,
          "velocity": 0.14173228346456693
        },
        {
          "duration": 0.04651162790696617,
          "durationTicks": 4,
          "midi": 40,
          "name": "E2",
          "ticks": 14739,
          "time": 171.38372093023256,
          "velocity": 0.14173228346456693
        },
        {
          "duration": 0.023255813953483084,
          "durationTicks": 2,
          "midi": 59,
          "name": "B3",
          "ticks": 14740,
          "time": 171.3953488372093,
          "velocity": 0.29133858267716534
        },
        {
          "duration": 0.06976744186047767,
          "durationTicks": 6,
          "midi": 83,
          "name": "B5",
          "ticks": 14740,
          "time": 171.3953488372093,
          "velocity": 0.23622047244094488
        },
        {
          "duration": 0.2906976744186238,
          "durationTicks": 25,
          "midi": 88,
          "name": "E6",
          "ticks": 14741,
          "time": 171.40697674418604,
          "velocity": 0.11811023622047244
        },
        {
          "duration": 0.05813953488373613,
          "durationTicks": 5,
          "midi": 52,
          "name": "E3",
          "ticks": 14742,
          "time": 171.41860465116278,
          "velocity": 0.2755905511811024
        },
        {
          "duration": 0.2325581395348877,
          "durationTicks": 20,
          "midi": 60,
          "name": "C4",
          "ticks": 14742,
          "time": 171.41860465116278,
          "velocity": 0.33858267716535434
        },
        {
          "duration": 0.034883720930224626,
          "durationTicks": 3,
          "midi": 40,
          "name": "E2",
          "ticks": 14744,
          "time": 171.4418604651163,
          "velocity": 0.15748031496062992
        },
        {
          "duration": 0.22093023255811772,
          "durationTicks": 19,
          "midi": 84,
          "name": "C6",
          "ticks": 14744,
          "time": 171.4418604651163,
          "velocity": 0.2440944881889764
        },
        {
          "duration": 1.5116279069767415,
          "durationTicks": 130,
          "midi": 74,
          "name": "D5",
          "ticks": 14747,
          "time": 171.47674418604652,
          "velocity": 0.4566929133858268
        },
        {
          "duration": 0.2674418604651123,
          "durationTicks": 23,
          "midi": 82,
          "name": "A#5",
          "ticks": 14747,
          "time": 171.47674418604652,
          "velocity": 0.3937007874015748
        },
        {
          "duration": 0.11627906976744384,
          "durationTicks": 10,
          "midi": 52,
          "name": "E3",
          "ticks": 14748,
          "time": 171.48837209302326,
          "velocity": 0.2440944881889764
        },
        {
          "duration": 0.2093023255814046,
          "durationTicks": 18,
          "midi": 64,
          "name": "E4",
          "ticks": 14748,
          "time": 171.48837209302326,
          "velocity": 0.25984251968503935
        },
        {
          "duration": 0.06976744186044925,
          "durationTicks": 6,
          "midi": 67,
          "name": "G4",
          "ticks": 14748,
          "time": 171.48837209302326,
          "velocity": 0.25984251968503935
        },
        {
          "duration": 0.08139534883721922,
          "durationTicks": 7,
          "midi": 93,
          "name": "A6",
          "ticks": 14749,
          "time": 171.5,
          "velocity": 0.10236220472440945
        },
        {
          "duration": 0.06976744186047767,
          "durationTicks": 6,
          "midi": 70,
          "name": "A#4",
          "ticks": 14750,
          "time": 171.51162790697674,
          "velocity": 0.3543307086614173
        },
        {
          "duration": 0.06976744186047767,
          "durationTicks": 6,
          "midi": 40,
          "name": "E2",
          "ticks": 14752,
          "time": 171.53488372093022,
          "velocity": 0.1732283464566929
        },
        {
          "duration": 0.534883720930253,
          "durationTicks": 46,
          "midi": 77,
          "name": "F5",
          "ticks": 14752,
          "time": 171.53488372093022,
          "velocity": 0.3858267716535433
        },
        {
          "duration": 0.06976744186044925,
          "durationTicks": 6,
          "midi": 67,
          "name": "G4",
          "ticks": 14755,
          "time": 171.56976744186048,
          "velocity": 0.16535433070866143
        },
        {
          "duration": 0.023255813953483084,
          "durationTicks": 2,
          "midi": 69,
          "name": "A4",
          "ticks": 14756,
          "time": 171.58139534883722,
          "velocity": 0.28346456692913385
        },
        {
          "duration": 0.04651162790696617,
          "durationTicks": 4,
          "midi": 52,
          "name": "E3",
          "ticks": 14759,
          "time": 171.61627906976744,
          "velocity": 0.1968503937007874
        },
        {
          "duration": 0.034883720930224626,
          "durationTicks": 3,
          "midi": 69,
          "name": "A4",
          "ticks": 14759,
          "time": 171.61627906976744,
          "velocity": 0.2677165354330709
        },
        {
          "duration": 0.06976744186044925,
          "durationTicks": 6,
          "midi": 83,
          "name": "B5",
          "ticks": 14759,
          "time": 171.61627906976744,
          "velocity": 0.14960629921259844
        },
        {
          "duration": 0.04651162790696617,
          "durationTicks": 4,
          "midi": 41,
          "name": "F2",
          "ticks": 14760,
          "time": 171.62790697674419,
          "velocity": 0.14173228346456693
        },
        {
          "duration": 0.15116279069766847,
          "durationTicks": 13,
          "midi": 70,
          "name": "A#4",
          "ticks": 14761,
          "time": 171.63953488372093,
          "velocity": 0.2677165354330709
        },
        {
          "duration": 0.6511627906976969,
          "durationTicks": 56,
          "midi": 60,
          "name": "C4",
          "ticks": 14763,
          "time": 171.6627906976744,
          "velocity": 0.4015748031496063
        },
        {
          "duration": 0.19767441860466306,
          "durationTicks": 17,
          "midi": 52,
          "name": "E3",
          "ticks": 14764,
          "time": 171.67441860465115,
          "velocity": 0.2440944881889764
        },
        {
          "duration": 0.03488372093025305,
          "durationTicks": 3,
          "midi": 40,
          "name": "E2",
          "ticks": 14765,
          "time": 171.6860465116279,
          "velocity": 0.12598425196850394
        },
        {
          "duration": 0.06976744186044925,
          "durationTicks": 6,
          "midi": 83,
          "name": "B5",
          "ticks": 14768,
          "time": 171.72093023255815,
          "velocity": 0.12598425196850394
        },
        {
          "duration": 0.05813953488370771,
          "durationTicks": 5,
          "midi": 40,
          "name": "E2",
          "ticks": 14769,
          "time": 171.7325581395349,
          "velocity": 0.11023622047244094
        },
        {
          "duration": 0.05813953488370771,
          "durationTicks": 5,
          "midi": 67,
          "name": "G4",
          "ticks": 14769,
          "time": 171.7325581395349,
          "velocity": 0.13385826771653545
        },
        {
          "duration": 0.3139534883721069,
          "durationTicks": 27,
          "midi": 72,
          "name": "C5",
          "ticks": 14772,
          "time": 171.7674418604651,
          "velocity": 0.4251968503937008
        },
        {
          "duration": 0.03488372093025305,
          "durationTicks": 3,
          "midi": 70,
          "name": "A#4",
          "ticks": 14775,
          "time": 171.80232558139534,
          "velocity": 0.31496062992125984
        },
        {
          "duration": 0.06976744186047767,
          "durationTicks": 6,
          "midi": 81,
          "name": "A5",
          "ticks": 14775,
          "time": 171.80232558139534,
          "velocity": 0.25984251968503935
        },
        {
          "duration": 0.16279069767441,
          "durationTicks": 14,
          "midi": 93,
          "name": "A6",
          "ticks": 14777,
          "time": 171.82558139534885,
          "velocity": 0.3543307086614173
        },
        {
          "duration": 0.04651162790696617,
          "durationTicks": 4,
          "midi": 88,
          "name": "E6",
          "ticks": 14779,
          "time": 171.84883720930233,
          "velocity": 0.16535433070866143
        },
        {
          "duration": 0.034883720930224626,
          "durationTicks": 3,
          "midi": 69,
          "name": "A4",
          "ticks": 14780,
          "time": 171.86046511627907,
          "velocity": 0.1968503937007874
        },
        {
          "duration": 0.3953488372092977,
          "durationTicks": 34,
          "midi": 83,
          "name": "B5",
          "ticks": 14780,
          "time": 171.86046511627907,
          "velocity": 0.2992125984251969
        },
        {
          "duration": 0.08139534883721922,
          "durationTicks": 7,
          "midi": 40,
          "name": "E2",
          "ticks": 14781,
          "time": 171.87209302325581,
          "velocity": 0.11811023622047244
        },
        {
          "duration": 0.023255813953483084,
          "durationTicks": 2,
          "midi": 52,
          "name": "E3",
          "ticks": 14782,
          "time": 171.88372093023256,
          "velocity": 0.25196850393700787
        },
        {
          "duration": 0.2093023255814046,
          "durationTicks": 18,
          "midi": 67,
          "name": "G4",
          "ticks": 14782,
          "time": 171.88372093023256,
          "velocity": 0.2047244094488189
        },
        {
          "duration": 1.3255813953488484,
          "durationTicks": 114,
          "midi": 81,
          "name": "A5",
          "ticks": 14782,
          "time": 171.88372093023256,
          "velocity": 0.33858267716535434
        },
        {
          "duration": 0.04651162790699459,
          "durationTicks": 4,
          "midi": 64,
          "name": "E4",
          "ticks": 14784,
          "time": 171.90697674418604,
          "velocity": 0.25984251968503935
        },
        {
          "duration": 0.16279069767443843,
          "durationTicks": 14,
          "midi": 88,
          "name": "E6",
          "ticks": 14784,
          "time": 171.90697674418604,
          "velocity": 0.23622047244094488
        },
        {
          "duration": 0.03488372093025305,
          "durationTicks": 3,
          "midi": 52,
          "name": "E3",
          "ticks": 14785,
          "time": 171.91860465116278,
          "velocity": 0.2283464566929134
        },
        {
          "duration": 0.03488372093025305,
          "durationTicks": 3,
          "midi": 69,
          "name": "A4",
          "ticks": 14785,
          "time": 171.91860465116278,
          "velocity": 0.14173228346456693
        },
        {
          "duration": 0.12790697674418539,
          "durationTicks": 11,
          "midi": 40,
          "name": "E2",
          "ticks": 14789,
          "time": 171.96511627906978,
          "velocity": 0.11811023622047244
        },
        {
          "duration": 0.34883720930233153,
          "durationTicks": 30,
          "midi": 64,
          "name": "E4",
          "ticks": 14789,
          "time": 171.96511627906978,
          "velocity": 0.3858267716535433
        },
        {
          "duration": 0.034883720930224626,
          "durationTicks": 3,
          "midi": 69,
          "name": "A4",
          "ticks": 14794,
          "time": 172.02325581395348,
          "velocity": 0.11023622047244094
        },
        {
          "duration": 0.16279069767441,
          "durationTicks": 14,
          "midi": 70,
          "name": "A#4",
          "ticks": 14799,
          "time": 172.08139534883722,
          "velocity": 0.4566929133858268
        },
        {
          "duration": 0.40697674418603924,
          "durationTicks": 35,
          "midi": 79,
          "name": "G5",
          "ticks": 14799,
          "time": 172.08139534883722,
          "velocity": 0.4015748031496063
        },
        {
          "duration": 0.05813953488370771,
          "durationTicks": 5,
          "midi": 94,
          "name": "A#6",
          "ticks": 14800,
          "time": 172.09302325581396,
          "velocity": 0.08661417322834646
        },
        {
          "duration": 0.023255813953483084,
          "durationTicks": 2,
          "midi": 45,
          "name": "A2",
          "ticks": 14801,
          "time": 172.1046511627907,
          "velocity": 0.30708661417322836
        },
        {
          "duration": 0.5116279069767415,
          "durationTicks": 44,
          "midi": 84,
          "name": "C6",
          "ticks": 14801,
          "time": 172.1046511627907,
          "velocity": 0.28346456692913385
        },
        {
          "duration": 0.023255813953483084,
          "durationTicks": 2,
          "midi": 67,
          "name": "G4",
          "ticks": 14802,
          "time": 172.11627906976744,
          "velocity": 0.3464566929133858
        },
        {
          "duration": 0.13953488372092693,
          "durationTicks": 12,
          "midi": 45,
          "name": "A2",
          "ticks": 14804,
          "time": 172.13953488372093,
          "velocity": 0.33070866141732286
        },
        {
          "duration": 0.11627906976744384,
          "durationTicks": 10,
          "midi": 67,
          "name": "G4",
          "ticks": 14805,
          "time": 172.15116279069767,
          "velocity": 0.3779527559055118
        },
        {
          "duration": 0.034883720930224626,
          "durationTicks": 3,
          "midi": 70,
          "name": "A#4",
          "ticks": 14814,
          "time": 172.25581395348837,
          "velocity": 0.41732283464566927
        },
        {
          "duration": 0.034883720930224626,
          "durationTicks": 3,
          "midi": 69,
          "name": "A4",
          "ticks": 14815,
          "time": 172.2674418604651,
          "velocity": 0.4015748031496063
        },
        {
          "duration": 0.03488372093025305,
          "durationTicks": 3,
          "midi": 67,
          "name": "G4",
          "ticks": 14816,
          "time": 172.27906976744185,
          "velocity": 0.25196850393700787
        },
        {
          "duration": 0.05813953488373613,
          "durationTicks": 5,
          "midi": 45,
          "name": "A2",
          "ticks": 14817,
          "time": 172.2906976744186,
          "velocity": 0.25196850393700787
        },
        {
          "duration": 0.17441860465117998,
          "durationTicks": 15,
          "midi": 83,
          "name": "B5",
          "ticks": 14817,
          "time": 172.2906976744186,
          "velocity": 0.25984251968503935
        },
        {
          "duration": 0.03488372093025305,
          "durationTicks": 3,
          "midi": 70,
          "name": "A#4",
          "ticks": 14818,
          "time": 172.30232558139534,
          "velocity": 0.4015748031496063
        },
        {
          "duration": 0.023255813953483084,
          "durationTicks": 2,
          "midi": 53,
          "name": "F3",
          "ticks": 14819,
          "time": 172.3139534883721,
          "velocity": 0.2283464566929134
        },
        {
          "duration": 0.7093023255813762,
          "durationTicks": 61,
          "midi": 72,
          "name": "C5",
          "ticks": 14819,
          "time": 172.3139534883721,
          "velocity": 0.44881889763779526
        },
        {
          "duration": 0.09302325581393234,
          "durationTicks": 8,
          "midi": 90,
          "name": "F#6",
          "ticks": 14819,
          "time": 172.3139534883721,
          "velocity": 0.07874015748031496
        },
        {
          "duration": 0.25581395348837077,
          "durationTicks": 22,
          "midi": 60,
          "name": "C4",
          "ticks": 14820,
          "time": 172.32558139534885,
          "velocity": 0.3779527559055118
        },
        {
          "duration": 0.023255813953483084,
          "durationTicks": 2,
          "midi": 66,
          "name": "F#4",
          "ticks": 14820,
          "time": 172.32558139534885,
          "velocity": 0.25984251968503935
        },
        {
          "duration": 0.11627906976744384,
          "durationTicks": 10,
          "midi": 77,
          "name": "F5",
          "ticks": 14820,
          "time": 172.32558139534885,
          "velocity": 0.3543307086614173
        },
        {
          "duration": 0.20930232558137618,
          "durationTicks": 18,
          "midi": 69,
          "name": "A4",
          "ticks": 14821,
          "time": 172.3372093023256,
          "velocity": 0.41732283464566927
        },
        {
          "duration": 0.19767441860463464,
          "durationTicks": 17,
          "midi": 65,
          "name": "F4",
          "ticks": 14822,
          "time": 172.34883720930233,
          "velocity": 0.3937007874015748
        },
        {
          "duration": 0.13953488372092693,
          "durationTicks": 12,
          "midi": 96,
          "name": "C7",
          "ticks": 14828,
          "time": 172.41860465116278,
          "velocity": 0.36220472440944884
        },
        {
          "duration": 0.32558139534884845,
          "durationTicks": 28,
          "midi": 76,
          "name": "E5",
          "ticks": 14829,
          "time": 172.43023255813952,
          "velocity": 0.2677165354330709
        },
        {
          "duration": 0.10465116279067388,
          "durationTicks": 9,
          "midi": 89,
          "name": "F6",
          "ticks": 14831,
          "time": 172.45348837209303,
          "velocity": 0.07086614173228346
        },
        {
          "duration": 0.034883720930224626,
          "durationTicks": 3,
          "midi": 57,
          "name": "A3",
          "ticks": 14832,
          "time": 172.46511627906978,
          "velocity": 0.25984251968503935
        },
        {
          "duration": 0.17441860465117998,
          "durationTicks": 15,
          "midi": 83,
          "name": "B5",
          "ticks": 14838,
          "time": 172.53488372093022,
          "velocity": 0.2125984251968504
        },
        {
          "duration": 0.023255813953511506,
          "durationTicks": 2,
          "midi": 57,
          "name": "A3",
          "ticks": 14840,
          "time": 172.5581395348837,
          "velocity": 0.25984251968503935
        },
        {
          "duration": 0.03488372093025305,
          "durationTicks": 3,
          "midi": 65,
          "name": "F4",
          "ticks": 14840,
          "time": 172.5581395348837,
          "velocity": 0.33858267716535434
        },
        {
          "duration": 0.06976744186047767,
          "durationTicks": 6,
          "midi": 70,
          "name": "A#4",
          "ticks": 14840,
          "time": 172.5581395348837,
          "velocity": 0.1889763779527559
        },
        {
          "duration": 0.24418604651162923,
          "durationTicks": 21,
          "midi": 45,
          "name": "A2",
          "ticks": 14841,
          "time": 172.56976744186048,
          "velocity": 0.2992125984251969
        },
        {
          "duration": 0.034883720930224626,
          "durationTicks": 3,
          "midi": 64,
          "name": "E4",
          "ticks": 14843,
          "time": 172.59302325581396,
          "velocity": 0.30708661417322836
        },
        {
          "duration": 0.18604651162792152,
          "durationTicks": 16,
          "midi": 69,
          "name": "A4",
          "ticks": 14846,
          "time": 172.62790697674419,
          "velocity": 0.25984251968503935
        },
        {
          "duration": 0.1046511627907023,
          "durationTicks": 9,
          "midi": 65,
          "name": "F4",
          "ticks": 14848,
          "time": 172.65116279069767,
          "velocity": 0.2755905511811024
        },
        {
          "duration": 0.034883720930224626,
          "durationTicks": 3,
          "midi": 56,
          "name": "G#3",
          "ticks": 14854,
          "time": 172.72093023255815,
          "velocity": 0.23622047244094488
        },
        {
          "duration": 0.5697674418604493,
          "durationTicks": 49,
          "midi": 79,
          "name": "G5",
          "ticks": 14854,
          "time": 172.72093023255815,
          "velocity": 0.4566929133858268
        },
        {
          "duration": 0.24418604651162923,
          "durationTicks": 21,
          "midi": 60,
          "name": "C4",
          "ticks": 14857,
          "time": 172.75581395348837,
          "velocity": 0.3700787401574803
        },
        {
          "duration": 0.034883720930224626,
          "durationTicks": 3,
          "midi": 65,
          "name": "F4",
          "ticks": 14858,
          "time": 172.7674418604651,
          "velocity": 0.30708661417322836
        },
        {
          "duration": 0.2674418604651123,
          "durationTicks": 23,
          "midi": 83,
          "name": "B5",
          "ticks": 14858,
          "time": 172.7674418604651,
          "velocity": 0.2283464566929134
        },
        {
          "duration": 0.2325581395348877,
          "durationTicks": 20,
          "midi": 67,
          "name": "G4",
          "ticks": 14859,
          "time": 172.77906976744185,
          "velocity": 0.3858267716535433
        },
        {
          "duration": 0.24418604651162923,
          "durationTicks": 21,
          "midi": 76,
          "name": "E5",
          "ticks": 14859,
          "time": 172.77906976744185,
          "velocity": 0.2204724409448819
        },
        {
          "duration": 0.2093023255814046,
          "durationTicks": 18,
          "midi": 90,
          "name": "F#6",
          "ticks": 14859,
          "time": 172.77906976744185,
          "velocity": 0.09448818897637795
        },
        {
          "duration": 0.19767441860466306,
          "durationTicks": 17,
          "midi": 64,
          "name": "E4",
          "ticks": 14861,
          "time": 172.80232558139534,
          "velocity": 0.3228346456692913
        },
        {
          "duration": 0.023255813953483084,
          "durationTicks": 2,
          "midi": 52,
          "name": "E3",
          "ticks": 14863,
          "time": 172.82558139534885,
          "velocity": 0.23622047244094488
        },
        {
          "duration": 0.034883720930224626,
          "durationTicks": 3,
          "midi": 52,
          "name": "E3",
          "ticks": 14866,
          "time": 172.86046511627907,
          "velocity": 0.2283464566929134
        },
        {
          "duration": 0.034883720930224626,
          "durationTicks": 3,
          "midi": 57,
          "name": "A3",
          "ticks": 14867,
          "time": 172.87209302325581,
          "velocity": 0.28346456692913385
        },
        {
          "duration": 0.03488372093025305,
          "durationTicks": 3,
          "midi": 57,
          "name": "A3",
          "ticks": 14871,
          "time": 172.91860465116278,
          "velocity": 0.29133858267716534
        },
        {
          "duration": 0.023255813953483084,
          "durationTicks": 2,
          "midi": 57,
          "name": "A3",
          "ticks": 14875,
          "time": 172.96511627906978,
          "velocity": 0.2677165354330709
        },
        {
          "duration": 0.24418604651162923,
          "durationTicks": 21,
          "midi": 86,
          "name": "D6",
          "ticks": 14878,
          "time": 173,
          "velocity": 0.3464566929133858
        },
        {
          "duration": 0.023255813953483084,
          "durationTicks": 2,
          "midi": 62,
          "name": "D4",
          "ticks": 14879,
          "time": 173.01162790697674,
          "velocity": 0.30708661417322836
        },
        {
          "duration": 0.04651162790696617,
          "durationTicks": 4,
          "midi": 89,
          "name": "F6",
          "ticks": 14879,
          "time": 173.01162790697674,
          "velocity": 0.09448818897637795
        },
        {
          "duration": 0.1046511627907023,
          "durationTicks": 9,
          "midi": 90,
          "name": "F#6",
          "ticks": 14879,
          "time": 173.01162790697674,
          "velocity": 0.14960629921259844
        },
        {
          "duration": 0.19767441860466306,
          "durationTicks": 17,
          "midi": 65,
          "name": "F4",
          "ticks": 14880,
          "time": 173.02325581395348,
          "velocity": 0.33858267716535434
        },
        {
          "duration": 0.2093023255814046,
          "durationTicks": 18,
          "midi": 38,
          "name": "D2",
          "ticks": 14882,
          "time": 173.04651162790697,
          "velocity": 0.1732283464566929
        },
        {
          "duration": 0.17441860465117998,
          "durationTicks": 15,
          "midi": 62,
          "name": "D4",
          "ticks": 14882,
          "time": 173.04651162790697,
          "velocity": 0.30708661417322836
        },
        {
          "duration": 0.06976744186047767,
          "durationTicks": 6,
          "midi": 72,
          "name": "C5",
          "ticks": 14882,
          "time": 173.04651162790697,
          "velocity": 0.14173228346456693
        },
        {
          "duration": 0.034883720930224626,
          "durationTicks": 3,
          "midi": 67,
          "name": "G4",
          "ticks": 14884,
          "time": 173.06976744186048,
          "velocity": 0.18110236220472442
        },
        {
          "duration": 0.04651162790696617,
          "durationTicks": 4,
          "midi": 69,
          "name": "A4",
          "ticks": 14889,
          "time": 173.12790697674419,
          "velocity": 0.09448818897637795
        },
        {
          "duration": 0.09302325581396076,
          "durationTicks": 8,
          "midi": 72,
          "name": "C5",
          "ticks": 14890,
          "time": 173.13953488372093,
          "velocity": 0.14173228346456693
        },
        {
          "duration": 0.11627906976744384,
          "durationTicks": 10,
          "midi": 84,
          "name": "C6",
          "ticks": 14894,
          "time": 173.1860465116279,
          "velocity": 0.18110236220472442
        },
        {
          "duration": 0.4767441860464885,
          "durationTicks": 41,
          "midi": 57,
          "name": "A3",
          "ticks": 14895,
          "time": 173.19767441860466,
          "velocity": 0.2283464566929134
        },
        {
          "duration": 0.16279069767441,
          "durationTicks": 14,
          "midi": 69,
          "name": "A4",
          "ticks": 14896,
          "time": 173.2093023255814,
          "velocity": 0.31496062992125984
        },
        {
          "duration": 1.8953488372092977,
          "durationTicks": 163,
          "midi": 74,
          "name": "D5",
          "ticks": 14897,
          "time": 173.22093023255815,
          "velocity": 0.3464566929133858
        },
        {
          "duration": 0.19767441860466306,
          "durationTicks": 17,
          "midi": 62,
          "name": "D4",
          "ticks": 14899,
          "time": 173.24418604651163,
          "velocity": 0.25984251968503935
        },
        {
          "duration": 0.1046511627907023,
          "durationTicks": 9,
          "midi": 85,
          "name": "C#6",
          "ticks": 14899,
          "time": 173.24418604651163,
          "velocity": 0.11811023622047244
        },
        {
          "duration": 0.3720930232558146,
          "durationTicks": 32,
          "midi": 87,
          "name": "D#6",
          "ticks": 14900,
          "time": 173.25581395348837,
          "velocity": 0.09448818897637795
        },
        {
          "duration": 0.18604651162792152,
          "durationTicks": 16,
          "midi": 88,
          "name": "E6",
          "ticks": 14901,
          "time": 173.2674418604651,
          "velocity": 0.13385826771653545
        },
        {
          "duration": 0.06976744186047767,
          "durationTicks": 6,
          "midi": 65,
          "name": "F4",
          "ticks": 14902,
          "time": 173.27906976744185,
          "velocity": 0.11811023622047244
        },
        {
          "duration": 0.06976744186047767,
          "durationTicks": 6,
          "midi": 72,
          "name": "C5",
          "ticks": 14903,
          "time": 173.2906976744186,
          "velocity": 0.14173228346456693
        },
        {
          "duration": 0.19767441860463464,
          "durationTicks": 17,
          "midi": 84,
          "name": "C6",
          "ticks": 14906,
          "time": 173.32558139534885,
          "velocity": 0.29133858267716534
        },
        {
          "duration": 0.33720930232556157,
          "durationTicks": 29,
          "midi": 79,
          "name": "G5",
          "ticks": 14907,
          "time": 173.3372093023256,
          "velocity": 0.3779527559055118
        },
        {
          "duration": 0.25581395348837077,
          "durationTicks": 22,
          "midi": 67,
          "name": "G4",
          "ticks": 14908,
          "time": 173.34883720930233,
          "velocity": 0.3858267716535433
        },
        {
          "duration": 0.04651162790699459,
          "durationTicks": 4,
          "midi": 72,
          "name": "C5",
          "ticks": 14913,
          "time": 173.40697674418604,
          "velocity": 0.11811023622047244
        },
        {
          "duration": 0.034883720930224626,
          "durationTicks": 3,
          "midi": 89,
          "name": "F6",
          "ticks": 14917,
          "time": 173.45348837209303,
          "velocity": 0.11811023622047244
        },
        {
          "duration": 1.3720930232558146,
          "durationTicks": 118,
          "midi": 77,
          "name": "F5",
          "ticks": 14918,
          "time": 173.46511627906978,
          "velocity": 0.4094488188976378
        },
        {
          "duration": 0.034883720930224626,
          "durationTicks": 3,
          "midi": 72,
          "name": "C5",
          "ticks": 14919,
          "time": 173.47674418604652,
          "velocity": 0.09448818897637795
        },
        {
          "duration": 0.18604651162792152,
          "durationTicks": 16,
          "midi": 38,
          "name": "D2",
          "ticks": 14922,
          "time": 173.51162790697674,
          "velocity": 0.18110236220472442
        },
        {
          "duration": 0.06976744186047767,
          "durationTicks": 6,
          "midi": 72,
          "name": "C5",
          "ticks": 14923,
          "time": 173.52325581395348,
          "velocity": 0.15748031496062992
        },
        {
          "duration": 0.04651162790699459,
          "durationTicks": 4,
          "midi": 50,
          "name": "D3",
          "ticks": 14926,
          "time": 173.5581395348837,
          "velocity": 0.23622047244094488
        },
        {
          "duration": 0.5116279069767415,
          "durationTicks": 44,
          "midi": 88,
          "name": "E6",
          "ticks": 14928,
          "time": 173.58139534883722,
          "velocity": 0.13385826771653545
        },
        {
          "duration": 0.5581395348837077,
          "durationTicks": 48,
          "midi": 65,
          "name": "F4",
          "ticks": 14929,
          "time": 173.59302325581396,
          "velocity": 0.3858267716535433
        },
        {
          "duration": 0.04651162790696617,
          "durationTicks": 4,
          "midi": 84,
          "name": "C6",
          "ticks": 14931,
          "time": 173.61627906976744,
          "velocity": 0.07874015748031496
        },
        {
          "duration": 0.04651162790696617,
          "durationTicks": 4,
          "midi": 72,
          "name": "C5",
          "ticks": 14933,
          "time": 173.63953488372093,
          "velocity": 0.14173228346456693
        },
        {
          "duration": 0.2325581395348877,
          "durationTicks": 20,
          "midi": 81,
          "name": "A5",
          "ticks": 14936,
          "time": 173.67441860465115,
          "velocity": 0.2992125984251969
        },
        {
          "duration": 0.1511627906976969,
          "durationTicks": 13,
          "midi": 93,
          "name": "A6",
          "ticks": 14936,
          "time": 173.67441860465115,
          "velocity": 0.33858267716535434
        },
        {
          "duration": 0.03488372093025305,
          "durationTicks": 3,
          "midi": 84,
          "name": "C6",
          "ticks": 14937,
          "time": 173.6860465116279,
          "velocity": 0.14960629921259844
        },
        {
          "duration": 0.04651162790696617,
          "durationTicks": 4,
          "midi": 85,
          "name": "C#6",
          "ticks": 14938,
          "time": 173.69767441860466,
          "velocity": 0.10236220472440945
        },
        {
          "duration": 0.4186046511627808,
          "durationTicks": 36,
          "midi": 53,
          "name": "F3",
          "ticks": 14939,
          "time": 173.7093023255814,
          "velocity": 0.28346456692913385
        },
        {
          "duration": 0.05813953488370771,
          "durationTicks": 5,
          "midi": 72,
          "name": "C5",
          "ticks": 14940,
          "time": 173.72093023255815,
          "velocity": 0.12598425196850394
        },
        {
          "duration": 0.05813953488370771,
          "durationTicks": 5,
          "midi": 62,
          "name": "D4",
          "ticks": 14941,
          "time": 173.7325581395349,
          "velocity": 0.25984251968503935
        },
        {
          "duration": 0.09302325581396076,
          "durationTicks": 8,
          "midi": 84,
          "name": "C6",
          "ticks": 14944,
          "time": 173.7674418604651,
          "velocity": 0.13385826771653545
        },
        {
          "duration": 0.034883720930224626,
          "durationTicks": 3,
          "midi": 72,
          "name": "C5",
          "ticks": 14950,
          "time": 173.8372093023256,
          "velocity": 0.07874015748031496
        },
        {
          "duration": 0.16279069767441,
          "durationTicks": 14,
          "midi": 93,
          "name": "A6",
          "ticks": 14955,
          "time": 173.8953488372093,
          "velocity": 0.4251968503937008
        },
        {
          "duration": 0.04651162790699459,
          "durationTicks": 4,
          "midi": 72,
          "name": "C5",
          "ticks": 14957,
          "time": 173.91860465116278,
          "velocity": 0.11811023622047244
        },
        {
          "duration": 0.4651162790697754,
          "durationTicks": 40,
          "midi": 81,
          "name": "A5",
          "ticks": 14957,
          "time": 173.91860465116278,
          "velocity": 0.25984251968503935
        },
        {
          "duration": 0.11627906976744384,
          "durationTicks": 10,
          "midi": 84,
          "name": "C6",
          "ticks": 14957,
          "time": 173.91860465116278,
          "velocity": 0.1732283464566929
        },
        {
          "duration": 0.19767441860463464,
          "durationTicks": 17,
          "midi": 38,
          "name": "D2",
          "ticks": 14961,
          "time": 173.96511627906978,
          "velocity": 0.1889763779527559
        },
        {
          "duration": 0.06976744186044925,
          "durationTicks": 6,
          "midi": 72,
          "name": "C5",
          "ticks": 14963,
          "time": 173.98837209302326,
          "velocity": 0.11023622047244094
        },
        {
          "duration": 0.11627906976744384,
          "durationTicks": 10,
          "midi": 62,
          "name": "D4",
          "ticks": 14966,
          "time": 174.02325581395348,
          "velocity": 0.14960629921259844
        },
        {
          "duration": 0.11627906976741542,
          "durationTicks": 10,
          "midi": 84,
          "name": "C6",
          "ticks": 14970,
          "time": 174.06976744186048,
          "velocity": 0.1889763779527559
        },
        {
          "duration": 1.4069767441860392,
          "durationTicks": 121,
          "midi": 69,
          "name": "A4",
          "ticks": 14973,
          "time": 174.1046511627907,
          "velocity": 0.3543307086614173
        },
        {
          "duration": 0.034883720930224626,
          "durationTicks": 3,
          "midi": 72,
          "name": "C5",
          "ticks": 14973,
          "time": 174.1046511627907,
          "velocity": 0.09448818897637795
        },
        {
          "duration": 0.48837209302325846,
          "durationTicks": 42,
          "midi": 79,
          "name": "G5",
          "ticks": 14975,
          "time": 174.12790697674419,
          "velocity": 0.3858267716535433
        },
        {
          "duration": 0.4418604651162923,
          "durationTicks": 38,
          "midi": 57,
          "name": "A3",
          "ticks": 14977,
          "time": 174.15116279069767,
          "velocity": 0.1889763779527559
        },
        {
          "duration": 0.7209302325581461,
          "durationTicks": 62,
          "midi": 87,
          "name": "D#6",
          "ticks": 14977,
          "time": 174.15116279069767,
          "velocity": 0.1732283464566929
        },
        {
          "duration": 0.6860465116279215,
          "durationTicks": 59,
          "midi": 65,
          "name": "F4",
          "ticks": 14978,
          "time": 174.1627906976744,
          "velocity": 0.3858267716535433
        },
        {
          "duration": 0.03488372093025305,
          "durationTicks": 3,
          "midi": 85,
          "name": "C#6",
          "ticks": 14978,
          "time": 174.1627906976744,
          "velocity": 0.07874015748031496
        },
        {
          "duration": 0.03488372093025305,
          "durationTicks": 3,
          "midi": 50,
          "name": "D3",
          "ticks": 14980,
          "time": 174.1860465116279,
          "velocity": 0.2125984251968504
        },
        {
          "duration": 0.17441860465117998,
          "durationTicks": 15,
          "midi": 88,
          "name": "E6",
          "ticks": 14980,
          "time": 174.1860465116279,
          "velocity": 0.11023622047244094
        },
        {
          "duration": 0.05813953488370771,
          "durationTicks": 5,
          "midi": 72,
          "name": "C5",
          "ticks": 14981,
          "time": 174.19767441860466,
          "velocity": 0.13385826771653545
        },
        {
          "duration": 0.1046511627907023,
          "durationTicks": 9,
          "midi": 84,
          "name": "C6",
          "ticks": 14984,
          "time": 174.2325581395349,
          "velocity": 0.14960629921259844
        },
        {
          "duration": 0.33720930232559,
          "durationTicks": 29,
          "midi": 62,
          "name": "D4",
          "ticks": 14986,
          "time": 174.25581395348837,
          "velocity": 0.13385826771653545
        },
        {
          "duration": 0.023255813953511506,
          "durationTicks": 2,
          "midi": 50,
          "name": "D3",
          "ticks": 14989,
          "time": 174.2906976744186,
          "velocity": 0.2283464566929134
        },
        {
          "duration": 0.04651162790699459,
          "durationTicks": 4,
          "midi": 72,
          "name": "C5",
          "ticks": 14990,
          "time": 174.30232558139534,
          "velocity": 0.07874015748031496
        },
        {
          "duration": 0.12790697674418539,
          "durationTicks": 11,
          "midi": 89,
          "name": "F6",
          "ticks": 14995,
          "time": 174.36046511627907,
          "velocity": 0.4566929133858268
        },
        {
          "duration": 0.11627906976744384,
          "durationTicks": 10,
          "midi": 84,
          "name": "C6",
          "ticks": 14997,
          "time": 174.38372093023256,
          "velocity": 0.1732283464566929
        },
        {
          "duration": 0.08139534883721922,
          "durationTicks": 7,
          "midi": 88,
          "name": "E6",
          "ticks": 14997,
          "time": 174.38372093023256,
          "velocity": 0.07874015748031496
        },
        {
          "duration": 0.18604651162792152,
          "durationTicks": 16,
          "midi": 38,
          "name": "D2",
          "ticks": 14998,
          "time": 174.3953488372093,
          "velocity": 0.1968503937007874
        },
        {
          "duration": 0.09302325581393234,
          "durationTicks": 8,
          "midi": 50,
          "name": "D3",
          "ticks": 15002,
          "time": 174.4418604651163,
          "velocity": 0.2204724409448819
        },
        {
          "duration": 0.05813953488370771,
          "durationTicks": 5,
          "midi": 72,
          "name": "C5",
          "ticks": 15002,
          "time": 174.4418604651163,
          "velocity": 0.11811023622047244
        },
        {
          "duration": 0.11627906976744384,
          "durationTicks": 10,
          "midi": 84,
          "name": "C6",
          "ticks": 15010,
          "time": 174.53488372093022,
          "velocity": 0.12598425196850394
        },
        {
          "duration": 0.04651162790699459,
          "durationTicks": 4,
          "midi": 50,
          "name": "D3",
          "ticks": 15011,
          "time": 174.54651162790697,
          "velocity": 0.2047244094488189
        },
        {
          "duration": 0.03488372093025305,
          "durationTicks": 3,
          "midi": 72,
          "name": "C5",
          "ticks": 15012,
          "time": 174.5581395348837,
          "velocity": 0.09448818897637795
        },
        {
          "duration": 0.05813953488370771,
          "durationTicks": 5,
          "midi": 53,
          "name": "F3",
          "ticks": 15017,
          "time": 174.61627906976744,
          "velocity": 0.2440944881889764
        },
        {
          "duration": 0.2093023255814046,
          "durationTicks": 18,
          "midi": 57,
          "name": "A3",
          "ticks": 15018,
          "time": 174.62790697674419,
          "velocity": 0.23622047244094488
        },
        {
          "duration": 0.04651162790696617,
          "durationTicks": 4,
          "midi": 72,
          "name": "C5",
          "ticks": 15019,
          "time": 174.63953488372093,
          "velocity": 0.08661417322834646
        },
        {
          "duration": 0.04651162790699459,
          "durationTicks": 4,
          "midi": 53,
          "name": "F3",
          "ticks": 15023,
          "time": 174.6860465116279,
          "velocity": 0.2755905511811024
        },
        {
          "duration": 0.2325581395348877,
          "durationTicks": 20,
          "midi": 88,
          "name": "E6",
          "ticks": 15023,
          "time": 174.6860465116279,
          "velocity": 0.2204724409448819
        },
        {
          "duration": 0.0813953488371908,
          "durationTicks": 7,
          "midi": 84,
          "name": "C6",
          "ticks": 15026,
          "time": 174.72093023255815,
          "velocity": 0.09448818897637795
        },
        {
          "duration": 0.20930232558137618,
          "durationTicks": 18,
          "midi": 60,
          "name": "C4",
          "ticks": 15035,
          "time": 174.82558139534885,
          "velocity": 0.33070866141732286
        },
        {
          "duration": 0.48837209302325846,
          "durationTicks": 42,
          "midi": 72,
          "name": "C5",
          "ticks": 15035,
          "time": 174.82558139534885,
          "velocity": 0.4251968503937008
        },
        {
          "duration": 0.16279069767441,
          "durationTicks": 14,
          "midi": 83,
          "name": "B5",
          "ticks": 15035,
          "time": 174.82558139534885,
          "velocity": 0.14173228346456693
        },
        {
          "duration": 0.034883720930224626,
          "durationTicks": 3,
          "midi": 48,
          "name": "C3",
          "ticks": 15036,
          "time": 174.8372093023256,
          "velocity": 0.2677165354330709
        },
        {
          "duration": 0.6162790697674438,
          "durationTicks": 53,
          "midi": 76,
          "name": "E5",
          "ticks": 15036,
          "time": 174.8372093023256,
          "velocity": 0.3543307086614173
        },
        {
          "duration": 0.023255813953483084,
          "durationTicks": 2,
          "midi": 64,
          "name": "E4",
          "ticks": 15037,
          "time": 174.84883720930233,
          "velocity": 0.2440944881889764
        },
        {
          "duration": 0.0813953488371908,
          "durationTicks": 7,
          "midi": 85,
          "name": "C#6",
          "ticks": 15037,
          "time": 174.84883720930233,
          "velocity": 0.07086614173228346
        },
        {
          "duration": 0.023255813953483084,
          "durationTicks": 2,
          "midi": 65,
          "name": "F4",
          "ticks": 15038,
          "time": 174.86046511627907,
          "velocity": 0.29133858267716534
        },
        {
          "duration": 0.13953488372092693,
          "durationTicks": 12,
          "midi": 64,
          "name": "E4",
          "ticks": 15042,
          "time": 174.90697674418604,
          "velocity": 0.25984251968503935
        },
        {
          "duration": 0.034883720930224626,
          "durationTicks": 3,
          "midi": 48,
          "name": "C3",
          "ticks": 15052,
          "time": 175.02325581395348,
          "velocity": 0.2204724409448819
        },
        {
          "duration": 0.023255813953511506,
          "durationTicks": 2,
          "midi": 47,
          "name": "B2",
          "ticks": 15055,
          "time": 175.0581395348837,
          "velocity": 0.2992125984251969
        },
        {
          "duration": 0.05813953488373613,
          "durationTicks": 5,
          "midi": 60,
          "name": "C4",
          "ticks": 15055,
          "time": 175.0581395348837,
          "velocity": 0.30708661417322836
        },
        {
          "duration": 0.20930232558137618,
          "durationTicks": 18,
          "midi": 64,
          "name": "E4",
          "ticks": 15056,
          "time": 175.06976744186048,
          "velocity": 0.2440944881889764
        },
        {
          "duration": 0.0813953488371908,
          "durationTicks": 7,
          "midi": 83,
          "name": "B5",
          "ticks": 15056,
          "time": 175.06976744186048,
          "velocity": 0.09448818897637795
        },
        {
          "duration": 0.023255813953483084,
          "durationTicks": 2,
          "midi": 48,
          "name": "C3",
          "ticks": 15057,
          "time": 175.08139534883722,
          "velocity": 0.2440944881889764
        },
        {
          "duration": 0.023255813953483084,
          "durationTicks": 2,
          "midi": 52,
          "name": "E3",
          "ticks": 15057,
          "time": 175.08139534883722,
          "velocity": 0.2283464566929134
        },
        {
          "duration": 0.034883720930224626,
          "durationTicks": 3,
          "midi": 57,
          "name": "A3",
          "ticks": 15057,
          "time": 175.08139534883722,
          "velocity": 0.2047244094488189
        },
        {
          "duration": 0.1046511627907023,
          "durationTicks": 9,
          "midi": 57,
          "name": "A3",
          "ticks": 15061,
          "time": 175.12790697674419,
          "velocity": 0.25984251968503935
        },
        {
          "duration": 0.06976744186047767,
          "durationTicks": 6,
          "midi": 67,
          "name": "G4",
          "ticks": 15062,
          "time": 175.13953488372093,
          "velocity": 0.16535433070866143
        },
        {
          "duration": 0.05813953488373613,
          "durationTicks": 5,
          "midi": 86,
          "name": "D6",
          "ticks": 15062,
          "time": 175.13953488372093,
          "velocity": 0.11023622047244094
        },
        {
          "duration": 0.1046511627907023,
          "durationTicks": 9,
          "midi": 48,
          "name": "C3",
          "ticks": 15065,
          "time": 175.17441860465115,
          "velocity": 0.2204724409448819
        },
        {
          "duration": 0.2674418604651123,
          "durationTicks": 23,
          "midi": 57,
          "name": "A3",
          "ticks": 15071,
          "time": 175.24418604651163,
          "velocity": 0.23622047244094488
        },
        {
          "duration": 0.04651162790696617,
          "durationTicks": 4,
          "midi": 67,
          "name": "G4",
          "ticks": 15071,
          "time": 175.24418604651163,
          "velocity": 0.10236220472440945
        },
        {
          "duration": 0.023255813953483084,
          "durationTicks": 2,
          "midi": 47,
          "name": "B2",
          "ticks": 15074,
          "time": 175.27906976744185,
          "velocity": 0.2440944881889764
        },
        {
          "duration": 0.08139534883721922,
          "durationTicks": 7,
          "midi": 83,
          "name": "B5",
          "ticks": 15075,
          "time": 175.2906976744186,
          "velocity": 0.07086614173228346
        },
        {
          "duration": 0.19767441860466306,
          "durationTicks": 17,
          "midi": 67,
          "name": "G4",
          "ticks": 15076,
          "time": 175.30232558139534,
          "velocity": 0.14173228346456693
        },
        {
          "duration": 0.1860465116278931,
          "durationTicks": 16,
          "midi": 64,
          "name": "E4",
          "ticks": 15077,
          "time": 175.3139534883721,
          "velocity": 0.2283464566929134
        },
        {
          "duration": 0.034883720930224626,
          "durationTicks": 3,
          "midi": 52,
          "name": "E3",
          "ticks": 15078,
          "time": 175.32558139534885,
          "velocity": 0.13385826771653545
        },
        {
          "duration": 0.7558139534883708,
          "durationTicks": 65,
          "midi": 72,
          "name": "C5",
          "ticks": 15087,
          "time": 175.43023255813952,
          "velocity": 0.41732283464566927
        },
        {
          "duration": 0.40697674418603924,
          "durationTicks": 35,
          "midi": 60,
          "name": "C4",
          "ticks": 15093,
          "time": 175.5,
          "velocity": 0.3779527559055118
        },
        {
          "duration": 0.2906976744185954,
          "durationTicks": 25,
          "midi": 90,
          "name": "F#6",
          "ticks": 15093,
          "time": 175.5,
          "velocity": 0.13385826771653545
        },
        {
          "duration": 0.22093023255814614,
          "durationTicks": 19,
          "midi": 64,
          "name": "E4",
          "ticks": 15094,
          "time": 175.51162790697674,
          "velocity": 0.28346456692913385
        },
        {
          "duration": 0.08139534883721922,
          "durationTicks": 7,
          "midi": 79,
          "name": "G5",
          "ticks": 15094,
          "time": 175.51162790697674,
          "velocity": 0.07086614173228346
        },
        {
          "duration": 0.04651162790696617,
          "durationTicks": 4,
          "midi": 82,
          "name": "A#5",
          "ticks": 15094,
          "time": 175.51162790697674,
          "velocity": 0.07086614173228346
        },
        {
          "duration": 0.09302325581396076,
          "durationTicks": 8,
          "midi": 83,
          "name": "B5",
          "ticks": 15094,
          "time": 175.51162790697674,
          "velocity": 0.10236220472440945
        },
        {
          "duration": 0.17441860465115155,
          "durationTicks": 15,
          "midi": 86,
          "name": "D6",
          "ticks": 15094,
          "time": 175.51162790697674,
          "velocity": 0.1968503937007874
        },
        {
          "duration": 0.2906976744185954,
          "durationTicks": 25,
          "midi": 88,
          "name": "E6",
          "ticks": 15094,
          "time": 175.51162790697674,
          "velocity": 0.13385826771653545
        },
        {
          "duration": 0.1046511627907023,
          "durationTicks": 9,
          "midi": 67,
          "name": "G4",
          "ticks": 15096,
          "time": 175.53488372093022,
          "velocity": 0.14173228346456693
        },
        {
          "duration": 0.04651162790699459,
          "durationTicks": 4,
          "midi": 91,
          "name": "G6",
          "ticks": 15096,
          "time": 175.53488372093022,
          "velocity": 0.08661417322834646
        },
        {
          "duration": 0.04651162790699459,
          "durationTicks": 4,
          "midi": 52,
          "name": "E3",
          "ticks": 15097,
          "time": 175.54651162790697,
          "velocity": 0.2125984251968504
        },
        {
          "duration": 0.04651162790696617,
          "durationTicks": 4,
          "midi": 48,
          "name": "C3",
          "ticks": 15105,
          "time": 175.63953488372093,
          "velocity": 0.1732283464566929
        },
        {
          "duration": 0.05813953488370771,
          "durationTicks": 5,
          "midi": 86,
          "name": "D6",
          "ticks": 15110,
          "time": 175.69767441860466,
          "velocity": 0.12598425196850394
        },
        {
          "duration": 0.11627906976744384,
          "durationTicks": 10,
          "midi": 57,
          "name": "A3",
          "ticks": 15112,
          "time": 175.72093023255815,
          "velocity": 0.2283464566929134
        },
        {
          "duration": 0.05813953488370771,
          "durationTicks": 5,
          "midi": 82,
          "name": "A#5",
          "ticks": 15112,
          "time": 175.72093023255815,
          "velocity": 0.12598425196850394
        },
        {
          "duration": 0.06976744186044925,
          "durationTicks": 6,
          "midi": 52,
          "name": "E3",
          "ticks": 15113,
          "time": 175.7325581395349,
          "velocity": 0.1968503937007874
        },
        {
          "duration": 0.08139534883721922,
          "durationTicks": 7,
          "midi": 65,
          "name": "F4",
          "ticks": 15113,
          "time": 175.7325581395349,
          "velocity": 0.3464566929133858
        },
        {
          "duration": 0.2325581395348877,
          "durationTicks": 20,
          "midi": 77,
          "name": "F5",
          "ticks": 15113,
          "time": 175.7325581395349,
          "velocity": 0.36220472440944884
        },
        {
          "duration": 0.05813953488370771,
          "durationTicks": 5,
          "midi": 91,
          "name": "G6",
          "ticks": 15113,
          "time": 175.7325581395349,
          "velocity": 0.14173228346456693
        },
        {
          "duration": 0.05813953488373613,
          "durationTicks": 5,
          "midi": 86,
          "name": "D6",
          "ticks": 15117,
          "time": 175.77906976744185,
          "velocity": 0.09448818897637795
        },
        {
          "duration": 0.19767441860463464,
          "durationTicks": 17,
          "midi": 48,
          "name": "C3",
          "ticks": 15120,
          "time": 175.8139534883721,
          "velocity": 0.2440944881889764
        },
        {
          "duration": 0.04651162790696617,
          "durationTicks": 4,
          "midi": 90,
          "name": "F#6",
          "ticks": 15120,
          "time": 175.8139534883721,
          "velocity": 0.10236220472440945
        },
        {
          "duration": 0.034883720930224626,
          "durationTicks": 3,
          "midi": 65,
          "name": "F4",
          "ticks": 15121,
          "time": 175.82558139534885,
          "velocity": 0.3464566929133858
        },
        {
          "duration": 0.04651162790696617,
          "durationTicks": 4,
          "midi": 86,
          "name": "D6",
          "ticks": 15124,
          "time": 175.86046511627907,
          "velocity": 0.07874015748031496
        },
        {
          "duration": 0.09302325581396076,
          "durationTicks": 8,
          "midi": 65,
          "name": "F4",
          "ticks": 15125,
          "time": 175.87209302325581,
          "velocity": 0.33858267716535434
        },
        {
          "duration": 0.034883720930224626,
          "durationTicks": 3,
          "midi": 90,
          "name": "F#6",
          "ticks": 15126,
          "time": 175.88372093023256,
          "velocity": 0.08661417322834646
        },
        {
          "duration": 0.04651162790699459,
          "durationTicks": 4,
          "midi": 57,
          "name": "A3",
          "ticks": 15129,
          "time": 175.91860465116278,
          "velocity": 0.2755905511811024
        },
        {
          "duration": 0.06976744186044925,
          "durationTicks": 6,
          "midi": 76,
          "name": "E5",
          "ticks": 15132,
          "time": 175.95348837209303,
          "velocity": 0.2440944881889764
        },
        {
          "duration": 0.6511627906976685,
          "durationTicks": 56,
          "midi": 83,
          "name": "B5",
          "ticks": 15132,
          "time": 175.95348837209303,
          "velocity": 0.13385826771653545
        },
        {
          "duration": 0.23255813953485927,
          "durationTicks": 20,
          "midi": 90,
          "name": "F#6",
          "ticks": 15132,
          "time": 175.95348837209303,
          "velocity": 0.18110236220472442
        },
        {
          "duration": 0.0813953488371908,
          "durationTicks": 7,
          "midi": 91,
          "name": "G6",
          "ticks": 15132,
          "time": 175.95348837209303,
          "velocity": 0.11811023622047244
        },
        {
          "duration": 0.13953488372092693,
          "durationTicks": 12,
          "midi": 82,
          "name": "A#5",
          "ticks": 15133,
          "time": 175.96511627906978,
          "velocity": 0.1732283464566929
        },
        {
          "duration": 0.20930232558137618,
          "durationTicks": 18,
          "midi": 60,
          "name": "C4",
          "ticks": 15134,
          "time": 175.97674418604652,
          "velocity": 0.30708661417322836
        },
        {
          "duration": 0.06976744186044925,
          "durationTicks": 6,
          "midi": 69,
          "name": "A4",
          "ticks": 15134,
          "time": 175.97674418604652,
          "velocity": 0.09448818897637795
        },
        {
          "duration": 0.09302325581396076,
          "durationTicks": 8,
          "midi": 64,
          "name": "E4",
          "ticks": 15135,
          "time": 175.98837209302326,
          "velocity": 0.31496062992125984
        },
        {
          "duration": 0.09302325581396076,
          "durationTicks": 8,
          "midi": 89,
          "name": "F6",
          "ticks": 15135,
          "time": 175.98837209302326,
          "velocity": 0.10236220472440945
        },
        {
          "duration": 0.09302325581396076,
          "durationTicks": 8,
          "midi": 77,
          "name": "F5",
          "ticks": 15137,
          "time": 176.01162790697674,
          "velocity": 0.15748031496062992
        },
        {
          "duration": 0.3953488372092977,
          "durationTicks": 34,
          "midi": 86,
          "name": "D6",
          "ticks": 15137,
          "time": 176.01162790697674,
          "velocity": 0.31496062992125984
        },
        {
          "duration": 0.6279069767441854,
          "durationTicks": 54,
          "midi": 48,
          "name": "C3",
          "ticks": 15140,
          "time": 176.04651162790697,
          "velocity": 0.36220472440944884
        },
        {
          "duration": 0.11627906976744384,
          "durationTicks": 10,
          "midi": 57,
          "name": "A3",
          "ticks": 15140,
          "time": 176.04651162790697,
          "velocity": 0.2283464566929134
        },
        {
          "duration": 0.26744186046514073,
          "durationTicks": 23,
          "midi": 88,
          "name": "E6",
          "ticks": 15140,
          "time": 176.04651162790697,
          "velocity": 0.13385826771653545
        },
        {
          "duration": 0.1046511627907023,
          "durationTicks": 9,
          "midi": 76,
          "name": "E5",
          "ticks": 15144,
          "time": 176.09302325581396,
          "velocity": 0.2047244094488189
        },
        {
          "duration": 0.12790697674418539,
          "durationTicks": 11,
          "midi": 65,
          "name": "F4",
          "ticks": 15145,
          "time": 176.1046511627907,
          "velocity": 0.25196850393700787
        },
        {
          "duration": 0.6279069767441854,
          "durationTicks": 54,
          "midi": 89,
          "name": "F6",
          "ticks": 15147,
          "time": 176.12790697674419,
          "velocity": 0.44881889763779526
        },
        {
          "duration": 0.5,
          "durationTicks": 43,
          "midi": 69,
          "name": "A4",
          "ticks": 15151,
          "time": 176.17441860465115,
          "velocity": 0.3464566929133858
        },
        {
          "duration": 1.6162790697674438,
          "durationTicks": 139,
          "midi": 74,
          "name": "D5",
          "ticks": 15151,
          "time": 176.17441860465115,
          "velocity": 0.4330708661417323
        },
        {
          "duration": 0.034883720930224626,
          "durationTicks": 3,
          "midi": 90,
          "name": "F#6",
          "ticks": 15154,
          "time": 176.2093023255814,
          "velocity": 0.12598425196850394
        },
        {
          "duration": 0.17441860465115155,
          "durationTicks": 15,
          "midi": 57,
          "name": "A3",
          "ticks": 15157,
          "time": 176.24418604651163,
          "velocity": 0.1732283464566929
        },
        {
          "duration": 0.15116279069766847,
          "durationTicks": 13,
          "midi": 64,
          "name": "E4",
          "ticks": 15158,
          "time": 176.25581395348837,
          "velocity": 0.25984251968503935
        },
        {
          "duration": 0.03488372093025305,
          "durationTicks": 3,
          "midi": 90,
          "name": "F#6",
          "ticks": 15160,
          "time": 176.27906976744185,
          "velocity": 0.12598425196850394
        },
        {
          "duration": 0.08139534883721922,
          "durationTicks": 7,
          "midi": 72,
          "name": "C5",
          "ticks": 15161,
          "time": 176.2906976744186,
          "velocity": 0.09448818897637795
        },
        {
          "duration": 0.034883720930224626,
          "durationTicks": 3,
          "midi": 90,
          "name": "F#6",
          "ticks": 15166,
          "time": 176.34883720930233,
          "velocity": 0.10236220472440945
        },
        {
          "duration": 0.22093023255814614,
          "durationTicks": 19,
          "midi": 72,
          "name": "C5",
          "ticks": 15170,
          "time": 176.3953488372093,
          "velocity": 0.2047244094488189
        },
        {
          "duration": 0.2325581395348877,
          "durationTicks": 20,
          "midi": 60,
          "name": "C4",
          "ticks": 15171,
          "time": 176.40697674418604,
          "velocity": 0.36220472440944884
        },
        {
          "duration": 0.2325581395348877,
          "durationTicks": 20,
          "midi": 90,
          "name": "F#6",
          "ticks": 15171,
          "time": 176.40697674418604,
          "velocity": 0.1732283464566929
        },
        {
          "duration": 0.08139534883721922,
          "durationTicks": 7,
          "midi": 91,
          "name": "G6",
          "ticks": 15171,
          "time": 176.40697674418604,
          "velocity": 0.10236220472440945
        },
        {
          "duration": 0.04651162790699459,
          "durationTicks": 4,
          "midi": 67,
          "name": "G4",
          "ticks": 15172,
          "time": 176.41860465116278,
          "velocity": 0.25984251968503935
        },
        {
          "duration": 0.16279069767443843,
          "durationTicks": 14,
          "midi": 76,
          "name": "E5",
          "ticks": 15172,
          "time": 176.41860465116278,
          "velocity": 0.1889763779527559
        },
        {
          "duration": 0.06976744186047767,
          "durationTicks": 6,
          "midi": 82,
          "name": "A#5",
          "ticks": 15172,
          "time": 176.41860465116278,
          "velocity": 0.1889763779527559
        },
        {
          "duration": 0.034883720930224626,
          "durationTicks": 3,
          "midi": 85,
          "name": "C#6",
          "ticks": 15174,
          "time": 176.4418604651163,
          "velocity": 0.07086614173228346
        },
        {
          "duration": 0.06976744186044925,
          "durationTicks": 6,
          "midi": 64,
          "name": "E4",
          "ticks": 15176,
          "time": 176.46511627906978,
          "velocity": 0.2440944881889764
        },
        {
          "duration": 0.06976744186047767,
          "durationTicks": 6,
          "midi": 67,
          "name": "G4",
          "ticks": 15179,
          "time": 176.5,
          "velocity": 0.1968503937007874
        },
        {
          "duration": 0.2674418604651123,
          "durationTicks": 23,
          "midi": 91,
          "name": "G6",
          "ticks": 15179,
          "time": 176.5,
          "velocity": 0.1732283464566929
        },
        {
          "duration": 0.06976744186047767,
          "durationTicks": 6,
          "midi": 82,
          "name": "A#5",
          "ticks": 15184,
          "time": 176.5581395348837,
          "velocity": 0.16535433070866143
        },
        {
          "duration": 0.04651162790696617,
          "durationTicks": 4,
          "midi": 64,
          "name": "E4",
          "ticks": 15188,
          "time": 176.6046511627907,
          "velocity": 0.30708661417322836
        },
        {
          "duration": 0.034883720930224626,
          "durationTicks": 3,
          "midi": 67,
          "name": "G4",
          "ticks": 15188,
          "time": 176.6046511627907,
          "velocity": 0.16535433070866143
        },
        {
          "duration": 0.5465116279069662,
          "durationTicks": 47,
          "midi": 79,
          "name": "G5",
          "ticks": 15190,
          "time": 176.62790697674419,
          "velocity": 0.4566929133858268
        },
        {
          "duration": 0.3720930232558146,
          "durationTicks": 32,
          "midi": 67,
          "name": "G4",
          "ticks": 15192,
          "time": 176.65116279069767,
          "velocity": 0.49606299212598426
        },
        {
          "duration": 0.5465116279069946,
          "durationTicks": 47,
          "midi": 77,
          "name": "F5",
          "ticks": 15192,
          "time": 176.65116279069767,
          "velocity": 0.41732283464566927
        },
        {
          "duration": 0.15116279069766847,
          "durationTicks": 13,
          "midi": 95,
          "name": "B6",
          "ticks": 15192,
          "time": 176.65116279069767,
          "velocity": 0.12598425196850394
        },
        {
          "duration": 0.19767441860466306,
          "durationTicks": 17,
          "midi": 62,
          "name": "D4",
          "ticks": 15193,
          "time": 176.6627906976744,
          "velocity": 0.33858267716535434
        },
        {
          "duration": 0.03488372093025305,
          "durationTicks": 3,
          "midi": 70,
          "name": "A#4",
          "ticks": 15194,
          "time": 176.67441860465115,
          "velocity": 0.18110236220472442
        },
        {
          "duration": 0.16279069767441,
          "durationTicks": 14,
          "midi": 70,
          "name": "A#4",
          "ticks": 15198,
          "time": 176.72093023255815,
          "velocity": 0.18110236220472442
        },
        {
          "duration": 0.034883720930224626,
          "durationTicks": 3,
          "midi": 43,
          "name": "G2",
          "ticks": 15200,
          "time": 176.74418604651163,
          "velocity": 0.11811023622047244
        },
        {
          "duration": 0.3720930232558146,
          "durationTicks": 32,
          "midi": 58,
          "name": "A#3",
          "ticks": 15202,
          "time": 176.7674418604651,
          "velocity": 0.28346456692913385
        },
        {
          "duration": 0.04651162790696617,
          "durationTicks": 4,
          "midi": 43,
          "name": "G2",
          "ticks": 15207,
          "time": 176.82558139534885,
          "velocity": 0.11811023622047244
        },
        {
          "duration": 0.4418604651162923,
          "durationTicks": 38,
          "midi": 88,
          "name": "E6",
          "ticks": 15211,
          "time": 176.87209302325581,
          "velocity": 0.14960629921259844
        },
        {
          "duration": 0.2325581395348877,
          "durationTicks": 20,
          "midi": 90,
          "name": "F#6",
          "ticks": 15211,
          "time": 176.87209302325581,
          "velocity": 0.1889763779527559
        },
        {
          "duration": 0.06976744186047767,
          "durationTicks": 6,
          "midi": 63,
          "name": "D#4",
          "ticks": 15212,
          "time": 176.88372093023256,
          "velocity": 0.1968503937007874
        },
        {
          "duration": 0.4418604651162923,
          "durationTicks": 38,
          "midi": 70,
          "name": "A#4",
          "ticks": 15213,
          "time": 176.8953488372093,
          "velocity": 0.33070866141732286
        },
        {
          "duration": 0.17441860465117998,
          "durationTicks": 15,
          "midi": 50,
          "name": "D3",
          "ticks": 15216,
          "time": 176.93023255813952,
          "velocity": 0.18110236220472442
        },
        {
          "duration": 0.03488372093025305,
          "durationTicks": 3,
          "midi": 84,
          "name": "C6",
          "ticks": 15216,
          "time": 176.93023255813952,
          "velocity": 0.07874015748031496
        },
        {
          "duration": 0.12790697674418539,
          "durationTicks": 11,
          "midi": 83,
          "name": "B5",
          "ticks": 15221,
          "time": 176.98837209302326,
          "velocity": 0.11811023622047244
        },
        {
          "duration": 0.05813953488373613,
          "durationTicks": 5,
          "midi": 43,
          "name": "G2",
          "ticks": 15227,
          "time": 177.0581395348837,
          "velocity": 0.18110236220472442
        },
        {
          "duration": 0.023255813953483084,
          "durationTicks": 2,
          "midi": 44,
          "name": "G#2",
          "ticks": 15232,
          "time": 177.11627906976744,
          "velocity": 0.2283464566929134
        },
        {
          "duration": 0.04651162790696617,
          "durationTicks": 4,
          "midi": 43,
          "name": "G2",
          "ticks": 15234,
          "time": 177.13953488372093,
          "velocity": 0.2204724409448819
        },
        {
          "duration": 0.06976744186047767,
          "durationTicks": 6,
          "midi": 58,
          "name": "A#3",
          "ticks": 15235,
          "time": 177.15116279069767,
          "velocity": 0.25984251968503935
        },
        {
          "duration": 0.1511627906976969,
          "durationTicks": 13,
          "midi": 50,
          "name": "D3",
          "ticks": 15238,
          "time": 177.1860465116279,
          "velocity": 0.1732283464566929
        },
        {
          "duration": 0.034883720930224626,
          "durationTicks": 3,
          "midi": 43,
          "name": "G2",
          "ticks": 15239,
          "time": 177.19767441860466,
          "velocity": 0.14173228346456693
        },
        {
          "duration": 0.1046511627907023,
          "durationTicks": 9,
          "midi": 58,
          "name": "A#3",
          "ticks": 15242,
          "time": 177.2325581395349,
          "velocity": 0.2440944881889764
        },
        {
          "duration": 0.04651162790696617,
          "durationTicks": 4,
          "midi": 77,
          "name": "F5",
          "ticks": 15242,
          "time": 177.2325581395349,
          "velocity": 0.11811023622047244
        },
        {
          "duration": 0.04651162790699459,
          "durationTicks": 4,
          "midi": 43,
          "name": "G2",
          "ticks": 15246,
          "time": 177.27906976744185,
          "velocity": 0.16535433070866143
        },
        {
          "duration": 0.2674418604651123,
          "durationTicks": 23,
          "midi": 69,
          "name": "A4",
          "ticks": 15249,
          "time": 177.3139534883721,
          "velocity": 0.4330708661417323
        },
        {
          "duration": 0.034883720930224626,
          "durationTicks": 3,
          "midi": 62,
          "name": "D4",
          "ticks": 15251,
          "time": 177.3372093023256,
          "velocity": 0.28346456692913385
        },
        {
          "duration": 0.8953488372092977,
          "durationTicks": 77,
          "midi": 88,
          "name": "E6",
          "ticks": 15251,
          "time": 177.3372093023256,
          "velocity": 0.18110236220472442
        },
        {
          "duration": 0.12790697674418539,
          "durationTicks": 11,
          "midi": 90,
          "name": "F#6",
          "ticks": 15251,
          "time": 177.3372093023256,
          "velocity": 0.11023622047244094
        },
        {
          "duration": 0.04651162790696617,
          "durationTicks": 4,
          "midi": 50,
          "name": "D3",
          "ticks": 15252,
          "time": 177.34883720930233,
          "velocity": 0.1732283464566929
        },
        {
          "duration": 0.09302325581396076,
          "durationTicks": 8,
          "midi": 84,
          "name": "C6",
          "ticks": 15252,
          "time": 177.34883720930233,
          "velocity": 0.08661417322834646
        },
        {
          "duration": 0.034883720930224626,
          "durationTicks": 3,
          "midi": 42,
          "name": "F#2",
          "ticks": 15253,
          "time": 177.36046511627907,
          "velocity": 0.12598425196850394
        },
        {
          "duration": 0.2093023255814046,
          "durationTicks": 18,
          "midi": 55,
          "name": "G3",
          "ticks": 15254,
          "time": 177.37209302325581,
          "velocity": 0.1889763779527559
        },
        {
          "duration": 0.5232558139534831,
          "durationTicks": 45,
          "midi": 62,
          "name": "D4",
          "ticks": 15255,
          "time": 177.38372093023256,
          "velocity": 0.3464566929133858
        },
        {
          "duration": 0.034883720930224626,
          "durationTicks": 3,
          "midi": 77,
          "name": "F5",
          "ticks": 15256,
          "time": 177.3953488372093,
          "velocity": 0.07874015748031496
        },
        {
          "duration": 0.15116279069766847,
          "durationTicks": 13,
          "midi": 50,
          "name": "D3",
          "ticks": 15257,
          "time": 177.40697674418604,
          "velocity": 0.2204724409448819
        },
        {
          "duration": 0.9069767441860677,
          "durationTicks": 78,
          "midi": 79,
          "name": "G5",
          "ticks": 15259,
          "time": 177.43023255813952,
          "velocity": 0.4015748031496063
        },
        {
          "duration": 1.0697674418604493,
          "durationTicks": 92,
          "midi": 67,
          "name": "G4",
          "ticks": 15262,
          "time": 177.46511627906978,
          "velocity": 0.4566929133858268
        },
        {
          "duration": 0.11627906976744384,
          "durationTicks": 10,
          "midi": 89,
          "name": "F6",
          "ticks": 15268,
          "time": 177.53488372093022,
          "velocity": 0.1968503937007874
        },
        {
          "duration": 0.4651162790697754,
          "durationTicks": 40,
          "midi": 77,
          "name": "F5",
          "ticks": 15269,
          "time": 177.54651162790697,
          "velocity": 0.4015748031496063
        },
        {
          "duration": 0.17441860465117998,
          "durationTicks": 15,
          "midi": 95,
          "name": "B6",
          "ticks": 15269,
          "time": 177.54651162790697,
          "velocity": 0.12598425196850394
        },
        {
          "duration": 0.20930232558137618,
          "durationTicks": 18,
          "midi": 50,
          "name": "D3",
          "ticks": 15271,
          "time": 177.56976744186048,
          "velocity": 0.1968503937007874
        },
        {
          "duration": 0.04651162790696617,
          "durationTicks": 4,
          "midi": 96,
          "name": "C7",
          "ticks": 15271,
          "time": 177.56976744186048,
          "velocity": 0.08661417322834646
        },
        {
          "duration": 0.22093023255811772,
          "durationTicks": 19,
          "midi": 84,
          "name": "C6",
          "ticks": 15272,
          "time": 177.58139534883722,
          "velocity": 0.14960629921259844
        },
        {
          "duration": 0.034883720930224626,
          "durationTicks": 3,
          "midi": 58,
          "name": "A#3",
          "ticks": 15276,
          "time": 177.62790697674419,
          "velocity": 0.14960629921259844
        },
        {
          "duration": 0.023255813953483084,
          "durationTicks": 2,
          "midi": 69,
          "name": "A4",
          "ticks": 15277,
          "time": 177.63953488372093,
          "velocity": 0.33858267716535434
        },
        {
          "duration": 0.023255813953511506,
          "durationTicks": 2,
          "midi": 69,
          "name": "A4",
          "ticks": 15280,
          "time": 177.67441860465115,
          "velocity": 0.33070866141732286
        },
        {
          "duration": 0.04651162790696617,
          "durationTicks": 4,
          "midi": 55,
          "name": "G3",
          "ticks": 15283,
          "time": 177.7093023255814,
          "velocity": 0.10236220472440945
        },
        {
          "duration": 0.04651162790696617,
          "durationTicks": 4,
          "midi": 58,
          "name": "A#3",
          "ticks": 15283,
          "time": 177.7093023255814,
          "velocity": 0.11811023622047244
        },
        {
          "duration": 0.034883720930224626,
          "durationTicks": 3,
          "midi": 69,
          "name": "A4",
          "ticks": 15283,
          "time": 177.7093023255814,
          "velocity": 0.3228346456692913
        },
        {
          "duration": 0.034883720930224626,
          "durationTicks": 3,
          "midi": 65,
          "name": "F4",
          "ticks": 15287,
          "time": 177.75581395348837,
          "velocity": 0.28346456692913385
        },
        {
          "duration": 0.04651162790696617,
          "durationTicks": 4,
          "midi": 69,
          "name": "A4",
          "ticks": 15287,
          "time": 177.75581395348837,
          "velocity": 0.2992125984251969
        },
        {
          "duration": 0.25581395348837077,
          "durationTicks": 22,
          "midi": 58,
          "name": "A#3",
          "ticks": 15288,
          "time": 177.7674418604651,
          "velocity": 0.2755905511811024
        },
        {
          "duration": 0.09302325581396076,
          "durationTicks": 8,
          "midi": 82,
          "name": "A#5",
          "ticks": 15289,
          "time": 177.77906976744185,
          "velocity": 0.13385826771653545
        },
        {
          "duration": 0.06976744186047767,
          "durationTicks": 6,
          "midi": 86,
          "name": "D6",
          "ticks": 15290,
          "time": 177.7906976744186,
          "velocity": 0.14960629921259844
        },
        {
          "duration": 0.023255813953511506,
          "durationTicks": 2,
          "midi": 70,
          "name": "A#4",
          "ticks": 15291,
          "time": 177.80232558139534,
          "velocity": 0.28346456692913385
        },
        {
          "duration": 0.4418604651162923,
          "durationTicks": 38,
          "midi": 83,
          "name": "B5",
          "ticks": 15291,
          "time": 177.80232558139534,
          "velocity": 0.14960629921259844
        },
        {
          "duration": 0.023255813953483084,
          "durationTicks": 2,
          "midi": 65,
          "name": "F4",
          "ticks": 15292,
          "time": 177.8139534883721,
          "velocity": 0.2283464566929134
        },
        {
          "duration": 0.9418604651162639,
          "durationTicks": 81,
          "midi": 74,
          "name": "D5",
          "ticks": 15293,
          "time": 177.82558139534885,
          "velocity": 0.5275590551181102
        },
        {
          "duration": 0.11627906976744384,
          "durationTicks": 10,
          "midi": 70,
          "name": "A#4",
          "ticks": 15294,
          "time": 177.8372093023256,
          "velocity": 0.30708661417322836
        },
        {
          "duration": 0.05813953488370771,
          "durationTicks": 5,
          "midi": 62,
          "name": "D4",
          "ticks": 15303,
          "time": 177.9418604651163,
          "velocity": 0.08661417322834646
        },
        {
          "duration": 0.05813953488373613,
          "durationTicks": 5,
          "midi": 77,
          "name": "F5",
          "ticks": 15311,
          "time": 178.03488372093022,
          "velocity": 0.16535433070866143
        },
        {
          "duration": 0.2325581395348877,
          "durationTicks": 20,
          "midi": 43,
          "name": "G2",
          "ticks": 15312,
          "time": 178.04651162790697,
          "velocity": 0.1968503937007874
        },
        {
          "duration": 0.03488372093025305,
          "durationTicks": 3,
          "midi": 90,
          "name": "F#6",
          "ticks": 15312,
          "time": 178.04651162790697,
          "velocity": 0.07874015748031496
        },
        {
          "duration": 0.12790697674418539,
          "durationTicks": 11,
          "midi": 55,
          "name": "G3",
          "ticks": 15313,
          "time": 178.0581395348837,
          "velocity": 0.30708661417322836
        },
        {
          "duration": 0.023255813953511506,
          "durationTicks": 2,
          "midi": 58,
          "name": "A#3",
          "ticks": 15313,
          "time": 178.0581395348837,
          "velocity": 0.25196850393700787
        },
        {
          "duration": 0.023255813953511506,
          "durationTicks": 2,
          "midi": 69,
          "name": "A4",
          "ticks": 15313,
          "time": 178.0581395348837,
          "velocity": 0.23622047244094488
        },
        {
          "duration": 0.05813953488370771,
          "durationTicks": 5,
          "midi": 77,
          "name": "F5",
          "ticks": 15318,
          "time": 178.11627906976744,
          "velocity": 0.11811023622047244
        },
        {
          "duration": 0.023255813953483084,
          "durationTicks": 2,
          "midi": 58,
          "name": "A#3",
          "ticks": 15320,
          "time": 178.13953488372093,
          "velocity": 0.2283464566929134
        },
        {
          "duration": 1.0697674418604777,
          "durationTicks": 92,
          "midi": 81,
          "name": "A5",
          "ticks": 15320,
          "time": 178.13953488372093,
          "velocity": 0.18110236220472442
        },
        {
          "duration": 0.09302325581393234,
          "durationTicks": 8,
          "midi": 55,
          "name": "G3",
          "ticks": 15325,
          "time": 178.19767441860466,
          "velocity": 0.3228346456692913
        },
        {
          "duration": 0.04651162790696617,
          "durationTicks": 4,
          "midi": 77,
          "name": "F5",
          "ticks": 15326,
          "time": 178.2093023255814,
          "velocity": 0.14173228346456693
        },
        {
          "duration": 0.023255813953483084,
          "durationTicks": 2,
          "midi": 58,
          "name": "A#3",
          "ticks": 15327,
          "time": 178.22093023255815,
          "velocity": 0.2440944881889764
        },
        {
          "duration": 0.2674418604651123,
          "durationTicks": 23,
          "midi": 69,
          "name": "A4",
          "ticks": 15327,
          "time": 178.22093023255815,
          "velocity": 0.2755905511811024
        },
        {
          "duration": 0.11627906976744384,
          "durationTicks": 10,
          "midi": 62,
          "name": "D4",
          "ticks": 15331,
          "time": 178.2674418604651,
          "velocity": 0.1732283464566929
        },
        {
          "duration": 0.12790697674418539,
          "durationTicks": 11,
          "midi": 50,
          "name": "D3",
          "ticks": 15334,
          "time": 178.30232558139534,
          "velocity": 0.2125984251968504
        },
        {
          "duration": 0.03488372093025305,
          "durationTicks": 3,
          "midi": 77,
          "name": "F5",
          "ticks": 15334,
          "time": 178.30232558139534,
          "velocity": 0.09448818897637795
        },
        {
          "duration": 0.023255813953483084,
          "durationTicks": 2,
          "midi": 55,
          "name": "G3",
          "ticks": 15336,
          "time": 178.32558139534885,
          "velocity": 0.28346456692913385
        },
        {
          "duration": 0.023255813953483084,
          "durationTicks": 2,
          "midi": 58,
          "name": "A#3",
          "ticks": 15336,
          "time": 178.32558139534885,
          "velocity": 0.25984251968503935
        },
        {
          "duration": 0.034883720930224626,
          "durationTicks": 3,
          "midi": 77,
          "name": "F5",
          "ticks": 15340,
          "time": 178.37209302325581,
          "velocity": 0.08661417322834646
        },
        {
          "duration": 0.06976744186047767,
          "durationTicks": 6,
          "midi": 55,
          "name": "G3",
          "ticks": 15341,
          "time": 178.38372093023256,
          "velocity": 0.28346456692913385
        },
        {
          "duration": 0.06976744186047767,
          "durationTicks": 6,
          "midi": 62,
          "name": "D4",
          "ticks": 15342,
          "time": 178.3953488372093,
          "velocity": 0.2125984251968504
        },
        {
          "duration": 0.023255813953483084,
          "durationTicks": 2,
          "midi": 58,
          "name": "A#3",
          "ticks": 15343,
          "time": 178.40697674418604,
          "velocity": 0.23622047244094488
        },
        {
          "duration": 0.034883720930224626,
          "durationTicks": 3,
          "midi": 50,
          "name": "D3",
          "ticks": 15346,
          "time": 178.4418604651163,
          "velocity": 0.3464566929133858
        },
        {
          "duration": 0.4534883720930054,
          "durationTicks": 39,
          "midi": 61,
          "name": "C#4",
          "ticks": 15348,
          "time": 178.46511627906978,
          "velocity": 0.4566929133858268
        },
        {
          "duration": 0.9069767441860392,
          "durationTicks": 78,
          "midi": 76,
          "name": "E5",
          "ticks": 15348,
          "time": 178.46511627906978,
          "velocity": 0.3700787401574803
        },
        {
          "duration": 0.6279069767441854,
          "durationTicks": 54,
          "midi": 83,
          "name": "B5",
          "ticks": 15348,
          "time": 178.46511627906978,
          "velocity": 0.31496062992125984
        },
        {
          "duration": 0.09302325581393234,
          "durationTicks": 8,
          "midi": 85,
          "name": "C#6",
          "ticks": 15348,
          "time": 178.46511627906978,
          "velocity": 0.2440944881889764
        },
        {
          "duration": 0.19767441860463464,
          "durationTicks": 17,
          "midi": 89,
          "name": "F6",
          "ticks": 15348,
          "time": 178.46511627906978,
          "velocity": 0.14173228346456693
        },
        {
          "duration": 0.20930232558137618,
          "durationTicks": 18,
          "midi": 90,
          "name": "F#6",
          "ticks": 15348,
          "time": 178.46511627906978,
          "velocity": 0.14960629921259844
        },
        {
          "duration": 0.023255813953483084,
          "durationTicks": 2,
          "midi": 57,
          "name": "A3",
          "ticks": 15349,
          "time": 178.47674418604652,
          "velocity": 0.33858267716535434
        },
        {
          "duration": 0.9069767441860392,
          "durationTicks": 78,
          "midi": 64,
          "name": "E4",
          "ticks": 15349,
          "time": 178.47674418604652,
          "velocity": 0.4094488188976378
        },
        {
          "duration": 0.2093023255814046,
          "durationTicks": 18,
          "midi": 45,
          "name": "A2",
          "ticks": 15350,
          "time": 178.48837209302326,
          "velocity": 0.4566929133858268
        },
        {
          "duration": 0.0813953488371908,
          "durationTicks": 7,
          "midi": 85,
          "name": "C#6",
          "ticks": 15358,
          "time": 178.58139534883722,
          "velocity": 0.1968503937007874
        },
        {
          "duration": 0.06976744186044925,
          "durationTicks": 6,
          "midi": 91,
          "name": "G6",
          "ticks": 15359,
          "time": 178.59302325581396,
          "velocity": 0.07874015748031496
        },
        {
          "duration": 0.19767441860466306,
          "durationTicks": 17,
          "midi": 89,
          "name": "F6",
          "ticks": 15367,
          "time": 178.6860465116279,
          "velocity": 0.14960629921259844
        },
        {
          "duration": 0.04651162790696617,
          "durationTicks": 4,
          "midi": 46,
          "name": "A#2",
          "ticks": 15368,
          "time": 178.69767441860466,
          "velocity": 0.31496062992125984
        },
        {
          "duration": 0.1860465116278931,
          "durationTicks": 16,
          "midi": 69,
          "name": "A4",
          "ticks": 15368,
          "time": 178.69767441860466,
          "velocity": 0.2047244094488189
        },
        {
          "duration": 0.19767441860463464,
          "durationTicks": 17,
          "midi": 52,
          "name": "E3",
          "ticks": 15369,
          "time": 178.7093023255814,
          "velocity": 0.28346456692913385
        },
        {
          "duration": 0.22093023255811772,
          "durationTicks": 19,
          "midi": 57,
          "name": "A3",
          "ticks": 15369,
          "time": 178.7093023255814,
          "velocity": 0.33070866141732286
        },
        {
          "duration": 0.0813953488371908,
          "durationTicks": 7,
          "midi": 85,
          "name": "C#6",
          "ticks": 15369,
          "time": 178.7093023255814,
          "velocity": 0.2204724409448819
        },
        {
          "duration": 0.8255813953488484,
          "durationTicks": 71,
          "midi": 45,
          "name": "A2",
          "ticks": 15372,
          "time": 178.74418604651163,
          "velocity": 0.4566929133858268
        },
        {
          "duration": 0.09302325581396076,
          "durationTicks": 8,
          "midi": 71,
          "name": "B4",
          "ticks": 15374,
          "time": 178.7674418604651,
          "velocity": 0.08661417322834646
        },
        {
          "duration": 0.06976744186047767,
          "durationTicks": 6,
          "midi": 79,
          "name": "G5",
          "ticks": 15376,
          "time": 178.7906976744186,
          "velocity": 0.11023622047244094
        },
        {
          "duration": 0.1046511627907023,
          "durationTicks": 9,
          "midi": 90,
          "name": "F#6",
          "ticks": 15376,
          "time": 178.7906976744186,
          "velocity": 0.07874015748031496
        },
        {
          "duration": 0.15116279069766847,
          "durationTicks": 13,
          "midi": 74,
          "name": "D5",
          "ticks": 15379,
          "time": 178.82558139534885,
          "velocity": 0.4094488188976378
        },
        {
          "duration": 0.06976744186044925,
          "durationTicks": 6,
          "midi": 85,
          "name": "C#6",
          "ticks": 15379,
          "time": 178.82558139534885,
          "velocity": 0.14173228346456693
        },
        {
          "duration": 0.03488372093025305,
          "durationTicks": 3,
          "midi": 68,
          "name": "G#4",
          "ticks": 15386,
          "time": 178.90697674418604,
          "velocity": 0.12598425196850394
        },
        {
          "duration": 0.09302325581396076,
          "durationTicks": 8,
          "midi": 85,
          "name": "C#6",
          "ticks": 15387,
          "time": 178.91860465116278,
          "velocity": 0.2677165354330709
        },
        {
          "duration": 0.22093023255814614,
          "durationTicks": 19,
          "midi": 89,
          "name": "F6",
          "ticks": 15387,
          "time": 178.91860465116278,
          "velocity": 0.14173228346456693
        },
        {
          "duration": 0.08139534883721922,
          "durationTicks": 7,
          "midi": 91,
          "name": "G6",
          "ticks": 15387,
          "time": 178.91860465116278,
          "velocity": 0.14960629921259844
        },
        {
          "duration": 0.51162790697677,
          "durationTicks": 44,
          "midi": 61,
          "name": "C#4",
          "ticks": 15388,
          "time": 178.93023255813952,
          "velocity": 0.4566929133858268
        },
        {
          "duration": 0.06976744186044925,
          "durationTicks": 6,
          "midi": 52,
          "name": "E3",
          "ticks": 15389,
          "time": 178.9418604651163,
          "velocity": 0.2677165354330709
        },
        {
          "duration": 0.034883720930224626,
          "durationTicks": 3,
          "midi": 71,
          "name": "B4",
          "ticks": 15390,
          "time": 178.95348837209303,
          "velocity": 0.09448818897637795
        },
        {
          "duration": 0.0813953488371908,
          "durationTicks": 7,
          "midi": 79,
          "name": "G5",
          "ticks": 15390,
          "time": 178.95348837209303,
          "velocity": 0.10236220472440945
        },
        {
          "duration": 0.034883720930224626,
          "durationTicks": 3,
          "midi": 90,
          "name": "F#6",
          "ticks": 15395,
          "time": 179.01162790697674,
          "velocity": 0.07086614173228346
        },
        {
          "duration": 0.08139534883721922,
          "durationTicks": 7,
          "midi": 52,
          "name": "E3",
          "ticks": 15396,
          "time": 179.02325581395348,
          "velocity": 0.25196850393700787
        },
        {
          "duration": 0.05813953488370771,
          "durationTicks": 5,
          "midi": 83,
          "name": "B5",
          "ticks": 15403,
          "time": 179.1046511627907,
          "velocity": 0.14173228346456693
        },
        {
          "duration": 0.27906976744185386,
          "durationTicks": 24,
          "midi": 52,
          "name": "E3",
          "ticks": 15404,
          "time": 179.11627906976744,
          "velocity": 0.18110236220472442
        },
        {
          "duration": 0.034883720930224626,
          "durationTicks": 3,
          "midi": 83,
          "name": "B5",
          "ticks": 15411,
          "time": 179.19767441860466,
          "velocity": 0.09448818897637795
        },
        {
          "duration": 0.12790697674418539,
          "durationTicks": 11,
          "midi": 71,
          "name": "B4",
          "ticks": 15417,
          "time": 179.2674418604651,
          "velocity": 0.07874015748031496
        },
        {
          "duration": 0.2674418604651123,
          "durationTicks": 23,
          "midi": 77,
          "name": "F5",
          "ticks": 15426,
          "time": 179.37209302325581,
          "velocity": 0.4645669291338583
        },
        {
          "duration": 0.17441860465115155,
          "durationTicks": 15,
          "midi": 89,
          "name": "F6",
          "ticks": 15426,
          "time": 179.37209302325581,
          "velocity": 0.47244094488188976
        },
        {
          "duration": 2.2325581395348877,
          "durationTicks": 192,
          "midi": 74,
          "name": "D5",
          "ticks": 15445,
          "time": 179.59302325581396,
          "velocity": 0.49606299212598426
        },
        {
          "duration": 0.2674418604651123,
          "durationTicks": 23,
          "midi": 64,
          "name": "E4",
          "ticks": 15446,
          "time": 179.6046511627907,
          "velocity": 0.48031496062992124
        },
        {
          "duration": 0.16279069767441,
          "durationTicks": 14,
          "midi": 83,
          "name": "B5",
          "ticks": 15446,
          "time": 179.6046511627907,
          "velocity": 0.30708661417322836
        },
        {
          "duration": 0.05813953488370771,
          "durationTicks": 5,
          "midi": 91,
          "name": "G6",
          "ticks": 15446,
          "time": 179.6046511627907,
          "velocity": 0.13385826771653545
        },
        {
          "duration": 0.15116279069766847,
          "durationTicks": 13,
          "midi": 93,
          "name": "A6",
          "ticks": 15446,
          "time": 179.6046511627907,
          "velocity": 0.16535433070866143
        },
        {
          "duration": 0.22093023255814614,
          "durationTicks": 19,
          "midi": 45,
          "name": "A2",
          "ticks": 15447,
          "time": 179.61627906976744,
          "velocity": 0.44881889763779526
        },
        {
          "duration": 0.1860465116278931,
          "durationTicks": 16,
          "midi": 85,
          "name": "C#6",
          "ticks": 15447,
          "time": 179.61627906976744,
          "velocity": 0.23622047244094488
        },
        {
          "duration": 0.11627906976744384,
          "durationTicks": 10,
          "midi": 52,
          "name": "E3",
          "ticks": 15448,
          "time": 179.62790697674419,
          "velocity": 0.25196850393700787
        },
        {
          "duration": 0.19767441860466306,
          "durationTicks": 17,
          "midi": 61,
          "name": "C#4",
          "ticks": 15448,
          "time": 179.62790697674419,
          "velocity": 0.3937007874015748
        },
        {
          "duration": 0.40697674418603924,
          "durationTicks": 35,
          "midi": 90,
          "name": "F#6",
          "ticks": 15449,
          "time": 179.63953488372093,
          "velocity": 0.1889763779527559
        },
        {
          "duration": 0.1046511627907023,
          "durationTicks": 9,
          "midi": 92,
          "name": "G#6",
          "ticks": 15449,
          "time": 179.63953488372093,
          "velocity": 0.09448818897637795
        },
        {
          "duration": 0.08139534883721922,
          "durationTicks": 7,
          "midi": 79,
          "name": "G5",
          "ticks": 15450,
          "time": 179.65116279069767,
          "velocity": 0.11023622047244094
        },
        {
          "duration": 0.13953488372095535,
          "durationTicks": 12,
          "midi": 89,
          "name": "F6",
          "ticks": 15452,
          "time": 179.67441860465115,
          "velocity": 0.11023622047244094
        },
        {
          "duration": 0.1046511627907023,
          "durationTicks": 9,
          "midi": 71,
          "name": "B4",
          "ticks": 15456,
          "time": 179.72093023255815,
          "velocity": 0.10236220472440945
        },
        {
          "duration": 0.2093023255814046,
          "durationTicks": 18,
          "midi": 83,
          "name": "B5",
          "ticks": 15462,
          "time": 179.7906976744186,
          "velocity": 0.2992125984251969
        },
        {
          "duration": 0.17441860465115155,
          "durationTicks": 15,
          "midi": 89,
          "name": "F6",
          "ticks": 15465,
          "time": 179.82558139534885,
          "velocity": 0.14173228346456693
        },
        {
          "duration": 0.0813953488371908,
          "durationTicks": 7,
          "midi": 93,
          "name": "A6",
          "ticks": 15465,
          "time": 179.82558139534885,
          "velocity": 0.1732283464566929
        },
        {
          "duration": 0.0813953488371908,
          "durationTicks": 7,
          "midi": 52,
          "name": "E3",
          "ticks": 15466,
          "time": 179.8372093023256,
          "velocity": 0.25984251968503935
        },
        {
          "duration": 0.3488372093023031,
          "durationTicks": 30,
          "midi": 61,
          "name": "C#4",
          "ticks": 15466,
          "time": 179.8372093023256,
          "velocity": 0.4409448818897638
        },
        {
          "duration": 0.05813953488370771,
          "durationTicks": 5,
          "midi": 71,
          "name": "B4",
          "ticks": 15466,
          "time": 179.8372093023256,
          "velocity": 0.14960629921259844
        },
        {
          "duration": 0.3604651162790731,
          "durationTicks": 31,
          "midi": 45,
          "name": "A2",
          "ticks": 15467,
          "time": 179.84883720930233,
          "velocity": 0.5039370078740157
        },
        {
          "duration": 0.1046511627907023,
          "durationTicks": 9,
          "midi": 79,
          "name": "G5",
          "ticks": 15467,
          "time": 179.84883720930233,
          "velocity": 0.14960629921259844
        },
        {
          "duration": 0.034883720930224626,
          "durationTicks": 3,
          "midi": 85,
          "name": "C#6",
          "ticks": 15469,
          "time": 179.87209302325581,
          "velocity": 0.14960629921259844
        },
        {
          "duration": 0.04651162790696617,
          "durationTicks": 4,
          "midi": 64,
          "name": "E4",
          "ticks": 15470,
          "time": 179.88372093023256,
          "velocity": 0.3464566929133858
        },
        {
          "duration": 0.13953488372092693,
          "durationTicks": 12,
          "midi": 71,
          "name": "B4",
          "ticks": 15472,
          "time": 179.90697674418604,
          "velocity": 0.13385826771653545
        },
        {
          "duration": 0.26744186046514073,
          "durationTicks": 23,
          "midi": 52,
          "name": "E3",
          "ticks": 15474,
          "time": 179.93023255813952,
          "velocity": 0.25984251968503935
        },
        {
          "duration": 0.17441860465115155,
          "durationTicks": 15,
          "midi": 64,
          "name": "E4",
          "ticks": 15475,
          "time": 179.9418604651163,
          "velocity": 0.2992125984251969
        },
        {
          "duration": 0.06976744186044925,
          "durationTicks": 6,
          "midi": 85,
          "name": "C#6",
          "ticks": 15476,
          "time": 179.95348837209303,
          "velocity": 0.15748031496062992
        },
        {
          "duration": 0.05813953488370771,
          "durationTicks": 5,
          "midi": 91,
          "name": "G6",
          "ticks": 15477,
          "time": 179.96511627906978,
          "velocity": 0.07086614173228346
        },
        {
          "duration": 0.04651162790699459,
          "durationTicks": 4,
          "midi": 83,
          "name": "B5",
          "ticks": 15482,
          "time": 180.02325581395348,
          "velocity": 0.14173228346456693
        },
        {
          "duration": 0.05813953488370771,
          "durationTicks": 5,
          "midi": 85,
          "name": "C#6",
          "ticks": 15487,
          "time": 180.08139534883722,
          "velocity": 0.08661417322834646
        },
        {
          "duration": 0.4651162790697754,
          "durationTicks": 40,
          "midi": 69,
          "name": "A4",
          "ticks": 15504,
          "time": 180.27906976744185,
          "velocity": 0.33858267716535434
        },
        {
          "duration": 0.5,
          "durationTicks": 43,
          "midi": 77,
          "name": "F5",
          "ticks": 15504,
          "time": 180.27906976744185,
          "velocity": 0.4566929133858268
        },
        {
          "duration": 0.43023255813955075,
          "durationTicks": 37,
          "midi": 65,
          "name": "F4",
          "ticks": 15505,
          "time": 180.2906976744186,
          "velocity": 0.33070866141732286
        },
        {
          "duration": 0.19767441860466306,
          "durationTicks": 17,
          "midi": 84,
          "name": "C6",
          "ticks": 15506,
          "time": 180.30232558139534,
          "velocity": 0.13385826771653545
        },
        {
          "duration": 0.30232558139536536,
          "durationTicks": 26,
          "midi": 88,
          "name": "E6",
          "ticks": 15506,
          "time": 180.30232558139534,
          "velocity": 0.2047244094488189
        },
        {
          "duration": 0.023255813953483084,
          "durationTicks": 2,
          "midi": 44,
          "name": "G#2",
          "ticks": 15508,
          "time": 180.32558139534885,
          "velocity": 0.2677165354330709
        },
        {
          "duration": 0.034883720930224626,
          "durationTicks": 3,
          "midi": 57,
          "name": "A3",
          "ticks": 15508,
          "time": 180.32558139534885,
          "velocity": 0.08661417322834646
        },
        {
          "duration": 0.06976744186044925,
          "durationTicks": 6,
          "midi": 45,
          "name": "A2",
          "ticks": 15510,
          "time": 180.34883720930233,
          "velocity": 0.2677165354330709
        },
        {
          "duration": 0.13953488372092693,
          "durationTicks": 12,
          "midi": 72,
          "name": "C5",
          "ticks": 15510,
          "time": 180.34883720930233,
          "velocity": 0.14173228346456693
        },
        {
          "duration": 0.03488372093025305,
          "durationTicks": 3,
          "midi": 45,
          "name": "A2",
          "ticks": 15517,
          "time": 180.43023255813952,
          "velocity": 0.2440944881889764
        },
        {
          "duration": 0.034883720930224626,
          "durationTicks": 3,
          "midi": 60,
          "name": "C4",
          "ticks": 15520,
          "time": 180.46511627906978,
          "velocity": 0.08661417322834646
        },
        {
          "duration": 0.05813953488370771,
          "durationTicks": 5,
          "midi": 57,
          "name": "A3",
          "ticks": 15523,
          "time": 180.5,
          "velocity": 0.1968503937007874
        },
        {
          "duration": 0.04651162790696617,
          "durationTicks": 4,
          "midi": 80,
          "name": "G#5",
          "ticks": 15523,
          "time": 180.5,
          "velocity": 0.14960629921259844
        },
        {
          "duration": 0.023255813953483084,
          "durationTicks": 2,
          "midi": 61,
          "name": "C#4",
          "ticks": 15524,
          "time": 180.51162790697674,
          "velocity": 0.31496062992125984
        },
        {
          "duration": 0.2325581395348877,
          "durationTicks": 20,
          "midi": 84,
          "name": "C6",
          "ticks": 15524,
          "time": 180.51162790697674,
          "velocity": 0.2125984251968504
        },
        {
          "duration": 0.05813953488373613,
          "durationTicks": 5,
          "midi": 72,
          "name": "C5",
          "ticks": 15525,
          "time": 180.52325581395348,
          "velocity": 0.2283464566929134
        },
        {
          "duration": 0.1046511627907023,
          "durationTicks": 9,
          "midi": 60,
          "name": "C4",
          "ticks": 15526,
          "time": 180.53488372093022,
          "velocity": 0.3228346456692913
        },
        {
          "duration": 0.023255813953511506,
          "durationTicks": 2,
          "midi": 62,
          "name": "D4",
          "ticks": 15528,
          "time": 180.5581395348837,
          "velocity": 0.28346456692913385
        },
        {
          "duration": 0.06976744186044925,
          "durationTicks": 6,
          "midi": 38,
          "name": "D2",
          "ticks": 15529,
          "time": 180.56976744186048,
          "velocity": 0.14960629921259844
        },
        {
          "duration": 0.11627906976744384,
          "durationTicks": 10,
          "midi": 50,
          "name": "D3",
          "ticks": 15533,
          "time": 180.61627906976744,
          "velocity": 0.18110236220472442
        },
        {
          "duration": 0.22093023255814614,
          "durationTicks": 19,
          "midi": 88,
          "name": "E6",
          "ticks": 15534,
          "time": 180.62790697674419,
          "velocity": 0.2283464566929134
        },
        {
          "duration": 0.03488372093025305,
          "durationTicks": 3,
          "midi": 38,
          "name": "D2",
          "ticks": 15539,
          "time": 180.6860465116279,
          "velocity": 0.11811023622047244
        },
        {
          "duration": 0.04651162790699459,
          "durationTicks": 4,
          "midi": 62,
          "name": "D4",
          "ticks": 15539,
          "time": 180.6860465116279,
          "velocity": 0.2283464566929134
        },
        {
          "duration": 0.05813953488370771,
          "durationTicks": 5,
          "midi": 60,
          "name": "C4",
          "ticks": 15541,
          "time": 180.7093023255814,
          "velocity": 0.3858267716535433
        },
        {
          "duration": 0.2325581395348877,
          "durationTicks": 20,
          "midi": 64,
          "name": "E4",
          "ticks": 15543,
          "time": 180.7325581395349,
          "velocity": 0.30708661417322836
        },
        {
          "duration": 0.2325581395348877,
          "durationTicks": 20,
          "midi": 67,
          "name": "G4",
          "ticks": 15544,
          "time": 180.74418604651163,
          "velocity": 0.30708661417322836
        },
        {
          "duration": 0.04651162790696617,
          "durationTicks": 4,
          "midi": 83,
          "name": "B5",
          "ticks": 15544,
          "time": 180.74418604651163,
          "velocity": 0.2125984251968504
        },
        {
          "duration": 0.023255813953483084,
          "durationTicks": 2,
          "midi": 61,
          "name": "C#4",
          "ticks": 15546,
          "time": 180.7674418604651,
          "velocity": 0.2440944881889764
        },
        {
          "duration": 0.08139534883721922,
          "durationTicks": 7,
          "midi": 82,
          "name": "A#5",
          "ticks": 15547,
          "time": 180.77906976744185,
          "velocity": 0.11023622047244094
        },
        {
          "duration": 0.023255813953511506,
          "durationTicks": 2,
          "midi": 59,
          "name": "B3",
          "ticks": 15548,
          "time": 180.7906976744186,
          "velocity": 0.3543307086614173
        },
        {
          "duration": 0.05813953488373613,
          "durationTicks": 5,
          "midi": 89,
          "name": "F6",
          "ticks": 15549,
          "time": 180.80232558139534,
          "velocity": 0.07874015748031496
        },
        {
          "duration": 0.09302325581393234,
          "durationTicks": 8,
          "midi": 60,
          "name": "C4",
          "ticks": 15550,
          "time": 180.8139534883721,
          "velocity": 0.3543307086614173
        },
        {
          "duration": 0.19767441860463464,
          "durationTicks": 17,
          "midi": 83,
          "name": "B5",
          "ticks": 15550,
          "time": 180.8139534883721,
          "velocity": 0.1732283464566929
        },
        {
          "duration": 0.13953488372092693,
          "durationTicks": 12,
          "midi": 48,
          "name": "C3",
          "ticks": 15551,
          "time": 180.82558139534885,
          "velocity": 0.25196850393700787
        },
        {
          "duration": 0.0813953488371908,
          "durationTicks": 7,
          "midi": 55,
          "name": "G3",
          "ticks": 15551,
          "time": 180.82558139534885,
          "velocity": 0.12598425196850394
        },
        {
          "duration": 0.09302325581396076,
          "durationTicks": 8,
          "midi": 71,
          "name": "B4",
          "ticks": 15554,
          "time": 180.86046511627907,
          "velocity": 0.2125984251968504
        },
        {
          "duration": 0.05813953488373613,
          "durationTicks": 5,
          "midi": 77,
          "name": "F5",
          "ticks": 15557,
          "time": 180.8953488372093,
          "velocity": 0.11811023622047244
        },
        {
          "duration": 0.04651162790699459,
          "durationTicks": 4,
          "midi": 60,
          "name": "C4",
          "ticks": 15559,
          "time": 180.91860465116278,
          "velocity": 0.30708661417322836
        },
        {
          "duration": 0.22093023255811772,
          "durationTicks": 19,
          "midi": 72,
          "name": "C5",
          "ticks": 15562,
          "time": 180.95348837209303,
          "velocity": 0.33858267716535434
        },
        {
          "duration": 0.023255813953483084,
          "durationTicks": 2,
          "midi": 49,
          "name": "C#3",
          "ticks": 15563,
          "time": 180.96511627906978,
          "velocity": 0.25196850393700787
        },
        {
          "duration": 0.023255813953483084,
          "durationTicks": 2,
          "midi": 59,
          "name": "B3",
          "ticks": 15563,
          "time": 180.96511627906978,
          "velocity": 0.29133858267716534
        },
        {
          "duration": 0.3139534883720785,
          "durationTicks": 27,
          "midi": 65,
          "name": "F4",
          "ticks": 15563,
          "time": 180.96511627906978,
          "velocity": 0.3228346456692913
        },
        {
          "duration": 0.6976744186046346,
          "durationTicks": 60,
          "midi": 77,
          "name": "F5",
          "ticks": 15563,
          "time": 180.96511627906978,
          "velocity": 0.4330708661417323
        },
        {
          "duration": 0.04651162790696617,
          "durationTicks": 4,
          "midi": 85,
          "name": "C#6",
          "ticks": 15564,
          "time": 180.97674418604652,
          "velocity": 0.09448818897637795
        },
        {
          "duration": 0.05813953488370771,
          "durationTicks": 5,
          "midi": 60,
          "name": "C4",
          "ticks": 15565,
          "time": 180.98837209302326,
          "velocity": 0.3464566929133858
        },
        {
          "duration": 0.06976744186044925,
          "durationTicks": 6,
          "midi": 81,
          "name": "A5",
          "ticks": 15565,
          "time": 180.98837209302326,
          "velocity": 0.08661417322834646
        },
        {
          "duration": 0.40697674418603924,
          "durationTicks": 35,
          "midi": 88,
          "name": "E6",
          "ticks": 15566,
          "time": 181,
          "velocity": 0.18110236220472442
        },
        {
          "duration": 0.04651162790696617,
          "durationTicks": 4,
          "midi": 50,
          "name": "D3",
          "ticks": 15567,
          "time": 181.01162790697674,
          "velocity": 0.1968503937007874
        },
        {
          "duration": 0.17441860465117998,
          "durationTicks": 15,
          "midi": 38,
          "name": "D2",
          "ticks": 15568,
          "time": 181.02325581395348,
          "velocity": 0.1732283464566929
        },
        {
          "duration": 0.08139534883721922,
          "durationTicks": 7,
          "midi": 60,
          "name": "C4",
          "ticks": 15571,
          "time": 181.0581395348837,
          "velocity": 0.3228346456692913
        },
        {
          "duration": 0.13953488372092693,
          "durationTicks": 12,
          "midi": 50,
          "name": "D3",
          "ticks": 15572,
          "time": 181.06976744186048,
          "velocity": 0.1968503937007874
        },
        {
          "duration": 0.023255813953483084,
          "durationTicks": 2,
          "midi": 60,
          "name": "C4",
          "ticks": 15579,
          "time": 181.15116279069767,
          "velocity": 0.2440944881889764
        },
        {
          "duration": 0.023255813953511506,
          "durationTicks": 2,
          "midi": 59,
          "name": "B3",
          "ticks": 15582,
          "time": 181.1860465116279,
          "velocity": 0.30708661417322836
        },
        {
          "duration": 0.26744186046514073,
          "durationTicks": 23,
          "midi": 72,
          "name": "C5",
          "ticks": 15582,
          "time": 181.1860465116279,
          "velocity": 0.30708661417322836
        },
        {
          "duration": 0.30232558139536536,
          "durationTicks": 26,
          "midi": 81,
          "name": "A5",
          "ticks": 15582,
          "time": 181.1860465116279,
          "velocity": 0.2125984251968504
        },
        {
          "duration": 0.22093023255811772,
          "durationTicks": 19,
          "midi": 60,
          "name": "C4",
          "ticks": 15584,
          "time": 181.2093023255814,
          "velocity": 0.3543307086614173
        },
        {
          "duration": 0.023255813953483084,
          "durationTicks": 2,
          "midi": 44,
          "name": "G#2",
          "ticks": 15587,
          "time": 181.24418604651163,
          "velocity": 0.23622047244094488
        },
        {
          "duration": 0.04651162790699459,
          "durationTicks": 4,
          "midi": 45,
          "name": "A2",
          "ticks": 15589,
          "time": 181.2674418604651,
          "velocity": 0.2283464566929134
        },
        {
          "duration": 0.06976744186047767,
          "durationTicks": 6,
          "midi": 45,
          "name": "A2",
          "ticks": 15599,
          "time": 181.38372093023256,
          "velocity": 0.23622047244094488
        },
        {
          "duration": 0.2325581395348877,
          "durationTicks": 20,
          "midi": 65,
          "name": "F4",
          "ticks": 15603,
          "time": 181.43023255813952,
          "velocity": 0.33858267716535434
        },
        {
          "duration": 0.2325581395348877,
          "durationTicks": 20,
          "midi": 69,
          "name": "A4",
          "ticks": 15603,
          "time": 181.43023255813952,
          "velocity": 0.1732283464566929
        },
        {
          "duration": 0.20930232558137618,
          "durationTicks": 18,
          "midi": 62,
          "name": "D4",
          "ticks": 15604,
          "time": 181.4418604651163,
          "velocity": 0.3228346456692913
        },
        {
          "duration": 0.20930232558137618,
          "durationTicks": 18,
          "midi": 87,
          "name": "D#6",
          "ticks": 15604,
          "time": 181.4418604651163,
          "velocity": 0.10236220472440945
        },
        {
          "duration": 0.22093023255811772,
          "durationTicks": 19,
          "midi": 88,
          "name": "E6",
          "ticks": 15604,
          "time": 181.4418604651163,
          "velocity": 0.13385826771653545
        },
        {
          "duration": 0.023255813953483084,
          "durationTicks": 2,
          "midi": 54,
          "name": "F#3",
          "ticks": 15605,
          "time": 181.45348837209303,
          "velocity": 0.23622047244094488
        },
        {
          "duration": 0.12790697674418539,
          "durationTicks": 11,
          "midi": 84,
          "name": "C6",
          "ticks": 15607,
          "time": 181.47674418604652,
          "velocity": 0.16535433070866143
        },
        {
          "duration": 0.12790697674418539,
          "durationTicks": 11,
          "midi": 53,
          "name": "F3",
          "ticks": 15608,
          "time": 181.48837209302326,
          "velocity": 0.2440944881889764
        },
        {
          "duration": 0.06976744186047767,
          "durationTicks": 6,
          "midi": 72,
          "name": "C5",
          "ticks": 15609,
          "time": 181.5,
          "velocity": 0.09448818897637795
        },
        {
          "duration": 0.24418604651162923,
          "durationTicks": 21,
          "midi": 71,
          "name": "B4",
          "ticks": 15622,
          "time": 181.65116279069767,
          "velocity": 0.3543307086614173
        },
        {
          "duration": 0.2325581395348877,
          "durationTicks": 20,
          "midi": 76,
          "name": "E5",
          "ticks": 15622,
          "time": 181.65116279069767,
          "velocity": 0.1968503937007874
        },
        {
          "duration": 0.2093023255814046,
          "durationTicks": 18,
          "midi": 59,
          "name": "B3",
          "ticks": 15623,
          "time": 181.6627906976744,
          "velocity": 0.33858267716535434
        },
        {
          "duration": 0.2674418604651123,
          "durationTicks": 23,
          "midi": 64,
          "name": "E4",
          "ticks": 15623,
          "time": 181.6627906976744,
          "velocity": 0.3543307086614173
        },
        {
          "duration": 0.2093023255814046,
          "durationTicks": 18,
          "midi": 82,
          "name": "A#5",
          "ticks": 15623,
          "time": 181.6627906976744,
          "velocity": 0.13385826771653545
        },
        {
          "duration": 0.24418604651162923,
          "durationTicks": 21,
          "midi": 67,
          "name": "G4",
          "ticks": 15624,
          "time": 181.67441860465115,
          "velocity": 0.2440944881889764
        },
        {
          "duration": 0.023255813953511506,
          "durationTicks": 2,
          "midi": 39,
          "name": "D#2",
          "ticks": 15625,
          "time": 181.6860465116279,
          "velocity": 0.2283464566929134
        },
        {
          "duration": 0.06976744186044925,
          "durationTicks": 6,
          "midi": 40,
          "name": "E2",
          "ticks": 15627,
          "time": 181.7093023255814,
          "velocity": 0.2283464566929134
        },
        {
          "duration": 0.04651162790696617,
          "durationTicks": 4,
          "midi": 87,
          "name": "D#6",
          "ticks": 15630,
          "time": 181.74418604651163,
          "velocity": 0.09448818897637795
        },
        {
          "duration": 0.03488372093025305,
          "durationTicks": 3,
          "midi": 40,
          "name": "E2",
          "ticks": 15634,
          "time": 181.7906976744186,
          "velocity": 0.2440944881889764
        },
        {
          "duration": 0.11627906976744384,
          "durationTicks": 10,
          "midi": 40,
          "name": "E2",
          "ticks": 15638,
          "time": 181.8372093023256,
          "velocity": 0.23622047244094488
        },
        {
          "duration": 0.45348837209303383,
          "durationTicks": 39,
          "midi": 77,
          "name": "F5",
          "ticks": 15641,
          "time": 181.87209302325581,
          "velocity": 0.4094488188976378
        },
        {
          "duration": 0.3604651162790731,
          "durationTicks": 31,
          "midi": 81,
          "name": "A5",
          "ticks": 15641,
          "time": 181.87209302325581,
          "velocity": 0.23622047244094488
        },
        {
          "duration": 0.27906976744185386,
          "durationTicks": 24,
          "midi": 86,
          "name": "D6",
          "ticks": 15641,
          "time": 181.87209302325581,
          "velocity": 0.3464566929133858
        },
        {
          "duration": 0.22093023255814614,
          "durationTicks": 19,
          "midi": 60,
          "name": "C4",
          "ticks": 15642,
          "time": 181.88372093023256,
          "velocity": 0.36220472440944884
        },
        {
          "duration": 0.034883720930224626,
          "durationTicks": 3,
          "midi": 40,
          "name": "E2",
          "ticks": 15649,
          "time": 181.96511627906978,
          "velocity": 0.08661417322834646
        },
        {
          "duration": 0.023255813953483084,
          "durationTicks": 2,
          "midi": 59,
          "name": "B3",
          "ticks": 15661,
          "time": 182.1046511627907,
          "velocity": 0.30708661417322836
        },
        {
          "duration": 0.4651162790697754,
          "durationTicks": 40,
          "midi": 65,
          "name": "F4",
          "ticks": 15661,
          "time": 182.1046511627907,
          "velocity": 0.3464566929133858
        },
        {
          "duration": 0.7209302325581461,
          "durationTicks": 62,
          "midi": 74,
          "name": "D5",
          "ticks": 15661,
          "time": 182.1046511627907,
          "velocity": 0.28346456692913385
        },
        {
          "duration": 0.13953488372092693,
          "durationTicks": 12,
          "midi": 69,
          "name": "A4",
          "ticks": 15662,
          "time": 182.11627906976744,
          "velocity": 0.14173228346456693
        },
        {
          "duration": 0.19767441860466306,
          "durationTicks": 17,
          "midi": 88,
          "name": "E6",
          "ticks": 15662,
          "time": 182.11627906976744,
          "velocity": 0.14173228346456693
        },
        {
          "duration": 0.04651162790696617,
          "durationTicks": 4,
          "midi": 60,
          "name": "C4",
          "ticks": 15664,
          "time": 182.13953488372093,
          "velocity": 0.3464566929133858
        },
        {
          "duration": 0.023255813953483084,
          "durationTicks": 2,
          "midi": 62,
          "name": "D4",
          "ticks": 15666,
          "time": 182.1627906976744,
          "velocity": 0.29133858267716534
        },
        {
          "duration": 0.034883720930224626,
          "durationTicks": 3,
          "midi": 45,
          "name": "A2",
          "ticks": 15670,
          "time": 182.2093023255814,
          "velocity": 0.2440944881889764
        },
        {
          "duration": 0.023255813953483084,
          "durationTicks": 2,
          "midi": 60,
          "name": "C4",
          "ticks": 15674,
          "time": 182.25581395348837,
          "velocity": 0.2992125984251969
        },
        {
          "duration": 0.03488372093025305,
          "durationTicks": 3,
          "midi": 45,
          "name": "A2",
          "ticks": 15677,
          "time": 182.2906976744186,
          "velocity": 0.2125984251968504
        },
        {
          "duration": 0.03488372093025305,
          "durationTicks": 3,
          "midi": 60,
          "name": "C4",
          "ticks": 15677,
          "time": 182.2906976744186,
          "velocity": 0.28346456692913385
        },
        {
          "duration": 0.2906976744186238,
          "durationTicks": 25,
          "midi": 72,
          "name": "C5",
          "ticks": 15677,
          "time": 182.2906976744186,
          "velocity": 0.31496062992125984
        },
        {
          "duration": 0.023255813953483084,
          "durationTicks": 2,
          "midi": 62,
          "name": "D4",
          "ticks": 15680,
          "time": 182.32558139534885,
          "velocity": 0.29133858267716534
        },
        {
          "duration": 0.11627906976744384,
          "durationTicks": 10,
          "midi": 69,
          "name": "A4",
          "ticks": 15680,
          "time": 182.32558139534885,
          "velocity": 0.13385826771653545
        },
        {
          "duration": 0.2325581395348877,
          "durationTicks": 20,
          "midi": 88,
          "name": "E6",
          "ticks": 15681,
          "time": 182.3372093023256,
          "velocity": 0.14960629921259844
        },
        {
          "duration": 0.023255813953483084,
          "durationTicks": 2,
          "midi": 60,
          "name": "C4",
          "ticks": 15682,
          "time": 182.34883720930233,
          "velocity": 0.28346456692913385
        },
        {
          "duration": 0.034883720930224626,
          "durationTicks": 3,
          "midi": 85,
          "name": "C#6",
          "ticks": 15682,
          "time": 182.34883720930233,
          "velocity": 0.11811023622047244
        },
        {
          "duration": 0.17441860465115155,
          "durationTicks": 15,
          "midi": 38,
          "name": "D2",
          "ticks": 15685,
          "time": 182.38372093023256,
          "velocity": 0.1968503937007874
        },
        {
          "duration": 0.034883720930224626,
          "durationTicks": 3,
          "midi": 62,
          "name": "D4",
          "ticks": 15685,
          "time": 182.38372093023256,
          "velocity": 0.18110236220472442
        },
        {
          "duration": 0.03488372093025305,
          "durationTicks": 3,
          "midi": 85,
          "name": "C#6",
          "ticks": 15689,
          "time": 182.43023255813952,
          "velocity": 0.07086614173228346
        },
        {
          "duration": 0.05813953488373613,
          "durationTicks": 5,
          "midi": 59,
          "name": "B3",
          "ticks": 15700,
          "time": 182.5581395348837,
          "velocity": 0.3228346456692913
        },
        {
          "duration": 0.22093023255811772,
          "durationTicks": 19,
          "midi": 64,
          "name": "E4",
          "ticks": 15701,
          "time": 182.56976744186048,
          "velocity": 0.3228346456692913
        },
        {
          "duration": 0.023255813953483084,
          "durationTicks": 2,
          "midi": 47,
          "name": "B2",
          "ticks": 15702,
          "time": 182.58139534883722,
          "velocity": 0.28346456692913385
        },
        {
          "duration": 0.19767441860463464,
          "durationTicks": 17,
          "midi": 67,
          "name": "G4",
          "ticks": 15703,
          "time": 182.59302325581396,
          "velocity": 0.28346456692913385
        },
        {
          "duration": 0.023255813953483084,
          "durationTicks": 2,
          "midi": 47,
          "name": "B2",
          "ticks": 15705,
          "time": 182.61627906976744,
          "velocity": 0.25984251968503935
        },
        {
          "duration": 0.05813953488373613,
          "durationTicks": 5,
          "midi": 48,
          "name": "C3",
          "ticks": 15707,
          "time": 182.63953488372093,
          "velocity": 0.2283464566929134
        },
        {
          "duration": 0.05813953488373613,
          "durationTicks": 5,
          "midi": 59,
          "name": "B3",
          "ticks": 15708,
          "time": 182.65116279069767,
          "velocity": 0.25196850393700787
        },
        {
          "duration": 0.034883720930224626,
          "durationTicks": 3,
          "midi": 48,
          "name": "C3",
          "ticks": 15713,
          "time": 182.7093023255814,
          "velocity": 0.18110236220472442
        },
        {
          "duration": 0.05813953488370771,
          "durationTicks": 5,
          "midi": 59,
          "name": "B3",
          "ticks": 15714,
          "time": 182.72093023255815,
          "velocity": 0.25196850393700787
        },
        {
          "duration": 0.034883720930224626,
          "durationTicks": 3,
          "midi": 48,
          "name": "C3",
          "ticks": 15718,
          "time": 182.7674418604651,
          "velocity": 0.1968503937007874
        },
        {
          "duration": 0.22093023255814614,
          "durationTicks": 19,
          "midi": 60,
          "name": "C4",
          "ticks": 15720,
          "time": 182.7906976744186,
          "velocity": 0.3543307086614173
        },
        {
          "duration": 0.30232558139536536,
          "durationTicks": 26,
          "midi": 65,
          "name": "F4",
          "ticks": 15720,
          "time": 182.7906976744186,
          "velocity": 0.33858267716535434
        },
        {
          "duration": 0.24418604651162923,
          "durationTicks": 21,
          "midi": 84,
          "name": "C6",
          "ticks": 15720,
          "time": 182.7906976744186,
          "velocity": 0.16535433070866143
        },
        {
          "duration": 0.04651162790699459,
          "durationTicks": 4,
          "midi": 88,
          "name": "E6",
          "ticks": 15720,
          "time": 182.7906976744186,
          "velocity": 0.13385826771653545
        },
        {
          "duration": 0.04651162790699459,
          "durationTicks": 4,
          "midi": 91,
          "name": "G6",
          "ticks": 15720,
          "time": 182.7906976744186,
          "velocity": 0.09448818897637795
        },
        {
          "duration": 0.09302325581396076,
          "durationTicks": 8,
          "midi": 69,
          "name": "A4",
          "ticks": 15721,
          "time": 182.80232558139534,
          "velocity": 0.10236220472440945
        },
        {
          "duration": 0.4418604651162923,
          "durationTicks": 38,
          "midi": 77,
          "name": "F5",
          "ticks": 15721,
          "time": 182.80232558139534,
          "velocity": 0.4330708661417323
        },
        {
          "duration": 0.48837209302325846,
          "durationTicks": 42,
          "midi": 81,
          "name": "A5",
          "ticks": 15721,
          "time": 182.80232558139534,
          "velocity": 0.2677165354330709
        },
        {
          "duration": 0.034883720930224626,
          "durationTicks": 3,
          "midi": 48,
          "name": "C3",
          "ticks": 15722,
          "time": 182.8139534883721,
          "velocity": 0.09448818897637795
        },
        {
          "duration": 0.05813953488370771,
          "durationTicks": 5,
          "midi": 88,
          "name": "E6",
          "ticks": 15727,
          "time": 182.87209302325581,
          "velocity": 0.10236220472440945
        },
        {
          "duration": 0.15116279069766847,
          "durationTicks": 13,
          "midi": 88,
          "name": "E6",
          "ticks": 15736,
          "time": 182.97674418604652,
          "velocity": 0.11811023622047244
        },
        {
          "duration": 0.2906976744185954,
          "durationTicks": 25,
          "midi": 69,
          "name": "A4",
          "ticks": 15738,
          "time": 183,
          "velocity": 0.3464566929133858
        },
        {
          "duration": 1.023255813953483,
          "durationTicks": 88,
          "midi": 74,
          "name": "D5",
          "ticks": 15739,
          "time": 183.01162790697674,
          "velocity": 0.44881889763779526
        },
        {
          "duration": 0.22093023255814614,
          "durationTicks": 19,
          "midi": 60,
          "name": "C4",
          "ticks": 15740,
          "time": 183.02325581395348,
          "velocity": 0.3700787401574803
        },
        {
          "duration": 0.034883720930224626,
          "durationTicks": 3,
          "midi": 80,
          "name": "G#5",
          "ticks": 15740,
          "time": 183.02325581395348,
          "velocity": 0.07874015748031496
        },
        {
          "duration": 0.023255813953483084,
          "durationTicks": 2,
          "midi": 38,
          "name": "D2",
          "ticks": 15744,
          "time": 183.06976744186048,
          "velocity": 0.23622047244094488
        },
        {
          "duration": 0.034883720930224626,
          "durationTicks": 3,
          "midi": 38,
          "name": "D2",
          "ticks": 15747,
          "time": 183.1046511627907,
          "velocity": 0.29133858267716534
        },
        {
          "duration": 0.023255813953483084,
          "durationTicks": 2,
          "midi": 38,
          "name": "D2",
          "ticks": 15751,
          "time": 183.15116279069767,
          "velocity": 0.2755905511811024
        },
        {
          "duration": 0.05813953488373613,
          "durationTicks": 5,
          "midi": 88,
          "name": "E6",
          "ticks": 15752,
          "time": 183.1627906976744,
          "velocity": 0.11023622047244094
        },
        {
          "duration": 0.023255813953483084,
          "durationTicks": 2,
          "midi": 38,
          "name": "D2",
          "ticks": 15756,
          "time": 183.2093023255814,
          "velocity": 0.25196850393700787
        },
        {
          "duration": 0.25581395348837077,
          "durationTicks": 22,
          "midi": 72,
          "name": "C5",
          "ticks": 15758,
          "time": 183.2325581395349,
          "velocity": 0.4409448818897638
        },
        {
          "duration": 0.38372093023255616,
          "durationTicks": 33,
          "midi": 76,
          "name": "E5",
          "ticks": 15759,
          "time": 183.24418604651163,
          "velocity": 0.4251968503937008
        },
        {
          "duration": 0.05813953488370771,
          "durationTicks": 5,
          "midi": 85,
          "name": "C#6",
          "ticks": 15759,
          "time": 183.24418604651163,
          "velocity": 0.08661417322834646
        },
        {
          "duration": 0.19767441860466306,
          "durationTicks": 17,
          "midi": 53,
          "name": "F3",
          "ticks": 15760,
          "time": 183.25581395348837,
          "velocity": 0.25984251968503935
        },
        {
          "duration": 0.22093023255814614,
          "durationTicks": 19,
          "midi": 62,
          "name": "D4",
          "ticks": 15760,
          "time": 183.25581395348837,
          "velocity": 0.2992125984251969
        },
        {
          "duration": 0.19767441860466306,
          "durationTicks": 17,
          "midi": 67,
          "name": "G4",
          "ticks": 15760,
          "time": 183.25581395348837,
          "velocity": 0.3700787401574803
        },
        {
          "duration": 0.16279069767441,
          "durationTicks": 14,
          "midi": 87,
          "name": "D#6",
          "ticks": 15761,
          "time": 183.2674418604651,
          "velocity": 0.07086614173228346
        },
        {
          "duration": 0.03488372093025305,
          "durationTicks": 3,
          "midi": 57,
          "name": "A3",
          "ticks": 15764,
          "time": 183.30232558139534,
          "velocity": 0.18110236220472442
        },
        {
          "duration": 0.1046511627907023,
          "durationTicks": 9,
          "midi": 57,
          "name": "A3",
          "ticks": 15768,
          "time": 183.34883720930233,
          "velocity": 0.1732283464566929
        },
        {
          "duration": 0.023255813953483084,
          "durationTicks": 2,
          "midi": 65,
          "name": "F4",
          "ticks": 15778,
          "time": 183.46511627906978,
          "velocity": 0.33858267716535434
        },
        {
          "duration": 0.12790697674418539,
          "durationTicks": 11,
          "midi": 67,
          "name": "G4",
          "ticks": 15778,
          "time": 183.46511627906978,
          "velocity": 0.33858267716535434
        },
        {
          "duration": 0.27906976744185386,
          "durationTicks": 24,
          "midi": 81,
          "name": "A5",
          "ticks": 15778,
          "time": 183.46511627906978,
          "velocity": 0.23622047244094488
        },
        {
          "duration": 0.2674418604651123,
          "durationTicks": 23,
          "midi": 69,
          "name": "A4",
          "ticks": 15779,
          "time": 183.47674418604652,
          "velocity": 0.3464566929133858
        },
        {
          "duration": 0.04651162790696617,
          "durationTicks": 4,
          "midi": 83,
          "name": "B5",
          "ticks": 15779,
          "time": 183.47674418604652,
          "velocity": 0.18110236220472442
        },
        {
          "duration": 0.06976744186044925,
          "durationTicks": 6,
          "midi": 64,
          "name": "E4",
          "ticks": 15780,
          "time": 183.48837209302326,
          "velocity": 0.3228346456692913
        },
        {
          "duration": 0.05813953488370771,
          "durationTicks": 5,
          "midi": 59,
          "name": "B3",
          "ticks": 15781,
          "time": 183.5,
          "velocity": 0.2125984251968504
        },
        {
          "duration": 0.06976744186047767,
          "durationTicks": 6,
          "midi": 71,
          "name": "B4",
          "ticks": 15781,
          "time": 183.5,
          "velocity": 0.2204724409448819
        },
        {
          "duration": 0.17441860465117998,
          "durationTicks": 15,
          "midi": 40,
          "name": "E2",
          "ticks": 15785,
          "time": 183.54651162790697,
          "velocity": 0.2283464566929134
        },
        {
          "duration": 0.1046511627907023,
          "durationTicks": 9,
          "midi": 84,
          "name": "C6",
          "ticks": 15785,
          "time": 183.54651162790697,
          "velocity": 0.07874015748031496
        },
        {
          "duration": 0.03488372093025305,
          "durationTicks": 3,
          "midi": 55,
          "name": "G3",
          "ticks": 15786,
          "time": 183.5581395348837,
          "velocity": 0.18110236220472442
        },
        {
          "duration": 0.023255813953511506,
          "durationTicks": 2,
          "midi": 65,
          "name": "F4",
          "ticks": 15786,
          "time": 183.5581395348837,
          "velocity": 0.28346456692913385
        },
        {
          "duration": 0.04651162790696617,
          "durationTicks": 4,
          "midi": 87,
          "name": "D#6",
          "ticks": 15788,
          "time": 183.58139534883722,
          "velocity": 0.10236220472440945
        },
        {
          "duration": 0.1046511627907023,
          "durationTicks": 9,
          "midi": 59,
          "name": "B3",
          "ticks": 15789,
          "time": 183.59302325581396,
          "velocity": 0.16535433070866143
        },
        {
          "duration": 0.023255813953483084,
          "durationTicks": 2,
          "midi": 65,
          "name": "F4",
          "ticks": 15790,
          "time": 183.6046511627907,
          "velocity": 0.2992125984251969
        },
        {
          "duration": 0.034883720930224626,
          "durationTicks": 3,
          "midi": 67,
          "name": "G4",
          "ticks": 15790,
          "time": 183.6046511627907,
          "velocity": 0.25196850393700787
        },
        {
          "duration": 0.2906976744185954,
          "durationTicks": 25,
          "midi": 76,
          "name": "E5",
          "ticks": 15793,
          "time": 183.63953488372093,
          "velocity": 0.4094488188976378
        },
        {
          "duration": 0.06976744186047767,
          "durationTicks": 6,
          "midi": 65,
          "name": "F4",
          "ticks": 15794,
          "time": 183.65116279069767,
          "velocity": 0.28346456692913385
        },
        {
          "duration": 0.023255813953483084,
          "durationTicks": 2,
          "midi": 67,
          "name": "G4",
          "ticks": 15794,
          "time": 183.65116279069767,
          "velocity": 0.23622047244094488
        },
        {
          "duration": 0.04651162790699459,
          "durationTicks": 4,
          "midi": 47,
          "name": "B2",
          "ticks": 15795,
          "time": 183.6627906976744,
          "velocity": 0.14173228346456693
        },
        {
          "duration": 0.23255813953485927,
          "durationTicks": 20,
          "midi": 60,
          "name": "C4",
          "ticks": 15798,
          "time": 183.69767441860466,
          "velocity": 0.3700787401574803
        },
        {
          "duration": 0.20930232558137618,
          "durationTicks": 18,
          "midi": 72,
          "name": "C5",
          "ticks": 15798,
          "time": 183.69767441860466,
          "velocity": 0.4094488188976378
        },
        {
          "duration": 0.6860465116278931,
          "durationTicks": 59,
          "midi": 67,
          "name": "G4",
          "ticks": 15799,
          "time": 183.7093023255814,
          "velocity": 0.4566929133858268
        },
        {
          "duration": 0.05813953488373613,
          "durationTicks": 5,
          "midi": 40,
          "name": "E2",
          "ticks": 15803,
          "time": 183.75581395348837,
          "velocity": 0.13385826771653545
        },
        {
          "duration": 0.09302325581396076,
          "durationTicks": 8,
          "midi": 77,
          "name": "F5",
          "ticks": 15817,
          "time": 183.91860465116278,
          "velocity": 0.41732283464566927
        },
        {
          "duration": 0.03488372093025305,
          "durationTicks": 3,
          "midi": 83,
          "name": "B5",
          "ticks": 15818,
          "time": 183.93023255813952,
          "velocity": 0.14173228346456693
        },
        {
          "duration": 0.05813953488373613,
          "durationTicks": 5,
          "midi": 90,
          "name": "F#6",
          "ticks": 15818,
          "time": 183.93023255813952,
          "velocity": 0.12598425196850394
        },
        {
          "duration": 0.05813953488370771,
          "durationTicks": 5,
          "midi": 62,
          "name": "D4",
          "ticks": 15819,
          "time": 183.9418604651163,
          "velocity": 0.2992125984251969
        },
        {
          "duration": 0.12790697674418539,
          "durationTicks": 11,
          "midi": 81,
          "name": "A5",
          "ticks": 15819,
          "time": 183.9418604651163,
          "velocity": 0.11811023622047244
        },
        {
          "duration": 0.40697674418603924,
          "durationTicks": 35,
          "midi": 72,
          "name": "C5",
          "ticks": 15821,
          "time": 183.96511627906978,
          "velocity": 0.4251968503937008
        },
        {
          "duration": 0.06976744186044925,
          "durationTicks": 6,
          "midi": 43,
          "name": "G2",
          "ticks": 15822,
          "time": 183.97674418604652,
          "velocity": 0.15748031496062992
        },
        {
          "duration": 0.023255813953483084,
          "durationTicks": 2,
          "midi": 76,
          "name": "E5",
          "ticks": 15822,
          "time": 183.97674418604652,
          "velocity": 0.2755905511811024
        },
        {
          "duration": 0.16279069767441,
          "durationTicks": 14,
          "midi": 83,
          "name": "B5",
          "ticks": 15823,
          "time": 183.98837209302326,
          "velocity": 0.25196850393700787
        },
        {
          "duration": 0.06976744186047767,
          "durationTicks": 6,
          "midi": 64,
          "name": "E4",
          "ticks": 15824,
          "time": 184,
          "velocity": 0.3228346456692913
        },
        {
          "duration": 0.15116279069766847,
          "durationTicks": 13,
          "midi": 85,
          "name": "C#6",
          "ticks": 15824,
          "time": 184,
          "velocity": 0.10236220472440945
        },
        {
          "duration": 0.16279069767441,
          "durationTicks": 14,
          "midi": 76,
          "name": "E5",
          "ticks": 15825,
          "time": 184.01162790697674,
          "velocity": 0.4015748031496063
        },
        {
          "duration": 0.034883720930224626,
          "durationTicks": 3,
          "midi": 50,
          "name": "D3",
          "ticks": 15826,
          "time": 184.02325581395348,
          "velocity": 0.14960629921259844
        },
        {
          "duration": 0.05813953488373613,
          "durationTicks": 5,
          "midi": 90,
          "name": "F#6",
          "ticks": 15826,
          "time": 184.02325581395348,
          "velocity": 0.11023622047244094
        },
        {
          "duration": 0.08139534883721922,
          "durationTicks": 7,
          "midi": 74,
          "name": "D5",
          "ticks": 15829,
          "time": 184.0581395348837,
          "velocity": 0.07874015748031496
        },
        {
          "duration": 0.034883720930224626,
          "durationTicks": 3,
          "midi": 50,
          "name": "D3",
          "ticks": 15830,
          "time": 184.06976744186048,
          "velocity": 0.08661417322834646
        },
        {
          "duration": 0.2906976744185954,
          "durationTicks": 25,
          "midi": 43,
          "name": "G2",
          "ticks": 15831,
          "time": 184.08139534883722,
          "velocity": 0.25196850393700787
        },
        {
          "duration": 0.034883720930224626,
          "durationTicks": 3,
          "midi": 62,
          "name": "D4",
          "ticks": 15831,
          "time": 184.08139534883722,
          "velocity": 0.18110236220472442
        },
        {
          "duration": 0.05813953488370771,
          "durationTicks": 5,
          "midi": 64,
          "name": "E4",
          "ticks": 15833,
          "time": 184.1046511627907,
          "velocity": 0.29133858267716534
        },
        {
          "duration": 0.034883720930224626,
          "durationTicks": 3,
          "midi": 81,
          "name": "A5",
          "ticks": 15834,
          "time": 184.11627906976744,
          "velocity": 0.08661417322834646
        },
        {
          "duration": 0.30232558139536536,
          "durationTicks": 26,
          "midi": 82,
          "name": "A#5",
          "ticks": 15836,
          "time": 184.13953488372093,
          "velocity": 0.41732283464566927
        },
        {
          "duration": 0.25581395348837077,
          "durationTicks": 22,
          "midi": 86,
          "name": "D6",
          "ticks": 15836,
          "time": 184.13953488372093,
          "velocity": 0.33858267716535434
        },
        {
          "duration": 0.22093023255814614,
          "durationTicks": 19,
          "midi": 62,
          "name": "D4",
          "ticks": 15838,
          "time": 184.1627906976744,
          "velocity": 0.33858267716535434
        },
        {
          "duration": 1.5813953488372192,
          "durationTicks": 136,
          "midi": 74,
          "name": "D5",
          "ticks": 15838,
          "time": 184.1627906976744,
          "velocity": 0.44881889763779526
        },
        {
          "duration": 1.139534883720927,
          "durationTicks": 98,
          "midi": 77,
          "name": "F5",
          "ticks": 15838,
          "time": 184.1627906976744,
          "velocity": 0.4330708661417323
        },
        {
          "duration": 0.06976744186047767,
          "durationTicks": 6,
          "midi": 58,
          "name": "A#3",
          "ticks": 15840,
          "time": 184.1860465116279,
          "velocity": 0.1889763779527559
        },
        {
          "duration": 0.06976744186047767,
          "durationTicks": 6,
          "midi": 58,
          "name": "A#3",
          "ticks": 15847,
          "time": 184.2674418604651,
          "velocity": 0.1968503937007874
        },
        {
          "duration": 0.5465116279069662,
          "durationTicks": 47,
          "midi": 70,
          "name": "A#4",
          "ticks": 15852,
          "time": 184.32558139534885,
          "velocity": 0.4251968503937008
        },
        {
          "duration": 0.04651162790696617,
          "durationTicks": 4,
          "midi": 83,
          "name": "B5",
          "ticks": 15853,
          "time": 184.3372093023256,
          "velocity": 0.14173228346456693
        },
        {
          "duration": 0.034883720930224626,
          "durationTicks": 3,
          "midi": 58,
          "name": "A#3",
          "ticks": 15854,
          "time": 184.34883720930233,
          "velocity": 0.1968503937007874
        },
        {
          "duration": 0.38372093023255616,
          "durationTicks": 33,
          "midi": 84,
          "name": "C6",
          "ticks": 15856,
          "time": 184.37209302325581,
          "velocity": 0.2755905511811024
        },
        {
          "duration": 0.2674418604651123,
          "durationTicks": 23,
          "midi": 65,
          "name": "F4",
          "ticks": 15857,
          "time": 184.38372093023256,
          "velocity": 0.4251968503937008
        },
        {
          "duration": 0.2093023255814046,
          "durationTicks": 18,
          "midi": 53,
          "name": "F3",
          "ticks": 15858,
          "time": 184.3953488372093,
          "velocity": 0.29133858267716534
        },
        {
          "duration": 0.22093023255814614,
          "durationTicks": 19,
          "midi": 60,
          "name": "C4",
          "ticks": 15858,
          "time": 184.3953488372093,
          "velocity": 0.36220472440944884
        },
        {
          "duration": 0.06976744186047767,
          "durationTicks": 6,
          "midi": 87,
          "name": "D#6",
          "ticks": 15858,
          "time": 184.3953488372093,
          "velocity": 0.14173228346456693
        },
        {
          "duration": 0.05813953488373613,
          "durationTicks": 5,
          "midi": 88,
          "name": "E6",
          "ticks": 15858,
          "time": 184.3953488372093,
          "velocity": 0.14960629921259844
        },
        {
          "duration": 0.16279069767441,
          "durationTicks": 14,
          "midi": 81,
          "name": "A5",
          "ticks": 15862,
          "time": 184.4418604651163,
          "velocity": 0.14173228346456693
        },
        {
          "duration": 0.09302325581393234,
          "durationTicks": 8,
          "midi": 83,
          "name": "B5",
          "ticks": 15862,
          "time": 184.4418604651163,
          "velocity": 0.14173228346456693
        },
        {
          "duration": 0.13953488372092693,
          "durationTicks": 12,
          "midi": 41,
          "name": "F2",
          "ticks": 15864,
          "time": 184.46511627906978,
          "velocity": 0.12598425196850394
        },
        {
          "duration": 0.034883720930224626,
          "durationTicks": 3,
          "midi": 88,
          "name": "E6",
          "ticks": 15866,
          "time": 184.48837209302326,
          "velocity": 0.09448818897637795
        },
        {
          "duration": 0.06976744186047767,
          "durationTicks": 6,
          "midi": 87,
          "name": "D#6",
          "ticks": 15867,
          "time": 184.5,
          "velocity": 0.11811023622047244
        },
        {
          "duration": 0.034883720930224626,
          "durationTicks": 3,
          "midi": 88,
          "name": "E6",
          "ticks": 15873,
          "time": 184.56976744186048,
          "velocity": 0.09448818897637795
        },
        {
          "duration": 0.034883720930224626,
          "durationTicks": 3,
          "midi": 44,
          "name": "G#2",
          "ticks": 15877,
          "time": 184.61627906976744,
          "velocity": 0.2283464566929134
        },
        {
          "duration": 0.3604651162790731,
          "durationTicks": 31,
          "midi": 79,
          "name": "G5",
          "ticks": 15877,
          "time": 184.61627906976744,
          "velocity": 0.15748031496062992
        },
        {
          "duration": 0.22093023255814614,
          "durationTicks": 19,
          "midi": 83,
          "name": "B5",
          "ticks": 15877,
          "time": 184.61627906976744,
          "velocity": 0.15748031496062992
        },
        {
          "duration": 0.19767441860466306,
          "durationTicks": 17,
          "midi": 62,
          "name": "D4",
          "ticks": 15879,
          "time": 184.63953488372093,
          "velocity": 0.31496062992125984
        },
        {
          "duration": 0.08139534883721922,
          "durationTicks": 7,
          "midi": 67,
          "name": "G4",
          "ticks": 15879,
          "time": 184.63953488372093,
          "velocity": 0.3543307086614173
        },
        {
          "duration": 0.023255813953483084,
          "durationTicks": 2,
          "midi": 42,
          "name": "F#2",
          "ticks": 15880,
          "time": 184.65116279069767,
          "velocity": 0.23622047244094488
        },
        {
          "duration": 0.023255813953483084,
          "durationTicks": 2,
          "midi": 58,
          "name": "A#3",
          "ticks": 15881,
          "time": 184.6627906976744,
          "velocity": 0.2283464566929134
        },
        {
          "duration": 0.03488372093025305,
          "durationTicks": 3,
          "midi": 65,
          "name": "F4",
          "ticks": 15881,
          "time": 184.6627906976744,
          "velocity": 0.2992125984251969
        },
        {
          "duration": 0.16279069767443843,
          "durationTicks": 14,
          "midi": 43,
          "name": "G2",
          "ticks": 15882,
          "time": 184.67441860465115,
          "velocity": 0.1889763779527559
        },
        {
          "duration": 0.2325581395348877,
          "durationTicks": 20,
          "midi": 65,
          "name": "F4",
          "ticks": 15885,
          "time": 184.7093023255814,
          "velocity": 0.25984251968503935
        },
        {
          "duration": 0.023255813953483084,
          "durationTicks": 2,
          "midi": 57,
          "name": "A3",
          "ticks": 15888,
          "time": 184.74418604651163,
          "velocity": 0.25984251968503935
        },
        {
          "duration": 0.08139534883721922,
          "durationTicks": 7,
          "midi": 81,
          "name": "A5",
          "ticks": 15889,
          "time": 184.75581395348837,
          "velocity": 0.13385826771653545
        },
        {
          "duration": 0.023255813953511506,
          "durationTicks": 2,
          "midi": 58,
          "name": "A#3",
          "ticks": 15893,
          "time": 184.80232558139534,
          "velocity": 0.25196850393700787
        },
        {
          "duration": 0.023255813953483084,
          "durationTicks": 2,
          "midi": 42,
          "name": "F#2",
          "ticks": 15896,
          "time": 184.8372093023256,
          "velocity": 0.25984251968503935
        },
        {
          "duration": 0.2325581395348877,
          "durationTicks": 20,
          "midi": 60,
          "name": "C4",
          "ticks": 15896,
          "time": 184.8372093023256,
          "velocity": 0.3543307086614173
        },
        {
          "duration": 0.22093023255811772,
          "durationTicks": 19,
          "midi": 88,
          "name": "E6",
          "ticks": 15896,
          "time": 184.8372093023256,
          "velocity": 0.11023622047244094
        },
        {
          "duration": 0.04651162790696617,
          "durationTicks": 4,
          "midi": 83,
          "name": "B5",
          "ticks": 15897,
          "time": 184.84883720930233,
          "velocity": 0.1889763779527559
        },
        {
          "duration": 0.2093023255814046,
          "durationTicks": 18,
          "midi": 43,
          "name": "G2",
          "ticks": 15898,
          "time": 184.86046511627907,
          "velocity": 0.3228346456692913
        },
        {
          "duration": 0.04651162790699459,
          "durationTicks": 4,
          "midi": 83,
          "name": "B5",
          "ticks": 15903,
          "time": 184.91860465116278,
          "velocity": 0.1732283464566929
        },
        {
          "duration": 0.04651162790696617,
          "durationTicks": 4,
          "midi": 50,
          "name": "D3",
          "ticks": 15909,
          "time": 184.98837209302326,
          "velocity": 0.07874015748031496
        },
        {
          "duration": 0.04651162790696617,
          "durationTicks": 4,
          "midi": 83,
          "name": "B5",
          "ticks": 15909,
          "time": 184.98837209302326,
          "velocity": 0.15748031496062992
        },
        {
          "duration": 0.04651162790696617,
          "durationTicks": 4,
          "midi": 65,
          "name": "F4",
          "ticks": 15910,
          "time": 185,
          "velocity": 0.09448818897637795
        },
        {
          "duration": 0.11627906976744384,
          "durationTicks": 10,
          "midi": 81,
          "name": "A5",
          "ticks": 15915,
          "time": 185.0581395348837,
          "velocity": 0.18110236220472442
        },
        {
          "duration": 0.04651162790699459,
          "durationTicks": 4,
          "midi": 83,
          "name": "B5",
          "ticks": 15915,
          "time": 185.0581395348837,
          "velocity": 0.14960629921259844
        },
        {
          "duration": 0.22093023255811772,
          "durationTicks": 19,
          "midi": 62,
          "name": "D4",
          "ticks": 15916,
          "time": 185.06976744186048,
          "velocity": 0.33070866141732286
        },
        {
          "duration": 0.23255813953485927,
          "durationTicks": 20,
          "midi": 69,
          "name": "A4",
          "ticks": 15916,
          "time": 185.06976744186048,
          "velocity": 0.2047244094488189
        },
        {
          "duration": 0.2325581395348877,
          "durationTicks": 20,
          "midi": 65,
          "name": "F4",
          "ticks": 15917,
          "time": 185.08139534883722,
          "velocity": 0.41732283464566927
        },
        {
          "duration": 0.04651162790696617,
          "durationTicks": 4,
          "midi": 72,
          "name": "C5",
          "ticks": 15917,
          "time": 185.08139534883722,
          "velocity": 0.18110236220472442
        },
        {
          "duration": 0.40697674418603924,
          "durationTicks": 35,
          "midi": 87,
          "name": "D#6",
          "ticks": 15917,
          "time": 185.08139534883722,
          "velocity": 0.1889763779527559
        },
        {
          "duration": 0.30232558139533694,
          "durationTicks": 26,
          "midi": 88,
          "name": "E6",
          "ticks": 15917,
          "time": 185.08139534883722,
          "velocity": 0.16535433070866143
        },
        {
          "duration": 0.04651162790696617,
          "durationTicks": 4,
          "midi": 91,
          "name": "G6",
          "ticks": 15917,
          "time": 185.08139534883722,
          "velocity": 0.07874015748031496
        },
        {
          "duration": 0.0813953488371908,
          "durationTicks": 7,
          "midi": 53,
          "name": "F3",
          "ticks": 15919,
          "time": 185.1046511627907,
          "velocity": 0.29133858267716534
        },
        {
          "duration": 0.1046511627907023,
          "durationTicks": 9,
          "midi": 72,
          "name": "C5",
          "ticks": 15923,
          "time": 185.15116279069767,
          "velocity": 0.15748031496062992
        },
        {
          "duration": 0.04651162790696617,
          "durationTicks": 4,
          "midi": 38,
          "name": "D2",
          "ticks": 15930,
          "time": 185.2325581395349,
          "velocity": 0.14173228346456693
        },
        {
          "duration": 0.023255813953483084,
          "durationTicks": 2,
          "midi": 50,
          "name": "D3",
          "ticks": 15930,
          "time": 185.2325581395349,
          "velocity": 0.2283464566929134
        },
        {
          "duration": 0.2674418604651123,
          "durationTicks": 23,
          "midi": 76,
          "name": "E5",
          "ticks": 15935,
          "time": 185.2906976744186,
          "velocity": 0.2283464566929134
        },
        {
          "duration": 0.45348837209303383,
          "durationTicks": 39,
          "midi": 83,
          "name": "B5",
          "ticks": 15935,
          "time": 185.2906976744186,
          "velocity": 0.18110236220472442
        },
        {
          "duration": 0.1046511627907023,
          "durationTicks": 9,
          "midi": 84,
          "name": "C6",
          "ticks": 15935,
          "time": 185.2906976744186,
          "velocity": 0.08661417322834646
        },
        {
          "duration": 0.2093023255814046,
          "durationTicks": 18,
          "midi": 59,
          "name": "B3",
          "ticks": 15936,
          "time": 185.30232558139534,
          "velocity": 0.29133858267716534
        },
        {
          "duration": 0.08139534883721922,
          "durationTicks": 7,
          "midi": 72,
          "name": "C5",
          "ticks": 15936,
          "time": 185.30232558139534,
          "velocity": 0.2992125984251969
        },
        {
          "duration": 0.06976744186047767,
          "durationTicks": 6,
          "midi": 91,
          "name": "G6",
          "ticks": 15936,
          "time": 185.30232558139534,
          "velocity": 0.10236220472440945
        },
        {
          "duration": 0.034883720930224626,
          "durationTicks": 3,
          "midi": 40,
          "name": "E2",
          "ticks": 15937,
          "time": 185.3139534883721,
          "velocity": 0.13385826771653545
        },
        {
          "duration": 0.023255813953483084,
          "durationTicks": 2,
          "midi": 54,
          "name": "F#3",
          "ticks": 15937,
          "time": 185.3139534883721,
          "velocity": 0.25196850393700787
        },
        {
          "duration": 0.023255813953483084,
          "durationTicks": 2,
          "midi": 65,
          "name": "F4",
          "ticks": 15938,
          "time": 185.32558139534885,
          "velocity": 0.3858267716535433
        },
        {
          "duration": 0.023255813953483084,
          "durationTicks": 2,
          "midi": 64,
          "name": "E4",
          "ticks": 15939,
          "time": 185.3372093023256,
          "velocity": 0.25196850393700787
        },
        {
          "duration": 0.16279069767441,
          "durationTicks": 14,
          "midi": 53,
          "name": "F3",
          "ticks": 15941,
          "time": 185.36046511627907,
          "velocity": 0.29133858267716534
        },
        {
          "duration": 0.1860465116278931,
          "durationTicks": 16,
          "midi": 65,
          "name": "F4",
          "ticks": 15941,
          "time": 185.36046511627907,
          "velocity": 0.36220472440944884
        },
        {
          "duration": 0.12790697674418539,
          "durationTicks": 11,
          "midi": 41,
          "name": "F2",
          "ticks": 15943,
          "time": 185.38372093023256,
          "velocity": 0.13385826771653545
        },
        {
          "duration": 0.04651162790699459,
          "durationTicks": 4,
          "midi": 44,
          "name": "G#2",
          "ticks": 15955,
          "time": 185.52325581395348,
          "velocity": 0.23622047244094488
        },
        {
          "duration": 0.04651162790699459,
          "durationTicks": 4,
          "midi": 87,
          "name": "D#6",
          "ticks": 15955,
          "time": 185.52325581395348,
          "velocity": 0.07874015748031496
        },
        {
          "duration": 0.2325581395348877,
          "durationTicks": 20,
          "midi": 60,
          "name": "C4",
          "ticks": 15956,
          "time": 185.53488372093022,
          "velocity": 0.36220472440944884
        },
        {
          "duration": 0.2325581395348877,
          "durationTicks": 20,
          "midi": 67,
          "name": "G4",
          "ticks": 15956,
          "time": 185.53488372093022,
          "velocity": 0.28346456692913385
        },
        {
          "duration": 0.34883720930233153,
          "durationTicks": 30,
          "midi": 84,
          "name": "C6",
          "ticks": 15956,
          "time": 185.53488372093022,
          "velocity": 0.14173228346456693
        },
        {
          "duration": 0.09302325581396076,
          "durationTicks": 8,
          "midi": 55,
          "name": "G3",
          "ticks": 15957,
          "time": 185.54651162790697,
          "velocity": 0.2204724409448819
        },
        {
          "duration": 0.13953488372095535,
          "durationTicks": 12,
          "midi": 88,
          "name": "E6",
          "ticks": 15958,
          "time": 185.5581395348837,
          "velocity": 0.07086614173228346
        },
        {
          "duration": 0.09302325581393234,
          "durationTicks": 8,
          "midi": 43,
          "name": "G2",
          "ticks": 15960,
          "time": 185.58139534883722,
          "velocity": 0.2047244094488189
        },
        {
          "duration": 0.04651162790696617,
          "durationTicks": 4,
          "midi": 43,
          "name": "G2",
          "ticks": 15970,
          "time": 185.69767441860466,
          "velocity": 0.14960629921259844
        },
        {
          "duration": 0.034883720930224626,
          "durationTicks": 3,
          "midi": 65,
          "name": "F4",
          "ticks": 15974,
          "time": 185.74418604651163,
          "velocity": 0.29133858267716534
        },
        {
          "duration": 0.09302325581396076,
          "durationTicks": 8,
          "midi": 70,
          "name": "A#4",
          "ticks": 15974,
          "time": 185.74418604651163,
          "velocity": 0.4645669291338583
        },
        {
          "duration": 0.5930232558139608,
          "durationTicks": 51,
          "midi": 77,
          "name": "F5",
          "ticks": 15974,
          "time": 185.74418604651163,
          "velocity": 0.4566929133858268
        },
        {
          "duration": 0.8953488372092977,
          "durationTicks": 77,
          "midi": 74,
          "name": "D5",
          "ticks": 15975,
          "time": 185.75581395348837,
          "velocity": 0.4566929133858268
        },
        {
          "duration": 0.15116279069766847,
          "durationTicks": 13,
          "midi": 93,
          "name": "A6",
          "ticks": 15975,
          "time": 185.75581395348837,
          "velocity": 0.16535433070866143
        },
        {
          "duration": 0.18604651162792152,
          "durationTicks": 16,
          "midi": 58,
          "name": "A#3",
          "ticks": 15977,
          "time": 185.77906976744185,
          "velocity": 0.2283464566929134
        },
        {
          "duration": 0.24418604651162923,
          "durationTicks": 21,
          "midi": 67,
          "name": "G4",
          "ticks": 15977,
          "time": 185.77906976744185,
          "velocity": 0.3858267716535433
        },
        {
          "duration": 0.17441860465117998,
          "durationTicks": 15,
          "midi": 62,
          "name": "D4",
          "ticks": 15979,
          "time": 185.80232558139534,
          "velocity": 0.28346456692913385
        },
        {
          "duration": 0.023255813953483084,
          "durationTicks": 2,
          "midi": 70,
          "name": "A#4",
          "ticks": 15983,
          "time": 185.84883720930233,
          "velocity": 0.4251968503937008
        },
        {
          "duration": 0.1046511627907023,
          "durationTicks": 9,
          "midi": 69,
          "name": "A4",
          "ticks": 15986,
          "time": 185.88372093023256,
          "velocity": 0.41732283464566927
        },
        {
          "duration": 0.04651162790699459,
          "durationTicks": 4,
          "midi": 84,
          "name": "C6",
          "ticks": 15988,
          "time": 185.90697674418604,
          "velocity": 0.11811023622047244
        },
        {
          "duration": 0.15116279069766847,
          "durationTicks": 13,
          "midi": 72,
          "name": "C5",
          "ticks": 15993,
          "time": 185.96511627906978,
          "velocity": 0.29133858267716534
        },
        {
          "duration": 0.034883720930224626,
          "durationTicks": 3,
          "midi": 53,
          "name": "F3",
          "ticks": 15994,
          "time": 185.97674418604652,
          "velocity": 0.07086614173228346
        },
        {
          "duration": 0.1860465116278931,
          "durationTicks": 16,
          "midi": 60,
          "name": "C4",
          "ticks": 15994,
          "time": 185.97674418604652,
          "velocity": 0.3700787401574803
        },
        {
          "duration": 0.2325581395348877,
          "durationTicks": 20,
          "midi": 69,
          "name": "A4",
          "ticks": 15996,
          "time": 186,
          "velocity": 0.3937007874015748
        },
        {
          "duration": 0.04651162790699459,
          "durationTicks": 4,
          "midi": 67,
          "name": "G4",
          "ticks": 16001,
          "time": 186.0581395348837,
          "velocity": 0.2125984251968504
        },
        {
          "duration": 0.05813953488370771,
          "durationTicks": 5,
          "midi": 88,
          "name": "E6",
          "ticks": 16002,
          "time": 186.06976744186048,
          "velocity": 0.07086614173228346
        },
        {
          "duration": 0.034883720930224626,
          "durationTicks": 3,
          "midi": 65,
          "name": "F4",
          "ticks": 16006,
          "time": 186.11627906976744,
          "velocity": 0.1732283464566929
        },
        {
          "duration": 0.08139534883721922,
          "durationTicks": 7,
          "midi": 65,
          "name": "F4",
          "ticks": 16010,
          "time": 186.1627906976744,
          "velocity": 0.1968503937007874
        },
        {
          "duration": 0.03488372093025305,
          "durationTicks": 3,
          "midi": 57,
          "name": "A3",
          "ticks": 16011,
          "time": 186.17441860465115,
          "velocity": 0.2047244094488189
        },
        {
          "duration": 0.034883720930224626,
          "durationTicks": 3,
          "midi": 58,
          "name": "A#3",
          "ticks": 16014,
          "time": 186.2093023255814,
          "velocity": 0.25984251968503935
        },
        {
          "duration": 0.2325581395348877,
          "durationTicks": 20,
          "midi": 67,
          "name": "G4",
          "ticks": 16014,
          "time": 186.2093023255814,
          "velocity": 0.30708661417322836
        },
        {
          "duration": 0.1046511627907023,
          "durationTicks": 9,
          "midi": 85,
          "name": "C#6",
          "ticks": 16014,
          "time": 186.2093023255814,
          "velocity": 0.09448818897637795
        },
        {
          "duration": 0.034883720930224626,
          "durationTicks": 3,
          "midi": 47,
          "name": "B2",
          "ticks": 16015,
          "time": 186.22093023255815,
          "velocity": 0.13385826771653545
        },
        {
          "duration": 0.27906976744185386,
          "durationTicks": 24,
          "midi": 62,
          "name": "D4",
          "ticks": 16016,
          "time": 186.2325581395349,
          "velocity": 0.29133858267716534
        },
        {
          "duration": 0.11627906976744384,
          "durationTicks": 10,
          "midi": 83,
          "name": "B5",
          "ticks": 16016,
          "time": 186.2325581395349,
          "velocity": 0.10236220472440945
        },
        {
          "duration": 0.034883720930224626,
          "durationTicks": 3,
          "midi": 46,
          "name": "A#2",
          "ticks": 16018,
          "time": 186.25581395348837,
          "velocity": 0.11811023622047244
        },
        {
          "duration": 0.023255813953483084,
          "durationTicks": 2,
          "midi": 58,
          "name": "A#3",
          "ticks": 16019,
          "time": 186.2674418604651,
          "velocity": 0.28346456692913385
        },
        {
          "duration": 0.034883720930224626,
          "durationTicks": 3,
          "midi": 45,
          "name": "A2",
          "ticks": 16025,
          "time": 186.3372093023256,
          "velocity": 0.12598425196850394
        },
        {
          "duration": 0.023255813953483084,
          "durationTicks": 2,
          "midi": 57,
          "name": "A3",
          "ticks": 16025,
          "time": 186.3372093023256,
          "velocity": 0.2755905511811024
        },
        {
          "duration": 0.04651162790699459,
          "durationTicks": 4,
          "midi": 46,
          "name": "A#2",
          "ticks": 16031,
          "time": 186.40697674418604,
          "velocity": 0.11023622047244094
        },
        {
          "duration": 0.023255813953483084,
          "durationTicks": 2,
          "midi": 58,
          "name": "A#3",
          "ticks": 16031,
          "time": 186.40697674418604,
          "velocity": 0.2440944881889764
        },
        {
          "duration": 0.034883720930224626,
          "durationTicks": 3,
          "midi": 69,
          "name": "A4",
          "ticks": 16034,
          "time": 186.4418604651163,
          "velocity": 0.14173228346456693
        },
        {
          "duration": 0.17441860465115155,
          "durationTicks": 15,
          "midi": 83,
          "name": "B5",
          "ticks": 16034,
          "time": 186.4418604651163,
          "velocity": 0.13385826771653545
        },
        {
          "duration": 0.11627906976741542,
          "durationTicks": 10,
          "midi": 89,
          "name": "F6",
          "ticks": 16034,
          "time": 186.4418604651163,
          "velocity": 0.11811023622047244
        },
        {
          "duration": 0.0813953488371908,
          "durationTicks": 7,
          "midi": 67,
          "name": "G4",
          "ticks": 16036,
          "time": 186.46511627906978,
          "velocity": 0.18110236220472442
        },
        {
          "duration": 0.1511627906976969,
          "durationTicks": 13,
          "midi": 53,
          "name": "F3",
          "ticks": 16043,
          "time": 186.54651162790697,
          "velocity": 0.2755905511811024
        },
        {
          "duration": 0.11627906976744384,
          "durationTicks": 10,
          "midi": 65,
          "name": "F4",
          "ticks": 16043,
          "time": 186.54651162790697,
          "velocity": 0.2992125984251969
        },
        {
          "duration": 0.67441860465118,
          "durationTicks": 58,
          "midi": 77,
          "name": "F5",
          "ticks": 16043,
          "time": 186.54651162790697,
          "velocity": 0.47244094488188976
        },
        {
          "duration": 0.11627906976744384,
          "durationTicks": 10,
          "midi": 87,
          "name": "D#6",
          "ticks": 16044,
          "time": 186.5581395348837,
          "velocity": 0.11023622047244094
        },
        {
          "duration": 0.4767441860465169,
          "durationTicks": 41,
          "midi": 69,
          "name": "A4",
          "ticks": 16052,
          "time": 186.65116279069767,
          "velocity": 0.31496062992125984
        },
        {
          "duration": 0.4418604651162923,
          "durationTicks": 38,
          "midi": 79,
          "name": "G5",
          "ticks": 16052,
          "time": 186.65116279069767,
          "velocity": 0.4015748031496063
        },
        {
          "duration": 0.034883720930224626,
          "durationTicks": 3,
          "midi": 83,
          "name": "B5",
          "ticks": 16052,
          "time": 186.65116279069767,
          "velocity": 0.13385826771653545
        },
        {
          "duration": 0.3604651162790731,
          "durationTicks": 31,
          "midi": 85,
          "name": "C#6",
          "ticks": 16052,
          "time": 186.65116279069767,
          "velocity": 0.33070866141732286
        },
        {
          "duration": 0.4651162790697754,
          "durationTicks": 40,
          "midi": 73,
          "name": "C#5",
          "ticks": 16053,
          "time": 186.6627906976744,
          "velocity": 0.4645669291338583
        },
        {
          "duration": 0.1046511627907023,
          "durationTicks": 9,
          "midi": 88,
          "name": "E6",
          "ticks": 16053,
          "time": 186.6627906976744,
          "velocity": 0.11811023622047244
        },
        {
          "duration": 0.04651162790699459,
          "durationTicks": 4,
          "midi": 62,
          "name": "D4",
          "ticks": 16054,
          "time": 186.67441860465115,
          "velocity": 0.28346456692913385
        },
        {
          "duration": 0.7558139534883708,
          "durationTicks": 65,
          "midi": 65,
          "name": "F4",
          "ticks": 16054,
          "time": 186.67441860465115,
          "velocity": 0.3858267716535433
        },
        {
          "duration": 0.03488372093025305,
          "durationTicks": 3,
          "midi": 92,
          "name": "G#6",
          "ticks": 16054,
          "time": 186.67441860465115,
          "velocity": 0.10236220472440945
        },
        {
          "duration": 0.26744186046514073,
          "durationTicks": 23,
          "midi": 84,
          "name": "C6",
          "ticks": 16055,
          "time": 186.6860465116279,
          "velocity": 0.18110236220472442
        },
        {
          "duration": 0.03488372093025305,
          "durationTicks": 3,
          "midi": 87,
          "name": "D#6",
          "ticks": 16055,
          "time": 186.6860465116279,
          "velocity": 0.11023622047244094
        },
        {
          "duration": 0.04651162790696617,
          "durationTicks": 4,
          "midi": 83,
          "name": "B5",
          "ticks": 16057,
          "time": 186.7093023255814,
          "velocity": 0.1732283464566929
        },
        {
          "duration": 0.3953488372092977,
          "durationTicks": 34,
          "midi": 57,
          "name": "A3",
          "ticks": 16058,
          "time": 186.72093023255815,
          "velocity": 0.1968503937007874
        },
        {
          "duration": 0.04651162790696617,
          "durationTicks": 4,
          "midi": 71,
          "name": "B4",
          "ticks": 16058,
          "time": 186.72093023255815,
          "velocity": 0.18110236220472442
        },
        {
          "duration": 0.023255813953483084,
          "durationTicks": 2,
          "midi": 62,
          "name": "D4",
          "ticks": 16059,
          "time": 186.7325581395349,
          "velocity": 0.31496062992125984
        },
        {
          "duration": 0.034883720930224626,
          "durationTicks": 3,
          "midi": 51,
          "name": "D#3",
          "ticks": 16060,
          "time": 186.74418604651163,
          "velocity": 0.13385826771653545
        },
        {
          "duration": 0.04651162790699459,
          "durationTicks": 4,
          "midi": 62,
          "name": "D4",
          "ticks": 16062,
          "time": 186.7674418604651,
          "velocity": 0.2755905511811024
        },
        {
          "duration": 0.06976744186047767,
          "durationTicks": 6,
          "midi": 82,
          "name": "A#5",
          "ticks": 16062,
          "time": 186.7674418604651,
          "velocity": 0.09448818897637795
        },
        {
          "duration": 0.11627906976744384,
          "durationTicks": 10,
          "midi": 71,
          "name": "B4",
          "ticks": 16063,
          "time": 186.77906976744185,
          "velocity": 0.1732283464566929
        },
        {
          "duration": 0.04651162790699459,
          "durationTicks": 4,
          "midi": 52,
          "name": "E3",
          "ticks": 16064,
          "time": 186.7906976744186,
          "velocity": 0.08661417322834646
        },
        {
          "duration": 0.04651162790699459,
          "durationTicks": 4,
          "midi": 40,
          "name": "E2",
          "ticks": 16065,
          "time": 186.80232558139534,
          "velocity": 0.14173228346456693
        },
        {
          "duration": 0.04651162790699459,
          "durationTicks": 4,
          "midi": 71,
          "name": "B4",
          "ticks": 16074,
          "time": 186.90697674418604,
          "velocity": 0.11023622047244094
        },
        {
          "duration": 0.04651162790696617,
          "durationTicks": 4,
          "midi": 62,
          "name": "D4",
          "ticks": 16079,
          "time": 186.96511627906978,
          "velocity": 0.11023622047244094
        },
        {
          "duration": 0.09302325581396076,
          "durationTicks": 8,
          "midi": 62,
          "name": "D4",
          "ticks": 16084,
          "time": 187.02325581395348,
          "velocity": 0.14173228346456693
        },
        {
          "duration": 0.22093023255814614,
          "durationTicks": 19,
          "midi": 45,
          "name": "A2",
          "ticks": 16092,
          "time": 187.11627906976744,
          "velocity": 0.4251968503937008
        },
        {
          "duration": 0.13953488372092693,
          "durationTicks": 12,
          "midi": 82,
          "name": "A#5",
          "ticks": 16092,
          "time": 187.11627906976744,
          "velocity": 0.14960629921259844
        },
        {
          "duration": 0.04651162790696617,
          "durationTicks": 4,
          "midi": 91,
          "name": "G6",
          "ticks": 16092,
          "time": 187.11627906976744,
          "velocity": 0.08661417322834646
        },
        {
          "duration": 0.023255813953483084,
          "durationTicks": 2,
          "midi": 54,
          "name": "F#3",
          "ticks": 16093,
          "time": 187.12790697674419,
          "velocity": 0.23622047244094488
        },
        {
          "duration": 0.023255813953483084,
          "durationTicks": 2,
          "midi": 62,
          "name": "D4",
          "ticks": 16093,
          "time": 187.12790697674419,
          "velocity": 0.2992125984251969
        },
        {
          "duration": 0.12790697674418539,
          "durationTicks": 11,
          "midi": 71,
          "name": "B4",
          "ticks": 16093,
          "time": 187.12790697674419,
          "velocity": 0.2047244094488189
        },
        {
          "duration": 0.04651162790699459,
          "durationTicks": 4,
          "midi": 53,
          "name": "F3",
          "ticks": 16095,
          "time": 187.15116279069767,
          "velocity": 0.2755905511811024
        },
        {
          "duration": 0.05813953488373613,
          "durationTicks": 5,
          "midi": 79,
          "name": "G5",
          "ticks": 16096,
          "time": 187.1627906976744,
          "velocity": 0.09448818897637795
        },
        {
          "duration": 0.06976744186047767,
          "durationTicks": 6,
          "midi": 87,
          "name": "D#6",
          "ticks": 16096,
          "time": 187.1627906976744,
          "velocity": 0.18110236220472442
        },
        {
          "duration": 0.0813953488371908,
          "durationTicks": 7,
          "midi": 62,
          "name": "D4",
          "ticks": 16099,
          "time": 187.19767441860466,
          "velocity": 0.28346456692913385
        },
        {
          "duration": 0.13953488372092693,
          "durationTicks": 12,
          "midi": 53,
          "name": "F3",
          "ticks": 16100,
          "time": 187.2093023255814,
          "velocity": 0.25984251968503935
        },
        {
          "duration": 0.08139534883721922,
          "durationTicks": 7,
          "midi": 87,
          "name": "D#6",
          "ticks": 16104,
          "time": 187.25581395348837,
          "velocity": 0.11811023622047244
        },
        {
          "duration": 0.04651162790699459,
          "durationTicks": 4,
          "midi": 62,
          "name": "D4",
          "ticks": 16107,
          "time": 187.2906976744186,
          "velocity": 0.1968503937007874
        },
        {
          "duration": 0.05813953488370771,
          "durationTicks": 5,
          "midi": 57,
          "name": "A3",
          "ticks": 16112,
          "time": 187.34883720930233,
          "velocity": 0.15748031496062992
        },
        {
          "duration": 0.16279069767441,
          "durationTicks": 14,
          "midi": 62,
          "name": "D4",
          "ticks": 16112,
          "time": 187.34883720930233,
          "velocity": 0.2677165354330709
        },
        {
          "duration": 0.6046511627907023,
          "durationTicks": 52,
          "midi": 69,
          "name": "A4",
          "ticks": 16112,
          "time": 187.34883720930233,
          "velocity": 0.4251968503937008
        },
        {
          "duration": 0.04651162790696617,
          "durationTicks": 4,
          "midi": 84,
          "name": "C6",
          "ticks": 16112,
          "time": 187.34883720930233,
          "velocity": 0.14960629921259844
        },
        {
          "duration": 0.3139534883720785,
          "durationTicks": 27,
          "midi": 74,
          "name": "D5",
          "ticks": 16113,
          "time": 187.36046511627907,
          "velocity": 0.2755905511811024
        },
        {
          "duration": 0.83720930232559,
          "durationTicks": 72,
          "midi": 88,
          "name": "E6",
          "ticks": 16115,
          "time": 187.38372093023256,
          "velocity": 0.28346456692913385
        },
        {
          "duration": 0.12790697674418539,
          "durationTicks": 11,
          "midi": 57,
          "name": "A3",
          "ticks": 16118,
          "time": 187.41860465116278,
          "velocity": 0.1732283464566929
        },
        {
          "duration": 0.023255813953511506,
          "durationTicks": 2,
          "midi": 38,
          "name": "D2",
          "ticks": 16119,
          "time": 187.43023255813952,
          "velocity": 0.25984251968503935
        },
        {
          "duration": 0.034883720930224626,
          "durationTicks": 3,
          "midi": 50,
          "name": "D3",
          "ticks": 16122,
          "time": 187.46511627906978,
          "velocity": 0.2992125984251969
        },
        {
          "duration": 0.1046511627907023,
          "durationTicks": 9,
          "midi": 72,
          "name": "C5",
          "ticks": 16122,
          "time": 187.46511627906978,
          "velocity": 0.14173228346456693
        },
        {
          "duration": 0.20930232558137618,
          "durationTicks": 18,
          "midi": 84,
          "name": "C6",
          "ticks": 16122,
          "time": 187.46511627906978,
          "velocity": 0.14173228346456693
        },
        {
          "duration": 0.023255813953483084,
          "durationTicks": 2,
          "midi": 38,
          "name": "D2",
          "ticks": 16126,
          "time": 187.51162790697674,
          "velocity": 0.25984251968503935
        },
        {
          "duration": 0.03488372093025305,
          "durationTicks": 3,
          "midi": 51,
          "name": "D#3",
          "ticks": 16130,
          "time": 187.5581395348837,
          "velocity": 0.2283464566929134
        },
        {
          "duration": 0.13953488372095535,
          "durationTicks": 12,
          "midi": 57,
          "name": "A3",
          "ticks": 16130,
          "time": 187.5581395348837,
          "velocity": 0.15748031496062992
        },
        {
          "duration": 0.2558139534883992,
          "durationTicks": 22,
          "midi": 86,
          "name": "D6",
          "ticks": 16130,
          "time": 187.5581395348837,
          "velocity": 0.3858267716535433
        },
        {
          "duration": 0.3837209302325846,
          "durationTicks": 33,
          "midi": 89,
          "name": "F6",
          "ticks": 16130,
          "time": 187.5581395348837,
          "velocity": 0.4566929133858268
        },
        {
          "duration": 0.3488372093023031,
          "durationTicks": 30,
          "midi": 77,
          "name": "F5",
          "ticks": 16131,
          "time": 187.56976744186048,
          "velocity": 0.48031496062992124
        },
        {
          "duration": 0.1860465116278931,
          "durationTicks": 16,
          "midi": 50,
          "name": "D3",
          "ticks": 16133,
          "time": 187.59302325581396,
          "velocity": 0.25196850393700787
        },
        {
          "duration": 0.03488372093025305,
          "durationTicks": 3,
          "midi": 49,
          "name": "C#3",
          "ticks": 16149,
          "time": 187.77906976744185,
          "velocity": 0.2047244094488189
        },
        {
          "duration": 0.25581395348837077,
          "durationTicks": 22,
          "midi": 74,
          "name": "D5",
          "ticks": 16149,
          "time": 187.77906976744185,
          "velocity": 0.48031496062992124
        },
        {
          "duration": 0.03488372093025305,
          "durationTicks": 3,
          "midi": 90,
          "name": "F#6",
          "ticks": 16150,
          "time": 187.7906976744186,
          "velocity": 0.11023622047244094
        },
        {
          "duration": 0.12790697674418539,
          "durationTicks": 11,
          "midi": 65,
          "name": "F4",
          "ticks": 16151,
          "time": 187.80232558139534,
          "velocity": 0.3700787401574803
        },
        {
          "duration": 0.09302325581396076,
          "durationTicks": 8,
          "midi": 72,
          "name": "C5",
          "ticks": 16151,
          "time": 187.80232558139534,
          "velocity": 0.3779527559055118
        },
        {
          "duration": 0.3953488372093261,
          "durationTicks": 34,
          "midi": 79,
          "name": "G5",
          "ticks": 16151,
          "time": 187.80232558139534,
          "velocity": 0.25196850393700787
        },
        {
          "duration": 0.05813953488373613,
          "durationTicks": 5,
          "midi": 85,
          "name": "C#6",
          "ticks": 16151,
          "time": 187.80232558139534,
          "velocity": 0.16535433070866143
        },
        {
          "duration": 0.04651162790696617,
          "durationTicks": 4,
          "midi": 60,
          "name": "C4",
          "ticks": 16152,
          "time": 187.8139534883721,
          "velocity": 0.2283464566929134
        },
        {
          "duration": 0.17441860465115155,
          "durationTicks": 15,
          "midi": 38,
          "name": "D2",
          "ticks": 16155,
          "time": 187.84883720930233,
          "velocity": 0.2125984251968504
        },
        {
          "duration": 0.16279069767441,
          "durationTicks": 14,
          "midi": 50,
          "name": "D3",
          "ticks": 16156,
          "time": 187.86046511627907,
          "velocity": 0.2204724409448819
        },
        {
          "duration": 0.034883720930224626,
          "durationTicks": 3,
          "midi": 85,
          "name": "C#6",
          "ticks": 16158,
          "time": 187.88372093023256,
          "velocity": 0.09448818897637795
        },
        {
          "duration": 0.15116279069766847,
          "durationTicks": 13,
          "midi": 95,
          "name": "B6",
          "ticks": 16159,
          "time": 187.8953488372093,
          "velocity": 0.11023622047244094
        },
        {
          "duration": 0.2325581395348877,
          "durationTicks": 20,
          "midi": 76,
          "name": "E5",
          "ticks": 16160,
          "time": 187.90697674418604,
          "velocity": 0.48031496062992124
        },
        {
          "duration": 0.22093023255814614,
          "durationTicks": 19,
          "midi": 72,
          "name": "C5",
          "ticks": 16161,
          "time": 187.91860465116278,
          "velocity": 0.44881889763779526
        },
        {
          "duration": 0.08139534883721922,
          "durationTicks": 7,
          "midi": 60,
          "name": "C4",
          "ticks": 16162,
          "time": 187.93023255813952,
          "velocity": 0.1732283464566929
        },
        {
          "duration": 0.2093023255814046,
          "durationTicks": 18,
          "midi": 67,
          "name": "G4",
          "ticks": 16162,
          "time": 187.93023255813952,
          "velocity": 0.4251968503937008
        },
        {
          "duration": 0.2325581395348877,
          "durationTicks": 20,
          "midi": 64,
          "name": "E4",
          "ticks": 16170,
          "time": 188.02325581395348,
          "velocity": 0.3464566929133858
        },
        {
          "duration": 0.05813953488373613,
          "durationTicks": 5,
          "midi": 83,
          "name": "B5",
          "ticks": 16170,
          "time": 188.02325581395348,
          "velocity": 0.25984251968503935
        },
        {
          "duration": 0.03488372093025305,
          "durationTicks": 3,
          "midi": 59,
          "name": "B3",
          "ticks": 16171,
          "time": 188.03488372093022,
          "velocity": 0.4015748031496063
        },
        {
          "duration": 0.09302325581396076,
          "durationTicks": 8,
          "midi": 82,
          "name": "A#5",
          "ticks": 16172,
          "time": 188.04651162790697,
          "velocity": 0.16535433070866143
        },
        {
          "duration": 0.18604651162792152,
          "durationTicks": 16,
          "midi": 89,
          "name": "F6",
          "ticks": 16173,
          "time": 188.0581395348837,
          "velocity": 0.23622047244094488
        },
        {
          "duration": 0.034883720930224626,
          "durationTicks": 3,
          "midi": 60,
          "name": "C4",
          "ticks": 16174,
          "time": 188.06976744186048,
          "velocity": 0.3779527559055118
        },
        {
          "duration": 0.04651162790696617,
          "durationTicks": 4,
          "midi": 55,
          "name": "G3",
          "ticks": 16175,
          "time": 188.08139534883722,
          "velocity": 0.2047244094488189
        },
        {
          "duration": 0.034883720930224626,
          "durationTicks": 3,
          "midi": 90,
          "name": "F#6",
          "ticks": 16175,
          "time": 188.08139534883722,
          "velocity": 0.07086614173228346
        },
        {
          "duration": 0.4767441860465169,
          "durationTicks": 41,
          "midi": 74,
          "name": "D5",
          "ticks": 16176,
          "time": 188.09302325581396,
          "velocity": 0.48031496062992124
        },
        {
          "duration": 0.20930232558137618,
          "durationTicks": 18,
          "midi": 83,
          "name": "B5",
          "ticks": 16176,
          "time": 188.09302325581396,
          "velocity": 0.2204724409448819
        },
        {
          "duration": 0.2093023255814046,
          "durationTicks": 18,
          "midi": 48,
          "name": "C3",
          "ticks": 16178,
          "time": 188.11627906976744,
          "velocity": 0.31496062992125984
        },
        {
          "duration": 0.1860465116278931,
          "durationTicks": 16,
          "midi": 69,
          "name": "A4",
          "ticks": 16178,
          "time": 188.11627906976744,
          "velocity": 0.4094488188976378
        },
        {
          "duration": 0.16279069767441,
          "durationTicks": 14,
          "midi": 77,
          "name": "F5",
          "ticks": 16178,
          "time": 188.11627906976744,
          "velocity": 0.48031496062992124
        },
        {
          "duration": 0.04651162790696617,
          "durationTicks": 4,
          "midi": 59,
          "name": "B3",
          "ticks": 16179,
          "time": 188.12790697674419,
          "velocity": 0.31496062992125984
        },
        {
          "duration": 0.18604651162792152,
          "durationTicks": 16,
          "midi": 93,
          "name": "A6",
          "ticks": 16179,
          "time": 188.12790697674419,
          "velocity": 0.2125984251968504
        },
        {
          "duration": 0.1046511627907023,
          "durationTicks": 9,
          "midi": 55,
          "name": "G3",
          "ticks": 16180,
          "time": 188.13953488372093,
          "velocity": 0.14960629921259844
        },
        {
          "duration": 0.04651162790699459,
          "durationTicks": 4,
          "midi": 59,
          "name": "B3",
          "ticks": 16184,
          "time": 188.1860465116279,
          "velocity": 0.2992125984251969
        },
        {
          "duration": 0.20930232558137618,
          "durationTicks": 18,
          "midi": 91,
          "name": "G6",
          "ticks": 16187,
          "time": 188.22093023255815,
          "velocity": 0.2125984251968504
        },
        {
          "duration": 0.48837209302325846,
          "durationTicks": 42,
          "midi": 72,
          "name": "C5",
          "ticks": 16189,
          "time": 188.24418604651163,
          "velocity": 0.3858267716535433
        },
        {
          "duration": 0.6860465116278931,
          "durationTicks": 59,
          "midi": 88,
          "name": "E6",
          "ticks": 16189,
          "time": 188.24418604651163,
          "velocity": 0.3700787401574803
        },
        {
          "duration": 0.4651162790697754,
          "durationTicks": 40,
          "midi": 60,
          "name": "C4",
          "ticks": 16190,
          "time": 188.25581395348837,
          "velocity": 0.4330708661417323
        },
        {
          "duration": 0.023255813953483084,
          "durationTicks": 2,
          "midi": 66,
          "name": "F#4",
          "ticks": 16190,
          "time": 188.25581395348837,
          "velocity": 0.2992125984251969
        },
        {
          "duration": 0.04651162790696617,
          "durationTicks": 4,
          "midi": 85,
          "name": "C#6",
          "ticks": 16190,
          "time": 188.25581395348837,
          "velocity": 0.1732283464566929
        },
        {
          "duration": 0.25581395348837077,
          "durationTicks": 22,
          "midi": 76,
          "name": "E5",
          "ticks": 16191,
          "time": 188.2674418604651,
          "velocity": 0.4645669291338583
        },
        {
          "duration": 0.09302325581396076,
          "durationTicks": 8,
          "midi": 67,
          "name": "G4",
          "ticks": 16192,
          "time": 188.27906976744185,
          "velocity": 0.33858267716535434
        },
        {
          "duration": 0.03488372093025305,
          "durationTicks": 3,
          "midi": 65,
          "name": "F4",
          "ticks": 16193,
          "time": 188.2906976744186,
          "velocity": 0.29133858267716534
        },
        {
          "duration": 0.17441860465117998,
          "durationTicks": 15,
          "midi": 38,
          "name": "D2",
          "ticks": 16194,
          "time": 188.30232558139534,
          "velocity": 0.2204724409448819
        },
        {
          "duration": 0.034883720930224626,
          "durationTicks": 3,
          "midi": 83,
          "name": "B5",
          "ticks": 16196,
          "time": 188.32558139534885,
          "velocity": 0.08661417322834646
        },
        {
          "duration": 0.04651162790696617,
          "durationTicks": 4,
          "midi": 85,
          "name": "C#6",
          "ticks": 16198,
          "time": 188.34883720930233,
          "velocity": 0.10236220472440945
        },
        {
          "duration": 0.19767441860466306,
          "durationTicks": 17,
          "midi": 65,
          "name": "F4",
          "ticks": 16201,
          "time": 188.38372093023256,
          "velocity": 0.2755905511811024
        },
        {
          "duration": 1.3837209302325846,
          "durationTicks": 119,
          "midi": 84,
          "name": "C6",
          "ticks": 16205,
          "time": 188.43023255813952,
          "velocity": 0.4645669291338583
        },
        {
          "duration": 0.4534883720930054,
          "durationTicks": 39,
          "midi": 69,
          "name": "A4",
          "ticks": 16209,
          "time": 188.47674418604652,
          "velocity": 0.23622047244094488
        },
        {
          "duration": 0.034883720930224626,
          "durationTicks": 3,
          "midi": 50,
          "name": "D3",
          "ticks": 16210,
          "time": 188.48837209302326,
          "velocity": 0.1968503937007874
        },
        {
          "duration": 0.034883720930224626,
          "durationTicks": 3,
          "midi": 44,
          "name": "G#2",
          "ticks": 16212,
          "time": 188.51162790697674,
          "velocity": 0.2677165354330709
        },
        {
          "duration": 0.08139534883721922,
          "durationTicks": 7,
          "midi": 91,
          "name": "G6",
          "ticks": 16212,
          "time": 188.51162790697674,
          "velocity": 0.13385826771653545
        },
        {
          "duration": 0.06976744186047767,
          "durationTicks": 6,
          "midi": 45,
          "name": "A2",
          "ticks": 16215,
          "time": 188.54651162790697,
          "velocity": 0.28346456692913385
        },
        {
          "duration": 0.023255813953483084,
          "durationTicks": 2,
          "midi": 45,
          "name": "A2",
          "ticks": 16222,
          "time": 188.62790697674419,
          "velocity": 0.2755905511811024
        },
        {
          "duration": 0.04651162790696617,
          "durationTicks": 4,
          "midi": 50,
          "name": "D3",
          "ticks": 16223,
          "time": 188.63953488372093,
          "velocity": 0.25196850393700787
        },
        {
          "duration": 0.023255813953483084,
          "durationTicks": 2,
          "midi": 45,
          "name": "A2",
          "ticks": 16225,
          "time": 188.6627906976744,
          "velocity": 0.25196850393700787
        },
        {
          "duration": 0.5116279069767415,
          "durationTicks": 44,
          "midi": 77,
          "name": "F5",
          "ticks": 16228,
          "time": 188.69767441860466,
          "velocity": 0.4566929133858268
        },
        {
          "duration": 0.05813953488370771,
          "durationTicks": 5,
          "midi": 80,
          "name": "G#5",
          "ticks": 16228,
          "time": 188.69767441860466,
          "velocity": 0.1732283464566929
        },
        {
          "duration": 0.12790697674418539,
          "durationTicks": 11,
          "midi": 81,
          "name": "A5",
          "ticks": 16228,
          "time": 188.69767441860466,
          "velocity": 0.29133858267716534
        },
        {
          "duration": 0.6395348837209269,
          "durationTicks": 55,
          "midi": 93,
          "name": "A6",
          "ticks": 16228,
          "time": 188.69767441860466,
          "velocity": 0.2992125984251969
        },
        {
          "duration": 0.24418604651162923,
          "durationTicks": 21,
          "midi": 65,
          "name": "F4",
          "ticks": 16229,
          "time": 188.7093023255814,
          "velocity": 0.3779527559055118
        },
        {
          "duration": 1.2441860465116292,
          "durationTicks": 107,
          "midi": 74,
          "name": "D5",
          "ticks": 16229,
          "time": 188.7093023255814,
          "velocity": 0.5905511811023622
        },
        {
          "duration": 0.04651162790696617,
          "durationTicks": 4,
          "midi": 85,
          "name": "C#6",
          "ticks": 16229,
          "time": 188.7093023255814,
          "velocity": 0.16535433070866143
        },
        {
          "duration": 0.20930232558137618,
          "durationTicks": 18,
          "midi": 62,
          "name": "D4",
          "ticks": 16230,
          "time": 188.72093023255815,
          "velocity": 0.33858267716535434
        },
        {
          "duration": 0.11627906976744384,
          "durationTicks": 10,
          "midi": 53,
          "name": "F3",
          "ticks": 16231,
          "time": 188.7325581395349,
          "velocity": 0.30708661417322836
        },
        {
          "duration": 0.08139534883721922,
          "durationTicks": 7,
          "midi": 91,
          "name": "G6",
          "ticks": 16231,
          "time": 188.7325581395349,
          "velocity": 0.11023622047244094
        },
        {
          "duration": 0.023255813953483084,
          "durationTicks": 2,
          "midi": 40,
          "name": "E2",
          "ticks": 16232,
          "time": 188.74418604651163,
          "velocity": 0.25196850393700787
        },
        {
          "duration": 0.08139534883721922,
          "durationTicks": 7,
          "midi": 72,
          "name": "C5",
          "ticks": 16232,
          "time": 188.74418604651163,
          "velocity": 0.2440944881889764
        },
        {
          "duration": 0.19767441860466306,
          "durationTicks": 17,
          "midi": 87,
          "name": "D#6",
          "ticks": 16232,
          "time": 188.74418604651163,
          "velocity": 0.07874015748031496
        },
        {
          "duration": 0.034883720930224626,
          "durationTicks": 3,
          "midi": 38,
          "name": "D2",
          "ticks": 16234,
          "time": 188.7674418604651,
          "velocity": 0.16535433070866143
        },
        {
          "duration": 0.05813953488370771,
          "durationTicks": 5,
          "midi": 80,
          "name": "G#5",
          "ticks": 16238,
          "time": 188.8139534883721,
          "velocity": 0.2204724409448819
        },
        {
          "duration": 0.0813953488371908,
          "durationTicks": 7,
          "midi": 91,
          "name": "G6",
          "ticks": 16239,
          "time": 188.82558139534885,
          "velocity": 0.08661417322834646
        },
        {
          "duration": 0.05813953488370771,
          "durationTicks": 5,
          "midi": 95,
          "name": "B6",
          "ticks": 16240,
          "time": 188.8372093023256,
          "velocity": 0.07874015748031496
        },
        {
          "duration": 0.11627906976744384,
          "durationTicks": 10,
          "midi": 81,
          "name": "A5",
          "ticks": 16241,
          "time": 188.84883720930233,
          "velocity": 0.2677165354330709
        },
        {
          "duration": 0.04651162790696617,
          "durationTicks": 4,
          "midi": 72,
          "name": "C5",
          "ticks": 16242,
          "time": 188.86046511627907,
          "velocity": 0.12598425196850394
        },
        {
          "duration": 0.034883720930224626,
          "durationTicks": 3,
          "midi": 38,
          "name": "D2",
          "ticks": 16244,
          "time": 188.88372093023256,
          "velocity": 0.1968503937007874
        },
        {
          "duration": 0.023255813953483084,
          "durationTicks": 2,
          "midi": 50,
          "name": "D3",
          "ticks": 16244,
          "time": 188.88372093023256,
          "velocity": 0.2755905511811024
        },
        {
          "duration": 0.03488372093025305,
          "durationTicks": 3,
          "midi": 50,
          "name": "D3",
          "ticks": 16247,
          "time": 188.91860465116278,
          "velocity": 0.29133858267716534
        },
        {
          "duration": 0.2325581395348877,
          "durationTicks": 20,
          "midi": 71,
          "name": "B4",
          "ticks": 16248,
          "time": 188.93023255813952,
          "velocity": 0.30708661417322836
        },
        {
          "duration": 0.20930232558137618,
          "durationTicks": 18,
          "midi": 59,
          "name": "B3",
          "ticks": 16250,
          "time": 188.95348837209303,
          "velocity": 0.3543307086614173
        },
        {
          "duration": 0.20930232558137618,
          "durationTicks": 18,
          "midi": 64,
          "name": "E4",
          "ticks": 16250,
          "time": 188.95348837209303,
          "velocity": 0.3937007874015748
        },
        {
          "duration": 0.034883720930224626,
          "durationTicks": 3,
          "midi": 39,
          "name": "D#2",
          "ticks": 16251,
          "time": 188.96511627906978,
          "velocity": 0.2992125984251969
        },
        {
          "duration": 0.12790697674418539,
          "durationTicks": 11,
          "midi": 87,
          "name": "D#6",
          "ticks": 16251,
          "time": 188.96511627906978,
          "velocity": 0.15748031496062992
        },
        {
          "duration": 0.1860465116278931,
          "durationTicks": 16,
          "midi": 67,
          "name": "G4",
          "ticks": 16252,
          "time": 188.97674418604652,
          "velocity": 0.2992125984251969
        },
        {
          "duration": 0.023255813953483084,
          "durationTicks": 2,
          "midi": 40,
          "name": "E2",
          "ticks": 16254,
          "time": 189,
          "velocity": 0.28346456692913385
        },
        {
          "duration": 0.03488372093025305,
          "durationTicks": 3,
          "midi": 40,
          "name": "E2",
          "ticks": 16257,
          "time": 189.03488372093022,
          "velocity": 0.28346456692913385
        },
        {
          "duration": 0.15116279069766847,
          "durationTicks": 13,
          "midi": 81,
          "name": "A5",
          "ticks": 16257,
          "time": 189.03488372093022,
          "velocity": 0.2677165354330709
        },
        {
          "duration": 0.0813953488371908,
          "durationTicks": 7,
          "midi": 40,
          "name": "E2",
          "ticks": 16261,
          "time": 189.08139534883722,
          "velocity": 0.2755905511811024
        },
        {
          "duration": 0.023255813953483084,
          "durationTicks": 2,
          "midi": 55,
          "name": "G3",
          "ticks": 16263,
          "time": 189.1046511627907,
          "velocity": 0.2283464566929134
        },
        {
          "duration": 0.05813953488370771,
          "durationTicks": 5,
          "midi": 87,
          "name": "D#6",
          "ticks": 16265,
          "time": 189.12790697674419,
          "velocity": 0.13385826771653545
        },
        {
          "duration": 0.023255813953483084,
          "durationTicks": 2,
          "midi": 60,
          "name": "C4",
          "ticks": 16268,
          "time": 189.1627906976744,
          "velocity": 0.3543307086614173
        },
        {
          "duration": 0.22093023255814614,
          "durationTicks": 19,
          "midi": 65,
          "name": "F4",
          "ticks": 16268,
          "time": 189.1627906976744,
          "velocity": 0.4094488188976378
        },
        {
          "duration": 0.023255813953511506,
          "durationTicks": 2,
          "midi": 40,
          "name": "E2",
          "ticks": 16269,
          "time": 189.17441860465115,
          "velocity": 0.2440944881889764
        },
        {
          "duration": 0.04651162790699459,
          "durationTicks": 4,
          "midi": 79,
          "name": "G5",
          "ticks": 16269,
          "time": 189.17441860465115,
          "velocity": 0.09448818897637795
        },
        {
          "duration": 0.24418604651162923,
          "durationTicks": 21,
          "midi": 69,
          "name": "A4",
          "ticks": 16270,
          "time": 189.1860465116279,
          "velocity": 0.1732283464566929
        },
        {
          "duration": 0.9651162790697754,
          "durationTicks": 83,
          "midi": 88,
          "name": "E6",
          "ticks": 16270,
          "time": 189.1860465116279,
          "velocity": 0.29133858267716534
        },
        {
          "duration": 0.04651162790696617,
          "durationTicks": 4,
          "midi": 60,
          "name": "C4",
          "ticks": 16271,
          "time": 189.19767441860466,
          "velocity": 0.3937007874015748
        },
        {
          "duration": 0.7209302325581177,
          "durationTicks": 62,
          "midi": 81,
          "name": "A5",
          "ticks": 16271,
          "time": 189.19767441860466,
          "velocity": 0.30708661417322836
        },
        {
          "duration": 0.034883720930224626,
          "durationTicks": 3,
          "midi": 40,
          "name": "E2",
          "ticks": 16273,
          "time": 189.22093023255815,
          "velocity": 0.14960629921259844
        },
        {
          "duration": 0.04651162790696617,
          "durationTicks": 4,
          "midi": 83,
          "name": "B5",
          "ticks": 16274,
          "time": 189.2325581395349,
          "velocity": 0.09448818897637795
        },
        {
          "duration": 0.023255813953483084,
          "durationTicks": 2,
          "midi": 60,
          "name": "C4",
          "ticks": 16276,
          "time": 189.25581395348837,
          "velocity": 0.3779527559055118
        },
        {
          "duration": 0.023255813953483084,
          "durationTicks": 2,
          "midi": 62,
          "name": "D4",
          "ticks": 16276,
          "time": 189.25581395348837,
          "velocity": 0.31496062992125984
        },
        {
          "duration": 0.5116279069767415,
          "durationTicks": 44,
          "midi": 72,
          "name": "C5",
          "ticks": 16281,
          "time": 189.3139534883721,
          "velocity": 0.3937007874015748
        },
        {
          "duration": 0.04651162790696617,
          "durationTicks": 4,
          "midi": 62,
          "name": "D4",
          "ticks": 16282,
          "time": 189.32558139534885,
          "velocity": 0.31496062992125984
        },
        {
          "duration": 0.023255813953483084,
          "durationTicks": 2,
          "midi": 60,
          "name": "C4",
          "ticks": 16284,
          "time": 189.34883720930233,
          "velocity": 0.2755905511811024
        },
        {
          "duration": 0.023255813953483084,
          "durationTicks": 2,
          "midi": 61,
          "name": "C#4",
          "ticks": 16286,
          "time": 189.37209302325581,
          "velocity": 0.2992125984251969
        },
        {
          "duration": 0.11627906976744384,
          "durationTicks": 10,
          "midi": 91,
          "name": "G6",
          "ticks": 16288,
          "time": 189.3953488372093,
          "velocity": 0.2125984251968504
        },
        {
          "duration": 0.04651162790699459,
          "durationTicks": 4,
          "midi": 50,
          "name": "D3",
          "ticks": 16289,
          "time": 189.40697674418604,
          "velocity": 0.10236220472440945
        },
        {
          "duration": 0.08139534883721922,
          "durationTicks": 7,
          "midi": 60,
          "name": "C4",
          "ticks": 16289,
          "time": 189.40697674418604,
          "velocity": 0.4330708661417323
        },
        {
          "duration": 0.2093023255814046,
          "durationTicks": 18,
          "midi": 65,
          "name": "F4",
          "ticks": 16289,
          "time": 189.40697674418604,
          "velocity": 0.3543307086614173
        },
        {
          "duration": 0.4651162790697754,
          "durationTicks": 40,
          "midi": 77,
          "name": "F5",
          "ticks": 16289,
          "time": 189.40697674418604,
          "velocity": 0.4881889763779528
        },
        {
          "duration": 0.06976744186047767,
          "durationTicks": 6,
          "midi": 85,
          "name": "C#6",
          "ticks": 16290,
          "time": 189.41860465116278,
          "velocity": 0.14960629921259844
        },
        {
          "duration": 0.4302325581395223,
          "durationTicks": 37,
          "midi": 69,
          "name": "A4",
          "ticks": 16293,
          "time": 189.45348837209303,
          "velocity": 0.3700787401574803
        },
        {
          "duration": 0.023255813953483084,
          "durationTicks": 2,
          "midi": 60,
          "name": "C4",
          "ticks": 16297,
          "time": 189.5,
          "velocity": 0.31496062992125984
        },
        {
          "duration": 0.023255813953483084,
          "durationTicks": 2,
          "midi": 62,
          "name": "D4",
          "ticks": 16297,
          "time": 189.5,
          "velocity": 0.31496062992125984
        },
        {
          "duration": 0.06976744186047767,
          "durationTicks": 6,
          "midi": 60,
          "name": "C4",
          "ticks": 16300,
          "time": 189.53488372093022,
          "velocity": 0.33858267716535434
        },
        {
          "duration": 0.1046511627907023,
          "durationTicks": 9,
          "midi": 91,
          "name": "G6",
          "ticks": 16300,
          "time": 189.53488372093022,
          "velocity": 0.12598425196850394
        },
        {
          "duration": 0.034883720930224626,
          "durationTicks": 3,
          "midi": 59,
          "name": "B3",
          "ticks": 16306,
          "time": 189.6046511627907,
          "velocity": 0.3779527559055118
        },
        {
          "duration": 0.023255813953483084,
          "durationTicks": 2,
          "midi": 66,
          "name": "F#4",
          "ticks": 16307,
          "time": 189.61627906976744,
          "velocity": 0.2677165354330709
        },
        {
          "duration": 0.2674418604651123,
          "durationTicks": 23,
          "midi": 93,
          "name": "A6",
          "ticks": 16307,
          "time": 189.61627906976744,
          "velocity": 0.30708661417322836
        },
        {
          "duration": 0.034883720930224626,
          "durationTicks": 3,
          "midi": 98,
          "name": "D7",
          "ticks": 16307,
          "time": 189.61627906976744,
          "velocity": 0.08661417322834646
        },
        {
          "duration": 0.034883720930224626,
          "durationTicks": 3,
          "midi": 50,
          "name": "D3",
          "ticks": 16309,
          "time": 189.63953488372093,
          "velocity": 0.1968503937007874
        },
        {
          "duration": 0.19767441860466306,
          "durationTicks": 17,
          "midi": 60,
          "name": "C4",
          "ticks": 16309,
          "time": 189.63953488372093,
          "velocity": 0.4094488188976378
        },
        {
          "duration": 0.2325581395348877,
          "durationTicks": 20,
          "midi": 65,
          "name": "F4",
          "ticks": 16309,
          "time": 189.63953488372093,
          "velocity": 0.4015748031496063
        },
        {
          "duration": 0.05813953488373613,
          "durationTicks": 5,
          "midi": 38,
          "name": "D2",
          "ticks": 16312,
          "time": 189.67441860465115,
          "velocity": 0.2283464566929134
        },
        {
          "duration": 0.0813953488371908,
          "durationTicks": 7,
          "midi": 95,
          "name": "B6",
          "ticks": 16315,
          "time": 189.7093023255814,
          "velocity": 0.07086614173228346
        },
        {
          "duration": 0.034883720930224626,
          "durationTicks": 3,
          "midi": 85,
          "name": "C#6",
          "ticks": 16316,
          "time": 189.72093023255815,
          "velocity": 0.08661417322834646
        },
        {
          "duration": 0.023255813953483084,
          "durationTicks": 2,
          "midi": 38,
          "name": "D2",
          "ticks": 16318,
          "time": 189.74418604651163,
          "velocity": 0.2283464566929134
        },
        {
          "duration": 0.06976744186047767,
          "durationTicks": 6,
          "midi": 38,
          "name": "D2",
          "ticks": 16321,
          "time": 189.77906976744185,
          "velocity": 0.2204724409448819
        },
        {
          "duration": 0.0813953488371908,
          "durationTicks": 7,
          "midi": 59,
          "name": "B3",
          "ticks": 16326,
          "time": 189.8372093023256,
          "velocity": 0.36220472440944884
        },
        {
          "duration": 0.1860465116278931,
          "durationTicks": 16,
          "midi": 79,
          "name": "G5",
          "ticks": 16326,
          "time": 189.8372093023256,
          "velocity": 0.23622047244094488
        },
        {
          "duration": 0.04651162790696617,
          "durationTicks": 4,
          "midi": 84,
          "name": "C6",
          "ticks": 16326,
          "time": 189.8372093023256,
          "velocity": 0.1732283464566929
        },
        {
          "duration": 0.034883720930224626,
          "durationTicks": 3,
          "midi": 47,
          "name": "B2",
          "ticks": 16327,
          "time": 189.84883720930233,
          "velocity": 0.3543307086614173
        },
        {
          "duration": 0.13953488372092693,
          "durationTicks": 12,
          "midi": 72,
          "name": "C5",
          "ticks": 16327,
          "time": 189.84883720930233,
          "velocity": 0.5039370078740157
        },
        {
          "duration": 0.04651162790696617,
          "durationTicks": 4,
          "midi": 83,
          "name": "B5",
          "ticks": 16327,
          "time": 189.84883720930233,
          "velocity": 0.2283464566929134
        },
        {
          "duration": 0.11627906976744384,
          "durationTicks": 10,
          "midi": 67,
          "name": "G4",
          "ticks": 16328,
          "time": 189.86046511627907,
          "velocity": 0.41732283464566927
        },
        {
          "duration": 0.1046511627907023,
          "durationTicks": 9,
          "midi": 76,
          "name": "E5",
          "ticks": 16328,
          "time": 189.86046511627907,
          "velocity": 0.4015748031496063
        },
        {
          "duration": 0.04651162790696617,
          "durationTicks": 4,
          "midi": 64,
          "name": "E4",
          "ticks": 16329,
          "time": 189.87209302325581,
          "velocity": 0.31496062992125984
        },
        {
          "duration": 0.05813953488373613,
          "durationTicks": 5,
          "midi": 82,
          "name": "A#5",
          "ticks": 16331,
          "time": 189.8953488372093,
          "velocity": 0.11023622047244094
        },
        {
          "duration": 0.04651162790699459,
          "durationTicks": 4,
          "midi": 48,
          "name": "C3",
          "ticks": 16333,
          "time": 189.91860465116278,
          "velocity": 0.29133858267716534
        },
        {
          "duration": 0.2674418604651123,
          "durationTicks": 23,
          "midi": 83,
          "name": "B5",
          "ticks": 16333,
          "time": 189.91860465116278,
          "velocity": 0.2125984251968504
        },
        {
          "duration": 0.04651162790699459,
          "durationTicks": 4,
          "midi": 55,
          "name": "G3",
          "ticks": 16334,
          "time": 189.93023255813952,
          "velocity": 0.2125984251968504
        },
        {
          "duration": 0.05813953488373613,
          "durationTicks": 5,
          "midi": 59,
          "name": "B3",
          "ticks": 16334,
          "time": 189.93023255813952,
          "velocity": 0.31496062992125984
        },
        {
          "duration": 0.13953488372095535,
          "durationTicks": 12,
          "midi": 64,
          "name": "E4",
          "ticks": 16334,
          "time": 189.93023255813952,
          "velocity": 0.29133858267716534
        },
        {
          "duration": 0.7209302325581461,
          "durationTicks": 62,
          "midi": 81,
          "name": "A5",
          "ticks": 16334,
          "time": 189.93023255813952,
          "velocity": 0.3464566929133858
        },
        {
          "duration": 0.15116279069766847,
          "durationTicks": 13,
          "midi": 69,
          "name": "A4",
          "ticks": 16337,
          "time": 189.96511627906978,
          "velocity": 0.4251968503937008
        },
        {
          "duration": 2.1279069767441854,
          "durationTicks": 183,
          "midi": 74,
          "name": "D5",
          "ticks": 16337,
          "time": 189.96511627906978,
          "velocity": 0.5354330708661418
        },
        {
          "duration": 0.12790697674418539,
          "durationTicks": 11,
          "midi": 77,
          "name": "F5",
          "ticks": 16337,
          "time": 189.96511627906978,
          "velocity": 0.48031496062992124
        },
        {
          "duration": 0.023255813953483084,
          "durationTicks": 2,
          "midi": 48,
          "name": "C3",
          "ticks": 16340,
          "time": 190,
          "velocity": 0.25196850393700787
        },
        {
          "duration": 0.04651162790696617,
          "durationTicks": 4,
          "midi": 71,
          "name": "B4",
          "ticks": 16340,
          "time": 190,
          "velocity": 0.2677165354330709
        },
        {
          "duration": 0.034883720930224626,
          "durationTicks": 3,
          "midi": 59,
          "name": "B3",
          "ticks": 16341,
          "time": 190.01162790697674,
          "velocity": 0.2992125984251969
        },
        {
          "duration": 0.04651162790699459,
          "durationTicks": 4,
          "midi": 48,
          "name": "C3",
          "ticks": 16343,
          "time": 190.03488372093022,
          "velocity": 0.2440944881889764
        },
        {
          "duration": 0.3720930232558146,
          "durationTicks": 32,
          "midi": 60,
          "name": "C4",
          "ticks": 16344,
          "time": 190.04651162790697,
          "velocity": 0.44881889763779526
        },
        {
          "duration": 0.05813953488370771,
          "durationTicks": 5,
          "midi": 65,
          "name": "F4",
          "ticks": 16346,
          "time": 190.06976744186048,
          "velocity": 0.3779527559055118
        },
        {
          "duration": 0.15116279069766847,
          "durationTicks": 13,
          "midi": 91,
          "name": "G6",
          "ticks": 16346,
          "time": 190.06976744186048,
          "velocity": 0.1889763779527559
        },
        {
          "duration": 0.15116279069766847,
          "durationTicks": 13,
          "midi": 72,
          "name": "C5",
          "ticks": 16347,
          "time": 190.08139534883722,
          "velocity": 0.4881889763779528
        },
        {
          "duration": 0.12790697674418539,
          "durationTicks": 11,
          "midi": 76,
          "name": "E5",
          "ticks": 16347,
          "time": 190.08139534883722,
          "velocity": 0.4566929133858268
        },
        {
          "duration": 0.16279069767441,
          "durationTicks": 14,
          "midi": 79,
          "name": "G5",
          "ticks": 16347,
          "time": 190.08139534883722,
          "velocity": 0.1968503937007874
        },
        {
          "duration": 0.10465116279067388,
          "durationTicks": 9,
          "midi": 85,
          "name": "C#6",
          "ticks": 16347,
          "time": 190.08139534883722,
          "velocity": 0.14960629921259844
        },
        {
          "duration": 0.09302325581396076,
          "durationTicks": 8,
          "midi": 67,
          "name": "G4",
          "ticks": 16349,
          "time": 190.1046511627907,
          "velocity": 0.4094488188976378
        },
        {
          "duration": 0.13953488372092693,
          "durationTicks": 12,
          "midi": 65,
          "name": "F4",
          "ticks": 16354,
          "time": 190.1627906976744,
          "velocity": 0.33858267716535434
        },
        {
          "duration": 0.34883720930233153,
          "durationTicks": 30,
          "midi": 77,
          "name": "F5",
          "ticks": 16356,
          "time": 190.1860465116279,
          "velocity": 0.44881889763779526
        },
        {
          "duration": 0.24418604651162923,
          "durationTicks": 21,
          "midi": 69,
          "name": "A4",
          "ticks": 16357,
          "time": 190.19767441860466,
          "velocity": 0.3858267716535433
        },
        {
          "duration": 0.023255813953511506,
          "durationTicks": 2,
          "midi": 53,
          "name": "F3",
          "ticks": 16366,
          "time": 190.30232558139534,
          "velocity": 0.23622047244094488
        },
        {
          "duration": 0.13953488372092693,
          "durationTicks": 12,
          "midi": 65,
          "name": "F4",
          "ticks": 16367,
          "time": 190.3139534883721,
          "velocity": 0.3937007874015748
        },
        {
          "duration": 0.034883720930224626,
          "durationTicks": 3,
          "midi": 85,
          "name": "C#6",
          "ticks": 16368,
          "time": 190.32558139534885,
          "velocity": 0.16535433070866143
        },
        {
          "duration": 0.05813953488370771,
          "durationTicks": 5,
          "midi": 53,
          "name": "F3",
          "ticks": 16369,
          "time": 190.3372093023256,
          "velocity": 0.33070866141732286
        },
        {
          "duration": 0.24418604651162923,
          "durationTicks": 21,
          "midi": 91,
          "name": "G6",
          "ticks": 16369,
          "time": 190.3372093023256,
          "velocity": 0.14173228346456693
        },
        {
          "duration": 0.023255813953483084,
          "durationTicks": 2,
          "midi": 44,
          "name": "G#2",
          "ticks": 16370,
          "time": 190.34883720930233,
          "velocity": 0.2440944881889764
        },
        {
          "duration": 0.17441860465115155,
          "durationTicks": 15,
          "midi": 45,
          "name": "A2",
          "ticks": 16372,
          "time": 190.37209302325581,
          "velocity": 0.2755905511811024
        },
        {
          "duration": 0.05813953488373613,
          "durationTicks": 5,
          "midi": 85,
          "name": "C#6",
          "ticks": 16374,
          "time": 190.3953488372093,
          "velocity": 0.11023622047244094
        },
        {
          "duration": 0.12790697674418539,
          "durationTicks": 11,
          "midi": 87,
          "name": "D#6",
          "ticks": 16374,
          "time": 190.3953488372093,
          "velocity": 0.14173228346456693
        },
        {
          "duration": 0.04651162790699459,
          "durationTicks": 4,
          "midi": 53,
          "name": "F3",
          "ticks": 16375,
          "time": 190.40697674418604,
          "velocity": 0.3228346456692913
        },
        {
          "duration": 0.08139534883721922,
          "durationTicks": 7,
          "midi": 60,
          "name": "C4",
          "ticks": 16377,
          "time": 190.43023255813952,
          "velocity": 0.3700787401574803
        },
        {
          "duration": 0.3837209302325846,
          "durationTicks": 33,
          "midi": 79,
          "name": "G5",
          "ticks": 16377,
          "time": 190.43023255813952,
          "velocity": 0.4330708661417323
        },
        {
          "duration": 0.05813953488373613,
          "durationTicks": 5,
          "midi": 95,
          "name": "B6",
          "ticks": 16377,
          "time": 190.43023255813952,
          "velocity": 0.10236220472440945
        },
        {
          "duration": 0.10465116279067388,
          "durationTicks": 9,
          "midi": 67,
          "name": "G4",
          "ticks": 16378,
          "time": 190.4418604651163,
          "velocity": 0.41732283464566927
        },
        {
          "duration": 0.034883720930224626,
          "durationTicks": 3,
          "midi": 53,
          "name": "F3",
          "ticks": 16380,
          "time": 190.46511627906978,
          "velocity": 0.23622047244094488
        },
        {
          "duration": 0.034883720930224626,
          "durationTicks": 3,
          "midi": 85,
          "name": "C#6",
          "ticks": 16382,
          "time": 190.48837209302326,
          "velocity": 0.10236220472440945
        },
        {
          "duration": 0.13953488372092693,
          "durationTicks": 12,
          "midi": 65,
          "name": "F4",
          "ticks": 16384,
          "time": 190.51162790697674,
          "velocity": 0.3779527559055118
        },
        {
          "duration": 0.023255813953483084,
          "durationTicks": 2,
          "midi": 61,
          "name": "C#4",
          "ticks": 16386,
          "time": 190.53488372093022,
          "velocity": 0.36220472440944884
        },
        {
          "duration": 0.2674418604651123,
          "durationTicks": 23,
          "midi": 69,
          "name": "A4",
          "ticks": 16386,
          "time": 190.53488372093022,
          "velocity": 0.41732283464566927
        },
        {
          "duration": 0.03488372093025305,
          "durationTicks": 3,
          "midi": 72,
          "name": "C5",
          "ticks": 16387,
          "time": 190.54651162790697,
          "velocity": 0.2047244094488189
        },
        {
          "duration": 0.04651162790699459,
          "durationTicks": 4,
          "midi": 45,
          "name": "A2",
          "ticks": 16388,
          "time": 190.5581395348837,
          "velocity": 0.2125984251968504
        },
        {
          "duration": 0.19767441860466306,
          "durationTicks": 17,
          "midi": 62,
          "name": "D4",
          "ticks": 16388,
          "time": 190.5581395348837,
          "velocity": 0.3937007874015748
        },
        {
          "duration": 0.06976744186044925,
          "durationTicks": 6,
          "midi": 87,
          "name": "D#6",
          "ticks": 16389,
          "time": 190.56976744186048,
          "velocity": 0.08661417322834646
        },
        {
          "duration": 0.034883720930224626,
          "durationTicks": 3,
          "midi": 53,
          "name": "F3",
          "ticks": 16391,
          "time": 190.59302325581396,
          "velocity": 0.1968503937007874
        },
        {
          "duration": 0.30232558139533694,
          "durationTicks": 26,
          "midi": 77,
          "name": "F5",
          "ticks": 16392,
          "time": 190.6046511627907,
          "velocity": 0.48031496062992124
        },
        {
          "duration": 0.09302325581396076,
          "durationTicks": 8,
          "midi": 72,
          "name": "C5",
          "ticks": 16393,
          "time": 190.61627906976744,
          "velocity": 0.36220472440944884
        },
        {
          "duration": 0.17441860465117998,
          "durationTicks": 15,
          "midi": 53,
          "name": "F3",
          "ticks": 16395,
          "time": 190.63953488372093,
          "velocity": 0.3228346456692913
        },
        {
          "duration": 0.11627906976744384,
          "durationTicks": 10,
          "midi": 90,
          "name": "F#6",
          "ticks": 16395,
          "time": 190.63953488372093,
          "velocity": 0.14173228346456693
        },
        {
          "duration": 0.1046511627907023,
          "durationTicks": 9,
          "midi": 65,
          "name": "F4",
          "ticks": 16397,
          "time": 190.6627906976744,
          "velocity": 0.41732283464566927
        },
        {
          "duration": 0.034883720930224626,
          "durationTicks": 3,
          "midi": 87,
          "name": "D#6",
          "ticks": 16401,
          "time": 190.7093023255814,
          "velocity": 0.07086614173228346
        },
        {
          "duration": 0.023255813953483084,
          "durationTicks": 2,
          "midi": 45,
          "name": "A2",
          "ticks": 16405,
          "time": 190.75581395348837,
          "velocity": 0.2440944881889764
        },
        {
          "duration": 0.11627906976744384,
          "durationTicks": 10,
          "midi": 71,
          "name": "B4",
          "ticks": 16405,
          "time": 190.75581395348837,
          "velocity": 0.2677165354330709
        },
        {
          "duration": 0.22093023255814614,
          "durationTicks": 19,
          "midi": 59,
          "name": "B3",
          "ticks": 16406,
          "time": 190.7674418604651,
          "velocity": 0.3543307086614173
        },
        {
          "duration": 0.2325581395348877,
          "durationTicks": 20,
          "midi": 64,
          "name": "E4",
          "ticks": 16406,
          "time": 190.7674418604651,
          "velocity": 0.41732283464566927
        },
        {
          "duration": 0.2093023255814046,
          "durationTicks": 18,
          "midi": 67,
          "name": "G4",
          "ticks": 16407,
          "time": 190.77906976744185,
          "velocity": 0.3228346456692913
        },
        {
          "duration": 0.03488372093025305,
          "durationTicks": 3,
          "midi": 90,
          "name": "F#6",
          "ticks": 16407,
          "time": 190.77906976744185,
          "velocity": 0.07086614173228346
        },
        {
          "duration": 0.12790697674418539,
          "durationTicks": 11,
          "midi": 87,
          "name": "D#6",
          "ticks": 16409,
          "time": 190.80232558139534,
          "velocity": 0.16535433070866143
        },
        {
          "duration": 0.4186046511627808,
          "durationTicks": 36,
          "midi": 88,
          "name": "E6",
          "ticks": 16411,
          "time": 190.82558139534885,
          "velocity": 0.3858267716535433
        },
        {
          "duration": 0.15116279069766847,
          "durationTicks": 13,
          "midi": 47,
          "name": "B2",
          "ticks": 16414,
          "time": 190.86046511627907,
          "velocity": 0.18110236220472442
        },
        {
          "duration": 0.13953488372092693,
          "durationTicks": 12,
          "midi": 89,
          "name": "F6",
          "ticks": 16421,
          "time": 190.9418604651163,
          "velocity": 0.2204724409448819
        },
        {
          "duration": 0.05813953488370771,
          "durationTicks": 5,
          "midi": 87,
          "name": "D#6",
          "ticks": 16422,
          "time": 190.95348837209303,
          "velocity": 0.07086614173228346
        },
        {
          "duration": 0.1860465116278931,
          "durationTicks": 16,
          "midi": 72,
          "name": "C5",
          "ticks": 16423,
          "time": 190.96511627906978,
          "velocity": 0.3779527559055118
        },
        {
          "duration": 0.32558139534882,
          "durationTicks": 28,
          "midi": 77,
          "name": "F5",
          "ticks": 16423,
          "time": 190.96511627906978,
          "velocity": 0.48031496062992124
        },
        {
          "duration": 0.24418604651162923,
          "durationTicks": 21,
          "midi": 84,
          "name": "C6",
          "ticks": 16423,
          "time": 190.96511627906978,
          "velocity": 0.4015748031496063
        },
        {
          "duration": 0.5232558139534831,
          "durationTicks": 45,
          "midi": 79,
          "name": "G5",
          "ticks": 16424,
          "time": 190.97674418604652,
          "velocity": 0.4330708661417323
        },
        {
          "duration": 0.2325581395348877,
          "durationTicks": 20,
          "midi": 60,
          "name": "C4",
          "ticks": 16425,
          "time": 190.98837209302326,
          "velocity": 0.4330708661417323
        },
        {
          "duration": 0.25581395348837077,
          "durationTicks": 22,
          "midi": 69,
          "name": "A4",
          "ticks": 16425,
          "time": 190.98837209302326,
          "velocity": 0.33858267716535434
        },
        {
          "duration": 0.11627906976744384,
          "durationTicks": 10,
          "midi": 90,
          "name": "F#6",
          "ticks": 16425,
          "time": 190.98837209302326,
          "velocity": 0.13385826771653545
        },
        {
          "duration": 0.2093023255814046,
          "durationTicks": 18,
          "midi": 65,
          "name": "F4",
          "ticks": 16426,
          "time": 191,
          "velocity": 0.4015748031496063
        },
        {
          "duration": 0.2674418604651123,
          "durationTicks": 23,
          "midi": 82,
          "name": "A#5",
          "ticks": 16443,
          "time": 191.19767441860466,
          "velocity": 0.4409448818897638
        },
        {
          "duration": 0.023255813953483084,
          "durationTicks": 2,
          "midi": 45,
          "name": "A2",
          "ticks": 16444,
          "time": 191.2093023255814,
          "velocity": 0.31496062992125984
        },
        {
          "duration": 0.04651162790696617,
          "durationTicks": 4,
          "midi": 55,
          "name": "G3",
          "ticks": 16445,
          "time": 191.22093023255815,
          "velocity": 0.2125984251968504
        },
        {
          "duration": 0.06976744186044925,
          "durationTicks": 6,
          "midi": 62,
          "name": "D4",
          "ticks": 16445,
          "time": 191.22093023255815,
          "velocity": 0.3779527559055118
        },
        {
          "duration": 0.034883720930224626,
          "durationTicks": 3,
          "midi": 76,
          "name": "E5",
          "ticks": 16445,
          "time": 191.22093023255815,
          "velocity": 0.2047244094488189
        },
        {
          "duration": 0.1860465116278931,
          "durationTicks": 16,
          "midi": 90,
          "name": "F#6",
          "ticks": 16445,
          "time": 191.22093023255815,
          "velocity": 0.16535433070866143
        },
        {
          "duration": 0.034883720930224626,
          "durationTicks": 3,
          "midi": 95,
          "name": "B6",
          "ticks": 16445,
          "time": 191.22093023255815,
          "velocity": 0.09448818897637795
        },
        {
          "duration": 0.22093023255814614,
          "durationTicks": 19,
          "midi": 67,
          "name": "G4",
          "ticks": 16446,
          "time": 191.2325581395349,
          "velocity": 0.4015748031496063
        },
        {
          "duration": 0.023255813953483084,
          "durationTicks": 2,
          "midi": 44,
          "name": "G#2",
          "ticks": 16448,
          "time": 191.25581395348837,
          "velocity": 0.3779527559055118
        },
        {
          "duration": 0.023255813953483084,
          "durationTicks": 2,
          "midi": 57,
          "name": "A3",
          "ticks": 16448,
          "time": 191.25581395348837,
          "velocity": 0.28346456692913385
        },
        {
          "duration": 0.17441860465117998,
          "durationTicks": 15,
          "midi": 70,
          "name": "A#4",
          "ticks": 16449,
          "time": 191.2674418604651,
          "velocity": 0.25984251968503935
        },
        {
          "duration": 0.09302325581396076,
          "durationTicks": 8,
          "midi": 88,
          "name": "E6",
          "ticks": 16449,
          "time": 191.2674418604651,
          "velocity": 0.1968503937007874
        },
        {
          "duration": 0.09302325581396076,
          "durationTicks": 8,
          "midi": 43,
          "name": "G2",
          "ticks": 16450,
          "time": 191.27906976744185,
          "velocity": 0.31496062992125984
        },
        {
          "duration": 0.03488372093025305,
          "durationTicks": 3,
          "midi": 58,
          "name": "A#3",
          "ticks": 16450,
          "time": 191.27906976744185,
          "velocity": 0.25984251968503935
        },
        {
          "duration": 0.16279069767443843,
          "durationTicks": 14,
          "midi": 64,
          "name": "E4",
          "ticks": 16450,
          "time": 191.27906976744185,
          "velocity": 0.3937007874015748
        },
        {
          "duration": 0.06976744186047767,
          "durationTicks": 6,
          "midi": 95,
          "name": "B6",
          "ticks": 16450,
          "time": 191.27906976744185,
          "velocity": 0.13385826771653545
        },
        {
          "duration": 0.17441860465117998,
          "durationTicks": 15,
          "midi": 83,
          "name": "B5",
          "ticks": 16452,
          "time": 191.30232558139534,
          "velocity": 0.2125984251968504
        },
        {
          "duration": 0.023255813953483084,
          "durationTicks": 2,
          "midi": 58,
          "name": "A#3",
          "ticks": 16454,
          "time": 191.32558139534885,
          "velocity": 0.29133858267716534
        },
        {
          "duration": 0.023255813953483084,
          "durationTicks": 2,
          "midi": 77,
          "name": "F5",
          "ticks": 16454,
          "time": 191.32558139534885,
          "velocity": 0.28346456692913385
        },
        {
          "duration": 0.2674418604651123,
          "durationTicks": 23,
          "midi": 89,
          "name": "F6",
          "ticks": 16454,
          "time": 191.32558139534885,
          "velocity": 0.48031496062992124
        },
        {
          "duration": 0.023255813953483084,
          "durationTicks": 2,
          "midi": 57,
          "name": "A3",
          "ticks": 16456,
          "time": 191.34883720930233,
          "velocity": 0.2440944881889764
        },
        {
          "duration": 0.08139534883721922,
          "durationTicks": 7,
          "midi": 58,
          "name": "A#3",
          "ticks": 16458,
          "time": 191.37209302325581,
          "velocity": 0.3858267716535433
        },
        {
          "duration": 0.1046511627907023,
          "durationTicks": 9,
          "midi": 43,
          "name": "G2",
          "ticks": 16459,
          "time": 191.38372093023256,
          "velocity": 0.3543307086614173
        },
        {
          "duration": 0.12790697674418539,
          "durationTicks": 11,
          "midi": 77,
          "name": "F5",
          "ticks": 16463,
          "time": 191.43023255813952,
          "velocity": 0.49606299212598426
        },
        {
          "duration": 0.03488372093025305,
          "durationTicks": 3,
          "midi": 90,
          "name": "F#6",
          "ticks": 16463,
          "time": 191.43023255813952,
          "velocity": 0.10236220472440945
        },
        {
          "duration": 0.04651162790696617,
          "durationTicks": 4,
          "midi": 65,
          "name": "F4",
          "ticks": 16464,
          "time": 191.4418604651163,
          "velocity": 0.3937007874015748
        },
        {
          "duration": 0.10465116279067388,
          "durationTicks": 9,
          "midi": 72,
          "name": "C5",
          "ticks": 16464,
          "time": 191.4418604651163,
          "velocity": 0.3543307086614173
        },
        {
          "duration": 0.22093023255811772,
          "durationTicks": 19,
          "midi": 81,
          "name": "A5",
          "ticks": 16464,
          "time": 191.4418604651163,
          "velocity": 0.25984251968503935
        },
        {
          "duration": 0.06976744186044925,
          "durationTicks": 6,
          "midi": 88,
          "name": "E6",
          "ticks": 16464,
          "time": 191.4418604651163,
          "velocity": 0.25984251968503935
        },
        {
          "duration": 0.13953488372092693,
          "durationTicks": 12,
          "midi": 60,
          "name": "C4",
          "ticks": 16465,
          "time": 191.45348837209303,
          "velocity": 0.4330708661417323
        },
        {
          "duration": 0.3139534883720785,
          "durationTicks": 27,
          "midi": 67,
          "name": "G4",
          "ticks": 16467,
          "time": 191.47674418604652,
          "velocity": 0.47244094488188976
        },
        {
          "duration": 0.04651162790696617,
          "durationTicks": 4,
          "midi": 97,
          "name": "C#7",
          "ticks": 16468,
          "time": 191.48837209302326,
          "velocity": 0.07086614173228346
        },
        {
          "duration": 0.05813953488370771,
          "durationTicks": 5,
          "midi": 43,
          "name": "G2",
          "ticks": 16469,
          "time": 191.5,
          "velocity": 0.2992125984251969
        },
        {
          "duration": 0.034883720930224626,
          "durationTicks": 3,
          "midi": 65,
          "name": "F4",
          "ticks": 16469,
          "time": 191.5,
          "velocity": 0.3543307086614173
        },
        {
          "duration": 0.05813953488370771,
          "durationTicks": 5,
          "midi": 83,
          "name": "B5",
          "ticks": 16469,
          "time": 191.5,
          "velocity": 0.11023622047244094
        },
        {
          "duration": 0.023255813953483084,
          "durationTicks": 2,
          "midi": 69,
          "name": "A4",
          "ticks": 16472,
          "time": 191.53488372093022,
          "velocity": 0.31496062992125984
        },
        {
          "duration": 0.2325581395348877,
          "durationTicks": 20,
          "midi": 72,
          "name": "C5",
          "ticks": 16474,
          "time": 191.5581395348837,
          "velocity": 0.4645669291338583
        },
        {
          "duration": 0.2093023255814046,
          "durationTicks": 18,
          "midi": 76,
          "name": "E5",
          "ticks": 16474,
          "time": 191.5581395348837,
          "velocity": 0.47244094488188976
        },
        {
          "duration": 0.2325581395348877,
          "durationTicks": 20,
          "midi": 91,
          "name": "G6",
          "ticks": 16474,
          "time": 191.5581395348837,
          "velocity": 0.2047244094488189
        },
        {
          "duration": 0.04651162790699459,
          "durationTicks": 4,
          "midi": 95,
          "name": "B6",
          "ticks": 16474,
          "time": 191.5581395348837,
          "velocity": 0.10236220472440945
        },
        {
          "duration": 0.023255813953483084,
          "durationTicks": 2,
          "midi": 57,
          "name": "A3",
          "ticks": 16477,
          "time": 191.59302325581396,
          "velocity": 0.33858267716535434
        },
        {
          "duration": 0.0813953488371908,
          "durationTicks": 7,
          "midi": 60,
          "name": "C4",
          "ticks": 16478,
          "time": 191.6046511627907,
          "velocity": 0.36220472440944884
        },
        {
          "duration": 0.04651162790696617,
          "durationTicks": 4,
          "midi": 43,
          "name": "G2",
          "ticks": 16479,
          "time": 191.61627906976744,
          "velocity": 0.1889763779527559
        },
        {
          "duration": 0.034883720930224626,
          "durationTicks": 3,
          "midi": 55,
          "name": "G3",
          "ticks": 16480,
          "time": 191.62790697674419,
          "velocity": 0.2204724409448819
        },
        {
          "duration": 0.023255813953483084,
          "durationTicks": 2,
          "midi": 44,
          "name": "G#2",
          "ticks": 16483,
          "time": 191.6627906976744,
          "velocity": 0.2283464566929134
        },
        {
          "duration": 0.22093023255814614,
          "durationTicks": 19,
          "midi": 53,
          "name": "F3",
          "ticks": 16483,
          "time": 191.6627906976744,
          "velocity": 0.36220472440944884
        },
        {
          "duration": 0.18604651162792152,
          "durationTicks": 16,
          "midi": 87,
          "name": "D#6",
          "ticks": 16484,
          "time": 191.67441860465115,
          "velocity": 0.1889763779527559
        },
        {
          "duration": 0.08139534883721922,
          "durationTicks": 7,
          "midi": 89,
          "name": "F6",
          "ticks": 16484,
          "time": 191.67441860465115,
          "velocity": 0.11023622047244094
        },
        {
          "duration": 0.04651162790699459,
          "durationTicks": 4,
          "midi": 59,
          "name": "B3",
          "ticks": 16485,
          "time": 191.6860465116279,
          "velocity": 0.3543307086614173
        },
        {
          "duration": 0.03488372093025305,
          "durationTicks": 3,
          "midi": 65,
          "name": "F4",
          "ticks": 16485,
          "time": 191.6860465116279,
          "velocity": 0.49606299212598426
        },
        {
          "duration": 0.2093023255814046,
          "durationTicks": 18,
          "midi": 83,
          "name": "B5",
          "ticks": 16485,
          "time": 191.6860465116279,
          "velocity": 0.2677165354330709
        },
        {
          "duration": 0.05813953488370771,
          "durationTicks": 5,
          "midi": 41,
          "name": "F2",
          "ticks": 16486,
          "time": 191.69767441860466,
          "velocity": 0.14960629921259844
        },
        {
          "duration": 0.30232558139533694,
          "durationTicks": 26,
          "midi": 81,
          "name": "A5",
          "ticks": 16488,
          "time": 191.72093023255815,
          "velocity": 0.2677165354330709
        },
        {
          "duration": 0.034883720930224626,
          "durationTicks": 3,
          "midi": 65,
          "name": "F4",
          "ticks": 16489,
          "time": 191.7325581395349,
          "velocity": 0.4094488188976378
        },
        {
          "duration": 0.16279069767441,
          "durationTicks": 14,
          "midi": 77,
          "name": "F5",
          "ticks": 16491,
          "time": 191.75581395348837,
          "velocity": 0.5039370078740157
        },
        {
          "duration": 0.04651162790699459,
          "durationTicks": 4,
          "midi": 59,
          "name": "B3",
          "ticks": 16493,
          "time": 191.77906976744185,
          "velocity": 0.29133858267716534
        },
        {
          "duration": 0.03488372093025305,
          "durationTicks": 3,
          "midi": 65,
          "name": "F4",
          "ticks": 16494,
          "time": 191.7906976744186,
          "velocity": 0.3937007874015748
        },
        {
          "duration": 0.13953488372092693,
          "durationTicks": 12,
          "midi": 69,
          "name": "A4",
          "ticks": 16494,
          "time": 191.7906976744186,
          "velocity": 0.3937007874015748
        },
        {
          "duration": 0.04651162790696617,
          "durationTicks": 4,
          "midi": 71,
          "name": "B4",
          "ticks": 16496,
          "time": 191.8139534883721,
          "velocity": 0.2992125984251969
        },
        {
          "duration": 0.034883720930224626,
          "durationTicks": 3,
          "midi": 59,
          "name": "B3",
          "ticks": 16498,
          "time": 191.8372093023256,
          "velocity": 0.2677165354330709
        },
        {
          "duration": 0.05813953488370771,
          "durationTicks": 5,
          "midi": 65,
          "name": "F4",
          "ticks": 16498,
          "time": 191.8372093023256,
          "velocity": 0.3858267716535433
        },
        {
          "duration": 0.023255813953483084,
          "durationTicks": 2,
          "midi": 52,
          "name": "E3",
          "ticks": 16502,
          "time": 191.88372093023256,
          "velocity": 0.23622047244094488
        },
        {
          "duration": 0.6976744186046631,
          "durationTicks": 60,
          "midi": 72,
          "name": "C5",
          "ticks": 16502,
          "time": 191.88372093023256,
          "velocity": 0.5039370078740157
        },
        {
          "duration": 0.06976744186047767,
          "durationTicks": 6,
          "midi": 87,
          "name": "D#6",
          "ticks": 16502,
          "time": 191.88372093023256,
          "velocity": 0.13385826771653545
        },
        {
          "duration": 0.4767441860465169,
          "durationTicks": 41,
          "midi": 88,
          "name": "E6",
          "ticks": 16502,
          "time": 191.88372093023256,
          "velocity": 0.33070866141732286
        },
        {
          "duration": 0.034883720930224626,
          "durationTicks": 3,
          "midi": 44,
          "name": "G#2",
          "ticks": 16503,
          "time": 191.8953488372093,
          "velocity": 0.25984251968503935
        },
        {
          "duration": 0.4767441860465169,
          "durationTicks": 41,
          "midi": 60,
          "name": "C4",
          "ticks": 16503,
          "time": 191.8953488372093,
          "velocity": 0.4409448818897638
        },
        {
          "duration": 0.023255813953483084,
          "durationTicks": 2,
          "midi": 66,
          "name": "F#4",
          "ticks": 16503,
          "time": 191.8953488372093,
          "velocity": 0.3779527559055118
        },
        {
          "duration": 0.08139534883721922,
          "durationTicks": 7,
          "midi": 95,
          "name": "B6",
          "ticks": 16503,
          "time": 191.8953488372093,
          "velocity": 0.14960629921259844
        },
        {
          "duration": 0.023255813953483084,
          "durationTicks": 2,
          "midi": 54,
          "name": "F#3",
          "ticks": 16504,
          "time": 191.90697674418604,
          "velocity": 0.2755905511811024
        },
        {
          "duration": 0.22093023255814614,
          "durationTicks": 19,
          "midi": 76,
          "name": "E5",
          "ticks": 16504,
          "time": 191.90697674418604,
          "velocity": 0.47244094488188976
        },
        {
          "duration": 0.2674418604651123,
          "durationTicks": 23,
          "midi": 79,
          "name": "G5",
          "ticks": 16504,
          "time": 191.90697674418604,
          "velocity": 0.2283464566929134
        },
        {
          "duration": 0.2790697674418823,
          "durationTicks": 24,
          "midi": 67,
          "name": "G4",
          "ticks": 16505,
          "time": 191.91860465116278,
          "velocity": 0.4645669291338583
        },
        {
          "duration": 0.1511627906976969,
          "durationTicks": 13,
          "midi": 85,
          "name": "C#6",
          "ticks": 16505,
          "time": 191.91860465116278,
          "velocity": 0.08661417322834646
        },
        {
          "duration": 0.04651162790699459,
          "durationTicks": 4,
          "midi": 43,
          "name": "G2",
          "ticks": 16506,
          "time": 191.93023255813952,
          "velocity": 0.28346456692913385
        },
        {
          "duration": 0.034883720930224626,
          "durationTicks": 3,
          "midi": 42,
          "name": "F#2",
          "ticks": 16510,
          "time": 191.97674418604652,
          "velocity": 0.2047244094488189
        },
        {
          "duration": 0.034883720930224626,
          "durationTicks": 3,
          "midi": 55,
          "name": "G3",
          "ticks": 16513,
          "time": 192.01162790697674,
          "velocity": 0.2677165354330709
        },
        {
          "duration": 0.06976744186047767,
          "durationTicks": 6,
          "midi": 43,
          "name": "G2",
          "ticks": 16516,
          "time": 192.04651162790697,
          "velocity": 0.18110236220472442
        },
        {
          "duration": 0.023255813953511506,
          "durationTicks": 2,
          "midi": 57,
          "name": "A3",
          "ticks": 16517,
          "time": 192.0581395348837,
          "velocity": 0.31496062992125984
        },
        {
          "duration": 0.16279069767441,
          "durationTicks": 14,
          "midi": 81,
          "name": "A5",
          "ticks": 16519,
          "time": 192.08139534883722,
          "velocity": 0.29133858267716534
        },
        {
          "duration": 0.023255813953483084,
          "durationTicks": 2,
          "midi": 55,
          "name": "G3",
          "ticks": 16520,
          "time": 192.09302325581396,
          "velocity": 0.2440944881889764
        },
        {
          "duration": 0.04651162790696617,
          "durationTicks": 4,
          "midi": 69,
          "name": "A4",
          "ticks": 16520,
          "time": 192.09302325581396,
          "velocity": 0.2440944881889764
        },
        {
          "duration": 0.7093023255814046,
          "durationTicks": 61,
          "midi": 74,
          "name": "D5",
          "ticks": 16521,
          "time": 192.1046511627907,
          "velocity": 0.5039370078740157
        },
        {
          "duration": 0.023255813953483084,
          "durationTicks": 2,
          "midi": 42,
          "name": "F#2",
          "ticks": 16522,
          "time": 192.11627906976744,
          "velocity": 0.25984251968503935
        },
        {
          "duration": 0.5813953488372192,
          "durationTicks": 50,
          "midi": 77,
          "name": "F5",
          "ticks": 16522,
          "time": 192.11627906976744,
          "velocity": 0.49606299212598426
        },
        {
          "duration": 0.3139534883720785,
          "durationTicks": 27,
          "midi": 93,
          "name": "A6",
          "ticks": 16522,
          "time": 192.11627906976744,
          "velocity": 0.29133858267716534
        },
        {
          "duration": 0.04651162790696617,
          "durationTicks": 4,
          "midi": 96,
          "name": "C7",
          "ticks": 16523,
          "time": 192.12790697674419,
          "velocity": 0.11023622047244094
        },
        {
          "duration": 0.13953488372092693,
          "durationTicks": 12,
          "midi": 43,
          "name": "G2",
          "ticks": 16524,
          "time": 192.13953488372093,
          "velocity": 0.3779527559055118
        },
        {
          "duration": 0.11627906976744384,
          "durationTicks": 10,
          "midi": 83,
          "name": "B5",
          "ticks": 16524,
          "time": 192.13953488372093,
          "velocity": 0.18110236220472442
        },
        {
          "duration": 0.05813953488373613,
          "durationTicks": 5,
          "midi": 90,
          "name": "F#6",
          "ticks": 16524,
          "time": 192.13953488372093,
          "velocity": 0.11023622047244094
        },
        {
          "duration": 0.08139534883721922,
          "durationTicks": 7,
          "midi": 69,
          "name": "A4",
          "ticks": 16525,
          "time": 192.15116279069767,
          "velocity": 0.14173228346456693
        },
        {
          "duration": 0.25581395348837077,
          "durationTicks": 22,
          "midi": 85,
          "name": "C#6",
          "ticks": 16526,
          "time": 192.1627906976744,
          "velocity": 0.14173228346456693
        },
        {
          "duration": 0.09302325581393234,
          "durationTicks": 8,
          "midi": 65,
          "name": "F4",
          "ticks": 16529,
          "time": 192.19767441860466,
          "velocity": 0.1889763779527559
        },
        {
          "duration": 0.04651162790696617,
          "durationTicks": 4,
          "midi": 79,
          "name": "G5",
          "ticks": 16531,
          "time": 192.22093023255815,
          "velocity": 0.14173228346456693
        },
        {
          "duration": 0.04651162790696617,
          "durationTicks": 4,
          "midi": 50,
          "name": "D3",
          "ticks": 16532,
          "time": 192.2325581395349,
          "velocity": 0.15748031496062992
        },
        {
          "duration": 0.034883720930224626,
          "durationTicks": 3,
          "midi": 82,
          "name": "A#5",
          "ticks": 16532,
          "time": 192.2325581395349,
          "velocity": 0.14173228346456693
        },
        {
          "duration": 0.06976744186044925,
          "durationTicks": 6,
          "midi": 90,
          "name": "F#6",
          "ticks": 16532,
          "time": 192.2325581395349,
          "velocity": 0.11811023622047244
        },
        {
          "duration": 0.24418604651162923,
          "durationTicks": 21,
          "midi": 81,
          "name": "A5",
          "ticks": 16534,
          "time": 192.25581395348837,
          "velocity": 0.2992125984251969
        },
        {
          "duration": 0.05813953488373613,
          "durationTicks": 5,
          "midi": 83,
          "name": "B5",
          "ticks": 16535,
          "time": 192.2674418604651,
          "velocity": 0.1889763779527559
        },
        {
          "duration": 0.06976744186047767,
          "durationTicks": 6,
          "midi": 67,
          "name": "G4",
          "ticks": 16536,
          "time": 192.27906976744185,
          "velocity": 0.09448818897637795
        },
        {
          "duration": 0.06976744186047767,
          "durationTicks": 6,
          "midi": 43,
          "name": "G2",
          "ticks": 16537,
          "time": 192.2906976744186,
          "velocity": 0.30708661417322836
        },
        {
          "duration": 0.023255813953483084,
          "durationTicks": 2,
          "midi": 50,
          "name": "D3",
          "ticks": 16541,
          "time": 192.3372093023256,
          "velocity": 0.2755905511811024
        },
        {
          "duration": 0.4651162790697754,
          "durationTicks": 40,
          "midi": 65,
          "name": "F4",
          "ticks": 16542,
          "time": 192.34883720930233,
          "velocity": 0.48031496062992124
        },
        {
          "duration": 0.04651162790696617,
          "durationTicks": 4,
          "midi": 83,
          "name": "B5",
          "ticks": 16542,
          "time": 192.34883720930233,
          "velocity": 0.1889763779527559
        },
        {
          "duration": 0.05813953488370771,
          "durationTicks": 5,
          "midi": 91,
          "name": "G6",
          "ticks": 16542,
          "time": 192.34883720930233,
          "velocity": 0.14173228346456693
        },
        {
          "duration": 0.2325581395348877,
          "durationTicks": 20,
          "midi": 69,
          "name": "A4",
          "ticks": 16543,
          "time": 192.36046511627907,
          "velocity": 0.18110236220472442
        },
        {
          "duration": 0.2093023255814046,
          "durationTicks": 18,
          "midi": 87,
          "name": "D#6",
          "ticks": 16543,
          "time": 192.36046511627907,
          "velocity": 0.14960629921259844
        },
        {
          "duration": 0.034883720930224626,
          "durationTicks": 3,
          "midi": 90,
          "name": "F#6",
          "ticks": 16545,
          "time": 192.38372093023256,
          "velocity": 0.07086614173228346
        },
        {
          "duration": 0.17441860465117998,
          "durationTicks": 15,
          "midi": 62,
          "name": "D4",
          "ticks": 16546,
          "time": 192.3953488372093,
          "velocity": 0.2992125984251969
        },
        {
          "duration": 0.2674418604651123,
          "durationTicks": 23,
          "midi": 88,
          "name": "E6",
          "ticks": 16546,
          "time": 192.3953488372093,
          "velocity": 0.1968503937007874
        },
        {
          "duration": 0.04651162790699459,
          "durationTicks": 4,
          "midi": 83,
          "name": "B5",
          "ticks": 16548,
          "time": 192.41860465116278,
          "velocity": 0.08661417322834646
        },
        {
          "duration": 0.10465116279067388,
          "durationTicks": 9,
          "midi": 95,
          "name": "B6",
          "ticks": 16550,
          "time": 192.4418604651163,
          "velocity": 0.11023622047244094
        },
        {
          "duration": 0.04651162790696617,
          "durationTicks": 4,
          "midi": 85,
          "name": "C#6",
          "ticks": 16551,
          "time": 192.45348837209303,
          "velocity": 0.09448818897637795
        },
        {
          "duration": 0.023255813953483084,
          "durationTicks": 2,
          "midi": 53,
          "name": "F3",
          "ticks": 16552,
          "time": 192.46511627906978,
          "velocity": 0.28346456692913385
        },
        {
          "duration": 0.1046511627907023,
          "durationTicks": 9,
          "midi": 38,
          "name": "D2",
          "ticks": 16553,
          "time": 192.47674418604652,
          "velocity": 0.2204724409448819
        },
        {
          "duration": 0.06976744186047767,
          "durationTicks": 6,
          "midi": 91,
          "name": "G6",
          "ticks": 16558,
          "time": 192.53488372093022,
          "velocity": 0.07874015748031496
        },
        {
          "duration": 0.04651162790699459,
          "durationTicks": 4,
          "midi": 85,
          "name": "C#6",
          "ticks": 16559,
          "time": 192.54651162790697,
          "velocity": 0.11811023622047244
        },
        {
          "duration": 0.034883720930224626,
          "durationTicks": 3,
          "midi": 93,
          "name": "A6",
          "ticks": 16561,
          "time": 192.56976744186048,
          "velocity": 0.11811023622047244
        },
        {
          "duration": 0.2325581395348877,
          "durationTicks": 20,
          "midi": 71,
          "name": "B4",
          "ticks": 16562,
          "time": 192.58139534883722,
          "velocity": 0.30708661417322836
        },
        {
          "duration": 0.19767441860463464,
          "durationTicks": 17,
          "midi": 59,
          "name": "B3",
          "ticks": 16563,
          "time": 192.59302325581396,
          "velocity": 0.3228346456692913
        },
        {
          "duration": 0.12790697674418539,
          "durationTicks": 11,
          "midi": 85,
          "name": "C#6",
          "ticks": 16564,
          "time": 192.6046511627907,
          "velocity": 0.3779527559055118
        },
        {
          "duration": 0.04651162790696617,
          "durationTicks": 4,
          "midi": 40,
          "name": "E2",
          "ticks": 16565,
          "time": 192.61627906976744,
          "velocity": 0.1968503937007874
        },
        {
          "duration": 0.12790697674418539,
          "durationTicks": 11,
          "midi": 53,
          "name": "F3",
          "ticks": 16566,
          "time": 192.62790697674419,
          "velocity": 0.3543307086614173
        },
        {
          "duration": 0.13953488372092693,
          "durationTicks": 12,
          "midi": 84,
          "name": "C6",
          "ticks": 16566,
          "time": 192.62790697674419,
          "velocity": 0.3937007874015748
        },
        {
          "duration": 0.06976744186047767,
          "durationTicks": 6,
          "midi": 87,
          "name": "D#6",
          "ticks": 16566,
          "time": 192.62790697674419,
          "velocity": 0.2283464566929134
        },
        {
          "duration": 0.06976744186047767,
          "durationTicks": 6,
          "midi": 95,
          "name": "B6",
          "ticks": 16566,
          "time": 192.62790697674419,
          "velocity": 0.14173228346456693
        },
        {
          "duration": 0.06976744186047767,
          "durationTicks": 6,
          "midi": 83,
          "name": "B5",
          "ticks": 16567,
          "time": 192.63953488372093,
          "velocity": 0.4330708661417323
        },
        {
          "duration": 0.1511627906976969,
          "durationTicks": 13,
          "midi": 82,
          "name": "A#5",
          "ticks": 16569,
          "time": 192.6627906976744,
          "velocity": 0.4094488188976378
        },
        {
          "duration": 0.03488372093025305,
          "durationTicks": 3,
          "midi": 80,
          "name": "G#5",
          "ticks": 16571,
          "time": 192.6860465116279,
          "velocity": 0.1968503937007874
        },
        {
          "duration": 0.10465116279067388,
          "durationTicks": 9,
          "midi": 41,
          "name": "F2",
          "ticks": 16572,
          "time": 192.69767441860466,
          "velocity": 0.16535433070866143
        },
        {
          "duration": 0.023255813953483084,
          "durationTicks": 2,
          "midi": 76,
          "name": "E5",
          "ticks": 16572,
          "time": 192.69767441860466,
          "velocity": 0.25196850393700787
        },
        {
          "duration": 0.0813953488371908,
          "durationTicks": 7,
          "midi": 79,
          "name": "G5",
          "ticks": 16572,
          "time": 192.69767441860466,
          "velocity": 0.44881889763779526
        },
        {
          "duration": 0.06976744186044925,
          "durationTicks": 6,
          "midi": 93,
          "name": "A6",
          "ticks": 16572,
          "time": 192.69767441860466,
          "velocity": 0.2204724409448819
        },
        {
          "duration": 0.034883720930224626,
          "durationTicks": 3,
          "midi": 81,
          "name": "A5",
          "ticks": 16574,
          "time": 192.72093023255815,
          "velocity": 0.2677165354330709
        },
        {
          "duration": 0.1046511627907023,
          "durationTicks": 9,
          "midi": 87,
          "name": "D#6",
          "ticks": 16574,
          "time": 192.72093023255815,
          "velocity": 0.12598425196850394
        },
        {
          "duration": 0.0813953488371908,
          "durationTicks": 7,
          "midi": 92,
          "name": "G#6",
          "ticks": 16574,
          "time": 192.72093023255815,
          "velocity": 0.1968503937007874
        },
        {
          "duration": 0.05813953488370771,
          "durationTicks": 5,
          "midi": 76,
          "name": "E5",
          "ticks": 16575,
          "time": 192.7325581395349,
          "velocity": 0.29133858267716534
        },
        {
          "duration": 0.034883720930224626,
          "durationTicks": 3,
          "midi": 78,
          "name": "F#5",
          "ticks": 16578,
          "time": 192.7674418604651,
          "velocity": 0.44881889763779526
        },
        {
          "duration": 0.1046511627907023,
          "durationTicks": 9,
          "midi": 53,
          "name": "F3",
          "ticks": 16581,
          "time": 192.80232558139534,
          "velocity": 0.2440944881889764
        },
        {
          "duration": 0.18604651162792152,
          "durationTicks": 16,
          "midi": 67,
          "name": "G4",
          "ticks": 16581,
          "time": 192.80232558139534,
          "velocity": 0.31496062992125984
        },
        {
          "duration": 0.023255813953511506,
          "durationTicks": 2,
          "midi": 75,
          "name": "D#5",
          "ticks": 16581,
          "time": 192.80232558139534,
          "velocity": 0.2992125984251969
        },
        {
          "duration": 0.23255813953485927,
          "durationTicks": 20,
          "midi": 60,
          "name": "C4",
          "ticks": 16582,
          "time": 192.8139534883721,
          "velocity": 0.4094488188976378
        },
        {
          "duration": 0.034883720930224626,
          "durationTicks": 3,
          "midi": 65,
          "name": "F4",
          "ticks": 16583,
          "time": 192.82558139534885,
          "velocity": 0.29133858267716534
        },
        {
          "duration": 0.023255813953483084,
          "durationTicks": 2,
          "midi": 76,
          "name": "E5",
          "ticks": 16584,
          "time": 192.8372093023256,
          "velocity": 0.4409448818897638
        },
        {
          "duration": 0.09302325581393234,
          "durationTicks": 8,
          "midi": 87,
          "name": "D#6",
          "ticks": 16584,
          "time": 192.8372093023256,
          "velocity": 0.14173228346456693
        },
        {
          "duration": 0.034883720930224626,
          "durationTicks": 3,
          "midi": 77,
          "name": "F5",
          "ticks": 16585,
          "time": 192.84883720930233,
          "velocity": 0.3937007874015748
        },
        {
          "duration": 0.05813953488370771,
          "durationTicks": 5,
          "midi": 86,
          "name": "D6",
          "ticks": 16585,
          "time": 192.84883720930233,
          "velocity": 0.10236220472440945
        },
        {
          "duration": 0.05813953488370771,
          "durationTicks": 5,
          "midi": 43,
          "name": "G2",
          "ticks": 16586,
          "time": 192.86046511627907,
          "velocity": 0.2755905511811024
        },
        {
          "duration": 0.034883720930224626,
          "durationTicks": 3,
          "midi": 75,
          "name": "D#5",
          "ticks": 16586,
          "time": 192.86046511627907,
          "velocity": 0.4645669291338583
        },
        {
          "duration": 0.13953488372092693,
          "durationTicks": 12,
          "midi": 88,
          "name": "E6",
          "ticks": 16586,
          "time": 192.86046511627907,
          "velocity": 0.14173228346456693
        },
        {
          "duration": 0.034883720930224626,
          "durationTicks": 3,
          "midi": 93,
          "name": "A6",
          "ticks": 16586,
          "time": 192.86046511627907,
          "velocity": 0.16535433070866143
        },
        {
          "duration": 0.034883720930224626,
          "durationTicks": 3,
          "midi": 85,
          "name": "C#6",
          "ticks": 16589,
          "time": 192.8953488372093,
          "velocity": 0.09448818897637795
        },
        {
          "duration": 0.034883720930224626,
          "durationTicks": 3,
          "midi": 92,
          "name": "G#6",
          "ticks": 16589,
          "time": 192.8953488372093,
          "velocity": 0.11023622047244094
        },
        {
          "duration": 0.05813953488373613,
          "durationTicks": 5,
          "midi": 91,
          "name": "G6",
          "ticks": 16590,
          "time": 192.90697674418604,
          "velocity": 0.18110236220472442
        },
        {
          "duration": 0.04651162790699459,
          "durationTicks": 4,
          "midi": 42,
          "name": "F#2",
          "ticks": 16591,
          "time": 192.91860465116278,
          "velocity": 0.16535433070866143
        },
        {
          "duration": 0.023255813953511506,
          "durationTicks": 2,
          "midi": 72,
          "name": "C5",
          "ticks": 16591,
          "time": 192.91860465116278,
          "velocity": 0.41732283464566927
        },
        {
          "duration": 0.023255813953483084,
          "durationTicks": 2,
          "midi": 71,
          "name": "B4",
          "ticks": 16593,
          "time": 192.9418604651163,
          "velocity": 0.5039370078740157
        },
        {
          "duration": 0.023255813953483084,
          "durationTicks": 2,
          "midi": 75,
          "name": "D#5",
          "ticks": 16593,
          "time": 192.9418604651163,
          "velocity": 0.25984251968503935
        },
        {
          "duration": 0.0813953488371908,
          "durationTicks": 7,
          "midi": 84,
          "name": "C6",
          "ticks": 16593,
          "time": 192.9418604651163,
          "velocity": 0.08661417322834646
        },
        {
          "duration": 0.05813953488370771,
          "durationTicks": 5,
          "midi": 43,
          "name": "G2",
          "ticks": 16595,
          "time": 192.96511627906978,
          "velocity": 0.2125984251968504
        },
        {
          "duration": 0.034883720930224626,
          "durationTicks": 3,
          "midi": 70,
          "name": "A#4",
          "ticks": 16595,
          "time": 192.96511627906978,
          "velocity": 0.4645669291338583
        },
        {
          "duration": 0.20930232558137618,
          "durationTicks": 18,
          "midi": 94,
          "name": "A#6",
          "ticks": 16595,
          "time": 192.96511627906978,
          "velocity": 0.13385826771653545
        },
        {
          "duration": 0.1860465116278931,
          "durationTicks": 16,
          "midi": 81,
          "name": "A5",
          "ticks": 16596,
          "time": 192.97674418604652,
          "velocity": 0.2677165354330709
        },
        {
          "duration": 0.023255813953483084,
          "durationTicks": 2,
          "midi": 71,
          "name": "B4",
          "ticks": 16598,
          "time": 193,
          "velocity": 0.4094488188976378
        },
        {
          "duration": 0.09302325581396076,
          "durationTicks": 8,
          "midi": 77,
          "name": "F5",
          "ticks": 16598,
          "time": 193,
          "velocity": 0.15748031496062992
        },
        {
          "duration": 0.023255813953483084,
          "durationTicks": 2,
          "midi": 80,
          "name": "G#5",
          "ticks": 16598,
          "time": 193,
          "velocity": 0.2440944881889764
        },
        {
          "duration": 0.12790697674418539,
          "durationTicks": 11,
          "midi": 88,
          "name": "E6",
          "ticks": 16599,
          "time": 193.01162790697674,
          "velocity": 0.2047244094488189
        },
        {
          "duration": 0.9186046511628092,
          "durationTicks": 79,
          "midi": 74,
          "name": "D5",
          "ticks": 16600,
          "time": 193.02325581395348,
          "velocity": 0.4881889763779528
        },
        {
          "duration": 0.38372093023255616,
          "durationTicks": 33,
          "midi": 79,
          "name": "G5",
          "ticks": 16600,
          "time": 193.02325581395348,
          "velocity": 0.4881889763779528
        },
        {
          "duration": 0.023255813953483084,
          "durationTicks": 2,
          "midi": 68,
          "name": "G#4",
          "ticks": 16601,
          "time": 193.03488372093022,
          "velocity": 0.47244094488188976
        },
        {
          "duration": 0.4186046511628092,
          "durationTicks": 36,
          "midi": 70,
          "name": "A#4",
          "ticks": 16601,
          "time": 193.03488372093022,
          "velocity": 0.48031496062992124
        },
        {
          "duration": 0.3720930232558146,
          "durationTicks": 32,
          "midi": 58,
          "name": "A#3",
          "ticks": 16603,
          "time": 193.0581395348837,
          "velocity": 0.3228346456692913
        },
        {
          "duration": 0.30232558139536536,
          "durationTicks": 26,
          "midi": 62,
          "name": "D4",
          "ticks": 16603,
          "time": 193.0581395348837,
          "velocity": 0.31496062992125984
        },
        {
          "duration": 0.023255813953511506,
          "durationTicks": 2,
          "midi": 67,
          "name": "G4",
          "ticks": 16603,
          "time": 193.0581395348837,
          "velocity": 0.36220472440944884
        },
        {
          "duration": 0.06976744186047767,
          "durationTicks": 6,
          "midi": 96,
          "name": "C7",
          "ticks": 16603,
          "time": 193.0581395348837,
          "velocity": 0.11811023622047244
        },
        {
          "duration": 0.034883720930224626,
          "durationTicks": 3,
          "midi": 47,
          "name": "B2",
          "ticks": 16604,
          "time": 193.06976744186048,
          "velocity": 0.1889763779527559
        },
        {
          "duration": 0.023255813953483084,
          "durationTicks": 2,
          "midi": 72,
          "name": "C5",
          "ticks": 16605,
          "time": 193.08139534883722,
          "velocity": 0.2283464566929134
        },
        {
          "duration": 0.22093023255814614,
          "durationTicks": 19,
          "midi": 67,
          "name": "G4",
          "ticks": 16606,
          "time": 193.09302325581396,
          "velocity": 0.3700787401574803
        },
        {
          "duration": 0.05813953488370771,
          "durationTicks": 5,
          "midi": 77,
          "name": "F5",
          "ticks": 16607,
          "time": 193.1046511627907,
          "velocity": 0.14960629921259844
        },
        {
          "duration": 0.04651162790699459,
          "durationTicks": 4,
          "midi": 92,
          "name": "G#6",
          "ticks": 16612,
          "time": 193.1627906976744,
          "velocity": 0.08661417322834646
        },
        {
          "duration": 0.04651162790699459,
          "durationTicks": 4,
          "midi": 84,
          "name": "C6",
          "ticks": 16613,
          "time": 193.17441860465115,
          "velocity": 0.10236220472440945
        },
        {
          "duration": 0.03488372093025305,
          "durationTicks": 3,
          "midi": 88,
          "name": "E6",
          "ticks": 16613,
          "time": 193.17441860465115,
          "velocity": 0.09448818897637795
        },
        {
          "duration": 0.06976744186047767,
          "durationTicks": 6,
          "midi": 93,
          "name": "A6",
          "ticks": 16613,
          "time": 193.17441860465115,
          "velocity": 0.10236220472440945
        },
        {
          "duration": 0.1046511627907023,
          "durationTicks": 9,
          "midi": 77,
          "name": "F5",
          "ticks": 16617,
          "time": 193.22093023255815,
          "velocity": 0.08661417322834646
        },
        {
          "duration": 0.06976744186044925,
          "durationTicks": 6,
          "midi": 81,
          "name": "A5",
          "ticks": 16618,
          "time": 193.2325581395349,
          "velocity": 0.07086614173228346
        },
        {
          "duration": 0.023255813953483084,
          "durationTicks": 2,
          "midi": 63,
          "name": "D#4",
          "ticks": 16639,
          "time": 193.47674418604652,
          "velocity": 0.2755905511811024
        },
        {
          "duration": 0.023255813953483084,
          "durationTicks": 2,
          "midi": 68,
          "name": "G#4",
          "ticks": 16639,
          "time": 193.47674418604652,
          "velocity": 0.25984251968503935
        },
        {
          "duration": 0.04651162790696617,
          "durationTicks": 4,
          "midi": 77,
          "name": "F5",
          "ticks": 16639,
          "time": 193.47674418604652,
          "velocity": 0.14960629921259844
        },
        {
          "duration": 0.40697674418603924,
          "durationTicks": 35,
          "midi": 79,
          "name": "G5",
          "ticks": 16639,
          "time": 193.47674418604652,
          "velocity": 0.4881889763779528
        },
        {
          "duration": 0.38372093023255616,
          "durationTicks": 33,
          "midi": 83,
          "name": "B5",
          "ticks": 16639,
          "time": 193.47674418604652,
          "velocity": 0.2755905511811024
        },
        {
          "duration": 0.4186046511627808,
          "durationTicks": 36,
          "midi": 70,
          "name": "A#4",
          "ticks": 16640,
          "time": 193.48837209302326,
          "velocity": 0.47244094488188976
        },
        {
          "duration": 0.17441860465115155,
          "durationTicks": 15,
          "midi": 94,
          "name": "A#6",
          "ticks": 16640,
          "time": 193.48837209302326,
          "velocity": 0.14173228346456693
        },
        {
          "duration": 0.05813953488370771,
          "durationTicks": 5,
          "midi": 98,
          "name": "D7",
          "ticks": 16640,
          "time": 193.48837209302326,
          "velocity": 0.14173228346456693
        },
        {
          "duration": 0.3139534883721069,
          "durationTicks": 27,
          "midi": 62,
          "name": "D4",
          "ticks": 16641,
          "time": 193.5,
          "velocity": 0.31496062992125984
        },
        {
          "duration": 0.2674418604651123,
          "durationTicks": 23,
          "midi": 67,
          "name": "G4",
          "ticks": 16641,
          "time": 193.5,
          "velocity": 0.36220472440944884
        },
        {
          "duration": 0.24418604651162923,
          "durationTicks": 21,
          "midi": 81,
          "name": "A5",
          "ticks": 16641,
          "time": 193.5,
          "velocity": 0.1889763779527559
        },
        {
          "duration": 0.04651162790696617,
          "durationTicks": 4,
          "midi": 92,
          "name": "G#6",
          "ticks": 16641,
          "time": 193.5,
          "velocity": 0.11023622047244094
        },
        {
          "duration": 0.08139534883721922,
          "durationTicks": 7,
          "midi": 96,
          "name": "C7",
          "ticks": 16641,
          "time": 193.5,
          "velocity": 0.10236220472440945
        },
        {
          "duration": 0.3139534883721069,
          "durationTicks": 27,
          "midi": 58,
          "name": "A#3",
          "ticks": 16643,
          "time": 193.52325581395348,
          "velocity": 0.3228346456692913
        },
        {
          "duration": 0.13953488372092693,
          "durationTicks": 12,
          "midi": 88,
          "name": "E6",
          "ticks": 16644,
          "time": 193.53488372093022,
          "velocity": 0.11811023622047244
        },
        {
          "duration": 0.03488372093025305,
          "durationTicks": 3,
          "midi": 84,
          "name": "C6",
          "ticks": 16645,
          "time": 193.54651162790697,
          "velocity": 0.10236220472440945
        },
        {
          "duration": 0.034883720930224626,
          "durationTicks": 3,
          "midi": 41,
          "name": "F2",
          "ticks": 16649,
          "time": 193.59302325581396,
          "velocity": 0.1889763779527559
        },
        {
          "duration": 0.04651162790696617,
          "durationTicks": 4,
          "midi": 92,
          "name": "G#6",
          "ticks": 16651,
          "time": 193.61627906976744,
          "velocity": 0.08661417322834646
        },
        {
          "duration": 0.04651162790696617,
          "durationTicks": 4,
          "midi": 84,
          "name": "C6",
          "ticks": 16652,
          "time": 193.62790697674419,
          "velocity": 0.09448818897637795
        },
        {
          "duration": 0.023255813953511506,
          "durationTicks": 2,
          "midi": 70,
          "name": "A#4",
          "ticks": 16678,
          "time": 193.93023255813952,
          "velocity": 0.2677165354330709
        },
        {
          "duration": 0.2906976744186238,
          "durationTicks": 25,
          "midi": 81,
          "name": "A5",
          "ticks": 16678,
          "time": 193.93023255813952,
          "velocity": 0.3464566929133858
        },
        {
          "duration": 0.17441860465117998,
          "durationTicks": 15,
          "midi": 83,
          "name": "B5",
          "ticks": 16678,
          "time": 193.93023255813952,
          "velocity": 0.31496062992125984
        },
        {
          "duration": 0.38372093023255616,
          "durationTicks": 33,
          "midi": 61,
          "name": "C#4",
          "ticks": 16679,
          "time": 193.9418604651163,
          "velocity": 0.4015748031496063
        },
        {
          "duration": 0.38372093023255616,
          "durationTicks": 33,
          "midi": 73,
          "name": "C#5",
          "ticks": 16679,
          "time": 193.9418604651163,
          "velocity": 0.5354330708661418
        },
        {
          "duration": 0.6860465116278931,
          "durationTicks": 59,
          "midi": 76,
          "name": "E5",
          "ticks": 16679,
          "time": 193.9418604651163,
          "velocity": 0.3779527559055118
        },
        {
          "duration": 0.10465116279067388,
          "durationTicks": 9,
          "midi": 87,
          "name": "D#6",
          "ticks": 16679,
          "time": 193.9418604651163,
          "velocity": 0.14173228346456693
        },
        {
          "duration": 0.13953488372092693,
          "durationTicks": 12,
          "midi": 90,
          "name": "F#6",
          "ticks": 16679,
          "time": 193.9418604651163,
          "velocity": 0.11811023622047244
        },
        {
          "duration": 0.0813953488371908,
          "durationTicks": 7,
          "midi": 100,
          "name": "E7",
          "ticks": 16679,
          "time": 193.9418604651163,
          "velocity": 0.14173228346456693
        },
        {
          "duration": 0.22093023255811772,
          "durationTicks": 19,
          "midi": 45,
          "name": "A2",
          "ticks": 16680,
          "time": 193.95348837209303,
          "velocity": 0.48031496062992124
        },
        {
          "duration": 0.0813953488371908,
          "durationTicks": 7,
          "midi": 52,
          "name": "E3",
          "ticks": 16680,
          "time": 193.95348837209303,
          "velocity": 0.28346456692913385
        },
        {
          "duration": 0.3953488372092977,
          "durationTicks": 34,
          "midi": 69,
          "name": "A4",
          "ticks": 16680,
          "time": 193.95348837209303,
          "velocity": 0.3858267716535433
        },
        {
          "duration": 0.05813953488370771,
          "durationTicks": 5,
          "midi": 86,
          "name": "D6",
          "ticks": 16680,
          "time": 193.95348837209303,
          "velocity": 0.2125984251968504
        },
        {
          "duration": 0.1860465116278931,
          "durationTicks": 16,
          "midi": 89,
          "name": "F6",
          "ticks": 16680,
          "time": 193.95348837209303,
          "velocity": 0.13385826771653545
        },
        {
          "duration": 0.09302325581393234,
          "durationTicks": 8,
          "midi": 92,
          "name": "G#6",
          "ticks": 16681,
          "time": 193.96511627906978,
          "velocity": 0.11023622047244094
        },
        {
          "duration": 0.30232558139533694,
          "durationTicks": 26,
          "midi": 64,
          "name": "E4",
          "ticks": 16682,
          "time": 193.97674418604652,
          "velocity": 0.4015748031496063
        },
        {
          "duration": 0.11627906976744384,
          "durationTicks": 10,
          "midi": 71,
          "name": "B4",
          "ticks": 16682,
          "time": 193.97674418604652,
          "velocity": 0.25196850393700787
        },
        {
          "duration": 0.05813953488373613,
          "durationTicks": 5,
          "midi": 79,
          "name": "G5",
          "ticks": 16686,
          "time": 194.02325581395348,
          "velocity": 0.11023622047244094
        },
        {
          "duration": 0.17441860465117998,
          "durationTicks": 15,
          "midi": 52,
          "name": "E3",
          "ticks": 16688,
          "time": 194.04651162790697,
          "velocity": 0.2755905511811024
        },
        {
          "duration": 0.06976744186047767,
          "durationTicks": 6,
          "midi": 86,
          "name": "D6",
          "ticks": 16688,
          "time": 194.04651162790697,
          "velocity": 0.15748031496062992
        },
        {
          "duration": 0.04651162790696617,
          "durationTicks": 4,
          "midi": 87,
          "name": "D#6",
          "ticks": 16691,
          "time": 194.08139534883722,
          "velocity": 0.12598425196850394
        },
        {
          "duration": 0.05813953488370771,
          "durationTicks": 5,
          "midi": 91,
          "name": "G6",
          "ticks": 16691,
          "time": 194.08139534883722,
          "velocity": 0.07086614173228346
        },
        {
          "duration": 0.023255813953483084,
          "durationTicks": 2,
          "midi": 71,
          "name": "B4",
          "ticks": 16693,
          "time": 194.1046511627907,
          "velocity": 0.2440944881889764
        },
        {
          "duration": 0.04651162790696617,
          "durationTicks": 4,
          "midi": 90,
          "name": "F#6",
          "ticks": 16693,
          "time": 194.1046511627907,
          "velocity": 0.11811023622047244
        },
        {
          "duration": 0.06976744186047767,
          "durationTicks": 6,
          "midi": 71,
          "name": "B4",
          "ticks": 16696,
          "time": 194.13953488372093,
          "velocity": 0.2204724409448819
        },
        {
          "duration": 0.04651162790699459,
          "durationTicks": 4,
          "midi": 79,
          "name": "G5",
          "ticks": 16699,
          "time": 194.17441860465115,
          "velocity": 0.09448818897637795
        },
        {
          "duration": 0.023255813953511506,
          "durationTicks": 2,
          "midi": 45,
          "name": "A2",
          "ticks": 16700,
          "time": 194.1860465116279,
          "velocity": 0.3464566929133858
        },
        {
          "duration": 0.05813953488370771,
          "durationTicks": 5,
          "midi": 45,
          "name": "A2",
          "ticks": 16703,
          "time": 194.22093023255815,
          "velocity": 0.25984251968503935
        },
        {
          "duration": 0.2325581395348877,
          "durationTicks": 20,
          "midi": 61,
          "name": "C#4",
          "ticks": 16717,
          "time": 194.38372093023256,
          "velocity": 0.41732283464566927
        },
        {
          "duration": 0.6511627906976685,
          "durationTicks": 56,
          "midi": 69,
          "name": "A4",
          "ticks": 16717,
          "time": 194.38372093023256,
          "velocity": 0.4015748031496063
        },
        {
          "duration": 0.2325581395348877,
          "durationTicks": 20,
          "midi": 73,
          "name": "C#5",
          "ticks": 16718,
          "time": 194.3953488372093,
          "velocity": 0.49606299212598426
        },
        {
          "duration": 0.1046511627907023,
          "durationTicks": 9,
          "midi": 83,
          "name": "B5",
          "ticks": 16718,
          "time": 194.3953488372093,
          "velocity": 0.2677165354330709
        },
        {
          "duration": 0.04651162790699459,
          "durationTicks": 4,
          "midi": 86,
          "name": "D6",
          "ticks": 16718,
          "time": 194.3953488372093,
          "velocity": 0.2047244094488189
        },
        {
          "duration": 0.1046511627907023,
          "durationTicks": 9,
          "midi": 87,
          "name": "D#6",
          "ticks": 16718,
          "time": 194.3953488372093,
          "velocity": 0.12598425196850394
        },
        {
          "duration": 0.13953488372092693,
          "durationTicks": 12,
          "midi": 90,
          "name": "F#6",
          "ticks": 16718,
          "time": 194.3953488372093,
          "velocity": 0.15748031496062992
        },
        {
          "duration": 0.2093023255814046,
          "durationTicks": 18,
          "midi": 45,
          "name": "A2",
          "ticks": 16719,
          "time": 194.40697674418604,
          "velocity": 0.4645669291338583
        },
        {
          "duration": 0.08139534883721922,
          "durationTicks": 7,
          "midi": 52,
          "name": "E3",
          "ticks": 16719,
          "time": 194.40697674418604,
          "velocity": 0.2992125984251969
        },
        {
          "duration": 0.04651162790699459,
          "durationTicks": 4,
          "midi": 71,
          "name": "B4",
          "ticks": 16719,
          "time": 194.40697674418604,
          "velocity": 0.2440944881889764
        },
        {
          "duration": 0.03488372093025305,
          "durationTicks": 3,
          "midi": 91,
          "name": "G6",
          "ticks": 16719,
          "time": 194.40697674418604,
          "velocity": 0.10236220472440945
        },
        {
          "duration": 0.12790697674418539,
          "durationTicks": 11,
          "midi": 92,
          "name": "G#6",
          "ticks": 16719,
          "time": 194.40697674418604,
          "velocity": 0.11811023622047244
        },
        {
          "duration": 0.11627906976744384,
          "durationTicks": 10,
          "midi": 89,
          "name": "F6",
          "ticks": 16720,
          "time": 194.41860465116278,
          "velocity": 0.11811023622047244
        },
        {
          "duration": 0.06976744186044925,
          "durationTicks": 6,
          "midi": 79,
          "name": "G5",
          "ticks": 16722,
          "time": 194.4418604651163,
          "velocity": 0.09448818897637795
        },
        {
          "duration": 0.1046511627907023,
          "durationTicks": 9,
          "midi": 71,
          "name": "B4",
          "ticks": 16724,
          "time": 194.46511627906978,
          "velocity": 0.25196850393700787
        },
        {
          "duration": 0.04651162790696617,
          "durationTicks": 4,
          "midi": 80,
          "name": "G#5",
          "ticks": 16724,
          "time": 194.46511627906978,
          "velocity": 0.11811023622047244
        },
        {
          "duration": 0.06976744186047767,
          "durationTicks": 6,
          "midi": 52,
          "name": "E3",
          "ticks": 16727,
          "time": 194.5,
          "velocity": 0.2677165354330709
        },
        {
          "duration": 0.05813953488373613,
          "durationTicks": 5,
          "midi": 86,
          "name": "D6",
          "ticks": 16728,
          "time": 194.51162790697674,
          "velocity": 0.11023622047244094
        },
        {
          "duration": 0.023255813953483084,
          "durationTicks": 2,
          "midi": 44,
          "name": "G#2",
          "ticks": 16737,
          "time": 194.61627906976744,
          "velocity": 0.30708661417322836
        },
        {
          "duration": 0.24418604651162923,
          "durationTicks": 21,
          "midi": 62,
          "name": "D4",
          "ticks": 16737,
          "time": 194.61627906976744,
          "velocity": 0.3464566929133858
        },
        {
          "duration": 0.38372093023255616,
          "durationTicks": 33,
          "midi": 65,
          "name": "F4",
          "ticks": 16737,
          "time": 194.61627906976744,
          "velocity": 0.3858267716535433
        },
        {
          "duration": 0.27906976744185386,
          "durationTicks": 24,
          "midi": 77,
          "name": "F5",
          "ticks": 16737,
          "time": 194.61627906976744,
          "velocity": 0.4094488188976378
        },
        {
          "duration": 0.24418604651162923,
          "durationTicks": 21,
          "midi": 86,
          "name": "D6",
          "ticks": 16737,
          "time": 194.61627906976744,
          "velocity": 0.3779527559055118
        },
        {
          "duration": 0.034883720930224626,
          "durationTicks": 3,
          "midi": 72,
          "name": "C5",
          "ticks": 16738,
          "time": 194.62790697674419,
          "velocity": 0.2047244094488189
        },
        {
          "duration": 0.5232558139534831,
          "durationTicks": 45,
          "midi": 74,
          "name": "D5",
          "ticks": 16738,
          "time": 194.62790697674419,
          "velocity": 0.4251968503937008
        },
        {
          "duration": 0.04651162790696617,
          "durationTicks": 4,
          "midi": 80,
          "name": "G#5",
          "ticks": 16738,
          "time": 194.62790697674419,
          "velocity": 0.23622047244094488
        },
        {
          "duration": 0.24418604651162923,
          "durationTicks": 21,
          "midi": 84,
          "name": "C6",
          "ticks": 16738,
          "time": 194.62790697674419,
          "velocity": 0.23622047244094488
        },
        {
          "duration": 0.27906976744185386,
          "durationTicks": 24,
          "midi": 88,
          "name": "E6",
          "ticks": 16738,
          "time": 194.62790697674419,
          "velocity": 0.23622047244094488
        },
        {
          "duration": 0.04651162790696617,
          "durationTicks": 4,
          "midi": 85,
          "name": "C#6",
          "ticks": 16739,
          "time": 194.63953488372093,
          "velocity": 0.1968503937007874
        },
        {
          "duration": 0.023255813953483084,
          "durationTicks": 2,
          "midi": 38,
          "name": "D2",
          "ticks": 16745,
          "time": 194.7093023255814,
          "velocity": 0.30708661417322836
        },
        {
          "duration": 0.04651162790696617,
          "durationTicks": 4,
          "midi": 57,
          "name": "A3",
          "ticks": 16745,
          "time": 194.7093023255814,
          "velocity": 0.1889763779527559
        },
        {
          "duration": 0.12790697674418539,
          "durationTicks": 11,
          "midi": 95,
          "name": "B6",
          "ticks": 16745,
          "time": 194.7093023255814,
          "velocity": 0.11023622047244094
        },
        {
          "duration": 0.13953488372092693,
          "durationTicks": 12,
          "midi": 72,
          "name": "C5",
          "ticks": 16747,
          "time": 194.7325581395349,
          "velocity": 0.1732283464566929
        },
        {
          "duration": 0.04651162790696617,
          "durationTicks": 4,
          "midi": 85,
          "name": "C#6",
          "ticks": 16747,
          "time": 194.7325581395349,
          "velocity": 0.11023622047244094
        },
        {
          "duration": 0.04651162790699459,
          "durationTicks": 4,
          "midi": 38,
          "name": "D2",
          "ticks": 16752,
          "time": 194.7906976744186,
          "velocity": 0.31496062992125984
        },
        {
          "duration": 0.04651162790699459,
          "durationTicks": 4,
          "midi": 57,
          "name": "A3",
          "ticks": 16752,
          "time": 194.7906976744186,
          "velocity": 0.11811023622047244
        },
        {
          "duration": 0.034883720930224626,
          "durationTicks": 3,
          "midi": 85,
          "name": "C#6",
          "ticks": 16754,
          "time": 194.8139534883721,
          "velocity": 0.09448818897637795
        },
        {
          "duration": 0.04651162790696617,
          "durationTicks": 4,
          "midi": 38,
          "name": "D2",
          "ticks": 16759,
          "time": 194.87209302325581,
          "velocity": 0.2204724409448819
        }
      ],
      "endOfTrackTicks": 16783
    }
  ]
}
